<svg width="279" height="153" viewBox="0 0 279 153" fill="none" xmlns="http://www.w3.org/2000/svg">
<path fill-rule="evenodd" clip-rule="evenodd" d="M98.035 54.0711V50.0929C92.4939 48.7939 87.5211 46.0741 83.6038 42.3395C82.3048 41.1217 81.1479 39.8024 80.0925 38.3816L77.9004 42.0756C78.7732 43.1514 79.7068 44.1459 80.7014 45.0999C85.3697 49.5246 91.3573 52.7112 98.035 54.0711Z" fill="#FEFEFE"/>
<path fill-rule="evenodd" clip-rule="evenodd" d="M54.0703 43.476V47.5354C58.7589 46.277 62.9604 43.882 66.3094 40.675C68.8465 38.28 70.8964 35.4181 72.3172 32.2721C73.393 35.0122 74.5702 37.5899 76.0316 39.579H76.0519C77.5335 37.5899 78.7108 35.0122 79.7662 32.2721C81.2073 35.4181 83.2573 38.28 85.7741 40.675C89.1434 43.882 93.3449 46.277 98.0335 47.5354V43.476C94.4612 42.3394 91.2746 40.4112 88.6563 37.935C84.2924 33.7741 81.5929 28.0504 81.5929 21.7583V8.11877C81.5929 5.947 81.1464 3.79553 80.2939 1.78613L79.5429 0L79.3603 0.446535C78.1221 3.3287 77.493 6.43413 77.493 9.58015V21.7583C77.493 24.8231 76.9855 28.4157 76.0519 31.1964C75.1182 28.4157 74.5905 24.8231 74.5905 21.7583V8.24055C74.5905 5.98759 74.144 3.75493 73.2712 1.68464L72.5608 0L72.4187 0.304453C71.1603 3.2881 70.5108 6.49502 70.5108 9.72223V21.7583C70.5108 28.0504 67.791 33.7741 63.4272 37.935C60.8292 40.4112 57.6223 42.3394 54.0703 43.476Z" fill="#FEFEFE"/>
<path fill-rule="evenodd" clip-rule="evenodd" d="M84.0293 17.4553V21.3929C84.0293 27.0558 86.4649 32.1909 90.3822 35.9255C92.5337 37.9755 95.1317 39.5993 98.0342 40.6344V36.4126C96.2683 35.5805 94.6649 34.4844 93.2847 33.1854C90.0981 30.1612 88.1089 25.98 88.1089 21.3929V17.4553H84.0293Z" fill="#FEFEFE"/>
<path fill-rule="evenodd" clip-rule="evenodd" d="M54.0703 36.4126V40.6344C56.9525 39.5993 59.5505 37.9755 61.702 35.9255C65.6193 32.1909 68.0549 27.0558 68.0549 21.3929V17.4553H63.9752V21.3929C63.9752 25.98 62.0064 30.1612 58.8198 33.1854C57.4396 34.4844 55.8361 35.5805 54.0703 36.4126Z" fill="#FEFEFE"/>
<path fill-rule="evenodd" clip-rule="evenodd" d="M54.0703 50.0929V54.0711C60.748 52.7112 66.7153 49.5246 71.3836 45.0999C72.3781 44.1459 73.3118 43.1514 74.1846 42.0756L71.9925 38.3816C70.9573 39.8024 69.7801 41.1217 68.5014 42.3395C64.5841 46.0741 59.6114 48.7939 54.0703 50.0929Z" fill="#FEFEFE"/>
<path fill-rule="evenodd" clip-rule="evenodd" d="M54.0703 98.0343V102.012C59.6114 103.312 64.5841 106.031 68.5014 109.766C69.7801 110.984 70.9573 112.303 71.9925 113.744L74.1846 110.03C73.3118 108.974 72.3781 107.959 71.3836 107.006C66.7153 102.581 60.748 99.3942 54.0703 98.0343Z" fill="#FEFEFE"/>
<path fill-rule="evenodd" clip-rule="evenodd" d="M63.9752 134.65H68.0549V130.712C68.0549 125.049 65.6193 119.914 61.702 116.18C59.5505 114.13 56.9525 112.506 54.0703 111.471V115.693C55.8361 116.525 57.4396 117.621 58.8198 118.92C62.0064 121.944 63.9752 126.125 63.9752 130.712V134.65Z" fill="#FEFEFE"/>
<path fill-rule="evenodd" clip-rule="evenodd" d="M84.0293 134.65H88.1089V130.712C88.1089 126.125 90.0981 121.944 93.2847 118.92C94.6649 117.621 96.2683 116.525 98.0342 115.693V111.471C95.1317 112.506 92.5337 114.13 90.3822 116.18C86.4649 119.914 84.0293 125.049 84.0293 130.712V134.65Z" fill="#FEFEFE"/>
<path fill-rule="evenodd" clip-rule="evenodd" d="M98.035 102.012V98.0343C91.3573 99.3942 85.3697 102.581 80.7014 107.006C79.7068 107.959 78.7732 108.974 77.9004 110.03L80.0925 113.744C81.1479 112.303 82.3048 110.984 83.6038 109.766C87.5211 106.031 92.4939 103.312 98.035 102.012Z" fill="#FEFEFE"/>
<path fill-rule="evenodd" clip-rule="evenodd" d="M43.3751 37.6306C42.3602 37.6509 41.3656 37.59 40.3711 37.4276L40.98 39.8024C41.7513 39.8633 42.5225 39.9039 43.3141 39.8836C46.9473 39.7821 50.621 38.6658 53.828 36.5346L52.2448 34.9514C49.5047 36.6564 46.4196 37.5494 43.3751 37.6306Z" fill="#FEFEFE"/>
<path fill-rule="evenodd" clip-rule="evenodd" d="M25.6955 24.8435L32.6777 31.8257C33.9158 33.0435 35.1336 34.6875 35.8846 36.1895C34.3826 35.4385 32.7385 34.2004 31.5207 32.9826L24.5386 26.0004L22.8945 27.6242L29.8767 34.6266C32.4138 37.1435 33.6113 40.5127 33.5302 43.9226C33.4693 45.9726 32.9618 48.0023 31.9876 49.8899L33.6316 51.5137C34.9915 49.1389 35.7222 46.5003 35.7831 43.8617C35.8237 41.8929 35.5193 39.9444 34.8089 38.0974C36.3311 38.7672 37.8534 39.3355 39.2336 39.5385C39.0306 38.1583 38.4623 36.636 37.7925 35.1138C39.6395 35.8039 41.588 36.1286 43.5771 36.088C46.1954 36.0068 48.834 35.2964 51.2088 33.9162L49.585 32.2925C47.6974 33.2667 45.6677 33.7742 43.6177 33.8351C40.2078 33.9162 36.8385 32.6984 34.3217 30.1816L27.3396 23.1995L25.6955 24.8435Z" fill="#FEFEFE"/>
<path fill-rule="evenodd" clip-rule="evenodd" d="M33.5703 27.482L35.1535 29.0652C37.4064 31.3181 40.451 32.4142 43.5158 32.333C45.2004 32.2924 46.8851 31.9068 48.448 31.1558L46.7633 29.4711C45.7282 29.8568 44.6524 30.0597 43.5767 30.08C41.0802 30.1409 38.6243 29.2682 36.7773 27.4211L35.2144 25.8583L33.5703 27.482Z" fill="#FEFEFE"/>
<path fill-rule="evenodd" clip-rule="evenodd" d="M25.5547 35.5197L27.1176 37.0825C28.9646 38.9295 29.8374 41.3855 29.7765 43.8617C29.7562 44.9374 29.5532 46.0335 29.1676 47.0686L30.8522 48.7533C31.6032 47.1904 31.9888 45.4855 32.0294 43.8211C32.1106 40.7563 31.0349 37.7117 28.7616 35.4588L27.1785 33.8756L25.5547 35.5197Z" fill="#FEFEFE"/>
<path fill-rule="evenodd" clip-rule="evenodd" d="M37.3257 43.6586C37.2445 46.7234 36.3514 49.8085 34.6465 52.5486L36.2296 54.1318C38.3608 50.9249 39.4771 47.2511 39.5786 43.618C39.5989 42.8264 39.5584 42.0551 39.4975 41.2838L37.1227 40.6749C37.2851 41.6492 37.346 42.664 37.3257 43.6586Z" fill="#FEFEFE"/>
<path fill-rule="evenodd" clip-rule="evenodd" d="M108.792 112.526C105.138 112.607 101.485 113.744 98.2578 115.855L99.8613 117.458C102.601 115.753 105.666 114.86 108.731 114.779C109.746 114.759 110.74 114.82 111.735 114.962L111.126 112.607C110.497 112.546 109.888 112.526 109.279 112.526C109.117 112.526 108.954 112.526 108.792 112.526Z" fill="#FEFEFE"/>
<path fill-rule="evenodd" clip-rule="evenodd" d="M116.321 108.528C116.26 110.496 116.585 112.465 117.275 114.312C115.753 113.642 114.251 113.074 112.87 112.871H112.85C113.053 114.251 113.621 115.753 114.291 117.276C112.465 116.585 110.496 116.261 108.527 116.322C105.909 116.382 103.27 117.113 100.875 118.473L102.499 120.097C104.386 119.143 106.436 118.635 108.466 118.575C111.876 118.493 115.265 119.691 117.782 122.208L124.764 129.21L126.409 127.566L119.406 120.584C118.188 119.346 116.95 117.702 116.219 116.22C117.701 116.951 119.345 118.189 120.583 119.427L127.565 126.409L129.189 124.765L122.207 117.783C119.69 115.266 118.493 111.877 118.574 108.467C118.615 106.437 119.142 104.387 120.096 102.52L118.472 100.876C117.092 103.271 116.382 105.909 116.321 108.528Z" fill="#FEFEFE"/>
<path fill-rule="evenodd" clip-rule="evenodd" d="M108.589 120.077C106.905 120.117 105.22 120.503 103.637 121.233L105.342 122.938C106.377 122.553 107.453 122.35 108.528 122.33C111.005 122.269 113.481 123.141 115.307 124.988L116.891 126.551L118.514 124.907L116.952 123.344C114.759 121.152 111.857 120.056 108.894 120.056C108.792 120.056 108.691 120.056 108.589 120.077Z" fill="#FEFEFE"/>
<path fill-rule="evenodd" clip-rule="evenodd" d="M120.057 108.589C119.996 111.654 121.072 114.678 123.345 116.951L124.908 118.534L126.552 116.89L124.969 115.307C123.142 113.48 122.249 111.024 122.33 108.528C122.351 107.452 122.554 106.376 122.939 105.341L121.234 103.636C120.504 105.219 120.098 106.904 120.057 108.589Z" fill="#FEFEFE"/>
<path fill-rule="evenodd" clip-rule="evenodd" d="M112.527 108.792C112.507 109.563 112.527 110.355 112.608 111.126L114.963 111.735C114.82 110.74 114.76 109.746 114.78 108.731C114.861 105.686 115.754 102.601 117.459 99.861L115.856 98.2778C113.724 101.485 112.608 105.158 112.527 108.792Z" fill="#FEFEFE"/>
<path fill-rule="evenodd" clip-rule="evenodd" d="M34.7891 100.003C36.494 102.743 37.3871 105.828 37.4683 108.893C37.4886 109.888 37.4277 110.902 37.2856 111.877L39.64 111.268C39.7212 110.496 39.7415 109.725 39.7212 108.934C39.64 105.3 38.5237 101.627 36.3925 98.4198L34.7891 100.003Z" fill="#FEFEFE"/>
<path fill-rule="evenodd" clip-rule="evenodd" d="M32.1496 102.662C33.1036 104.549 33.6313 106.579 33.6719 108.629C33.7531 112.039 32.5556 115.408 30.0388 117.925L23.0566 124.907L24.6804 126.551L31.6625 119.569C32.9006 118.331 34.5447 117.113 36.0263 116.362C35.2957 117.864 34.0576 119.508 32.8195 120.726L25.8373 127.708L27.4814 129.352L34.4635 122.37C36.9803 119.853 40.3699 118.636 43.7798 118.717C45.8095 118.778 47.8595 119.285 49.7471 120.259L51.3708 118.636C48.9758 117.255 46.3372 116.525 43.7189 116.464C41.7501 116.423 39.7813 116.748 37.9546 117.438C38.6041 115.916 39.1724 114.393 39.3754 113.013C37.9952 113.216 36.4932 113.785 34.9709 114.454C35.661 112.607 35.9858 110.659 35.9249 108.67C35.864 106.051 35.1333 103.413 33.7734 101.038L32.1496 102.662Z" fill="#FEFEFE"/>
<path fill-rule="evenodd" clip-rule="evenodd" d="M29.3082 105.483C29.6938 106.518 29.8968 107.594 29.9171 108.69C29.978 111.166 29.1052 113.622 27.2785 115.469L25.6953 117.032L27.3394 118.676L28.9023 117.093C31.1755 114.84 32.2512 111.795 32.1904 108.731C32.1295 107.066 31.7438 105.361 31.0131 103.798L29.3082 105.483Z" fill="#FEFEFE"/>
<path fill-rule="evenodd" clip-rule="evenodd" d="M35.2972 123.487L33.7344 125.07L35.3581 126.693L36.9413 125.131C38.768 123.284 41.2239 122.411 43.7204 122.472C44.7962 122.492 45.8719 122.695 46.9071 123.081L48.612 121.396C47.0288 120.645 45.3442 120.259 43.6595 120.219C43.5581 120.219 43.4566 120.219 43.3551 120.219C40.3917 120.219 37.4893 121.294 35.2972 123.487Z" fill="#FEFEFE"/>
<path fill-rule="evenodd" clip-rule="evenodd" d="M41.1206 112.749L40.5117 115.124C41.5063 114.962 42.5008 114.901 43.5156 114.921C46.5805 115.002 49.6453 115.895 52.3854 117.6L53.9888 116.017C50.7616 113.886 47.1082 112.77 43.4547 112.668C43.2924 112.668 43.13 112.668 42.9676 112.668C42.3587 112.668 41.7295 112.688 41.1206 112.749Z" fill="#FEFEFE"/>
<path fill-rule="evenodd" clip-rule="evenodd" d="M112.446 41.1419C112.385 41.9132 112.344 42.6845 112.365 43.4558C112.466 47.1092 113.582 50.7829 115.714 53.9899L117.317 52.3864C115.612 49.6666 114.699 46.5815 114.638 43.5166C114.597 42.5221 114.658 41.5072 114.821 40.5127L112.446 41.1419Z" fill="#FEFEFE"/>
<path fill-rule="evenodd" clip-rule="evenodd" d="M117.642 30.0394C115.105 32.5562 111.735 33.774 108.325 33.6725C106.296 33.6319 104.246 33.1245 102.358 32.1503L100.734 33.774C103.109 35.1542 105.748 35.8646 108.386 35.9255C110.355 35.9864 112.324 35.6616 114.151 34.9715C113.481 36.4938 112.913 37.9958 112.71 39.376V39.3963H112.73C114.11 39.1933 115.612 38.625 117.134 37.9552C116.444 39.7819 116.119 41.7507 116.16 43.7195C116.241 46.3378 116.952 48.9967 118.332 51.3715L119.956 49.7477C118.981 47.8601 118.474 45.8101 118.433 43.7804C118.332 40.3705 119.55 36.9809 122.066 34.4641L129.049 27.482L127.405 25.8582L120.422 32.8404C119.205 34.0582 117.561 35.2963 116.059 36.027C116.81 34.5453 118.048 32.9013 119.265 31.6631L126.248 24.681L124.624 23.0573L117.642 30.0394Z" fill="#FEFEFE"/>
<path fill-rule="evenodd" clip-rule="evenodd" d="M123.182 35.2964C120.929 37.5696 119.833 40.5939 119.914 43.6587C119.955 45.3434 120.341 47.028 121.092 48.6112L122.776 46.9062C122.411 45.8711 122.208 44.7953 122.167 43.7196C122.107 41.2434 122.979 38.7672 124.826 36.9404L126.409 35.3573L124.765 33.7335L123.182 35.2964Z" fill="#FEFEFE"/>
<path fill-rule="evenodd" clip-rule="evenodd" d="M115.165 27.2791C113.318 29.1058 110.862 29.9989 108.386 29.938C107.31 29.8974 106.214 29.6944 105.179 29.3291L103.494 31.0137C105.077 31.7444 106.762 32.1503 108.447 32.1909C111.491 32.2721 114.536 31.1761 116.809 28.9028L118.372 27.34L116.728 25.6959L115.165 27.2791Z" fill="#FEFEFE"/>
<path fill-rule="evenodd" clip-rule="evenodd" d="M98.1152 36.3923C101.322 38.5235 104.996 39.6398 108.649 39.721C109.421 39.7413 110.192 39.721 110.963 39.6398L111.572 37.2853C110.598 37.4274 109.583 37.5086 108.588 37.468C105.524 37.3868 102.438 36.4938 99.7187 34.7888L98.1152 36.3923Z" fill="#FEFEFE"/>
<path fill-rule="evenodd" clip-rule="evenodd" d="M54.0703 98.0343V102.012C59.6114 103.312 64.5841 106.031 68.5014 109.766C69.7801 110.984 70.9573 112.303 71.9925 113.744L74.1846 110.03C73.3118 108.974 72.3781 107.959 71.3836 107.006C66.7153 102.581 60.748 99.3942 54.0703 98.0343Z" fill="#FEFEFE"/>
<path fill-rule="evenodd" clip-rule="evenodd" d="M63.9752 134.65H68.0549V130.712C68.0549 125.049 65.6193 119.914 61.702 116.18C59.5505 114.13 56.9525 112.506 54.0703 111.471V115.693C55.8361 116.525 57.4396 117.621 58.8198 118.92C62.0064 121.944 63.9752 126.125 63.9752 130.712V134.65Z" fill="#FEFEFE"/>
<path fill-rule="evenodd" clip-rule="evenodd" d="M84.0293 134.65H88.1089V130.712C88.1089 126.125 90.0981 121.944 93.2847 118.92C94.6649 117.621 96.2683 116.525 98.0342 115.693V111.471C95.1317 112.506 92.5337 114.13 90.3822 116.18C86.4649 119.914 84.0293 125.049 84.0293 130.712V134.65Z" fill="#FEFEFE"/>
<path fill-rule="evenodd" clip-rule="evenodd" d="M98.035 102.012V98.0343C91.3573 99.3942 85.3697 102.581 80.7014 107.006C79.7068 107.959 78.7732 108.974 77.9004 110.03L80.0925 113.744C81.1479 112.303 82.3048 110.984 83.6038 109.766C87.5211 106.031 92.4939 103.312 98.035 102.012Z" fill="#FEFEFE"/>
<path fill-rule="evenodd" clip-rule="evenodd" d="M107.006 80.7208C102.561 85.3891 99.3748 91.3564 98.0352 98.0341H102.013C103.292 92.493 106.032 87.5203 109.746 83.603C110.985 82.3243 112.304 81.147 113.725 80.0916L110.01 77.8995C108.955 78.7723 107.96 79.7263 107.006 80.7208Z" fill="#FEFEFE"/>
<path fill-rule="evenodd" clip-rule="evenodd" d="M108.629 54.071H104.549C105.828 58.7596 108.223 62.9611 111.409 66.3304C113.825 68.8472 116.666 70.8972 119.832 72.3383C117.092 73.3937 114.494 74.5709 112.526 76.0526H112.505L112.526 76.0729C114.494 77.5343 117.092 78.7115 119.832 79.7669C116.666 81.208 113.825 83.258 111.409 85.7748C108.223 89.1441 105.828 93.3456 104.549 98.0342H108.629C109.765 94.4822 111.693 91.2753 114.17 88.6773C118.31 84.2932 124.054 81.5937 130.346 81.5937H143.965C146.158 81.5937 148.309 81.1471 150.318 80.2947L152.105 79.5437L151.658 79.361C148.776 78.1432 145.65 77.514 142.504 77.514L130.346 77.4937C127.281 77.4937 123.689 76.9863 120.908 76.0526C123.689 75.119 127.281 74.6115 130.346 74.6115H143.864C146.117 74.6115 148.35 74.1447 150.42 73.2719L152.105 72.5615L151.78 72.4195C148.816 71.1611 145.609 70.5116 142.382 70.5116H130.346C124.054 70.5116 118.31 67.8121 114.17 63.4279C111.693 60.8299 109.765 57.6433 108.629 54.071Z" fill="#FEFEFE"/>
<path fill-rule="evenodd" clip-rule="evenodd" d="M134.65 84.0292H130.712C125.049 84.0292 119.914 86.4648 116.18 90.4024C114.13 92.5539 112.506 95.1519 111.471 98.0341H115.692C116.525 96.2682 117.621 94.6648 118.92 93.2846C121.944 90.0979 126.125 88.1292 130.712 88.1292H134.65V84.0292Z" fill="#FEFEFE"/>
<path fill-rule="evenodd" clip-rule="evenodd" d="M115.692 54.071H111.471C112.506 56.9532 114.13 59.5715 116.18 61.7027C119.914 65.6403 125.049 68.0759 130.712 68.0759H134.65V63.9759H130.712C126.125 63.9759 121.944 62.0071 118.92 58.8205C117.621 57.4403 116.525 55.8369 115.692 54.071Z" fill="#FEFEFE"/>
<path fill-rule="evenodd" clip-rule="evenodd" d="M102.013 54.071H98.0352C99.3748 60.7487 102.561 66.7363 107.006 71.3843C107.96 72.3992 108.955 73.3328 110.01 74.2056L113.725 72.0135C112.304 70.9581 110.985 69.7809 109.746 68.5022C106.032 64.5849 103.292 59.6121 102.013 54.071Z" fill="#FEFEFE"/>
<path fill-rule="evenodd" clip-rule="evenodd" d="M54.0711 54.071H50.0929C48.7939 59.6121 46.0741 64.5849 42.3395 68.5022C41.1217 69.7809 39.7821 70.9581 38.3613 72.0135L42.0756 74.2056C43.1311 73.3328 44.1459 72.3992 45.0999 71.3843C49.5246 66.7363 52.7112 60.7487 54.0711 54.071Z" fill="#FEFEFE"/>
<path fill-rule="evenodd" clip-rule="evenodd" d="M47.5354 54.071H43.476C42.3191 57.6433 40.4112 60.8299 37.935 63.4279C33.7741 67.8121 28.0504 70.5116 21.7583 70.5116H8.11877C5.947 70.5116 3.77524 70.9581 1.78614 71.8106L0 72.5615L0.42628 72.7442C3.32874 73.962 6.43413 74.6115 9.58015 74.6115H21.7583C24.8231 74.6115 28.4157 75.119 31.1964 76.0526C28.4157 76.9863 24.8231 77.4937 21.7583 77.4937L8.24055 77.514C5.98759 77.514 3.75495 77.9605 1.66436 78.8333L0 79.5437L0.304503 79.6858C3.28815 80.9442 6.49503 81.5937 9.72224 81.5937H21.7583C28.0504 81.5937 33.7741 84.2932 37.935 88.6773C40.4112 91.2753 42.3191 94.4822 43.476 98.0342H47.5354C46.277 93.3456 43.882 89.1441 40.6751 85.7748C38.28 83.258 35.4182 81.208 32.2518 79.7669C34.9919 78.7115 37.5899 77.5343 39.579 76.0729V76.0526C37.5899 74.5709 34.9919 73.3937 32.2518 72.3383C35.4182 70.8972 38.28 68.8472 40.6751 66.3304C43.882 62.9611 46.277 58.7596 47.5354 54.071Z" fill="#FEFEFE"/>
<path fill-rule="evenodd" clip-rule="evenodd" d="M40.6342 54.071H36.3921C35.5803 55.8369 34.4842 57.4403 33.1852 58.8205C30.1407 62.0071 25.9798 63.9759 21.3927 63.9759H17.4551V68.0759H21.3927C27.0555 68.0759 32.1907 65.6403 35.9253 61.7027C37.9753 59.5715 39.5788 56.9532 40.6342 54.071Z" fill="#FEFEFE"/>
<path fill-rule="evenodd" clip-rule="evenodd" d="M21.3927 84.0292H17.4551V88.1292H21.3927C25.9798 88.1292 30.1407 90.0979 33.1852 93.2846C34.4842 94.6648 35.5803 96.2682 36.3921 98.0341H40.6342C39.5788 95.1519 37.9753 92.5539 35.9253 90.4024C32.1907 86.4648 27.0555 84.0292 21.3927 84.0292Z" fill="#FEFEFE"/>
<path fill-rule="evenodd" clip-rule="evenodd" d="M38.3613 80.0916C39.7821 81.147 41.1217 82.3243 42.3395 83.603C46.0741 87.5203 48.7939 92.493 50.0929 98.0341H54.0711C52.7112 91.3564 49.5246 85.3891 45.0999 80.7208C44.1459 79.7263 43.1311 78.7723 42.0756 77.8995L38.3613 80.0916Z" fill="#FEFEFE"/>
<path d="M174.127 56.9328H167.551V52.2036H169.438L171.042 23.8082H183.159V56.9328H178.207V28.5374H175.73L174.127 56.9328Z" fill="#FEFEFE"/>
<path d="M201.873 23.8082H206.825V56.9328H201.873V23.8082ZM191.217 52.2036H194.992V40.8373H191.217V52.2036ZM199.965 54.761C199.965 56.0397 199.112 56.9328 197.793 56.9328H186.244V23.8082H191.217V36.1082H197.793C199.112 36.1082 199.965 37.0215 199.965 38.3002V54.761Z" fill="#FEFEFE"/>
<path d="M218.902 56.9328V41.3245H217.907L214.558 56.9328H209.443L213.604 38.9497L209.667 23.8082H214.781L217.907 36.5953H218.902V23.8082H223.874V36.5953H224.869L227.995 23.8082H233.11L229.172 38.9497L233.333 56.9328H228.218L224.869 41.3245H223.874V56.9328H218.902Z" fill="#FEFEFE"/>
<path d="M251.316 23.8082V56.9328H246.364V41.3245H240.904V56.9328H235.951V23.8082H240.904V36.5953H246.364V23.8082H251.316Z" fill="#FEFEFE"/>
<path d="M264.814 28.5374H260.329V36.5953H264.814V28.5374ZM254.158 56.9328L259.05 41.3245H257.528C256.208 41.3245 255.356 40.4111 255.356 39.1324V25.98C255.356 24.7013 256.208 23.8082 257.528 23.8082H269.787V56.9328H264.814V41.3245H264.347L259.415 56.9328H254.158Z" fill="#FEFEFE"/>
<path d="M172.281 83.4002H177.01V70.6131H172.281V83.4002ZM172.281 88.1293V99.0288H167.309V65.8839H179.811C181.131 65.8839 181.983 66.7973 181.983 68.0557V85.9576C181.983 87.2363 181.131 88.1293 179.811 88.1293H172.281Z" fill="#FEFEFE"/>
<path d="M194.525 70.6131H189.553V94.2793H194.525V70.6131ZM186.772 99.0288C185.432 99.0288 184.58 98.1154 184.58 96.8367V68.0557C184.58 66.7973 185.432 65.8839 186.772 65.8839H197.326C198.646 65.8839 199.498 66.7973 199.498 68.0557V96.8367C199.498 98.1154 198.646 99.0288 197.326 99.0288H186.772Z" fill="#FEFEFE"/>
<path d="M204.512 99.0288C203.192 99.0288 202.34 98.1154 202.34 96.8367V68.0557C202.34 66.7973 203.192 65.8839 204.512 65.8839H216.771V75.3626H211.798V70.6131H207.312V94.2793H211.798V88.1293H216.771V99.0288H204.512Z" fill="#FEFEFE"/>
<path d="M221.561 99.0288C220.222 99.0288 219.369 98.1154 219.369 96.8367V68.0557C219.369 66.7973 220.222 65.8839 221.561 65.8839H233.821V75.3626H228.848V70.6131H224.342V94.2793H228.848V88.1293H233.821V99.0288H221.561Z" fill="#FEFEFE"/>
<path d="M246.83 99.0288V80.4571L241.391 91.864V99.0288H236.418V65.8839H241.391V82.7304L246.83 71.3235V65.8839H251.803V99.0288H246.83Z" fill="#FEFEFE"/>
<path d="M265.057 99.0288V80.4571L259.617 91.864V99.0288H254.645V65.8839H259.617V82.7304L265.057 71.3235V65.8839H270.03V99.0288H265.057Z" fill="#FEFEFE"/>
<path fill-rule="evenodd" clip-rule="evenodd" d="M54.0703 104.57V108.629C57.6223 109.786 60.8292 111.694 63.4272 114.17C67.791 118.331 70.5108 124.055 70.5108 130.347V147.274L72.5608 150.786L74.5905 147.274V130.347C74.5905 127.282 75.1182 123.689 76.0519 120.909C76.9855 123.689 77.493 127.282 77.493 130.347V147.274L79.5429 150.786L81.5929 147.274V130.347C81.5929 124.055 84.2924 118.331 88.6563 114.17C91.2746 111.694 94.4612 109.786 98.0335 108.629V104.57C93.3449 105.828 89.1434 108.223 85.7741 111.43C83.2573 113.825 81.2073 116.687 79.7662 119.833C78.7108 117.093 77.5335 114.515 76.0519 112.526H76.0316C74.5702 114.515 73.393 117.093 72.3172 119.833C70.8964 116.687 68.8465 113.825 66.3094 111.43C62.9604 108.223 58.7589 105.828 54.0703 104.57Z" fill="#FEFEFE"/>
<path fill-rule="evenodd" clip-rule="evenodd" d="M54.0703 104.57V108.629C57.6223 109.786 60.8292 111.694 63.4272 114.17C67.791 118.331 70.5108 124.055 70.5108 130.347V143.986C70.5108 146.158 70.9574 148.31 71.7895 150.319L72.5608 152.105L72.7434 151.679C73.9613 148.776 74.5905 145.671 74.5905 142.525V130.347C74.5905 127.282 75.1182 123.689 76.0519 120.909C76.9855 123.689 77.493 127.282 77.493 130.347V143.865C77.493 146.118 77.9598 148.35 78.8325 150.42L79.5429 152.105L79.6647 151.801C80.9434 148.817 81.5929 145.61 81.5929 142.383V130.347C81.5929 124.055 84.2924 118.331 88.6563 114.17C91.2746 111.694 94.4612 109.786 98.0335 108.629V104.57C93.3449 105.828 89.1434 108.223 85.7741 111.43C83.2573 113.825 81.2073 116.687 79.7662 119.833C78.7108 117.093 77.5335 114.515 76.0519 112.526H76.0316C74.5702 114.515 73.393 117.093 72.3172 119.833C70.8964 116.687 68.8465 113.825 66.3094 111.43C62.9604 108.223 58.7589 105.828 54.0703 104.57Z" fill="#FEFEFE"/>
<path d="M171.904 121.8L173.968 112.2H177.04V129H174.52V121.8L174.928 117H174.808L173.056 125.64H170.704L168.904 117H168.784L169.24 121.8V129H166.72V112.2H169.792L171.832 121.8H171.904ZM182.206 126.6H184.726V114.6H182.206V126.6ZM186.142 129H180.79C180.454 129 180.182 128.896 179.974 128.688C179.782 128.48 179.686 128.216 179.686 127.896V113.304C179.686 112.984 179.782 112.72 179.974 112.512C180.182 112.304 180.454 112.2 180.79 112.2H186.142C186.478 112.2 186.742 112.304 186.934 112.512C187.142 112.72 187.246 112.984 187.246 113.304V127.896C187.246 128.216 187.142 128.48 186.934 128.688C186.742 128.896 186.478 129 186.142 129ZM197.206 129H190.99C190.654 129 190.382 128.896 190.174 128.688C189.982 128.48 189.886 128.216 189.886 127.896V113.304C189.886 112.984 189.982 112.72 190.174 112.512C190.382 112.304 190.654 112.2 190.99 112.2H197.206V117H194.686V114.6H192.406V126.6H194.686V123.48H197.206V129ZM205.182 119.88L207.774 129H205.11L202.902 121.08H202.254V129H199.734V112.2H202.254V118.68H202.974L205.11 112.2H207.774L205.182 119.88ZM214.617 118.68V114.6H212.337V118.68H214.617ZM214.617 121.08H212.337V126.6H214.617V121.08ZM217.137 113.304V118.008C217.137 118.968 216.721 119.592 215.889 119.88C216.721 120.168 217.137 120.792 217.137 121.752V127.896C217.137 128.216 217.033 128.48 216.825 128.688C216.633 128.896 216.369 129 216.033 129H209.817V112.2H216.033C216.369 112.2 216.633 112.304 216.825 112.512C217.033 112.72 217.137 112.984 217.137 113.304ZM219.783 112.2H227.223V129H224.703V123.48H222.303V129H219.783V112.2ZM224.703 121.08V114.6H222.303V121.08H224.703ZM241.863 113.304V117.336L237.543 125.856V126.6H241.863V129H235.023V125.52L239.343 117V114.6H237.543V117H235.023V113.304C235.023 112.984 235.119 112.72 235.311 112.512C235.519 112.304 235.791 112.2 236.127 112.2H240.759C241.095 112.2 241.359 112.304 241.551 112.512C241.759 112.72 241.863 112.984 241.863 113.304ZM246.902 126.6H248.702V114.6H246.902V126.6ZM250.118 129H245.486C245.15 129 244.878 128.896 244.67 128.688C244.478 128.48 244.382 128.216 244.382 127.896V113.304C244.382 112.984 244.478 112.72 244.67 112.512C244.878 112.304 245.15 112.2 245.486 112.2H250.118C250.454 112.2 250.718 112.304 250.91 112.512C251.118 112.72 251.222 112.984 251.222 113.304V127.896C251.222 128.216 251.118 128.48 250.91 128.688C250.718 128.896 250.454 129 250.118 129ZM260.576 113.304V117.336L256.256 125.856V126.6H260.576V129H253.736V125.52L258.056 117V114.6H256.256V117H253.736V113.304C253.736 112.984 253.832 112.72 254.024 112.512C254.232 112.304 254.504 112.2 254.84 112.2H259.472C259.808 112.2 260.072 112.304 260.264 112.512C260.472 112.72 260.576 112.984 260.576 113.304ZM267.415 121.08H265.615V126.6H267.415V121.08ZM269.935 113.304V117H267.415V114.6H265.615V118.68H268.831C269.167 118.68 269.431 118.784 269.623 118.992C269.831 119.2 269.935 119.464 269.935 119.784V127.896C269.935 128.216 269.831 128.48 269.623 128.688C269.431 128.896 269.167 129 268.831 129H264.199C263.863 129 263.591 128.896 263.383 128.688C263.191 128.48 263.095 128.216 263.095 127.896V113.304C263.095 112.984 263.191 112.72 263.383 112.512C263.591 112.304 263.863 112.2 264.199 112.2H268.831C269.167 112.2 269.431 112.304 269.623 112.512C269.831 112.72 269.935 112.984 269.935 113.304Z" fill="white"/>
</svg>
