<svg width="390" height="453" viewBox="0 0 390 453" fill="none" xmlns="http://www.w3.org/2000/svg">
<path d="M375.861 452.903H14V450.35H375.861C376.563 450.35 377.125 450.912 377.125 451.615C377.125 452.317 376.563 452.903 375.861 452.903Z" fill="#BA0D07"/>
<path d="M162.294 255.286C161.263 257.277 160.186 259.291 159.038 261.375C157.071 264.982 154.87 266.996 152.668 267.769C150.982 268.354 149.296 268.237 147.68 267.581C145.97 266.902 144.354 265.614 142.949 263.951C139.951 260.321 137.961 254.911 138.148 249.361C138.359 242.873 141.029 236.293 144.612 232.616C145.97 231.257 147.422 230.32 148.898 229.993C150.279 229.688 151.708 229.946 153.137 230.929C155.994 232.943 158.757 237.768 160.865 246.55C161.427 248.916 161.896 251.656 162.247 254.864L162.294 255.286ZM360.005 294.467C360.731 293.812 361.48 293.179 362.276 292.594C364.384 291.025 366.726 289.713 369.162 288.636C366.796 295.217 361.457 302.454 357.709 306.107C357.03 306.763 356.445 307.278 355.953 307.653C356.492 305.756 358.178 302.337 361.48 296.88C361.855 296.294 361.667 295.521 361.082 295.147L360.005 294.467ZM224.684 209.055C224.684 209.196 224.684 209.313 224.684 209.43L223.396 208.634C223.35 208.165 223.373 207.697 223.467 207.275C223.607 206.643 223.724 206.198 223.841 205.894C224.31 206.643 224.661 207.884 224.684 209.055ZM238.174 228.634C237.87 229.524 237.425 230.063 236.746 230.297C233.584 231.421 231.383 230.976 229.767 229.665C228.033 228.236 226.839 225.754 225.832 223.06C224.403 219.196 224.567 217.791 225.106 216.667C228.127 220.273 232.6 224.302 238.174 228.634ZM239.064 221.468C238.947 221.608 238.853 221.749 238.807 221.913C238.76 222.053 238.736 222.17 238.736 222.311C238.736 223.739 238.713 224.981 238.619 226.011C233.139 221.749 228.877 217.884 226.277 214.535C226.394 214.254 226.511 213.973 226.628 213.669L239.064 221.468ZM241.289 223.786C241.687 223.786 242.039 223.693 242.343 223.552L356.023 294.983C355.227 295.896 354.524 296.856 353.868 297.91C340.964 289.62 325.413 280.416 309.582 271.048C284.007 255.918 257.706 240.368 240.985 227.815C241.149 226.69 241.242 225.355 241.289 223.786ZM120.677 12.4219C125.431 18.0426 127.796 26.8017 125.408 37.1767C125.267 36.5678 125.127 35.9589 124.986 35.3265C124.073 31.0407 118.663 25.6307 111.941 22.2348C108.475 20.4783 104.658 19.2136 100.887 18.8858C97.0461 18.5579 93.2521 19.1902 89.9967 21.2277C87.6079 22.7032 85.5235 24.9047 83.9075 27.9961C88.3807 15.3728 95.1491 8.69811 101.988 6.54348C105.454 5.46617 108.943 5.51301 112.152 6.56691C115.36 7.59738 118.311 9.61149 120.677 12.4219ZM121.895 43.0785C119.763 40.2213 113.557 36.0291 106.789 33.3358C103.206 31.9072 99.4115 30.8767 95.9453 30.6191C92.3387 30.3615 89.0365 30.947 86.5774 32.844C85.383 33.7808 84.3993 34.9986 83.7202 36.5678C83.7436 36.4038 83.767 36.2633 83.8138 36.0994C85.1488 29.495 87.8889 25.5136 91.3316 23.3824C94.0952 21.6727 97.3271 21.1341 100.676 21.4385C104.095 21.743 107.608 22.8906 110.794 24.5065C116.883 27.5745 121.731 32.2585 122.503 35.8418C122.948 38.0198 123.464 40.0105 124.026 41.8372C123.979 42.0012 123.909 42.1885 123.838 42.3525C123.159 42.6101 122.527 42.8443 121.895 43.0785ZM114.072 62.7746C112.901 63.1962 111.637 63.5943 110.302 63.969C113.089 59.4724 112.527 56.5683 112.082 54.2264C111.59 51.697 111.285 50.0342 120.606 46.3104C123.956 56.0531 120.63 60.2687 114.072 62.7746ZM100.582 66.1237C99.5286 66.311 98.4747 66.5218 97.3974 66.756C96.8587 66.1237 96.3201 65.304 95.8283 64.2969C92.4792 57.8096 87.6547 45.9826 85.8748 41.5796C85.6406 40.9941 85.4532 40.5257 85.2893 40.1744C85.7109 37.6919 86.7179 35.9823 88.1465 34.8581C90.0435 33.3827 92.7368 32.9377 95.7814 33.1485C98.9665 33.3827 102.479 34.3663 105.852 35.7012C111.965 38.1369 117.468 41.6499 119.482 44.0153C108.405 48.5119 108.85 50.9476 109.576 54.6948C109.997 56.8494 110.513 59.5661 107.093 64.133C106.906 64.3906 106.718 64.6482 106.508 64.8824C104.634 65.304 102.643 65.7021 100.582 66.1237ZM100.957 68.6296L101.074 68.6062L102.105 68.3954C101.73 68.5359 101.332 68.6296 100.957 68.6296ZM42.3138 421.263C44.3982 419.694 46.6699 418.452 48.9885 417.492C49.129 418.757 49.2695 419.951 49.3866 421.029L42.3138 421.263ZM56.2955 420.584C56.0613 419.178 55.8271 417.492 55.5695 415.548C59.1527 414.869 62.5486 414.775 65.2653 415.056C67.537 415.291 69.2701 415.806 70.0664 416.438C70.2538 416.579 70.2069 416.813 69.8322 417.094C68.1928 418.312 64.024 419.6 56.2955 420.584ZM16.2709 114.252C19.4795 114.978 22.407 117.483 23.8121 122.144C25.2876 127.086 24.14 130.786 21.8917 132.894C21.4233 133.339 20.9081 133.713 20.3694 134.018C18.9642 126.43 17.6059 119.755 16.2709 114.252ZM7.95685 113.034C7.55872 113.221 7.16058 113.455 6.78586 113.713C6.43457 111.207 6.1301 108.795 5.8959 106.617C5.47433 103.033 5.70856 100.832 6.34088 99.8014C6.50482 99.5672 6.64536 99.4267 6.78586 99.4267C6.97324 99.3799 7.25424 99.497 7.58212 99.7078C8.87024 100.574 10.2989 102.776 11.3293 105.984C11.868 107.6 12.4066 109.45 12.9453 111.511C11.2122 111.675 9.526 112.191 7.95685 113.034ZM7.18399 116.57C7.79291 116.078 8.44867 115.633 9.12787 115.282C10.5331 114.533 12.0553 114.111 13.5776 114.017C15.0062 119.708 16.4583 126.734 17.9337 134.838C16.9501 134.955 15.9196 134.908 14.936 134.603C12.149 133.784 9.59625 131.09 8.72974 126.172C8.21448 123.268 7.69922 119.989 7.2074 116.734L7.18399 116.57ZM17.1375 144.463C18.1445 144.908 19.0813 145.423 19.901 146.079C28.7771 199.289 38.3324 285.638 45.2647 348.357C48.3795 376.601 50.9557 400.068 52.7357 413.604C52.197 413.722 51.6584 413.885 51.1431 414.049C48.9182 395.782 44.6324 363.603 39.8313 327.49C30.3228 255.825 18.7534 168.75 17.1375 144.463ZM14.4207 140.81C12.2661 140.248 10.0646 139.896 8.05054 139.568L7.34793 139.451C1.96133 131.301 1.91455 124.58 4.30338 120.083C4.51413 119.708 4.74832 119.334 4.98251 119.006C5.38068 121.676 5.80222 124.299 6.22379 126.617C7.27768 132.636 10.5799 135.962 14.2334 137.039C15.1468 137.32 16.0836 137.437 17.0204 137.437C16.2943 137.835 15.5917 138.351 14.8891 138.959C14.5847 139.194 14.3973 139.568 14.3973 139.967C14.3973 140.224 14.3973 140.505 14.4207 140.81ZM19.3155 142.683C18.566 142.285 17.7932 141.934 16.9969 141.629C16.9735 141.231 16.9735 140.88 16.9735 140.552C17.5356 140.084 18.1445 139.709 18.7534 139.428C18.9408 140.482 19.1281 141.583 19.3155 142.683ZM202.81 363.884C200.351 367.842 197.236 370.816 193.536 372.034C193.442 371.566 193.372 371.074 193.302 370.606C198.22 368.053 201.522 365.289 203.7 362.385C203.419 362.9 203.115 363.392 202.81 363.884ZM190.585 372.62C190.327 372.643 190.07 372.643 189.789 372.643C190.14 372.409 190.538 372.175 190.936 371.94C190.96 372.151 191.007 372.362 191.03 372.573C190.89 372.596 190.726 372.62 190.585 372.62ZM187.119 374.798C187.306 374.962 187.541 375.055 187.775 375.079C188.782 375.219 189.789 375.243 190.749 375.172C191.007 375.149 191.264 375.126 191.522 375.079C191.873 376.578 192.271 378.076 192.74 379.529C192.833 379.903 193.114 380.231 193.489 380.395C202.482 384.142 217.143 377.257 233.186 369.739C247.425 363.088 262.765 355.898 275.576 355.406L168.266 402.878L169.015 396.274C182.669 389.81 183.465 385.29 184.238 380.957C184.59 378.966 184.917 376.999 187.119 374.798ZM187.002 353.837C187.025 351.027 187.166 348.216 187.447 345.57C188.805 347.022 189.719 348.099 189.976 348.778C190.21 349.364 190.164 351.378 190.117 354.165C190.023 358.099 189.906 363.486 190.562 369.2C189.765 369.645 189.039 370.09 188.384 370.535C187.4 365.945 186.932 359.879 187.002 353.837ZM207.026 328.262C207.002 328.918 206.909 329.574 206.792 330.23C206.838 329.48 206.932 328.824 207.026 328.262ZM206.792 336.506C207.096 336.061 207.354 335.616 207.611 335.171C208.127 334.258 208.548 333.298 208.853 332.314C209.017 333.391 209.134 334.586 209.227 335.921C209.438 338.942 209.321 342.174 208.923 345.429C208.595 348.029 208.08 350.652 207.377 353.158C207.892 349.317 207.541 345.312 207.166 341.214C207.026 339.668 206.885 338.099 206.792 336.506ZM195.503 340.839C193.161 341.143 190.679 340.722 188.36 339.34C188.688 337.677 189.086 336.202 189.555 334.914C195.925 317.349 187.142 306.505 179.226 296.739C172.716 288.706 166.837 281.446 171.779 271.703C178.852 293.812 185.269 296.646 189.812 298.636C191.92 299.573 193.536 300.276 194.473 303.508C195.105 305.756 195.433 307.747 195.714 309.526C196.674 315.452 197.307 319.386 205.831 322.243C206.089 322.829 206.323 323.414 206.487 324.023C205.995 324.258 205.574 324.749 205.223 325.452C204.45 327.068 203.958 330.511 204.192 335.71C203.349 336.811 202.318 337.771 201.194 338.567C199.485 339.762 197.541 340.558 195.503 340.839ZM187.892 341.986C190.468 343.321 193.208 343.696 195.831 343.345C198.29 343.04 200.609 342.08 202.646 340.651C203.279 340.207 203.864 339.738 204.426 339.199C204.497 339.949 204.567 340.698 204.637 341.448C205.527 351.308 206.37 360.558 192.974 367.889C192.459 362.713 192.576 357.842 192.646 354.212C192.716 351.12 192.763 348.872 192.365 347.841C191.85 346.53 190.21 344.773 187.845 342.314L187.892 341.986ZM166.509 310.557L175.831 325.429C176.112 325.874 176.627 326.084 177.119 326.014C177.353 325.967 178.547 328.778 179.765 331.658C180.421 333.181 181.1 334.75 181.779 336.061C177.306 331.284 171.896 325.03 166.603 317.044C166.58 314.843 166.533 312.688 166.509 310.557ZM163.676 295.662C162.669 290.346 162.622 284.982 163.278 279.643C163.395 284.303 163.535 289.737 163.676 295.662ZM183.84 208.54C184.777 211.022 184.613 214.044 183.723 217.51C182.248 223.177 178.969 230.039 175.339 237.651C171.896 244.817 168.172 252.64 165.268 260.837C165.175 259.057 165.057 257.37 164.917 255.801C175.76 235.122 181.404 220.508 183.84 208.54ZM131.356 239.033C130.092 243.951 129.061 249.127 128.265 254.49C119.88 241.562 113.417 228.915 107.21 203.317C127.117 211.889 132.176 209.547 142.598 204.699C147.656 202.357 154.05 199.383 164.285 196.877C171.685 195.074 175.994 191.35 177.517 188.001C178.243 186.432 178.383 184.909 177.962 183.621C177.517 182.239 176.486 181.162 174.917 180.647C172.341 179.78 168.149 180.436 162.622 183.809C151.919 190.366 137 197.697 124.447 199.383C120.044 199.968 115.969 199.875 112.48 198.774C109.107 197.72 106.297 195.706 104.33 192.497C102.924 190.202 101.941 187.298 101.449 183.668C100.582 177.298 95.4301 158.187 89.8093 142.964C85.8748 132.308 81.6358 123.432 78.2868 121.769C77.7481 121.488 77.1158 121.629 76.741 122.074C70.4411 129.404 66.7642 138.07 63.5791 145.611C61.0497 151.606 58.8249 156.852 55.8974 159.897C50.4874 165.541 41.9859 163.691 22.4069 144.885L22.243 144.744C21.8917 142.636 21.5404 140.575 21.1891 138.585C21.9619 138.374 22.7582 138.257 23.5311 138.116C27.9574 137.344 31.728 136.688 32.5711 128.702C32.7585 128.983 32.9459 129.217 33.1098 129.428C33.789 130.318 34.1637 130.786 34.3979 131.254C34.6555 131.793 34.8195 132.449 35.1473 133.924C35.3113 134.65 35.5221 135.493 35.6157 135.938C35.7797 136.618 36.4589 137.039 37.1615 136.899C37.5362 136.805 37.864 136.524 38.0046 136.196C42.9462 127.062 45.0774 125.47 46.5997 124.345C49.1056 122.495 50.136 121.722 55.5929 102.05C62.127 78.4659 80.6053 72.8686 96.5777 69.5195C96.7182 69.6366 96.8587 69.7772 97.0227 69.8708C98.1468 70.714 99.3178 71.1355 100.536 71.1824C101.73 71.2292 102.901 70.9247 104.049 70.3392C105.384 69.6601 106.672 68.5593 107.889 67.201C110.489 66.5921 112.854 65.9597 114.986 65.14C122.995 62.0954 127.047 57.0368 122.995 45.3971C123.628 45.1629 124.283 44.9052 124.986 44.6476C130.092 58.3483 138.429 61.1586 149.226 64.7887C168.734 71.3463 196.557 80.7142 227.589 168.703C227.776 169.241 228.08 170.084 228.502 171.255C232.132 181.068 243.701 212.428 241.758 220.18L227.144 210.999C227.214 210.414 227.237 209.758 227.214 209.032C227.19 207.275 226.581 205.308 225.785 204.207C225.41 203.715 224.965 203.341 224.474 203.177C223.794 202.919 223.139 203.013 222.506 203.528C221.874 204.02 221.335 205.027 220.961 206.737C220.82 207.439 220.82 208.165 220.937 208.938C220.89 209.055 220.867 209.149 220.867 209.266L220.703 212.076C220.609 213.903 220.375 214.957 220.047 215.449C219.977 215.402 219.883 215.308 219.766 215.191C218.853 214.278 217.893 212.287 217.354 210.086C215.949 204.605 216.394 200.085 216.839 195.472C218.033 183.176 219.251 170.436 188.946 138.772L172.809 111.23C172.458 110.621 171.685 110.411 171.076 110.785C170.655 111.02 170.444 111.465 170.444 111.91C171.381 136.969 175.245 153.058 178.407 166.29C181.498 179.171 183.934 189.289 182.248 202.451C180.655 201.397 178.641 200.554 176.135 199.898C169.531 198.188 163.676 198.399 158.5 200.132C151.661 202.427 146.087 207.392 141.591 214.208C137.188 220.929 133.815 229.477 131.356 239.033ZM130.349 257.698C131.216 251.422 132.363 245.356 133.815 239.642C136.204 230.367 139.459 222.077 143.722 215.613C147.891 209.243 153.043 204.629 159.32 202.544C164.027 200.952 169.414 200.788 175.503 202.357C178.313 203.083 180.374 204.137 181.803 205.472C179.835 217.065 174.73 231.164 164.355 251.328C164.074 249.361 163.722 247.581 163.348 245.965C161.076 236.503 157.938 231.187 154.589 228.868C152.528 227.416 150.42 227.042 148.359 227.51C146.368 227.932 144.471 229.126 142.785 230.859C138.804 234.934 135.853 242.194 135.595 249.291C135.384 255.473 137.633 261.516 141.005 265.567C142.668 267.581 144.635 269.104 146.72 269.947C148.898 270.837 151.216 270.977 153.511 270.181C156.275 269.197 158.968 266.809 161.263 262.593C161.755 261.726 162.224 260.86 162.669 259.993C162.786 261.609 162.856 263.319 162.879 265.122C162.903 265.989 162.926 266.996 162.95 268.167C159.647 280.252 158.804 292.922 163.886 305.334C163.933 307.817 163.98 310.37 164.027 312.969C162.692 310.768 161.38 308.449 160.092 306.014C149.811 286.364 141.497 274.116 134.448 263.764C133.042 261.68 131.684 259.666 130.349 257.698ZM134.213 342.174C134.869 341.401 135.712 340.792 136.766 340.464C137.281 340.3 137.844 340.183 138.476 340.136C145.268 339.668 147.867 341.986 148.055 344.75C148.148 346.296 147.586 348.005 146.579 349.457C145.595 350.933 144.237 352.104 142.762 352.596C140.279 353.439 137.399 352.127 135.525 346.53C135.057 345.172 134.635 343.72 134.213 342.174ZM0.813782 451.873C0.954315 452.575 1.63348 452.997 2.31265 452.856C3.01526 452.716 3.46027 452.06 3.31973 451.357L3.22604 451.006C2.52344 447.54 2.33609 446.65 2.99185 443.746C25.1237 450.327 74.118 437.703 105.946 429.53C113.487 427.586 120.044 425.9 125.103 424.776C125.782 424.612 126.204 423.956 126.063 423.277C125.103 418.452 125.478 416.368 127.375 415.993C129.834 415.501 134.565 416.836 141.614 418.85C143.417 419.366 145.361 419.904 148.055 420.654C148.734 420.818 149.413 420.42 149.6 419.74C149.647 419.6 149.671 419.436 149.647 419.272V419.249C149.038 414.19 145.361 411.684 140.841 410.56C137.773 409.787 134.331 409.693 131.263 409.857C132.176 408.593 132.832 407.328 133.394 406.18C133.932 405.08 134.424 404.119 134.939 403.698C139.108 400.185 141.801 398.944 143.277 399.014C143.698 399.014 143.909 399.201 143.98 399.459C144.143 399.997 143.98 400.794 143.581 401.707C142.527 404.026 139.858 406.602 136.087 407.141C135.408 407.234 134.916 407.867 135.01 408.569C135.103 409.248 135.712 409.717 136.391 409.67L137.258 409.6C141.895 409.202 146.86 408.78 150.701 407.141C154.518 405.525 156.556 403.206 157.212 400.887C157.563 399.599 157.493 398.358 157.048 397.187C156.65 396.04 155.877 395.009 154.846 394.166C152.551 392.292 148.851 391.332 144.354 392.269C143.183 392.527 142.059 392.901 140.958 393.393C139.858 393.885 138.78 394.494 137.75 395.22C136.415 396.157 135.244 396.672 134.331 396.789C133.815 396.859 133.394 396.789 133.113 396.602C132.808 396.391 132.574 396.04 132.434 395.501C132.176 394.541 132.199 393.135 132.597 391.285C132.855 390.161 133.534 389.248 134.307 388.241C137.235 384.33 141.193 379.084 133.37 355.055C132.832 353.345 132.48 351.589 132.363 349.902C132.27 348.427 132.34 347.022 132.597 345.757C132.761 346.296 132.925 346.811 133.113 347.326C135.572 354.703 139.811 356.273 143.558 355.008C145.595 354.329 147.422 352.783 148.71 350.886C149.998 348.989 150.748 346.717 150.584 344.586C150.303 340.488 146.977 336.998 138.312 337.607C137.469 337.654 136.696 337.818 135.97 338.052C135.033 338.356 134.19 338.801 133.487 339.363C128.803 320.089 126.649 289.245 129.881 261.539C130.677 262.734 131.497 263.951 132.34 265.193C139.342 275.474 147.61 287.652 157.844 307.185C159.858 311.049 161.966 314.609 164.097 317.864C164.823 361.144 164.683 414.658 159.483 419.108L18.6363 450.374C17.9572 450.538 17.5356 451.217 17.6761 451.896C17.84 452.575 18.5192 453.02 19.1984 452.856L160.327 421.52C160.467 421.497 160.631 421.427 160.772 421.333C166.767 417.258 167.259 365.149 166.673 321.658C173.418 331.26 180.14 338.099 184.707 342.759L185.152 343.204C184.73 346.53 184.496 350.183 184.449 353.814C184.379 360.535 184.964 367.303 186.159 372.198C182.646 375.172 182.201 377.819 181.709 380.512C181.053 384.283 180.374 388.217 167.306 394.26C166.884 394.47 166.603 394.869 166.556 395.29L165.479 404.799C165.409 405.501 165.901 406.134 166.603 406.204C166.837 406.227 167.072 406.18 167.259 406.11L281.595 355.523C282.227 355.242 282.532 354.493 282.251 353.86C282.04 353.392 281.618 353.111 281.15 353.087C266.676 351.261 248.666 359.692 232.109 367.444C216.956 374.54 203.044 381.051 195.011 378.24C194.613 377.023 194.285 375.805 194.028 374.564C198.454 373.205 202.131 369.786 204.965 365.242C208.384 359.809 210.586 352.713 211.452 345.734C211.874 342.338 211.991 338.942 211.757 335.757C211.382 330.3 210.469 326.787 209.462 325.194C209.438 325.148 209.391 325.101 209.368 325.054C209.087 323.578 208.618 322.103 207.869 320.628C207.705 320.3 207.424 320.065 207.12 319.972C199.578 317.606 199.04 314.234 198.22 309.128C197.916 307.255 197.588 305.147 196.908 302.805C195.667 298.425 193.583 297.512 190.843 296.294C186.557 294.421 180.421 291.727 173.371 268.19C173.184 267.535 172.458 267.136 171.779 267.347C171.498 267.441 171.264 267.628 171.1 267.862C162.715 280.416 169.577 288.87 177.259 298.355C184.73 307.583 193.044 317.841 187.166 334.047C186.768 335.124 186.44 336.342 186.135 337.654C185.807 337.349 185.48 337.021 185.175 336.67C184.238 335.616 183.161 333.11 182.107 330.651C180.749 327.419 179.39 324.281 177.681 323.602L167.868 307.934C167.329 306.88 166.837 305.826 166.392 304.772C166.158 292.196 165.854 281.212 165.643 273.554C165.596 271.657 165.549 269.994 165.502 268.542C168.43 257.979 173.278 247.815 177.61 238.752C181.334 231.023 184.66 224.044 186.182 218.142C187.634 212.498 187.47 207.837 184.566 204.488C186.744 190.155 184.191 179.476 180.889 165.705C177.962 153.527 174.449 138.889 173.231 116.968L186.791 140.13C186.861 140.224 186.932 140.318 187.002 140.412C216.605 171.326 215.434 183.504 214.309 195.237C213.841 200.062 213.373 204.816 214.872 210.695C215.527 213.318 216.745 215.753 217.963 216.995C218.548 217.58 219.181 217.955 219.837 218.048C220.656 218.166 221.406 217.861 222.015 217.088C222.483 216.479 222.858 215.449 223.092 213.95C223.186 214.137 223.303 214.301 223.42 214.465L223.303 214.676C222.155 216.643 221.289 218.119 223.443 223.95C224.567 226.995 225.973 229.829 228.151 231.609C230.446 233.506 233.443 234.185 237.612 232.709C238.853 232.264 239.697 231.468 240.282 230.227C257.285 243.084 283.14 258.377 308.293 273.249C324.594 282.898 340.613 292.36 353.611 300.767C354.196 301.142 354.993 300.978 355.367 300.393L355.414 300.299C356.21 298.87 357.147 297.559 358.201 296.341L358.67 296.646C355.18 302.501 353.587 306.06 353.26 307.887C352.815 310.463 353.822 311.236 355.812 310.604C356.749 310.299 358.037 309.339 359.489 307.934C363.916 303.625 370.473 294.467 372.37 286.833C372.44 286.575 372.44 286.271 372.347 285.99C372.089 285.31 371.363 284.982 370.707 285.24C367.171 286.575 363.752 288.308 360.754 290.556C359.7 291.329 358.716 292.172 357.78 293.086L243.982 221.561C244.029 221.491 244.053 221.397 244.076 221.304C246.746 213.318 234.661 180.553 230.891 170.366C230.469 169.195 230.141 168.305 229.977 167.86C198.548 78.7001 170.022 69.098 150.045 62.3765C139.483 58.8167 131.426 56.0999 126.719 41.8372C131.075 28.8626 128.476 17.6913 122.621 10.7825C119.951 7.59737 116.602 5.32565 112.925 4.13124C109.224 2.93682 105.22 2.86656 101.238 4.10781C92.4324 6.89478 83.7904 16.2159 79.3172 34.5537C78.6615 37.1767 78.6146 39.3547 78.8957 40.4789C79.083 41.2049 79.4578 41.7201 79.973 41.9543C80.699 42.2588 81.4016 42.0714 82.0105 41.2986C82.2447 41.0176 82.5023 40.5491 82.76 39.9168L82.7131 40.151C82.6663 40.5726 82.8068 40.9707 83.0644 41.2283C83.2283 41.3923 83.1347 41.6265 83.5094 42.5398C85.3127 46.9662 90.1372 58.8401 93.5565 65.4679C93.9078 66.1471 94.2826 66.7794 94.6573 67.3181C78.3336 70.831 59.9021 77.0373 53.1338 101.371C47.9112 120.2 47.0915 120.809 45.0774 122.308C43.5551 123.432 41.4707 124.978 37.3488 132.144C37.138 131.231 36.9507 130.669 36.6696 130.083C36.3417 129.451 35.9202 128.889 35.1473 127.882C34.5384 127.086 33.6953 126.008 32.5477 124.392C32.3135 124.018 31.9154 123.783 31.447 123.783C30.7444 123.783 30.1823 124.345 30.1823 125.048C30.1823 134.369 26.9738 134.931 23.0861 135.61L22.4538 135.704C22.8753 135.423 23.2735 135.119 23.6482 134.767C26.5054 132.051 28.0511 127.413 26.2478 121.418C24.3976 115.212 20.182 112.12 15.662 111.558H15.5917C14.9594 109.169 14.3505 107.038 13.765 105.188C12.5237 101.417 10.7204 98.7475 9.01074 97.6C8.14423 97.0379 7.27765 96.7803 6.43454 96.8974C5.52118 97.0145 4.74832 97.5297 4.18625 98.4899C3.27289 99.9654 2.85132 102.706 3.34314 106.921C3.64761 109.521 4.04575 112.542 4.49072 115.61C3.55392 116.547 2.73419 117.647 2.07846 118.889C-0.778778 124.182 -0.778748 132.004 5.49777 141.255C5.68512 141.583 6.013 141.817 6.38773 141.864L7.6524 142.074C9.83044 142.426 12.2661 142.824 14.5378 143.503C15.8962 166.454 27.653 255.075 37.3254 327.817C42.1499 364.235 46.4592 396.648 48.6606 414.893C44.8198 416.391 41.0491 418.593 37.9109 421.755C37.3956 422.27 37.4191 423.066 37.9109 423.558C38.1685 423.839 38.5432 423.956 38.8945 423.933L50.8621 423.534C51.5647 423.511 52.1033 422.926 52.0799 422.223C52.0799 422.2 52.0799 422.153 52.0799 422.129C51.8925 420.513 51.6818 418.663 51.4476 416.602C51.9862 416.438 52.5249 416.274 53.0635 416.134C53.4148 418.593 53.7193 420.63 53.9769 422.223C54.094 422.879 54.7029 423.347 55.3821 423.277C64.3754 422.223 69.3169 420.654 71.3545 419.108C73.5559 417.469 73.4154 415.806 71.6355 414.424C70.4645 413.511 68.2865 412.808 65.5229 412.527C62.6423 412.223 59.0356 412.316 55.2416 413.042C53.4617 399.506 50.8855 376.179 47.7941 348.099C41.0023 286.622 31.7046 202.474 22.9221 148.89C42.3607 166.993 51.4476 168.211 57.7241 161.677C60.9795 158.281 63.298 152.824 65.9211 146.594C68.9188 139.545 72.3381 131.465 77.9355 124.603C80.5585 126.992 84.0246 134.674 87.4205 143.831C92.971 158.937 98.0766 177.766 98.9197 184.019C99.4583 188.001 100.582 191.233 102.152 193.832C104.47 197.626 107.772 199.968 111.73 201.21C115.571 202.404 120.021 202.544 124.775 201.912C137.75 200.156 153.043 192.661 163.933 185.987C168.758 183.036 172.154 182.403 174.097 183.059C174.87 183.317 175.339 183.785 175.55 184.394C175.76 185.073 175.643 185.963 175.198 186.947C173.934 189.687 170.21 192.802 163.676 194.418C153.184 196.994 146.696 199.992 141.52 202.404C131.426 207.088 126.742 209.266 105.946 199.992C105.688 199.875 105.384 199.828 105.079 199.898C104.4 200.039 103.978 200.741 104.119 201.42C111.004 230.765 118.124 243.857 127.726 258.307C123.838 287.91 126.251 321.635 131.45 341.682C131.239 342.033 131.075 342.385 130.911 342.736C129.951 344.844 129.623 347.396 129.811 350.066C129.951 351.963 130.349 353.931 130.958 355.828C138.359 378.592 134.846 383.252 132.27 386.695C131.309 387.96 130.466 389.084 130.115 390.747C129.623 392.995 129.6 394.822 129.974 396.18C130.302 397.328 130.888 398.171 131.684 398.709C132.504 399.271 133.511 399.459 134.635 399.318C135.97 399.154 137.539 398.475 139.225 397.304C140.115 396.672 141.052 396.133 141.989 395.712C142.926 395.29 143.886 394.986 144.869 394.775C148.546 393.979 151.497 394.705 153.23 396.133C153.91 396.695 154.401 397.351 154.659 398.054C154.917 398.733 154.963 399.459 154.753 400.208C154.308 401.824 152.715 403.51 149.694 404.799C147.82 405.595 145.572 406.087 143.183 406.415C144.401 405.29 145.314 404.002 145.877 402.761C146.532 401.332 146.743 399.927 146.462 398.827C146.087 397.445 145.08 396.531 143.394 396.461C141.333 396.391 138.031 397.773 133.3 401.754C132.363 402.527 131.778 403.698 131.099 405.056C130.279 406.719 129.248 408.757 127.328 410.372C126.953 410.654 126.742 411.099 126.789 411.567C126.883 412.27 127.515 412.761 128.218 412.691L128.335 412.668C131.778 412.27 136.391 412.082 140.232 413.042C143.113 413.745 145.549 415.127 146.603 417.609C145.197 417.211 143.698 416.79 142.317 416.391C134.916 414.284 129.951 412.878 126.883 413.487C123.44 414.167 122.386 416.79 123.347 422.551C118.522 423.675 112.339 425.268 105.337 427.071C73.1578 435.338 23.2969 448.172 2.52344 440.935C2.47659 440.912 2.42975 440.889 2.3829 440.865C1.68033 440.701 1.00113 441.123 0.837189 441.802C-0.333801 446.416 -0.193268 447.095 0.74353 451.521L0.813782 451.873Z" fill="#BA0D07"/>
<path d="M23.6248 451.966H385.485V449.414H23.6248C22.8988 449.414 22.3367 449.976 22.3367 450.678C22.3367 451.381 22.8988 451.966 23.6248 451.966Z" fill="#59C8FF"/>
<path d="M167.001 254.349C165.947 256.317 164.87 258.354 163.722 260.438C161.755 264.045 159.554 266.059 157.352 266.832C155.689 267.418 153.98 267.3 152.364 266.645C150.654 265.966 149.038 264.677 147.656 262.991C144.635 259.385 142.645 253.975 142.832 248.424C143.066 241.937 145.736 235.356 149.319 231.679C150.654 230.32 152.106 229.384 153.582 229.056C154.963 228.751 156.415 229.009 157.821 229.993C160.701 232.007 163.441 236.831 165.573 245.614C166.135 247.979 166.603 250.719 166.954 253.928L167.001 254.349ZM364.712 293.531C365.415 292.875 366.187 292.243 366.96 291.657C369.068 290.088 371.41 288.776 373.846 287.699C371.48 294.28 366.141 301.517 362.393 305.17C361.714 305.826 361.129 306.341 360.637 306.716C361.199 304.819 362.885 301.4 366.187 295.943C366.539 295.357 366.351 294.585 365.766 294.21L364.712 293.531ZM229.368 208.118C229.368 208.259 229.368 208.376 229.368 208.493L228.08 207.697C228.057 207.228 228.057 206.76 228.151 206.339C228.291 205.706 228.432 205.261 228.549 204.957C229.017 205.706 229.345 206.947 229.368 208.118ZM242.858 227.697C242.577 228.587 242.132 229.126 241.453 229.36C238.268 230.484 236.067 230.039 234.451 228.704C232.717 227.276 231.523 224.817 230.516 222.123C229.087 218.259 229.251 216.854 229.813 215.73C232.811 219.337 237.308 223.365 242.858 227.697ZM243.748 220.531C243.631 220.671 243.561 220.812 243.514 220.976C243.467 221.116 243.444 221.234 243.444 221.374C243.444 222.803 243.397 224.044 243.327 225.074C237.846 220.812 233.584 216.948 230.961 213.599C231.078 213.318 231.195 213.037 231.312 212.732L243.748 220.531ZM245.973 222.85C246.371 222.85 246.723 222.756 247.05 222.615L360.707 294.046C359.934 294.959 359.208 295.92 358.552 296.973C345.672 288.683 330.121 279.479 314.265 270.111C288.714 254.982 262.39 239.431 245.669 226.878C245.856 225.754 245.95 224.419 245.973 222.85ZM125.361 11.4851C130.115 17.1059 132.504 25.8649 130.092 36.2399C129.951 35.631 129.811 35.0221 129.67 34.3663C128.757 30.1039 123.37 24.6939 116.625 21.298C113.182 19.5416 109.342 18.2769 105.594 17.949C101.73 17.6211 97.9595 18.2535 94.6807 20.2676C92.2919 21.7664 90.2075 23.9679 88.5915 27.0593C93.0647 14.436 99.833 7.76134 106.672 5.60671C110.138 4.50598 113.627 4.57624 116.836 5.60671C120.068 6.66061 122.995 8.67472 125.361 11.4851ZM126.579 42.1417C124.447 39.2845 118.264 35.0924 111.473 32.3991C107.889 30.9704 104.095 29.9165 100.653 29.6823C97.0227 29.4013 93.7205 30.0102 91.2614 31.9072C90.067 32.844 89.1068 34.0619 88.4041 35.631C88.4276 35.4671 88.4744 35.3265 88.4978 35.1626C89.8328 28.5582 92.5963 24.5768 96.0156 22.4456C98.7791 20.736 102.035 20.1973 105.36 20.5018C108.779 20.8062 112.292 21.9538 115.478 23.5698C121.567 26.6378 126.415 31.3217 127.187 34.905C127.656 37.083 128.171 39.0737 128.733 40.9005C128.663 41.0644 128.593 41.2518 128.546 41.4157C127.867 41.6733 127.211 41.9075 126.579 42.1417ZM118.756 61.8144C117.609 62.2594 116.344 62.6576 114.986 63.0323C117.773 58.5357 117.211 55.6316 116.766 53.2896C116.297 50.7368 115.969 49.0974 125.29 45.3737C128.64 55.1163 125.314 59.3319 118.756 61.8144ZM105.266 65.1635C104.236 65.3742 103.159 65.585 102.081 65.8192C101.543 65.1635 101.027 64.3672 100.512 63.3601C97.1632 56.8728 92.3621 45.0458 90.5588 40.6429C90.3246 40.0574 90.1372 39.589 89.9733 39.2377C90.3949 36.7552 91.4019 35.0455 92.8305 33.9214C94.7275 32.4459 97.4442 32.0009 100.465 32.2117C103.651 32.4459 107.187 33.4295 110.536 34.7645C116.672 37.2001 122.176 40.7131 124.166 43.0785C113.089 47.5751 113.557 49.9874 114.26 53.758C114.681 55.9126 115.197 58.6293 111.801 63.1962C111.59 63.4538 111.402 63.7114 111.215 63.9456C109.318 64.3672 107.327 64.7653 105.266 65.1635ZM105.641 67.6928L105.758 67.6694L106.812 67.4586C106.414 67.5991 106.016 67.6928 105.641 67.6928ZM47.0212 420.326C49.1056 418.757 51.3539 417.516 53.6725 416.555C53.813 417.82 53.9535 419.014 54.0941 420.092L47.0212 420.326ZM60.9795 419.647C60.7687 418.242 60.5111 416.555 60.2535 414.612C63.8367 413.932 67.2326 413.815 69.9493 414.12C72.2445 414.354 73.9541 414.869 74.7738 415.501C74.9612 415.642 74.9143 415.876 74.5396 416.157C72.9002 417.375 68.7315 418.663 60.9795 419.647ZM20.9549 113.315C24.1869 114.041 27.0909 116.547 28.4961 121.207C29.9716 126.149 28.824 129.849 26.5991 131.957C26.1307 132.402 25.5921 132.777 25.0534 133.081C23.6716 125.493 22.2899 118.818 20.9549 113.315ZM12.6409 112.097C12.2427 112.284 11.868 112.518 11.4933 112.776C11.142 110.27 10.8375 107.858 10.5799 105.68C10.1584 102.097 10.416 99.8952 11.0483 98.8647C11.1888 98.6305 11.3293 98.49 11.4699 98.49C11.6572 98.4431 11.9383 98.5602 12.2661 98.771C13.5542 99.6375 14.9828 101.839 16.0367 105.048C16.552 106.663 17.0907 108.514 17.6293 110.575C15.9196 110.739 14.21 111.254 12.6409 112.097ZM11.8914 115.633C12.5003 115.142 13.1561 114.697 13.8353 114.345C15.217 113.596 16.7628 113.174 18.2851 113.081C19.6902 118.772 21.1423 125.798 22.6177 133.877C21.6341 134.018 20.627 133.948 19.6434 133.667C16.833 132.847 14.3037 130.154 13.4137 125.235C12.8985 122.331 12.3832 119.053 11.9149 115.797L11.8914 115.633ZM21.8448 143.503C22.8285 143.971 23.7653 144.487 24.585 145.142C33.4845 198.352 43.0164 284.701 49.9487 347.42C53.0636 375.664 55.6632 399.108 57.4197 412.668C56.9044 412.785 56.3658 412.949 55.8271 413.113C53.6022 394.845 49.3164 362.643 44.5387 326.553C35.0068 254.888 23.4374 167.813 21.8448 143.503ZM19.1047 139.873C16.9501 139.311 14.7486 138.96 12.7345 138.632L12.0554 138.515C6.66879 130.364 6.59854 123.643 9.01077 119.146C9.19812 118.772 9.43234 118.397 9.66653 118.069C10.0647 120.739 10.4862 123.362 10.9078 125.68C11.9851 131.699 15.2639 135.025 18.9174 136.102C19.8307 136.383 20.7675 136.5 21.7043 136.5C21.0017 136.899 20.2757 137.414 19.5731 138.023C19.2921 138.257 19.1047 138.632 19.1047 139.03C19.1047 139.287 19.1047 139.568 19.1047 139.873ZM23.9995 141.746C23.2735 141.348 22.4772 140.997 21.6809 140.693C21.6809 140.294 21.6575 139.943 21.6575 139.615C22.243 139.147 22.8285 138.772 23.4374 138.491C23.6248 139.545 23.8121 140.646 23.9995 141.746ZM207.518 362.947C205.035 366.905 201.92 369.88 198.22 371.097C198.15 370.629 198.056 370.137 197.986 369.669C202.904 367.116 206.206 364.352 208.384 361.448C208.103 361.964 207.799 362.455 207.518 362.947ZM195.269 371.683C195.011 371.706 194.754 371.706 194.496 371.706C194.848 371.472 195.222 371.238 195.62 370.98C195.667 371.214 195.691 371.425 195.737 371.636C195.574 371.659 195.433 371.683 195.269 371.683ZM191.826 373.861C192.014 374.025 192.224 374.119 192.459 374.142C193.489 374.259 194.473 374.306 195.433 374.236C195.714 374.212 195.972 374.189 196.229 374.142C196.557 375.641 196.955 377.14 197.447 378.592C197.541 378.966 197.798 379.294 198.197 379.458C207.166 383.205 221.851 376.32 237.893 368.802C252.109 362.151 267.449 354.961 280.26 354.469L172.95 401.941L173.699 395.337C187.377 388.873 188.173 384.353 188.922 380.02C189.274 378.03 189.625 376.062 191.826 373.861ZM191.686 352.9C191.709 350.09 191.873 347.279 192.131 344.633C193.513 346.085 194.403 347.162 194.684 347.841C194.894 348.427 194.871 350.441 194.801 353.228C194.707 357.163 194.59 362.549 195.246 368.264C194.449 368.709 193.723 369.154 193.068 369.598C192.084 365.008 191.616 358.942 191.686 352.9ZM211.733 327.326C211.686 327.981 211.616 328.637 211.476 329.269C211.546 328.543 211.616 327.888 211.733 327.326ZM211.476 335.546C211.78 335.124 212.061 334.679 212.319 334.211C212.811 333.321 213.232 332.361 213.56 331.377C213.701 332.455 213.818 333.649 213.911 334.984C214.122 338.005 214.028 341.237 213.607 344.492C213.279 347.092 212.764 349.692 212.061 352.221C212.6 348.38 212.225 344.375 211.85 340.277C211.71 338.708 211.569 337.162 211.476 335.546ZM200.211 339.879C197.845 340.207 195.363 339.785 193.044 338.403C193.395 336.74 193.794 335.265 194.262 333.977C200.609 316.412 191.826 305.569 183.934 295.802C177.4 287.769 171.521 280.509 176.486 270.767C183.536 292.875 189.976 295.709 194.496 297.699C196.627 298.636 198.243 299.339 199.157 302.571C199.789 304.819 200.117 306.81 200.398 308.59C201.358 314.515 201.991 318.449 210.515 321.307C210.796 321.892 211.007 322.478 211.195 323.087C210.679 323.321 210.258 323.813 209.93 324.515C209.157 326.131 208.665 329.574 208.899 334.773C208.033 335.874 207.002 336.834 205.878 337.63C204.169 338.825 202.225 339.621 200.211 339.879ZM192.576 341.05C195.175 342.361 197.916 342.759 200.539 342.408C202.974 342.104 205.316 341.143 207.33 339.715C207.963 339.27 208.572 338.801 209.134 338.263C209.18 339.012 209.251 339.762 209.321 340.511C210.211 350.371 211.054 359.622 197.658 366.952C197.143 361.776 197.26 356.905 197.33 353.275C197.4 350.183 197.471 347.935 197.049 346.905C196.534 345.593 194.918 343.837 192.529 341.378L192.576 341.05ZM171.193 309.62L180.515 324.492C180.796 324.937 181.311 325.148 181.803 325.077C182.037 325.03 183.231 327.817 184.473 330.721C185.128 332.244 185.784 333.813 186.463 335.124C181.99 330.347 176.58 324.094 171.311 316.107C171.264 313.906 171.24 311.751 171.193 309.62ZM168.36 294.725C167.353 289.409 167.329 284.022 167.962 278.706C168.079 283.366 168.219 288.8 168.36 294.725ZM188.548 207.603C189.461 210.086 189.297 213.107 188.407 216.573C186.955 222.241 183.676 229.103 180.023 236.714C176.603 243.881 172.856 251.703 169.976 259.9C169.882 258.12 169.741 256.434 169.601 254.865C180.444 234.185 186.112 219.547 188.548 207.603ZM136.064 238.096C134.799 242.991 133.768 248.19 132.949 253.553C124.564 240.625 118.101 227.978 111.894 202.381C131.825 210.929 136.86 208.61 147.282 203.762C152.364 201.42 158.734 198.446 168.969 195.94C176.369 194.137 180.678 190.413 182.201 187.064C182.927 185.495 183.067 183.973 182.646 182.684C182.201 181.303 181.194 180.225 179.601 179.71C177.025 178.844 172.833 179.499 167.306 182.872C156.626 189.429 141.684 196.76 129.131 198.446C124.752 199.031 120.653 198.938 117.187 197.837C113.815 196.783 110.981 194.769 109.014 191.561C107.608 189.265 106.625 186.361 106.133 182.731C105.29 176.361 100.114 157.25 94.4933 142.028C90.5588 131.371 86.3198 122.495 82.9707 120.809C82.4321 120.551 81.7997 120.692 81.425 121.137C75.1251 128.467 71.4716 137.133 68.2865 144.674C65.7337 150.669 63.5089 155.915 60.5814 158.96C55.1714 164.604 46.67 162.731 27.0909 143.948L26.927 143.807C26.5757 141.7 26.2244 139.639 25.8731 137.648C26.6694 137.437 27.4422 137.297 28.2151 137.18C32.6414 136.407 36.412 135.751 37.2552 127.765C37.4659 128.046 37.6299 128.28 37.8172 128.491C38.473 129.381 38.8477 129.849 39.0819 130.318C39.3629 130.856 39.5034 131.512 39.8548 132.987C40.0187 133.713 40.2061 134.557 40.2997 135.002C40.4637 135.681 41.1663 136.102 41.8455 135.938C42.2436 135.845 42.548 135.587 42.712 135.259C47.6302 126.125 49.7848 124.533 51.2837 123.409C53.7896 121.559 54.8201 120.786 60.2769 101.113C66.8345 77.5292 85.3127 71.9318 101.262 68.5828C101.402 68.6999 101.566 68.817 101.707 68.9341C102.831 69.7772 104.025 70.1987 105.22 70.2456C106.414 70.2924 107.585 69.988 108.733 69.4025C110.068 68.7233 111.379 67.6226 112.597 66.2642C115.173 65.6553 117.562 65.023 119.67 64.2033C127.679 61.1587 131.754 56.1 127.679 44.4603C128.312 44.2027 128.991 43.9685 129.693 43.7109C134.776 57.4115 143.136 60.2219 153.933 63.852C173.418 70.4095 201.265 79.7775 232.272 167.766C232.46 168.305 232.764 169.148 233.209 170.295C236.816 180.132 248.385 211.491 246.465 219.243L231.851 210.062C231.898 209.477 231.921 208.821 231.921 208.095C231.898 206.339 231.265 204.371 230.469 203.271C230.094 202.779 229.673 202.404 229.181 202.24C228.502 201.982 227.823 202.076 227.19 202.591C226.581 203.083 226.019 204.09 225.668 205.8C225.504 206.502 225.504 207.228 225.621 208.001C225.598 208.118 225.574 208.212 225.551 208.329L225.41 211.14C225.293 212.966 225.059 214.02 224.755 214.512C224.661 214.465 224.567 214.372 224.474 214.254C223.537 213.341 222.6 211.35 222.038 209.149C220.656 203.669 221.078 199.149 221.523 194.535C222.717 182.239 223.935 169.499 193.653 137.835L177.517 110.294C177.165 109.685 176.369 109.474 175.76 109.849C175.362 110.083 175.128 110.528 175.151 110.973C176.065 136.032 179.929 152.121 183.114 165.354C186.182 178.235 188.618 188.352 186.932 201.514C185.362 200.46 183.348 199.617 180.842 198.961C174.215 197.252 168.36 197.462 163.207 199.195C156.345 201.491 150.771 206.456 146.298 213.271C141.872 219.992 138.523 228.541 136.064 238.096ZM135.057 256.762C135.9 250.485 137.047 244.419 138.523 238.705C140.912 229.43 144.167 221.14 148.406 214.676C152.598 208.306 157.75 203.692 164.004 201.608C168.711 200.015 174.097 199.851 180.21 201.42C183.02 202.146 185.058 203.2 186.487 204.535C184.519 216.128 179.414 230.227 169.062 250.391C168.758 248.424 168.43 246.644 168.032 245.028C165.76 235.566 162.622 230.25 159.273 227.908C157.235 226.48 155.104 226.105 153.043 226.573C151.052 226.995 149.179 228.189 147.493 229.922C143.488 233.997 140.537 241.258 140.303 248.354C140.092 254.537 142.317 260.579 145.689 264.631C147.352 266.645 149.319 268.167 151.404 269.01C153.582 269.9 155.9 270.041 158.195 269.244C160.982 268.261 163.676 265.872 165.971 261.656C166.439 260.766 166.908 259.9 167.376 259.057C167.47 260.673 167.54 262.382 167.587 264.186C167.587 265.029 167.634 266.059 167.657 267.23C164.331 279.315 163.488 291.985 168.57 304.398C168.617 306.88 168.664 309.433 168.711 312.032C167.376 309.831 166.064 307.512 164.8 305.077C154.495 285.427 146.181 273.179 139.155 262.827C137.726 260.743 136.368 258.729 135.057 256.762ZM138.897 341.237C139.553 340.464 140.396 339.855 141.45 339.527C141.965 339.363 142.551 339.246 143.16 339.199C149.975 338.731 152.551 341.05 152.739 343.813C152.856 345.359 152.27 347.069 151.287 348.521C150.303 349.996 148.921 351.167 147.446 351.659C144.987 352.479 142.083 351.19 140.209 345.593C139.764 344.235 139.319 342.783 138.897 341.237ZM5.52121 450.936C5.66171 451.638 6.31747 452.06 7.02008 451.919C7.69925 451.779 8.14426 451.123 8.00372 450.421L7.93344 450.069C7.20743 446.603 7.02011 445.713 7.67587 442.809C29.8076 449.39 78.8254 436.767 110.653 428.593C118.194 426.649 124.752 424.963 129.787 423.816C130.466 423.675 130.888 423.019 130.771 422.34C129.811 417.516 130.185 415.431 132.059 415.056C134.541 414.565 139.272 415.9 146.298 417.914C148.101 418.429 150.069 418.968 152.739 419.694C153.418 419.881 154.12 419.483 154.308 418.804C154.331 418.663 154.355 418.499 154.331 418.335V418.312C153.722 413.253 150.045 410.747 145.549 409.623C142.481 408.85 139.015 408.757 135.947 408.921C136.883 407.656 137.516 406.391 138.078 405.244C138.64 404.143 139.108 403.183 139.623 402.761C143.816 399.248 146.485 398.007 147.984 398.077C148.382 398.077 148.617 398.264 148.687 398.522C148.827 399.061 148.663 399.857 148.265 400.77C147.211 403.089 144.542 405.665 140.794 406.204C140.092 406.297 139.6 406.93 139.717 407.632C139.811 408.312 140.396 408.78 141.075 408.733L141.942 408.663C146.579 408.265 151.544 407.843 155.385 406.204C159.202 404.564 161.263 402.269 161.896 399.951C162.247 398.663 162.177 397.421 161.755 396.25C161.334 395.103 160.584 394.072 159.53 393.229C157.259 391.356 153.535 390.395 149.038 391.332C147.891 391.59 146.743 391.965 145.642 392.456C144.542 392.948 143.464 393.557 142.434 394.283C141.099 395.22 139.951 395.735 139.015 395.852C138.499 395.922 138.101 395.852 137.797 395.665C137.492 395.454 137.258 395.103 137.117 394.564C136.86 393.604 136.907 392.175 137.305 390.349C137.539 389.224 138.218 388.311 138.991 387.281C141.919 383.393 145.877 378.123 138.078 354.118C137.516 352.408 137.164 350.652 137.047 348.966C136.954 347.49 137.024 346.085 137.281 344.82C137.469 345.359 137.633 345.874 137.797 346.389C140.279 353.767 144.518 355.336 148.265 354.071C150.279 353.392 152.106 351.846 153.394 349.949C154.682 348.052 155.432 345.78 155.291 343.649C155.01 339.551 151.661 336.061 142.996 336.67C142.153 336.717 141.38 336.881 140.677 337.092C139.717 337.42 138.897 337.865 138.171 338.427C133.487 319.152 131.333 288.308 134.565 260.602C135.384 261.797 136.204 263.015 137.047 264.256C144.05 274.537 152.317 286.716 162.528 306.248C164.566 310.112 166.673 313.672 168.805 316.927C169.507 360.207 169.39 413.722 164.167 418.171L23.3437 449.437C22.6646 449.601 22.2196 450.28 22.3835 450.959C22.524 451.638 23.2032 452.083 23.8824 451.919L165.011 420.584C165.175 420.56 165.315 420.49 165.456 420.396C171.474 416.321 171.966 364.212 171.381 320.721C178.126 330.323 184.824 337.162 189.391 341.823L189.836 342.267C189.414 345.593 189.18 349.247 189.156 352.877C189.063 359.598 189.648 366.343 190.843 371.261C187.353 374.236 186.885 376.882 186.416 379.575C185.761 383.346 185.058 387.281 171.99 393.323C171.568 393.534 171.311 393.932 171.264 394.353L170.186 403.862C170.093 404.564 170.608 405.197 171.311 405.267C171.545 405.29 171.756 405.244 171.966 405.173L286.279 354.586C286.934 354.305 287.216 353.556 286.934 352.9C286.747 352.455 286.302 352.174 285.834 352.151C271.36 350.324 253.35 358.755 236.816 366.507C221.64 373.603 207.728 380.114 199.695 377.304C199.321 376.086 198.993 374.868 198.712 373.627C203.162 372.268 206.838 368.849 209.672 364.306C213.068 358.849 215.27 351.776 216.136 344.797C216.581 341.401 216.675 338.005 216.464 334.82C216.089 329.363 215.153 325.85 214.146 324.258C214.122 324.211 214.075 324.164 214.052 324.117C213.794 322.642 213.302 321.166 212.553 319.691C212.412 319.363 212.131 319.129 211.804 319.035C204.286 316.646 203.747 313.297 202.927 308.192C202.623 306.318 202.272 304.21 201.616 301.868C200.351 297.489 198.267 296.575 195.527 295.357C191.264 293.484 185.128 290.791 178.055 267.254C177.868 266.598 177.166 266.2 176.486 266.41C176.182 266.481 175.948 266.668 175.784 266.926C167.423 279.479 174.261 287.933 181.943 297.418C189.414 306.646 197.728 316.904 191.85 333.11C191.475 334.188 191.124 335.405 190.819 336.717C190.491 336.413 190.187 336.085 189.859 335.733C188.922 334.679 187.845 332.174 186.814 329.714C185.433 326.482 184.098 323.344 182.388 322.665L172.552 306.997C172.013 305.943 171.521 304.889 171.1 303.835C170.842 291.259 170.538 280.275 170.35 272.617C170.28 270.72 170.233 269.034 170.21 267.605C173.137 257.043 177.985 246.878 182.318 237.815C186.018 230.086 189.344 223.107 190.866 217.205C192.318 211.561 192.178 206.901 189.274 203.552C191.428 189.219 188.875 178.516 185.573 164.768C182.646 152.59 179.133 137.952 177.915 116.031L191.498 139.194C191.545 139.287 191.616 139.381 191.709 139.475C221.312 170.389 220.118 182.567 218.993 194.301C218.525 199.125 218.08 203.879 219.555 209.758C220.235 212.381 221.429 214.816 222.67 216.058C223.232 216.643 223.865 217.018 224.521 217.112C225.364 217.229 226.09 216.924 226.699 216.151C227.167 215.543 227.565 214.512 227.776 213.013C227.893 213.201 228.01 213.364 228.127 213.528L228.01 213.739C226.862 215.706 225.973 217.182 228.127 223.013C229.251 226.058 230.68 228.892 232.835 230.672C235.13 232.569 238.151 233.248 242.296 231.773C243.537 231.328 244.404 230.531 244.966 229.29C261.969 242.147 287.824 257.417 312.977 272.289C329.278 281.938 345.297 291.423 358.295 299.831C358.88 300.205 359.677 300.041 360.051 299.456L360.098 299.362C360.894 297.934 361.831 296.599 362.885 295.404L363.354 295.709C359.864 301.564 358.271 305.124 357.967 306.95C357.499 309.526 358.529 310.299 360.496 309.644C361.433 309.363 362.721 308.402 364.173 306.997C368.6 302.688 375.181 293.531 377.054 285.896C377.148 285.638 377.148 285.334 377.031 285.029C376.797 284.374 376.047 284.046 375.391 284.303C371.855 285.638 368.459 287.371 365.438 289.62C364.407 290.392 363.4 291.236 362.464 292.149L248.69 220.625C248.713 220.554 248.737 220.461 248.783 220.367C251.43 212.381 239.345 179.616 235.598 169.429C235.153 168.258 234.825 167.368 234.661 166.923C203.255 77.7634 174.73 68.1612 154.729 61.4397C144.167 57.8799 136.11 55.1632 131.426 40.9005C135.783 27.9259 133.16 16.7546 127.305 9.84572C124.635 6.66062 121.286 4.38888 117.609 3.19447C113.932 2.00005 109.904 1.92979 105.922 3.17104C97.1163 5.95801 88.4744 15.2791 84.0012 33.6169C83.3689 36.2399 83.2986 38.418 83.5797 39.5421C83.767 40.2682 84.1417 40.7834 84.6804 41.0176C85.4064 41.322 86.109 41.1347 86.7179 40.3618C86.9521 40.0808 87.1863 39.6124 87.4439 38.98L87.3971 39.2142C87.3503 39.6358 87.4908 40.034 87.7718 40.2916C87.9358 40.4555 87.8187 40.6897 88.1934 41.6031C89.9967 46.0294 94.8446 57.9033 98.2405 64.5311C98.5918 65.2103 98.9665 65.8427 99.3412 66.3813C83.041 69.8943 64.5862 76.1006 57.8412 100.434C52.6186 119.263 51.7755 119.872 49.7848 121.371C48.2625 122.495 46.1547 124.041 42.0328 131.208C41.8221 130.294 41.6581 129.732 41.3536 129.147C41.0258 128.514 40.6042 127.952 39.8314 126.945C39.2224 126.149 38.4027 125.072 37.2318 123.456C37.021 123.081 36.6228 122.847 36.1544 122.847C35.4518 122.847 34.8663 123.409 34.8663 124.111C34.8663 133.432 31.6578 133.995 27.7935 134.674L27.1612 134.767C27.5593 134.486 27.9575 134.182 28.3322 133.831C31.2128 131.114 32.7351 126.477 30.9318 120.481C29.0816 114.275 24.866 111.184 20.346 110.621H20.2757C19.6668 108.233 19.0579 106.101 18.449 104.251C17.2311 100.481 15.4044 97.8108 13.6948 96.6632C12.8282 96.0777 11.9617 95.8435 11.1186 95.9606C10.2286 96.0777 9.45575 96.593 8.87027 97.5532C7.95688 99.0286 7.55875 101.769 8.05054 105.984C8.35501 108.584 8.72977 111.605 9.17474 114.673C8.23795 115.61 7.41821 116.711 6.76245 117.952C3.92865 123.245 3.92865 131.067 10.1818 140.318C10.3691 140.622 10.697 140.88 11.0952 140.927L12.3364 141.138C14.5379 141.489 16.9501 141.887 19.2218 142.566C20.5802 165.518 32.337 254.139 42.0094 326.881C46.8573 363.299 51.1432 395.712 53.368 413.956C49.5038 415.431 45.7566 417.656 42.5949 420.818C42.1031 421.31 42.1031 422.129 42.5949 422.621C42.8759 422.902 43.2272 423.019 43.5785 422.996L55.5461 422.598C56.2487 422.574 56.8107 421.989 56.7873 421.286C56.7873 421.263 56.7639 421.216 56.7639 421.192C56.6 419.577 56.3892 417.726 56.1316 415.665C56.6702 415.478 57.2323 415.338 57.771 415.197C58.0989 417.656 58.4033 419.694 58.6609 421.286C58.778 421.942 59.3869 422.41 60.0661 422.34C69.0828 421.286 74.0244 419.717 76.0619 418.171C78.2634 416.532 78.1229 414.869 76.3195 413.487C75.1485 412.574 72.9705 411.871 70.2303 411.59C67.3497 411.286 63.743 411.38 59.9256 412.106C58.1691 398.569 55.5695 375.243 52.4781 347.162C45.6863 285.685 36.3886 201.537 27.6296 147.953C47.0446 166.056 56.155 167.274 62.4315 160.74C65.6635 157.344 67.982 151.887 70.6285 145.658C73.6028 138.608 77.0221 130.528 82.6195 123.666C85.2425 126.055 88.732 133.737 92.1045 142.894C97.6784 158 102.784 176.829 103.627 183.083C104.142 187.064 105.266 190.296 106.836 192.895C109.154 196.666 112.48 199.031 116.414 200.273C120.279 201.467 124.728 201.608 129.483 200.975C142.434 199.219 157.727 191.724 168.641 185.05C173.442 182.099 176.861 181.467 178.805 182.122C179.554 182.38 180.046 182.848 180.234 183.457C180.444 184.136 180.351 185.026 179.906 186.01C178.641 188.75 174.917 191.865 168.383 193.481C157.891 196.034 151.38 199.055 146.228 201.444C136.134 206.128 131.426 208.306 110.653 199.055C110.395 198.938 110.091 198.891 109.763 198.961C109.084 199.102 108.662 199.804 108.826 200.484C115.688 229.829 122.831 242.92 132.41 257.37C128.546 286.95 130.935 320.698 136.134 340.745C135.947 341.097 135.759 341.448 135.595 341.799C134.658 343.907 134.331 346.46 134.518 349.13C134.635 351.027 135.033 352.994 135.642 354.891C143.043 377.655 139.553 382.315 136.954 385.758C136.017 387.023 135.174 388.124 134.799 389.81C134.307 392.058 134.307 393.861 134.682 395.243C134.986 396.391 135.572 397.234 136.391 397.773C137.188 398.335 138.195 398.522 139.342 398.382C140.677 398.218 142.223 397.538 143.909 396.367C144.799 395.735 145.736 395.196 146.696 394.775C147.61 394.353 148.57 394.049 149.553 393.838C153.23 393.042 156.181 393.768 157.938 395.196C158.617 395.759 159.109 396.414 159.366 397.117C159.601 397.796 159.647 398.522 159.437 399.271C158.992 400.887 157.423 402.574 154.378 403.862C152.528 404.658 150.256 405.15 147.867 405.478C149.085 404.354 150.022 403.042 150.584 401.824C151.24 400.396 151.427 398.99 151.146 397.89C150.771 396.508 149.788 395.595 148.078 395.524C146.04 395.454 142.715 396.836 137.984 400.794C137.047 401.59 136.485 402.738 135.806 404.119C134.963 405.782 133.956 407.82 132.012 409.436C131.661 409.717 131.426 410.162 131.497 410.63C131.567 411.333 132.199 411.825 132.902 411.754L133.019 411.731C136.462 411.333 141.075 411.145 144.94 412.106C147.797 412.808 150.233 414.19 151.287 416.672C149.881 416.274 148.406 415.853 147.001 415.455C139.6 413.347 134.635 411.942 131.567 412.551C128.124 413.23 127.07 415.853 128.031 421.614C123.206 422.738 117.023 424.307 110.021 426.134C77.8652 434.401 27.9809 447.235 7.23087 439.975C7.18405 439.975 7.11377 439.952 7.06693 439.928C6.38776 439.764 5.68515 440.186 5.52121 440.865C4.37363 445.479 4.51416 446.135 5.42755 450.584L5.52121 450.936Z" fill="#FF5959"/>
<path d="M27.9574 450.444H390.333V447.868H27.9574C27.2548 447.868 26.6693 448.453 26.6693 449.156C26.6693 449.858 27.2548 450.444 27.9574 450.444Z" fill="#FEFEFE"/>
<path d="M171.334 252.827C170.28 254.794 169.203 256.832 168.079 258.916C166.111 262.523 163.91 264.537 161.685 265.31C160.022 265.895 158.312 265.778 156.696 265.122C155.01 264.443 153.394 263.155 151.989 261.469C148.991 257.862 147.001 252.452 147.188 246.902C147.399 240.415 150.069 233.834 153.652 230.157C154.987 228.798 156.439 227.838 157.914 227.534C159.296 227.229 160.748 227.487 162.153 228.47C165.034 230.484 167.798 235.309 169.905 244.091C170.467 246.457 170.936 249.197 171.287 252.382L171.334 252.827ZM369.045 292.009C369.771 291.353 370.52 290.72 371.316 290.135C373.424 288.566 375.743 287.254 378.202 286.177C375.836 292.758 370.473 299.995 366.749 303.648C366.07 304.304 365.461 304.819 364.969 305.194C365.532 303.297 367.218 299.878 370.52 294.421C370.871 293.835 370.684 293.062 370.098 292.688L369.045 292.009ZM233.724 206.596C233.724 206.737 233.724 206.854 233.724 206.971L232.436 206.175C232.39 205.683 232.413 205.238 232.507 204.816C232.624 204.184 232.764 203.739 232.881 203.435C233.35 204.184 233.701 205.425 233.724 206.596ZM247.214 226.175C246.91 227.065 246.465 227.604 245.786 227.838C242.624 228.962 240.423 228.517 238.807 227.182C237.05 225.754 235.856 223.295 234.872 220.601C233.42 216.714 233.584 215.332 234.146 214.208C237.167 217.814 241.64 221.843 247.214 226.175ZM248.081 219.009C247.987 219.149 247.894 219.29 247.847 219.454C247.8 219.571 247.776 219.711 247.776 219.852C247.776 221.28 247.753 222.498 247.659 223.552C242.179 219.29 237.917 215.426 235.294 212.076C235.434 211.795 235.551 211.514 235.645 211.186L248.081 219.009ZM250.306 221.327C250.704 221.327 251.055 221.234 251.383 221.093L365.04 292.5C364.267 293.437 363.564 294.397 362.909 295.451C350.004 287.137 334.453 277.957 318.622 268.589C293.047 253.459 266.723 237.885 250.001 225.356C250.189 224.231 250.282 222.896 250.306 221.327ZM129.717 9.96288C134.448 15.5837 136.836 24.3427 134.448 34.6943C134.307 34.1088 134.167 33.4765 134.026 32.8441C133.113 28.5583 127.703 23.1717 120.981 19.7524C117.515 18.0193 113.674 16.7547 109.927 16.4268C106.086 16.0989 102.292 16.7312 99.0133 18.7453C96.6479 20.2208 94.5401 22.4457 92.9242 25.5371C97.3974 12.9138 104.166 6.23912 111.028 4.08449C114.494 2.98375 117.983 3.05401 121.192 4.08449C124.4 5.13838 127.351 7.1525 129.717 9.96288ZM130.935 40.6195C128.78 37.7623 122.597 33.5701 115.829 30.8768C112.222 29.4482 108.452 28.3943 104.985 28.1601C101.355 27.8791 98.0531 28.488 95.6174 30.385C94.423 31.3218 93.4394 32.5397 92.7368 34.0854C92.7836 33.9448 92.807 33.7809 92.8305 33.6404C94.1888 27.036 96.929 23.0312 100.348 20.9234C103.112 19.2137 106.367 18.6751 109.716 18.9795C113.136 19.2606 116.648 20.4316 119.834 22.0241C125.923 25.1155 130.771 29.7995 131.52 33.3828C131.989 35.5608 132.504 37.5515 133.066 39.3548C132.996 39.5422 132.949 39.7295 132.878 39.8935C132.199 40.1511 131.544 40.3853 130.935 40.6195ZM123.112 60.2922C121.941 60.7372 120.677 61.1353 119.318 61.51C122.105 57.0134 121.567 54.1094 121.122 51.7674C120.63 49.2146 120.302 47.5752 129.647 43.8515C132.996 53.5941 129.67 57.8097 123.112 60.2922ZM109.623 63.6412C108.569 63.852 107.515 64.0628 106.437 64.297C105.899 63.6413 105.36 62.845 104.845 61.8379C101.496 55.3506 96.6948 43.5236 94.8914 39.1206C94.6572 38.5351 94.4699 38.0667 94.3294 37.7154C94.7275 35.2329 95.758 33.4999 97.1631 32.3991C99.0836 30.9237 101.777 30.4787 104.798 30.6895C108.007 30.9237 111.52 31.9073 114.892 33.2422C121.005 35.6779 126.508 39.1909 128.499 41.5563C117.445 46.0529 117.89 48.4652 118.616 52.2358C119.014 54.3904 119.529 57.1071 116.133 61.674C115.946 61.9316 115.759 62.1892 115.548 62.4234C113.674 62.845 111.683 63.2431 109.623 63.6412ZM109.974 66.1706L110.091 66.1472L111.145 65.9364C110.747 66.0769 110.372 66.1472 109.974 66.1706ZM51.3539 418.804C53.4383 417.211 55.71 415.993 58.0051 415.033C58.1691 416.298 58.3096 417.492 58.4267 418.57L51.3539 418.804ZM65.3355 418.125C65.1013 416.719 64.8672 415.033 64.6095 413.089C68.1928 412.387 71.5887 412.293 74.3054 412.597C76.5771 412.832 78.2867 413.347 79.1064 413.979C79.2938 414.12 79.2469 414.331 78.8723 414.612C77.2328 415.853 73.0641 417.141 65.3355 418.125ZM25.2875 111.769C28.5195 112.519 31.447 115.024 32.8287 119.685C34.3276 124.627 33.1566 128.327 30.9317 130.435C30.4633 130.88 29.9481 131.254 29.386 131.559C28.0042 123.947 26.6225 117.296 25.2875 111.769ZM16.9735 110.551C16.5753 110.762 16.2007 110.996 15.8259 111.254C15.4746 108.748 15.1702 106.336 14.9125 104.158C14.491 100.574 14.7486 98.3729 15.381 97.3425C15.5215 97.1083 15.6854 96.9677 15.8025 96.9443C16.0132 96.9209 16.2709 97.038 16.6222 97.2488C17.8869 98.1153 19.3155 100.317 20.3694 103.525C20.9081 105.141 21.4467 106.991 21.9853 109.052C20.2523 109.216 18.5426 109.732 16.9735 110.551ZM16.2241 114.111C16.833 113.596 17.4887 113.174 18.1679 112.823C19.5731 112.074 21.0954 111.652 22.6177 111.558C24.0229 117.249 25.4749 124.275 26.9504 132.355C25.9667 132.496 24.9597 132.425 23.976 132.144C21.1891 131.325 18.6363 128.631 17.7698 123.713C17.2311 120.809 16.7159 117.53 16.2475 114.275L16.2241 114.111ZM26.1775 141.981C27.1846 142.426 28.0979 142.964 28.9176 143.62C37.8172 196.83 47.3491 283.179 54.2814 345.898C57.3962 374.142 59.9958 397.585 61.7757 411.122C61.2371 411.263 60.6984 411.426 60.1597 411.59C57.9348 393.323 53.6725 361.121 48.8714 325.031C39.3629 253.366 27.7935 166.291 26.1775 141.981ZM23.4374 138.351C21.3062 137.789 19.1047 137.437 17.0906 137.109L16.388 136.992C11.0014 128.842 10.9312 122.121 13.3434 117.624C13.5542 117.249 13.765 116.875 14.0226 116.523C14.4207 119.217 14.8423 121.84 15.2404 124.158C16.3177 130.177 19.6199 133.503 23.2734 134.58C24.1868 134.861 25.1236 134.978 26.0604 134.978C25.3344 135.376 24.6318 135.868 23.9292 136.501C23.6247 136.735 23.4374 137.109 23.4374 137.508C23.4374 137.765 23.4374 138.046 23.4374 138.351ZM28.3555 140.224C27.6061 139.826 26.8333 139.475 26.037 139.17C26.0136 138.772 25.9901 138.421 25.9901 138.093C26.5757 137.625 27.1611 137.25 27.7935 136.969C27.9808 138.023 28.1682 139.124 28.3555 140.224ZM211.85 361.425C209.391 365.36 206.253 368.357 202.553 369.575C202.482 369.107 202.412 368.615 202.342 368.147C207.26 365.594 210.562 362.83 212.74 359.926C212.436 360.441 212.155 360.933 211.85 361.425ZM199.625 370.161C199.368 370.184 199.086 370.184 198.829 370.184C199.18 369.95 199.555 369.716 199.953 369.458C200 369.692 200.047 369.903 200.07 370.114C199.93 370.137 199.766 370.161 199.625 370.161ZM196.159 372.339C196.346 372.479 196.581 372.596 196.815 372.62C197.822 372.737 198.805 372.76 199.789 372.69C200.047 372.69 200.304 372.667 200.562 372.62C200.89 374.119 201.288 375.594 201.78 377.069C201.873 377.444 202.131 377.772 202.529 377.936C211.499 381.683 226.183 374.798 242.226 367.28C256.442 360.605 271.782 353.439 284.616 352.947L177.306 400.419L178.055 393.815C191.709 387.351 192.505 382.831 193.255 378.498C193.606 376.507 193.958 374.54 196.159 372.339ZM196.018 351.378C196.065 348.568 196.206 345.757 196.463 343.111C197.845 344.563 198.759 345.64 199.016 346.319C199.25 346.881 199.204 348.895 199.133 351.706C199.04 355.64 198.923 361.027 199.578 366.741C198.782 367.186 198.079 367.631 197.424 368.076C196.44 363.486 195.972 357.42 196.018 351.378ZM216.066 325.803C216.042 326.459 215.949 327.115 215.808 327.747C215.879 326.998 215.972 326.365 216.066 325.803ZM215.832 334.024C216.113 333.602 216.394 333.157 216.651 332.689C217.167 331.799 217.565 330.839 217.893 329.855C218.033 330.909 218.174 332.127 218.267 333.462C218.478 336.483 218.361 339.715 217.963 342.97C217.635 345.57 217.12 348.169 216.417 350.699C216.932 346.858 216.581 342.853 216.206 338.755C216.066 337.185 215.902 335.616 215.832 334.024ZM204.543 338.356C202.178 338.684 199.719 338.239 197.4 336.881C197.728 335.218 198.126 333.719 198.595 332.455C204.965 314.89 196.159 304.046 188.266 294.28C181.732 286.247 175.854 278.987 180.819 269.221C187.892 291.353 194.309 294.187 198.829 296.177C200.96 297.091 202.576 297.817 203.489 301.049C204.145 303.273 204.45 305.288 204.754 307.067C205.691 312.993 206.347 316.927 214.848 319.761C215.129 320.37 215.363 320.955 215.527 321.541C215.035 321.799 214.59 322.29 214.263 322.993C213.49 324.609 212.998 328.052 213.232 333.251C212.366 334.352 211.358 335.312 210.234 336.108C208.525 337.303 206.581 338.099 204.543 338.356ZM196.908 339.527C199.508 340.839 202.248 341.237 204.871 340.886C207.307 340.558 209.649 339.621 211.686 338.192C212.295 337.747 212.904 337.279 213.466 336.74C213.537 337.49 213.607 338.239 213.654 338.965C214.567 348.849 215.41 358.099 202.014 365.43C201.499 360.254 201.592 355.359 201.686 351.753C201.756 348.638 201.803 346.413 201.382 345.382C200.866 344.071 199.25 342.314 196.862 339.855L196.908 339.527ZM175.549 308.075L184.871 322.97C185.152 323.415 185.667 323.625 186.159 323.555C186.393 323.508 187.564 326.295 188.805 329.199C189.461 330.722 190.117 332.291 190.796 333.602C186.323 328.825 180.913 322.571 175.643 314.585C175.62 312.384 175.573 310.229 175.549 308.075ZM172.692 293.203C171.685 287.863 171.662 282.5 172.294 277.184C172.411 281.844 172.552 287.254 172.692 293.203ZM192.88 206.081C193.817 208.563 193.63 211.585 192.74 215.051C191.288 220.718 188.009 227.58 184.355 235.192C180.936 242.358 177.212 250.181 174.308 258.378C174.215 256.598 174.097 254.911 173.934 253.342C184.8 232.663 190.445 218.025 192.88 206.081ZM140.396 236.55C139.132 241.468 138.101 246.668 137.281 252.031C128.897 239.103 122.433 226.456 116.227 200.858C136.157 209.407 141.216 207.065 151.638 202.24C156.697 199.898 163.09 196.924 173.325 194.418C180.702 192.615 185.011 188.891 186.557 185.542C187.259 183.973 187.4 182.45 187.002 181.162C186.557 179.78 185.526 178.703 183.934 178.188C181.381 177.321 177.189 177.977 171.638 181.35C160.959 187.907 146.04 195.238 133.464 196.924C129.084 197.509 124.986 197.392 121.52 196.315C118.147 195.261 115.337 193.247 113.346 190.038C111.965 187.743 110.957 184.839 110.489 181.209C109.623 174.839 104.447 155.728 98.826 140.505C94.9149 129.849 90.6759 120.973 87.3034 119.287C86.7647 119.029 86.1558 119.17 85.7811 119.615C79.4811 126.945 75.8042 135.611 72.6191 143.152C70.0898 149.147 67.8649 154.393 64.9374 157.438C59.5274 163.082 51.0026 161.208 31.4236 142.426L31.283 142.285C30.9317 140.177 30.557 138.116 30.2057 136.102C31.002 135.915 31.7983 135.774 32.5477 135.657C36.9975 134.885 40.7681 134.229 41.5878 126.243C41.7986 126.5 41.9859 126.758 42.1498 126.969C42.829 127.835 43.1803 128.327 43.4146 128.772C43.6956 129.334 43.8595 129.99 44.1874 131.465C44.3513 132.191 44.5387 133.034 44.6558 133.479C44.8197 134.159 45.4989 134.58 46.1781 134.416C46.5762 134.322 46.8807 134.065 47.0446 133.737C51.9628 124.603 54.1174 123.011 55.6397 121.886C58.1222 120.036 59.1761 119.263 64.6329 99.5908C71.1671 76.007 89.6454 70.3862 105.594 67.0606C105.758 67.1777 105.899 67.2947 106.039 67.4118C107.163 68.255 108.358 68.6765 109.576 68.7234C110.747 68.7702 111.941 68.4658 113.089 67.8803C114.424 67.2011 115.712 66.1003 116.93 64.7186C119.506 64.1331 121.895 63.4773 124.002 62.681C132.012 59.6365 136.087 54.5778 132.012 42.9147C132.644 42.6805 133.323 42.4463 134.026 42.1886C139.108 55.8893 147.469 58.6997 158.266 62.3297C177.774 68.8873 205.597 78.2552 236.605 166.244C236.792 166.782 237.12 167.626 237.542 168.773C241.172 178.609 252.741 209.969 250.798 217.721L236.184 208.54C236.23 207.955 236.277 207.299 236.254 206.573C236.23 204.816 235.621 202.849 234.825 201.748C234.45 201.256 234.006 200.882 233.514 200.718C232.835 200.46 232.155 200.554 231.523 201.069C230.914 201.561 230.375 202.568 230.001 204.278C229.86 204.98 229.86 205.706 229.954 206.479C229.93 206.573 229.907 206.69 229.907 206.807L229.743 209.617C229.649 211.421 229.415 212.498 229.087 212.99C229.017 212.943 228.923 212.849 228.806 212.732C227.893 211.795 226.933 209.805 226.371 207.627C224.989 202.146 225.434 197.626 225.879 193.013C227.05 180.717 228.291 167.953 197.986 136.29L181.849 108.771C181.498 108.162 180.725 107.952 180.116 108.303C179.695 108.561 179.461 109.006 179.484 109.451C180.421 134.51 184.262 150.599 187.447 163.831C190.538 176.712 192.95 186.83 191.288 199.992C189.695 198.938 187.681 198.095 185.175 197.439C178.571 195.729 172.716 195.94 167.54 197.673C160.701 199.945 155.104 204.933 150.631 211.749C146.204 218.47 142.855 226.995 140.396 236.55ZM139.389 255.239C140.256 248.963 141.38 242.874 142.855 237.183C145.244 227.885 148.5 219.618 152.762 213.154C156.931 206.784 162.083 202.17 168.336 200.085C173.067 198.493 178.43 198.329 184.543 199.898C187.353 200.624 189.391 201.678 190.819 203.013C188.852 214.606 183.746 228.705 173.395 248.869C173.114 246.902 172.763 245.122 172.364 243.506C170.093 234.044 166.954 228.728 163.605 226.386C161.568 224.957 159.437 224.583 157.376 225.028C155.408 225.473 153.511 226.667 151.825 228.4C147.844 232.475 144.869 239.712 144.635 246.808C144.424 253.014 146.673 259.057 150.022 263.108C151.708 265.099 153.652 266.645 155.76 267.488C157.938 268.378 160.256 268.518 162.528 267.722C165.315 266.738 168.008 264.35 170.303 260.134C170.772 259.244 171.24 258.378 171.709 257.534C171.802 259.15 171.873 260.86 171.919 262.663C171.943 263.507 171.966 264.537 171.99 265.708C168.687 277.793 167.844 290.463 172.903 302.875C172.95 305.358 172.997 307.911 173.067 310.51C171.709 308.309 170.397 305.99 169.132 303.555C158.828 283.905 150.514 271.657 143.488 261.305C142.082 259.221 140.701 257.207 139.389 255.239ZM143.253 339.715C143.909 338.942 144.752 338.333 145.806 338.005C146.322 337.841 146.884 337.724 147.492 337.677C154.308 337.209 156.884 339.527 157.071 342.291C157.188 343.837 156.603 345.546 155.619 346.998C154.636 348.474 153.254 349.645 151.802 350.137C149.319 350.956 146.439 349.668 144.542 344.047C144.097 342.713 143.652 341.26 143.253 339.715ZM9.85385 449.414C9.99435 450.093 10.6736 450.538 11.3527 450.397C12.0553 450.257 12.4769 449.577 12.3363 448.898L12.2661 448.547C11.5401 445.081 11.3527 444.191 12.0085 441.287C34.1403 447.868 83.1581 435.245 114.986 427.071C122.527 425.127 129.084 423.441 134.143 422.293C134.799 422.153 135.244 421.474 135.103 420.818C134.143 415.97 134.518 413.909 136.415 413.534C138.874 413.042 143.605 414.377 150.631 416.392C152.434 416.883 154.401 417.445 157.071 418.171C157.75 418.359 158.453 417.961 158.64 417.281C158.687 417.141 158.687 416.977 158.687 416.813V416.79H158.664H158.687C158.078 411.731 154.401 409.225 149.881 408.101C146.813 407.328 143.347 407.234 140.303 407.398C141.216 406.134 141.848 404.845 142.41 403.721C142.972 402.621 143.441 401.66 143.956 401.239C148.148 397.726 150.842 396.485 152.317 396.555C152.715 396.555 152.949 396.742 153.02 397C153.16 397.538 153.02 398.335 152.598 399.225C151.544 401.543 148.898 404.143 145.127 404.682C144.424 404.775 143.956 405.408 144.05 406.11C144.143 406.789 144.752 407.258 145.408 407.211L146.298 407.141C150.912 406.742 155.9 406.321 159.718 404.682C163.559 403.042 165.596 400.747 166.228 398.405C166.58 397.14 166.509 395.876 166.088 394.728C165.666 393.581 164.917 392.55 163.886 391.684C161.591 389.833 157.867 388.85 153.371 389.81C152.223 390.068 151.099 390.442 149.998 390.911C148.874 391.426 147.82 392.035 146.79 392.761C145.432 393.698 144.284 394.213 143.347 394.33C142.832 394.4 142.434 394.33 142.129 394.143C141.848 393.932 141.614 393.581 141.474 393.042C141.193 392.082 141.239 390.653 141.638 388.826C141.872 387.679 142.574 386.789 143.324 385.758C146.251 381.871 150.233 376.601 142.41 352.596C141.872 350.886 141.52 349.13 141.403 347.443C141.286 345.968 141.356 344.563 141.638 343.298C141.801 343.837 141.965 344.352 142.129 344.867C144.612 352.244 148.851 353.814 152.598 352.549C154.612 351.87 156.462 350.324 157.727 348.427C159.015 346.53 159.764 344.258 159.624 342.104C159.343 338.029 156.017 334.539 147.329 335.148C146.485 335.195 145.713 335.335 145.01 335.569C144.05 335.874 143.23 336.342 142.504 336.904C137.82 317.63 135.689 286.786 138.921 259.057C139.717 260.275 140.537 261.469 141.38 262.71C148.382 273.015 156.65 285.193 166.884 304.725C168.898 308.59 171.006 312.126 173.137 315.405C173.84 358.685 173.723 412.199 168.5 416.649L27.6764 447.915C26.9972 448.079 26.5522 448.734 26.7162 449.437C26.8567 450.116 27.5359 450.538 28.2385 450.397L169.367 419.061C169.507 419.015 169.648 418.968 169.788 418.874C175.807 414.799 176.299 362.69 175.713 319.199C182.458 328.801 189.18 335.64 193.723 340.277L194.192 340.745C193.747 344.071 193.536 347.724 193.489 351.354C193.419 358.053 193.981 364.821 195.199 369.739C191.686 372.713 191.217 375.36 190.749 378.053C190.093 381.824 189.414 385.758 176.322 391.801C175.901 392.011 175.643 392.386 175.596 392.831L174.519 402.34C174.449 403.042 174.941 403.674 175.643 403.745C175.877 403.768 176.088 403.721 176.299 403.628L290.635 353.064C291.267 352.783 291.572 352.034 291.291 351.378C291.08 350.933 290.635 350.652 290.166 350.628C275.716 348.802 257.706 357.233 241.149 364.985C225.973 372.081 212.085 378.592 204.028 375.781C203.653 374.564 203.325 373.322 203.044 372.104C207.494 370.746 211.171 367.303 214.005 362.783C217.401 357.327 219.626 350.254 220.492 343.275C220.914 339.879 221.031 336.483 220.797 333.298C220.422 327.841 219.485 324.305 218.502 322.735C218.455 322.689 218.431 322.642 218.384 322.595C218.127 321.119 217.635 319.644 216.909 318.169C216.745 317.841 216.464 317.606 216.16 317.513C208.618 315.124 208.08 311.775 207.26 306.669C206.956 304.772 206.628 302.688 205.949 300.346C204.707 295.966 202.599 295.03 199.859 293.835C195.597 291.962 189.461 289.268 182.412 265.731C182.201 265.052 181.498 264.678 180.819 264.888C180.515 264.959 180.28 265.146 180.116 265.404V265.38C171.755 277.957 178.617 286.411 186.299 295.896C193.77 305.124 202.084 315.382 196.206 331.588C195.808 332.665 195.456 333.86 195.152 335.171C194.824 334.89 194.52 334.562 194.215 334.211C193.255 333.157 192.201 330.651 191.147 328.192C189.765 324.96 188.43 321.822 186.721 321.143L176.908 305.475C176.369 304.421 175.877 303.367 175.432 302.313C175.175 289.737 174.894 278.729 174.683 271.071C174.636 269.198 174.589 267.511 174.542 266.083C177.47 255.497 182.318 245.356 186.651 236.293C190.351 228.564 193.7 221.585 195.199 215.683C196.651 210.039 196.51 205.378 193.606 202.029C195.784 187.696 193.208 176.993 189.906 163.246C187.002 151.068 183.489 136.407 182.271 114.509L195.831 137.671C195.901 137.765 195.972 137.859 196.042 137.953C225.645 168.867 224.474 181.045 223.349 192.778C222.881 197.603 222.413 202.357 223.912 208.236C224.567 210.835 225.785 213.294 227.003 214.536C227.588 215.121 228.221 215.496 228.877 215.589C229.696 215.683 230.446 215.402 231.031 214.629C231.523 213.997 231.898 212.99 232.109 211.491C232.226 211.655 232.343 211.842 232.46 212.006L232.343 212.217C231.195 214.161 230.329 215.66 232.46 221.491C233.607 224.536 235.013 227.37 237.191 229.15C239.486 231.047 242.484 231.726 246.629 230.25C247.894 229.805 248.737 229.009 249.299 227.768C266.325 240.602 292.181 255.895 317.31 270.767C333.634 280.416 349.653 289.901 362.628 298.308C363.236 298.683 364.009 298.519 364.407 297.934L364.454 297.84C365.251 296.411 366.187 295.077 367.218 293.882L367.71 294.187C364.22 300.042 362.628 303.601 362.3 305.428C361.855 308.004 362.862 308.777 364.852 308.121C365.789 307.817 367.077 306.88 368.506 305.475C372.956 301.142 379.513 292.009 381.387 284.374C381.481 284.116 381.481 283.812 381.387 283.507C381.129 282.851 380.38 282.523 379.724 282.781C376.211 284.116 372.792 285.849 369.794 288.097C368.74 288.87 367.756 289.713 366.82 290.627L253.022 219.102C253.046 219.009 253.093 218.938 253.116 218.845C255.786 210.859 243.678 178.071 239.931 167.907C239.486 166.712 239.181 165.846 239.017 165.401C207.588 76.2411 179.062 66.639 159.062 59.9175C148.523 56.3577 140.443 53.641 135.759 39.3782C140.115 26.3802 137.492 15.2324 131.661 8.30007C128.991 5.13839 125.642 2.86666 121.965 1.67224C118.264 0.477829 114.236 0.407582 110.255 1.64884C101.449 4.4358 92.8305 13.7569 88.3339 32.0713C87.7015 34.7177 87.6547 36.8957 87.9357 37.9965C88.0997 38.7459 88.4744 39.2612 89.0131 39.4954C89.7391 39.7998 90.4417 39.6125 91.0506 38.8396C91.2848 38.5586 91.519 38.0902 91.7766 37.4578L91.7532 37.692C91.6829 38.1136 91.8234 38.4883 92.1045 38.7693C92.2684 38.9333 92.1747 39.1441 92.526 40.0809C94.3294 44.5072 99.1773 56.3811 102.597 63.0089C102.948 63.6881 103.299 64.3204 103.674 64.8591C87.3737 68.3721 68.9188 74.5783 62.1739 98.9116C56.9512 117.741 56.1081 118.35 54.1174 119.826C52.5951 120.973 50.5108 122.519 46.3889 129.685C46.1547 128.772 45.9907 128.21 45.6863 127.624C45.3584 126.992 44.9368 126.43 44.164 125.423C43.5785 124.627 42.7354 123.549 41.5878 121.933C41.3536 121.559 40.9554 121.324 40.4871 121.324C39.7845 121.324 39.2224 121.887 39.2224 122.589C39.2224 131.91 35.9904 132.472 32.1261 133.128L31.4938 133.245C31.9154 132.964 32.3135 132.636 32.6648 132.285C35.5455 129.592 37.0912 124.954 35.2878 118.959C33.4142 112.753 29.2221 109.661 24.7021 109.099H24.6084C23.9995 106.71 23.3905 104.579 22.7816 102.729C21.5638 98.9584 19.7371 96.2886 18.0274 95.141C17.1843 94.5555 16.2943 94.3213 15.4746 94.4384C14.5612 94.5555 13.7884 95.0707 13.2029 96.0075C12.3129 97.483 11.8914 100.247 12.3832 104.462C12.6877 107.062 13.0858 110.059 13.5074 113.151C12.594 114.088 11.7743 115.188 11.0951 116.43C8.26129 121.723 8.26129 129.545 14.5378 138.796C14.7252 139.1 15.0297 139.334 15.4278 139.405L16.6924 139.615C18.8705 139.967 21.2827 140.365 23.5779 141.044C24.9128 163.995 36.693 252.616 46.342 325.358C51.1899 361.776 55.4992 394.189 57.7007 412.434C53.8598 413.909 50.0892 416.134 46.9275 419.296C46.4357 419.787 46.4357 420.607 46.9509 421.099C47.2086 421.357 47.5598 421.497 47.9346 421.474L59.8787 421.075C60.5813 421.052 61.1434 420.467 61.12 419.764C61.12 419.717 61.12 419.694 61.12 419.67C60.9326 418.054 60.7218 416.204 60.4642 414.143C61.0263 413.956 61.5649 413.815 62.1036 413.651C62.4315 416.134 62.7359 418.171 63.017 419.764C63.1107 420.42 63.743 420.888 64.3987 420.818C73.4154 419.741 78.357 418.195 80.3945 416.649C82.596 415.01 82.4555 413.347 80.6521 411.965C79.4811 411.052 77.3031 410.349 74.563 410.068C71.6823 409.74 68.0757 409.857 64.2582 410.56C62.5017 397.047 59.9256 373.697 56.8107 345.617C50.019 284.139 40.7213 200.015 31.9622 146.431C51.4007 164.534 60.4876 165.752 66.7642 159.218C70.0195 155.822 72.3147 150.365 74.9611 144.135C77.9355 137.086 81.3547 129.006 86.9755 122.144C89.5985 124.51 93.0647 132.215 96.4372 141.372C102.011 156.478 107.117 175.307 107.96 181.537C108.498 185.542 109.599 188.774 111.192 191.35C113.51 195.144 116.812 197.509 120.77 198.751C124.611 199.945 129.061 200.085 133.815 199.453C146.79 197.697 162.06 190.202 172.973 183.528C177.774 180.577 181.194 179.944 183.138 180.6C183.887 180.858 184.379 181.326 184.566 181.912C184.8 182.614 184.683 183.504 184.238 184.488C182.974 187.228 179.25 190.343 172.716 191.935C162.224 194.512 155.713 197.533 150.561 199.922C140.467 204.606 135.759 206.784 114.986 197.533C114.728 197.392 114.424 197.345 114.119 197.416C113.44 197.58 112.995 198.282 113.159 198.961C120.021 228.306 127.164 241.375 136.743 255.848C132.878 285.428 135.291 319.176 140.49 339.223C140.279 339.574 140.092 339.926 139.928 340.277C138.991 342.385 138.663 344.937 138.851 347.607C138.991 349.504 139.366 351.472 139.998 353.369C147.399 376.133 143.886 380.793 141.286 384.236C140.349 385.501 139.506 386.601 139.132 388.288C138.663 390.536 138.64 392.339 139.014 393.721C139.319 394.869 139.904 395.712 140.724 396.25C141.544 396.789 142.527 397 143.675 396.859C145.01 396.695 146.556 396.016 148.242 394.845C149.155 394.189 150.069 393.674 151.029 393.253C151.966 392.831 152.926 392.527 153.91 392.316C157.586 391.52 160.537 392.246 162.27 393.674C162.95 394.213 163.441 394.869 163.699 395.595C163.957 396.274 163.98 397 163.793 397.749C163.348 399.365 161.755 401.051 158.734 402.34C156.86 403.136 154.589 403.628 152.223 403.956C153.441 402.831 154.355 401.52 154.917 400.279C155.572 398.873 155.783 397.468 155.479 396.344C155.127 394.986 154.12 394.072 152.411 394.002C150.373 393.908 147.071 395.314 142.34 399.272C141.403 400.068 140.818 401.215 140.139 402.597C139.296 404.26 138.288 406.298 136.368 407.913C135.993 408.171 135.783 408.64 135.829 409.108C135.923 409.811 136.555 410.302 137.258 410.232L137.375 410.209C140.794 409.81 145.432 409.6 149.272 410.56C152.153 411.286 154.565 412.668 155.643 415.15C154.237 414.752 152.739 414.331 151.333 413.932C143.933 411.825 138.968 410.419 135.9 411.028C132.48 411.707 131.403 414.331 132.387 420.092C127.562 421.193 121.379 422.785 114.353 424.588C82.1979 432.879 32.3135 445.713 11.5635 438.453C11.5167 438.453 11.4698 438.43 11.3996 438.406C10.7204 438.242 10.0412 438.664 9.85385 439.343C8.70627 443.933 8.8468 444.612 9.7836 449.062L9.85385 449.414Z" fill="#FEFEFE"/>
</svg>
