<svg xmlns:dc="http://purl.org/dc/elements/1.1/" xmlns:cc="http://creativecommons.org/ns#" xmlns:rdf="http://www.w3.org/1999/02/22-rdf-syntax-ns#" xmlns:svg="http://www.w3.org/2000/svg" xmlns="http://www.w3.org/2000/svg" height="129" width="190" version="1.1" style=""><rect id="backgroundrect" width="100%" height="100%" x="0" y="0" fill="none" stroke="none"/>
  <metadata id="metadata30">
    <rdf:RDF>
      <cc:Work rdf:about="">
        <dc:format>image/svg+xml</dc:format>
        <dc:type rdf:resource="http://purl.org/dc/dcmitype/StillImage"/>
      </cc:Work>
    </rdf:RDF>
  </metadata>
  <defs id="defs28"/>
  
  
  
  
  
  
  
  
  
  
  
<g class="currentLayer" style=""><title>Layer 1</title><path id="path4" style="fill:#ffffff;fill-rule:evenodd" d="m19.612408300781254,0.000004394531259777068 l150.3848,0 c10.7872,0 19.6124,8.8285 19.6124,19.6124 l0,69.883 c0,10.784 -8.8285,19.6124 -19.6124,19.6124 l-150.3848,0 c-10.784,0 -19.6124,-8.8252 -19.6124,-19.6124 l0,-69.883 c0,-10.7872 8.8252,-19.6124 19.6124,-19.6124 z" class=""/><path id="path6" style="fill:#ffffff;fill-rule:evenodd" d="m173.63940830078127,115.36790439453125 l0,-2.7684 l5.0281,0 l0,9.809 c-0.003000000000000001,0.23 0.006000000000000002,0.46 0.025300000000000007,0.6890000000000002 c0.014700000000000003,0.17990000000000003 0.05370000000000001,0.3557 0.11350000000000002,0.5264 c0.046600000000000016,0.1338 0.12010000000000001,0.24530000000000002 0.19760000000000003,0.3324000000000001 c0.12360000000000002,0.1282 0.2538,0.22090000000000004 0.41950000000000004,0.28730000000000006 c0.21280000000000002,0.08610000000000002 0.43370000000000003,0.14240000000000003 0.6617000000000002,0.17120000000000002 c0.24420000000000003,0.030400000000000007 0.49200000000000005,0.04870000000000001 0.7661000000000001,0.046100000000000016 c0.1748,0.003000000000000001 0.3521,-0.008000000000000002 0.5259,-0.022800000000000004 c0.19050000000000003,-0.015700000000000002 0.38000000000000006,-0.05010000000000001 0.5654,-0.09370000000000003 c0.15860000000000002,-0.036500000000000005 0.30960000000000004,-0.09320000000000003 0.454,-0.16720000000000004 c0.10540000000000001,-0.05370000000000001 0.19610000000000002,-0.12010000000000001 0.2619,-0.19100000000000003 c0.08870000000000003,-0.1003 0.16060000000000002,-0.21330000000000002 0.20220000000000002,-0.3415000000000001 c0.05980000000000001,-0.18590000000000004 0.1008,-0.37590000000000007 0.11550000000000002,-0.5715 c0.016700000000000003,-0.22040000000000004 0.028900000000000006,-0.4443000000000001 0.025800000000000003,-0.6815000000000001 l0,-9.7922 l5.0286,0 l0,10.1353 c0.004000000000000001,0.4595 -0.026300000000000007,0.919 -0.09020000000000003,1.374 c-0.07440000000000001,0.5254 -0.22590000000000005,1.0336 -0.43920000000000003,1.5190000000000001 c-0.24470000000000003,0.5578000000000001 -0.5918000000000001,1.0538 -1.0169,1.489 c-0.43370000000000003,0.4439000000000001 -0.9343,0.8066000000000001 -1.4941,1.0752 c-0.49760000000000004,0.2391 -1.0189,0.42050000000000004 -1.5594999999999999,0.5335 c-0.4732,0.09880000000000003 -0.9531000000000001,0.16770000000000004 -1.4359000000000002,0.19710000000000003 c-0.38910000000000006,0.024300000000000006 -0.7813,0.03900000000000001 -1.1481,0.0354 c-0.39060000000000006,0.004000000000000001 -0.7823,-0.011100000000000002 -1.1714,-0.0354 c-0.48180000000000006,-0.029400000000000006 -0.9611000000000001,-0.09830000000000003 -1.4333,-0.19710000000000003 c-0.5416000000000001,-0.11300000000000002 -1.064,-0.29390000000000005 -1.5626000000000002,-0.5335 c-0.5593,-0.2686 -1.0604,-0.6318000000000001 -1.4941,-1.0757 c-0.42460000000000003,-0.43470000000000003 -0.7711,-0.9302 -1.0164,-1.487 c-0.21430000000000002,-0.48590000000000005 -0.3647,-0.9946 -0.43920000000000003,-1.5205 c-0.06390000000000001,-0.455 -0.09430000000000002,-0.9145 -0.09020000000000003,-1.3629 l0,-1.75 c-0.09420000000000003,0.2665 -0.20720000000000002,0.5224 -0.3339000000000001,0.7625000000000001 c-0.17830000000000001,0.3542 -0.41500000000000004,0.6718000000000002 -0.6880000000000002,0.9581000000000001 c-0.3456000000000001,0.36180000000000007 -0.7752,0.6252000000000001 -1.2358,0.8152 c-0.21180000000000002,0.08770000000000003 -0.43270000000000003,0.15300000000000002 -0.6586000000000002,0.20070000000000002 l5.4582,5.0681 l-6.8612,0 l-4.8791,-4.8158 c-0.07400000000000001,-0.07300000000000001 -0.14390000000000003,-0.14950000000000002 -0.21180000000000002,-0.22800000000000004 l0,5.0438 l-9.7886,0 l0,-1.8691 c-0.08520000000000003,0.14290000000000003 -0.17890000000000003,0.2812 -0.2817,0.41390000000000005 c-0.30810000000000004,0.3978000000000001 -0.6845000000000001,0.7393000000000001 -1.1299000000000001,0.9773999999999999 c-0.38350000000000006,0.20520000000000002 -0.7949,0.3425000000000001 -1.2256,0.40580000000000005 c-0.3572,0.05220000000000001 -0.7184,0.07600000000000001 -1.065,0.07200000000000001 l-18.7433,0 c-0.22650000000000003,0.004000000000000001 -0.4535,-0.004000000000000001 -0.6795000000000001,-0.0198 c-0.29530000000000006,-0.021300000000000006 -0.5846000000000001,-0.08110000000000002 -0.8623000000000001,-0.18440000000000004 c-0.3308000000000001,-0.12310000000000001 -0.6277000000000001,-0.31620000000000004 -0.9135,-0.5847000000000001 c-0.2589,-0.2589 -0.4671,-0.5604 -0.6065,-0.8993000000000001 c-0.006000000000000002,-0.015200000000000003 -0.012100000000000001,-0.030400000000000007 -0.0182,-0.045600000000000016 c-0.015200000000000003,0.038500000000000006 -0.031400000000000004,0.07650000000000001 -0.04870000000000001,0.11400000000000002 c-0.16360000000000002,0.3597 -0.38350000000000006,0.6865000000000001 -0.6931000000000002,0.9368000000000001 c-0.22440000000000004,0.18140000000000003 -0.4747,0.3248000000000001 -0.7442000000000001,0.42810000000000004 c-0.2331,0.08970000000000003 -0.47530000000000006,0.15710000000000002 -0.6962000000000002,0.19260000000000002 c-0.21790000000000004,0.04000000000000001 -0.4393000000000001,0.062300000000000015 -0.6612000000000001,0.062300000000000015 l-5.862,0 c-0.5650000000000001,0 -1.1294,-0.060800000000000014 -1.6771000000000003,-0.20220000000000002 c-0.459,-0.11850000000000002 -0.9099,-0.2812 -1.3289,-0.5041 c-0.1257,-0.06690000000000002 -0.24980000000000002,-0.1378 -0.37040000000000006,-0.21330000000000002 l0.38610000000000005,0.9196000000000001 l-5.3818,0 l-1.4156,-3.4813 l-4.9885,0 l-1.3964,3.4813 l-7.9687,0 l0.04910000000000001,-6.7158 l-1.6932,4.4186 c-0.1044,0.28780000000000006 -0.22450000000000003,0.5705 -0.36480000000000007,0.8426000000000001 c-0.15660000000000002,0.30290000000000006 -0.3532,0.5851000000000001 -0.5964,0.8253 c-0.2741,0.2706 -0.6039000000000001,0.4697 -0.9873999999999999,0.6095 c-0.37500000000000006,0.1287 -0.7737,0.17940000000000003 -1.1689,0.1773 c-0.43470000000000003,-0.0020000000000000005 -0.8730000000000001,-0.06280000000000001 -1.2763,-0.2305 c-0.36830000000000007,-0.15300000000000002 -0.7017000000000001,-0.37490000000000007 -0.9697000000000001,-0.6718000000000002 c-0.22240000000000004,-0.24630000000000002 -0.40790000000000004,-0.5219 -0.5502,-0.8213 c-0.11200000000000002,-0.2361 -0.21280000000000002,-0.47730000000000006 -0.29900000000000004,-0.7098000000000001 l-1.6917000000000002,-4.408 l0.037000000000000005,6.6839 l-9.9913,0 l0,-4.2889 l-6.1098,0 l0,-4.4581 l6.1098,0 l0,-7.454 l5.0281,0 l0,2.1528 c0.05470000000000001,-0.25780000000000003 0.1423,-0.5081 0.2705,-0.7427000000000001 c0.21280000000000002,-0.38910000000000006 0.5006,-0.7200000000000001 0.8710000000000001,-0.9652000000000001 c0.29580000000000006,-0.19610000000000002 0.6161000000000001,-0.3471000000000001 0.9596000000000001,-0.4393000000000001 c0.2579,-0.06940000000000002 0.5223,-0.12210000000000001 0.7888000000000001,-0.14240000000000003 c0.16470000000000004,-0.012600000000000002 0.3344000000000001,-0.025300000000000007 0.49960000000000004,-0.020200000000000003 c0.46,0.0020000000000000005 0.9267000000000001,0.05720000000000001 1.3639000000000001,0.20520000000000002 c0.41040000000000004,0.1388 0.7889,0.3475000000000001 1.1081,0.6424000000000001 c0.269,0.24930000000000002 0.49650000000000005,0.5406000000000001 0.6754000000000001,0.8608000000000001 c0.14990000000000003,0.2691 0.2715,0.5513 0.38300000000000006,0.8386000000000001 l2.8003,7.2249 l2.7998000000000003,-7.2249 c0.16620000000000004,-0.4282 0.37340000000000007,-0.8522000000000001 0.6495000000000001,-1.2211 c0.2539,-0.3384000000000001 0.5614,-0.6379000000000001 0.9267000000000001,-0.8542000000000001 c0.3278000000000001,-0.19460000000000002 0.6815000000000001,-0.3273000000000001 1.0564,-0.39420000000000005 c0.30600000000000005,-0.05420000000000001 0.6166000000000001,-0.07900000000000001 0.9277000000000001,-0.07750000000000001 c0.5355,0.003000000000000001 1.0716,0.07800000000000001 1.5737,0.271 c0.5416000000000001,0.2083 1.0047,0.5462 1.3416000000000001,1.0199 c0.36380000000000007,0.5118 0.5163,1.1127 0.5163,1.7348000000000001 l0,7.4854 l3.4463,-8.2124 c0.18390000000000004,-0.4378000000000001 0.41700000000000004,-0.8704000000000001 0.7255,-1.2337 c0.3309000000000001,-0.38960000000000006 0.7408000000000001,-0.6805000000000001 1.2226,-0.8512000000000001 c0.4621,-0.16370000000000004 0.9581000000000001,-0.21790000000000004 1.4242,-0.21380000000000002 c0.48030000000000006,-0.005000000000000001 0.9667000000000001,0.05270000000000001 1.4207,0.21380000000000002 c0.4757,0.16870000000000004 0.8846000000000002,0.4545 1.219,0.8319000000000001 c0.3238000000000001,0.36580000000000007 0.5664,0.8041 0.7549000000000001,1.2530000000000001 l2.6615,6.3408 c-0.0020000000000000005,-0.1008 -0.0020000000000000005,-0.2021 -0.0020000000000000005,-0.30300000000000005 c0,-0.6100000000000001 0.0187,-1.2195 0.0704,-1.8275000000000001 c0.05420000000000001,-0.6439000000000001 0.16210000000000002,-1.2833 0.3329000000000001,-1.907 c0.18030000000000002,-0.6567000000000002 0.458,-1.2799 0.8289000000000001,-1.8514 c0.40480000000000005,-0.6247000000000001 0.9373,-1.1389 1.5579,-1.5473 c0.5660000000000001,-0.37190000000000006 1.1978,-0.6237000000000001 1.8519,-0.7914 c0.6987000000000002,-0.17890000000000003 1.4201000000000001,-0.2549 2.1406,-0.2549 l8.061,0 l0,2.1174 c0.010600000000000002,-0.036500000000000005 0.021200000000000004,-0.07200000000000001 0.032900000000000006,-0.10790000000000001 c0.1251,-0.38710000000000006 0.31870000000000004,-0.7484000000000001 0.5852,-1.0569 l0.04250000000000001,-0.046600000000000016 c0.265,-0.2767 0.5781000000000001,-0.5001 0.9343,-0.6435000000000001 c0.28780000000000006,-0.11600000000000002 0.5903,-0.19200000000000003 0.8993000000000001,-0.22600000000000003 c0.23770000000000002,-0.025800000000000003 0.47730000000000006,-0.04050000000000001 0.6962000000000002,-0.036500000000000005 l10.0481,0 l0,1.1902 c0.031900000000000005,-0.031900000000000005 0.06430000000000001,-0.06330000000000001 0.09720000000000004,-0.09430000000000002 c0.3289000000000001,-0.30750000000000005 0.7018000000000001,-0.5573 1.1177000000000001,-0.7306000000000001 c0.3471000000000001,-0.14440000000000003 0.7073,-0.2523 1.0802,-0.30390000000000006 c0.30200000000000005,-0.04210000000000001 0.6070000000000001,-0.06540000000000001 0.8953000000000001,-0.06140000000000001 l9.1426,0 l0,4.4977 l-8.3016,-0.0010000000000000002 c-0.061800000000000015,-0.0020000000000000005 -0.12460000000000002,0.0020000000000000005 -0.16970000000000005,0.004000000000000001 c-0.004000000000000001,0.038500000000000006 -0.008000000000000002,0.08050000000000002 -0.007000000000000002,0.11650000000000002 l0.0005,0.05980000000000001 c-0.001,0.06590000000000001 0.005000000000000001,0.1363 0.005000000000000001,0.15400000000000003 c0.010600000000000002,0.015200000000000003 0.030900000000000007,0.03350000000000001 0.044600000000000015,0.045600000000000016 c0.07900000000000001,0.07 0.30090000000000006,0.15050000000000002 0.38000000000000006,0.17740000000000003 l5.0351,1.5929000000000002 c0.4565,0.14440000000000003 0.913,0.31160000000000004 1.3437000000000001,0.5219 c0.39770000000000005,0.19400000000000003 0.7777000000000001,0.43570000000000003 1.0979,0.7427000000000001 c0.29690000000000005,0.28430000000000005 0.5422,0.6100000000000001 0.7311000000000001,0.9753 c0.16270000000000004,0.31420000000000003 0.28630000000000005,0.6465000000000001 0.37140000000000006,0.99 c0.07300000000000001,0.29340000000000005 0.12260000000000001,0.5918000000000001 0.14700000000000002,0.8933000000000001 c0.012600000000000002,0.15760000000000002 0.024300000000000006,0.31610000000000005 0.028800000000000003,0.4621 l4.1009,0 l0,-7.6551 c-0.003000000000000001,-0.24530000000000002 0.009000000000000003,-0.49100000000000005 0.03200000000000001,-0.7352000000000001 c0.031400000000000004,-0.3283000000000001 0.10990000000000001,-0.6495000000000001 0.233,-0.9556000000000001 c0.15050000000000002,-0.37290000000000006 0.38150000000000006,-0.7032 0.6972000000000002,-1.0133 c0.2619,-0.24120000000000003 0.5563,-0.4408000000000001 0.8851000000000001,-0.5801000000000001 c0.2751,-0.11600000000000002 0.5629000000000001,-0.19660000000000002 0.8826000000000002,-0.24570000000000003 c0.24220000000000003,-0.03250000000000001 0.48540000000000005,-0.05070000000000001 0.7083,-0.04670000000000001 l6.5157,0 c0.28980000000000006,-0.004000000000000001 0.5801000000000001,0.007000000000000002 0.8694000000000001,0.030400000000000007 c0.3536,0.029400000000000006 0.7012,0.09990000000000003 1.0402,0.20520000000000002 c0.39460000000000006,0.12210000000000001 0.7660000000000001,0.30660000000000004 1.1014,0.5482 c0.38000000000000006,0.2736 0.6977000000000002,0.6212000000000001 0.9601000000000001,1.0078 c0.2078,0.30600000000000005 0.38110000000000005,0.6328000000000001 0.5133,0.9768 zm-32.7525,1.7293 l-7.1864,-0.0005 l0,1.2073 l7.2589,0 c-0.009000000000000003,-0.06430000000000001 -0.016700000000000003,-0.1287 -0.023300000000000008,-0.19300000000000003 c-0.03300000000000001,-0.3278000000000001 -0.05320000000000001,-0.6582000000000001 -0.04870000000000001,-0.9556000000000001 c-0.0005,-0.019200000000000002 -0.0005,-0.03900000000000001 -0.0005,-0.05820000000000001 zm0.9769,3.4012000000000002 l0,2.3027 l-8.1633,0 l0,1.5018 l16.2121,0 c0.020700000000000003,0 0.04960000000000001,-0.0005 0.05970000000000001,0.014700000000000003 c0.0020000000000000005,-0.009000000000000003 0.003000000000000001,-0.017800000000000003 0.005000000000000001,-0.027400000000000008 c0.010100000000000001,-0.07550000000000001 0.020300000000000006,-0.15860000000000002 0.0182,-0.2351 l0,-0.05720000000000001 c0.0010000000000000002,-0.05120000000000001 -0.005000000000000001,-0.1019 -0.013100000000000002,-0.13840000000000002 c-0.013700000000000004,-0.015700000000000002 -0.04160000000000001,-0.03490000000000001 -0.08160000000000002,-0.061800000000000015 c-0.1044,-0.0714 -0.2736,-0.1302 -0.39270000000000005,-0.16770000000000004 l-5.4015,-1.7024 c-0.12260000000000001,-0.033400000000000006 -0.24420000000000003,-0.07900000000000001 -0.3622,-0.12360000000000002 c-0.18800000000000003,-0.0714 -0.37090000000000006,-0.15400000000000003 -0.5492,-0.24620000000000003 c-0.22650000000000003,-0.11710000000000002 -0.4408000000000001,-0.2574 -0.6460000000000001,-0.40790000000000004 c-0.2508,-0.18340000000000004 -0.47530000000000006,-0.39820000000000005 -0.6734000000000001,-0.6374000000000001 c-0.004000000000000001,-0.005000000000000001 -0.008000000000000002,-0.010000000000000002 -0.011600000000000003,-0.014100000000000001 zm-13.1919,-3.4012000000000002 l-7.1829,0 c-0.4449000000000001,0 -0.9394,0.05770000000000001 -1.3427,0.2589 c-0.2796,0.1393 -0.48940000000000006,0.3283000000000001 -0.6530000000000001,0.6277000000000001 c-0.05980000000000001,0.1034 -0.11200000000000002,0.2665 -0.14900000000000002,0.37950000000000006 c-0.08660000000000002,0.269 -0.1368,0.5796000000000001 -0.1763,0.8588000000000001 c-0.06840000000000002,0.48230000000000006 -0.08260000000000002,0.991 -0.08260000000000002,1.4779 c0,0.49960000000000004 0.017200000000000003,1.0143 0.08360000000000002,1.5093 c0.03900000000000001,0.28930000000000006 0.08710000000000002,0.6126000000000001 0.1733,0.8913000000000001 c0.037500000000000006,0.12110000000000001 0.08970000000000003,0.29690000000000005 0.16360000000000002,0.43570000000000003 c0.08570000000000003,0.17020000000000002 0.20270000000000002,0.3486000000000001 0.3547,0.4671 c0.1327,0.1039 0.2807,0.1768 0.4443000000000001,0.21790000000000004 c0.24070000000000003,0.05980000000000001 0.49100000000000005,0.08410000000000002 0.7509000000000001,0.08160000000000002 l3.0526,0.0005 l0,-4.6816 l4.5635,0 l0,-2.5246 zm35.5573,2.8849 c0.4489000000000001,-0.3557 1.0073,-0.49810000000000004 1.5772,-0.49810000000000004 l2.6205,0 c0.09270000000000003,0.0020000000000000005 0.18850000000000003,-0.008000000000000002 0.2802,-0.021800000000000003 c0.031900000000000005,-0.005000000000000001 0.05980000000000001,-0.013100000000000002 0.08710000000000002,-0.0359 c0.006000000000000002,-0.016200000000000003 0.010000000000000002,-0.029400000000000006 0.009000000000000003,-0.026900000000000007 c0.030900000000000007,-0.1297 0.05530000000000001,-0.2609 0.06940000000000002,-0.3693000000000001 c0.0158,-0.14700000000000002 0.030400000000000007,-0.29540000000000005 0.036500000000000005,-0.44290000000000007 c0.005000000000000001,-0.1261 0.010000000000000002,-0.2528 0.009000000000000003,-0.37840000000000007 c-0.0010000000000000002,-0.2665 -0.011100000000000002,-0.6521000000000001 -0.08910000000000003,-0.909 c-0.014700000000000003,-0.04860000000000001 -0.04060000000000001,-0.1307 -0.047700000000000006,-0.14590000000000003 c-0.0719,-0.024300000000000006 -0.14540000000000003,-0.04200000000000001 -0.19450000000000003,-0.046100000000000016 c-0.12360000000000002,-0.007000000000000002 -0.2503,-0.013700000000000004 -0.40030000000000004,-0.010600000000000002 l-3.9575,-0.0005 l0,2.8854 zm-106.026,-6.5278 l0,-0.8548000000000001 l15.788,0 l0,4.4977 l-5.3898,0 l0,11.7033 l-5.0281,0 l0,-11.7033 l-3.6353,0 c0.022800000000000004,0.3379000000000001 0.03200000000000001,0.6758000000000002 0.028900000000000006,0.995 c0.004000000000000001,0.37190000000000006 -0.008000000000000002,0.7433000000000001 -0.031900000000000005,1.1142 c-0.027900000000000008,0.42200000000000004 -0.09680000000000002,0.8410000000000001 -0.19510000000000002,1.2524 c-0.10990000000000001,0.4601 -0.2832,0.9029 -0.49190000000000006,1.2976 c-0.17790000000000003,0.3552 -0.41550000000000004,0.6733000000000001 -0.6891000000000002,0.9601000000000001 c-0.3455000000000001,0.36180000000000007 -0.7752,0.6252000000000001 -1.2352,0.8152 c-0.21180000000000002,0.08770000000000003 -0.43270000000000003,0.15300000000000002 -0.6592000000000001,0.20070000000000002 l5.4582,5.0681 l-6.8611,0 l-4.8792,-4.8158 c-0.0734,-0.07300000000000001 -0.1438,-0.14900000000000002 -0.21120000000000003,-0.22750000000000004 l0,5.0433 l-5.0281,0 l0,-4.1911 c-0.1044,0.3395000000000001 -0.2316,0.6713000000000001 -0.38250000000000006,0.993 c-0.2721,0.5812 -0.6354000000000001,1.1076 -1.0954,1.5554999999999999 c-0.4727,0.4595 -1.0215,0.8233 -1.6249000000000002,1.0858 c-0.5517000000000001,0.2396 -1.1293,0.40930000000000005 -1.7216,0.5127 c-0.5351,0.09320000000000003 -1.0762,0.15550000000000003 -1.6188000000000002,0.1778 c-0.457,0.0188 -0.9135,0.023800000000000005 -1.3705,0.023800000000000005 c-0.4616,0 -0.9226000000000001,-0.005000000000000001 -1.3842,-0.023800000000000005 c-0.5411,-0.022300000000000007 -1.0802,-0.08410000000000002 -1.6132,-0.1778 c-0.5898000000000001,-0.1039 -1.1638,-0.2741 -1.7125,-0.5138 c-0.5974,-0.2614 -1.1364,-0.6242000000000001 -1.6304,-1.0893 c-0.48900000000000005,-0.48080000000000006 -0.8877000000000002,-1.0376 -1.174,-1.6613000000000002 c-0.2594,-0.5649000000000001 -0.4489000000000001,-1.1582000000000001 -0.5624,-1.7693 c-0.1023,-0.5472 -0.16820000000000004,-1.1014 -0.19300000000000003,-1.6572 c-0.0005,-0.010200000000000002 -0.001,-0.020800000000000003 -0.0010000000000000002,-0.031000000000000007 c-0.21590000000000004,0.3527 -0.48640000000000005,0.6688000000000002 -0.8249000000000001,0.9531000000000001 c-0.39570000000000005,0.31610000000000005 -0.8461000000000001,0.5411 -1.3274000000000001,0.6961000000000002 c-0.49800000000000005,0.16010000000000002 -1.0133,0.23920000000000002 -1.5362,0.23920000000000002 l-5.2358,0 l0,4.8776 l-5.0281,0 l0,-1.8696000000000002 c-0.08510000000000002,0.14340000000000003 -0.17880000000000001,0.2817 -0.2817,0.41440000000000005 c-0.30750000000000005,0.3978000000000001 -0.6845000000000001,0.7393000000000001 -1.1298,0.9773999999999999 c-0.38410000000000005,0.20520000000000002 -0.795,0.3425000000000001 -1.2262,0.40580000000000005 c-0.35710000000000003,0.05220000000000001 -0.7184,0.07600000000000001 -1.065,0.07200000000000001 l-9.6736,0 l0,-4.4976 l8.8478,0 c0.020800000000000003,0 0.04910000000000001,-0.0005 0.05980000000000001,0.014700000000000003 c0.0020000000000000005,-0.009000000000000003 0.004000000000000001,-0.017800000000000003 0.005000000000000001,-0.027400000000000008 c0.010200000000000002,-0.07550000000000001 0.020300000000000006,-0.15860000000000002 0.018300000000000004,-0.2351 l0,-0.05720000000000001 c0.0010000000000000002,-0.05120000000000001 -0.005000000000000001,-0.1019 -0.013200000000000003,-0.13840000000000002 c-0.013700000000000004,-0.015700000000000002 -0.04150000000000001,-0.03490000000000001 -0.08160000000000002,-0.061800000000000015 c-0.1043,-0.0714 -0.2731,-0.1302 -0.39210000000000006,-0.16770000000000004 l-5.4015,-1.7024 c-0.12310000000000001,-0.033400000000000006 -0.24470000000000003,-0.07900000000000001 -0.36280000000000007,-0.12360000000000002 c-0.18740000000000004,-0.0714 -0.37090000000000006,-0.15450000000000003 -0.5487000000000001,-0.24620000000000003 c-0.22700000000000004,-0.11710000000000002 -0.4413000000000001,-0.2574 -0.6475000000000001,-0.40840000000000004 c-0.2503,-0.18340000000000004 -0.4752,-0.39820000000000005 -0.6728000000000002,-0.6374000000000001 c-0.30150000000000005,-0.3642 -0.5275,-0.7767000000000001 -0.6780000000000002,-1.2246000000000001 c-0.1281,-0.38100000000000006 -0.21980000000000002,-0.7751 -0.2609,-1.1754 c-0.032900000000000006,-0.3273000000000001 -0.05220000000000001,-0.6571000000000001 -0.04860000000000001,-0.9591000000000001 c-0.004000000000000001,-0.3471000000000001 0.021800000000000003,-0.6941000000000002 0.06640000000000001,-1.0387 c0.05470000000000001,-0.41900000000000004 0.17170000000000002,-0.8258000000000001 0.3399000000000001,-1.2129 c0.20070000000000002,-0.4611 0.49710000000000004,-0.8623000000000001 0.8634000000000001,-1.2053 c0.3288000000000001,-0.30810000000000004 0.7022,-0.5579000000000001 1.1182,-0.7312000000000001 c0.3475000000000001,-0.14440000000000003 0.7073,-0.2523 1.0807,-0.30390000000000006 c0.30140000000000006,-0.04210000000000001 0.6064,-0.06540000000000001 0.8947000000000002,-0.06140000000000001 l9.1427,0 l0,4.4977 l-8.3021,-0.0010000000000000002 c-0.061300000000000014,-0.0020000000000000005 -0.12420000000000002,0.0020000000000000005 -0.16930000000000003,0.004000000000000001 c-0.004000000000000001,0.038500000000000006 -0.008000000000000002,0.08050000000000002 -0.007000000000000002,0.11650000000000002 l0.0005,0.05980000000000001 c-0.0010000000000000002,0.06640000000000001 0.005000000000000001,0.1363 0.005000000000000001,0.15450000000000003 c0.010700000000000003,0.014700000000000003 0.030400000000000007,0.03300000000000001 0.044100000000000014,0.044600000000000015 c0.07960000000000002,0.07100000000000001 0.30000000000000004,0.15050000000000002 0.38050000000000006,0.17790000000000003 l5.0352,1.5929000000000002 c0.4565,0.14440000000000003 0.9125,0.31160000000000004 1.3431000000000002,0.5219 c0.3978000000000001,0.19400000000000003 0.7788,0.43620000000000003 1.0985,0.7432000000000001 c0.24120000000000003,0.2311 0.4484000000000001,0.48950000000000005 0.6191000000000001,0.7742 l0,-5.3787 c-0.005000000000000001,-0.21130000000000002 0.003000000000000001,-0.42250000000000004 0.020800000000000003,-0.6632000000000001 c0.028400000000000005,-0.29340000000000005 0.09680000000000002,-0.5801000000000001 0.19710000000000003,-0.8309000000000001 c0.1312,-0.3476000000000001 0.3420000000000001,-0.6526000000000002 0.6181000000000001,-0.9338000000000001 c0.2538,-0.24880000000000002 0.5447000000000001,-0.4479000000000001 0.8720000000000001,-0.5877000000000001 c0.2725,-0.11660000000000002 0.5553,-0.20120000000000002 0.8491000000000001,-0.24320000000000003 c0.2341,-0.03350000000000001 0.4707,-0.05220000000000001 0.6840000000000002,-0.04820000000000001 l6.5182,0.0006 c0.3263000000000001,-0.009000000000000003 0.6536000000000002,0.006000000000000002 0.9788,0.032900000000000006 c0.4348000000000001,0.036500000000000005 0.8598000000000001,0.1373 1.2702,0.2822 c0.5133,0.18090000000000003 0.9698000000000001,0.4737 1.3609,0.8502000000000001 c0.3415000000000001,0.3293000000000001 0.6141000000000001,0.7118000000000001 0.8163,1.1405 c0.18130000000000002,0.38350000000000006 0.31710000000000005,0.7843 0.40480000000000005,1.1992 c0.003000000000000001,0.015200000000000003 0.007000000000000002,0.030900000000000007 0.010000000000000002,0.046100000000000016 c0.05070000000000001,-0.12160000000000001 0.10490000000000001,-0.24170000000000003 0.16210000000000002,-0.3602 c0.28380000000000005,-0.5857000000000001 0.6643000000000001,-1.1116 1.137,-1.5594999999999999 c0.4747,-0.4499000000000001 1.0189,-0.8132 1.6188000000000002,-1.0746 c0.5436000000000001,-0.2371 1.1121,-0.41190000000000004 1.6968,-0.5158 c0.5319,-0.09480000000000002 1.071,-0.15250000000000002 1.6111,-0.1748 c0.4656,-0.019300000000000005 0.9313,-0.023800000000000005 1.3974000000000002,-0.023800000000000005 c0.4621,0 0.9231,0.005000000000000001 1.3847,0.023800000000000005 c0.5421,0.022300000000000007 1.0817,0.08060000000000002 1.6157000000000001,0.1743 c0.5872,0.1033 1.1582000000000001,0.2781 1.7049,0.5148 c0.6035,0.2614 1.1476,0.6257000000000001 1.6229,1.0796000000000001 c0.4686,0.4484000000000001 0.8380000000000001,0.9759 1.1131,1.5626000000000002 c0.14640000000000003,0.31210000000000004 0.2705,0.6338000000000001 0.37240000000000006,0.9626000000000001 l0,-0.5811000000000001 c-0.004000000000000001,-0.24570000000000003 0.008000000000000002,-0.49200000000000005 0.031400000000000004,-0.7367000000000001 c0.030900000000000007,-0.3283000000000001 0.10940000000000001,-0.6500000000000001 0.2326,-0.9561000000000001 c0.15040000000000003,-0.37390000000000007 0.38250000000000006,-0.7052 0.6981000000000002,-1.0143 c0.262,-0.24120000000000003 0.5563,-0.4408000000000001 0.8852000000000001,-0.5801000000000001 c0.2751,-0.11600000000000002 0.5629000000000001,-0.19660000000000002 0.8826000000000002,-0.24570000000000003 c0.2416,-0.03250000000000001 0.48530000000000006,-0.05070000000000001 0.7083,-0.04670000000000001 l6.5156,0 c0.28980000000000006,-0.004000000000000001 0.5801000000000001,0.007000000000000002 0.8694000000000001,0.030400000000000007 c0.3532,0.029400000000000006 0.7007000000000001,0.09990000000000003 1.0397,0.20520000000000002 c0.39470000000000005,0.12210000000000001 0.7661000000000001,0.30610000000000004 1.1015,0.5477000000000001 c0.032400000000000005,0.023300000000000008 0.06430000000000001,0.047200000000000006 0.09570000000000004,0.07150000000000001 zm-8.032,6.5278 c0.4489000000000001,-0.3557 1.0067,-0.49810000000000004 1.5767000000000002,-0.49810000000000004 l2.6209000000000002,0 c0.09280000000000002,0.0020000000000000005 0.18850000000000003,-0.008000000000000002 0.2802,-0.021800000000000003 c0.03900000000000001,-0.006000000000000002 0.06440000000000001,-0.004000000000000001 0.08210000000000002,-0.0182 c0.012700000000000003,-0.024300000000000006 0.014700000000000003,-0.04910000000000001 0.014700000000000003,-0.04810000000000001 c0.029900000000000006,-0.1252 0.05470000000000001,-0.2518 0.06990000000000002,-0.37950000000000006 c0.016700000000000003,-0.14340000000000003 0.028900000000000006,-0.28730000000000006 0.035,-0.4312 c0.005000000000000001,-0.1256 0.010000000000000002,-0.2518 0.009000000000000003,-0.37740000000000007 c-0.0010000000000000002,-0.2665 -0.010600000000000002,-0.6506000000000002 -0.08920000000000003,-0.908 c-0.014700000000000003,-0.04860000000000001 -0.04050000000000001,-0.1307 -0.04710000000000001,-0.14590000000000003 c-0.07250000000000001,-0.024300000000000006 -0.14590000000000003,-0.04200000000000001 -0.19510000000000002,-0.046100000000000016 c-0.12410000000000002,-0.007000000000000002 -0.2503,-0.013700000000000004 -0.4002,-0.010600000000000002 l-3.957,-0.0005 l0,2.8854 zm-30.0373,-0.5568000000000001 l3.7407000000000004,0 c0.15850000000000003,0.0020000000000000005 0.31760000000000005,-0.004000000000000001 0.4762,-0.016300000000000005 c0.08560000000000002,-0.007000000000000002 0.16970000000000005,-0.023800000000000005 0.24780000000000002,-0.05370000000000001 c0.012600000000000002,-0.006000000000000002 0.030900000000000007,-0.024300000000000006 0.026800000000000004,-0.019200000000000002 c0.023800000000000005,-0.029400000000000006 0.045100000000000015,-0.09320000000000003 0.05530000000000001,-0.1277 c0.04100000000000001,-0.1408 0.06890000000000002,-0.2852 0.08050000000000002,-0.4529 c0.014200000000000003,-0.16420000000000004 0.024800000000000003,-0.3319000000000001 0.022300000000000007,-0.5285 c0.0020000000000000005,-0.1753 -0.007000000000000002,-0.3511 -0.023800000000000005,-0.5254 c-0.014200000000000003,-0.14340000000000003 -0.043600000000000014,-0.2827 -0.08770000000000003,-0.41950000000000004 c-0.009000000000000003,-0.027900000000000008 -0.019700000000000002,-0.05370000000000001 -0.0359,-0.07700000000000001 c-0.014700000000000003,-0.012200000000000003 -0.027400000000000008,-0.020300000000000006 -0.03350000000000001,-0.022800000000000004 c-0.10590000000000001,-0.035 -0.21530000000000002,-0.060800000000000014 -0.29890000000000005,-0.06990000000000002 c-0.1272,-0.010700000000000003 -0.2569,-0.018300000000000004 -0.40940000000000004,-0.015200000000000003 l-3.7604,0 l0,2.3281 zm14.0056,1.2722 c0.0010000000000000002,0.5538000000000001 0.019200000000000002,1.1344 0.1038,1.6831 c0.047700000000000006,0.30800000000000005 0.11500000000000002,0.6566000000000002 0.2331,0.9469000000000001 c0.05880000000000001,0.14440000000000003 0.1393,0.3218000000000001 0.2386,0.4444000000000001 c0.13840000000000002,0.17120000000000002 0.30400000000000005,0.32370000000000004 0.5072,0.41440000000000005 c0.266,0.11860000000000002 0.5538000000000001,0.18450000000000003 0.8431000000000001,0.21590000000000004 c0.40780000000000005,0.044600000000000015 0.8182,0.06380000000000001 1.2595,0.05870000000000001 c0.40890000000000004,0.005000000000000001 0.8168000000000001,-0.014700000000000003 1.2231,-0.05870000000000001 c0.29490000000000005,-0.03200000000000001 0.5867000000000001,-0.09930000000000003 0.8583000000000001,-0.21890000000000004 c0.20870000000000002,-0.09170000000000003 0.38000000000000006,-0.24370000000000003 0.5234,-0.41850000000000004 c0.09570000000000004,-0.11650000000000002 0.1748,-0.29290000000000005 0.22950000000000004,-0.4312 c0.11900000000000002,-0.29940000000000005 0.18850000000000003,-0.6450000000000001 0.2371,-0.9621000000000001 c0.08360000000000002,-0.5462 0.1039,-1.1197 0.1039,-1.6715 c0,-0.4636 -0.014200000000000003,-0.9358000000000001 -0.06490000000000001,-1.3968 c-0.033400000000000006,-0.29800000000000004 -0.07400000000000001,-0.6182000000000001 -0.15250000000000002,-0.908 c-0.044100000000000014,-0.16310000000000002 -0.1003,-0.3501 -0.17830000000000001,-0.5006 c-0.04870000000000001,-0.09370000000000003 -0.10640000000000001,-0.19500000000000003 -0.1738,-0.2771 c-0.14040000000000002,-0.17070000000000002 -0.30500000000000005,-0.30500000000000005 -0.5087,-0.39220000000000005 c-0.2837,-0.12100000000000001 -0.5827000000000001,-0.19250000000000003 -0.8887000000000002,-0.22800000000000004 c-0.40080000000000005,-0.046600000000000016 -0.8051,-0.06330000000000001 -1.2393,-0.05770000000000001 c-0.40680000000000005,-0.005000000000000001 -0.8152,0.010100000000000001 -1.219,0.05770000000000001 c-0.29540000000000005,0.03450000000000001 -0.5882000000000001,0.1044 -0.8613000000000001,0.22400000000000003 c-0.20170000000000002,0.08810000000000003 -0.36380000000000007,0.22340000000000004 -0.5026,0.39320000000000005 c-0.11300000000000002,0.1383 -0.19810000000000003,0.32570000000000005 -0.2609,0.49140000000000006 c-0.11460000000000002,0.30050000000000004 -0.17690000000000003,0.6556000000000002 -0.22040000000000004,0.9728 c-0.07300000000000001,0.5315 -0.09120000000000003,1.0827 -0.09020000000000003,1.6188000000000002 zm72.9421,0.3410000000000001 l1.6933000000000002,0 l-0.8426000000000001,-2.1077 l-0.8507000000000001,2.1077 z" class=""/><path id="path8" style="fill:#0060ab;fill-rule:evenodd" d="m2.945508300781256,127.58450439453122 l8.4576,0 c0.30200000000000005,0.004000000000000001 0.5999000000000001,-0.016700000000000003 0.8887000000000002,-0.05930000000000001 c0.28880000000000006,-0.04200000000000001 0.5639000000000001,-0.1337 0.8294,-0.2751 c0.2625,-0.14090000000000003 0.5118,-0.3572 0.7413000000000001,-0.6490000000000001 c0.18640000000000004,-0.24580000000000002 0.3308000000000001,-0.5082 0.43220000000000003,-0.7935 c0.09880000000000003,-0.2852 0.16770000000000004,-0.5765 0.2036,-0.8785000000000001 c0.036000000000000004,-0.29790000000000005 0.05580000000000001,-0.5933 0.05270000000000001,-0.8851000000000001 c0.003000000000000001,-0.16420000000000004 -0.007000000000000002,-0.3572 -0.026800000000000004,-0.5766000000000001 c-0.016200000000000003,-0.22350000000000003 -0.05530000000000001,-0.456 -0.11450000000000002,-0.6987000000000002 c-0.06240000000000001,-0.24570000000000003 -0.15100000000000002,-0.48840000000000006 -0.2721,-0.7245 c-0.12470000000000002,-0.23920000000000002 -0.28530000000000005,-0.456 -0.49200000000000005,-0.6556000000000002 c-0.2031,-0.19360000000000002 -0.4686,-0.37040000000000006 -0.7899,-0.528 c-0.32470000000000004,-0.15760000000000002 -0.7143,-0.31160000000000004 -1.1769,-0.4555 l-5.0352,-1.5929000000000002 c-0.36430000000000007,-0.12160000000000001 -0.6359000000000001,-0.2625 -0.8198000000000001,-0.42660000000000003 c-0.18690000000000004,-0.16420000000000004 -0.31160000000000004,-0.3405000000000001 -0.37390000000000007,-0.5345 c-0.062300000000000015,-0.19000000000000003 -0.08820000000000003,-0.39020000000000005 -0.08510000000000002,-0.5933 c-0.003000000000000001,-0.08870000000000003 0.004000000000000001,-0.19360000000000002 0.016200000000000003,-0.31820000000000004 c0.013200000000000003,-0.1277 0.046100000000000016,-0.2554 0.09880000000000003,-0.38660000000000005 c0.04910000000000001,-0.1312 0.1307,-0.24930000000000002 0.2391,-0.3572 c0.16070000000000004,-0.14440000000000003 0.3339000000000001,-0.2325 0.5244,-0.269 c0.19000000000000003,-0.036000000000000004 0.37700000000000006,-0.05220000000000001 0.5574,-0.045600000000000016 l7.0415,0 l0,-2.0657 l-7.9267,0 c-0.22590000000000005,-0.003000000000000001 -0.4686,0.013700000000000004 -0.7275,0.04970000000000001 c-0.2594,0.036000000000000004 -0.5183,0.11090000000000001 -0.7808,0.22240000000000004 c-0.2655,0.10840000000000001 -0.5148,0.2751 -0.7539000000000001,0.49550000000000005 c-0.2584,0.24570000000000003 -0.4519,0.5112 -0.5796000000000001,0.8031 c-0.12470000000000002,0.28830000000000006 -0.21030000000000001,0.5831000000000001 -0.24930000000000002,0.8851000000000001 c-0.03950000000000001,0.30150000000000005 -0.05930000000000001,0.5898000000000001 -0.05620000000000001,0.8684000000000001 c-0.003000000000000001,0.2594 0.013100000000000002,0.5411 0.04250000000000001,0.8492000000000001 c0.03300000000000001,0.30450000000000005 0.1019,0.6100000000000001 0.20370000000000002,0.9115 c0.1018,0.30500000000000005 0.2559,0.5836000000000001 0.4621,0.8365 c0.1408,0.16660000000000003 0.29180000000000006,0.31100000000000005 0.4555,0.43210000000000004 c0.16720000000000004,0.12160000000000001 0.3278000000000001,0.22600000000000003 0.48530000000000006,0.30810000000000004 c0.16060000000000002,0.08210000000000002 0.30200000000000005,0.14390000000000003 0.42310000000000003,0.19000000000000003 c0.12160000000000001,0.046100000000000016 0.21280000000000002,0.07850000000000001 0.2685,0.09220000000000003 l5.4294,1.711 c0.29790000000000005,0.09520000000000003 0.537,0.2031 0.7144,0.32470000000000004 c0.17980000000000002,0.11760000000000002 0.31460000000000005,0.24930000000000002 0.40330000000000005,0.38710000000000006 c0.09170000000000003,0.1373 0.15050000000000002,0.2751 0.17980000000000002,0.41900000000000004 c0.029900000000000006,0.14490000000000003 0.04260000000000001,0.28530000000000005 0.03960000000000001,0.42360000000000003 c0.003000000000000001,0.12110000000000001 -0.006000000000000002,0.265 -0.029400000000000006,0.43270000000000003 c-0.019300000000000005,0.16720000000000004 -0.07200000000000001,0.3308000000000001 -0.15410000000000001,0.49150000000000005 c-0.08200000000000002,0.16060000000000002 -0.21330000000000002,0.29480000000000006 -0.39010000000000006,0.40330000000000005 c-0.1738,0.10790000000000001 -0.41650000000000004,0.16410000000000002 -0.7245,0.16660000000000003 l-7.6318,0 l0,2.0657 zm15.9724,0 l0,-4.8776 l6.4518,0 c0.40990000000000004,-0.004000000000000001 0.7965,-0.06280000000000001 1.1638,-0.18090000000000003 c0.36680000000000007,-0.11800000000000002 0.6784000000000001,-0.2787 0.9409000000000001,-0.48840000000000006 c0.2685,-0.22600000000000003 0.48180000000000006,-0.49450000000000005 0.6424000000000001,-0.8066000000000001 c0.16420000000000004,-0.31110000000000004 0.2822,-0.6425000000000001 0.36430000000000007,-0.9931 c0.07850000000000001,-0.3506 0.1307,-0.6986000000000002 0.15710000000000002,-1.0391 c0.025800000000000003,-0.3415000000000001 0.03950000000000001,-0.6526000000000002 0.0359,-0.9378000000000001 c0.004000000000000001,-0.29140000000000005 -0.007000000000000002,-0.6035 -0.029300000000000007,-0.9277000000000001 c-0.023400000000000008,-0.3273000000000001 -0.06900000000000002,-0.6521000000000001 -0.13790000000000002,-0.9769 c-0.06890000000000002,-0.3278000000000001 -0.17370000000000002,-0.6358000000000001 -0.31460000000000005,-0.9312 c-0.1378,-0.29490000000000005 -0.3248000000000001,-0.5538000000000001 -0.5604,-0.7838 c-0.2852,-0.2716 -0.5933,-0.4651 -0.9216000000000001,-0.5796000000000001 c-0.3308000000000001,-0.11810000000000002 -0.6520000000000001,-0.19000000000000003 -0.9667000000000001,-0.21690000000000004 c-0.31820000000000004,-0.025800000000000003 -0.5968000000000001,-0.036000000000000004 -0.8461000000000001,-0.029400000000000006 l-6.5501000000000005,0 c-0.16060000000000002,-0.003000000000000001 -0.3313000000000001,0.010200000000000002 -0.5112,0.036000000000000004 c-0.18390000000000004,0.026300000000000007 -0.36380000000000007,0.07900000000000001 -0.5447000000000001,0.15760000000000002 c-0.17980000000000002,0.07550000000000001 -0.3440000000000001,0.18690000000000004 -0.49800000000000005,0.3379000000000001 c-0.15400000000000003,0.15710000000000002 -0.266,0.32120000000000004 -0.3314000000000001,0.49450000000000005 c-0.06840000000000002,0.1708 -0.10790000000000001,0.3445000000000001 -0.12460000000000002,0.5183 c-0.012700000000000003,0.1768 -0.019300000000000005,0.3506 -0.015700000000000002,0.5214 l0,11.7033 l2.5961,0 zm0,-6.9433 l0,-3.9342 c-0.004000000000000001,-0.12110000000000001 0.004000000000000001,-0.2356 0.022800000000000004,-0.3470000000000001 c0.016700000000000003,-0.11200000000000002 0.06940000000000002,-0.21330000000000002 0.15450000000000003,-0.30200000000000005 c0.1014,-0.09470000000000003 0.20270000000000002,-0.14740000000000003 0.31110000000000004,-0.16420000000000004 c0.10850000000000001,-0.012600000000000002 0.2068,-0.019200000000000002 0.29850000000000004,-0.012600000000000002 l4.1895,0 c0.14750000000000002,-0.003000000000000001 0.31820000000000004,0.003000000000000001 0.5112,0.019200000000000002 c0.19000000000000003,0.020300000000000006 0.38410000000000005,0.06290000000000001 0.5807000000000001,0.1282 c0.19350000000000003,0.06890000000000002 0.36730000000000007,0.1768 0.5213,0.3248000000000001 c0.14390000000000003,0.15400000000000003 0.24930000000000002,0.3369000000000001 0.32120000000000004,0.5538000000000001 c0.06840000000000002,0.21630000000000002 0.11810000000000002,0.43920000000000003 0.14090000000000003,0.6753000000000001 c0.023300000000000008,0.2326 0.032400000000000005,0.4525 0.029900000000000006,0.6592000000000001 c0.0020000000000000005,0.17990000000000003 -0.007000000000000002,0.38660000000000005 -0.026900000000000007,0.6191000000000001 c-0.016200000000000003,0.2331 -0.05870000000000001,0.4626 -0.12460000000000002,0.6886000000000002 c-0.06540000000000001,0.22340000000000004 -0.16370000000000004,0.42000000000000004 -0.30150000000000005,0.5806000000000001 c-0.15040000000000003,0.16720000000000004 -0.32420000000000004,0.28830000000000006 -0.5112,0.36030000000000006 c-0.19050000000000003,0.0724 -0.38710000000000006,0.11500000000000002 -0.5872,0.1307 c-0.20320000000000002,0.016700000000000003 -0.3998000000000001,0.023300000000000008 -0.5928000000000001,0.020200000000000003 l-4.9374,0 zm18.4115,-6.9827 c-0.42260000000000003,-0.004000000000000001 -0.8684000000000001,0.003000000000000001 -1.3472,0.022800000000000004 c-0.47580000000000006,0.019700000000000002 -0.9611000000000001,0.0724 -1.4491,0.15700000000000003 c-0.48840000000000006,0.08870000000000003 -0.9636000000000001,0.2331 -1.4232,0.43320000000000003 c-0.4585,0.20020000000000002 -0.8815000000000001,0.48190000000000005 -1.2681,0.8426000000000001 c-0.37090000000000006,0.3572 -0.6627000000000002,0.7605000000000001 -0.8786000000000002,1.2063 c-0.21680000000000002,0.4489000000000001 -0.37740000000000007,0.9212 -0.47880000000000006,1.4162 c-0.1018,0.49850000000000005 -0.16720000000000004,0.9961 -0.19710000000000003,1.5017 c-0.029300000000000007,0.5046 -0.04250000000000001,0.9894999999999999 -0.03950000000000001,1.4617 c-0.003000000000000001,0.39370000000000005 0.004000000000000001,0.8294 0.026900000000000007,1.3117 c0.019200000000000002,0.48190000000000005 0.07850000000000001,0.9799 0.1733,1.4881 c0.09520000000000003,0.5112 0.2523,1.0067 0.4722,1.485 c0.21930000000000002,0.47880000000000006 0.5279,0.9145 0.9216000000000001,1.3016 c0.38300000000000006,0.36030000000000006 0.8061,0.6389000000000001 1.2651,0.8421000000000001 c0.4626,0.2001 0.9409000000000001,0.3450000000000001 1.4354,0.4302 c0.49190000000000006,0.08810000000000003 0.9773,0.1408 1.4526,0.16060000000000002 c0.4787,0.019200000000000002 0.9211,0.025800000000000003 1.3345,0.022800000000000004 c0.40330000000000005,0.003000000000000001 0.8426000000000001,-0.004000000000000001 1.3209,-0.022800000000000004 c0.4752,-0.0198 0.9641000000000001,-0.07250000000000001 1.4591,-0.16060000000000002 c0.49810000000000004,-0.08520000000000003 0.9799,-0.2301 1.4460000000000002,-0.4302 c0.4616,-0.20320000000000002 0.8852000000000001,-0.48180000000000006 1.2616,-0.8421000000000001 c0.3511,-0.3475000000000001 0.6333000000000001,-0.7473000000000001 0.8426000000000001,-1.1997 c0.21330000000000002,-0.4494000000000001 0.37040000000000006,-0.9282 0.4752,-1.4329 c0.10540000000000001,-0.5016 0.1738,-1.0062 0.20980000000000001,-1.5108000000000001 c0.032900000000000006,-0.5052 0.04960000000000001,-0.987 0.046100000000000016,-1.443 c0.004000000000000001,-0.4555 -0.010100000000000001,-0.9373 -0.04260000000000001,-1.4424000000000001 c-0.032900000000000006,-0.5047 -0.1013,-1.0093 -0.20670000000000002,-1.5145 c-0.1013,-0.5015 -0.2619,-0.9798 -0.4717,-1.4292 c-0.21330000000000002,-0.4525 -0.49550000000000005,-0.8527000000000001 -0.8527000000000001,-1.1998 c-0.38300000000000006,-0.3607 -0.803,-0.6424000000000001 -1.2651,-0.8426000000000001 c-0.4626,-0.2001 -0.9409000000000001,-0.3445000000000001 -1.4323000000000001,-0.43320000000000003 c-0.49550000000000005,-0.08460000000000002 -0.9803999999999999,-0.1373 -1.4557,-0.15700000000000003 c-0.47880000000000006,-0.0198 -0.9216000000000001,-0.026400000000000007 -1.3345,-0.022800000000000004 zm-4.4059,7.0415 c0,-0.6982000000000002 0.032400000000000005,-1.2945 0.1013,-1.7865 c0.06590000000000001,-0.49190000000000006 0.16370000000000004,-0.9079 0.28830000000000006,-1.2393 c0.1282,-0.3344000000000001 0.2787,-0.6100000000000001 0.456,-0.8289000000000001 c0.2721,-0.3313000000000001 0.5903,-0.5775 0.9571000000000001,-0.7382000000000001 c0.36730000000000007,-0.16060000000000002 0.7706000000000001,-0.2649 1.2068,-0.31760000000000005 c0.4358000000000001,-0.04970000000000001 0.8943000000000001,-0.07200000000000001 1.3761,-0.06590000000000001 c0.4697,-0.006000000000000002 0.9247000000000001,0.016200000000000003 1.3645,0.06590000000000001 c0.4423000000000001,0.05270000000000001 0.8486000000000001,0.15700000000000003 1.2261,0.31760000000000005 c0.37390000000000007,0.16070000000000004 0.6982000000000002,0.40690000000000004 0.9702,0.7382000000000001 c0.10790000000000001,0.1308 0.21280000000000002,0.29440000000000005 0.31470000000000004,0.49100000000000005 c0.1013,0.19660000000000002 0.19000000000000003,0.4459000000000001 0.272,0.7412000000000001 c0.07860000000000002,0.29800000000000004 0.14140000000000003,0.6622000000000001 0.18700000000000003,1.0919 c0.04910000000000001,0.42610000000000003 0.0724,0.9373 0.0724,1.5306000000000002 c0,0.7377000000000001 -0.04300000000000001,1.3543 -0.11800000000000002,1.8554 c-0.07850000000000001,0.5021 -0.18090000000000003,0.9084 -0.30860000000000004,1.2266 c-0.12460000000000002,0.31770000000000004 -0.2654,0.5670000000000001 -0.41950000000000004,0.7539000000000001 c-0.2786,0.3405000000000001 -0.6029000000000001,0.5964 -0.9738,0.7605000000000001 c-0.37390000000000007,0.16370000000000004 -0.7802,0.2685 -1.2165,0.31470000000000004 c-0.43920000000000003,0.04910000000000001 -0.8942000000000001,0.0719 -1.3705,0.06580000000000001 c-0.48180000000000006,0.006000000000000002 -0.9403,-0.016700000000000003 -1.3761,-0.06580000000000001 c-0.43620000000000003,-0.04620000000000001 -0.8395,-0.15100000000000002 -1.2068,-0.31470000000000004 c-0.36680000000000007,-0.16410000000000002 -0.6850000000000002,-0.42000000000000004 -0.9571000000000001,-0.7605000000000001 c-0.15400000000000003,-0.18690000000000004 -0.29180000000000006,-0.43620000000000003 -0.41950000000000004,-0.7508000000000001 c-0.1282,-0.31520000000000004 -0.22950000000000004,-0.7210000000000001 -0.30810000000000004,-1.2196 c-0.07550000000000001,-0.5011 -0.11500000000000002,-1.1212 -0.11800000000000002,-1.8655 zm13.4356,6.8845 l2.5961,0 l0,-10.7199 c-0.004000000000000001,-0.09220000000000003 0,-0.18040000000000003 0.010100000000000001,-0.2685 c0.009000000000000003,-0.08870000000000003 0.032400000000000005,-0.1743 0.07200000000000001,-0.2564 c0.03900000000000001,-0.08510000000000002 0.1013,-0.16360000000000002 0.19300000000000003,-0.24220000000000003 c0.10490000000000001,-0.09470000000000003 0.21330000000000002,-0.15760000000000002 0.32120000000000004,-0.18340000000000004 c0.10850000000000001,-0.026800000000000004 0.2331,-0.036000000000000004 0.36740000000000006,-0.032900000000000006 l4.2093,0 c0.1413,-0.003000000000000001 0.29840000000000005,0.003000000000000001 0.4686,0.012600000000000002 c0.1738,0.013700000000000004 0.3446000000000001,0.04970000000000001 0.5178,0.10900000000000001 c0.1743,0.05870000000000001 0.3279000000000001,0.15700000000000003 0.4692,0.29130000000000006 c0.14090000000000003,0.1312 0.2589,0.3476000000000001 0.3506,0.6526000000000002 c0.09220000000000003,0.30090000000000006 0.1383,0.7210000000000001 0.14140000000000003,1.2555 c0,0.12160000000000001 -0.003000000000000001,0.2655 -0.010200000000000002,0.43270000000000003 c-0.007000000000000002,0.16720000000000004 -0.022800000000000004,0.3440000000000001 -0.04250000000000001,0.5244 c-0.023300000000000008,0.18340000000000004 -0.05580000000000001,0.3572 -0.09530000000000002,0.5213 c-0.04250000000000001,0.16060000000000002 -0.09780000000000003,0.29790000000000005 -0.16720000000000004,0.40990000000000004 c-0.12110000000000001,0.17990000000000003 -0.2619,0.31460000000000005 -0.42250000000000004,0.40330000000000005 c-0.16420000000000004,0.08820000000000003 -0.3314000000000001,0.14390000000000003 -0.5052,0.17020000000000002 c-0.17020000000000002,0.026400000000000007 -0.3338000000000001,0.03900000000000001 -0.48790000000000006,0.036000000000000004 l-2.5971,0 c-0.37340000000000007,0.003000000000000001 -0.6617000000000002,0.09170000000000003 -0.8583000000000001,0.266 c-0.2001,0.17020000000000002 -0.29890000000000005,0.39620000000000005 -0.30200000000000005,0.6784000000000001 l0,0.31470000000000004 c0.003000000000000001,0.1342 0.03910000000000001,0.272 0.10850000000000001,0.41290000000000004 c0.06890000000000002,0.14440000000000003 0.15040000000000003,0.2822 0.24870000000000003,0.40990000000000004 c0.1019,0.1307 0.19660000000000002,0.24270000000000003 0.29190000000000005,0.3374000000000001 l4.5239,4.4652 l3.2654,0 l-5.2322,-4.8584 l0,-0.09880000000000003 l1.7702,0 c0.5214,-0.006000000000000002 0.9546000000000001,-0.07850000000000001 1.2951000000000001,-0.21930000000000002 c0.3409000000000001,-0.14090000000000003 0.6166000000000001,-0.31770000000000004 0.8197000000000001,-0.531 c0.2063,-0.21590000000000004 0.36690000000000006,-0.43570000000000003 0.48190000000000005,-0.6653000000000001 c0.18030000000000002,-0.3415000000000001 0.31460000000000005,-0.6885000000000001 0.39670000000000005,-1.0361 c0.08510000000000002,-0.3511 0.1408,-0.7017000000000001 0.16410000000000002,-1.0488 c0.022300000000000007,-0.3480000000000001 0.03250000000000001,-0.6885000000000001 0.029400000000000006,-1.0234 c0.003000000000000001,-0.3369000000000001 -0.007000000000000002,-0.6749000000000002 -0.032900000000000006,-1.0225 c-0.026300000000000007,-0.3445000000000001 -0.08870000000000003,-0.6850000000000002 -0.18700000000000003,-1.0264 c-0.1013,-0.3370000000000001 -0.2553,-0.6653000000000001 -0.4686,-0.9799 c-0.20370000000000002,-0.29840000000000005 -0.42610000000000003,-0.531 -0.6653000000000001,-0.7048000000000001 c-0.2396,-0.17070000000000002 -0.49190000000000006,-0.29490000000000005 -0.7513000000000001,-0.37340000000000007 c-0.2584,-0.08210000000000002 -0.5178,-0.1312 -0.7798,-0.15450000000000003 c-0.2594,-0.0198 -0.5112,-0.029400000000000006 -0.7539000000000001,-0.026400000000000007 l-6.5308,0 c-0.1733,-0.003000000000000001 -0.3542,0.010200000000000002 -0.5472,0.036000000000000004 c-0.19000000000000003,0.029400000000000006 -0.38050000000000006,0.08210000000000002 -0.5705,0.16060000000000002 c-0.19000000000000003,0.08210000000000002 -0.36730000000000007,0.2001 -0.5345,0.3542 c-0.18040000000000003,0.1773 -0.31160000000000004,0.3703000000000001 -0.39370000000000005,0.5740000000000001 c-0.08160000000000002,0.20320000000000002 -0.1312,0.40990000000000004 -0.15050000000000002,0.6166000000000001 c-0.0198,0.20570000000000002 -0.029400000000000006,0.40640000000000004 -0.025800000000000003,0.5999000000000001 l0,11.4277 zm21.0263,0 l0,-11.7033 l5.3899,0 l0,-2.0657 l-13.3561,0 l0,2.0657 l5.3701,0 l0,11.7033 l2.5961,0 zm4.2863,-4.2889 l4.1415,0 l0,-2.0261 l-4.1415,0 l0,2.0261 zm8.706,4.2889 l0,-13.769 l-2.5962,0 l0,13.769 l2.5962,0 zm16.4238,-10.6809 c0.0198,-0.055700000000000006 0.04920000000000001,-0.11750000000000002 0.08210000000000002,-0.18640000000000004 c0.036000000000000004,-0.07200000000000001 0.07550000000000001,-0.1313 0.11810000000000002,-0.18400000000000002 c0.04250000000000001,-0.052100000000000014 0.08860000000000003,-0.07850000000000001 0.1342,-0.08200000000000002 c0.029400000000000006,-0.003000000000000001 0.05880000000000001,0.007000000000000002 0.09830000000000003,0.023300000000000008 c0.036500000000000005,0.019200000000000002 0.06590000000000001,0.055200000000000006 0.09530000000000002,0.11450000000000002 c0.025800000000000003,0.062300000000000015 0.04250000000000001,0.15100000000000002 0.04250000000000001,0.2756 l-0.07850000000000001,10.7199 l2.5961,0 l0,-12.1163 c-0.003000000000000001,-0.42000000000000004 -0.1013,-0.7604000000000001 -0.29130000000000006,-1.03 c-0.19050000000000003,-0.2655 -0.4525,-0.4621 -0.7869,-0.5897000000000001 c-0.3313000000000001,-0.1282 -0.7149000000000001,-0.19000000000000003 -1.1440000000000001,-0.19000000000000003 c-0.24620000000000003,-0.004000000000000001 -0.48180000000000006,0.016700000000000003 -0.7083,0.05870000000000001 c-0.22950000000000004,0.03900000000000001 -0.4428000000000001,0.12110000000000001 -0.6490000000000001,0.24270000000000003 c-0.20320000000000002,0.12110000000000001 -0.3973000000000001,0.30150000000000005 -0.5736000000000001,0.5376000000000001 c-0.1773,0.2361 -0.3415000000000001,0.5441 -0.48890000000000006,0.9312 l-3.5598,9.1858 c-0.05930000000000001,0.15040000000000003 -0.12160000000000001,0.272 -0.18740000000000004,0.36730000000000007 c-0.06540000000000001,0.09170000000000003 -0.1277,0.1408 -0.18650000000000003,0.14390000000000003 c-0.05930000000000001,-0.003000000000000001 -0.12160000000000001,-0.05220000000000001 -0.18700000000000003,-0.14390000000000003 c-0.06580000000000001,-0.09530000000000002 -0.1276,-0.21690000000000004 -0.18690000000000004,-0.36730000000000007 l-3.5603,-9.1858 c-0.09170000000000003,-0.24270000000000003 -0.19300000000000003,-0.4722 -0.31110000000000004,-0.6850000000000002 c-0.11800000000000002,-0.21020000000000003 -0.266,-0.4002 -0.4393000000000001,-0.5608000000000001 c-0.1773,-0.16370000000000004 -0.39970000000000006,-0.29190000000000005 -0.6723000000000001,-0.38360000000000005 c-0.269,-0.09170000000000003 -0.5999000000000001,-0.1408 -0.9966,-0.1408 c-0.08210000000000002,-0.004000000000000001 -0.21030000000000001,0.003000000000000001 -0.38350000000000006,0.016700000000000003 c-0.1703,0.012600000000000002 -0.36030000000000006,0.04860000000000001 -0.5670000000000001,0.1044 c-0.21030000000000001,0.05620000000000001 -0.40990000000000004,0.15090000000000003 -0.6034,0.2786 c-0.19310000000000002,0.1282 -0.3506,0.30450000000000005 -0.47530000000000006,0.5345 c-0.12460000000000002,0.22600000000000003 -0.19000000000000003,0.5178 -0.19300000000000003,0.8755000000000001 l0,12.1163 l2.5961,0 l-0.05930000000000001,-10.7199 c0,-0.022800000000000004 0,-0.06890000000000002 0.007000000000000002,-0.1348 c0.007000000000000002,-0.06530000000000001 0.026400000000000007,-0.1271 0.05930000000000001,-0.18640000000000004 c0.029400000000000006,-0.05630000000000001 0.07850000000000001,-0.08870000000000003 0.15050000000000002,-0.09220000000000003 c0.03950000000000001,0.003000000000000001 0.08210000000000002,0.029900000000000006 0.12460000000000002,0.08200000000000002 c0.046100000000000016,0.05270000000000001 0.08560000000000002,0.11200000000000002 0.12470000000000002,0.18400000000000002 c0.0359,0.06890000000000002 0.06530000000000001,0.1307 0.08560000000000002,0.18640000000000004 l3.5208,9.1857 c0.08150000000000002,0.21990000000000004 0.17020000000000002,0.42660000000000003 0.2619,0.6232000000000001 c0.09520000000000003,0.19710000000000003 0.21330000000000002,0.37340000000000007 0.3541,0.528 c0.13790000000000002,0.15400000000000003 0.31820000000000004,0.2756 0.5341,0.36430000000000007 c0.21680000000000002,0.09120000000000003 0.48890000000000006,0.1337 0.8167000000000001,0.1373 c0.30150000000000005,0 0.5573,-0.03960000000000001 0.7671000000000001,-0.11150000000000002 c0.20670000000000002,-0.07550000000000001 0.38350000000000006,-0.18390000000000004 0.5279,-0.3248000000000001 c0.14090000000000003,-0.1408 0.2655,-0.31460000000000005 0.36990000000000006,-0.5178 c0.10540000000000001,-0.2031 0.20670000000000002,-0.43570000000000003 0.30200000000000005,-0.6987000000000002 l3.5207,-9.1857 zm3.6794000000000002,10.6809 l2.7339,0 l1.3964,-3.4813 l6.6291,0 l1.4156,3.4813 l2.7344,0 l-5.1927,-12.3726 c-0.16060000000000002,-0.38310000000000005 -0.3410000000000001,-0.6916000000000002 -0.5442,-0.9176000000000001 c-0.2001,-0.22950000000000004 -0.43920000000000003,-0.39310000000000006 -0.7149000000000001,-0.49190000000000006 c-0.2786,-0.09780000000000003 -0.6130000000000001,-0.14750000000000002 -1.0031,-0.14390000000000003 c-0.40990000000000004,-0.004000000000000001 -0.7504000000000001,0.046100000000000016 -1.0291,0.14390000000000003 c-0.2761,0.09880000000000003 -0.5087,0.2624 -0.7017000000000001,0.49190000000000006 c-0.19350000000000003,0.22600000000000003 -0.37090000000000006,0.5345 -0.5315,0.9176000000000001 l-5.1922,12.3726 zm7.0613,-10.9367 c0.025800000000000003,-0.06840000000000002 0.05880000000000001,-0.14750000000000002 0.09830000000000003,-0.2356 c0.03900000000000001,-0.08820000000000003 0.08160000000000002,-0.16420000000000004 0.1312,-0.22960000000000003 c0.04910000000000001,-0.06890000000000002 0.1044,-0.1013 0.16370000000000004,-0.1048 c0.05920000000000001,0.003000000000000001 0.11500000000000002,0.0359 0.16410000000000002,0.1048 c0.04920000000000001,0.06540000000000001 0.09170000000000003,0.14140000000000003 0.1312,0.22960000000000003 c0.03960000000000001,0.08810000000000003 0.07200000000000001,0.16720000000000004 0.09780000000000003,0.2356 l2.2425,5.6066 l-5.291,0 l2.2622,-5.6066 zm20.3783,4.19 l-2.5961,0 l0,3.7569 c0.007000000000000002,0.11200000000000002 -0.004000000000000001,0.22950000000000004 -0.026400000000000007,0.3542 c-0.022800000000000004,0.12460000000000002 -0.08510000000000002,0.2426 -0.19050000000000003,0.3541 c-0.10790000000000001,0.10490000000000001 -0.21930000000000002,0.16720000000000004 -0.3369000000000001,0.19000000000000003 c-0.11500000000000002,0.023300000000000008 -0.233,0.029400000000000006 -0.3506,0.025800000000000003 l-3.3642,0 c-0.36680000000000007,0.004000000000000001 -0.7179000000000001,-0.0359 -1.0457,-0.11800000000000002 c-0.3274000000000001,-0.08160000000000002 -0.6293000000000001,-0.22900000000000004 -0.8978000000000002,-0.4388000000000001 c-0.2691,-0.20970000000000003 -0.5021,-0.5016 -0.6921000000000002,-0.8785000000000001 c-0.07550000000000001,-0.14090000000000003 -0.15410000000000001,-0.3476000000000001 -0.23920000000000002,-0.6227000000000001 c-0.08560000000000002,-0.2756 -0.15760000000000002,-0.6394000000000001 -0.21680000000000002,-1.0888 c-0.06190000000000001,-0.4489000000000001 -0.09120000000000003,-1.0062 -0.09480000000000002,-1.6720000000000002 c0.004000000000000001,-0.6586000000000002 0.032900000000000006,-1.2094 0.09480000000000002,-1.6487000000000003 c0.06280000000000001,-0.43920000000000003 0.13470000000000001,-0.7939 0.22340000000000004,-1.0624 c0.08510000000000002,-0.2686 0.17070000000000002,-0.4717 0.2523,-0.6131000000000001 c0.2655,-0.48540000000000005 0.6521000000000001,-0.8552000000000001 1.1638,-1.108 c0.5082,-0.2559 1.1375,-0.38660000000000005 1.8853,-0.38660000000000005 l6.1169,0 l0,-2.0657 l-6.845,0 c-0.6622000000000001,0 -1.2757,0.07200000000000001 -1.8386,0.21690000000000004 c-0.5640000000000001,0.14390000000000003 -1.0595,0.3536 -1.4856,0.6292000000000001 c-0.5016,0.3344000000000001 -0.9049,0.7312000000000001 -1.2063,1.1932 c-0.29840000000000005,0.4626 -0.5244,0.9672000000000001 -0.6759000000000002,1.5114 c-0.14690000000000003,0.5441 -0.24520000000000003,1.1081 -0.29440000000000005,1.6882000000000001 c-0.04910000000000001,0.5801000000000001 -0.06940000000000002,1.1542000000000001 -0.06580000000000001,1.7246000000000001 c-0.004000000000000001,0.48490000000000005 0.013100000000000002,0.9901 0.04910000000000001,1.5114 c0.032900000000000006,0.5209 0.11150000000000002,1.0392 0.22950000000000004,1.5504 c0.11860000000000002,0.5117 0.29840000000000005,0.9934999999999999 0.5442,1.449 c0.24270000000000003,0.456 0.5740000000000001,0.8588000000000001 0.9869,1.213 c0.20980000000000001,0.17980000000000002 0.4657,0.3541 0.7702,0.5178 c0.30550000000000005,0.16060000000000002 0.6591000000000001,0.29540000000000005 1.0624,0.4002 c0.40690000000000004,0.1044 0.8619000000000001,0.16070000000000004 1.3731,0.16370000000000004 l5.862,0 c0.1343,0 0.2817,-0.013200000000000003 0.4423000000000001,-0.04260000000000001 c0.16060000000000002,-0.025800000000000003 0.3213000000000001,-0.0719 0.47880000000000006,-0.1312 c0.15760000000000002,-0.061800000000000015 0.29540000000000005,-0.1408 0.41650000000000004,-0.2391 c0.1348,-0.10850000000000001 0.24930000000000002,-0.2721 0.3506,-0.49500000000000005 c0.1018,-0.22300000000000003 0.15450000000000003,-0.5082 0.16060000000000002,-0.8624 l0,-4.9764 zm13.0024,6.746700000000001 l0,-2.0657 l-7.3567,0 c-0.20670000000000002,0.004000000000000001 -0.38660000000000005,-0.006000000000000002 -0.5381,-0.029300000000000007 c-0.15040000000000003,-0.022300000000000007 -0.2685,-0.07200000000000001 -0.3470000000000001,-0.14700000000000002 c-0.05930000000000001,-0.05270000000000001 -0.10790000000000001,-0.12460000000000002 -0.14390000000000003,-0.21990000000000004 c-0.033400000000000006,-0.09830000000000003 -0.05270000000000001,-0.2001 -0.05270000000000001,-0.31160000000000004 l0,-3.2259 l8.1633,0 l0,-2.0651 l-8.1633,0 l0,-2.7735 c-0.004000000000000001,-0.1013 0.003000000000000001,-0.21330000000000002 0.025800000000000003,-0.3343000000000001 c0.023300000000000008,-0.12160000000000001 0.08520000000000003,-0.2331 0.19050000000000003,-0.3344000000000001 c0.1014,-0.08520000000000003 0.21280000000000002,-0.14090000000000003 0.3375000000000001,-0.16370000000000004 c0.1282,-0.026800000000000004 0.24930000000000002,-0.036000000000000004 0.3703000000000001,-0.032900000000000006 l7.4358,0 l0,-2.0657 l-8.8321,0 c-0.18040000000000003,-0.003000000000000001 -0.36730000000000007,0.007000000000000002 -0.5639000000000001,0.029400000000000006 c-0.19660000000000002,0.020300000000000006 -0.39010000000000006,0.06940000000000002 -0.5771000000000001,0.14490000000000003 c-0.18650000000000003,0.07500000000000001 -0.3572,0.19660000000000002 -0.5112,0.3572 c-0.14750000000000002,0.1708 -0.266,0.38300000000000006 -0.3481000000000001,0.6359000000000001 c-0.08110000000000002,0.2523 -0.12410000000000002,0.5178 -0.12410000000000002,0.8 l0,9.7562 c-0.003000000000000001,0.17990000000000003 0.007000000000000002,0.36380000000000007 0.029400000000000006,0.5538000000000001 c0.019700000000000002,0.19000000000000003 0.06530000000000001,0.37740000000000007 0.1408,0.5573 c0.07250000000000001,0.18040000000000003 0.18750000000000003,0.3476000000000001 0.3415000000000001,0.5016 c0.15050000000000002,0.14090000000000003 0.31110000000000004,0.24270000000000003 0.47830000000000006,0.30500000000000005 c0.16720000000000004,0.062300000000000015 0.3410000000000001,0.09830000000000003 0.5249,0.11100000000000002 c0.18290000000000003,0.013700000000000004 0.37390000000000007,0.020200000000000003 0.5705,0.016700000000000003 l8.9496,0 zm1.3579,0 l8.4576,0 c0.30200000000000005,0.004000000000000001 0.5999000000000001,-0.016700000000000003 0.8887000000000002,-0.05930000000000001 c0.28830000000000006,-0.04200000000000001 0.5639000000000001,-0.1337 0.8289000000000001,-0.2751 c0.2629,-0.14090000000000003 0.5122,-0.3572 0.7412000000000001,-0.6490000000000001 c0.18700000000000003,-0.24580000000000002 0.3314000000000001,-0.5082 0.43270000000000003,-0.7935 c0.09880000000000003,-0.2852 0.16720000000000004,-0.5765 0.20320000000000002,-0.8785000000000001 c0.036000000000000004,-0.29790000000000005 0.05620000000000001,-0.5933 0.05270000000000001,-0.8851000000000001 c0.003000000000000001,-0.16420000000000004 -0.007000000000000002,-0.3572 -0.026400000000000007,-0.5766000000000001 c-0.016200000000000003,-0.22350000000000003 -0.055700000000000006,-0.456 -0.11500000000000002,-0.6987000000000002 c-0.061800000000000015,-0.24570000000000003 -0.15050000000000002,-0.48840000000000006 -0.2716,-0.7245 c-0.12460000000000002,-0.23920000000000002 -0.2852,-0.456 -0.49190000000000006,-0.6556000000000002 c-0.20370000000000002,-0.19360000000000002 -0.4687,-0.37040000000000006 -0.7899,-0.528 c-0.3248000000000001,-0.15760000000000002 -0.7149000000000001,-0.31160000000000004 -1.1775,-0.4555 l-5.0352,-1.5929000000000002 c-0.3637,-0.12160000000000001 -0.6358000000000001,-0.2625 -0.8197000000000001,-0.42660000000000003 c-0.18650000000000003,-0.16420000000000004 -0.31110000000000004,-0.3405000000000001 -0.37390000000000007,-0.5345 c-0.06190000000000001,-0.19000000000000003 -0.08770000000000003,-0.39020000000000005 -0.08470000000000003,-0.5933 c-0.003000000000000001,-0.08870000000000003 0.004000000000000001,-0.19360000000000002 0.016300000000000005,-0.31820000000000004 c0.013100000000000002,-0.1277 0.046100000000000016,-0.2554 0.09830000000000003,-0.38660000000000005 c0.04960000000000001,-0.1312 0.1307,-0.24930000000000002 0.2396,-0.3572 c0.16060000000000002,-0.14440000000000003 0.3339000000000001,-0.2325 0.5244,-0.269 c0.19000000000000003,-0.036000000000000004 0.37640000000000007,-0.05220000000000001 0.5573,-0.045600000000000016 l7.0416,0 l0,-2.0657 l-7.9267,0 c-0.22600000000000003,-0.003000000000000001 -0.4687,0.013700000000000004 -0.7281000000000001,0.04970000000000001 c-0.2589,0.036000000000000004 -0.5178,0.11090000000000001 -0.7802,0.22240000000000004 c-0.2655,0.10840000000000001 -0.5148,0.2751 -0.7539000000000001,0.49550000000000005 c-0.259,0.24570000000000003 -0.452,0.5112 -0.5802,0.8031 c-0.12460000000000002,0.28830000000000006 -0.20970000000000003,0.5831000000000001 -0.24920000000000003,0.8851000000000001 c-0.03910000000000001,0.30150000000000005 -0.05930000000000001,0.5898000000000001 -0.05580000000000001,0.8684000000000001 c-0.004000000000000001,0.2594 0.013200000000000003,0.5411 0.04260000000000001,0.8492000000000001 c0.032400000000000005,0.30450000000000005 0.1018,0.6100000000000001 0.2031,0.9115 c0.1019,0.30500000000000005 0.2559,0.5836000000000001 0.4626,0.8365 c0.14090000000000003,0.16660000000000003 0.29140000000000005,0.31100000000000005 0.4555,0.43210000000000004 c0.16720000000000004,0.12160000000000001 0.3278000000000001,0.22600000000000003 0.48490000000000005,0.30810000000000004 c0.16110000000000002,0.08210000000000002 0.30200000000000005,0.14390000000000003 0.42360000000000003,0.19000000000000003 c0.12100000000000001,0.046100000000000016 0.21280000000000002,0.07850000000000001 0.2685,0.09220000000000003 l5.4288,1.711 c0.29850000000000004,0.09520000000000003 0.5376000000000001,0.2031 0.7149000000000001,0.32470000000000004 c0.17990000000000003,0.11760000000000002 0.31470000000000004,0.24930000000000002 0.40330000000000005,0.38710000000000006 c0.09170000000000003,0.1373 0.15050000000000002,0.2751 0.17990000000000003,0.41900000000000004 c0.029900000000000006,0.14490000000000003 0.04260000000000001,0.28530000000000005 0.03950000000000001,0.42360000000000003 c0.003000000000000001,0.12110000000000001 -0.006000000000000002,0.265 -0.029400000000000006,0.43270000000000003 c-0.019700000000000002,0.16720000000000004 -0.0724,0.3308000000000001 -0.15400000000000003,0.49150000000000005 c-0.08210000000000002,0.16060000000000002 -0.21330000000000002,0.29480000000000006 -0.39010000000000006,0.40330000000000005 c-0.1738,0.10790000000000001 -0.41650000000000004,0.16410000000000002 -0.7245,0.16660000000000003 l-7.6318,0 l0,2.0657 zm15.7758,0 l0,-2.5374 l-2.4001,0 l0,2.5374 l2.4001,0 zm2.3605,0 l2.5961,0 l0,-10.7199 c-0.003000000000000001,-0.09220000000000003 0,-0.18040000000000003 0.010200000000000002,-0.2685 c0.010000000000000002,-0.08870000000000003 0.032900000000000006,-0.1743 0.0719,-0.2564 c0.03950000000000001,-0.08510000000000002 0.1013,-0.16360000000000002 0.19360000000000002,-0.24220000000000003 c0.1043,-0.09470000000000003 0.21330000000000002,-0.15760000000000002 0.32120000000000004,-0.18340000000000004 c0.10790000000000001,-0.026800000000000004 0.2325,-0.036000000000000004 0.36730000000000007,-0.032900000000000006 l4.2093,0 c0.14090000000000003,-0.003000000000000001 0.29840000000000005,0.003000000000000001 0.4687,0.012600000000000002 c0.1738,0.013700000000000004 0.3445000000000001,0.04970000000000001 0.5178,0.10900000000000001 c0.1738,0.05870000000000001 0.3278000000000001,0.15700000000000003 0.4692,0.29130000000000006 c0.1408,0.1312 0.2584,0.3476000000000001 0.3506,0.6526000000000002 c0.09170000000000003,0.30090000000000006 0.1378,0.7210000000000001 0.1413,1.2555 c0,0.12160000000000001 -0.003000000000000001,0.2655 -0.010100000000000001,0.43270000000000003 c-0.007000000000000002,0.16720000000000004 -0.023300000000000008,0.3440000000000001 -0.04260000000000001,0.5244 c-0.023300000000000008,0.18340000000000004 -0.05620000000000001,0.3572 -0.09520000000000003,0.5213 c-0.04260000000000001,0.16060000000000002 -0.09830000000000003,0.29790000000000005 -0.16720000000000004,0.40990000000000004 c-0.12160000000000001,0.17990000000000003 -0.2625,0.31460000000000005 -0.42310000000000003,0.40330000000000005 c-0.16360000000000002,0.08820000000000003 -0.3308000000000001,0.14390000000000003 -0.5051,0.17020000000000002 c-0.16970000000000005,0.026400000000000007 -0.3339000000000001,0.03900000000000001 -0.48790000000000006,0.036000000000000004 l-2.5967000000000002,0 c-0.37340000000000007,0.003000000000000001 -0.6622000000000001,0.09170000000000003 -0.8587000000000001,0.266 c-0.20020000000000002,0.17020000000000002 -0.29850000000000004,0.39620000000000005 -0.30200000000000005,0.6784000000000001 l0,0.31470000000000004 c0.004000000000000001,0.1342 0.03950000000000001,0.272 0.10890000000000001,0.41290000000000004 c0.06840000000000002,0.14440000000000003 0.15050000000000002,0.2822 0.24880000000000002,0.40990000000000004 c0.1018,0.1307 0.19660000000000002,0.24270000000000003 0.29180000000000006,0.3374000000000001 l4.524,4.4652 l3.2654,0 l-5.2328,-4.8584 l0,-0.09880000000000003 l1.7703,0 c0.5213,-0.006000000000000002 0.9545,-0.07850000000000001 1.2955,-0.21930000000000002 c0.3410000000000001,-0.14090000000000003 0.6161000000000001,-0.31770000000000004 0.8198000000000001,-0.531 c0.20570000000000002,-0.21590000000000004 0.36630000000000007,-0.43570000000000003 0.48180000000000006,-0.6653000000000001 c0.17990000000000003,-0.3415000000000001 0.31470000000000004,-0.6885000000000001 0.39670000000000005,-1.0361 c0.08520000000000003,-0.3511 0.14040000000000002,-0.7017000000000001 0.16370000000000004,-1.0488 c0.022800000000000004,-0.3480000000000001 0.032900000000000006,-0.6885000000000001 0.029400000000000006,-1.0234 c0.003000000000000001,-0.3369000000000001 -0.007000000000000002,-0.6749000000000002 -0.032400000000000005,-1.0225 c-0.026900000000000007,-0.3445000000000001 -0.08870000000000003,-0.6850000000000002 -0.18750000000000003,-1.0264 c-0.1013,-0.3370000000000001 -0.2554,-0.6653000000000001 -0.4687,-0.9799 c-0.2031,-0.29840000000000005 -0.42610000000000003,-0.531 -0.6652000000000001,-0.7048000000000001 c-0.23920000000000002,-0.17070000000000002 -0.49200000000000005,-0.29490000000000005 -0.7509000000000001,-0.37340000000000007 c-0.2589,-0.08210000000000002 -0.5183,-0.1312 -0.7802,-0.15450000000000003 c-0.2589,-0.0198 -0.5113,-0.029400000000000006 -0.7539000000000001,-0.026400000000000007 l-6.5309,0 c-0.1733,-0.003000000000000001 -0.3536,0.010200000000000002 -0.5472,0.036000000000000004 c-0.19000000000000003,0.029400000000000006 -0.38050000000000006,0.08210000000000002 -0.5705,0.16060000000000002 c-0.19000000000000003,0.08210000000000002 -0.36730000000000007,0.2001 -0.5345,0.3542 c-0.17990000000000003,0.1773 -0.31110000000000004,0.3703000000000001 -0.39320000000000005,0.5740000000000001 c-0.08200000000000002,0.20320000000000002 -0.1312,0.40990000000000004 -0.15040000000000003,0.6166000000000001 c-0.020300000000000006,0.20570000000000002 -0.029400000000000006,0.40640000000000004 -0.026400000000000007,0.5999000000000001 l0,11.4277 zm20.4179,-1.9076 c-0.2726,0.003000000000000001 -0.5741,-0.013200000000000003 -0.9019,-0.055700000000000006 c-0.3248000000000001,-0.03950000000000001 -0.6460000000000001,-0.12160000000000001 -0.9637000000000001,-0.24930000000000002 c-0.31810000000000005,-0.1282 -0.5998000000000001,-0.32170000000000004 -0.8491000000000001,-0.5801000000000001 c-0.21280000000000002,-0.23920000000000002 -0.36730000000000007,-0.49550000000000005 -0.4621,-0.7671000000000001 c-0.09520000000000003,-0.2726 -0.15400000000000003,-0.5482 -0.1773,-0.8269000000000001 c-0.022800000000000004,-0.2781 -0.03300000000000001,-0.5472 -0.029400000000000006,-0.8061 l0,-8.5762 l-2.5961,0 l0,8.9304 c-0.004000000000000001,0.39010000000000006 0.022800000000000004,0.7868 0.07850000000000001,1.1932 c0.05880000000000001,0.40680000000000005 0.1733,0.8066000000000001 0.3476000000000001,1.1997 c0.1738,0.3968000000000001 0.42910000000000004,0.7707 0.7736000000000001,1.1279 c0.3471000000000001,0.3506 0.7306000000000001,0.6262000000000001 1.1507,0.8294 c0.41950000000000004,0.2001 0.8456000000000001,0.3480000000000001 1.2849,0.43920000000000003 c0.43570000000000003,0.09180000000000002 0.8557000000000001,0.15050000000000002 1.259,0.1738 c0.40330000000000005,0.026400000000000007 0.7671000000000001,0.036000000000000004 1.0853,0.03300000000000001 c0.31760000000000005,0.003000000000000001 0.6819000000000002,-0.007000000000000002 1.0852,-0.03300000000000001 c0.40330000000000005,-0.023300000000000008 0.8223,-0.08200000000000002 1.2616,-0.1738 c0.43620000000000003,-0.09120000000000003 0.8623000000000001,-0.2391 1.2819,-0.43920000000000003 c0.42000000000000004,-0.20320000000000002 0.803,-0.47880000000000006 1.1511,-0.8294 c0.3440000000000001,-0.3572 0.5999000000000001,-0.7311000000000001 0.7731,-1.1279 c0.1738,-0.39310000000000006 0.28880000000000006,-0.7929 0.3481000000000001,-1.1997 c0.055200000000000006,-0.40640000000000004 0.08210000000000002,-0.8031 0.07850000000000001,-1.1932 l0,-8.9304 l-2.5966,0 l0,8.5762 c0.003000000000000001,0.2331 -0.006000000000000002,0.49150000000000005 -0.029400000000000006,0.7737 c-0.019700000000000002,0.28530000000000005 -0.07900000000000001,0.5675 -0.17070000000000002,0.8527000000000001 c-0.09120000000000003,0.2817 -0.24270000000000003,0.5406000000000001 -0.4489000000000001,0.7737 c-0.18040000000000003,0.19660000000000002 -0.38710000000000006,0.3506 -0.6197000000000001,0.4686 c-0.2361,0.12110000000000001 -0.4787,0.20980000000000001 -0.7311000000000001,0.2686 c-0.2553,0.05930000000000001 -0.5016,0.1018 -0.7407000000000001,0.12110000000000001 c-0.2391,0.020200000000000003 -0.4524,0.029400000000000006 -0.6424000000000001,0.026800000000000004 z" class=""/><path id="path10" style="fill:#e30016;fill-rule:evenodd" d="m115.02740830078125,22.661404394531246 c0.6754000000000001,0.4556 0.775,3.4412000000000003 0.775,4.595 c-0.1293,0.08870000000000003 -0.3359000000000001,0.28700000000000003 -0.41900000000000004,0.28700000000000003 c-0.2952,0 -0.18370000000000003,-0.05120000000000001 -0.5575,-0.14400000000000002 l-0.046100000000000016,-1.0071 l0.24760000000000001,-3.7309 z" class=""/><path id="path12" style="fill:#e30016;fill-rule:evenodd" d="m111.89550830078127,26.10900439453124 c0.017900000000000006,-0.31070000000000003 0.0352,-0.6210000000000001 0.05300000000000001,-0.9317000000000001 c0.5872,-0.6936000000000002 1.1739,-1.3872 1.7611,-2.0809 c0.1773,-0.04430000000000001 0.09730000000000003,-0.06300000000000001 0.2746,-0.10740000000000001 c0.04570000000000001,0.13940000000000002 0.09140000000000002,0.2792 0.1371,0.4186 c-0.1302,1.6262 -0.003000000000000001,3.2265 -0.133,4.8527000000000005 c-0.1325,-0.0020000000000000005 -0.2654,-0.005000000000000001 -0.3980000000000001,-0.007000000000000002 c-0.05340000000000001,-0.09320000000000003 -0.10640000000000001,-0.18640000000000004 -0.15990000000000004,-0.2796 c-0.9216000000000001,-1.0894 -1.5349,-0.7385 -1.5349,-1.8644 z" class=""/><path id="path14" style="fill:#e30016;fill-rule:evenodd" d="m116.99640830078124,20.890804394531244 l0.13840000000000002,0.5880000000000001 l3.2717,0.4707 c1.4376,0.003000000000000001 5.6675,0.029700000000000004 6.9762,0.8600000000000001 c0.15990000000000004,0.14340000000000003 0.4181,0.2513 0.4181,0.43040000000000006 c0,1.3247 -5.8544,3.5861 -7.5341000000000005,3.5861 c-0.6676000000000002,0 -1.5513,0.42580000000000007 -1.735,0.9495 l-0.8376000000000001,0.14350000000000002 l-0.6899000000000002,0.17270000000000002 l-0.42640000000000006,-1.7505000000000002 l0,-0.7174 l-0.2787,-3.4417 l0,-0.8609000000000001 c0,-0.4771 0.2509,-0.42090000000000005 0.6973000000000001,-0.43040000000000006 z" class=""/><path id="path16" style="fill:#e30016;fill-rule:evenodd" d="m120.82460830078128,38.30070439453124 l0.5584,0 l-0.07810000000000002,-0.12110000000000001 l0.9153,-0.5954 c1.331,0 1.5357,0.2682 2.0941,-0.5730000000000001 c0.5817000000000001,-0.8750000000000001 2.8289,-1.4613 3.3471,-2.2961 c0.5566000000000001,-0.8947000000000002 1.2059,-0.8458000000000001 1.3814000000000002,-1.3882 c1.4846,-0.5949000000000001 3.0994,-1.6898000000000002 3.7154,-2.409 c0.47330000000000005,-0.5529000000000001 2.8558000000000003,-2.6973000000000003 2.8558000000000003,-3.2315 c0,-1.6701000000000001 -0.30290000000000006,-2.4396 0.8376000000000001,-3.2987 l3.6277,0 l0,0.43000000000000005 c0,0.38750000000000007 -0.06720000000000002,0.3953000000000001 -0.1403,0.7174 c-1.0747,4.633900000000001 -4.9766,16.4856 -10.411,19.8592 c-4.6247,2.8719 -8.7034,-3.5902000000000003 -8.7034,-7.0936 z" class=""/><path id="path18" style="fill:#0060ab;fill-rule:evenodd" d="m98.06020830078126,106.58250439453124 l-26.0534,0 l-0.04210000000000001,-0.43270000000000003 c-0.5666000000000001,-0.25 -0.8097000000000001,-3.2014 -0.8097000000000001,-4.0197 l1.6743000000000001,-2.8687 c0.6872000000000001,-0.8824000000000001 1.4457,-1.1474 2.6507,-1.1474 c0.2892,0 0.5479,0.5968000000000001 0.5579000000000001,1.0039 l0.1398,1.7213 c0.7997000000000001,2.6443000000000003 1.2804,0.8604 3.2087,0.8604 c0.32760000000000006,0 2.923,1.2315 3.5335,1.3882 c1.1652,0.29840000000000005 3.3366000000000002,0.33360000000000006 4.2637,0.6370000000000001 c1.2475,0.40800000000000003 2.8066,0.38700000000000007 4.0614,0.8453 c0.5688000000000001,0.20750000000000002 3.3169,0.6991000000000002 4.0471,0.7156000000000001 l1.6742000000000001,0.15720000000000003 l0.41900000000000004,0.5602 c0.19330000000000003,0.29700000000000004 0.42040000000000005,0.4697 0.6749000000000002,0.5794 z" class=""/><path id="path20" style="fill:#e30016;fill-rule:evenodd" d="m100.16450830078122,2.2672043945312623 l71.4292,0 c9.01,0 16.3814,7.3714 16.3814,16.3813 l0,71.5526 c0,9.01 -7.3714,16.3814 -16.3814,16.3814 l-58.8848,0 c0.2751,-0.21480000000000002 0.4423000000000001,-0.45690000000000003 0.4423000000000001,-0.7229000000000001 c0,-2.5703 -1.2927,-7.8873 -3.0473,-11.8581 c-0.3400000000000001,-0.7695000000000001 -6.4466,-10.4027 -7.0411,-11.0484 c-2.4172000000000002,-2.6274 -4.5187,-5.354 -6.6288,-7.9595 c-0.32900000000000007,-0.4067 -0.7736000000000001,-0.5940000000000001 -0.9569000000000001,-0.8800000000000001 c-0.2526,-0.3939000000000001 -0.22660000000000002,-0.6663000000000001 -0.6031000000000001,-1.2448000000000001 c0,-2.2243 -0.9756,-1.7039 -1.1163,-3.4421 c0.5999000000000001,0.013700000000000004 3.2763,0.9797 3.8113,1.2447 c1.0172,0.5049 5.3216,1.9264999999999999 8.4457,2.8532 c3.9297,1.1661000000000001 4.647600000000001,2.3971 4.8271,-3.0433 c0.11840000000000002,-3.5568 -0.5405,-7.869 -0.49800000000000005,-10.1117 c1.6769000000000003,-1.2794 2.3884,-2.8138 2.3884,-4.5689 c0,-5.4541 2.0992,-11.1768 2.0992,-16.8064 c0,-0.04110000000000001 -0.3002,0.003000000000000001 -1.1465,0.014700000000000003 c-0.1521,2.7965 -1.7578,17.5731 -2.5488,17.6366 l-0.6361000000000001,0.15850000000000003 l-0.3468000000000001,-0.9783 c-0.8206000000000001,-1.5239 -2.5739,-15.8052 -2.3039,-15.8033 l-0.2792,-0.28700000000000003 c0,-0.8956000000000002 8.3616,-0.6763000000000001 10.331,-0.7974 c2.4675000000000002,3.3133 6.946,11.2792 12.0222,7.9202 c5.3782,-3.56 12.0272,-15.0165 12.8067,-18.4545 l0.4186,-1.0044 c0.38700000000000007,-0.5725 0.4587,-2.0078 1.1163,-2.0078 l2.372,0 c0.546,0 0.7201000000000001,0.7540000000000001 0.9763999999999999,1.1474 l4.0458,0 c1.3064,0 4.1175,-0.3975000000000001 4.8834,0.28700000000000003 c-0.04760000000000001,0.1393 -0.12110000000000001,0.28690000000000004 0.41900000000000004,0.28690000000000004 c3.9735,-0.07440000000000001 3.8095,-15.6964 0.2787,-15.6342 c-0.5831000000000001,0 -0.5913,0.29560000000000003 -1.6724,0.28780000000000006 c-0.6489000000000001,-0.004000000000000001 -1.4723000000000002,0.04760000000000001 -2.0955,-0.00039999999999999996 c-1.2763,-0.09830000000000003 -2.563,-0.14490000000000003 -4.0454,-0.14490000000000003 l-1.2556,0 c-0.32770000000000005,0 -0.5333,0.44600000000000006 -0.8371000000000001,0.7174 l-4.6042000000000005,0 c-0.2011,-0.30890000000000006 -0.6617000000000002,-1.0043 -1.1163,-1.0043 l-0.6973000000000001,0 l-2.5013,0.36960000000000004 l-1.5225,0.43320000000000003 c-0.48580000000000007,0.6260000000000001 -0.6736000000000002,0.7732 -1.5376,1.083 c-0.28380000000000005,0.1014 -0.7659000000000001,0.17540000000000003 -1.014,0.39200000000000007 c-0.30110000000000003,0.2637 -0.07450000000000001,0.44370000000000004 -0.6996000000000002,0.5717000000000001 c-0.8828000000000001,0.18000000000000002 -3.7592,-0.12390000000000001 -5.003,-0.12390000000000001 l-1.2557,0 c-0.2902,0.7394000000000001 -2.8979,0.5739000000000001 -3.9069000000000003,0.5739000000000001 l-4.4648,0 c-2.8197,0 -1.7135,1.0039 -2.9299,1.0039 l-0.1393,0 c-0.6836000000000002,0 -2.5114,0.08870000000000003 -2.5114,-0.5739000000000001 c0,-0.30290000000000006 0.04980000000000001,-0.18870000000000003 0.13940000000000002,-0.5734 l0.5579000000000001,0 l0,-1.1474 c0,-1.072 -1.5056,-1.2913000000000001 -2.5114,-1.2913000000000001 l-3.0692,0 l0,0.28690000000000004 l-0.8093,0.2582 l-0.30250000000000005,-0.2582 c0.1746,-1.374 -0.1361,-2.4094 -0.52,-3.3941 c2.0115,0.48340000000000005 1.582,0.5442 1.2128,-1.6258000000000001 c-0.32310000000000005,-0.027900000000000008 -1.5253,-1.5445 -2.3711,-2.1518 l-0.41900000000000004,-0.28690000000000004 c-0.8646000000000001,-0.8431000000000001 -3.2727,-2.2139 -5.1735,-2.6128 z" class=""/><path id="path22" style="fill:#0060ab;fill-rule:evenodd" d="m18.690308300781254,2.2672043945312623 l76.2253,0 c-0.21250000000000002,0.020500000000000004 -0.36190000000000005,0.04470000000000001 -0.41900000000000004,0.07350000000000001 c-0.7828,0.3939000000000001 -1.2393,0.3153000000000001 -1.6825,0.9962 c-0.5748000000000001,0.8819000000000001 -0.19330000000000003,0.9691000000000001 -1.6998000000000002,0.9737 l-0.28700000000000003,0.5694 c-0.05670000000000001,0.7009000000000001 -0.29430000000000006,0.4217 -0.43410000000000004,1.5618 c-0.051600000000000014,0.42130000000000006 -0.08320000000000002,1.3534000000000002 -0.1741,1.8287 c-0.30110000000000003,1.5851000000000002 -0.36830000000000007,1.7615 -0.36830000000000007,3.7812 l0.6777000000000002,0.7722 l-1.1575,-0.23940000000000003 c-0.4121,0.035100000000000006 -2.4579,0.902 -1.1944000000000001,0.902 c1.9479000000000002,2.5026 0.9618000000000001,4.0745000000000005 -0.6343000000000001,4.8924 c-4.0439,2.0714 -6.5402000000000005,-1.5129000000000001 -9.7973,3.0762 c-3.8926000000000003,5.4856 -2.8385,12.3653 -6.1024,18.6195 c-0.3363000000000001,0.6433000000000001 -5.1571,0.7334 -3.0227,1.8387000000000002 c1.2561,0.6516000000000002 0.9683,2.478 0.8609000000000001,3.7031 c-0.451,1.2684 -2.0243,1.1473 -3.5929,1.1473 l-2.9702,0 c-5.1826,4.8208 -5.1328,8.8734 -5.5349,14.3882 c-0.07590000000000001,1.0761 1.4060000000000001,2.7403 2.1229,3.4806 c3.2489,3.3608000000000002 5.2686,9.3339 5.5862,13.8252 l0.48250000000000004,0.005000000000000001 l-0.1398,1.0044 c1.4741,1.8954 0.5579000000000001,1.2109 0.5579000000000001,2.7252 l0.9587000000000001,0.33810000000000007 l0.017800000000000003,0.8093 c0.6232000000000001,0.456 -1.6345,3.0181 -3.7657000000000003,4.2285 c-0.05070000000000001,0.028800000000000003 -0.08630000000000002,-0.09960000000000004 -0.14350000000000002,-0.09640000000000003 c-0.5588000000000001,0.031100000000000006 -1.1103,0.14900000000000002 -1.6678000000000002,0.19880000000000003 c-0.3793000000000001,0.03380000000000001 -0.39110000000000006,-0.3998000000000001 -0.8403,-0.17090000000000002 c-0.8257000000000001,0.41990000000000005 -1.3914,1.2461 -2.0334,1.9260000000000002 c-0.037000000000000005,0.03930000000000001 0.133,0.14120000000000002 0.07900000000000001,0.14350000000000002 c-0.8357000000000001,0.039700000000000006 -1.6737000000000002,-0.014200000000000003 -2.5109,-0.027900000000000008 c-3.3969,-0.05710000000000001 -2.573,2.6845 -2.7585,2.542 c-1.0985,-0.6251000000000001 -1.3973,-1.868 -3.6802,0.054300000000000015 c-3.2717,2.7549 -7.1411,1.1863000000000001 -8.9831,4.4653 c-0.6717000000000002,1.1958 -1.7386000000000001,2.4615 -1.7386000000000001,4.2363 c0,3.5089 1.4604,3.8209 4.8806,4.0499 c2.3459000000000003,-0.21710000000000002 3.4165,-0.8627000000000001 5.4467,-1.8954 c0.9569000000000001,-0.48710000000000003 0.9377000000000001,-0.3592 1.9366,-0.7343000000000001 c0.9732,-0.3647 2.8064999999999998,-1.2767 4.0603,-1.2767 l1.1154,0 c0.4711,0 1.8502,0.6667000000000002 2.5105,0.7183 c1.1008,0.08590000000000002 1.7976,0.2856 2.9313000000000002,0.2856 l0.2792,0 c0.6095,0 0.5062,-0.28700000000000003 1.1163,-0.28700000000000003 c0.6813000000000001,0 0.4181,1.4819 0.4181,2.1518 c0.5414,0.8311000000000001 0.8174,1.9159000000000002 1.3918000000000001,2.7311 l-46.3225,0 c-9.01,0 -16.3814,-7.3714 -16.3814,-16.3814 l0,-71.5526 c0,-9.0099 7.3714,-16.3813 16.3814,-16.3813 z" class=""/><path id="path24" style="fill:#0060ab;fill-rule:evenodd" d="m78.76590830078123,90.96510439453124 c0.9440000000000001,-3.4129 1.342,-2.0069 3.2717,-4.0393 l0.16080000000000003,-0.2797 l0.3975000000000001,-0.007000000000000002 c0.8061,1.6413000000000002 2.7815,3.3494 3.5042999999999997,4.0234 c2.0097,1.8716000000000002 -2.3998,1.485 -7.3343,0.30290000000000006 z" class=""/></g></svg>