<svg width="279" height="153" viewBox="0 0 279 153" fill="none" xmlns="http://www.w3.org/2000/svg">
<path fill-rule="evenodd" clip-rule="evenodd" d="M98.0342 54.0711V50.0929C92.4932 48.7939 87.5204 46.0741 83.6031 42.3395C82.3041 41.1217 81.1472 39.8024 80.0918 38.3816L77.8997 42.0756C78.7724 43.1514 79.7061 44.1459 80.7006 45.0999C85.3689 49.5246 91.3565 52.7112 98.0342 54.0711Z" fill="#FEFEFE"/>
<path fill-rule="evenodd" clip-rule="evenodd" d="M54.071 43.476V47.5354C58.7596 46.277 62.9611 43.882 66.3101 40.675C68.8472 38.28 70.8972 35.4181 72.318 32.2721C73.3937 35.0122 74.571 37.5899 76.0323 39.579H76.0526C77.5343 37.5899 78.7115 35.0122 79.767 32.2721C81.208 35.4181 83.258 38.28 85.7748 40.675C89.1441 43.882 93.3456 46.277 98.0342 47.5354V43.476C94.4619 42.3394 91.2753 40.4112 88.657 37.935C84.2932 33.7741 81.5937 28.0504 81.5937 21.7583V8.11877C81.5937 5.947 81.1471 3.79553 80.2946 1.78613L79.5437 0L79.361 0.446535C78.1229 3.3287 77.4937 6.43413 77.4937 9.58015V21.7583C77.4937 24.8231 76.9862 28.4157 76.0526 31.1964C75.1189 28.4157 74.5912 24.8231 74.5912 21.7583V8.24055C74.5912 5.98759 74.1447 3.75493 73.2719 1.68464L72.5615 0L72.4195 0.304453C71.1611 3.2881 70.5116 6.49502 70.5116 9.72223V21.7583C70.5116 28.0504 67.7917 33.7741 63.4279 37.935C60.8299 40.4112 57.623 42.3394 54.071 43.476Z" fill="#FEFEFE"/>
<path fill-rule="evenodd" clip-rule="evenodd" d="M84.0295 17.4553V21.3929C84.0295 27.0558 86.4651 32.1909 90.3824 35.9255C92.5339 37.9755 95.1319 39.5993 98.0344 40.6344V36.4126C96.2686 35.5805 94.6651 34.4844 93.2849 33.1854C90.0983 30.1612 88.1092 25.98 88.1092 21.3929V17.4553H84.0295Z" fill="#FEFEFE"/>
<path fill-rule="evenodd" clip-rule="evenodd" d="M54.071 36.4126V40.6344C56.9532 39.5993 59.5512 37.9755 61.7027 35.9255C65.62 32.1909 68.0556 27.0558 68.0556 21.3929V17.4553H63.976V21.3929C63.976 25.98 62.0071 30.1612 58.8205 33.1854C57.4403 34.4844 55.8369 35.5805 54.071 36.4126Z" fill="#FEFEFE"/>
<path fill-rule="evenodd" clip-rule="evenodd" d="M54.071 50.0929V54.0711C60.7487 52.7112 66.716 49.5246 71.3843 45.0999C72.3789 44.1459 73.3125 43.1514 74.1853 42.0756L71.9932 38.3816C70.9581 39.8024 69.7808 41.1217 68.5021 42.3395C64.5848 46.0741 59.6121 48.7939 54.071 50.0929Z" fill="#FEFEFE"/>
<path fill-rule="evenodd" clip-rule="evenodd" d="M54.071 98.0342V102.012C59.6121 103.311 64.5848 106.031 68.5021 109.766C69.7808 110.984 70.9581 112.303 71.9932 113.744L74.1853 110.03C73.3125 108.974 72.3789 107.959 71.3843 107.005C66.716 102.581 60.7487 99.3941 54.071 98.0342Z" fill="#FEFEFE"/>
<path fill-rule="evenodd" clip-rule="evenodd" d="M63.976 134.65H68.0556V130.712C68.0556 125.049 65.62 119.914 61.7027 116.18C59.5512 114.13 56.9532 112.506 54.071 111.471V115.692C55.8369 116.525 57.4403 117.621 58.8205 118.92C62.0071 121.944 63.976 126.125 63.976 130.712V134.65Z" fill="#FEFEFE"/>
<path fill-rule="evenodd" clip-rule="evenodd" d="M84.0295 134.65H88.1092V130.712C88.1092 126.125 90.0983 121.944 93.2849 118.92C94.6651 117.621 96.2686 116.525 98.0344 115.692V111.471C95.1319 112.506 92.5339 114.13 90.3824 116.18C86.4651 119.914 84.0295 125.049 84.0295 130.712V134.65Z" fill="#FEFEFE"/>
<path fill-rule="evenodd" clip-rule="evenodd" d="M98.0342 102.012V98.0342C91.3565 99.3941 85.3689 102.581 80.7006 107.005C79.7061 107.959 78.7724 108.974 77.8997 110.03L80.0918 113.744C81.1472 112.303 82.3041 110.984 83.6031 109.766C87.5204 106.031 92.4932 103.311 98.0342 102.012Z" fill="#FEFEFE"/>
<path fill-rule="evenodd" clip-rule="evenodd" d="M43.3746 37.6306C42.3597 37.6509 41.3652 37.59 40.3706 37.4276L40.9795 39.8024C41.7508 39.8633 42.522 39.9039 43.3136 39.8836C46.9468 39.7821 50.6206 38.6658 53.8275 36.5346L52.2443 34.9514C49.5042 36.6564 46.4191 37.5494 43.3746 37.6306Z" fill="#FEFEFE"/>
<path fill-rule="evenodd" clip-rule="evenodd" d="M25.696 24.8435L32.6782 31.8257C33.9163 33.0435 35.1341 34.6875 35.8851 36.1895C34.3831 35.4385 32.739 34.2004 31.5212 32.9826L24.5391 26.0004L22.895 27.6242L29.8772 34.6266C32.4143 37.1435 33.6118 40.5127 33.5306 43.9226C33.4698 45.9726 32.9623 48.0023 31.9881 49.8899L33.6321 51.5137C34.992 49.1389 35.7227 46.5003 35.7836 43.8617C35.8242 41.8929 35.5198 39.9444 34.8094 38.0974C36.3316 38.7672 37.8539 39.3355 39.2341 39.5385C39.0311 38.1583 38.4628 36.636 37.793 35.1138C39.64 35.8039 41.5885 36.1286 43.5776 36.088C46.1959 36.0068 48.8345 35.2964 51.2092 33.9162L49.5855 32.2925C47.6979 33.2667 45.6682 33.7742 43.6182 33.8351C40.2083 33.9162 36.839 32.6984 34.3222 30.1816L27.3401 23.1995L25.696 24.8435Z" fill="#FEFEFE"/>
<path fill-rule="evenodd" clip-rule="evenodd" d="M33.5713 27.4819L35.1544 29.0651C37.4074 31.318 40.4519 32.4141 43.5168 32.3329C45.2014 32.2923 46.8861 31.9066 48.449 31.1557L46.7643 29.471C45.7291 29.8566 44.6534 30.0596 43.5777 30.0799C41.0811 30.1408 38.6253 29.268 36.7782 27.421L35.2153 25.8582L33.5713 27.4819Z" fill="#FEFEFE"/>
<path fill-rule="evenodd" clip-rule="evenodd" d="M25.5537 35.5198L27.1166 37.0827C28.9636 38.9297 29.8364 41.3856 29.7755 43.8618C29.7552 44.9376 29.5523 46.0336 29.1666 47.0687L30.8512 48.7534C31.6022 47.1905 31.9878 45.4856 32.0284 43.8212C32.1096 40.7564 31.0339 37.7119 28.7607 35.4589L27.1775 33.8757L25.5537 35.5198Z" fill="#FEFEFE"/>
<path fill-rule="evenodd" clip-rule="evenodd" d="M37.3262 43.6587C37.245 46.7235 36.3519 49.8087 34.647 52.5487L36.2301 54.1319C38.3613 50.925 39.4776 47.2513 39.5791 43.6181C39.5994 42.8265 39.5589 42.0552 39.498 41.284L37.1232 40.675C37.2856 41.6493 37.3465 42.6641 37.3262 43.6587Z" fill="#FEFEFE"/>
<path fill-rule="evenodd" clip-rule="evenodd" d="M108.792 112.526C105.138 112.607 101.485 113.744 98.2576 115.855L99.861 117.458C102.601 115.753 105.666 114.86 108.731 114.779C109.746 114.759 110.74 114.82 111.735 114.962L111.126 112.607C110.497 112.546 109.888 112.526 109.279 112.526C109.116 112.526 108.954 112.526 108.792 112.526Z" fill="#FEFEFE"/>
<path fill-rule="evenodd" clip-rule="evenodd" d="M116.322 108.528C116.261 110.496 116.586 112.465 117.276 114.312C115.754 113.643 114.252 113.074 112.871 112.871H112.851C113.054 114.251 113.622 115.753 114.292 117.276C112.465 116.586 110.497 116.261 108.528 116.322C105.91 116.383 103.271 117.113 100.876 118.473L102.5 120.097C104.387 119.143 106.437 118.636 108.467 118.575C111.877 118.493 115.266 119.691 117.783 122.208L124.765 129.21L126.409 127.566L119.407 120.584C118.189 119.346 116.951 117.702 116.22 116.22C117.702 116.951 119.346 118.189 120.584 119.427L127.566 126.409L129.19 124.765L122.208 117.783C119.691 115.266 118.494 111.877 118.575 108.467C118.615 106.437 119.143 104.387 120.097 102.52L118.473 100.876C117.093 103.271 116.383 105.909 116.322 108.528Z" fill="#FEFEFE"/>
<path fill-rule="evenodd" clip-rule="evenodd" d="M108.589 120.077C106.904 120.117 105.219 120.503 103.636 121.234L105.341 122.939C106.376 122.553 107.452 122.35 108.528 122.33C111.004 122.269 113.48 123.142 115.307 124.989L116.89 126.551L118.514 124.907L116.951 123.344C114.759 121.152 111.857 120.056 108.893 120.056C108.792 120.056 108.69 120.056 108.589 120.077Z" fill="#FEFEFE"/>
<path fill-rule="evenodd" clip-rule="evenodd" d="M120.056 108.589C119.996 111.654 121.071 114.678 123.344 116.951L124.907 118.534L126.551 116.89L124.968 115.307C123.142 113.48 122.248 111.024 122.33 108.528C122.35 107.452 122.553 106.376 122.939 105.341L121.234 103.636C120.503 105.219 120.097 106.904 120.056 108.589Z" fill="#FEFEFE"/>
<path fill-rule="evenodd" clip-rule="evenodd" d="M112.526 108.792C112.506 109.563 112.526 110.355 112.608 111.126L114.962 111.735C114.82 110.74 114.759 109.746 114.779 108.731C114.861 105.686 115.754 102.601 117.459 99.861L115.855 98.2778C113.724 101.485 112.608 105.158 112.526 108.792Z" fill="#FEFEFE"/>
<path fill-rule="evenodd" clip-rule="evenodd" d="M34.7888 100.003C36.4938 102.743 37.3868 105.828 37.468 108.893C37.4883 109.887 37.4274 110.902 37.2854 111.877L39.6398 111.268C39.7209 110.496 39.7413 109.725 39.721 108.933C39.6398 105.3 38.5235 101.627 36.3923 98.4197L34.7888 100.003Z" fill="#FEFEFE"/>
<path fill-rule="evenodd" clip-rule="evenodd" d="M32.1504 102.662C33.1043 104.549 33.632 106.579 33.6726 108.629C33.7538 112.039 32.5563 115.408 30.0395 117.925L23.0574 124.907L24.6811 126.551L31.6632 119.569C32.9014 118.331 34.5454 117.113 36.0271 116.362C35.2964 117.864 34.0583 119.508 32.8202 120.726L25.838 127.708L27.4821 129.352L34.4642 122.37C36.9811 119.853 40.3706 118.636 43.7805 118.717C45.8102 118.778 47.8602 119.285 49.7478 120.259L51.3715 118.636C48.9765 117.255 46.3379 116.525 43.7196 116.464C41.7508 116.423 39.782 116.748 37.9553 117.438C38.6048 115.916 39.1731 114.393 39.3761 113.013C37.9959 113.216 36.4939 113.785 34.9717 114.454C35.6618 112.607 35.9865 110.659 35.9256 108.67C35.8647 106.051 35.134 103.413 33.7741 101.038L32.1504 102.662Z" fill="#FEFEFE"/>
<path fill-rule="evenodd" clip-rule="evenodd" d="M29.3089 105.483C29.6945 106.518 29.8975 107.594 29.9178 108.69C29.9787 111.166 29.1059 113.622 27.2792 115.469L25.696 117.032L27.3401 118.676L28.903 117.093C31.1762 114.84 32.252 111.796 32.1911 108.731C32.1302 107.066 31.7445 105.361 31.0138 103.799L29.3089 105.483Z" fill="#FEFEFE"/>
<path fill-rule="evenodd" clip-rule="evenodd" d="M35.2965 123.487L33.7336 125.07L35.3574 126.693L36.9405 125.131C38.7673 123.284 41.2232 122.411 43.7197 122.472C44.7954 122.492 45.8712 122.695 46.9063 123.081L48.6113 121.396C47.0281 120.645 45.3434 120.259 43.6588 120.219C43.5573 120.219 43.4558 120.219 43.3544 120.219C40.391 120.219 37.4886 121.294 35.2965 123.487Z" fill="#FEFEFE"/>
<path fill-rule="evenodd" clip-rule="evenodd" d="M41.1216 112.749L40.5127 115.124C41.5072 114.962 42.5018 114.901 43.5166 114.921C46.5814 115.002 49.6463 115.895 52.3863 117.6L53.9898 116.017C50.7626 113.886 47.1092 112.77 43.4557 112.668C43.2933 112.668 43.131 112.668 42.9686 112.668C42.3597 112.668 41.7305 112.689 41.1216 112.749Z" fill="#FEFEFE"/>
<path fill-rule="evenodd" clip-rule="evenodd" d="M112.445 41.1419C112.384 41.9132 112.344 42.6845 112.364 43.4558C112.465 47.1092 113.582 50.7829 115.713 53.9899L117.316 52.3864C115.611 49.6666 114.698 46.5815 114.637 43.5166C114.597 42.5221 114.657 41.5072 114.82 40.5127L112.445 41.1419Z" fill="#FEFEFE"/>
<path fill-rule="evenodd" clip-rule="evenodd" d="M117.641 30.0395C115.104 32.5563 111.735 33.7741 108.325 33.6727C106.295 33.6321 104.245 33.1246 102.357 32.1504L100.734 33.7741C103.108 35.1543 105.747 35.8647 108.386 35.9256C110.354 35.9865 112.323 35.6618 114.15 34.9717C113.48 36.4939 112.912 37.9959 112.709 39.3761V39.3964H112.729C114.109 39.1934 115.611 38.6251 117.134 37.9553C116.443 39.782 116.119 41.7508 116.159 43.7196C116.241 46.3379 116.951 48.9968 118.331 51.3716L119.955 49.7478C118.981 47.8602 118.473 45.8102 118.433 43.7805C118.331 40.3706 119.549 36.9811 122.066 34.4642L129.048 27.4821L127.404 25.8583L120.422 32.8405C119.204 34.0583 117.56 35.2964 116.058 36.0271C116.809 34.5454 118.047 32.9014 119.265 31.6633L126.247 24.6811L124.623 23.0574L117.641 30.0395Z" fill="#FEFEFE"/>
<path fill-rule="evenodd" clip-rule="evenodd" d="M123.182 35.2963C120.929 37.5695 119.833 40.5938 119.914 43.6586C119.955 45.3432 120.341 47.0279 121.092 48.611L122.776 46.9061C122.411 45.871 122.208 44.7952 122.167 43.7195C122.107 41.2433 122.979 38.767 124.826 36.9403L126.409 35.3572L124.765 33.7334L123.182 35.2963Z" fill="#FEFEFE"/>
<path fill-rule="evenodd" clip-rule="evenodd" d="M115.165 27.2792C113.318 29.1059 110.862 29.999 108.385 29.9381C107.31 29.8975 106.214 29.6945 105.179 29.3292L103.494 31.0138C105.077 31.7445 106.762 32.1505 108.446 32.1911C111.491 32.2722 114.535 31.1762 116.809 28.903L118.372 27.3401L116.727 25.696L115.165 27.2792Z" fill="#FEFEFE"/>
<path fill-rule="evenodd" clip-rule="evenodd" d="M98.1152 36.3923C101.322 38.5235 104.996 39.6398 108.649 39.721C109.421 39.7413 110.192 39.721 110.963 39.6398L111.572 37.2853C110.598 37.4274 109.583 37.5086 108.588 37.468C105.524 37.3868 102.438 36.4938 99.7187 34.7888L98.1152 36.3923Z" fill="#FEFEFE"/>
<path fill-rule="evenodd" clip-rule="evenodd" d="M54.071 98.0342V102.012C59.6121 103.311 64.5848 106.031 68.5021 109.766C69.7808 110.984 70.9581 112.303 71.9932 113.744L74.1853 110.03C73.3125 108.974 72.3789 107.959 71.3843 107.005C66.716 102.581 60.7487 99.3941 54.071 98.0342Z" fill="#FEFEFE"/>
<path fill-rule="evenodd" clip-rule="evenodd" d="M63.976 134.65H68.0556V130.712C68.0556 125.049 65.62 119.914 61.7027 116.18C59.5512 114.13 56.9532 112.506 54.071 111.471V115.692C55.8369 116.525 57.4403 117.621 58.8205 118.92C62.0071 121.944 63.976 126.125 63.976 130.712V134.65Z" fill="#FEFEFE"/>
<path fill-rule="evenodd" clip-rule="evenodd" d="M84.0295 134.65H88.1092V130.712C88.1092 126.125 90.0983 121.944 93.2849 118.92C94.6651 117.621 96.2686 116.525 98.0344 115.692V111.471C95.1319 112.506 92.5339 114.13 90.3824 116.18C86.4651 119.914 84.0295 125.049 84.0295 130.712V134.65Z" fill="#FEFEFE"/>
<path fill-rule="evenodd" clip-rule="evenodd" d="M98.0342 102.012V98.0342C91.3565 99.3941 85.3689 102.581 80.7006 107.005C79.7061 107.959 78.7724 108.974 77.8997 110.03L80.0918 113.744C81.1472 112.303 82.3041 110.984 83.6031 109.766C87.5204 106.031 92.4932 103.311 98.0342 102.012Z" fill="#FEFEFE"/>
<path fill-rule="evenodd" clip-rule="evenodd" d="M107.005 80.7209C102.56 85.3892 99.3738 91.3565 98.0342 98.0342H102.012C103.291 92.4932 106.031 87.5204 109.745 83.6031C110.984 82.3244 112.303 81.1472 113.724 80.0917L110.009 77.8997C108.954 78.7724 107.959 79.7264 107.005 80.7209Z" fill="#FEFEFE"/>
<path fill-rule="evenodd" clip-rule="evenodd" d="M108.629 54.071H104.55C105.828 58.7596 108.223 62.9611 111.41 66.3304C113.825 68.8472 116.667 70.8972 119.833 72.3383C117.093 73.3937 114.495 74.5709 112.526 76.0526H112.506L112.526 76.0729C114.495 77.5343 117.093 78.7115 119.833 79.7669C116.667 81.208 113.825 83.258 111.41 85.7748C108.223 89.1441 105.828 93.3456 104.55 98.0342H108.629C109.766 94.4822 111.694 91.2753 114.17 88.6773C118.311 84.2932 124.055 81.5937 130.347 81.5937H143.966C146.158 81.5937 148.31 81.1471 150.319 80.2947L152.105 79.5437L151.659 79.361C148.777 78.1432 145.651 77.514 142.505 77.514L130.347 77.4937C127.282 77.4937 123.69 76.9863 120.909 76.0526C123.69 75.119 127.282 74.6115 130.347 74.6115H143.865C146.118 74.6115 148.35 74.1447 150.421 73.2719L152.105 72.5615L151.78 72.4195C148.817 71.1611 145.61 70.5116 142.383 70.5116H130.347C124.055 70.5116 118.311 67.8121 114.17 63.4279C111.694 60.8299 109.766 57.6433 108.629 54.071Z" fill="#FEFEFE"/>
<path fill-rule="evenodd" clip-rule="evenodd" d="M134.65 84.0293H130.712C125.049 84.0293 119.914 86.4649 116.18 90.4025C114.13 92.554 112.506 95.152 111.471 98.0342H115.692C116.525 96.2683 117.621 94.6649 118.92 93.2847C121.944 90.0981 126.125 88.1293 130.712 88.1293H134.65V84.0293Z" fill="#FEFEFE"/>
<path fill-rule="evenodd" clip-rule="evenodd" d="M115.692 54.071H111.471C112.506 56.9532 114.13 59.5715 116.18 61.7027C119.914 65.6403 125.049 68.0759 130.712 68.0759H134.65V63.9759H130.712C126.125 63.9759 121.944 62.0071 118.92 58.8205C117.621 57.4403 116.525 55.8369 115.692 54.071Z" fill="#FEFEFE"/>
<path fill-rule="evenodd" clip-rule="evenodd" d="M102.012 54.071H98.0342C99.3738 60.7487 102.56 66.7363 107.005 71.3843C107.959 72.3992 108.954 73.3328 110.009 74.2056L113.724 72.0135C112.303 70.9581 110.984 69.7809 109.745 68.5022C106.031 64.5849 103.291 59.6121 102.012 54.071Z" fill="#FEFEFE"/>
<path fill-rule="evenodd" clip-rule="evenodd" d="M54.0711 54.071H50.0929C48.7939 59.6121 46.0741 64.5849 42.3395 68.5022C41.1217 69.7809 39.7821 70.9581 38.3613 72.0135L42.0756 74.2056C43.1311 73.3328 44.1459 72.3992 45.0999 71.3843C49.5246 66.7363 52.7112 60.7487 54.0711 54.071Z" fill="#FEFEFE"/>
<path fill-rule="evenodd" clip-rule="evenodd" d="M47.5354 54.071H43.476C42.3191 57.6433 40.4112 60.8299 37.935 63.4279C33.7741 67.8121 28.0504 70.5116 21.7583 70.5116H8.11877C5.947 70.5116 3.77524 70.9581 1.78614 71.8106L0 72.5615L0.42628 72.7442C3.32874 73.962 6.43413 74.6115 9.58015 74.6115H21.7583C24.8231 74.6115 28.4157 75.119 31.1964 76.0526C28.4157 76.9863 24.8231 77.4937 21.7583 77.4937L8.24055 77.514C5.98759 77.514 3.75495 77.9605 1.66436 78.8333L0 79.5437L0.304503 79.6858C3.28815 80.9442 6.49503 81.5937 9.72224 81.5937H21.7583C28.0504 81.5937 33.7741 84.2932 37.935 88.6773C40.4112 91.2753 42.3191 94.4822 43.476 98.0342H47.5354C46.277 93.3456 43.882 89.1441 40.6751 85.7748C38.28 83.258 35.4182 81.208 32.2518 79.7669C34.9919 78.7115 37.5899 77.5343 39.579 76.0729V76.0526C37.5899 74.5709 34.9919 73.3937 32.2518 72.3383C35.4182 70.8972 38.28 68.8472 40.6751 66.3304C43.882 62.9611 46.277 58.7596 47.5354 54.071Z" fill="#FEFEFE"/>
<path fill-rule="evenodd" clip-rule="evenodd" d="M40.6344 54.071H36.3924C35.5805 55.8369 34.4844 57.4403 33.1854 58.8205C30.1409 62.0071 25.98 63.9759 21.3929 63.9759H17.4553V68.0759H21.3929C27.0558 68.0759 32.1909 65.6403 35.9255 61.7027C37.9755 59.5715 39.579 56.9532 40.6344 54.071Z" fill="#FEFEFE"/>
<path fill-rule="evenodd" clip-rule="evenodd" d="M21.3929 84.0293H17.4553V88.1293H21.3929C25.98 88.1293 30.1409 90.0981 33.1854 93.2847C34.4844 94.6649 35.5805 96.2683 36.3924 98.0342H40.6344C39.579 95.152 37.9755 92.554 35.9255 90.4025C32.1909 86.4649 27.0558 84.0293 21.3929 84.0293Z" fill="#FEFEFE"/>
<path fill-rule="evenodd" clip-rule="evenodd" d="M38.3613 80.0917C39.7821 81.1472 41.1217 82.3244 42.3395 83.6031C46.0741 87.5204 48.7939 92.4932 50.0929 98.0342H54.0711C52.7112 91.3565 49.5246 85.3892 45.0999 80.7209C44.1459 79.7264 43.1311 78.7724 42.0756 77.8997L38.3613 80.0917Z" fill="#FEFEFE"/>
<path d="M174.127 56.9327H167.551V52.2035H169.439L171.042 23.8081H183.16V56.9327H178.207V28.5373H175.731L174.127 56.9327Z" fill="#FEFEFE"/>
<path d="M201.873 23.8081H206.826V56.9327H201.873V23.8081ZM191.217 52.2035H194.993V40.8372H191.217V52.2035ZM199.965 54.7609C199.965 56.0396 199.113 56.9327 197.793 56.9327H186.245V23.8081H191.217V36.108H197.793C199.113 36.108 199.965 37.0214 199.965 38.3001V54.7609Z" fill="#FEFEFE"/>
<path d="M218.902 56.9327V41.3244H217.908L214.559 56.9327H209.444L213.605 38.9496L209.667 23.8081H214.782L217.908 36.5952H218.902V23.8081H223.875V36.5952H224.87L227.995 23.8081H233.11L229.173 38.9496L233.333 56.9327H228.219L224.87 41.3244H223.875V56.9327H218.902Z" fill="#FEFEFE"/>
<path d="M251.316 23.8081V56.9327H246.364V41.3244H240.904V56.9327H235.952V23.8081H240.904V36.5952H246.364V23.8081H251.316Z" fill="#FEFEFE"/>
<path d="M264.814 28.5373H260.328V36.5952H264.814V28.5373ZM254.158 56.9327L259.05 41.3244H257.527C256.208 41.3244 255.356 40.411 255.356 39.1323V25.9799C255.356 24.7012 256.208 23.8081 257.527 23.8081H269.787V56.9327H264.814V41.3244H264.347L259.415 56.9327H254.158Z" fill="#FEFEFE"/>
<path d="M172.28 83.4H177.009V70.613H172.28V83.4ZM172.28 88.1292V99.0287H167.308V65.8838H179.81C181.13 65.8838 181.982 66.7972 181.982 68.0556V85.9574C181.982 87.2362 181.13 88.1292 179.81 88.1292H172.28Z" fill="#FEFEFE"/>
<path d="M194.526 70.613H189.553V94.2792H194.526V70.613ZM186.772 99.0287C185.433 99.0287 184.58 98.1153 184.58 96.8366V68.0556C184.58 66.7972 185.433 65.8838 186.772 65.8838H197.327C198.646 65.8838 199.499 66.7972 199.499 68.0556V96.8366C199.499 98.1153 198.646 99.0287 197.327 99.0287H186.772Z" fill="#FEFEFE"/>
<path d="M204.512 99.0287C203.193 99.0287 202.34 98.1153 202.34 96.8366V68.0556C202.34 66.7972 203.193 65.8838 204.512 65.8838H216.771V75.3625H211.798V70.613H207.313V94.2792H211.798V88.1292H216.771V99.0287H204.512Z" fill="#FEFEFE"/>
<path d="M221.561 99.0287C220.222 99.0287 219.369 98.1153 219.369 96.8366V68.0556C219.369 66.7972 220.222 65.8838 221.561 65.8838H233.821V75.3625H228.848V70.613H224.342V94.2792H228.848V88.1292H233.821V99.0287H221.561Z" fill="#FEFEFE"/>
<path d="M246.831 99.0287V80.457L241.391 91.8639V99.0287H236.419V65.8838H241.391V82.7302L246.831 71.3234V65.8838H251.804V99.0287H246.831Z" fill="#FEFEFE"/>
<path d="M265.058 99.0287V80.457L259.618 91.8639V99.0287H254.645V65.8838H259.618V82.7302L265.058 71.3234V65.8838H270.03V99.0287H265.058Z" fill="#FEFEFE"/>
<path fill-rule="evenodd" clip-rule="evenodd" d="M54.071 104.57V108.629C57.623 109.786 60.8299 111.694 63.4279 114.17C67.7917 118.331 70.5116 124.055 70.5116 130.347V147.275L72.5615 150.786L74.5912 147.275V130.347C74.5912 127.282 75.1189 123.69 76.0526 120.909C76.9862 123.69 77.4937 127.282 77.4937 130.347V147.275L79.5437 150.786L81.5937 147.275V130.347C81.5937 124.055 84.2932 118.331 88.657 114.17C91.2753 111.694 94.4619 109.786 98.0342 108.629V104.57C93.3456 105.828 89.1441 108.223 85.7748 111.43C83.258 113.825 81.208 116.687 79.767 119.833C78.7115 117.093 77.5343 114.515 76.0526 112.526H76.0323C74.571 114.515 73.3937 117.093 72.318 119.833C70.8972 116.687 68.8472 113.825 66.3101 111.43C62.9611 108.223 58.7596 105.828 54.071 104.57Z" fill="#FEFEFE"/>
<path fill-rule="evenodd" clip-rule="evenodd" d="M54.071 104.57V108.629C57.623 109.786 60.8299 111.694 63.4279 114.17C67.7917 118.331 70.5116 124.055 70.5116 130.347V143.986C70.5116 146.158 70.9581 148.31 71.7903 150.319L72.5615 152.105L72.7442 151.679C73.962 148.777 74.5912 145.671 74.5912 142.525V130.347C74.5912 127.282 75.1189 123.69 76.0526 120.909C76.9862 123.69 77.4937 127.282 77.4937 130.347V143.865C77.4937 146.118 77.9605 148.35 78.8333 150.421L79.5437 152.105L79.6654 151.801C80.9441 148.817 81.5937 145.61 81.5937 142.383V130.347C81.5937 124.055 84.2932 118.331 88.657 114.17C91.2753 111.694 94.4619 109.786 98.0342 108.629V104.57C93.3456 105.828 89.1441 108.223 85.7748 111.43C83.258 113.825 81.208 116.687 79.767 119.833C78.7115 117.093 77.5343 114.515 76.0526 112.526H76.0323C74.571 114.515 73.3937 117.093 72.318 119.833C70.8972 116.687 68.8472 113.825 66.3101 111.43C62.9611 108.223 58.7596 105.828 54.071 104.57Z" fill="#FEFEFE"/>
<path d="M171.904 121.8L173.968 112.2H177.04V129H174.52V121.8L174.928 117H174.808L173.056 125.64H170.704L168.904 117H168.784L169.24 121.8V129H166.72V112.2H169.792L171.832 121.8H171.904ZM182.206 126.6H184.726V114.6H182.206V126.6ZM186.142 129H180.79C180.118 129 179.686 128.544 179.686 127.896V113.304C179.686 112.656 180.118 112.2 180.79 112.2H186.142C186.814 112.2 187.246 112.656 187.246 113.304V127.896C187.246 128.544 186.814 129 186.142 129ZM197.206 129H190.99C190.318 129 189.886 128.544 189.886 127.896V113.304C189.886 112.656 190.318 112.2 190.99 112.2H197.206V117H194.686V114.6H192.406V126.6H194.686V123.48H197.206V129ZM205.182 119.88L207.774 129H205.11L202.902 121.08H202.254V129H199.734V112.2H202.254V118.68H202.974L205.11 112.2H207.774L205.182 119.88ZM214.617 118.68V114.6H212.337V118.68H214.617ZM214.617 121.08H212.337V126.6H214.617V121.08ZM217.137 113.304V118.008C217.137 118.968 216.633 119.616 215.889 119.88C216.633 120.144 217.137 120.768 217.137 121.752V127.896C217.137 128.544 216.705 129 216.033 129H209.817V112.2H216.033C216.705 112.2 217.137 112.656 217.137 113.304ZM219.783 112.2H227.223V129H224.703V123.48H222.303V129H219.783V112.2ZM224.703 121.08V114.6H222.303V121.08H224.703ZM241.863 113.304V117.336L237.543 125.856V126.6H241.863V129H235.023V125.52L239.343 117V114.6H237.543V117H235.023V113.304C235.023 112.656 235.455 112.2 236.127 112.2H240.759C241.431 112.2 241.863 112.656 241.863 113.304ZM246.902 126.6H248.702V114.6H246.902V126.6ZM250.118 129H245.486C244.814 129 244.382 128.544 244.382 127.896V113.304C244.382 112.656 244.814 112.2 245.486 112.2H250.118C250.79 112.2 251.222 112.656 251.222 113.304V127.896C251.222 128.544 250.79 129 250.118 129ZM260.576 113.304V117.336L256.256 125.856V126.6H260.576V129H253.736V125.52L258.056 117V114.6H256.256V117H253.736V113.304C253.736 112.656 254.168 112.2 254.84 112.2H259.472C260.144 112.2 260.576 112.656 260.576 113.304ZM269.575 129H267.055V125.88H262.855V123.72L266.167 112.2H268.807L265.567 123.48H267.055V121.32L269.575 120.84V123.48H270.535V125.88H269.575V129Z" fill="white"/>
</svg>
