<svg width="313" height="177" viewBox="0 0 313 177" fill="none" xmlns="http://www.w3.org/2000/svg">
<path fill-rule="evenodd" clip-rule="evenodd" d="M114.088 63.1973V58.607C107.694 57.1081 101.956 53.9699 97.4362 49.6606C95.9373 48.2554 94.6024 46.7331 93.3846 45.0938L90.8552 49.3562C91.8623 50.5974 92.9396 51.745 94.0872 52.8457C99.4738 57.9513 106.383 61.6282 114.088 63.1973Z" fill="#FEFEFE"/>
<path fill-rule="evenodd" clip-rule="evenodd" d="M63.3604 50.972V55.656C68.7703 54.204 73.6183 51.4404 77.4825 47.7401C80.41 44.9765 82.7754 41.6743 84.4148 38.0443C85.6561 41.2059 87.0144 44.1803 88.7007 46.4754H88.7241C90.4337 44.1803 91.7921 41.2059 93.0099 38.0443C94.6727 41.6743 97.0381 44.9765 99.9422 47.7401C103.83 51.4404 108.678 54.204 114.088 55.656V50.972C109.966 49.6605 106.289 47.4356 103.268 44.5784C98.2326 39.7773 95.1177 33.1729 95.1177 25.9128V10.1746C95.1177 7.66867 94.6024 5.18616 93.6188 2.86759L92.7523 0.806641L92.5415 1.32188C91.1129 4.6475 90.3869 8.23075 90.3869 11.8608V25.9128C90.3869 29.4492 89.8014 33.5945 88.7241 36.803C87.6467 33.5945 87.0378 29.4492 87.0378 25.9128V10.3151C87.0378 7.71551 86.5226 5.13932 85.5155 2.75049L84.6958 0.806641L84.5319 1.15794C83.0799 4.60066 82.3305 8.30101 82.3305 12.0248V25.9128C82.3305 33.1729 79.1922 39.7773 74.1569 44.5784C71.1591 47.4356 67.4588 49.6605 63.3604 50.972Z" fill="#FEFEFE"/>
<path fill-rule="evenodd" clip-rule="evenodd" d="M97.9282 20.9478V25.4912C97.9282 32.0254 100.739 37.9506 105.259 42.2598C107.741 44.6253 110.739 46.4988 114.088 47.6933V42.8219C112.05 41.8617 110.2 40.597 108.608 39.0982C104.931 35.6086 102.636 30.7841 102.636 25.4912V20.9478H97.9282Z" fill="#FEFEFE"/>
<path fill-rule="evenodd" clip-rule="evenodd" d="M63.3604 42.8219V47.6933C66.686 46.4988 69.6837 44.6253 72.1662 42.2598C76.6863 37.9506 79.4966 32.0254 79.4966 25.4912V20.9478H74.7893V25.4912C74.7893 30.7841 72.5175 35.6086 68.8406 39.0982C67.248 40.597 65.3979 41.8617 63.3604 42.8219Z" fill="#FEFEFE"/>
<path fill-rule="evenodd" clip-rule="evenodd" d="M63.3604 58.607V63.1973C71.0655 61.6282 77.9509 57.9513 83.3375 52.8457C84.4851 51.745 85.5624 50.5974 86.5695 49.3562L84.0401 45.0938C82.8457 46.7331 81.4873 48.2554 80.0119 49.6606C75.4918 53.9699 69.754 57.1081 63.3604 58.607Z" fill="#FEFEFE"/>
<path fill-rule="evenodd" clip-rule="evenodd" d="M63.3604 113.925V118.515C69.754 120.014 75.4918 123.152 80.0119 127.461C81.4873 128.867 82.8457 130.389 84.0401 132.052L86.5695 127.766C85.5624 126.548 84.4851 125.377 83.3375 124.276C77.9509 119.171 71.0655 115.494 63.3604 113.925Z" fill="#FEFEFE"/>
<path fill-rule="evenodd" clip-rule="evenodd" d="M74.7893 156.174H79.4966V151.631C79.4966 145.097 76.6863 139.171 72.1662 134.862C69.6837 132.497 66.686 130.623 63.3604 129.429V134.3C65.3979 135.26 67.248 136.525 68.8406 138.024C72.5175 141.513 74.7893 146.338 74.7893 151.631V156.174Z" fill="#FEFEFE"/>
<path fill-rule="evenodd" clip-rule="evenodd" d="M97.9282 156.174H102.636V151.631C102.636 146.338 104.931 141.513 108.608 138.024C110.2 136.525 112.05 135.26 114.088 134.3V129.429C110.739 130.623 107.741 132.497 105.259 134.862C100.739 139.171 97.9282 145.097 97.9282 151.631V156.174Z" fill="#FEFEFE"/>
<path fill-rule="evenodd" clip-rule="evenodd" d="M114.088 118.515V113.925C106.383 115.494 99.4738 119.171 94.0872 124.276C92.9396 125.377 91.8623 126.548 90.8552 127.766L93.3846 132.052C94.6024 130.389 95.9373 128.867 97.4362 127.461C101.956 123.152 107.694 120.014 114.088 118.515Z" fill="#FEFEFE"/>
<path fill-rule="evenodd" clip-rule="evenodd" d="M51.0182 44.2272C49.8472 44.2506 48.6996 44.1803 47.552 43.993L48.2546 46.7331C49.1445 46.8034 50.0345 46.8502 50.9478 46.8268C55.14 46.7097 59.3791 45.4216 63.0794 42.9625L61.2526 41.1357C58.091 43.103 54.5312 44.1335 51.0182 44.2272Z" fill="#FEFEFE"/>
<path fill-rule="evenodd" clip-rule="evenodd" d="M30.6194 29.4727L38.6759 37.5291C40.1045 38.9343 41.5097 40.8313 42.3762 42.5644C40.6432 41.6979 38.7461 40.2693 37.3409 38.8641L29.2845 30.8076L27.3875 32.6812L35.4439 40.7611C38.3714 43.6651 39.7532 47.5528 39.6595 51.4874C39.5893 53.8528 39.0037 56.1948 37.8796 58.3728L39.7766 60.2464C41.3457 57.5063 42.1888 54.4617 42.2591 51.4171C42.3059 49.1454 41.9547 46.8971 41.135 44.7659C42.8915 45.5387 44.6479 46.1945 46.2405 46.4287C46.0063 44.8361 45.3506 43.0796 44.5777 41.3232C46.7089 42.1194 48.9572 42.4941 51.2523 42.4473C54.2735 42.3536 57.3181 41.5339 60.0582 39.9414L58.1847 38.0678C56.0066 39.1919 53.6646 39.7774 51.2992 39.8477C47.3647 39.9414 43.4769 38.5362 40.5729 35.6321L32.5164 27.5757L30.6194 29.4727Z" fill="#FEFEFE"/>
<path fill-rule="evenodd" clip-rule="evenodd" d="M39.7063 32.5171L41.533 34.3439C44.1327 36.9435 47.6456 38.2082 51.182 38.1145C53.1259 38.0677 55.0698 37.6227 56.8731 36.7561L54.9292 34.8123C53.7348 35.2573 52.4935 35.4915 51.2523 35.5149C48.3716 35.5851 45.5379 34.5781 43.4067 32.4469L41.6033 30.6436L39.7063 32.5171Z" fill="#FEFEFE"/>
<path fill-rule="evenodd" clip-rule="evenodd" d="M30.4553 41.7915L32.2587 43.5949C34.3899 45.7261 35.397 48.5599 35.3267 51.4171C35.3033 52.6584 35.0691 53.923 34.6241 55.1175L36.5679 57.0613C37.4345 55.258 37.8794 53.2907 37.9263 51.3703C38.0199 47.8339 36.7787 44.3209 34.1557 41.7213L32.329 39.8945L30.4553 41.7915Z" fill="#FEFEFE"/>
<path fill-rule="evenodd" clip-rule="evenodd" d="M44.039 51.1827C43.9453 54.7191 42.9148 58.2789 40.9475 61.4406L42.7743 63.2674C45.2333 59.567 46.5214 55.328 46.6385 51.1359C46.6619 50.2225 46.6152 49.3325 46.5449 48.4426L43.8047 47.74C43.9921 48.8641 44.0624 50.0351 44.039 51.1827Z" fill="#FEFEFE"/>
<path fill-rule="evenodd" clip-rule="evenodd" d="M126.5 130.646C122.285 130.74 118.069 132.052 114.345 134.487L116.196 136.338C119.357 134.37 122.894 133.34 126.43 133.246C127.601 133.223 128.749 133.293 129.896 133.457L129.194 130.74C128.468 130.67 127.765 130.646 127.062 130.646C126.875 130.646 126.688 130.646 126.5 130.646Z" fill="#FEFEFE"/>
<path fill-rule="evenodd" clip-rule="evenodd" d="M135.189 126.033C135.119 128.304 135.494 130.576 136.29 132.707C134.533 131.934 132.8 131.279 131.208 131.045H131.184C131.419 132.637 132.074 134.37 132.847 136.127C130.739 135.33 128.468 134.956 126.196 135.026C123.175 135.096 120.13 135.939 117.367 137.508L119.24 139.382C121.418 138.281 123.784 137.696 126.126 137.626C130.06 137.532 133.971 138.914 136.875 141.818L144.932 149.898L146.829 148.001L138.749 139.944C137.344 138.515 135.915 136.618 135.072 134.909C136.782 135.752 138.679 137.181 140.107 138.609L148.164 146.666L150.037 144.769L141.981 136.712C139.077 133.808 137.695 129.897 137.789 125.962C137.836 123.62 138.445 121.255 139.545 119.1L137.672 117.203C136.079 119.967 135.259 123.012 135.189 126.033Z" fill="#FEFEFE"/>
<path fill-rule="evenodd" clip-rule="evenodd" d="M126.266 139.359C124.322 139.405 122.379 139.85 120.552 140.694L122.519 142.661C123.714 142.216 124.955 141.982 126.196 141.958C129.053 141.888 131.91 142.895 134.018 145.026L135.845 146.83L137.719 144.933L135.915 143.129C133.386 140.6 130.037 139.335 126.618 139.335C126.5 139.335 126.383 139.335 126.266 139.359Z" fill="#FEFEFE"/>
<path fill-rule="evenodd" clip-rule="evenodd" d="M139.498 126.103C139.428 129.64 140.669 133.129 143.292 135.752L145.096 137.579L146.993 135.682L145.166 133.855C143.058 131.747 142.028 128.914 142.121 126.033C142.145 124.792 142.379 123.55 142.824 122.356L140.857 120.389C140.014 122.215 139.545 124.159 139.498 126.103Z" fill="#FEFEFE"/>
<path fill-rule="evenodd" clip-rule="evenodd" d="M130.81 126.337C130.786 127.227 130.81 128.141 130.903 129.031L133.62 129.733C133.456 128.586 133.386 127.438 133.409 126.267C133.503 122.754 134.534 119.194 136.501 116.033L134.651 114.206C132.192 117.906 130.903 122.145 130.81 126.337Z" fill="#FEFEFE"/>
<path fill-rule="evenodd" clip-rule="evenodd" d="M41.1113 116.196C43.0786 119.358 44.1091 122.918 44.2028 126.454C44.2262 127.602 44.1559 128.773 43.992 129.897L46.7086 129.194C46.8023 128.304 46.8258 127.415 46.8023 126.501C46.7087 122.309 45.4206 118.07 42.9615 114.37L41.1113 116.196Z" fill="#FEFEFE"/>
<path fill-rule="evenodd" clip-rule="evenodd" d="M38.0668 119.264C39.1675 121.443 39.7764 123.784 39.8233 126.15C39.9169 130.084 38.5352 133.972 35.6312 136.876L27.5747 144.933L29.4483 146.83L37.5047 138.773C38.9333 137.345 40.8303 135.939 42.54 135.073C41.6969 136.806 40.2683 138.703 38.8397 140.108L30.7832 148.165L32.6802 150.062L40.7367 142.005C43.6407 139.101 47.5518 137.696 51.4864 137.79C53.8284 137.86 56.1938 138.445 58.3718 139.569L60.2454 137.696C57.4819 136.103 54.4373 135.26 51.4161 135.19C49.1444 135.143 46.8727 135.518 44.7649 136.314C45.5143 134.558 46.1701 132.801 46.4043 131.209C44.8118 131.443 43.0787 132.099 41.3222 132.871C42.1184 130.74 42.4932 128.492 42.4229 126.197C42.3526 123.176 41.5095 120.131 39.9404 117.391L38.0668 119.264Z" fill="#FEFEFE"/>
<path fill-rule="evenodd" clip-rule="evenodd" d="M34.7881 122.52C35.2331 123.714 35.4673 124.955 35.4908 126.22C35.561 129.077 34.5539 131.911 32.4461 134.042L30.6194 135.846L32.5164 137.743L34.3198 135.916C36.9428 133.316 38.184 129.803 38.1138 126.267C38.0435 124.347 37.5985 122.379 36.7554 120.576L34.7881 122.52Z" fill="#FEFEFE"/>
<path fill-rule="evenodd" clip-rule="evenodd" d="M41.6971 143.293L39.8938 145.12L41.7674 146.994L43.5941 145.19C45.7019 143.059 48.5357 142.052 51.4163 142.122C52.6576 142.146 53.8989 142.38 55.0933 142.825L57.0605 140.881C55.2338 140.015 53.2899 139.57 51.3461 139.523C51.229 139.523 51.1119 139.523 50.9948 139.523C47.5755 139.523 44.2265 140.764 41.6971 143.293Z" fill="#FEFEFE"/>
<path fill-rule="evenodd" clip-rule="evenodd" d="M48.4184 130.904L47.7158 133.644C48.8634 133.457 50.0109 133.386 51.1819 133.41C54.7183 133.504 58.2547 134.534 61.4164 136.501L63.2666 134.675C59.5428 132.215 55.3272 130.927 51.1117 130.81C50.9243 130.81 50.737 130.81 50.5496 130.81C49.847 130.81 49.121 130.834 48.4184 130.904Z" fill="#FEFEFE"/>
<path fill-rule="evenodd" clip-rule="evenodd" d="M130.716 48.2788C130.646 49.1687 130.599 50.0587 130.622 50.9486C130.739 55.1642 132.027 59.4032 134.487 63.1035L136.337 61.2534C134.369 58.1151 133.316 54.5553 133.245 51.0189C133.198 49.8713 133.269 48.7003 133.456 47.5527L130.716 48.2788Z" fill="#FEFEFE"/>
<path fill-rule="evenodd" clip-rule="evenodd" d="M136.711 35.4681C133.784 38.3721 129.896 39.7773 125.962 39.6602C123.62 39.6134 121.254 39.0279 119.076 37.9037L117.203 39.7773C119.943 41.3699 122.987 42.1896 126.032 42.2598C128.304 42.3301 130.575 41.9554 132.683 41.1591C131.91 42.9156 131.255 44.6487 131.02 46.2412V46.2646H131.044C132.636 46.0304 134.369 45.3747 136.126 44.6018C135.33 46.7096 134.955 48.9813 135.002 51.2531C135.095 54.2742 135.915 57.3422 137.508 60.0824L139.381 58.2088C138.257 56.0307 137.672 53.6653 137.625 51.3233C137.508 47.3888 138.913 43.4777 141.817 40.5736L149.873 32.5172L147.976 30.6436L139.92 38.7C138.515 40.1052 136.618 41.5338 134.885 42.3769C135.751 40.6673 137.18 38.7703 138.585 37.3416L146.641 29.2852L144.768 27.4116L136.711 35.4681Z" fill="#FEFEFE"/>
<path fill-rule="evenodd" clip-rule="evenodd" d="M143.105 41.5338C140.506 44.1568 139.241 47.6464 139.334 51.1828C139.381 53.1266 139.826 55.0705 140.693 56.8972L142.637 54.93C142.215 53.7356 141.981 52.4943 141.934 51.2531C141.864 48.3958 142.871 45.5386 145.002 43.4308L146.829 41.6041L144.932 39.7305L143.105 41.5338Z" fill="#FEFEFE"/>
<path fill-rule="evenodd" clip-rule="evenodd" d="M133.854 32.2831C131.723 34.3908 128.889 35.4213 126.032 35.3511C124.791 35.3042 123.526 35.07 122.332 34.6485L120.388 36.5923C122.214 37.4354 124.158 37.9038 126.102 37.9507C129.615 38.0443 133.128 36.7797 135.751 34.1566L137.554 32.3533L135.657 30.4563L133.854 32.2831Z" fill="#FEFEFE"/>
<path fill-rule="evenodd" clip-rule="evenodd" d="M114.181 42.7984C117.882 45.2575 122.121 46.5456 126.336 46.6393C127.226 46.6627 128.116 46.6393 129.006 46.5456L129.709 43.8289C128.585 43.9928 127.414 44.0865 126.266 44.0397C122.73 43.946 119.17 42.9155 116.032 40.9482L114.181 42.7984Z" fill="#FEFEFE"/>
<path fill-rule="evenodd" clip-rule="evenodd" d="M63.3604 113.925V118.515C69.754 120.014 75.4918 123.152 80.0119 127.461C81.4873 128.867 82.8457 130.389 84.0401 132.052L86.5695 127.766C85.5624 126.548 84.4851 125.377 83.3375 124.276C77.9509 119.171 71.0655 115.494 63.3604 113.925Z" fill="#FEFEFE"/>
<path fill-rule="evenodd" clip-rule="evenodd" d="M74.7893 156.174H79.4966V151.631C79.4966 145.097 76.6863 139.171 72.1662 134.862C69.6837 132.497 66.686 130.623 63.3604 129.429V134.3C65.3979 135.26 67.248 136.525 68.8406 138.024C72.5175 141.513 74.7893 146.338 74.7893 151.631V156.174Z" fill="#FEFEFE"/>
<path fill-rule="evenodd" clip-rule="evenodd" d="M97.9282 156.174H102.636V151.631C102.636 146.338 104.931 141.513 108.608 138.024C110.2 136.525 112.05 135.26 114.088 134.3V129.429C110.739 130.623 107.741 132.497 105.259 134.862C100.739 139.171 97.9282 145.097 97.9282 151.631V156.174Z" fill="#FEFEFE"/>
<path fill-rule="evenodd" clip-rule="evenodd" d="M114.088 118.515V113.925C106.383 115.494 99.4738 119.171 94.0872 124.276C92.9396 125.377 91.8623 126.548 90.8552 127.766L93.3846 132.052C94.6024 130.389 95.9373 128.867 97.4362 127.461C101.956 123.152 107.694 120.014 114.088 118.515Z" fill="#FEFEFE"/>
<path fill-rule="evenodd" clip-rule="evenodd" d="M124.439 93.9475C119.31 99.3341 115.634 106.22 114.088 113.925H118.678C120.154 107.531 123.315 101.793 127.601 97.2731C129.03 95.7977 130.552 94.4393 132.191 93.2215L127.906 90.6921C126.688 91.6992 125.54 92.7999 124.439 93.9475Z" fill="#FEFEFE"/>
<path fill-rule="evenodd" clip-rule="evenodd" d="M126.313 63.1973H121.606C123.081 68.6073 125.845 73.4552 129.522 77.3429C132.309 80.2469 135.587 82.6123 139.241 84.2752C136.079 85.493 133.081 86.8513 130.81 88.561H130.786L130.81 88.5844C133.081 90.2706 136.079 91.629 139.241 92.8468C135.587 94.5096 132.309 96.8751 129.522 99.7791C125.845 103.667 123.081 108.515 121.606 113.925H126.313C127.625 109.826 129.849 106.126 132.707 103.128C137.484 98.0695 144.112 94.9546 151.372 94.9546H167.087C169.617 94.9546 172.099 94.4394 174.418 93.4558L176.479 92.5892L175.963 92.3784C172.638 90.9732 169.031 90.2472 165.401 90.2472L151.372 90.2238C147.836 90.2238 143.691 89.6383 140.482 88.561C143.691 87.4837 147.836 86.8982 151.372 86.8982H166.97C169.57 86.8982 172.146 86.3595 174.535 85.3525L176.479 84.5328L176.104 84.3688C172.684 82.9168 168.984 82.1674 165.26 82.1674H151.372C144.112 82.1674 137.484 79.0525 132.707 73.9938C129.849 70.9961 127.625 67.3192 126.313 63.1973Z" fill="#FEFEFE"/>
<path fill-rule="evenodd" clip-rule="evenodd" d="M156.337 97.7649H151.794C145.26 97.7649 139.334 100.575 135.025 105.119C132.66 107.601 130.786 110.599 129.592 113.925H134.463C135.423 111.887 136.688 110.037 138.187 108.444C141.676 104.767 146.501 102.496 151.794 102.496H156.337V97.7649Z" fill="#FEFEFE"/>
<path fill-rule="evenodd" clip-rule="evenodd" d="M134.463 63.1973H129.592C130.786 66.5229 132.66 69.5441 135.025 72.0031C139.334 76.5466 145.26 79.357 151.794 79.357H156.337V74.6262H151.794C146.501 74.6262 141.676 72.3544 138.187 68.6775C136.688 67.085 135.423 65.2348 134.463 63.1973Z" fill="#FEFEFE"/>
<path fill-rule="evenodd" clip-rule="evenodd" d="M118.678 63.1973H114.088C115.634 70.9024 119.31 77.8113 124.439 83.1744C125.54 84.3454 126.688 85.4227 127.906 86.4298L132.191 83.9004C130.552 82.6826 129.03 81.3243 127.601 79.8488C123.315 75.3288 120.154 69.5909 118.678 63.1973Z" fill="#FEFEFE"/>
<path fill-rule="evenodd" clip-rule="evenodd" d="M63.3604 63.1973H58.7701C57.2712 69.5909 54.1329 75.3288 49.8237 79.8488C48.4185 81.3243 46.8728 82.6826 45.2334 83.9004L49.5192 86.4298C50.737 85.4227 51.908 84.3454 53.0087 83.1744C58.1143 77.8113 61.7912 70.9024 63.3604 63.1973Z" fill="#FEFEFE"/>
<path fill-rule="evenodd" clip-rule="evenodd" d="M55.8191 63.1973H51.1351C49.8002 67.3192 47.5987 70.9961 44.7415 73.9938C39.9404 79.0525 33.336 82.1674 26.0758 82.1674H10.3377C7.83175 82.1674 5.32584 82.6826 3.03069 83.6662L0.969727 84.5328L1.4616 84.7436C4.81064 86.1488 8.39383 86.8982 12.0239 86.8982H26.0758C29.6122 86.8982 33.7576 87.4837 36.9661 88.561C33.7576 89.6383 29.6122 90.2238 26.0758 90.2238L10.4782 90.2472C7.87859 90.2472 5.30242 90.7625 2.89017 91.7695L0.969727 92.5892L1.32108 92.7532C4.7638 94.2052 8.46411 94.9546 12.1879 94.9546H26.0758C33.336 94.9546 39.9404 98.0695 44.7415 103.128C47.5987 106.126 49.8002 109.826 51.1351 113.925H55.8191C54.3671 108.515 51.6035 103.667 47.9032 99.7791C45.1396 96.8751 41.8375 94.5096 38.184 92.8468C41.3456 91.629 44.3433 90.2706 46.6385 88.5844V88.561C44.3433 86.8513 41.3456 85.493 38.184 84.2752C41.8375 82.6123 45.1396 80.2469 47.9032 77.3429C51.6035 73.4552 54.3671 68.6073 55.8191 63.1973Z" fill="#FEFEFE"/>
<path fill-rule="evenodd" clip-rule="evenodd" d="M47.8564 63.1973H42.9616C42.0248 65.2348 40.7601 67.085 39.2612 68.6775C35.7483 72.3544 30.9472 74.6262 25.6543 74.6262H21.1108V79.357H25.6543C32.1884 79.357 38.1137 76.5466 42.4229 72.0031C44.7884 69.5441 46.6385 66.5229 47.8564 63.1973Z" fill="#FEFEFE"/>
<path fill-rule="evenodd" clip-rule="evenodd" d="M25.6543 97.7649H21.1108V102.496H25.6543C30.9472 102.496 35.7483 104.767 39.2612 108.444C40.7601 110.037 42.0248 111.887 42.9616 113.925H47.8564C46.6385 110.599 44.7884 107.601 42.4229 105.119C38.1137 100.575 32.1884 97.7649 25.6543 97.7649Z" fill="#FEFEFE"/>
<path fill-rule="evenodd" clip-rule="evenodd" d="M45.2334 93.2215C46.8728 94.4393 48.4185 95.7977 49.8237 97.2731C54.1329 101.793 57.2712 107.531 58.7701 113.925H63.3604C61.7912 106.22 58.1143 99.3341 53.0087 93.9475C51.908 92.7999 50.737 91.6992 49.5192 90.6921L45.2334 93.2215Z" fill="#FEFEFE"/>
<path d="M201.889 66.4993H194.301V61.0425H196.479L198.329 28.2781H212.311V66.4993H206.596V33.7349H203.739L201.889 66.4993Z" fill="#FEFEFE"/>
<path d="M233.904 28.2781H239.618V66.4993H233.904V28.2781ZM221.608 61.0425H225.965V47.9274H221.608V61.0425ZM231.702 63.9934C231.702 65.4688 230.719 66.4993 229.196 66.4993H215.871V28.2781H221.608V42.4705H229.196C230.719 42.4705 231.702 43.5244 231.702 44.9999V63.9934Z" fill="#FEFEFE"/>
<path d="M253.553 66.4993V48.4894H252.406L248.541 66.4993H242.64L247.441 45.7493L242.897 28.2781H248.799L252.406 43.0326H253.553V28.2781H259.291V43.0326H260.439L264.045 28.2781H269.947L265.404 45.7493L270.205 66.4993H264.303L260.439 48.4894H259.291V66.4993H253.553Z" fill="#FEFEFE"/>
<path d="M290.955 28.2781V66.4993H285.24V48.4894H278.94V66.4993H273.226V28.2781H278.94V43.0326H285.24V28.2781H290.955Z" fill="#FEFEFE"/>
<path d="M306.529 33.7349H301.353V43.0326H306.529V33.7349ZM294.233 66.4993L299.878 48.4894H298.121C296.599 48.4894 295.615 47.4355 295.615 45.9601V30.784C295.615 29.3086 296.599 28.2781 298.121 28.2781H312.267V66.4993H306.529V48.4894H305.99L300.299 66.4993H294.233Z" fill="#FEFEFE"/>
<path d="M199.758 97.039H205.215V82.2845H199.758V97.039ZM199.758 102.496V115.072H194.02V76.8276H208.447C209.969 76.8276 210.953 77.8815 210.953 79.3336V99.9899C210.953 101.465 209.969 102.496 208.447 102.496H199.758Z" fill="#FEFEFE"/>
<path d="M225.426 82.2845H219.688V109.592H225.426V82.2845ZM216.479 115.072C214.934 115.072 213.95 114.018 213.95 112.543V79.3336C213.95 77.8815 214.934 76.8276 216.479 76.8276H228.658C230.18 76.8276 231.164 77.8815 231.164 79.3336V112.543C231.164 114.018 230.18 115.072 228.658 115.072H216.479Z" fill="#FEFEFE"/>
<path d="M236.949 115.072C235.426 115.072 234.443 114.018 234.443 112.543V79.3336C234.443 77.8815 235.426 76.8276 236.949 76.8276H251.094V87.7647H245.356V82.2845H240.18V109.592H245.356V102.496H251.094V115.072H236.949Z" fill="#FEFEFE"/>
<path d="M256.621 115.072C255.075 115.072 254.092 114.018 254.092 112.543V79.3336C254.092 77.8815 255.075 76.8276 256.621 76.8276H270.767V87.7647H265.029V82.2845H259.83V109.592H265.029V102.496H270.767V115.072H256.621Z" fill="#FEFEFE"/>
<path d="M285.779 115.072V93.6431L279.503 106.805V115.072H273.765V76.8276H279.503V96.2661L285.779 83.1042V76.8276H291.517V115.072H285.779Z" fill="#FEFEFE"/>
<path d="M306.81 115.072V93.6431L300.534 106.805V115.072H294.796V76.8276H300.534V96.2661L306.81 83.1042V76.8276H312.548V115.072H306.81Z" fill="#FEFEFE"/>
<path d="M201.772 129.335H205.332V148.844H202.404V140.483L202.872 134.909H202.732L200.694 144.956H197.978L195.893 134.909H195.753L196.268 140.483V148.844H193.341V129.335H196.924L199.289 140.483H199.36L201.772 129.335Z" fill="#FEFEFE"/>
<path d="M213.974 132.122H211.046V146.057H213.974V132.122ZM209.407 148.844C208.611 148.844 208.119 148.305 208.119 147.556V130.623C208.119 129.874 208.611 129.335 209.407 129.335H215.613C216.386 129.335 216.901 129.874 216.901 130.623V147.556C216.901 148.305 216.386 148.844 215.613 148.844H209.407Z" fill="#FEFEFE"/>
<path d="M220.953 148.844C220.18 148.844 219.688 148.305 219.688 147.556V130.623C219.688 129.874 220.18 129.335 220.953 129.335H228.189V134.909H225.262V132.122H222.615V146.057H225.262V142.427H228.189V148.844H220.953Z" fill="#FEFEFE"/>
<path d="M240.157 148.844H237.066L234.513 139.64H233.763V148.844H230.836V129.335H233.763V136.853H234.583L237.066 129.335H240.157L237.159 138.258L240.157 148.844Z" fill="#FEFEFE"/>
<path d="M245.169 146.057H247.815V139.64H245.169V146.057ZM247.815 132.122H245.169V136.853H247.815V132.122ZM250.743 136.08C250.743 137.204 250.157 137.953 249.314 138.258C250.157 138.562 250.743 139.288 250.743 140.436V147.556C250.743 148.305 250.251 148.844 249.478 148.844H242.241V129.335H249.478C250.251 129.335 250.743 129.874 250.743 130.623V136.08Z" fill="#FEFEFE"/>
<path d="M259.244 132.122H256.457V139.64H259.244V132.122ZM262.172 129.335V148.844H259.244V142.427H256.457V148.844H253.53V129.335H262.172Z" fill="#FEFEFE"/>
<path d="M280.509 135.307L275.474 145.19V146.057H280.509V148.844H272.547V144.816L277.582 134.909V132.122H275.474V134.909H272.547V130.623C272.547 129.874 273.062 129.335 273.835 129.335H279.221C279.994 129.335 280.509 129.874 280.509 130.623V135.307Z" fill="#FEFEFE"/>
<path d="M288.168 132.122H286.06V146.057H288.168V132.122ZM284.421 148.844C283.648 148.844 283.156 148.305 283.156 147.556V130.623C283.156 129.874 283.648 129.335 284.421 129.335H289.807C290.58 129.335 291.095 129.874 291.095 130.623V147.556C291.095 148.305 290.58 148.844 289.807 148.844H284.421Z" fill="#FEFEFE"/>
<path d="M301.681 135.307L296.669 145.19V146.057H301.681V148.844H293.742V144.816L298.753 134.909V132.122H296.669V134.909H293.742V130.623C293.742 129.874 294.233 129.335 295.006 129.335H300.393C301.166 129.335 301.681 129.874 301.681 130.623V135.307Z" fill="#FEFEFE"/>
<path d="M305.615 148.844C304.819 148.844 304.327 148.305 304.327 147.556V142.427H307.255V146.057H309.339V139.148H306.412V136.548L309.058 132.122H304.468V129.335H312.126V131.841L309.456 136.361H310.979C311.775 136.361 312.267 136.9 312.267 137.649V147.556C312.267 148.305 311.775 148.844 310.979 148.844H305.615Z" fill="#FEFEFE"/>
<path fill-rule="evenodd" clip-rule="evenodd" d="M63.3604 121.466V126.15C67.4588 127.485 71.1591 129.686 74.1569 132.543C79.1922 137.345 82.3305 143.949 82.3305 151.209V170.741L84.6958 174.793L87.0378 170.741V151.209C87.0378 147.673 87.6467 143.527 88.7241 140.319C89.8014 143.527 90.3869 147.673 90.3869 151.209V170.741L92.7523 174.793L95.1177 170.741V151.209C95.1177 143.949 98.2326 137.345 103.268 132.543C106.289 129.686 109.966 127.485 114.088 126.15V121.466C108.678 122.918 103.83 125.681 99.9422 129.382C97.0381 132.145 94.6727 135.447 93.0099 139.078C91.7921 135.916 90.4337 132.942 88.7241 130.646H88.7007C87.0144 132.942 85.6561 135.916 84.4148 139.078C82.7754 135.447 80.41 132.145 77.4825 129.382C73.6183 125.681 68.7703 122.918 63.3604 121.466Z" fill="#FEFEFE"/>
<path fill-rule="evenodd" clip-rule="evenodd" d="M63.3604 121.466V126.15C67.4588 127.485 71.1591 129.686 74.1569 132.543C79.1922 137.345 82.3305 143.949 82.3305 151.209V166.947C82.3305 169.453 82.8457 171.936 83.8059 174.254L84.6958 176.315L84.9066 175.823C86.3118 172.474 87.0378 168.891 87.0378 165.261V151.209C87.0378 147.673 87.6467 143.527 88.7241 140.319C89.8014 143.527 90.3869 147.673 90.3869 151.209V166.807C90.3869 169.406 90.9255 171.983 91.9326 174.371L92.7523 176.315L92.8928 175.964C94.3682 172.521 95.1177 168.821 95.1177 165.097V151.209C95.1177 143.949 98.2326 137.345 103.268 132.543C106.289 129.686 109.966 127.485 114.088 126.15V121.466C108.678 122.918 103.83 125.681 99.9422 129.382C97.0381 132.145 94.6727 135.447 93.0099 139.078C91.7921 135.916 90.4337 132.942 88.7241 130.646H88.7007C87.0144 132.942 85.6561 135.916 84.4148 139.078C82.7754 135.447 80.41 132.145 77.4825 129.382C73.6183 125.681 68.7703 122.918 63.3604 121.466Z" fill="#FEFEFE"/>
</svg>
