<svg width="187" height="57" viewBox="0 0 187 57" fill="none" xmlns="http://www.w3.org/2000/svg">
<path d="M62.4608 21.638C63.3976 16.673 64.6155 11.1225 65.1775 6.13405H69.9318V29.3431H66.8403V20.1626L67.215 11.8719C66.7701 14.5418 65.0136 24.3781 62.7887 29.0855V29.1089H62.4608H62.1329V29.0855C59.9315 24.3781 58.175 14.5418 57.73 11.8719L58.1047 20.1626V29.3431H54.9899V6.13405H59.7675C60.3296 11.1225 61.5474 16.673 62.4608 21.638ZM134.36 10.1857V11.1459V13.0195C134.36 14.8697 133.61 16.228 132.393 17.0946C133.704 18.125 134.36 19.7176 134.36 21.7083V29.2963C132.205 29.2963 130.051 29.2963 127.896 29.2963H124.336V6.08721H127.896C130.051 6.08721 132.205 6.08721 134.36 6.08721V10.1857ZM127.896 18.9447V25.9941H130.823C130.823 24.4718 130.823 22.9729 130.823 21.4741C130.823 19.1087 129.231 18.8745 127.896 18.9447ZM127.896 9.41283V15.6191C129.231 15.7128 130.823 15.6191 130.823 13.2537V11.1459V9.41283H127.896ZM114.851 29.2963H111.291V6.08721H114.851H118.224H121.83V29.2963H118.224H114.851ZM118.224 9.41283H114.921V25.9941H118.224V9.41283ZM75.9975 29.2963H72.4611V6.08721H75.9975H79.37H82.9766V29.2963H79.37H75.9975ZM79.37 9.41283H76.0678V25.9941H79.37V9.41283ZM140.262 29.2963H136.725V6.08721H140.262H143.634H147.264V15.4083H143.634V9.41283H140.262V25.9941H143.634V19.9752H147.264V29.2963H143.634H140.262ZM89.0424 29.2963H85.506V6.08721H89.0424H92.4148H96.0449V15.4083H92.4148V9.41283H89.0424V25.9941H92.4148V19.9752H96.0449V29.2963H92.4148H89.0424ZM153.307 29.3431H149.77V6.13405H153.307V15.221H153.915C155.836 15.2444 156.445 13.1366 156.445 11.5909V6.13405H160.005V11.4269C160.005 13.886 159.091 15.7128 157.335 16.9072C159.232 18.2655 160.005 19.9284 160.005 22.3874V29.3431H156.445V22.2235C156.445 20.7246 155.742 18.8979 153.939 18.9213H153.307V29.3431ZM184.923 3.34708H177.101V0.630371H184.923V3.34708ZM175.626 29.3431V6.13405H178.787V19.6942L182.441 6.13405H186.399V29.3431H183.19V13.1834L178.834 29.3666L175.626 29.3431ZM162.347 29.3431V6.13405H165.508V19.6942L169.162 6.13405H173.12V29.3431H169.911V13.1834L165.555 29.3666L162.347 29.3431ZM102.111 29.3431H98.5509V6.13405H102.111V15.221H102.696C104.617 15.2444 105.226 13.1366 105.226 11.5909V6.13405H108.785V11.4269C108.785 13.886 107.872 15.7128 106.115 16.9072C108.036 18.2655 108.785 19.9284 108.785 22.3874V29.3431H105.226V22.2235C105.226 20.7246 104.523 18.8979 102.72 18.9213H102.111V29.3431Z" fill="#FEFEFE"/>
<path d="M71.5946 56.2057H68.0348V32.9966H78.5737V56.2057H74.967V36.3222H71.5946V56.2057ZM58.5497 56.2057H54.9899V32.9966H58.5497H61.9222H65.5288V42.3177H61.9222V36.3222H58.5497V52.9035H61.9222V46.8846H65.5288V56.2057H61.9222H58.5497ZM84.616 56.2057H81.0562V32.9966H84.616H87.9885H91.5952V56.2057H87.9885H84.616ZM87.9885 36.3222H84.6863V52.9035H87.9885V36.3222ZM105.015 32.9966H115.975V36.3222H112.275V56.2057H108.715V36.3222H105.015V32.9966ZM104.031 41.053V42.0132V43.9102C104.031 47.4701 102.181 49.976 98.7382 49.976H97.5672V56.2057H94.0074V32.9966C97.3564 33.02 100.705 32.9966 104.031 32.9966V41.053ZM97.5672 36.3222V46.6504C98.8787 46.7206 100.495 46.5098 100.495 44.1444V42.0132V36.3222H97.5672Z" fill="#FEFEFE"/>
<path d="M24.0054 44.1446C24.8953 45.1985 25.8321 46.2056 26.8392 47.1658C31.5466 51.639 37.5655 54.8475 44.287 56.2059V52.2011C38.7131 50.913 33.7012 48.1494 29.7432 44.4023C28.4551 43.161 27.2841 41.8261 26.2303 40.3975L24.0054 44.1446Z" fill="#FEFEFE"/>
<path d="M9.43821 39.9523C13.8411 35.7836 16.5578 29.9989 16.5578 23.6521L16.5813 6.08716H20.6798V23.6521C20.6798 26.7435 21.195 30.3736 22.1552 33.184C23.092 30.3736 23.6072 26.7435 23.6072 23.6521V6.08716H27.7291V23.6521C27.7291 29.9989 30.4459 35.7836 34.8488 39.9523C37.4718 42.4582 40.7038 44.3787 44.287 45.5262V49.6247C39.5562 48.36 35.3406 45.9478 31.9447 42.7159C29.3919 40.3036 27.331 37.423 25.9024 34.2379C24.8251 37.0014 23.6306 39.6244 22.1552 41.6151H22.1318C20.6563 39.6244 19.4619 37.0014 18.408 34.2379C16.956 37.423 14.8951 40.3036 12.3423 42.7159C8.96982 45.9478 4.73082 48.36 0 49.6247V45.5262C3.58324 44.3787 6.81518 42.4582 9.43821 39.9523Z" fill="#FEFEFE"/>
<path d="M34.3101 23.3007C34.3101 27.9144 36.3008 32.1066 39.5093 35.1746C40.8911 36.4861 42.5071 37.5868 44.287 38.4065V42.669C41.3829 41.6151 38.7599 39.9991 36.5819 37.9381C32.6473 34.1675 30.1882 28.9917 30.1882 23.3007V19.3193H34.3101V23.3007Z" fill="#FEFEFE"/>
<path d="M10.0003 19.3193H14.0988V23.3007C14.0988 28.9917 11.6631 34.1675 7.70512 37.9381C5.52708 39.9991 2.92748 41.6151 0 42.669V38.43C1.77991 37.5868 3.39589 36.4861 4.80108 35.1746C8.00961 32.1066 10.0003 27.9144 10.0003 23.3007V19.3193Z" fill="#FEFEFE"/>
<path d="M18.0802 40.3975C17.0263 41.8261 15.8318 43.161 14.5437 44.4023C10.5858 48.1494 5.59735 50.913 0 52.2011V56.2059C6.72151 54.8475 12.7638 51.639 17.4478 47.1658C18.4549 46.2056 19.3917 45.1985 20.2816 44.1446L18.0802 40.3975Z" fill="#FEFEFE"/>
</svg>
