<svg width="243" height="136" viewBox="0 0 243 136" fill="none" xmlns="http://www.w3.org/2000/svg">
<path d="M80.6776 10.8342H82.709V21.9588H81.0404V17.1946L81.3064 14.0265H81.2338L80.073 19.7339H78.5252L77.3402 14.0265H77.2435L77.5337 17.1946V21.9588H75.865V10.8342H77.8964L79.2507 17.1946H79.2991L80.6776 10.8342Z" fill="white"/>
<path d="M84.4019 21.9591C83.9666 21.9591 83.6764 21.6689 83.6764 21.2335V11.5842C83.6764 11.1488 83.9666 10.8586 84.4019 10.8586H87.9328C88.3681 10.8586 88.6583 11.1488 88.6583 11.5842V21.2335C88.6583 21.6689 88.3681 21.9591 87.9328 21.9591H84.4019ZM86.9896 20.3871V12.4306H85.3209V20.3629H86.9896V20.3871Z" fill="white"/>
<path d="M90.3511 21.9591C89.9158 21.9591 89.6256 21.6689 89.6256 21.2335V11.5842C89.6256 11.1488 89.9158 10.8586 90.3511 10.8586H94.4624V14.0267H92.7937V12.4306H91.2943V20.3629H92.7937V18.3073H94.4624V21.9591H90.3511Z" fill="white"/>
<path d="M100.653 21.9588H98.888L97.437 16.7109H97.0017V21.9588H95.333V10.8342H97.0017V15.1148H97.4854L98.888 10.8342H100.653L98.9364 15.9129L100.653 21.9588Z" fill="white"/>
<path d="M101.935 21.9591C101.5 21.9591 101.21 21.6689 101.21 21.2335V11.5842C101.21 11.1488 101.5 10.8586 101.935 10.8586H105.466C105.901 10.8586 106.192 11.1488 106.192 11.5842V21.2335C106.192 21.6689 105.901 21.9591 105.466 21.9591H101.935ZM104.547 20.3871V12.4306H102.878V20.3629H104.547V20.3871Z" fill="white"/>
<path d="M112.02 14.6795C112.02 15.3083 111.681 15.7436 111.198 15.9129C111.681 16.0821 112.02 16.4933 112.02 17.1462V21.2333C112.02 21.6686 111.73 21.9588 111.294 21.9588H107.183V10.8342H111.294C111.73 10.8342 112.02 11.1244 112.02 11.5597V14.6795ZM110.351 12.4304H108.852V15.139H110.351V12.4304ZM108.828 16.7109V20.3627H110.327V16.7109H108.828Z" fill="white"/>
<path d="M113.689 21.9591C113.253 21.9591 112.963 21.6689 112.963 21.2335V11.5842C112.963 11.1488 113.253 10.8586 113.689 10.8586H117.8V14.0267H116.131V12.4306H114.632V20.3629H116.131V18.3073H117.8V21.9591H113.689Z" fill="white"/>
<path d="M124.015 21.9588H122.25L120.799 16.7109H120.363V21.9588H118.695V10.8342H120.363V15.1148H120.847L122.25 10.8342H124.015L122.298 15.9129L124.015 21.9588Z" fill="white"/>
<path d="M128.054 21.9588V15.7436L126.216 19.5646V21.9588H124.547V10.8342H126.216V16.4933L128.054 12.6722V10.8342H129.723V21.9588H128.054Z" fill="white"/>
<path d="M134.172 21.9588V15.7436L132.334 19.5646V21.9588H130.69V10.8342H132.359V16.4933L134.197 12.6722V10.8342H135.865V21.9588H134.172ZM131.948 9.16553H134.245L133.931 10.3505H132.262L131.948 9.16553Z" fill="white"/>
<path d="M77.6788 35.4776H75.478V33.8815H76.1068L76.6389 24.353H80.7017V35.4776H79.0331V25.9492H78.2108L77.6788 35.4776Z" fill="white"/>
<path d="M86.2883 34.7282C86.2883 35.1635 85.9981 35.4537 85.5628 35.4537H81.6934V24.3291H83.362V28.4887H85.5628C85.9981 28.4887 86.2883 28.7789 86.2883 29.2143V34.7282ZM83.3379 33.8817H84.6196V30.0607H83.3379V33.8817ZM86.9171 35.4779V24.3533H88.5858V35.4779H86.9171Z" fill="white"/>
<path d="M92.3101 35.4776V30.2297H91.9957L90.859 35.4776H89.142L90.5446 29.4316L89.2145 24.353H90.9316L91.9715 28.6336H92.3101V24.353H93.9788V28.6336H94.3173L95.3572 24.353H97.0743L95.7442 29.4316L97.1468 35.4776H95.4298L94.2931 30.2297H93.9546V35.4776H92.3101Z" fill="white"/>
<path d="M102.878 24.353V35.4776H101.21V30.2297H99.3717V35.4776H97.703V24.353H99.3717V28.6336H101.21V24.353H102.878Z" fill="white"/>
<path d="M108.441 34.7282C108.441 35.1635 108.151 35.4537 107.715 35.4537H103.846V24.3291H105.515V28.4887H107.715C108.151 28.4887 108.441 28.7789 108.441 29.2143V34.7282ZM105.515 33.8817H106.796V30.0607H105.515V33.8817ZM109.07 35.4779V24.3533H110.738V35.4779H109.07Z" fill="white"/>
<path d="M115.188 35.4779V29.2384L113.35 33.0595V35.4537H111.681V24.3291H113.35V29.9881L115.188 26.1671V24.3291H116.857V35.4537H115.188V35.4779ZM112.963 22.6846H115.261L114.946 23.8696H113.278L112.963 22.6846Z" fill="white"/>
<path d="M125.321 24.353H127.353V35.4776H125.684V30.7134L125.95 27.5453H125.877L124.717 33.2527H123.169L121.984 27.5453H121.911L122.201 30.7134V35.4776H120.533V24.353H122.564L123.918 30.7134H123.967L125.321 24.353Z" fill="white"/>
<path d="M133.229 24.353V35.4776H131.56V31.8259H129.964V35.4776H128.296V24.353H133.229ZM131.56 25.925H129.964V30.2055H131.56V25.925Z" fill="white"/>
<path d="M135.841 31.8019V35.4537H134.172V24.3291H138.356C138.791 24.3291 139.082 24.6193 139.082 25.0546V31.0522C139.082 31.4875 138.791 31.7777 138.356 31.7777H135.841V31.8019ZM135.841 30.23H137.437V25.9494H135.841V30.23Z" fill="white"/>
<path d="M144.886 24.353V35.4776H143.217V31.8259H141.621V35.4776H139.952V24.353H144.886ZM143.217 25.925H141.621V30.2055H143.217V25.925Z" fill="white"/>
<path d="M146.506 33.8816C146.071 33.8816 145.781 33.5914 145.781 33.1561V25.8767C145.781 25.4414 146.071 25.1512 146.506 25.1512H148.465V24.208H150.134V25.1512H152.093C152.528 25.1512 152.818 25.4414 152.818 25.8767V33.1561C152.818 33.5914 152.528 33.8816 152.093 33.8816H150.134V35.6228H148.465V33.8816H146.506ZM147.449 32.2854H148.489V26.7231H147.449V32.2854ZM151.174 26.7231H150.134V32.2854H151.174V26.7231Z" fill="white"/>
<path d="M154.439 35.4779C154.003 35.4779 153.713 35.1877 153.713 34.7523V25.103C153.713 24.6676 154.003 24.3774 154.439 24.3774H157.969C158.405 24.3774 158.695 24.6676 158.695 25.103V34.7523C158.695 35.1877 158.405 35.4779 157.969 35.4779H154.439ZM157.05 33.8817V25.9494H155.382V33.8817H157.05Z" fill="white"/>
<path d="M164.838 24.353V35.4776H163.169V30.2297H161.331V35.4776H159.662V24.353H161.331V28.6336H163.169V24.353H164.838Z" fill="white"/>
<path d="M167.353 119.057H177.583L178.719 114.051C180.678 105.369 180.702 96.5179 178.84 88.4405C177.994 84.8613 176.784 81.4272 175.237 78.1865H163.798C169.916 87.3764 171.803 99.3233 168.997 111.851L167.353 119.057Z" fill="white"/>
<path d="M211.924 71.9229L188.562 20L183.121 25.393C173.979 34.4862 165.926 44.6434 159.203 55.6471H171.053C175.382 49.2142 180.194 43.0956 185.442 37.3882L196.494 61.9349H184.378H167.063H155.43H114.922V71.9229H182.637H211.924Z" fill="white"/>
<path d="M232.94 120.92C232.432 123.435 230.183 125.345 227.522 125.345H115.309V135.333H227.547C235.721 135.333 242.444 128.973 243 120.944H232.94V120.92Z" fill="white"/>
<path d="M201.331 17.0255C206.033 17.0255 209.844 13.2142 209.844 8.51274C209.844 3.81128 206.033 0 201.331 0C196.63 0 192.818 3.81128 192.818 8.51274C192.818 13.2142 196.63 17.0255 201.331 17.0255Z" fill="white"/>
<path d="M59.9761 105.176C62.1768 107.836 64.5226 110.375 67.0378 112.745C78.7912 123.918 93.8336 131.923 110.617 135.333V125.297C96.6631 122.056 84.16 115.212 74.2929 105.829C71.0523 102.757 68.1019 99.3959 65.4658 95.8167L59.9761 105.176Z" fill="white"/>
<path d="M23.5551 94.7284C34.5588 84.281 41.3787 69.8673 41.3787 54.0027V10.1089H51.6568V54.0027C51.6568 61.7174 52.9386 70.7621 55.3086 77.7755C57.6786 70.7621 58.9604 61.7174 58.9604 54.0027V10.1089H69.2386V54.0027C69.2386 69.8432 76.0584 84.2568 87.0621 94.7284C93.616 100.968 101.669 105.78 110.617 108.658V118.888C98.8155 115.696 88.2471 109.674 79.7827 101.621C73.4224 95.5748 68.2712 88.3922 64.6678 80.4357C61.9834 87.3281 59.0329 93.8578 55.3328 98.8397L55.3086 98.8639L55.2844 98.8397C51.5843 93.8578 48.6339 87.3523 45.9494 80.4357C42.346 88.3922 37.1949 95.5748 30.8345 101.621C22.3701 109.674 11.8018 115.696 0 118.888V108.658C8.97223 105.78 17.0013 100.968 23.5551 94.7284Z" fill="white"/>
<path d="M85.6836 53.0838C85.6836 64.6438 90.6655 75.1396 98.6703 82.7575C102.129 86.0465 106.167 88.8035 110.617 90.8833V101.524C103.338 98.8882 96.8082 94.8253 91.391 89.6741C81.5239 80.2908 75.4054 67.3282 75.4054 53.0838V43.1926H85.6836V53.0838Z" fill="white"/>
<path d="M24.9336 43.1926H35.2118V53.0838C35.2118 67.3282 29.0933 80.2908 19.2262 89.6741C13.809 94.8253 7.27936 98.8882 0 101.524V90.8833C4.44984 88.8035 8.48855 86.0465 11.9469 82.7575C19.9517 75.1396 24.9336 64.6438 24.9336 53.0838V43.1926Z" fill="white"/>
<path d="M45.1272 95.8167C42.4911 99.3959 39.5407 102.757 36.3001 105.829C26.4572 115.212 13.9541 122.08 0 125.297V135.333C16.7836 131.923 31.8502 123.918 43.5794 112.745C46.0945 110.351 48.4404 107.836 50.6411 105.176L45.1272 95.8167Z" fill="white"/>
</svg>
