<svg width="156" height="87" viewBox="0 0 156 87" fill="none" xmlns="http://www.w3.org/2000/svg">
<path d="M51.7932 6.95508H53.0973V14.0968H52.0261V11.0383L52.1968 9.00444H52.1503L51.4051 12.6685H50.4114L49.6507 9.00444H49.5886L49.7749 11.0383V14.0968H48.7036V6.95508H50.0078L50.8772 11.0383H50.9082L51.7932 6.95508Z" fill="white"/>
<path d="M54.184 14.0969C53.9046 14.0969 53.7183 13.9106 53.7183 13.6311V7.43647C53.7183 7.15701 53.9046 6.9707 54.184 6.9707H56.4507C56.7302 6.9707 56.9165 7.15701 56.9165 7.43647V13.6311C56.9165 13.9106 56.7302 14.0969 56.4507 14.0969H54.184ZM55.8452 13.0877V7.97986H54.774V13.0722H55.8452V13.0877Z" fill="white"/>
<path d="M58.0034 14.0969C57.7239 14.0969 57.5376 13.9106 57.5376 13.6311V7.43647C57.5376 7.15701 57.7239 6.9707 58.0034 6.9707H60.6427V9.00454H59.5714V7.97986H58.6089V13.0722H59.5714V11.7526H60.6427V14.0969H58.0034Z" fill="white"/>
<path d="M64.6173 14.0968H63.4839L62.5524 10.7278H62.2729V14.0968H61.2017V6.95508H62.2729V9.70309H62.5834L63.4839 6.95508H64.6173L63.515 10.2154L64.6173 14.0968Z" fill="white"/>
<path d="M65.4399 14.0969C65.1604 14.0969 64.9741 13.9106 64.9741 13.6311V7.43647C64.9741 7.15701 65.1604 6.9707 65.4399 6.9707H67.7066C67.9861 6.9707 68.1724 7.15701 68.1724 7.43647V13.6311C68.1724 13.9106 67.9861 14.0969 67.7066 14.0969H65.4399ZM67.1166 13.0877V7.97986H66.0454V13.0722H67.1166V13.0877Z" fill="white"/>
<path d="M71.9142 9.42363C71.9142 9.82729 71.6968 10.1068 71.3863 10.2154C71.6968 10.3241 71.9142 10.588 71.9142 11.0072V13.631C71.9142 13.9105 71.7279 14.0968 71.4484 14.0968H68.8091V6.95508H71.4484C71.7279 6.95508 71.9142 7.14138 71.9142 7.42084V9.42363ZM70.8429 7.97976H69.8803V9.71861H70.8429V7.97976ZM69.8648 10.7278V13.0721H70.8274V10.7278H69.8648Z" fill="white"/>
<path d="M72.9853 14.0969C72.7058 14.0969 72.5195 13.9106 72.5195 13.6311V7.43647C72.5195 7.15701 72.7058 6.9707 72.9853 6.9707H75.6246V9.00454H74.5534V7.97986H73.5908V13.0722H74.5534V11.7526H75.6246V14.0969H72.9853Z" fill="white"/>
<path d="M79.6148 14.0968H78.4815L77.5499 10.7278H77.2705V14.0968H76.1992V6.95508H77.2705V9.70309H77.581L78.4815 6.95508H79.6148L78.5125 10.2154L79.6148 14.0968Z" fill="white"/>
<path d="M82.2072 14.0968V10.1068L81.0273 12.5598V14.0968H79.9561V6.95508H81.0273V10.588L82.2072 8.13501V6.95508H83.2785V14.0968H82.2072Z" fill="white"/>
<path d="M86.1356 14.0968V10.1067L84.9556 12.5597V14.0968H83.8999V6.95505H84.9712V10.588L86.1511 8.13498V6.95505H87.2224V14.0968H86.1356ZM84.7072 5.88379H86.1821L85.9803 6.64454H84.9091L84.7072 5.88379Z" fill="white"/>
<path d="M49.8679 22.7755H48.4551V21.7508H48.8587L49.2003 15.6338H51.8086V22.7755H50.7373V16.6585H50.2095L49.8679 22.7755Z" fill="white"/>
<path d="M55.3952 22.2941C55.3952 22.5736 55.2088 22.7599 54.9294 22.7599H52.4453V15.6182H53.5166V18.2885H54.9294C55.2088 18.2885 55.3952 18.4749 55.3952 18.7543V22.2941ZM53.501 21.7507H54.3239V19.2977H53.501V21.7507ZM55.7988 22.7754V15.6337H56.8701V22.7754H55.7988Z" fill="white"/>
<path d="M59.2609 22.7755V19.4065H59.0591L58.3294 22.7755H57.2271L58.1275 18.8941L57.2736 15.6338H58.3759L59.0435 18.3818H59.2609V15.6338H60.3321V18.3818H60.5495L61.2171 15.6338H62.3194L61.4655 18.8941L62.366 22.7755H61.2637L60.534 19.4065H60.3166V22.7755H59.2609Z" fill="white"/>
<path d="M66.0456 15.6338V22.7755H64.9743V19.4065H63.7944V22.7755H62.7231V15.6338H63.7944V18.3818H64.9743V15.6338H66.0456Z" fill="white"/>
<path d="M69.6163 22.2941C69.6163 22.5736 69.43 22.7599 69.1506 22.7599H66.6665V15.6182H67.7378V18.2885H69.1506C69.43 18.2885 69.6163 18.4749 69.6163 18.7543V22.2941ZM67.7378 21.7507H68.5606V19.2977H67.7378V21.7507ZM70.02 22.7754V15.6337H71.0913V22.7754H70.02Z" fill="white"/>
<path d="M73.948 22.776V18.7704L72.768 21.2234V22.7604H71.6968V15.6187H72.768V19.2517L73.948 16.7987V15.6187H75.0192V22.7604H73.948V22.776ZM72.5196 14.563H73.9946L73.7927 15.3237H72.7215L72.5196 14.563Z" fill="white"/>
<path d="M80.4529 15.6338H81.7571V22.7755H80.6858V19.717L80.8566 17.6832H80.81L80.0648 21.3472H79.0712L78.3104 17.6832H78.2639L78.4502 19.717V22.7755H77.3789V15.6338H78.6831L79.5525 19.717H79.5835L80.4529 15.6338Z" fill="white"/>
<path d="M85.53 15.6338V22.7755H84.4587V20.4312H83.4341V22.7755H82.3628V15.6338H85.53ZM84.4587 16.6429H83.4341V19.391H84.4587V16.6429Z" fill="white"/>
<path d="M87.2065 20.4155V22.7599H86.1353V15.6182H88.8212C89.1006 15.6182 89.2869 15.8045 89.2869 16.0839V19.9342C89.2869 20.2137 89.1006 20.4 88.8212 20.4H87.2065V20.4155ZM87.2065 19.4064H88.2312V16.6584H87.2065V19.4064Z" fill="white"/>
<path d="M93.0134 15.6338V22.7755H91.9421V20.4312H90.9175V22.7755H89.8462V15.6338H93.0134ZM91.9421 16.6429H90.9175V19.391H91.9421V16.6429Z" fill="white"/>
<path d="M94.0532 21.7507C93.7737 21.7507 93.5874 21.5644 93.5874 21.285V16.6118C93.5874 16.3323 93.7737 16.146 94.0532 16.146H95.3107V15.5405H96.382V16.146H97.6395C97.919 16.146 98.1053 16.3323 98.1053 16.6118V21.285C98.1053 21.5644 97.919 21.7507 97.6395 21.7507H96.382V22.8686H95.3107V21.7507H94.0532ZM94.6587 20.726H95.3262V17.1552H94.6587V20.726ZM97.0496 17.1552H96.382V20.726H97.0496V17.1552Z" fill="white"/>
<path d="M99.1459 22.7756C98.8665 22.7756 98.6802 22.5893 98.6802 22.3098V16.1152C98.6802 15.8357 98.8665 15.6494 99.1459 15.6494H101.413C101.692 15.6494 101.878 15.8357 101.878 16.1152V22.3098C101.878 22.5893 101.692 22.7756 101.413 22.7756H99.1459ZM100.823 21.7509V16.6586H99.7514V21.7509H100.823Z" fill="white"/>
<path d="M105.821 15.6338V22.7755H104.75V19.4065H103.57V22.7755H102.499V15.6338H103.57V18.3818H104.75V15.6338H105.821Z" fill="white"/>
<path d="M107.436 76.4319H114.003L114.733 73.2181C115.991 67.6445 116.006 61.9622 114.811 56.7766C114.267 54.4789 113.491 52.2743 112.497 50.1938H105.154C109.082 56.0935 110.293 63.7631 108.492 71.8053L107.436 76.4319Z" fill="white"/>
<path d="M136.05 46.1726L121.052 12.8394L117.559 16.3015C111.69 22.1391 106.52 28.6598 102.204 35.7239H109.811C112.591 31.5941 115.68 27.6662 119.049 24.0022L126.144 39.7605H118.366H107.25H99.782H73.7769V46.1726H117.248H136.05Z" fill="white"/>
<path d="M149.541 77.6274C149.215 79.2421 147.771 80.4686 146.064 80.4686H74.0254V86.8806H146.079C151.327 86.8806 155.643 82.7974 156 77.643H149.541V77.6274Z" fill="white"/>
<path d="M129.249 10.9299C132.267 10.9299 134.714 8.48319 134.714 5.46497C134.714 2.44675 132.267 0 129.249 0C126.231 0 123.784 2.44675 123.784 5.46497C123.784 8.48319 126.231 10.9299 129.249 10.9299Z" fill="white"/>
<path d="M38.5034 67.5201C39.9162 69.2279 41.4222 70.8581 43.0369 72.3796C50.5822 79.5523 60.2391 84.6913 71.0138 86.8803V80.4373C62.0556 78.3569 54.0289 73.9632 47.6945 67.9393C45.6141 65.9675 43.72 63.8095 42.0277 61.5117L38.5034 67.5201Z" fill="white"/>
<path d="M15.1218 60.8134C22.1859 54.1064 26.5641 44.8532 26.5641 34.6685V6.48975H33.1624V34.6685C33.1624 39.6211 33.9853 45.4276 35.5068 49.93C37.0283 45.4276 37.8511 39.6211 37.8511 34.6685V6.48975H44.4494V34.6685C44.4494 44.8377 48.8276 54.0909 55.8917 60.8134C60.0991 64.819 65.2691 67.9085 71.0135 69.7561V76.3233C63.4371 74.274 56.6525 70.4081 51.2186 65.2381C47.1354 61.3568 43.8284 56.7457 41.5151 51.6378C39.7918 56.0626 37.8977 60.2545 35.5223 63.4527L35.5068 63.4682L35.4912 63.4527C33.1158 60.2545 31.2217 56.0781 29.4984 51.6378C27.1851 56.7457 23.8782 61.3568 19.795 65.2381C14.3611 70.4081 7.57643 74.274 0 76.3233V69.7561C5.75995 67.9085 10.9144 64.819 15.1218 60.8134Z" fill="white"/>
<path d="M55.0065 34.0784C55.0065 41.4996 58.2048 48.2377 63.3437 53.1282C65.5639 55.2397 68.1566 57.0096 71.0133 58.3448V65.176C66.3401 63.4837 62.1483 60.8754 58.6705 57.5685C52.3361 51.5446 48.4082 43.2229 48.4082 34.0784V27.7285H55.0065V34.0784Z" fill="white"/>
<path d="M16.0068 27.7285H22.6051V34.0784C22.6051 43.2229 18.6771 51.5446 12.3428 57.5685C8.86505 60.8754 4.67317 63.4837 0 65.176V58.3448C2.85669 57.0096 5.44944 55.2397 7.66959 53.1282C12.8085 48.2377 16.0068 41.4996 16.0068 34.0784V27.7285Z" fill="white"/>
<path d="M28.9705 61.5117C27.2783 63.8095 25.3842 65.9675 23.3037 67.9393C16.9849 73.9632 8.9582 78.3724 0 80.4373V86.8803C10.7747 84.6913 20.4471 79.5523 27.9769 72.3796C29.5916 70.8425 31.0975 69.2279 32.5103 67.5201L28.9705 61.5117Z" fill="white"/>
</svg>
