<svg width="282" height="453" viewBox="0 0 282 453" fill="none" xmlns="http://www.w3.org/2000/svg">
<path d="M375.861 452.903H14V450.351H375.861C376.563 450.351 377.125 450.913 377.125 451.615C377.125 452.318 376.563 452.903 375.861 452.903Z" fill="#BA0D07"/>
<path d="M162.294 255.286C161.263 257.277 160.186 259.291 159.038 261.375C157.071 264.982 154.869 266.996 152.668 267.769C150.982 268.355 149.295 268.237 147.679 267.582C145.97 266.903 144.354 265.614 142.949 263.952C139.951 260.322 137.96 254.912 138.148 249.361C138.358 242.874 141.028 236.293 144.611 232.616C145.97 231.257 147.422 230.321 148.897 229.993C150.279 229.688 151.708 229.946 153.136 230.93C155.994 232.944 158.757 237.768 160.865 246.551C161.427 248.916 161.895 251.656 162.247 254.865L162.294 255.286ZM360.004 294.468C360.73 293.812 361.48 293.18 362.276 292.594C364.384 291.025 366.726 289.714 369.161 288.636C366.796 295.217 361.456 302.454 357.709 306.107C357.03 306.763 356.444 307.278 355.953 307.653C356.491 305.756 358.177 302.337 361.48 296.88C361.854 296.294 361.667 295.522 361.081 295.147L360.004 294.468ZM224.684 209.055C224.684 209.196 224.684 209.313 224.684 209.43L223.396 208.634C223.349 208.165 223.373 207.697 223.466 207.276C223.607 206.643 223.724 206.198 223.841 205.894C224.309 206.643 224.661 207.884 224.684 209.055ZM238.174 228.634C237.869 229.524 237.424 230.063 236.745 230.297C233.584 231.421 231.382 230.976 229.766 229.665C228.033 228.236 226.839 225.754 225.832 223.061C224.403 219.196 224.567 217.791 225.106 216.667C228.127 220.274 232.6 224.302 238.174 228.634ZM239.064 221.468C238.947 221.608 238.853 221.749 238.806 221.913C238.759 222.053 238.736 222.171 238.736 222.311C238.736 223.74 238.713 224.981 238.619 226.011C233.139 221.749 228.876 217.885 226.277 214.536C226.394 214.255 226.511 213.974 226.628 213.669L239.064 221.468ZM241.289 223.787C241.687 223.787 242.038 223.693 242.343 223.552L356.023 294.983C355.226 295.896 354.524 296.857 353.868 297.91C340.964 289.62 325.413 280.416 309.581 271.048C284.007 255.919 257.706 240.368 240.984 227.815C241.148 226.691 241.242 225.356 241.289 223.787ZM120.676 12.4221C125.431 18.0429 127.796 26.8019 125.407 37.1769C125.267 36.568 125.126 35.9591 124.986 35.3268C124.072 31.0409 118.662 25.6309 111.941 22.235C108.475 20.4785 104.657 19.2139 100.887 18.886C97.0457 18.5581 93.2517 19.1905 89.9963 21.228C87.6075 22.7034 85.5231 24.9049 83.9072 27.9963C88.3803 15.373 95.1487 8.69835 101.987 6.54373C105.453 5.46641 108.943 5.51326 112.152 6.56715C115.36 7.59762 118.311 9.61173 120.676 12.4221ZM121.894 43.0787C119.763 40.2215 113.557 36.0294 106.788 33.3361C103.205 31.9075 99.4111 30.877 95.945 30.6194C92.3383 30.3617 89.0361 30.9472 86.577 32.8443C85.3826 33.7811 84.399 34.9989 83.7198 36.568C83.7432 36.4041 83.7667 36.2636 83.8135 36.0996C85.1484 29.4952 87.8885 25.5138 91.3312 23.3826C94.0948 21.673 97.3268 21.1343 100.676 21.4388C104.095 21.7432 107.608 22.8908 110.793 24.5068C116.882 27.5748 121.73 32.2588 122.503 35.842C122.948 38.0201 123.463 40.0107 124.025 41.8375C123.979 42.0014 123.908 42.1888 123.838 42.3527C123.159 42.6103 122.527 42.8445 121.894 43.0787ZM114.072 62.7749C112.901 63.1964 111.636 63.5945 110.301 63.9693C113.088 59.4726 112.526 56.5686 112.081 54.2266C111.589 51.6973 111.285 50.0345 120.606 46.3107C123.955 56.0534 120.63 60.2689 114.072 62.7749ZM100.582 66.1239C99.5282 66.3113 98.4743 66.522 97.397 66.7562C96.8584 66.1239 96.3197 65.3042 95.8279 64.2972C92.4789 57.8099 87.6544 45.9828 85.8745 41.5799C85.6403 40.9944 85.4529 40.526 85.2889 40.1747C85.7105 37.6922 86.7175 35.9825 88.1461 34.8584C90.0432 33.3829 92.7365 32.9379 95.781 33.1487C98.9662 33.3829 102.479 34.3665 105.852 35.7015C111.964 38.1371 117.468 41.6501 119.482 44.0155C108.404 48.5122 108.849 50.9478 109.575 54.695C109.997 56.8496 110.512 59.5663 107.093 64.1332C106.905 64.3908 106.718 64.6485 106.507 64.8827C104.634 65.3042 102.643 65.7024 100.582 66.1239ZM100.957 68.6298L101.074 68.6064L102.104 68.3956C101.73 68.5362 101.332 68.6298 100.957 68.6298ZM42.3134 421.263C44.3978 419.694 46.6696 418.453 48.9881 417.492C49.1287 418.757 49.2692 419.951 49.3863 421.029L42.3134 421.263ZM56.2951 420.584C56.0609 419.179 55.8267 417.492 55.5691 415.549C59.1524 414.869 62.5482 414.776 65.265 415.057C67.5367 415.291 69.2697 415.806 70.066 416.438C70.2534 416.579 70.2065 416.813 69.8318 417.094C68.1924 418.312 64.0237 419.6 56.2951 420.584ZM16.2706 114.252C19.4791 114.978 22.4066 117.484 23.8118 122.144C25.2872 127.086 24.1396 130.786 21.8913 132.894C21.4229 133.339 20.9077 133.714 20.369 134.018C18.9638 126.43 17.6055 119.755 16.2706 114.252ZM7.95648 113.034C7.55835 113.221 7.16022 113.455 6.78549 113.713C6.4342 111.207 6.12973 108.795 5.89554 106.617C5.47397 103.034 5.70819 100.832 6.34052 99.8017C6.50446 99.5675 6.64499 99.427 6.78549 99.427C6.97287 99.3801 7.25388 99.4972 7.58176 99.708C8.86987 100.575 10.2985 102.776 11.3289 105.985C11.8676 107.601 12.4063 109.451 12.9449 111.512C11.2119 111.676 9.52563 112.191 7.95648 113.034ZM7.18362 116.57C7.79254 116.079 8.4483 115.634 9.1275 115.282C10.5327 114.533 12.055 114.111 13.5772 114.018C15.0059 119.709 16.4579 126.735 17.9333 134.838C16.9497 134.955 15.9193 134.908 14.9356 134.604C12.1487 133.784 9.59589 131.091 8.72937 126.172C8.21411 123.268 7.69885 119.99 7.20703 116.734L7.18362 116.57ZM17.1371 144.463C18.1441 144.908 19.0809 145.424 19.9006 146.079C28.7767 199.289 38.3321 285.638 45.2643 348.357C48.3792 376.601 50.9554 400.068 52.7353 413.605C52.1966 413.722 51.658 413.886 51.1428 414.05C48.9179 395.782 44.632 363.603 39.831 327.49C30.3225 255.825 18.7531 168.75 17.1371 144.463ZM14.4204 140.81C12.2657 140.248 10.0643 139.897 8.05017 139.569L7.34756 139.452C1.96097 131.301 1.91418 124.58 4.30301 120.083C4.51376 119.709 4.74796 119.334 4.98215 119.006C5.38031 121.676 5.80185 124.299 6.22342 126.617C7.27731 132.636 10.5795 135.962 14.233 137.039C15.1464 137.32 16.0832 137.437 17.02 137.437C16.294 137.836 15.5914 138.351 14.8888 138.96C14.5843 139.194 14.397 139.569 14.397 139.967C14.397 140.224 14.3969 140.505 14.4204 140.81ZM19.3151 142.683C18.5657 142.285 17.7928 141.934 16.9966 141.63C16.9731 141.231 16.9731 140.88 16.9731 140.552C17.5352 140.084 18.1441 139.709 18.7531 139.428C18.9404 140.482 19.1277 141.583 19.3151 142.683ZM202.81 363.884C200.351 367.842 197.236 370.817 193.536 372.034C193.442 371.566 193.372 371.074 193.301 370.606C198.22 368.053 201.522 365.289 203.7 362.385C203.419 362.901 203.114 363.392 202.81 363.884ZM190.585 372.62C190.327 372.643 190.069 372.643 189.788 372.643C190.14 372.409 190.538 372.175 190.936 371.941C190.959 372.151 191.006 372.362 191.03 372.573C190.889 372.596 190.725 372.62 190.585 372.62ZM187.119 374.798C187.306 374.962 187.54 375.056 187.774 375.079C188.781 375.219 189.788 375.243 190.749 375.173C191.006 375.149 191.264 375.126 191.522 375.079C191.873 376.578 192.271 378.077 192.739 379.529C192.833 379.903 193.114 380.231 193.489 380.395C202.482 384.142 217.143 377.257 233.185 369.739C247.425 363.088 262.765 355.898 275.575 355.406L168.266 402.878L169.015 396.274C182.669 389.81 183.465 385.29 184.238 380.957C184.589 378.967 184.917 376.999 187.119 374.798ZM187.001 353.837C187.025 351.027 187.165 348.216 187.446 345.57C188.805 347.022 189.718 348.099 189.976 348.778C190.21 349.364 190.163 351.378 190.116 354.165C190.023 358.1 189.906 363.486 190.561 369.201C189.765 369.646 189.039 370.091 188.383 370.536C187.4 365.945 186.931 359.879 187.001 353.837ZM207.025 328.263C207.002 328.918 206.908 329.574 206.791 330.23C206.838 329.48 206.932 328.825 207.025 328.263ZM206.791 336.506C207.096 336.061 207.353 335.616 207.611 335.172C208.126 334.258 208.548 333.298 208.852 332.314C209.016 333.392 209.133 334.586 209.227 335.921C209.438 338.942 209.321 342.174 208.922 345.429C208.595 348.029 208.079 350.652 207.377 353.158C207.892 349.317 207.541 345.312 207.166 341.214C207.025 339.668 206.885 338.099 206.791 336.506ZM195.503 340.839C193.161 341.144 190.678 340.722 188.36 339.34C188.688 337.677 189.086 336.202 189.554 334.914C195.924 317.349 187.142 306.506 179.226 296.739C172.715 288.706 166.837 281.446 171.779 271.704C178.851 293.812 185.268 296.646 189.812 298.636C191.92 299.573 193.536 300.276 194.472 303.508C195.105 305.756 195.433 307.747 195.714 309.527C196.674 315.452 197.306 319.387 205.831 322.244C206.089 322.829 206.323 323.415 206.487 324.024C205.995 324.258 205.573 324.75 205.222 325.452C204.449 327.068 203.957 330.511 204.192 335.71C203.349 336.811 202.318 337.771 201.194 338.567C199.484 339.762 197.54 340.558 195.503 340.839ZM187.891 341.987C190.468 343.322 193.208 343.696 195.831 343.345C198.29 343.041 200.608 342.08 202.646 340.652C203.278 340.207 203.864 339.738 204.426 339.2C204.496 339.949 204.566 340.699 204.637 341.448C205.527 351.308 206.37 360.559 192.974 367.889C192.458 362.713 192.575 357.842 192.646 354.212C192.716 351.12 192.763 348.872 192.365 347.842C191.849 346.53 190.21 344.774 187.845 342.315L187.891 341.987ZM166.509 310.557L175.83 325.429C176.111 325.874 176.626 326.085 177.118 326.014C177.352 325.967 178.547 328.778 179.765 331.659C180.421 333.181 181.1 334.75 181.779 336.061C177.306 331.284 171.896 325.031 166.603 317.044C166.579 314.843 166.533 312.688 166.509 310.557ZM163.675 295.662C162.668 290.346 162.621 284.983 163.277 279.643C163.394 284.303 163.535 289.737 163.675 295.662ZM183.84 208.54C184.777 211.023 184.613 214.044 183.723 217.51C182.247 223.178 178.968 230.04 175.338 237.651C171.896 244.818 168.172 252.64 165.268 260.837C165.174 259.057 165.057 257.371 164.917 255.802C175.76 235.122 181.404 220.508 183.84 208.54ZM131.356 239.033C130.091 243.951 129.061 249.127 128.264 254.49C119.88 241.562 113.416 228.915 107.21 203.318C127.117 211.889 132.176 209.547 142.597 204.699C147.656 202.357 154.05 199.383 164.284 196.877C171.685 195.074 175.994 191.35 177.516 188.001C178.242 186.432 178.383 184.91 177.961 183.621C177.516 182.24 176.486 181.162 174.917 180.647C172.341 179.781 168.148 180.436 162.621 183.809C151.919 190.366 137 197.697 124.447 199.383C120.044 199.969 115.969 199.875 112.479 198.774C109.107 197.72 106.297 195.706 104.329 192.498C102.924 190.202 101.94 187.298 101.449 183.668C100.582 177.298 95.4297 158.187 89.809 142.965C85.8744 132.309 81.6354 123.432 78.2864 121.77C77.7477 121.488 77.1154 121.629 76.7407 122.074C70.4407 129.404 66.7638 138.07 63.5787 145.611C61.0494 151.606 58.8245 156.853 55.897 159.897C50.487 165.541 41.9856 163.691 22.4066 144.885L22.2426 144.744C21.8913 142.637 21.54 140.576 21.1887 138.585C21.9616 138.374 22.7578 138.257 23.5307 138.117C27.9571 137.344 31.7277 136.688 32.5708 128.702C32.7581 128.983 32.9455 129.217 33.1094 129.428C33.7886 130.318 34.1633 130.786 34.3975 131.255C34.6552 131.793 34.8191 132.449 35.147 133.924C35.3109 134.65 35.5217 135.494 35.6154 135.939C35.7793 136.618 36.4585 137.039 37.1611 136.899C37.5358 136.805 37.8637 136.524 38.0042 136.196C42.9458 127.062 45.077 125.47 46.5993 124.346C49.1052 122.496 50.1357 121.723 55.5925 102.05C62.1267 78.4662 80.6049 72.8688 96.5773 69.5198C96.7178 69.6369 96.8584 69.7774 97.0223 69.8711C98.1465 70.7142 99.3174 71.1357 100.535 71.1826C101.73 71.2294 102.901 70.925 104.048 70.3395C105.383 69.6603 106.671 68.5596 107.889 67.2012C110.489 66.5923 112.854 65.96 114.985 65.1403C122.995 62.0957 127.047 57.037 122.995 45.3973C123.627 45.1631 124.283 44.9055 124.986 44.6479C130.091 58.3485 138.429 61.1589 149.225 64.789C168.734 71.3465 196.557 80.7145 227.588 168.703C227.775 169.242 228.08 170.085 228.502 171.256C232.132 181.069 243.701 212.428 241.757 220.18L227.143 210.999C227.213 210.414 227.237 209.758 227.213 209.032C227.19 207.276 226.581 205.308 225.785 204.208C225.41 203.716 224.965 203.341 224.473 203.177C223.794 202.919 223.138 203.013 222.506 203.528C221.874 204.02 221.335 205.027 220.96 206.737C220.82 207.439 220.82 208.165 220.937 208.938C220.89 209.055 220.867 209.149 220.867 209.266L220.703 212.077C220.609 213.903 220.375 214.957 220.047 215.449C219.977 215.402 219.883 215.309 219.766 215.191C218.853 214.278 217.892 212.287 217.354 210.086C215.948 204.606 216.393 200.086 216.838 195.472C218.033 183.176 219.251 170.436 188.945 138.772L172.809 111.231C172.458 110.622 171.685 110.411 171.076 110.786C170.654 111.02 170.444 111.465 170.444 111.91C171.38 136.969 175.245 153.058 178.406 166.291C181.498 179.172 183.933 189.289 182.247 202.451C180.655 201.397 178.641 200.554 176.135 199.898C169.53 198.189 163.675 198.399 158.499 200.132C151.661 202.428 146.087 207.393 141.59 214.208C137.187 220.929 133.815 229.478 131.356 239.033ZM130.349 257.699C131.215 251.422 132.363 245.356 133.815 239.642C136.204 230.368 139.459 222.077 143.722 215.613C147.89 209.243 153.043 204.629 159.319 202.545C164.027 200.952 169.413 200.788 175.502 202.357C178.313 203.083 180.374 204.137 181.802 205.472C179.835 217.065 174.729 231.164 164.354 251.328C164.073 249.361 163.722 247.581 163.347 245.965C161.076 236.504 157.937 231.187 154.588 228.869C152.527 227.417 150.42 227.042 148.359 227.51C146.368 227.932 144.471 229.126 142.785 230.859C138.803 234.934 135.852 242.195 135.595 249.291C135.384 255.474 137.632 261.516 141.005 265.568C142.668 267.582 144.635 269.104 146.719 269.947C148.897 270.837 151.216 270.978 153.511 270.181C156.275 269.198 158.968 266.809 161.263 262.593C161.755 261.727 162.223 260.86 162.668 259.994C162.785 261.61 162.856 263.319 162.879 265.123C162.902 265.989 162.926 266.996 162.949 268.167C159.647 280.252 158.804 292.922 163.886 305.335C163.933 307.817 163.98 310.37 164.027 312.969C162.692 310.768 161.38 308.449 160.092 306.014C149.811 286.364 141.497 274.116 134.447 263.764C133.042 261.68 131.684 259.666 130.349 257.699ZM134.213 342.174C134.869 341.401 135.712 340.792 136.766 340.464C137.281 340.3 137.843 340.183 138.475 340.137C145.267 339.668 147.867 341.987 148.054 344.75C148.148 346.296 147.586 348.006 146.579 349.458C145.595 350.933 144.237 352.104 142.761 352.596C140.279 353.439 137.398 352.128 135.525 346.53C135.056 345.172 134.635 343.72 134.213 342.174ZM0.813416 451.873C0.953949 452.575 1.63312 452.997 2.31229 452.856C3.01489 452.716 3.4599 452.06 3.31937 451.358L3.22568 451.006C2.52307 447.54 2.33572 446.65 2.99149 443.746C25.1233 450.327 74.1176 437.704 105.945 429.53C113.486 427.586 120.044 425.9 125.103 424.776C125.782 424.612 126.203 423.956 126.063 423.277C125.103 418.453 125.477 416.368 127.374 415.993C129.834 415.502 134.564 416.837 141.614 418.851C143.417 419.366 145.361 419.905 148.054 420.654C148.733 420.818 149.413 420.42 149.6 419.741C149.647 419.6 149.67 419.436 149.647 419.272V419.249C149.038 414.19 145.361 411.684 140.841 410.56C137.773 409.787 134.33 409.694 131.262 409.858C132.176 408.593 132.831 407.328 133.393 406.181C133.932 405.08 134.424 404.12 134.939 403.698C139.108 400.185 141.801 398.944 143.277 399.014C143.698 399.014 143.909 399.201 143.979 399.459C144.143 399.998 143.979 400.794 143.581 401.707C142.527 404.026 139.857 406.602 136.087 407.141C135.407 407.234 134.916 407.867 135.009 408.569C135.103 409.249 135.712 409.717 136.391 409.67L137.258 409.6C141.895 409.202 146.86 408.78 150.701 407.141C154.518 405.525 156.556 403.206 157.211 400.888C157.563 399.6 157.492 398.358 157.047 397.187C156.649 396.04 155.876 395.009 154.846 394.166C152.551 392.293 148.85 391.332 144.354 392.269C143.183 392.527 142.059 392.902 140.958 393.393C139.857 393.885 138.78 394.494 137.749 395.22C136.415 396.157 135.244 396.672 134.33 396.789C133.815 396.859 133.393 396.789 133.112 396.602C132.808 396.391 132.574 396.04 132.433 395.501C132.176 394.541 132.199 393.136 132.597 391.286C132.855 390.161 133.534 389.248 134.307 388.241C137.234 384.33 141.192 379.084 133.37 355.055C132.831 353.345 132.48 351.589 132.363 349.903C132.269 348.427 132.339 347.022 132.597 345.757C132.761 346.296 132.925 346.811 133.112 347.326C135.571 354.704 139.81 356.273 143.558 355.008C145.595 354.329 147.422 352.783 148.71 350.886C149.998 348.989 150.747 346.717 150.584 344.586C150.303 340.488 146.977 336.998 138.312 337.607C137.468 337.654 136.696 337.818 135.97 338.052C135.033 338.357 134.19 338.802 133.487 339.364C128.803 320.089 126.648 289.245 129.88 261.539C130.677 262.734 131.496 263.952 132.339 265.193C139.342 275.474 147.609 287.653 157.844 307.185C159.858 311.049 161.966 314.609 164.097 317.864C164.823 361.144 164.682 414.659 159.483 419.108L18.636 450.374C17.9568 450.538 17.5352 451.217 17.6757 451.896C17.8397 452.575 18.5189 453.02 19.1981 452.856L160.326 421.521C160.467 421.497 160.631 421.427 160.771 421.333C166.767 417.258 167.259 365.149 166.673 321.658C173.418 331.26 180.139 338.099 184.706 342.76L185.151 343.205C184.73 346.53 184.496 350.184 184.449 353.814C184.378 360.535 184.964 367.304 186.158 372.198C182.645 375.173 182.2 377.819 181.709 380.512C181.053 384.283 180.374 388.218 167.305 394.26C166.884 394.471 166.603 394.869 166.556 395.29L165.479 404.799C165.408 405.501 165.9 406.134 166.603 406.204C166.837 406.227 167.071 406.181 167.259 406.11L281.594 355.523C282.227 355.242 282.531 354.493 282.25 353.861C282.039 353.392 281.618 353.111 281.149 353.088C266.676 351.261 248.666 359.692 232.108 367.444C216.956 374.54 203.044 381.051 195.011 378.241C194.613 377.023 194.285 375.805 194.027 374.564C198.454 373.205 202.131 369.786 204.965 365.243C208.384 359.809 210.585 352.713 211.452 345.734C211.873 342.338 211.99 338.942 211.756 335.757C211.382 330.3 210.468 326.787 209.461 325.195C209.438 325.148 209.391 325.101 209.367 325.054C209.086 323.579 208.618 322.103 207.869 320.628C207.705 320.3 207.424 320.066 207.119 319.972C199.578 317.607 199.039 314.234 198.22 309.129C197.915 307.255 197.587 305.147 196.908 302.805C195.667 298.426 193.582 297.512 190.842 296.294C186.557 294.421 180.42 291.728 173.371 268.191C173.184 267.535 172.458 267.137 171.779 267.348C171.498 267.441 171.263 267.629 171.099 267.863C162.715 280.416 169.577 288.87 177.259 298.355C184.73 307.583 193.044 317.841 187.165 334.047C186.767 335.125 186.439 336.342 186.135 337.654C185.807 337.35 185.479 337.022 185.175 336.67C184.238 335.616 183.161 333.111 182.107 330.651C180.748 327.42 179.39 324.281 177.68 323.602L167.867 307.934C167.329 306.88 166.837 305.826 166.392 304.772C166.158 292.196 165.853 281.212 165.643 273.554C165.596 271.657 165.549 269.994 165.502 268.542C168.43 257.98 173.277 247.815 177.61 238.752C181.334 231.023 184.66 224.044 186.182 218.142C187.634 212.498 187.47 207.838 184.566 204.489C186.744 190.156 184.191 179.476 180.889 165.705C177.961 153.527 174.448 138.889 173.231 116.968L186.791 140.131C186.861 140.224 186.931 140.318 187.001 140.412C216.604 171.326 215.433 183.504 214.309 195.238C213.841 200.062 213.372 204.816 214.871 210.695C215.527 213.318 216.745 215.753 217.963 216.995C218.548 217.58 219.18 217.955 219.836 218.049C220.656 218.166 221.405 217.861 222.014 217.088C222.483 216.48 222.857 215.449 223.092 213.95C223.185 214.138 223.302 214.301 223.419 214.465L223.302 214.676C222.155 216.643 221.288 218.119 223.443 223.95C224.567 226.995 225.972 229.829 228.15 231.609C230.445 233.506 233.443 234.185 237.612 232.71C238.853 232.265 239.696 231.468 240.282 230.227C257.285 243.085 283.14 258.378 308.293 273.249C324.593 282.898 340.612 292.36 353.611 300.768C354.196 301.142 354.992 300.978 355.367 300.393L355.414 300.299C356.21 298.871 357.147 297.559 358.201 296.341L358.669 296.646C355.18 302.501 353.587 306.061 353.259 307.887C352.814 310.464 353.821 311.236 355.812 310.604C356.749 310.3 358.037 309.339 359.489 307.934C363.915 303.625 370.473 294.468 372.37 286.833C372.44 286.575 372.44 286.271 372.346 285.99C372.089 285.311 371.363 284.983 370.707 285.24C367.171 286.575 363.751 288.308 360.754 290.557C359.7 291.329 358.716 292.173 357.779 293.086L243.982 221.562C244.029 221.491 244.052 221.398 244.076 221.304C246.746 213.318 234.661 180.553 230.89 170.366C230.469 169.195 230.141 168.305 229.977 167.86C198.547 78.7004 170.022 69.0982 150.045 62.3767C139.483 58.8169 131.426 56.1002 126.719 41.8375C131.075 28.8629 128.475 17.6916 122.62 10.7827C119.95 7.59761 116.601 5.32589 112.924 4.13148C109.224 2.93707 105.219 2.8668 101.238 4.10806C92.432 6.89502 83.7901 16.2161 79.3169 34.5539C78.6611 37.1769 78.6143 39.355 78.8953 40.4791C79.0827 41.2051 79.4574 41.7204 79.9726 41.9546C80.6986 42.259 81.4012 42.0717 82.0102 41.2988C82.2444 41.0178 82.502 40.5494 82.7596 39.9171L82.7127 40.1513C82.6659 40.5728 82.8064 40.9709 83.064 41.2286C83.228 41.3925 83.1343 41.6267 83.509 42.5401C85.3123 46.9664 90.1369 58.8403 93.5562 65.4682C93.9075 66.1473 94.2822 66.7797 94.6569 67.3183C78.3333 70.8313 59.9018 77.0376 53.1334 101.371C47.9108 120.2 47.0911 120.809 45.077 122.308C43.5547 123.432 41.4703 124.978 37.3484 132.145C37.1377 131.231 36.9503 130.669 36.6693 130.084C36.3414 129.451 35.9198 128.889 35.147 127.882C34.5381 127.086 33.6949 126.009 32.5474 124.393C32.3132 124.018 31.915 123.784 31.4466 123.784C30.744 123.784 30.1819 124.346 30.1819 125.048C30.1819 134.369 26.9734 134.932 23.0857 135.611L22.4534 135.704C22.875 135.423 23.2731 135.119 23.6478 134.768C26.505 132.051 28.0508 127.414 26.2474 121.418C24.3972 115.212 20.1817 112.121 15.6616 111.558H15.5914C14.959 109.17 14.3501 107.038 13.7646 105.188C12.5234 101.418 10.72 98.7478 9.01038 97.6002C8.14386 97.0381 7.27728 96.7805 6.43417 96.8976C5.52081 97.0147 4.74796 97.53 4.18588 98.4902C3.27252 99.9656 2.85095 102.706 3.34277 106.921C3.64725 109.521 4.04538 112.542 4.49036 115.61C3.55356 116.547 2.73383 117.648 2.07809 118.889C-0.779144 124.182 -0.779114 132.004 5.49741 141.255C5.68475 141.583 6.01263 141.817 6.38736 141.864L7.65204 142.075C9.83008 142.426 12.2657 142.824 14.5375 143.503C15.8958 166.455 27.6526 255.076 37.325 327.818C42.1495 364.236 46.4588 396.649 48.6602 414.893C44.8194 416.392 41.0488 418.593 37.9105 421.755C37.3953 422.27 37.4187 423.066 37.9105 423.558C38.1681 423.839 38.5428 423.956 38.8941 423.933L50.8617 423.535C51.5643 423.511 52.103 422.926 52.0795 422.223C52.0795 422.2 52.0795 422.153 52.0795 422.13C51.8922 420.514 51.6814 418.663 51.4472 416.602C51.9858 416.439 52.5245 416.275 53.0632 416.134C53.4145 418.593 53.7189 420.631 53.9765 422.223C54.0937 422.879 54.7026 423.347 55.3817 423.277C64.375 422.223 69.3166 420.654 71.3541 419.108C73.5556 417.469 73.4151 415.806 71.6352 414.424C70.4642 413.511 68.2861 412.808 65.5226 412.527C62.6419 412.223 59.0352 412.317 55.2412 413.043C53.4613 399.506 50.8851 376.18 47.7937 348.099C41.0019 286.622 31.7043 202.474 22.9218 148.89C42.3603 166.993 51.4472 168.211 57.7238 161.677C60.9791 158.281 63.2977 152.824 65.9207 146.595C68.9185 139.545 72.3378 131.465 77.9351 124.603C80.5581 126.992 84.0243 134.674 87.4201 143.831C92.9706 158.937 98.0762 177.766 98.9193 184.02C99.4579 188.001 100.582 191.233 102.151 193.832C104.47 197.627 107.772 199.969 111.73 201.21C115.571 202.404 120.021 202.545 124.775 201.912C137.749 200.156 153.043 192.662 163.933 185.987C168.757 183.036 172.153 182.404 174.097 183.059C174.87 183.317 175.338 183.785 175.549 184.394C175.76 185.073 175.643 185.963 175.198 186.947C173.933 189.687 170.209 192.802 163.675 194.418C153.183 196.994 146.696 199.992 141.52 202.404C131.426 207.088 126.742 209.266 105.945 199.992C105.688 199.875 105.383 199.828 105.079 199.898C104.4 200.039 103.978 200.741 104.119 201.421C111.004 230.766 118.124 243.857 127.726 258.307C123.838 287.91 126.25 321.635 131.45 341.682C131.239 342.034 131.075 342.385 130.911 342.736C129.951 344.844 129.623 347.397 129.81 350.067C129.951 351.964 130.349 353.931 130.958 355.828C138.358 378.592 134.845 383.253 132.269 386.695C131.309 387.96 130.466 389.084 130.115 390.747C129.623 392.995 129.599 394.822 129.974 396.18C130.302 397.328 130.887 398.171 131.684 398.71C132.503 399.272 133.51 399.459 134.635 399.319C135.97 399.155 137.539 398.475 139.225 397.304C140.115 396.672 141.052 396.133 141.988 395.712C142.925 395.29 143.885 394.986 144.869 394.775C148.546 393.979 151.497 394.705 153.23 396.133C153.909 396.696 154.401 397.351 154.659 398.054C154.916 398.733 154.963 399.459 154.752 400.209C154.307 401.824 152.715 403.511 149.694 404.799C147.82 405.595 145.572 406.087 143.183 406.415C144.401 405.291 145.314 404.003 145.876 402.761C146.532 401.333 146.743 399.927 146.462 398.827C146.087 397.445 145.08 396.532 143.394 396.461C141.333 396.391 138.031 397.773 133.3 401.754C132.363 402.527 131.777 403.698 131.098 405.056C130.279 406.719 129.248 408.757 127.328 410.373C126.953 410.654 126.742 411.099 126.789 411.567C126.883 412.27 127.515 412.762 128.218 412.691L128.335 412.668C131.777 412.27 136.391 412.082 140.232 413.043C143.113 413.745 145.548 415.127 146.602 417.609C145.197 417.211 143.698 416.79 142.316 416.392C134.916 414.284 129.951 412.879 126.883 413.488C123.44 414.167 122.386 416.79 123.346 422.551C118.522 423.675 112.339 425.268 105.336 427.071C73.1574 435.338 23.2965 448.172 2.52307 440.936C2.47623 440.912 2.42938 440.889 2.38254 440.865C1.67996 440.701 1.00076 441.123 0.836823 441.802C-0.334167 446.416 -0.193634 447.095 0.743164 451.521L0.813416 451.873Z" fill="#BA0D07"/>
<path d="M23.6243 451.967H385.485V449.414H23.6243C22.8983 449.414 22.3362 449.976 22.3362 450.679C22.3362 451.381 22.8983 451.967 23.6243 451.967Z" fill="#59C8FF"/>
<path d="M167.001 254.35C165.947 256.317 164.87 258.355 163.722 260.439C161.755 264.046 159.554 266.06 157.352 266.833C155.689 267.418 153.98 267.301 152.364 266.645C150.654 265.966 149.038 264.678 147.656 262.992C144.635 259.385 142.644 253.975 142.832 248.425C143.066 241.937 145.736 235.356 149.319 231.679C150.654 230.321 152.106 229.384 153.582 229.056C154.963 228.752 156.415 229.009 157.82 229.993C160.701 232.007 163.441 236.832 165.572 245.614C166.135 247.98 166.603 250.72 166.954 253.928L167.001 254.35ZM364.712 293.531C365.414 292.875 366.187 292.243 366.96 291.658C369.068 290.088 371.41 288.777 373.845 287.7C371.48 294.281 366.14 301.517 362.393 305.171C361.714 305.827 361.128 306.342 360.637 306.717C361.199 304.82 362.885 301.4 366.187 295.943C366.538 295.358 366.351 294.585 365.766 294.21L364.712 293.531ZM229.368 208.119C229.368 208.259 229.368 208.377 229.368 208.494L228.08 207.697C228.057 207.229 228.057 206.761 228.15 206.339C228.291 205.707 228.431 205.262 228.549 204.957C229.017 205.707 229.345 206.948 229.368 208.119ZM242.858 227.698C242.577 228.588 242.132 229.127 241.453 229.361C238.268 230.485 236.066 230.04 234.45 228.705C232.717 227.276 231.523 224.817 230.516 222.124C229.087 218.26 229.251 216.855 229.813 215.73C232.811 219.337 237.308 223.365 242.858 227.698ZM243.748 220.531C243.631 220.672 243.561 220.812 243.514 220.976C243.467 221.117 243.444 221.234 243.444 221.375C243.444 222.803 243.397 224.044 243.326 225.075C237.846 220.812 233.584 216.948 230.961 213.599C231.078 213.318 231.195 213.037 231.312 212.733L243.748 220.531ZM245.973 222.85C246.371 222.85 246.722 222.756 247.05 222.616L360.707 294.046C359.934 294.96 359.208 295.92 358.552 296.974C345.671 288.683 330.121 279.479 314.265 270.111C288.714 254.982 262.39 239.431 245.668 226.878C245.856 225.754 245.95 224.419 245.973 222.85ZM125.361 11.4856C130.115 17.1064 132.504 25.8654 130.091 36.2404C129.951 35.6315 129.81 35.0226 129.67 34.3668C128.756 30.1044 123.37 24.6944 116.625 21.2985C113.182 19.542 109.341 18.2774 105.594 17.9495C101.73 17.6216 97.9593 18.2539 94.6805 20.2681C92.2917 21.7669 90.2073 23.9684 88.5913 27.0598C93.0645 14.4365 99.8329 7.76183 106.671 5.6072C110.138 4.50647 113.627 4.57673 116.836 5.6072C120.068 6.6611 122.995 8.67521 125.361 11.4856ZM126.578 42.1422C124.447 39.285 118.264 35.0928 111.473 32.3996C107.889 30.9709 104.095 29.917 100.653 29.6828C97.0225 29.4018 93.7203 30.0107 91.2612 31.9077C90.0668 32.8445 89.1066 34.0624 88.404 35.6315C88.4274 35.4675 88.4742 35.327 88.4977 35.1631C89.8326 28.5587 92.5961 24.5773 96.0154 22.4461C98.779 20.7365 102.034 20.1978 105.36 20.5022C108.779 20.8067 112.292 21.9543 115.477 23.5702C121.567 26.6383 126.414 31.3222 127.187 34.9055C127.656 37.0835 128.171 39.0742 128.733 40.901C128.663 41.0649 128.592 41.2523 128.546 41.4162C127.866 41.6738 127.211 41.908 126.578 42.1422ZM118.756 61.8149C117.609 62.2599 116.344 62.658 114.986 63.0328C117.772 58.5361 117.21 55.6321 116.765 53.2901C116.297 50.7373 115.969 49.0979 125.29 45.3742C128.639 55.1168 125.314 59.3324 118.756 61.8149ZM105.266 65.164C104.236 65.3747 103.159 65.5855 102.081 65.8197C101.543 65.164 101.027 64.3677 100.512 63.3606C97.163 56.8733 92.3619 45.0463 90.5586 40.6433C90.3244 40.0578 90.1371 39.5895 89.9731 39.2382C90.3947 36.7556 91.4017 35.046 92.8303 33.9218C94.7273 32.4464 97.4441 32.0014 100.465 32.2122C103.65 32.4464 107.187 33.43 110.536 34.765C116.672 37.2006 122.175 40.7136 124.166 43.079C113.089 47.5756 113.557 49.9879 114.26 53.7585C114.681 55.9131 115.196 58.6298 111.8 63.1967C111.59 63.4543 111.402 63.7119 111.215 63.9461C109.318 64.3677 107.327 64.7658 105.266 65.164ZM105.641 67.6933L105.758 67.6699L106.812 67.4591C106.414 67.5996 106.016 67.6933 105.641 67.6933ZM47.0211 420.326C49.1054 418.757 51.3538 417.516 53.6723 416.556C53.8128 417.821 53.9533 419.015 54.0939 420.092L47.0211 420.326ZM60.9793 419.647C60.7685 418.242 60.5109 416.556 60.2533 414.612C63.8365 413.933 67.2324 413.816 69.9491 414.12C72.2443 414.354 73.9539 414.87 74.7736 415.502C74.961 415.642 74.9141 415.877 74.5394 416.158C72.9 417.376 68.7313 418.664 60.9793 419.647ZM20.9547 113.315C24.1867 114.041 27.0908 116.547 28.4959 121.208C29.9714 126.149 28.8238 129.85 26.5989 131.957C26.1305 132.402 25.5919 132.777 25.0532 133.082C23.6714 125.494 22.2897 118.819 20.9547 113.315ZM12.6407 112.097C12.2426 112.285 11.8678 112.519 11.4931 112.777C11.1418 110.271 10.8373 107.858 10.5797 105.68C10.1582 102.097 10.4158 99.8956 11.0481 98.8652C11.1886 98.631 11.3292 98.4905 11.4697 98.4905C11.657 98.4436 11.9381 98.5607 12.266 98.7715C13.554 99.638 14.9827 101.839 16.0366 105.048C16.5518 106.664 17.0905 108.514 17.6291 110.575C15.9195 110.739 14.2098 111.254 12.6407 112.097ZM11.8912 115.634C12.5002 115.142 13.1559 114.697 13.8351 114.346C15.2169 113.596 16.7626 113.175 18.2849 113.081C19.6901 118.772 21.1421 125.798 22.6175 133.878C21.6339 134.018 20.6268 133.948 19.6432 133.667C16.8328 132.847 14.3035 130.154 13.4135 125.236C12.8983 122.332 12.3831 119.053 11.9147 115.798L11.8912 115.634ZM21.8447 143.503C22.8283 143.972 23.7651 144.487 24.5848 145.143C33.4843 198.353 43.0162 284.702 49.9485 347.42C53.0634 375.665 55.663 399.108 57.4195 412.668C56.9042 412.785 56.3656 412.949 55.8269 413.113C53.6021 394.846 49.3162 362.643 44.5385 326.553C35.0067 254.888 23.4372 167.813 21.8447 143.503ZM19.1046 139.873C16.9499 139.311 14.7484 138.96 12.7343 138.632L12.0552 138.515C6.66861 130.365 6.59836 123.643 9.01059 119.147C9.19794 118.772 9.43216 118.397 9.66635 118.069C10.0645 120.739 10.4861 123.362 10.9076 125.681C11.9849 131.7 15.2637 135.025 18.9172 136.103C19.8306 136.384 20.7674 136.501 21.7042 136.501C21.0016 136.899 20.2755 137.414 19.5729 138.023C19.2919 138.257 19.1046 138.632 19.1046 139.03C19.1046 139.288 19.1046 139.569 19.1046 139.873ZM23.9993 141.747C23.2733 141.349 22.477 140.998 21.6808 140.693C21.6808 140.295 21.6573 139.944 21.6573 139.616C22.2428 139.147 22.8283 138.773 23.4373 138.492C23.6246 139.546 23.812 140.646 23.9993 141.747ZM207.517 362.948C205.035 366.906 201.92 369.88 198.22 371.098C198.15 370.629 198.056 370.138 197.986 369.669C202.904 367.116 206.206 364.353 208.384 361.449C208.103 361.964 207.799 362.456 207.517 362.948ZM195.269 371.683C195.011 371.707 194.754 371.707 194.496 371.707C194.847 371.473 195.222 371.238 195.62 370.981C195.667 371.215 195.69 371.426 195.737 371.637C195.573 371.66 195.433 371.683 195.269 371.683ZM191.826 373.861C192.014 374.025 192.224 374.119 192.459 374.142C193.489 374.26 194.473 374.306 195.433 374.236C195.714 374.213 195.971 374.189 196.229 374.142C196.557 375.641 196.955 377.14 197.447 378.592C197.541 378.967 197.798 379.295 198.196 379.459C207.166 383.206 221.85 376.32 237.893 368.803C252.109 362.151 267.449 354.962 280.26 354.47L172.95 401.942L173.699 395.337C187.376 388.874 188.173 384.353 188.922 380.021C189.273 378.03 189.625 376.063 191.826 373.861ZM191.686 352.901C191.709 350.09 191.873 347.28 192.131 344.633C193.512 346.085 194.402 347.163 194.683 347.842C194.894 348.427 194.871 350.442 194.8 353.229C194.707 357.163 194.59 362.55 195.245 368.264C194.449 368.709 193.723 369.154 193.067 369.599C192.084 365.009 191.615 358.943 191.686 352.901ZM211.733 327.326C211.686 327.982 211.616 328.638 211.475 329.27C211.546 328.544 211.616 327.888 211.733 327.326ZM211.475 335.546C211.78 335.125 212.061 334.68 212.319 334.212C212.81 333.322 213.232 332.361 213.56 331.378C213.7 332.455 213.817 333.649 213.911 334.984C214.122 338.006 214.028 341.237 213.607 344.493C213.279 347.092 212.764 349.692 212.061 352.221C212.6 348.381 212.225 344.376 211.85 340.277C211.71 338.708 211.569 337.162 211.475 335.546ZM200.21 339.879C197.845 340.207 195.363 339.785 193.044 338.404C193.395 336.741 193.793 335.265 194.262 333.977C200.609 316.412 191.826 305.569 183.934 295.803C177.4 287.77 171.521 280.51 176.486 270.767C183.536 292.875 189.976 295.709 194.496 297.7C196.627 298.637 198.243 299.339 199.157 302.571C199.789 304.82 200.117 306.81 200.398 308.59C201.358 314.515 201.99 318.45 210.515 321.307C210.796 321.893 211.007 322.478 211.194 323.087C210.679 323.321 210.258 323.813 209.93 324.516C209.157 326.132 208.665 329.574 208.899 334.774C208.033 335.874 207.002 336.835 205.878 337.631C204.168 338.825 202.225 339.622 200.21 339.879ZM192.576 341.05C195.175 342.362 197.915 342.76 200.538 342.409C202.974 342.104 205.316 341.144 207.33 339.715C207.962 339.27 208.571 338.802 209.133 338.263C209.18 339.013 209.251 339.762 209.321 340.511C210.211 350.371 211.054 359.622 197.658 366.953C197.142 361.777 197.26 356.905 197.33 353.275C197.4 350.184 197.47 347.936 197.049 346.905C196.534 345.594 194.918 343.837 192.529 341.378L192.576 341.05ZM171.193 309.621L180.514 324.492C180.795 324.937 181.311 325.148 181.802 325.078C182.037 325.031 183.231 327.818 184.472 330.722C185.128 332.244 185.784 333.813 186.463 335.125C181.99 330.347 176.58 324.094 171.31 316.108C171.264 313.906 171.24 311.752 171.193 309.621ZM168.359 294.726C167.352 289.409 167.329 284.023 167.961 278.706C168.078 283.367 168.219 288.8 168.359 294.726ZM188.547 207.604C189.461 210.086 189.297 213.107 188.407 216.573C186.955 222.241 183.676 229.103 180.023 236.715C176.603 243.881 172.856 251.703 169.975 259.9C169.882 258.12 169.741 256.434 169.601 254.865C180.444 234.185 186.112 219.548 188.547 207.604ZM136.063 238.096C134.799 242.991 133.768 248.19 132.949 253.553C124.564 240.626 118.1 227.979 111.894 202.381C131.824 210.929 136.86 208.611 147.282 203.763C152.364 201.421 158.734 198.447 168.968 195.941C176.369 194.137 180.678 190.413 182.201 187.064C182.927 185.495 183.067 183.973 182.646 182.685C182.201 181.303 181.194 180.226 179.601 179.711C177.025 178.844 172.833 179.5 167.306 182.872C156.626 189.43 141.684 196.76 129.131 198.446C124.752 199.032 120.653 198.938 117.187 197.838C113.815 196.784 110.981 194.77 109.013 191.561C107.608 189.266 106.625 186.362 106.133 182.732C105.29 176.362 100.114 157.251 94.4931 142.028C90.5586 131.372 86.3196 122.496 82.9706 120.81C82.4319 120.552 81.7996 120.692 81.4248 121.137C75.1249 128.468 71.4714 137.133 68.2863 144.674C65.7336 150.67 63.5087 155.916 60.5812 158.961C55.1712 164.605 46.6698 162.731 27.0907 143.948L26.9268 143.808C26.5755 141.7 26.2242 139.639 25.8729 137.648C26.6692 137.438 27.442 137.297 28.2149 137.18C32.6412 136.407 36.4118 135.751 37.255 127.765C37.4657 128.046 37.6297 128.281 37.817 128.491C38.4728 129.381 38.8475 129.85 39.0817 130.318C39.3628 130.857 39.5033 131.512 39.8546 132.988C40.0185 133.714 40.2059 134.557 40.2996 135.002C40.4635 135.681 41.1661 136.103 41.8453 135.939C42.2434 135.845 42.5479 135.588 42.7118 135.26C47.63 126.126 49.7846 124.533 51.2835 123.409C53.7894 121.559 54.8199 120.786 60.2767 101.113C66.8343 77.5297 85.3125 71.9323 101.261 68.5833C101.402 68.7004 101.566 68.8175 101.706 68.9346C102.831 69.7777 104.025 70.1992 105.219 70.2461C106.414 70.2929 107.585 69.9885 108.732 69.403C110.067 68.7238 111.379 67.623 112.597 66.2647C115.173 65.6558 117.562 65.0234 119.67 64.2038C127.679 61.1592 131.754 56.1005 127.679 44.4608C128.311 44.2032 128.991 43.969 129.693 43.7114C134.775 57.412 143.136 60.2224 153.933 63.8525C173.418 70.41 201.264 79.778 232.272 167.766C232.46 168.305 232.764 169.148 233.209 170.296C236.816 180.132 248.385 211.491 246.465 219.243L231.851 210.063C231.898 209.477 231.921 208.822 231.921 208.096C231.898 206.339 231.265 204.372 230.469 203.271C230.094 202.779 229.673 202.404 229.181 202.241C228.502 201.983 227.823 202.077 227.19 202.592C226.581 203.084 226.019 204.091 225.668 205.8C225.504 206.503 225.504 207.229 225.621 208.002C225.598 208.119 225.574 208.213 225.551 208.33L225.41 211.14C225.293 212.967 225.059 214.021 224.755 214.513C224.661 214.466 224.567 214.372 224.473 214.255C223.537 213.342 222.6 211.351 222.038 209.149C220.656 203.669 221.078 199.149 221.523 194.535C222.717 182.24 223.935 169.5 193.653 137.836L177.517 110.294C177.165 109.685 176.369 109.474 175.76 109.849C175.362 110.083 175.128 110.528 175.151 110.973C176.065 136.033 179.929 152.122 183.114 165.354C186.182 178.235 188.618 188.353 186.931 201.515C185.362 200.461 183.348 199.617 180.842 198.962C174.214 197.252 168.359 197.463 163.207 199.196C156.345 201.491 150.771 206.456 146.298 213.271C141.872 219.993 138.523 228.541 136.063 238.096ZM135.056 256.762C135.899 250.485 137.047 244.42 138.523 238.705C140.911 229.431 144.167 221.14 148.406 214.676C152.598 208.306 157.75 203.693 164.003 201.608C168.711 200.016 174.097 199.852 180.21 201.421C183.02 202.147 185.058 203.201 186.486 204.536C184.519 216.129 179.414 230.227 169.062 250.392C168.758 248.425 168.43 246.645 168.032 245.029C165.76 235.567 162.622 230.251 159.273 227.909C157.235 226.48 155.104 226.105 153.043 226.574C151.052 226.995 149.179 228.19 147.492 229.923C143.488 233.998 140.537 241.258 140.302 248.354C140.092 254.537 142.317 260.579 145.689 264.631C147.352 266.645 149.319 268.167 151.403 269.011C153.582 269.901 155.9 270.041 158.195 269.245C160.982 268.261 163.675 265.872 165.971 261.657C166.439 260.767 166.907 259.9 167.376 259.057C167.469 260.673 167.54 262.383 167.587 264.186C167.587 265.029 167.633 266.06 167.657 267.231C164.331 279.315 163.488 291.986 168.57 304.398C168.617 306.881 168.664 309.433 168.711 312.033C167.376 309.831 166.064 307.513 164.8 305.077C154.495 285.428 146.181 273.179 139.155 262.828C137.726 260.743 136.368 258.729 135.056 256.762ZM138.897 341.237C139.553 340.465 140.396 339.856 141.45 339.528C141.965 339.364 142.551 339.247 143.16 339.2C149.975 338.732 152.551 341.05 152.738 343.814C152.855 345.359 152.27 347.069 151.286 348.521C150.303 349.997 148.921 351.168 147.445 351.659C144.986 352.479 142.082 351.191 140.209 345.594C139.764 344.235 139.319 342.783 138.897 341.237ZM5.52103 450.936C5.66153 451.639 6.31729 452.06 7.0199 451.92C7.69907 451.779 8.14407 451.124 8.00354 450.421L7.93326 450.07C7.20724 446.604 7.01993 445.714 7.67569 442.81C29.8075 449.391 78.8253 436.767 110.653 428.594C118.194 426.65 124.752 424.964 129.787 423.816C130.466 423.676 130.888 423.02 130.771 422.341C129.81 417.516 130.185 415.432 132.059 415.057C134.541 414.565 139.272 415.9 146.298 417.914C148.101 418.429 150.069 418.968 152.738 419.694C153.418 419.881 154.12 419.483 154.308 418.804C154.331 418.664 154.354 418.5 154.331 418.336V418.312C153.722 413.254 150.045 410.748 145.548 409.624C142.48 408.851 139.014 408.757 135.946 408.921C136.883 407.656 137.515 406.392 138.078 405.244C138.64 404.143 139.108 403.183 139.623 402.762C143.815 399.249 146.485 398.007 147.984 398.078C148.382 398.078 148.616 398.265 148.687 398.523C148.827 399.061 148.663 399.857 148.265 400.771C147.211 403.089 144.541 405.666 140.794 406.204C140.092 406.298 139.6 406.93 139.717 407.633C139.811 408.312 140.396 408.78 141.075 408.734L141.942 408.663C146.579 408.265 151.544 407.844 155.385 406.204C159.202 404.565 161.263 402.27 161.896 399.951C162.247 398.663 162.177 397.422 161.755 396.251C161.333 395.103 160.584 394.073 159.53 393.23C157.258 391.356 153.535 390.396 149.038 391.333C147.89 391.59 146.743 391.965 145.642 392.457C144.541 392.949 143.464 393.558 142.434 394.284C141.099 395.22 139.951 395.736 139.014 395.853C138.499 395.923 138.101 395.853 137.796 395.665C137.492 395.455 137.258 395.103 137.117 394.565C136.86 393.604 136.907 392.176 137.305 390.349C137.539 389.225 138.218 388.311 138.991 387.281C141.918 383.393 145.876 378.124 138.078 354.118C137.515 352.409 137.164 350.652 137.047 348.966C136.953 347.491 137.024 346.085 137.281 344.821C137.469 345.359 137.633 345.875 137.796 346.39C140.279 353.767 144.518 355.336 148.265 354.072C150.279 353.392 152.106 351.847 153.394 349.95C154.682 348.053 155.432 345.781 155.291 343.65C155.01 339.551 151.661 336.062 142.996 336.671C142.153 336.717 141.38 336.881 140.677 337.092C139.717 337.42 138.897 337.865 138.171 338.427C133.487 319.153 131.333 288.309 134.565 260.603C135.384 261.797 136.204 263.015 137.047 264.256C144.05 274.538 152.317 286.716 162.528 306.248C164.565 310.112 166.673 313.672 168.804 316.928C169.507 360.208 169.39 413.722 164.167 418.172L23.3435 449.437C22.6644 449.601 22.2194 450.28 22.3834 450.96C22.5239 451.639 23.2031 452.084 23.8822 451.92L165.01 420.584C165.174 420.561 165.315 420.49 165.455 420.397C171.474 416.322 171.966 364.212 171.381 320.722C178.126 330.324 184.824 337.162 189.391 341.823L189.835 342.268C189.414 345.594 189.18 349.247 189.156 352.877C189.063 359.599 189.648 366.344 190.843 371.262C187.353 374.236 186.885 376.883 186.416 379.576C185.76 383.346 185.058 387.281 171.99 393.323C171.568 393.534 171.31 393.932 171.264 394.354L170.186 403.862C170.093 404.565 170.608 405.197 171.31 405.267C171.545 405.291 171.755 405.244 171.966 405.174L286.279 354.587C286.934 354.306 287.215 353.556 286.934 352.901C286.747 352.456 286.302 352.175 285.834 352.151C271.36 350.324 253.35 358.756 236.816 366.508C221.64 373.604 207.728 380.115 199.695 377.304C199.321 376.086 198.993 374.868 198.712 373.627C203.161 372.269 206.838 368.85 209.672 364.306C213.068 358.849 215.269 351.776 216.136 344.797C216.581 341.401 216.675 338.006 216.464 334.82C216.089 329.364 215.152 325.851 214.145 324.258C214.122 324.211 214.075 324.164 214.052 324.118C213.794 322.642 213.302 321.167 212.553 319.691C212.412 319.363 212.131 319.129 211.803 319.035C204.286 316.647 203.747 313.298 202.927 308.192C202.623 306.318 202.271 304.211 201.616 301.869C200.351 297.489 198.267 296.576 195.527 295.358C191.264 293.484 185.128 290.791 178.055 267.254C177.868 266.598 177.165 266.2 176.486 266.411C176.182 266.481 175.947 266.669 175.784 266.926C167.423 279.479 174.261 287.934 181.943 297.419C189.414 306.646 197.728 316.904 191.85 333.111C191.475 334.188 191.124 335.406 190.819 336.717C190.491 336.413 190.187 336.085 189.859 335.734C188.922 334.68 187.845 332.174 186.814 329.715C185.433 326.483 184.098 323.345 182.388 322.666L172.552 306.998C172.013 305.944 171.521 304.89 171.1 303.836C170.842 291.259 170.537 280.276 170.35 272.617C170.28 270.72 170.233 269.034 170.21 267.605C173.137 257.043 177.985 246.879 182.318 237.815C186.018 230.087 189.344 223.108 190.866 217.206C192.318 211.562 192.177 206.901 189.273 203.552C191.428 189.219 188.875 178.516 185.573 164.769C182.646 152.59 179.133 137.953 177.915 116.032L191.498 139.194C191.545 139.288 191.615 139.382 191.709 139.475C221.312 170.389 220.117 182.568 218.993 194.301C218.525 199.126 218.08 203.88 219.555 209.758C220.234 212.381 221.429 214.817 222.67 216.058C223.232 216.644 223.865 217.018 224.52 217.112C225.363 217.229 226.089 216.925 226.698 216.152C227.167 215.543 227.565 214.513 227.776 213.014C227.893 213.201 228.01 213.365 228.127 213.529L228.01 213.74C226.862 215.707 225.972 217.182 228.127 223.014C229.251 226.059 230.68 228.892 232.834 230.672C235.13 232.569 238.151 233.248 242.296 231.773C243.537 231.328 244.404 230.532 244.966 229.29C261.969 242.148 287.824 257.418 312.977 272.289C329.277 281.938 345.297 291.423 358.295 299.831C358.88 300.206 359.676 300.042 360.051 299.456L360.098 299.363C360.894 297.934 361.831 296.599 362.885 295.405L363.353 295.709C359.864 301.564 358.271 305.124 357.967 306.951C357.498 309.527 358.529 310.3 360.496 309.644C361.433 309.363 362.721 308.403 364.173 306.998C368.599 302.688 375.18 293.531 377.054 285.896C377.148 285.639 377.148 285.334 377.031 285.03C376.796 284.374 376.047 284.046 375.391 284.304C371.855 285.639 368.459 287.372 365.438 289.62C364.407 290.393 363.4 291.236 362.463 292.149L248.69 220.625C248.713 220.555 248.736 220.461 248.783 220.367C251.43 212.381 239.345 179.617 235.598 169.429C235.153 168.258 234.825 167.368 234.661 166.923C203.255 77.7639 174.73 68.1617 154.729 61.4402C144.167 57.8804 136.11 55.1637 131.426 40.901C135.782 27.9263 133.159 16.7551 127.304 9.84621C124.635 6.66111 121.285 4.38937 117.609 3.19496C113.932 2.00054 109.903 1.93028 105.922 3.17153C97.1161 5.9585 88.4742 15.2796 84.001 33.6174C83.3687 36.2404 83.2984 38.4185 83.5795 39.5426C83.7668 40.2686 84.1415 40.7839 84.6802 41.0181C85.4062 41.3225 86.1088 41.1352 86.7177 40.3623C86.952 40.0813 87.1862 39.6129 87.4438 38.9805L87.3969 39.2147C87.3501 39.6363 87.4906 40.0344 87.7716 40.2921C87.9356 40.456 87.8185 40.6902 88.1932 41.6036C89.9965 46.0299 94.8445 57.9038 98.2403 64.5316C98.5916 65.2108 98.9663 65.8431 99.3411 66.3818C83.0408 69.8948 64.586 76.1011 57.8411 100.434C52.6184 119.264 51.7753 119.873 49.7846 121.372C48.2623 122.496 46.1545 124.042 42.0326 131.208C41.8219 130.295 41.6579 129.733 41.3535 129.147C41.0256 128.515 40.604 127.953 39.8312 126.946C39.2223 126.149 38.4026 125.072 37.2316 123.456C37.0208 123.081 36.6226 122.847 36.1542 122.847C35.4516 122.847 34.8661 123.409 34.8661 124.112C34.8661 133.433 31.6576 133.995 27.7933 134.674L27.161 134.768C27.5591 134.487 27.9573 134.182 28.332 133.831C31.2126 131.114 32.7349 126.477 30.9316 120.482C29.0814 114.275 24.8658 111.184 20.3458 110.622H20.2755C19.6666 108.233 19.0577 106.102 18.4488 104.252C17.231 100.481 15.4042 97.8113 13.6946 96.6637C12.828 96.0782 11.9615 95.844 11.1184 95.9611C10.2284 96.0782 9.45557 96.5934 8.87009 97.5537C7.9567 99.0291 7.55856 101.769 8.05035 105.985C8.35483 108.584 8.72958 111.606 9.17456 114.674C8.23776 115.61 7.41803 116.711 6.76227 117.952C3.92847 123.245 3.92847 131.068 10.1816 140.318C10.369 140.623 10.6968 140.88 11.095 140.927L12.3362 141.138C14.5377 141.489 16.9499 141.887 19.2216 142.567C20.58 165.518 32.3368 254.139 42.0092 326.881C46.8571 363.299 51.143 395.712 53.3679 413.956C49.5036 415.432 45.7564 417.657 42.5947 420.818C42.1029 421.31 42.1029 422.13 42.5947 422.622C42.8757 422.903 43.227 423.02 43.5783 422.996L55.5459 422.598C56.2485 422.575 56.8105 421.989 56.7871 421.287C56.7871 421.263 56.7637 421.216 56.7637 421.193C56.5998 419.577 56.389 417.727 56.1314 415.666C56.67 415.479 57.2321 415.338 57.7708 415.197C58.0987 417.657 58.4031 419.694 58.6607 421.287C58.7778 421.942 59.3867 422.411 60.0659 422.341C69.0826 421.287 74.0242 419.718 76.0617 418.172C78.2632 416.532 78.1227 414.87 76.3193 413.488C75.1483 412.574 72.9703 411.872 70.2302 411.591C67.3495 411.286 63.7429 411.38 59.9254 412.106C58.1689 398.569 55.5693 375.243 52.4779 347.163C45.6861 285.686 36.3884 201.538 27.6294 147.953C47.0445 166.057 56.1548 167.275 62.4313 160.74C65.6633 157.345 67.9818 151.888 70.6283 145.658C73.6026 138.609 77.0219 130.529 82.6193 123.667C85.2423 126.056 88.7318 133.737 92.1043 142.895C97.6782 158 102.784 176.83 103.627 183.083C104.142 187.064 105.266 190.296 106.835 192.896C109.154 196.667 112.48 199.032 116.414 200.273C120.278 201.468 124.728 201.608 129.482 200.976C142.434 199.219 157.727 191.725 168.64 185.05C173.442 182.099 176.861 181.467 178.805 182.123C179.554 182.38 180.046 182.849 180.233 183.458C180.444 184.137 180.35 185.027 179.905 186.011C178.641 188.751 174.917 191.866 168.383 193.481C157.891 196.034 151.38 199.055 146.228 201.444C136.134 206.128 131.426 208.306 110.653 199.055C110.395 198.938 110.091 198.891 109.763 198.962C109.084 199.102 108.662 199.805 108.826 200.484C115.688 229.829 122.831 242.921 132.41 257.371C128.546 286.95 130.934 320.698 136.134 340.746C135.946 341.097 135.759 341.448 135.595 341.8C134.658 343.907 134.33 346.46 134.518 349.13C134.635 351.027 135.033 352.994 135.642 354.891C143.043 377.655 139.553 382.316 136.953 385.759C136.017 387.023 135.173 388.124 134.799 389.81C134.307 392.059 134.307 393.862 134.682 395.244C134.986 396.391 135.572 397.234 136.391 397.773C137.188 398.335 138.195 398.523 139.342 398.382C140.677 398.218 142.223 397.539 143.909 396.368C144.799 395.736 145.736 395.197 146.696 394.775C147.609 394.354 148.57 394.049 149.553 393.839C153.23 393.042 156.181 393.768 157.938 395.197C158.617 395.759 159.109 396.415 159.366 397.117C159.6 397.797 159.647 398.523 159.436 399.272C158.992 400.888 157.422 402.574 154.378 403.862C152.528 404.659 150.256 405.15 147.867 405.478C149.085 404.354 150.022 403.043 150.584 401.825C151.24 400.396 151.427 398.991 151.146 397.89C150.771 396.508 149.787 395.595 148.078 395.525C146.04 395.455 142.715 396.836 137.984 400.794C137.047 401.591 136.485 402.738 135.806 404.12C134.963 405.783 133.956 407.82 132.012 409.436C131.661 409.717 131.426 410.162 131.497 410.631C131.567 411.333 132.199 411.825 132.902 411.755L133.019 411.731C136.462 411.333 141.075 411.146 144.94 412.106C147.797 412.809 150.232 414.19 151.286 416.673C149.881 416.275 148.406 415.853 147.001 415.455C139.6 413.347 134.635 411.942 131.567 412.551C128.124 413.23 127.07 415.853 128.03 421.615C123.206 422.739 117.023 424.308 110.021 426.135C77.865 434.402 27.9807 447.236 7.23068 439.976C7.18387 439.976 7.11359 439.952 7.06674 439.929C6.38757 439.765 5.68497 440.186 5.52103 440.866C4.37344 445.479 4.51398 446.135 5.42737 450.585L5.52103 450.936Z" fill="#FF5959"/>
<path d="M27.9571 450.444H390.333V447.868H27.9571C27.2545 447.868 26.669 448.454 26.669 449.156C26.669 449.859 27.2545 450.444 27.9571 450.444Z" fill="#FEFEFE"/>
<path d="M171.334 252.827C170.28 254.795 169.203 256.832 168.078 258.916C166.111 262.523 163.91 264.537 161.685 265.31C160.022 265.896 158.312 265.778 156.696 265.123C155.01 264.444 153.394 263.155 151.989 261.469C148.991 257.863 147.001 252.453 147.188 246.902C147.399 240.415 150.069 233.834 153.652 230.157C154.987 228.799 156.439 227.838 157.914 227.534C159.296 227.229 160.748 227.487 162.153 228.471C165.034 230.485 167.797 235.309 169.905 244.092C170.467 246.457 170.936 249.197 171.287 252.382L171.334 252.827ZM369.044 292.009C369.771 291.353 370.52 290.721 371.316 290.135C373.424 288.566 375.743 287.255 378.202 286.177C375.836 292.758 370.473 299.995 366.749 303.648C366.07 304.304 365.461 304.819 364.969 305.194C365.532 303.297 367.218 299.878 370.52 294.421C370.871 293.836 370.684 293.063 370.098 292.688L369.044 292.009ZM233.724 206.596C233.724 206.737 233.724 206.854 233.724 206.971L232.436 206.175C232.389 205.683 232.413 205.238 232.507 204.817C232.624 204.184 232.764 203.739 232.881 203.435C233.35 204.184 233.701 205.425 233.724 206.596ZM247.214 226.175C246.91 227.065 246.465 227.604 245.786 227.838C242.624 228.962 240.423 228.517 238.807 227.183C237.05 225.754 235.856 223.295 234.872 220.602C233.42 216.714 233.584 215.332 234.146 214.208C237.167 217.815 241.64 221.843 247.214 226.175ZM248.081 219.009C247.987 219.149 247.893 219.29 247.847 219.454C247.8 219.571 247.776 219.712 247.776 219.852C247.776 221.281 247.753 222.499 247.659 223.552C242.179 219.29 237.917 215.426 235.294 212.077C235.434 211.796 235.551 211.515 235.645 211.187L248.081 219.009ZM250.306 221.328C250.704 221.328 251.055 221.234 251.383 221.093L365.04 292.501C364.267 293.437 363.564 294.398 362.908 295.451C350.004 287.137 334.453 277.957 318.621 268.589C293.047 253.46 266.723 237.885 250.001 225.356C250.189 224.232 250.282 222.897 250.306 221.328ZM129.717 9.96313C134.448 15.5839 136.836 24.3429 134.448 34.6945C134.307 34.109 134.167 33.4767 134.026 32.8444C133.113 28.5585 127.703 23.1719 120.981 19.7526C117.515 18.0196 113.674 16.7549 109.927 16.427C106.086 16.0991 102.292 16.7315 99.0133 18.7456C96.6479 20.221 94.5401 22.4459 92.9241 25.5374C97.3973 12.914 104.166 6.23936 111.028 4.08473C114.494 2.984 117.983 3.05426 121.192 4.08473C124.4 5.13863 127.351 7.15274 129.717 9.96313ZM130.935 40.6198C128.78 37.7625 122.597 33.5704 115.829 30.8771C112.222 29.4485 108.451 28.3946 104.985 28.1604C101.355 27.8793 98.053 28.4883 95.6174 30.3853C94.423 31.3221 93.4393 32.5399 92.7368 34.0856C92.7836 33.9451 92.807 33.7811 92.8304 33.6406C94.1888 27.0362 96.9289 23.0314 100.348 20.9236C103.112 19.214 106.367 18.6753 109.716 18.9798C113.135 19.2608 116.648 20.4318 119.834 22.0244C125.923 25.1158 130.771 29.7998 131.52 33.383C131.988 35.5611 132.504 37.5518 133.066 39.3551C132.996 39.5424 132.949 39.7298 132.878 39.8937C132.199 40.1514 131.543 40.3856 130.935 40.6198ZM123.112 60.2924C121.941 60.7374 120.677 61.1356 119.318 61.5103C122.105 57.0137 121.567 54.1096 121.122 51.7676C120.63 49.2148 120.302 47.5755 129.646 43.8517C132.996 53.5944 129.67 57.8099 123.112 60.2924ZM109.622 63.6415C108.569 63.8523 107.515 64.0631 106.437 64.2973C105.899 63.6415 105.36 62.8452 104.845 61.8382C101.496 55.3509 96.6947 43.5238 94.8914 39.1209C94.6572 38.5354 94.4698 38.067 94.3293 37.7157C94.7274 35.2332 95.7579 33.5001 97.1631 32.3994C99.0835 30.9239 101.777 30.4789 104.798 30.6897C108.007 30.9239 111.519 31.9076 114.892 33.2425C121.005 35.6782 126.508 39.1911 128.499 41.5565C117.445 46.0532 117.89 48.4654 118.616 52.236C119.014 54.3906 119.529 57.1074 116.133 61.6742C115.946 61.9318 115.758 62.1895 115.548 62.4237C113.674 62.8452 111.683 63.2434 109.622 63.6415ZM109.974 66.1708L110.091 66.1474L111.145 65.9366C110.747 66.0772 110.372 66.1474 109.974 66.1708ZM51.3538 418.804C53.4382 417.211 55.7099 415.994 58.0051 415.033C58.169 416.298 58.3095 417.492 58.4266 418.57L51.3538 418.804ZM65.3355 418.125C65.1013 416.72 64.8671 415.033 64.6095 413.09C68.1927 412.387 71.5886 412.293 74.3053 412.598C76.577 412.832 78.2867 413.347 79.1064 413.979C79.2938 414.12 79.2469 414.331 78.8722 414.612C77.2328 415.853 73.0641 417.141 65.3355 418.125ZM25.2875 111.769C28.5194 112.519 31.4469 115.025 32.8287 119.685C34.3275 124.627 33.1566 128.327 30.9317 130.435C30.4633 130.88 29.948 131.255 29.386 131.559C28.0042 123.948 26.6224 117.296 25.2875 111.769ZM16.9734 110.552C16.5753 110.762 16.2006 110.996 15.8259 111.254C15.4746 108.748 15.1701 106.336 14.9125 104.158C14.4909 100.575 14.7485 98.3732 15.3809 97.3427C15.5214 97.1085 15.6853 96.968 15.8024 96.9446C16.0132 96.9211 16.2708 97.0383 16.6221 97.249C17.8868 98.1156 19.3154 100.317 20.3693 103.526C20.908 105.142 21.4466 106.992 21.9853 109.053C20.2522 109.217 18.5425 109.732 16.9734 110.552ZM16.224 114.111C16.8329 113.596 17.4887 113.175 18.1678 112.823C19.573 112.074 21.0953 111.652 22.6176 111.559C24.0228 117.25 25.4749 124.276 26.9503 132.355C25.9667 132.496 24.9596 132.426 23.976 132.145C21.189 131.325 18.6363 128.632 17.7697 123.713C17.231 120.809 16.7158 117.531 16.2474 114.275L16.224 114.111ZM26.1775 141.981C27.1845 142.426 28.0979 142.965 28.9176 143.62C37.8171 196.83 47.349 283.179 54.2813 345.898C57.3961 374.142 59.9958 397.586 61.7757 411.122C61.237 411.263 60.6983 411.427 60.1597 411.591C57.9348 393.323 53.6724 361.121 48.8713 325.031C39.3629 253.366 27.7934 166.291 26.1775 141.981ZM23.4373 138.351C21.3061 137.789 19.1046 137.438 17.0905 137.11L16.3879 136.993C11.0013 128.842 10.9311 122.121 13.3434 117.624C13.5541 117.25 13.7649 116.875 14.0225 116.524C14.4207 119.217 14.8422 121.84 15.2404 124.158C16.3177 130.177 19.6199 133.503 23.2734 134.58C24.1867 134.861 25.1235 134.978 26.0603 134.978C25.3343 135.377 24.6317 135.868 23.9291 136.501C23.6247 136.735 23.4373 137.11 23.4373 137.508C23.4373 137.765 23.4373 138.046 23.4373 138.351ZM28.3555 140.224C27.606 139.826 26.8332 139.475 26.0369 139.171C26.0135 138.772 25.9901 138.421 25.9901 138.093C26.5756 137.625 27.1611 137.25 27.7934 136.969C27.9808 138.023 28.1681 139.124 28.3555 140.224ZM211.85 361.425C209.391 365.36 206.253 368.358 202.553 369.575C202.482 369.107 202.412 368.615 202.342 368.147C207.26 365.594 210.562 362.83 212.74 359.926C212.436 360.442 212.155 360.933 211.85 361.425ZM199.625 370.161C199.367 370.184 199.086 370.184 198.829 370.184C199.18 369.95 199.555 369.716 199.953 369.458C200 369.692 200.047 369.903 200.07 370.114C199.93 370.137 199.766 370.161 199.625 370.161ZM196.159 372.339C196.346 372.479 196.581 372.597 196.815 372.62C197.822 372.737 198.805 372.76 199.789 372.69C200.047 372.69 200.304 372.667 200.562 372.62C200.89 374.119 201.288 375.594 201.78 377.07C201.873 377.444 202.131 377.772 202.529 377.936C211.499 381.683 226.183 374.798 242.226 367.28C256.442 360.606 271.782 353.439 284.616 352.947L177.306 400.419L178.055 393.815C191.709 387.351 192.505 382.831 193.255 378.498C193.606 376.508 193.957 374.54 196.159 372.339ZM196.018 351.378C196.065 348.568 196.206 345.757 196.463 343.111C197.845 344.563 198.759 345.64 199.016 346.319C199.25 346.882 199.204 348.896 199.133 351.706C199.04 355.641 198.922 361.027 199.578 366.742C198.782 367.187 198.079 367.632 197.424 368.077C196.44 363.486 195.972 357.42 196.018 351.378ZM216.066 325.804C216.042 326.459 215.949 327.115 215.808 327.747C215.878 326.998 215.972 326.366 216.066 325.804ZM215.832 334.024C216.113 333.602 216.394 333.157 216.651 332.689C217.167 331.799 217.565 330.839 217.893 329.855C218.033 330.909 218.174 332.127 218.267 333.462C218.478 336.483 218.361 339.715 217.963 342.97C217.635 345.57 217.12 348.17 216.417 350.699C216.932 346.858 216.581 342.853 216.206 338.755C216.066 337.186 215.902 335.617 215.832 334.024ZM204.543 338.357C202.178 338.685 199.719 338.24 197.4 336.881C197.728 335.218 198.126 333.72 198.595 332.455C204.965 314.89 196.159 304.047 188.266 294.28C181.732 286.247 175.854 278.987 180.819 269.221C187.892 291.353 194.309 294.187 198.829 296.178C200.96 297.091 202.576 297.817 203.489 301.049C204.145 303.274 204.45 305.288 204.754 307.068C205.691 312.993 206.347 316.927 214.848 319.761C215.129 320.37 215.363 320.956 215.527 321.541C215.035 321.799 214.59 322.291 214.262 322.993C213.49 324.609 212.998 328.052 213.232 333.251C212.365 334.352 211.358 335.312 210.234 336.108C208.525 337.303 206.581 338.099 204.543 338.357ZM196.908 339.528C199.508 340.839 202.248 341.237 204.871 340.886C207.307 340.558 209.649 339.621 211.686 338.193C212.295 337.748 212.904 337.279 213.466 336.741C213.536 337.49 213.607 338.24 213.654 338.966C214.567 348.849 215.41 358.1 202.014 365.43C201.499 360.254 201.592 355.36 201.686 351.753C201.756 348.638 201.803 346.413 201.382 345.383C200.866 344.071 199.25 342.315 196.862 339.856L196.908 339.528ZM175.549 308.075L184.871 322.97C185.152 323.415 185.667 323.626 186.159 323.555C186.393 323.508 187.564 326.295 188.805 329.199C189.461 330.722 190.117 332.291 190.796 333.602C186.323 328.825 180.913 322.572 175.643 314.586C175.62 312.384 175.573 310.229 175.549 308.075ZM172.692 293.203C171.685 287.863 171.662 282.5 172.294 277.184C172.411 281.845 172.552 287.255 172.692 293.203ZM192.88 206.081C193.817 208.564 193.63 211.585 192.74 215.051C191.288 220.719 188.009 227.581 184.355 235.192C180.936 242.359 177.212 250.181 174.308 258.378C174.215 256.598 174.097 254.912 173.933 253.343C184.8 232.663 190.444 218.025 192.88 206.081ZM140.396 236.55C139.132 241.469 138.101 246.668 137.281 252.031C128.897 239.103 122.433 226.456 116.227 200.859C136.157 209.407 141.216 207.065 151.638 202.24C156.696 199.898 163.09 196.924 173.325 194.418C180.702 192.615 185.011 188.891 186.557 185.542C187.259 183.973 187.4 182.451 187.002 181.162C186.557 179.781 185.526 178.703 183.934 178.188C181.381 177.322 177.189 177.977 171.638 181.35C160.959 187.907 146.04 195.238 133.464 196.924C129.084 197.51 124.986 197.392 121.52 196.315C118.147 195.261 115.337 193.247 113.346 190.039C111.964 187.743 110.957 184.839 110.489 181.209C109.622 174.839 104.447 155.728 98.8259 140.506C94.9148 129.85 90.6758 120.973 87.3033 119.287C86.7647 119.03 86.1558 119.17 85.781 119.615C79.4811 126.945 75.8042 135.611 72.6191 143.152C70.0897 149.147 67.8648 154.394 64.9373 157.438C59.5274 163.082 51.0025 161.209 31.4235 142.426L31.283 142.285C30.9317 140.178 30.557 138.117 30.2057 136.103C31.002 135.915 31.7982 135.775 32.5477 135.658C36.9974 134.885 40.768 134.229 41.5877 126.243C41.7985 126.5 41.9858 126.758 42.1498 126.969C42.8289 127.835 43.1803 128.327 43.4145 128.772C43.6955 129.334 43.8595 129.99 44.1873 131.465C44.3513 132.191 44.5386 133.035 44.6557 133.48C44.8197 134.159 45.4988 134.58 46.178 134.416C46.5761 134.323 46.8806 134.065 47.0446 133.737C51.9627 124.603 54.1174 123.011 55.6396 121.887C58.1222 120.037 59.1761 119.264 64.6329 99.591C71.167 76.0072 89.6453 70.3864 105.594 67.0608C105.758 67.1779 105.899 67.295 106.039 67.4121C107.163 68.2552 108.358 68.6768 109.576 68.7236C110.747 68.7705 111.941 68.466 113.089 67.8805C114.424 67.2013 115.712 66.1006 116.929 64.7188C119.506 64.1333 121.895 63.4776 124.002 62.6813C132.012 59.6367 136.087 54.578 132.012 42.9149C132.644 42.6807 133.323 42.4465 134.026 42.1889C139.108 55.8895 147.469 58.6999 158.266 62.33C177.774 68.8876 205.597 78.2555 236.605 166.244C236.792 166.783 237.12 167.626 237.542 168.773C241.172 178.61 252.741 209.969 250.798 217.721L236.184 208.54C236.23 207.955 236.277 207.299 236.254 206.573C236.23 204.817 235.621 202.849 234.825 201.749C234.45 201.257 234.005 200.882 233.514 200.718C232.834 200.46 232.155 200.554 231.523 201.069C230.914 201.561 230.375 202.568 230.001 204.278C229.86 204.98 229.86 205.706 229.954 206.479C229.93 206.573 229.907 206.69 229.907 206.807L229.743 209.618C229.649 211.421 229.415 212.498 229.087 212.99C229.017 212.943 228.923 212.85 228.806 212.732C227.893 211.796 226.933 209.805 226.371 207.627C224.989 202.147 225.434 197.627 225.879 193.013C227.05 180.717 228.291 167.954 197.986 136.29L181.849 108.772C181.498 108.163 180.725 107.952 180.116 108.303C179.695 108.561 179.461 109.006 179.484 109.451C180.421 134.51 184.262 150.6 187.447 163.832C190.538 176.713 192.95 186.83 191.288 199.992C189.695 198.938 187.681 198.095 185.175 197.439C178.571 195.73 172.716 195.94 167.54 197.673C160.701 199.945 155.104 204.934 150.631 211.749C146.204 218.47 142.855 226.995 140.396 236.55ZM139.389 255.24C140.256 248.963 141.38 242.874 142.855 237.183C145.244 227.885 148.499 219.618 152.762 213.154C156.931 206.784 162.083 202.17 168.336 200.086C173.067 198.493 178.43 198.329 184.543 199.898C187.353 200.624 189.391 201.678 190.819 203.013C188.852 214.606 183.746 228.705 173.395 248.869C173.114 246.902 172.762 245.122 172.364 243.506C170.093 234.045 166.954 228.728 163.605 226.386C161.568 224.958 159.437 224.583 157.376 225.028C155.408 225.473 153.511 226.667 151.825 228.4C147.844 232.475 144.869 239.712 144.635 246.808C144.424 253.015 146.673 259.057 150.022 263.109C151.708 265.099 153.652 266.645 155.76 267.488C157.938 268.378 160.256 268.519 162.528 267.722C165.315 266.739 168.008 264.35 170.303 260.134C170.772 259.244 171.24 258.378 171.709 257.535C171.802 259.151 171.873 260.86 171.919 262.664C171.943 263.507 171.966 264.537 171.99 265.708C168.687 277.793 167.844 290.463 172.903 302.876C172.95 305.358 172.997 307.911 173.067 310.51C171.709 308.309 170.397 305.99 169.132 303.555C158.828 283.905 150.514 271.657 143.488 261.305C142.082 259.221 140.701 257.207 139.389 255.24ZM143.253 339.715C143.909 338.942 144.752 338.333 145.806 338.005C146.321 337.841 146.883 337.724 147.492 337.678C154.308 337.209 156.884 339.528 157.071 342.291C157.188 343.837 156.603 345.547 155.619 346.999C154.635 348.474 153.254 349.645 151.802 350.137C149.319 350.957 146.439 349.668 144.542 344.048C144.097 342.713 143.652 341.261 143.253 339.715ZM9.85379 449.414C9.99429 450.093 10.6735 450.538 11.3527 450.397C12.0553 450.257 12.4768 449.578 12.3363 448.899L12.266 448.547C11.54 445.081 11.3527 444.191 12.0084 441.287C34.1402 447.868 83.158 435.245 114.986 427.071C122.527 425.127 129.084 423.441 134.143 422.294C134.799 422.153 135.244 421.474 135.103 420.818C134.143 415.97 134.518 413.909 136.415 413.535C138.874 413.043 143.605 414.378 150.631 416.392C152.434 416.884 154.401 417.446 157.071 418.172C157.75 418.359 158.453 417.961 158.64 417.282C158.687 417.141 158.687 416.977 158.687 416.813V416.79H158.664H158.687C158.078 411.731 154.401 409.225 149.881 408.101C146.813 407.328 143.347 407.235 140.303 407.398C141.216 406.134 141.848 404.846 142.41 403.722C142.972 402.621 143.441 401.661 143.956 401.239C148.148 397.726 150.841 396.485 152.317 396.555C152.715 396.555 152.949 396.742 153.02 397C153.16 397.539 153.02 398.335 152.598 399.225C151.544 401.544 148.898 404.143 145.127 404.682C144.424 404.775 143.956 405.408 144.05 406.11C144.143 406.79 144.752 407.258 145.408 407.211L146.298 407.141C150.912 406.743 155.9 406.321 159.718 404.682C163.558 403.042 165.596 400.747 166.228 398.405C166.58 397.141 166.509 395.876 166.088 394.728C165.666 393.581 164.917 392.55 163.886 391.684C161.591 389.834 157.867 388.85 153.371 389.81C152.223 390.068 151.099 390.443 149.998 390.911C148.874 391.426 147.82 392.035 146.79 392.761C145.431 393.698 144.284 394.213 143.347 394.33C142.832 394.4 142.434 394.33 142.129 394.143C141.848 393.932 141.614 393.581 141.474 393.042C141.192 392.082 141.239 390.653 141.637 388.827C141.872 387.679 142.574 386.789 143.324 385.759C146.251 381.871 150.233 376.601 142.41 352.596C141.872 350.886 141.52 349.13 141.403 347.444C141.286 345.968 141.356 344.563 141.637 343.298C141.801 343.837 141.965 344.352 142.129 344.867C144.612 352.245 148.851 353.814 152.598 352.549C154.612 351.87 156.462 350.324 157.727 348.427C159.015 346.53 159.764 344.259 159.624 342.104C159.343 338.029 156.017 334.539 147.328 335.148C146.485 335.195 145.713 335.336 145.01 335.57C144.05 335.874 143.23 336.343 142.504 336.905C137.82 317.63 135.689 286.786 138.921 259.057C139.717 260.275 140.537 261.469 141.38 262.71C148.382 273.015 156.65 285.194 166.884 304.726C168.898 308.59 171.006 312.126 173.137 315.405C173.84 358.685 173.723 412.2 168.5 416.649L27.6763 447.915C26.9971 448.079 26.5522 448.735 26.7161 449.437C26.8566 450.116 27.5358 450.538 28.2384 450.397L169.367 419.062C169.507 419.015 169.648 418.968 169.788 418.874C175.807 414.799 176.299 362.69 175.713 319.199C182.458 328.801 189.18 335.64 193.723 340.277L194.192 340.746C193.747 344.071 193.536 347.725 193.489 351.355C193.419 358.053 193.981 364.821 195.199 369.739C191.686 372.714 191.217 375.36 190.749 378.053C190.093 381.824 189.414 385.759 176.322 391.801C175.901 392.012 175.643 392.386 175.596 392.831L174.519 402.34C174.449 403.042 174.941 403.675 175.643 403.745C175.877 403.768 176.088 403.722 176.299 403.628L290.635 353.064C291.267 352.783 291.572 352.034 291.29 351.378C291.08 350.933 290.635 350.652 290.166 350.629C275.716 348.802 257.706 357.233 241.149 364.985C225.972 372.081 212.084 378.592 204.028 375.782C203.653 374.564 203.325 373.323 203.044 372.105C207.494 370.746 211.171 367.304 214.005 362.784C217.401 357.327 219.626 350.254 220.492 343.275C220.914 339.879 221.031 336.483 220.797 333.298C220.422 327.841 219.485 324.305 218.501 322.736C218.455 322.689 218.431 322.642 218.384 322.595C218.127 321.12 217.635 319.644 216.909 318.169C216.745 317.841 216.464 317.607 216.16 317.513C208.618 315.124 208.08 311.775 207.26 306.67C206.956 304.773 206.628 302.688 205.948 300.346C204.707 295.967 202.599 295.03 199.859 293.836C195.597 291.962 189.461 289.269 182.411 265.732C182.201 265.052 181.498 264.678 180.819 264.889C180.514 264.959 180.28 265.146 180.116 265.404V265.38C171.755 277.957 178.617 286.411 186.299 295.896C193.77 305.124 202.084 315.382 196.206 331.588C195.808 332.666 195.456 333.86 195.152 335.172C194.824 334.891 194.52 334.563 194.215 334.211C193.255 333.157 192.201 330.652 191.147 328.192C189.765 324.961 188.43 321.822 186.721 321.143L176.908 305.475C176.369 304.421 175.877 303.367 175.432 302.313C175.175 289.737 174.894 278.73 174.683 271.071C174.636 269.198 174.589 267.512 174.542 266.083C177.47 255.497 182.318 245.356 186.65 236.293C190.351 228.564 193.7 221.585 195.199 215.683C196.651 210.039 196.51 205.379 193.606 202.03C195.784 187.697 193.208 176.994 189.906 163.246C187.002 151.068 183.489 136.407 182.271 114.509L195.831 137.672C195.901 137.765 195.972 137.859 196.042 137.953C225.645 168.867 224.474 181.045 223.349 192.779C222.881 197.603 222.413 202.357 223.911 208.236C224.567 210.835 225.785 213.295 227.003 214.536C227.588 215.121 228.221 215.496 228.877 215.59C229.696 215.683 230.446 215.402 231.031 214.629C231.523 213.997 231.898 212.99 232.108 211.491C232.226 211.655 232.343 211.843 232.46 212.006L232.343 212.217C231.195 214.161 230.329 215.66 232.46 221.492C233.607 224.536 235.013 227.37 237.191 229.15C239.486 231.047 242.483 231.726 246.629 230.251C247.893 229.806 248.737 229.009 249.299 227.768C266.325 240.602 292.18 255.895 317.31 270.767C333.634 280.416 349.653 289.901 362.627 298.309C363.236 298.683 364.009 298.52 364.407 297.934L364.454 297.84C365.25 296.412 366.187 295.077 367.218 293.882L367.71 294.187C364.22 300.042 362.627 303.602 362.3 305.428C361.855 308.005 362.862 308.777 364.852 308.122C365.789 307.817 367.077 306.88 368.506 305.475C372.956 301.143 379.513 292.009 381.387 284.374C381.48 284.116 381.48 283.812 381.387 283.507C381.129 282.852 380.38 282.524 379.724 282.781C376.211 284.116 372.792 285.849 369.794 288.098C368.74 288.87 367.756 289.714 366.82 290.627L253.022 219.103C253.046 219.009 253.093 218.939 253.116 218.845C255.786 210.859 243.678 178.071 239.931 167.907C239.486 166.712 239.181 165.846 239.017 165.401C207.588 76.2414 179.062 66.6392 159.062 59.9177C148.523 56.3579 140.443 53.6412 135.759 39.3785C140.115 26.3805 137.492 15.2326 131.661 8.30032C128.991 5.13863 125.642 2.8669 121.965 1.67249C118.264 0.478073 114.236 0.407826 110.255 1.64908C101.449 4.43605 92.8304 13.7572 88.3338 32.0715C87.7014 34.7179 87.6546 36.896 87.9357 37.9967C88.0996 38.7462 88.4743 39.2614 89.013 39.4956C89.739 39.8001 90.4416 39.6127 91.0505 38.8398C91.2847 38.5588 91.5189 38.0904 91.7765 37.4581L91.7531 37.6923C91.6829 38.1138 91.8234 38.4885 92.1044 38.7696C92.2683 38.9335 92.1747 39.1443 92.526 40.0811C94.3293 44.5075 99.1772 56.3813 102.597 63.0092C102.948 63.6883 103.299 64.3207 103.674 64.8593C87.3736 68.3723 68.9187 74.5786 62.1738 98.9118C56.9512 117.741 56.108 118.35 54.1173 119.826C52.5951 120.973 50.5107 122.519 46.3888 129.686C46.1546 128.772 45.9907 128.21 45.6862 127.625C45.3583 126.992 44.9368 126.43 44.1639 125.423C43.5784 124.627 42.7353 123.55 41.5877 121.934C41.3535 121.559 40.9554 121.325 40.487 121.325C39.7844 121.325 39.2223 121.887 39.2223 122.589C39.2223 131.91 35.9904 132.473 32.1261 133.128L31.4938 133.245C31.9153 132.964 32.3135 132.636 32.6648 132.285C35.5454 129.592 37.0911 124.955 35.2878 118.959C33.4142 112.753 29.222 109.662 24.702 109.099H24.6083C23.9994 106.711 23.3905 104.579 22.7816 102.729C21.5638 98.9587 19.737 96.2888 18.0273 95.1412C17.1842 94.5557 16.2943 94.3215 15.4745 94.4386C14.5612 94.5557 13.7883 95.071 13.2028 96.0078C12.3129 97.4832 11.8913 100.247 12.3831 104.462C12.6876 107.062 13.0857 110.06 13.5073 113.151C12.5939 114.088 11.7742 115.189 11.095 116.43C8.26123 121.723 8.26123 129.545 14.5378 138.796C14.7251 139.1 15.0296 139.335 15.4277 139.405L16.6924 139.616C18.8704 139.967 21.2827 140.365 23.5779 141.044C24.9128 163.996 36.693 252.616 46.3419 325.359C51.1899 361.777 55.4991 394.19 57.7006 412.434C53.8597 413.909 50.0891 416.134 46.9275 419.296C46.4356 419.788 46.4356 420.607 46.9509 421.099C47.2085 421.357 47.5598 421.497 47.9345 421.474L59.8787 421.076C60.5812 421.052 61.1433 420.467 61.1199 419.764C61.1199 419.717 61.1199 419.694 61.1199 419.671C60.9326 418.055 60.7218 416.204 60.4641 414.143C61.0262 413.956 61.5649 413.816 62.1035 413.652C62.4314 416.134 62.7359 418.172 63.0169 419.764C63.1106 420.42 63.7429 420.888 64.3987 420.818C73.4153 419.741 78.3569 418.195 80.3945 416.649C82.5959 415.01 82.4554 413.347 80.6521 411.965C79.4811 411.052 77.303 410.349 74.5629 410.068C71.6823 409.74 68.0756 409.858 64.2581 410.56C62.5017 397.047 59.9255 373.697 56.8107 345.617C50.0189 284.14 40.7212 200.015 31.9622 146.431C51.4007 164.534 60.4876 165.752 66.7641 159.218C70.0195 155.822 72.3146 150.365 74.9611 144.136C77.9354 137.086 81.3547 129.006 86.9754 122.144C89.5984 124.51 93.0646 132.215 96.4371 141.372C102.011 156.478 107.117 175.307 107.96 181.537C108.498 185.542 109.599 188.774 111.192 191.35C113.51 195.144 116.812 197.51 120.77 198.751C124.611 199.945 129.061 200.086 133.815 199.453C146.79 197.697 162.06 190.203 172.973 183.528C177.774 180.577 181.194 179.945 183.137 180.6C183.887 180.858 184.379 181.326 184.566 181.912C184.8 182.614 184.683 183.504 184.238 184.488C182.974 187.228 179.25 190.343 172.716 191.936C162.224 194.512 155.713 197.533 150.56 199.922C140.466 204.606 135.759 206.784 114.986 197.533C114.728 197.392 114.424 197.346 114.119 197.416C113.44 197.58 112.995 198.282 113.159 198.962C120.021 228.307 127.164 241.375 136.743 255.848C132.878 285.428 135.291 319.176 140.49 339.223C140.279 339.574 140.092 339.926 139.928 340.277C138.991 342.385 138.663 344.938 138.85 347.608C138.991 349.505 139.366 351.472 139.998 353.369C147.399 376.133 143.886 380.793 141.286 384.236C140.349 385.501 139.506 386.602 139.132 388.288C138.663 390.536 138.64 392.34 139.014 393.721C139.319 394.869 139.904 395.712 140.724 396.251C141.544 396.789 142.527 397 143.675 396.86C145.01 396.696 146.556 396.016 148.242 394.845C149.155 394.19 150.069 393.674 151.029 393.253C151.966 392.831 152.926 392.527 153.909 392.316C157.586 391.52 160.537 392.246 162.27 393.674C162.95 394.213 163.441 394.869 163.699 395.595C163.957 396.274 163.98 397 163.793 397.75C163.348 399.365 161.755 401.052 158.734 402.34C156.86 403.136 154.589 403.628 152.223 403.956C153.441 402.832 154.354 401.52 154.917 400.279C155.572 398.874 155.783 397.468 155.479 396.344C155.127 394.986 154.12 394.073 152.411 394.002C150.373 393.909 147.071 395.314 142.34 399.272C141.403 400.068 140.818 401.216 140.139 402.597C139.295 404.26 138.288 406.298 136.368 407.914C135.993 408.171 135.782 408.64 135.829 409.108C135.923 409.811 136.555 410.303 137.258 410.232L137.375 410.209C140.794 409.811 145.431 409.6 149.272 410.56C152.153 411.286 154.565 412.668 155.643 415.15C154.237 414.752 152.738 414.331 151.333 413.933C143.933 411.825 138.968 410.42 135.9 411.029C132.48 411.708 131.403 414.331 132.387 420.092C127.562 421.193 121.379 422.785 114.353 424.589C82.1978 432.879 32.3134 445.713 11.5634 438.453C11.5166 438.453 11.4698 438.43 11.3995 438.406C10.7203 438.242 10.0411 438.664 9.85379 439.343C8.70621 443.934 8.84674 444.613 9.78354 449.062L9.85379 449.414Z" fill="#FEFEFE"/>
</svg>
