<svg width="111" height="49" viewBox="0 0 111 49" fill="none" xmlns="http://www.w3.org/2000/svg">
<g clip-path="url(#clip0_3206_731)">
<path d="M7.78065 26.6377H3.49902V44.2015H17.0115V40.7118H7.78065V26.6377Z" fill="#F1F0F0"/>
<path d="M32.3424 27.3303C30.9842 26.5908 29.4419 26.2441 27.6694 26.2441C25.9199 26.2441 24.3776 26.6139 23.0425 27.3303C21.6844 28.0698 20.6255 29.1098 19.8658 30.4964C19.1062 31.883 18.7148 33.5239 18.7148 35.4189C18.7148 37.314 19.1062 38.9548 19.8658 40.3414C20.6255 41.728 21.6844 42.768 23.0425 43.5075C24.4007 44.247 25.943 44.5937 27.6694 44.5937C29.4189 44.5937 30.9842 44.2239 32.3424 43.5075C33.7005 42.768 34.7594 41.728 35.5191 40.3414C36.2787 38.9548 36.67 37.314 36.67 35.4189C36.67 33.5239 36.2787 31.883 35.5191 30.4964C34.7594 29.1098 33.7005 28.0698 32.3424 27.3303ZM31.0533 39.7867C30.2016 40.7574 29.0736 41.2427 27.6924 41.2427C26.3113 41.2427 25.2063 40.7574 24.3546 39.7867C23.5029 38.8161 23.0655 37.3602 23.0655 35.4189C23.0655 33.4777 23.5029 31.9986 24.3546 31.0511C25.2063 30.0804 26.3113 29.5951 27.6924 29.5951C29.0736 29.5951 30.2016 30.0804 31.0533 31.0511C31.905 32.0217 32.3424 33.4777 32.3424 35.4189C32.3194 37.3602 31.905 38.8392 31.0533 39.7867Z" fill="#F1F0F0"/>
<path d="M76.1484 44.2015H89.4997V40.8505H80.4301V36.7831H89.0624V33.617H80.4301V29.8731H89.4997V26.6377H76.1484V44.2015Z" fill="#F1F0F0"/>
<path d="M91.8711 30.1273H97.5569V44.2015H101.816V30.1273H107.501V26.6377H91.8711V30.1273Z" fill="#F1F0F0"/>
<path d="M7.9648 17.0932H11.3717L15.1469 23.7258H20.3723L16.0446 16.6078C17.2877 16.1919 18.2545 15.4754 18.8991 14.5048C19.5666 13.5342 19.8889 12.3324 19.8889 10.9458C19.8889 9.05079 19.2674 7.54863 18.0473 6.46244C16.8273 5.37626 15.1008 4.84473 12.914 4.84473H3.49902V23.7489H7.98782V17.0932H7.9648ZM7.9648 8.33438H12.2004C13.2132 8.33438 13.9959 8.56548 14.5254 9.02768C15.0548 9.48989 15.331 10.137 15.331 10.9689C15.331 11.8009 15.0548 12.448 14.5254 12.9102C13.9959 13.3724 13.2132 13.6035 12.2004 13.6035H7.9648V8.33438Z" fill="#F1F0F0"/>
<path d="M35.2199 16.3533C35.2199 17.7861 34.8976 18.8261 34.2761 19.5194C33.6545 20.1896 32.7107 20.5363 31.4447 20.5363C28.9355 20.5363 27.6695 19.1496 27.6695 16.3533V4.82129H23.1807V16.7693C23.1807 18.387 23.526 19.7505 24.2396 20.8598C24.9532 21.9691 25.92 22.778 27.163 23.3326C28.4061 23.8873 29.8103 24.1646 31.4216 24.1646C33.01 24.1646 34.4372 23.8873 35.6802 23.3326C36.9233 22.778 37.8901 21.9691 38.6037 20.8598C39.3173 19.7505 39.6626 18.387 39.6626 16.7693V4.82129H35.2199V16.3533Z" fill="#F1F0F0"/>
<path d="M84.9878 4.82129H80.499V23.7255H84.9878V4.82129Z" fill="#F1F0F0"/>
<path d="M93.9656 19.4963H101.332L102.736 23.7255H107.501L100.641 4.82129H94.6562L87.7964 23.7255H92.5384L93.9656 19.4963ZM97.5336 8.58826H97.6487L100.204 16.2146H95.0475L97.5336 8.58826Z" fill="#F1F0F0"/>
<path d="M53.2213 28.1861C52.0703 27.1692 50.436 26.6377 48.3642 26.6377H48.0649L46.937 29.8731H47.6046C48.5714 29.8731 49.308 30.1042 49.8374 30.5433C50.3439 30.9824 50.6201 31.6064 50.6201 32.4153C50.6201 33.2241 50.3669 33.8481 49.8605 34.2872C49.354 34.7494 48.5944 34.9574 47.6276 34.9574H45.1875L41.9878 44.1784H44.0595V38.1928H48.3642C50.459 38.1928 52.0703 37.6844 53.2213 36.6444C54.3723 35.6276 54.9478 34.1947 54.9478 32.369C54.9708 30.6127 54.3953 29.2029 53.2213 28.1861Z" fill="#F1F0F0"/>
<path d="M39.8008 26.6377V35.6276L42.9084 26.6377H39.8008Z" fill="#F1F0F0"/>
<path d="M44.4966 22.015L46.0619 17.4854L42.4248 17.8551C42.632 19.5884 43.3226 20.975 44.4966 22.015Z" fill="#F1F0F0"/>
<path d="M58.3775 10.206C58.0323 8.3341 57.2035 6.90127 55.8224 5.90753C55.6612 5.79198 55.5001 5.67643 55.316 5.58398L53.8657 9.79005C53.9348 10.0212 54.0038 10.2523 54.0499 10.5065L58.3775 10.206Z" fill="#F1F0F0"/>
<path d="M58.1011 15.1746C57.5487 14.3889 56.8811 13.8342 56.0754 13.4876C55.2928 13.1409 54.2339 12.8174 52.9218 12.4707L51.6096 16.2839C52.5765 16.5381 53.267 16.7923 53.6814 17.0928C54.1188 17.3932 54.349 17.8785 54.349 18.5256C54.349 19.242 54.0497 19.7735 53.4282 20.1895C52.8067 20.5824 52.024 20.7904 51.0342 20.7904C50.6889 20.7904 50.3896 20.7673 50.0904 20.7211L48.9624 24.0027C49.6069 24.0952 50.2745 24.1645 50.9881 24.1645C53.3131 24.1645 55.2007 23.6792 56.697 22.7085C58.1932 21.7379 58.9298 20.3051 58.9298 18.3869C58.9298 17.0234 58.6536 15.9604 58.1011 15.1746Z" fill="#F1F0F0"/>
<path d="M45.6936 14.5045C46.0619 14.6662 46.4762 14.828 46.9366 14.9898L48.2717 11.1535C48.2027 11.1072 48.1336 11.0841 48.0646 11.0379C47.6502 10.7606 47.4661 10.3446 47.4661 9.81307C47.4661 9.21221 47.7423 8.70378 48.2948 8.31091C48.617 8.0798 48.9853 7.91803 49.4457 7.82559L50.6197 4.40527C49.1695 4.40527 47.8804 4.63638 46.7294 5.07547C45.5785 5.51457 44.6807 6.16165 44.0362 7.01673C43.3916 7.87181 43.0693 8.88866 43.0693 10.0904C43.0693 11.2921 43.3225 12.2397 43.829 12.9561C44.3124 13.6494 44.9339 14.1578 45.6936 14.5045Z" fill="#F1F0F0"/>
<path d="M62.2216 44.2011V38.2617L60.1729 44.2011H62.2216Z" fill="#F1F0F0"/>
<path d="M71.4063 28.1861C70.2553 27.1692 68.621 26.6377 66.5492 26.6377H66.2499L65.122 29.8731H65.7896C66.7564 29.8731 67.493 30.1042 68.0225 30.5433C68.5289 30.9824 68.8051 31.6064 68.8051 32.4153C68.8051 33.2241 68.5519 33.8481 68.0455 34.2872C67.539 34.7494 66.7794 34.9574 65.8126 34.9574H63.3955L62.2676 38.1928H66.5722C68.667 38.1928 70.2784 37.6844 71.4293 36.6444C72.5803 35.6276 73.1558 34.1947 73.1558 32.369C73.1328 30.6127 72.5573 29.2029 71.4063 28.1861Z" fill="#F1F0F0"/>
<path d="M57.9629 26.6377V35.6507L61.0935 26.6377H57.9629Z" fill="#F1F0F0"/>
<path d="M76.4937 15.1749C75.9413 14.3892 75.2737 13.8345 74.468 13.4879C73.6853 13.1412 72.6264 12.7946 71.3143 12.471L71.1532 12.4248L69.8411 16.238C70.9 16.4922 71.6366 16.7926 72.097 17.0931C72.5344 17.3935 72.7646 17.8788 72.7646 18.5259C72.7646 19.2423 72.4653 19.7739 71.8438 20.1899C71.2223 20.5827 70.4396 20.7907 69.4498 20.7907C69.0584 20.7907 68.6671 20.7445 68.3218 20.6983L67.1938 23.9799C67.8844 24.0955 68.6211 24.1648 69.4037 24.1648C71.7287 24.1648 73.6163 23.6795 75.1126 22.7089C76.6088 21.7382 77.3454 20.3054 77.3454 18.3873C77.3224 17.0237 77.0462 15.9607 76.4937 15.1749Z" fill="#F1F0F0"/>
<path d="M64.0632 14.5045C64.3855 14.6431 64.7308 14.8049 65.1221 14.9436L66.4572 11.061C66.4342 11.061 66.4342 11.0379 66.4112 11.0379C65.9968 10.7606 65.8127 10.3446 65.8127 9.81307C65.8127 9.21221 66.0889 8.70378 66.6414 8.31091C66.9176 8.12602 67.2169 7.96425 67.5852 7.87181L68.7822 4.40527C67.401 4.42838 66.181 4.63638 65.0991 5.05236C63.9481 5.49146 63.0503 6.13854 62.4058 6.99362C61.7612 7.8487 61.439 8.86555 61.439 10.0673C61.439 11.269 61.6922 12.2165 62.1986 12.933C62.682 13.6494 63.3266 14.1578 64.0632 14.5045Z" fill="#F1F0F0"/>
<path d="M62.728 21.8997L64.2473 17.5088L60.8174 17.8554C61.0015 19.5194 61.6461 20.8598 62.728 21.8997Z" fill="#F1F0F0"/>
<path d="M76.77 10.2057C76.4247 8.33377 75.596 6.90094 74.2148 5.9072C74.0076 5.74542 73.7775 5.60676 73.5473 5.49121L72.1431 9.5355C72.2812 9.83594 72.3733 10.1364 72.4193 10.5061L76.77 10.2057Z" fill="#F1F0F0"/>
<path d="M107.501 6.92432C107.501 8.10295 106.58 9.02736 105.406 9.02736C104.232 9.02736 103.312 8.10295 103.312 6.92432C103.312 5.7457 104.232 4.82129 105.406 4.82129C106.603 4.82129 107.501 5.7457 107.501 6.92432ZM103.634 6.92432C103.634 7.94117 104.393 8.72692 105.406 8.72692C106.419 8.72692 107.179 7.91806 107.179 6.92432C107.179 5.93058 106.419 5.12172 105.406 5.12172C104.393 5.12172 103.634 5.93058 103.634 6.92432ZM104.946 8.14917H104.647V5.72259H105.567C106.12 5.72259 106.35 5.95369 106.35 6.39279C106.35 6.83188 106.074 7.01676 105.752 7.06298L106.465 8.14917H106.12L105.429 7.06298H104.923V8.14917H104.946ZM105.337 6.83188C105.706 6.83188 106.074 6.80877 106.074 6.4159C106.074 6.06924 105.798 5.99991 105.498 5.99991H104.946V6.85499H105.337V6.83188Z" fill="#F1F0F0"/>
</g>
<defs>
<clipPath id="clip0_3206_731">
<rect width="111" height="48" fill="white" transform="translate(0 0.5)"/>
</clipPath>
</defs>
</svg>
