<svg width="110" height="43" viewBox="0 0 110 43" fill="none" xmlns="http://www.w3.org/2000/svg">
<g clip-path="url(#clip0_3206_711)">
<path d="M48.757 9.92447C48.6493 10.1091 48.6138 10.3279 48.6576 10.5377C48.6511 13.3462 48.6428 16.1548 48.6598 18.9632C48.6626 19.4251 48.5434 19.5939 48.0639 19.5771C47.0705 19.5422 46.0745 19.5493 45.0807 19.5777C44.6493 19.59 44.5431 19.4295 44.5451 19.0169C44.5588 16.1895 44.5525 13.3619 44.5457 10.5345C44.5452 10.3572 44.6217 10.1596 44.4344 9.94518C43.7282 11.1781 43.0347 12.3853 42.3447 13.5944C41.332 15.3686 40.315 17.1404 39.315 18.922C39.2227 19.1447 39.0613 19.331 38.8552 19.4529C38.6491 19.5747 38.4094 19.6256 38.1722 19.5977C37.0497 19.535 35.9212 19.5713 34.7953 19.5862C34.3548 19.5921 34.2681 19.4962 34.5073 19.0807C36.2339 16.0822 37.9292 13.0654 39.6682 10.0743C39.8101 9.87281 39.8854 9.63104 39.8834 9.3836C39.8813 9.13616 39.802 8.89571 39.6567 8.69662C38.1782 6.16533 36.7401 3.60994 35.2887 1.06252C34.9881 0.534903 34.9927 0.524376 35.597 0.523349C36.7794 0.521323 37.9619 0.538482 39.1438 0.517639C39.308 0.498772 39.4739 0.53268 39.6179 0.614554C39.762 0.696427 39.8769 0.82211 39.9464 0.973776C41.3757 3.51212 42.8271 6.03769 44.2718 8.56713C44.3316 8.68869 44.4331 8.78404 44.5574 8.83534C44.5574 8.10958 44.5574 7.38383 44.5574 6.65808C44.5569 4.81737 44.5691 2.9765 44.5462 1.13605C44.5405 0.680755 44.6468 0.496532 45.1328 0.513533C46.1262 0.548272 47.1222 0.543061 48.116 0.515007C48.5392 0.503059 48.6611 0.641332 48.6583 1.06478C48.6414 3.64449 48.6499 6.22436 48.6499 8.85663C48.8963 8.74831 48.9491 8.53716 49.0422 8.37459C50.4604 5.90184 51.8794 3.4295 53.2793 0.946169C53.345 0.802445 53.4538 0.683302 53.5902 0.605648C53.7266 0.527994 53.8837 0.495774 54.0393 0.513559C55.2587 0.534456 56.4787 0.51656 57.6984 0.524586C58.1523 0.527587 58.2296 0.67736 57.9874 1.06378C56.3821 3.62449 54.9864 6.30908 53.4345 8.90079C53.3322 9.05526 53.2806 9.23843 53.2872 9.42424C53.2937 9.61005 53.358 9.78904 53.4709 9.93576C55.1687 12.8872 56.8582 15.8435 58.5396 18.8047C58.9813 19.5794 58.9778 19.5808 58.0663 19.5794C56.9403 19.5777 55.8143 19.5716 54.6884 19.58C54.5502 19.601 54.4089 19.5774 54.2846 19.5127C54.1603 19.448 54.0592 19.3454 53.9957 19.2195C52.6714 16.6019 51.1212 14.1138 49.6971 11.5534C49.3997 11.0185 49.0858 10.4931 48.757 9.92447Z" fill="#FAFDFB"/>
<path d="M66.9701 31.7812C66.2233 33.0877 65.4766 34.3943 64.7299 35.7009C63.5672 37.7378 62.3981 39.7709 61.2505 41.8165C61.1792 41.9784 61.0588 42.1132 60.9068 42.2014C60.7548 42.2896 60.5791 42.3266 60.4049 42.3072C59.43 42.276 58.4524 42.2646 57.4782 42.3045C56.9455 42.3264 56.8206 42.1343 56.8223 41.6242C56.8396 36.5006 56.8349 31.3771 56.8348 26.2535C56.8348 25.3616 56.8497 24.4688 56.8108 23.5786C56.799 23.306 56.8686 23.2438 57.0975 23.244C58.261 23.2452 59.4245 23.2486 60.5879 23.2412C60.8803 23.2393 60.9232 23.403 60.92 23.6424C60.9129 24.1926 60.9163 24.743 60.9166 25.2933C60.9182 28.0448 60.9201 30.7962 60.9221 33.5476C60.9221 33.6597 60.9221 33.7717 60.9221 34.0442C61.5138 33.0388 62.0369 32.173 62.538 31.2945C64.0044 28.7236 65.464 26.1488 66.9169 23.57C66.9759 23.4534 67.0691 23.3581 67.1838 23.2974C67.2985 23.2366 67.4291 23.2132 67.5574 23.2306C68.5706 23.2403 69.5847 23.2553 70.5971 23.2246C71.0576 23.2106 71.2048 23.3451 71.1999 23.8266C71.1752 26.2553 71.1858 28.6844 71.1858 31.1133C71.1858 34.605 71.1718 38.0967 71.2033 41.5881C71.2087 42.1833 71.0348 42.3352 70.4764 42.3096C69.5401 42.2666 68.5998 42.278 67.6624 42.307C67.225 42.3204 67.0824 42.1909 67.0848 41.7332C67.1015 38.5264 67.0911 35.3194 67.0894 32.1125C67.0894 32.0184 67.0894 31.9243 67.0894 31.8302L66.9701 31.7812Z" fill="#FAFDFB"/>
<path d="M84.1508 31.7638C83.9057 32.1799 83.6557 32.593 83.4165 33.0125C81.7872 35.8699 80.1471 38.7211 78.5446 41.5937C78.4457 41.8339 78.2711 42.0345 78.048 42.1641C77.825 42.2938 77.5658 42.3454 77.3108 42.3108C76.4113 42.2621 75.51 42.2601 74.6103 42.3048C74.1171 42.3252 73.9771 42.1763 73.979 41.6705C73.9982 36.7376 73.991 31.8046 73.9912 26.8715C73.9912 25.828 74.0075 24.7841 73.9825 23.7412C73.9727 23.3359 74.1097 23.2202 74.4976 23.229C75.5103 23.2518 76.5247 23.2623 77.5366 23.2254C78.0089 23.2082 78.0992 23.3979 78.0974 23.8191C78.084 26.9116 78.0879 30.0043 78.0865 33.0969C78.0706 33.3734 78.1091 33.6503 78.1999 33.9116C78.6057 33.2057 79.0137 32.5011 79.4171 31.7938C80.9633 29.0834 82.5063 26.371 84.0462 23.6568C84.1048 23.5198 84.2043 23.4047 84.3309 23.3279C84.4574 23.251 84.6046 23.2163 84.7517 23.2284C85.7833 23.2474 86.8159 23.2543 87.8472 23.2287C88.2614 23.2185 88.3458 23.3873 88.3452 23.763C88.3361 29.7585 88.3356 35.754 88.3439 41.7495C88.3446 42.1662 88.2253 42.3136 87.8002 42.3019C86.8065 42.2745 85.8105 42.2677 84.8176 42.3072C84.3176 42.3271 84.2405 42.127 84.2426 41.6802C84.2585 38.4928 84.2493 35.3054 84.2481 32.1179C84.2481 32.0096 84.2481 31.9014 84.2481 31.7931L84.1508 31.7638Z" fill="#FAFDFB"/>
<path d="M34.5998 32.7325C34.6056 34.6609 34.0454 36.5476 32.9902 38.1536C31.935 39.7596 30.4323 41.0126 28.6724 41.7539C26.9126 42.4952 24.9748 42.6915 23.1046 42.3177C21.2345 41.944 19.516 41.0171 18.1671 39.6545C16.8181 38.2919 15.8993 36.555 15.5271 34.6637C15.1549 32.7725 15.346 30.812 16.0763 29.0307C16.8065 27.2494 18.043 25.7275 19.6291 24.6577C21.2152 23.5879 23.0795 23.0185 24.9859 23.0215C27.5315 23.0272 29.9714 24.0517 31.7728 25.8713C33.5741 27.6908 34.5905 30.1574 34.5998 32.7325ZM30.3175 32.7805C30.2851 31.7199 29.9453 30.6924 29.3403 29.8256C28.7353 28.9588 27.8918 28.291 26.9147 27.9051C25.9375 27.5193 24.8699 27.4325 23.8443 27.6554C22.8188 27.8784 21.8807 28.4013 21.1466 29.1592C20.4125 29.9171 19.9147 30.8766 19.7153 31.9183C19.5158 32.96 19.6233 34.038 20.0246 35.0184C20.4258 35.9988 21.1031 36.8382 21.9721 37.4324C22.8411 38.0267 23.8636 38.3494 24.9125 38.3606C25.632 38.3613 26.3443 38.2167 27.0077 37.9352C27.6711 37.6536 28.2722 37.2408 28.7757 36.721C29.2792 36.2012 29.675 35.5848 29.9398 34.9081C30.2046 34.2314 30.333 33.5081 30.3176 32.7805H30.3175Z" fill="#FAFDFB"/>
<path d="M88.3397 10.0404C88.3393 13.0002 88.3292 15.96 88.349 18.9196C88.3524 19.4297 88.2213 19.6145 87.6901 19.5909C86.6976 19.5467 85.7016 19.5633 84.7076 19.5845C84.333 19.5924 84.2263 19.4587 84.2296 19.0917C84.2446 17.4602 84.2431 15.8287 84.2251 14.197C84.2221 13.9527 84.416 13.534 84.0115 13.4871C83.5899 13.4382 83.1139 13.2856 82.7972 13.8742C81.9277 15.4893 80.9536 17.0475 80.1039 18.6726C79.9837 18.994 79.7566 19.263 79.4617 19.4336C79.1669 19.6042 78.8225 19.6658 78.4877 19.6077C77.5378 19.525 76.5755 19.5924 75.6188 19.5817C74.9583 19.5744 74.9563 19.5633 75.2768 19.0001C76.3995 17.0279 77.5132 15.0505 78.6567 13.0907C78.8687 12.7276 78.8254 12.5674 78.4855 12.336C77.7519 11.8278 77.1307 11.171 76.6614 10.407C76.1921 9.64312 75.8849 8.78885 75.7593 7.89844C75.6338 7.00804 75.6926 6.10095 75.932 5.23477C76.1715 4.36858 76.5864 3.56221 77.1503 2.86686C77.7395 2.12554 78.4875 1.52927 79.3377 1.12303C80.188 0.716792 81.1183 0.511191 82.0586 0.521741C83.9904 0.48537 85.9236 0.524136 87.8558 0.501082C88.2885 0.495818 88.3442 0.687937 88.3416 1.04741C88.3309 2.54615 88.3395 4.04499 88.3401 5.54389C88.3407 7.04279 88.3402 8.54158 88.3397 10.0404ZM84.2343 7.06126C84.2343 6.35966 84.2303 5.658 84.2365 4.95645C84.2386 4.71473 84.1883 4.55027 83.9007 4.55624C83.2262 4.57027 82.5455 4.519 81.878 4.59308C81.2766 4.6773 80.73 4.99157 80.3507 5.4712C79.9715 5.95082 79.7884 6.55928 79.8393 7.1713C79.8833 7.77217 80.144 8.33575 80.5719 8.75485C80.9998 9.17396 81.5651 9.41935 82.1602 9.44435C82.7224 9.45704 83.2855 9.43533 83.8477 9.45004C84.14 9.4577 84.2451 9.34845 84.2383 9.05235C84.2229 8.38899 84.2335 7.72507 84.2343 7.06137V7.06126Z" fill="#FAFDFB"/>
<path d="M60.1107 10.0219C60.1107 7.06153 60.1223 4.10097 60.0994 1.14074C60.0955 0.631857 60.2461 0.491821 60.7368 0.512269C61.6548 0.550535 62.5769 0.551535 63.4946 0.508532C64.0238 0.483741 64.2063 0.625304 64.1976 1.19016C64.1656 3.25818 64.1976 5.32714 64.1767 7.39544C64.1723 7.83921 64.2869 7.98496 64.7413 7.97546C66.0919 7.94719 67.4429 7.94895 68.7944 7.98072C69.278 7.99251 69.3868 7.82142 69.3821 7.36292C69.3604 5.27566 69.3838 3.18793 69.3636 1.10068C69.3593 0.66407 69.4629 0.496295 69.9232 0.511322C70.9168 0.543745 71.9126 0.536666 72.9066 0.512454C73.3083 0.502663 73.4672 0.604355 73.4664 1.04599C73.4546 7.06177 73.4546 13.0775 73.4664 19.0933C73.467 19.4624 73.362 19.5923 72.987 19.5845C71.9741 19.5634 70.9599 19.5617 69.9472 19.589C69.5171 19.6006 69.3599 19.4869 69.3652 19.0199C69.3891 16.9327 69.3541 14.8447 69.3878 12.7577C69.3967 12.211 69.22 12.0942 68.7211 12.1059C67.3894 12.1373 66.0563 12.1305 64.7242 12.108C64.3102 12.101 64.1736 12.2221 64.1776 12.6532C64.1976 14.7595 64.1755 16.8662 64.1949 18.9725C64.1991 19.4286 64.0873 19.6094 63.6025 19.5904C62.6468 19.553 61.6876 19.5497 60.7321 19.5889C60.2388 19.6092 60.0921 19.4669 60.0958 18.9602C60.1182 15.981 60.1068 13.0014 60.1068 10.022L60.1107 10.0219Z" fill="#FAFDFB"/>
<path d="M10.4468 9.10542C9.70666 10.3919 8.96258 11.6761 8.22735 12.9655C7.03409 15.058 5.84542 17.1532 4.66135 19.251C4.60794 19.3603 4.52275 19.4505 4.41722 19.5094C4.31169 19.5684 4.19087 19.5933 4.07096 19.5808C2.85143 19.5734 1.63148 19.5688 0.412159 19.5902C-0.0510672 19.5983 -0.0905865 19.4672 0.129228 19.086C1.41428 16.8577 2.69169 14.6251 3.96148 12.3879C6.11739 8.60948 8.26919 4.82868 10.4169 1.04555C10.495 0.86728 10.6278 0.719149 10.7955 0.623023C10.9633 0.526897 11.1571 0.487868 11.3485 0.511698C12.2669 0.545016 13.1877 0.542621 14.1062 0.512672C14.5482 0.498276 14.6864 0.636523 14.6838 1.09032C14.6671 4.29697 14.676 7.50375 14.6763 10.7105C14.6766 13.386 14.6761 16.0614 14.6748 18.7369C14.6732 19.6892 14.7471 19.5749 13.8159 19.5774C12.9339 19.5798 12.0512 19.5547 11.1704 19.5869C10.7057 19.6039 10.5665 19.4582 10.5692 18.9803C10.5872 15.8117 10.5749 12.6428 10.5725 9.47402C10.5725 9.36401 10.5725 9.25401 10.5725 9.144L10.4468 9.10542Z" fill="#FAFDFB"/>
<path d="M3.03927 32.7957C3.03927 29.7995 3.04739 26.8032 3.03032 23.8071C3.02772 23.3668 3.13631 23.2175 3.59329 23.2262C5.11175 23.2551 6.63123 23.2235 8.15006 23.2402C9.62984 23.2427 11.063 23.7643 12.2052 24.7159C13.3475 25.6676 14.1281 26.9905 14.4142 28.4591C14.7002 29.9278 14.474 31.4514 13.7739 32.7702C13.0739 34.089 11.9434 35.1215 10.5752 35.6917C9.65083 36.074 8.65151 36.2345 7.65553 36.1608C7.23609 36.1368 7.1072 36.2674 7.11308 36.6988C7.13614 38.3862 7.10939 40.0743 7.13018 41.7618C7.13538 42.1901 7.00093 42.3183 6.58331 42.3066C5.59015 42.2787 4.59514 42.2762 3.60206 42.3051C3.15889 42.318 3.02819 42.1806 3.0311 41.7275C3.0503 38.7503 3.04101 35.773 3.04101 32.7957L3.03927 32.7957ZM7.12373 29.6642C7.12373 30.3662 7.12367 31.0681 7.12357 31.7701C7.12357 31.9412 7.09636 32.1377 7.34372 32.1494C7.72396 32.2121 8.11281 32.1964 8.48689 32.1032C8.86097 32.01 9.21256 31.8412 9.52051 31.607C9.94141 31.2511 10.2319 30.7624 10.3452 30.2193C10.4585 29.6763 10.3882 29.1106 10.1455 28.6129C9.88832 28.1218 9.483 27.7266 8.98848 27.4846C8.49395 27.2426 7.93601 27.1666 7.39581 27.2675C7.1283 27.3161 7.12419 27.4747 7.12438 27.6721C7.125 28.3362 7.12478 29.0002 7.12373 29.6642Z" fill="#FAFDFB"/>
<path d="M17.4788 10.0261C17.4788 7.06856 17.4934 4.11087 17.4654 1.15361C17.4602 0.610359 17.6324 0.48364 18.1315 0.501615C19.1052 0.536854 20.0816 0.530959 21.0557 0.502641C21.4849 0.490114 21.5955 0.642125 21.5905 1.05939C21.5707 2.72748 21.5976 4.39616 21.5766 6.06422C21.5711 6.5011 21.6999 6.61163 22.1366 6.66045C23.6431 6.75362 25.0666 7.39064 26.1481 8.45567C27.2296 9.52069 27.8974 10.943 28.03 12.4639C28.1913 13.9492 27.8342 15.4448 27.0203 16.6917C26.2065 17.9387 24.9872 18.8585 23.5736 19.292C22.8337 19.5084 22.0649 19.6062 21.2951 19.582C20.2079 19.5645 19.1196 19.5551 18.0333 19.589C17.5791 19.6032 17.4652 19.4565 17.4678 19.0124C17.4854 16.017 17.477 13.0215 17.477 10.0261H17.4788ZM21.5851 13.0746H21.588C21.588 13.7375 21.6083 14.4013 21.581 15.0631C21.5618 15.5281 21.7797 15.5597 22.1347 15.4673C22.4975 15.3718 22.8333 15.1917 23.115 14.9414C23.3967 14.6911 23.6167 14.3776 23.7572 14.026C23.8846 13.6957 23.941 13.3417 23.9226 12.9876C23.9041 12.6335 23.8113 12.2875 23.6502 11.9725C23.4891 11.6576 23.2635 11.3811 22.9884 11.1613C22.7133 10.9415 22.3951 10.7836 22.0549 10.6981C21.7282 10.6406 21.5656 10.702 21.5788 11.086C21.6014 11.7482 21.5851 12.4117 21.5851 13.0746Z" fill="#FAFDFB"/>
<path d="M45.151 25.1299C45.151 25.661 45.1375 26.1927 45.1562 26.7231C45.1673 27.0356 45.0582 27.1491 44.7452 27.176C43.8087 27.2763 42.9127 27.6156 42.1414 28.1622C41.3701 28.7088 40.7487 29.4446 40.3356 30.3007C39.9226 31.1569 39.7313 32.1051 39.7799 33.0565C39.8285 34.0078 40.1152 34.9311 40.6132 35.7396C41.0207 36.4718 41.6006 37.0909 42.3013 37.542C43.0021 37.9931 43.8021 38.2622 44.6303 38.3255C45.0402 38.3661 45.1729 38.4826 45.1611 38.9007C45.1321 39.9243 45.131 40.9485 45.1576 41.9734C45.1695 42.4168 45.0099 42.5103 44.6011 42.4959C42.2486 42.3581 40.0276 41.353 38.3582 39.6707C36.6888 37.9883 35.6868 35.7454 35.5417 33.3662C35.3967 30.987 36.1186 28.6365 37.571 26.7594C39.0234 24.8823 41.1056 23.6088 43.4235 23.1797C43.8459 23.1004 44.2823 23.1 44.7085 23.0374C45.0729 22.9838 45.1636 23.1406 45.1508 23.4797C45.13 24.029 45.1452 24.5798 45.1452 25.1298L45.151 25.1299Z" fill="#FAFDFB"/>
<path d="M54.7745 25.1009C54.7749 25.6132 54.7514 26.127 54.7825 26.6373C54.8066 27.0326 54.6556 27.1394 54.2813 27.1844C53.0838 27.3004 51.96 27.8217 51.0917 28.664C50.2234 29.5063 49.6615 30.6203 49.4968 31.8258C49.2887 33.0225 49.4684 34.2551 50.009 35.3401C50.5497 36.425 51.4224 37.3043 52.4971 37.8468C53.086 38.147 53.7312 38.3171 54.3901 38.3456C54.6833 38.3569 54.7798 38.479 54.7775 38.763C54.7689 39.8445 54.7529 40.9266 54.784 42.0073C54.7982 42.5004 54.5489 42.5126 54.1899 42.4862C52.844 42.4166 51.5287 42.055 50.333 41.426C49.1373 40.7971 48.0893 39.9155 47.2599 38.8409C46.2163 37.5184 45.5308 35.944 45.2709 34.2723C45.011 32.6007 45.1855 30.8894 45.7775 29.3067C46.3694 27.7239 47.3583 26.3243 48.6469 25.2452C49.9356 24.1662 51.4796 23.445 53.1273 23.1524C54.7732 22.8576 54.7732 22.8576 54.7741 24.5316C54.7742 24.7214 54.7743 24.9112 54.7745 25.1009Z" fill="#FAFDFB"/>
<path d="M98.6698 26.5344C100.808 26.5344 102.945 26.5338 105.083 26.5326C105.676 26.5313 105.705 26.4882 105.421 25.9799C105.044 25.3036 104.633 24.6463 104.256 23.9697C103.981 23.4746 104.036 23.3815 104.576 23.3758C105.344 23.3675 106.114 23.3816 106.882 23.3665C107.03 23.3505 107.179 23.3806 107.31 23.4529C107.44 23.5252 107.546 23.6361 107.612 23.7707C108.355 25.0847 109.117 26.3871 109.87 27.695C109.956 27.8309 110.001 27.9894 110 28.1508C109.998 28.3123 109.95 28.4697 109.861 28.6038C109.15 29.8285 108.449 31.0596 107.76 32.2972C107.688 32.4713 107.564 32.6179 107.405 32.7162C107.246 32.8146 107.06 32.8595 106.874 32.8446C106.144 32.8145 105.412 32.8446 104.681 32.839C104.118 32.8348 104.078 32.7632 104.357 32.2537C104.71 31.608 105.079 30.9706 105.435 30.3267C105.722 29.8095 105.674 29.7203 105.08 29.7197C100.879 29.715 96.6787 29.7131 92.478 29.714C91.7053 29.7136 91.7001 29.7115 91.6907 28.9381C91.6833 28.3314 91.7196 27.7228 91.6834 27.1182C91.6533 26.6161 91.873 26.5255 92.3126 26.5293C94.4316 26.5477 96.5507 26.5376 98.6698 26.5376V26.5344Z" fill="#FAFDFB"/>
<path d="M33.1155 10.0223C33.1155 13.0015 33.1038 15.981 33.1268 18.9601C33.1308 19.4692 32.985 19.6083 32.49 19.5887C31.497 19.5494 30.5011 19.5676 29.5069 19.587C29.149 19.5939 29.0149 19.488 29.0155 19.1057C29.0248 13.0712 29.0246 7.03678 29.0147 1.00231C29.0141 0.623732 29.1436 0.511618 29.5046 0.518882C30.4238 0.537305 31.3437 0.513013 32.263 0.524567C33.17 0.535936 33.1156 0.375793 33.1171 1.36915C33.1215 4.25357 33.122 7.13799 33.1186 10.0224L33.1155 10.0223Z" fill="#FAFDFB"/>
<path d="M96.1137 39.2637C94.819 39.2637 93.5241 39.2515 92.2297 39.2711C91.8414 39.2769 91.6804 39.143 91.6867 38.7523C91.6984 38.0315 91.699 37.3105 91.6885 36.5894C91.6828 36.227 91.8264 36.1093 92.1885 36.0939C94.7382 35.9849 97.2873 36.0197 99.8367 36.086C100.044 36.0912 100.272 36.1344 100.407 35.9389C100.542 35.7434 100.362 35.5846 100.276 35.4257C99.916 34.7616 99.5678 34.0899 99.1801 33.4425C98.9501 33.0586 98.9846 32.9025 99.4562 32.9084C100.282 32.919 101.107 32.9149 101.933 32.9044C102.073 32.8964 102.213 32.9314 102.333 33.0047C102.453 33.078 102.549 33.1863 102.607 33.3155C103.317 34.5861 104.029 35.8564 104.768 37.1096C104.885 37.2778 104.945 37.4791 104.942 37.6845C104.938 37.8899 104.87 38.0888 104.747 38.2524C104.005 39.4811 103.303 40.7346 102.604 41.9892C102.547 42.118 102.452 42.2263 102.333 42.2997C102.214 42.3732 102.075 42.4082 101.936 42.4003C101.076 42.3878 100.216 42.3789 99.3563 42.3737C98.9844 42.3709 99.0158 42.2107 99.1658 41.9518C99.5634 41.2652 99.9485 40.5709 100.33 39.8751C100.629 39.33 100.598 39.2727 99.9978 39.2704C98.7031 39.2655 97.4084 39.2689 96.1137 39.2689L96.1137 39.2637Z" fill="#FAFDFB"/>
</g>
<defs>
<clipPath id="clip0_3206_711">
<rect width="110" height="42" fill="white" transform="translate(0 0.5)"/>
</clipPath>
</defs>
</svg>
