<svg width="1352" height="480" viewBox="0 0 1352 480" fill="none" xmlns="http://www.w3.org/2000/svg">
<path d="M-43.998 479.991H1396V0H-43.998V479.991Z" fill="#A3DDFA"/>
<path d="M349.011 123.282C301.609 118.388 280.789 75.2012 209.967 90.0729C177.203 96.9349 160.036 132.486 136.288 156.07C92.8912 199.163 35.9106 204.057 -24.7937 196.797C-29.9227 196.188 -36.8316 196.446 -43.998 197.313V479.991H611.993C702.698 459.803 789.328 424.298 860.431 365.397C934.695 303.896 988.702 218.39 1012.36 124.922C1018.12 102.158 1019.62 72.8358 999.568 60.6575C978.584 47.8937 952.869 64.4749 928.934 69.9318C878.558 81.4544 832.023 41.7342 796.846 3.86428C795.652 2.57619 794.457 1.28809 793.239 0H545.035C499.695 38.3618 455.923 78.8548 403.603 106.49C386.6 115.46 368.122 125.273 349.011 123.282Z" fill="#6BCEFF"/>
<path d="M1003.2 0C967.624 16.7686 936.662 43.4439 915.795 76.8172C896.029 108.434 885.115 145.063 864.482 176.118C827.315 232.161 763.355 263.755 700.66 288.088C637.989 312.421 571.968 332.914 519.976 375.561C500.444 391.557 483.394 410.316 464.939 427.53C443.838 447.156 420.886 464.744 396.436 479.991H1396V0H1003.2Z" fill="#0082C2"/>
<path d="M1084.98 0C1065.89 33.4436 1064.16 75.6228 1055.24 114.336C1047.46 148.014 1031.35 180.731 1011.75 209.046C987.999 243.333 952.401 265.16 919.051 288.978C889.729 309.915 863.569 335.677 837.573 360.526C811.085 385.843 786.775 413.431 766.681 444.111C759.14 455.634 753.519 468.187 746.54 479.991H750.615C754.526 473.854 758.273 467.367 762.044 460.505C780.476 426.991 805.207 397.553 831.765 370.245C860.548 340.642 890.924 311.344 924.414 287.104C952.518 266.776 982.121 248.813 1004.81 222.091C1024.6 198.765 1039.19 170.989 1050.2 142.58C1067.53 97.8249 1064.56 42.1324 1087.56 0H1084.98V0Z" fill="#F3FFF8"/>
<path d="M1142.38 0C1141.68 9.13375 1140.98 18.2675 1139.03 27.05C1131.73 60.2828 1126.93 92.087 1111 122.72C1098.03 147.686 1080.44 170.122 1063.97 192.839C1046.62 216.821 1032.68 242.958 1015.31 266.893C980.973 314.225 931.604 351.814 906.029 405.281C895.35 427.624 890.478 452.191 887.551 476.595L887.129 479.991H892.235L892.586 476.595C895.443 447.788 902.821 419.895 916.638 394.344C931.018 367.786 953.642 344.858 973.197 322.047C990.528 301.835 1008.75 282.491 1024.07 260.663C1040.15 237.688 1053.6 213.098 1070.09 190.31C1086.62 167.476 1103.39 144.899 1116.41 119.793C1129.57 94.4758 1134.54 66.8638 1139.6 39.0409C1141.73 27.2842 1144.28 15.8787 1145.15 3.93454C1145.24 2.62303 1145.31 1.31151 1145.38 0H1142.38V0Z" fill="#F3FFF8"/>
<path d="M1175.43 0C1175.08 13.1854 1175.55 26.4176 1176.83 39.767C1179.93 71.3838 1187.4 102.345 1190.14 134.009C1195.05 190.638 1189.06 250.312 1218.08 301.671C1232.5 327.199 1251.85 350.877 1274.31 369.683C1296.11 387.974 1324.71 397.084 1351.05 406.569C1366.49 412.143 1381.59 418.256 1396 425.328V420.785C1391.8 418.865 1387.61 416.991 1383.37 415.188C1358.55 404.625 1332.58 397.107 1307.98 385.983C1276.27 371.65 1252.69 346.638 1232.88 318.604C1195.71 266.05 1197.72 205.861 1194.16 144.36C1192.48 114.828 1186.39 85.9978 1181.85 56.8401C1178.92 37.987 1177.49 18.9935 1177.65 0H1175.43V0Z" fill="#F3FFF8"/>
<path d="M1085.73 0C1095.68 20.2348 1101.49 42.835 1108.1 64.1002C1126.29 122.439 1134.3 183.143 1136.95 244.059C1139.34 299.4 1136.76 356.334 1158.57 408.466C1167.75 430.387 1180.18 451.699 1195.48 469.873C1198.38 473.339 1201.4 476.712 1204.49 479.991H1209.36C1207.75 478.351 1206.16 476.688 1204.54 475.002C1182.38 451.793 1166.18 421.886 1155.66 391.698C1135.01 332.422 1142.85 264.762 1137.7 203.074C1132.66 142.885 1119.06 84.8268 1099.88 27.6355C1096.67 18.1036 1092.99 8.85272 1088.63 0H1085.73V0Z" fill="#F3FFF8"/>
<path d="M522.552 479.991C527.33 473.995 532.295 468.281 536.674 462.824C552.717 442.847 570.985 424.649 591.547 409.356C626.747 383.173 672.252 373.571 714.104 363.664C797.923 343.804 880.783 309.939 937.904 242.7C952.167 225.885 965.563 208.414 980.2 191.903C994.674 175.579 1008.66 159.068 1020.18 140.496C1030.48 123.821 1038.3 105.624 1048.52 88.8082C1060.46 69.1355 1074.11 50.8211 1090.55 34.7083C1103.97 21.5697 1118.82 10.094 1134.58 0H1127.7C1120.58 4.7074 1113.62 9.71925 1106.85 15.0356C1074.86 40.1885 1052.03 72.9061 1032.59 108.247C1021.84 127.779 1012.36 146.749 998.515 164.431C983.877 183.097 967.319 200.217 952.448 218.742C938.7 235.862 925.093 252.935 908.91 267.877C890.408 284.95 868.206 298.885 846.496 311.461C806.378 334.694 763.004 348.535 718.179 359.261C678.388 368.769 637.989 377.95 602.227 398.583C568.689 417.928 542.717 449.053 519.976 479.991H522.552Z" fill="#F3FFF8"/>
<path d="M1298.87 0C1295.48 26.0663 1297.77 52.6947 1302.72 79.2295C1310.33 120.191 1323.25 161.386 1340.54 199.303C1354.45 229.866 1373.21 257.502 1396 281.132V275.324C1375.93 254.153 1359.04 229.679 1345.55 201.505C1328.59 166.094 1317.26 127.17 1308.5 88.9955C1301.87 60.0486 1298.29 29.6027 1301.52 0H1298.87V0Z" fill="#F3FFF8"/>
<path d="M571.547 479.991C585.364 460.365 604.217 443.76 623.773 430.879C663.189 404.906 712.019 393.431 757.407 383.032C803.193 372.564 847.995 360.221 893.359 348.301C929.426 338.815 964.813 333.499 997.226 314.037C1028.12 295.489 1062.17 280.477 1084.3 250.85C1098.47 231.857 1112.43 212.84 1127.11 194.174C1138.96 179.092 1149.27 163.916 1154.94 145.508C1166.55 107.731 1159.08 65.5757 1157.68 26.9329C1157.35 17.9631 1157.02 8.96982 1156.67 0H1154.37C1155.05 17.1668 1154.87 34.357 1155.9 51.5237C1157.21 73.3042 1158.54 95.0613 1156.97 116.889C1153.39 166.679 1118 198.085 1090.55 236.447C1077.02 255.347 1064.49 269.727 1045 282.819C1027.98 294.271 1009.52 303.475 991.934 314.061C957.928 334.53 918.231 337.902 880.83 349.097C834.247 363.055 787.244 373.172 739.982 384.367C677.17 399.239 604.943 423.994 568.619 479.991H571.547Z" fill="#F3FFF8"/>
<path d="M454.892 479.99C453.276 477.531 451.918 474.838 450.817 472.098C444.775 456.992 445.758 439.825 450.349 424.228C454.939 408.63 462.902 394.274 470.818 380.058C480.326 363.008 489.835 345.935 499.343 328.885C505.432 317.972 511.756 306.777 521.592 299.095L556.769 479.99H454.892Z" fill="#12B0FF"/>
<path d="M432.807 216.001C458.429 297.643 479.038 393.079 487.657 479.99H325.474C365.663 388.536 428.756 216.048 432.807 216.001Z" fill="#A3DDFA"/>
<path d="M-6.15152 326.169C-1.32702 360.338 3.52089 394.508 8.34539 428.677C10.055 440.879 11.7881 453.128 15.0669 465.025C16.4252 470.014 18.0646 474.955 19.1419 479.99H-43.998V381.018C-31.726 362.493 -19.1027 344.202 -6.15152 326.169Z" fill="#0082C2"/>
<path d="M967.389 317.62C967.998 316.004 970.317 316.285 972.026 315.934C974.977 315.325 976.664 312.304 977.928 309.587C985.54 293.147 991.488 275.933 995.657 258.298C995.891 257.338 996.102 256.401 996.571 255.534C997.039 254.668 997.742 253.942 998.21 253.052C998.889 251.717 998.983 250.171 999.662 248.836C1000.32 247.501 1002 246.447 1003.25 247.244C1004.56 248.063 1004.25 250.031 1003.78 251.506C998.468 268.251 993.151 285.02 987.835 301.788C986.57 305.77 985.306 309.751 983.338 313.428C981.933 316.004 980.13 318.463 977.624 320.033C975.141 321.602 971.863 322.117 969.216 320.805C968.022 320.196 966.898 318.885 967.389 317.62Z" fill="#12B0FF"/>
<path d="M999.779 79.7914L1000.08 79.9788C1000.48 81.1966 1000.18 82.2974 1000.01 83.562C999.662 86.2319 999.006 87.4497 998.491 88.5505C998.304 88.9954 998.069 89.4404 998.023 89.9322C997.929 90.6817 998.21 91.4311 998.585 92.1103C999.24 93.375 1000.15 94.4757 1001.07 95.5764C1002.26 97.0519 1003.48 98.5039 1004.67 99.9559C1004.95 100.307 1005.26 100.659 1005.66 100.846C1006.34 101.197 1007.2 100.986 1007.81 100.541C1008.44 100.096 1008.89 99.4641 1009.31 98.8318C1010.86 96.6303 1015 98.4571 1016.76 96.4195C1017.04 96.0917 1013.39 87.2155 1012.73 85.7401C1011.93 83.9836 1011.86 82.0163 1011.61 80.0959L1011.4 79.5806L1011.11 79.4636C1008.44 78.8546 1005.68 78.6204 1002.96 78.761C1001.82 78.8078 1000.6 78.9717 999.779 79.7914Z" fill="white"/>
<path d="M1031.04 113.774L1030.22 113.305C1031.19 114.945 1032.64 116.256 1034.07 117.568C1037.56 120.776 1040.95 124.149 1044.18 127.638C1046.55 130.168 1048.98 133.072 1049.17 136.538C1049.27 138.646 1048.52 140.707 1047.95 142.767C1046.34 148.74 1046.34 155.133 1047.98 161.105C1048.77 164.009 1052.08 174.056 1056.41 172.253C1057.27 171.878 1058.14 171.527 1059.01 171.176C1060.37 170.614 1061.94 169.7 1061.89 168.248C1061.79 166.258 1061.3 167.218 1060.41 165.461C1059.83 164.361 1057.77 161.55 1058.05 160.356C1059.8 152.651 1058.8 144.571 1060.41 136.866C1060.86 134.734 1062.45 132.72 1062.15 130.566C1061.91 128.786 1060.58 127.568 1058.87 124.289C1057.11 120.94 1056.34 118.434 1054.84 114.968C1051.89 108.083 1046.31 103.211 1042.45 96.7943C1041.3 94.9207 1038.38 91.8761 1034.37 91.5014C1024.93 90.6583 1021.4 91.3374 1014.23 88.9486C1013.81 88.8081 1011.21 92.0869 1005.66 91.2203C999.311 90.2367 1000.01 87.6605 999.1 87.4497C996.641 86.8642 990.95 87.6839 986.149 86.5129C984.697 86.1382 983.221 85.7635 981.722 85.7869C979.825 85.7869 977.999 86.4193 976.195 87.0516C971.347 88.7378 966.453 90.4709 962.12 93.2345C959.848 94.6865 957.764 96.3961 955.773 98.176C951.066 102.368 946.71 106.935 942.775 111.853C940.925 114.148 939.051 116.631 936.358 117.802C935.538 118.153 934.672 118.387 933.946 118.856C933.22 119.348 932.634 120.191 932.775 121.057C932.939 122.041 933.946 122.626 934.719 123.235C937.623 125.484 937.927 138.833 940.316 144.22C942.869 149.981 944.227 153.775 948.255 158.646C950.597 155.859 951.885 154.805 954.813 152.58C955.398 152.112 957.975 149.981 958.677 150.215C958.092 148.435 957.155 147.381 956.288 144.407C955.867 142.955 955.422 141.503 955.235 140.004C955 138.06 955.141 136.069 955.047 134.126C954.813 129.816 953.314 125.601 950.761 122.135C950.457 121.736 949.942 121.315 950.059 120.846C950.316 119.863 952.377 120.87 955.867 120.167C961.488 119.043 967.038 117.427 971.909 114.429C973.455 113.469 974.954 112.415 976.593 111.666C977.132 111.408 977.788 111.502 978.209 111.924C978.865 112.532 979.38 113.399 979.521 114.148C979.708 115.226 979.615 116.326 979.615 117.404C979.615 123.844 983.292 129.629 985.587 135.648C986.851 138.997 987.718 142.486 988.889 145.859C990.552 150.66 990.809 155.906 989.287 160.754C988.374 163.728 988.046 166 986.734 168.857C983.736 175.462 982.729 181.129 984.463 195.415C984.908 199.233 986.664 205.018 987.156 206.727C987.788 208.952 988.21 211.247 988.608 213.542C988.819 214.737 989.029 215.931 989.006 217.149C988.983 218.461 988.655 219.725 988.35 221.013C987.858 223.004 987.367 224.995 986.851 227.009C983.877 238.836 984.744 244.246 985.54 249.867C986.383 255.792 988.327 261.553 988.936 267.525C989.076 268.79 989.17 270.101 989.732 271.249C990.575 272.912 992.472 273.966 994.346 273.802C996.196 273.638 997.906 272.233 998.421 270.453C999.217 267.713 999.521 265.769 1000.88 263.263C1006.5 252.911 1004.95 239.843 1003.71 228.32C1003.55 226.751 1003.41 225.159 1003.64 223.613C1003.88 221.974 1004.51 220.451 1005.12 218.952C1007.18 213.941 1009.08 208.858 1010.83 203.729C1011.58 201.528 1012.31 199.28 1012.59 196.961C1013.06 193.05 1012.24 189.022 1013.11 185.181C1018.73 188.6 1020.67 190.005 1028.37 198.46C1029.57 199.771 1037.93 210.029 1039.92 211.762C1041.86 213.472 1044.09 214.807 1045.94 216.61C1047.74 218.39 1048.84 220.779 1048.98 223.285C1049.22 227.266 1050.18 231.318 1052.01 234.831C1052.92 236.588 1054.11 238.18 1055.33 239.749C1058.7 244.176 1062.17 248.672 1066.6 252.045C1067.74 252.911 1068.98 253.731 1069.95 254.785C1072.12 257.127 1072.92 260.452 1074.79 263.029C1075.05 263.403 1075.36 263.755 1075.75 263.965C1076.5 264.41 1077.44 264.246 1078.28 264.106C1080.32 263.708 1082.36 263.333 1084.4 262.935L1085.05 262.654C1085.24 262.396 1085.17 262.022 1085.07 261.717C1084.09 258.298 1077.81 242.653 1076.85 238.555C1075.92 234.48 1071.65 223.285 1069.01 220.03C1066.34 216.798 1062.57 214.713 1059.36 212.067C1056.17 209.397 1053.46 204.807 1052.8 200.708C1052.03 195.884 1046.6 179.068 1039.66 169.185C1038.54 167.593 1037.27 166.094 1035.87 164.735C1034.46 163.354 1032.85 162.159 1031.35 160.871C1030.18 159.887 1029.08 158.857 1028 157.803C1026.88 156.749 1025.78 155.648 1025.07 154.243C1024.42 152.908 1024.58 151.386 1024.91 149.934C1026.88 140.566 1027.27 137.475 1029.87 129.863C1030.39 128.388 1030.88 122.978 1031 121.409C1031.07 120.214 1030.88 119.043 1030.72 117.872C1030.48 116.42 1030.27 114.992 1030.06 113.539L1031.04 113.774Z" fill="#005A87"/>
<path d="M1003.43 84.8738C1004.56 85.6466 1006.1 85.7169 1007.27 85.0611C1007.98 84.6864 1008.54 84.0541 1009.19 83.5622C1009.99 82.9768 1010.9 82.5552 1011.68 81.9463C1012.78 81.0095 1013.46 79.698 1014.11 78.4099C1014.98 76.6768 1015.87 74.9203 1016.31 72.9999C1016.59 71.7352 1016.69 70.4237 1016.78 69.1122C1016.83 68.433 1016.88 67.707 1016.78 67.0278C1016.52 64.7561 1014.91 62.7888 1012.92 61.6881C1010.93 60.5873 1008.59 60.236 1006.31 60.1892C1004.39 60.1658 1002.45 60.3531 1000.58 60.7513C999.615 60.9386 998.655 61.2197 997.812 61.7115C996.946 62.2033 996.22 62.9762 995.962 63.9364C995.751 64.6858 995.821 65.4821 995.915 66.255C996.173 68.8077 996.454 71.3371 996.735 73.8664C996.899 75.3653 997.063 76.911 997.718 78.2694C998.304 79.5106 999.264 80.5411 1000.2 81.5481C1000.88 82.2976 1001.58 83.047 1002.29 83.7964C1002.64 84.1712 1003.01 84.5693 1003.43 84.8738Z" fill="#FEFEFE"/>
<path d="M996.945 69.9085C996.36 70.0958 995.821 69.5103 995.517 68.9717C993.737 65.81 993.76 61.8989 994.533 58.3625C994.908 56.6528 995.47 54.9666 996.383 53.4677C997.273 51.9454 998.561 50.6573 1000.18 49.9313C1001.61 49.2755 1003.2 49.1116 1004.77 48.9945C1006.57 48.854 1008.42 48.7837 1010.22 49.1116C1013.78 49.7674 1017.09 52.1562 1018.54 55.4818C1020.46 59.9082 1019.62 65.9973 1017.13 70.0256L1016.78 70.3066L1016.55 70.1895C1016.24 69.885 1016.24 69.4166 1016.17 68.9951C1015.96 67.7304 1015.14 66.6063 1014.09 65.8568C1013.01 65.1308 1011.75 64.7327 1010.46 64.5921C1009.47 64.475 1008.49 64.475 1007.51 64.475C1005.99 64.4985 1004.46 64.4985 1002.92 64.5219C1001.68 64.5219 1000.36 64.5453 999.217 65.0605C998.046 65.5758 997.086 66.7234 997.179 67.9646C997.226 68.6438 997.531 69.4401 997.039 69.9085L997.39 69.8616L996.945 69.9085Z" fill="#6BCEFF"/>
<path d="M1062.59 266.916C1056.74 262.279 1051.3 258.696 1045.73 253.754C1042.17 250.593 1039.15 248.227 1033.97 244.152C1033.64 243.871 1033.39 243.497 1033.34 243.075C1033.29 242.489 1033.64 241.951 1034.84 241.295C1035.73 240.803 1037.2 240.78 1038.14 241.201C1041.98 242.934 1056.17 255.16 1059.71 257.642C1076.06 269.212 1089.59 278.697 1105.68 290.617C1107.49 291.976 1111.42 293.428 1113.58 294.083C1115.73 294.739 1118.52 295.161 1120.2 293.638C1120.84 293.053 1121.35 292.28 1122.59 292.514C1124.05 292.749 1125.05 294.06 1124.96 295.512C1124.82 297.433 1123.11 298.885 1121.28 299.493C1117.07 300.922 1112.52 298.978 1108.49 297.081C1104.21 295.044 1099.9 293.006 1095.75 290.688C1092.52 288.861 1089.38 286.87 1086.29 284.786C1078.1 279.235 1070.34 273.076 1062.59 266.916Z" fill="#12B0FF"/>
<path d="M1057.35 180.497C1055.38 180.989 1053.41 181.481 1051.47 181.973C1051.05 182.09 1050.6 182.183 1050.18 182.09C1049.73 181.996 1049.38 181.715 1049.08 181.364C1047.32 179.373 1047.91 176.305 1048.61 173.705C1048.98 172.324 1049.38 170.918 1050.3 169.818C1051.16 168.764 1052.47 168.038 1052.9 166.75C1053.08 166.234 1053.11 165.625 1053.46 165.227C1053.79 164.899 1054.28 164.782 1054.75 164.712C1057.65 164.22 1060.74 163.939 1063.46 165.063C1066.17 166.188 1068.33 169.185 1067.58 172.019C1067.23 173.401 1066.29 174.502 1065.35 175.556C1064.14 176.961 1062.83 178.319 1061.21 179.186C1059.99 179.841 1058.66 180.169 1057.35 180.497Z" fill="#005A87"/>
<path d="M995.048 68.5733C994.908 69.1822 994.791 70.6108 995.751 71.6179C996.43 72.3439 996.594 72.4844 997.461 72.9528C998.585 73.6086 1000.01 73.6554 1001.3 73.7725C1002.47 73.8896 1003.9 73.6086 1004.35 72.5078L1004.6 71.6179C1004.81 71.3134 1006.66 71.1495 1007.16 71.6647C1007.7 72.2502 1007.79 72.6249 1008.44 73.0231C1009.12 73.4212 1010.34 73.7257 1011.11 73.7725C1012.94 73.8662 1014.02 73.7257 1015.63 72.8591C1016.41 72.4142 1016.83 71.6179 1017.3 70.845C1017.79 70.0956 1018 69.112 1017.67 68.2688C1017.37 67.4491 1016.57 66.8402 1015.73 66.5826C1014.86 66.3016 1013.95 66.3016 1013.08 66.3484C1012.17 66.4187 1011.25 66.5358 1010.46 66.9339C1009.55 67.3789 1008.44 68.1986 1007.53 69.4164C1006.95 70.2361 1004.77 69.8848 1004.56 69.674C1004.42 69.5335 1003.78 67.8707 1001.23 66.8168C1000.01 66.3016 998.561 66.2079 997.297 66.606C995.915 67.0276 995.283 67.4492 995.048 68.5733Z" fill="#E6342D"/>
<path d="M971.23 122.814C969.825 144.103 965.446 165.04 961.066 185.907C956.78 206.4 944.415 289.517 940.878 299.798C940.597 300.688 941.323 301.133 942.19 300.758C943.033 300.407 943.361 299.376 943.572 298.463C945.117 291.835 945.914 285.77 947.342 279.118C948.841 272.28 950.059 261.951 950.434 260.289C951.651 254.574 956.851 219.327 958.467 210.334C961.16 195.252 963.596 183.237 966.991 167.078C967.624 164.033 967.788 160.918 968.561 157.897C969.38 154.665 972.636 126.467 972.917 123.072C973.081 120.964 972.378 122.65 971.23 122.814Z" fill="#8A878E"/>
<path d="M948.771 285.184C949.169 285.933 949.474 286.87 949.075 287.62C948.771 288.205 948.115 288.51 947.506 288.673C944.462 289.517 940.949 287.432 940.223 284.364C940.551 282.514 942.705 281.343 944.555 281.694C946.429 282.046 947.904 283.521 948.771 285.184ZM949.872 283.638C948.326 281.624 945.961 279.868 943.455 280.219C941.956 280.43 940.644 281.39 939.661 282.514C939.145 283.123 938.677 283.849 938.63 284.645C938.583 285.16 938.724 285.676 938.911 286.168C939.403 287.409 940.27 288.533 941.417 289.259C943.103 290.289 945.164 290.43 947.155 290.524C947.811 290.547 950.317 289.423 950.832 288.111C951.417 286.542 950.926 285.02 949.872 283.638Z" fill="#8A878E"/>
<path d="M968.841 122.954C968.607 122.626 968.537 122.205 968.56 121.783C968.654 120.472 969.848 119.418 971.16 119.301C972.448 119.184 973.736 119.933 974.439 121.034C974.954 121.807 975.165 122.884 974.579 123.61C974.369 123.891 974.041 124.079 973.689 124.149C973.408 124.219 973.104 124.172 972.799 124.149C972.261 124.079 971.745 124.032 971.23 123.961C970.34 123.868 969.333 123.704 968.841 122.954Z" fill="#8A878E"/>
<path d="M1032.82 225.37C1032.89 226.142 1032.85 227.032 1032.26 227.524C1031.79 227.899 1031.16 227.969 1030.58 227.899C1027.74 227.594 1025.47 224.69 1025.87 221.857C1026.76 220.381 1028.96 220.147 1030.41 221.037C1031.86 221.927 1032.64 223.683 1032.82 225.37ZM1034.23 224.433C1033.6 222.208 1032.19 219.96 1029.97 219.421C1028.63 219.116 1027.2 219.468 1026.01 220.124C1025.38 220.451 1024.74 220.92 1024.42 221.552C1024.23 221.974 1024.16 222.466 1024.16 222.934C1024.16 224.152 1024.53 225.393 1025.26 226.377C1026.34 227.805 1028.05 228.602 1029.69 229.328C1030.22 229.585 1032.73 229.445 1033.57 228.508C1034.6 227.384 1034.67 225.955 1034.23 224.433Z" fill="#8A878E"/>
<path d="M1103.25 95.1785C1103.15 94.8038 1103.22 94.4291 1103.39 94.0778C1103.9 93.0239 1105.26 92.5086 1106.41 92.8365C1107.53 93.1878 1108.38 94.2417 1108.61 95.3893C1108.78 96.209 1108.59 97.1926 1107.89 97.6142C1107.6 97.7781 1107.25 97.825 1106.95 97.7781L1106.2 97.4737C1105.75 97.2395 1105.33 97.0287 1104.91 96.8179C1104.21 96.4432 1103.41 95.9748 1103.25 95.1785Z" fill="#8A878E"/>
<path d="M1037.65 209.374C1029.97 222.138 1023.62 232.396 1021.35 235.089C1020.79 235.745 1021.28 236.353 1022.12 236.33C1022.96 236.307 1023.55 235.534 1024.04 234.855C1027.53 229.772 1030.2 224.925 1033.62 219.772C1035.35 217.149 1037.34 213.753 1039.01 210.873C1038.61 210.451 1038.16 209.936 1037.65 209.374Z" fill="#8A878E"/>
<path d="M1105.31 95.8343C1097.09 113.305 1086.48 129.535 1075.92 145.695C1072.97 150.192 1067.81 158.74 1061.79 168.834C1061.7 169.185 1061.51 169.49 1061.26 169.771C1057.53 175.977 1053.53 182.745 1049.52 189.514C1049.78 190.263 1050.04 190.989 1050.3 191.692C1056.01 181.902 1063.01 169.747 1065.66 165.438C1072.92 153.611 1078.94 144.267 1087.14 131.76C1088.68 129.418 1089.83 126.819 1091.47 124.547C1093.25 122.088 1105.29 99.3707 1106.64 96.6071C1107.46 94.8741 1106.32 96.0685 1105.31 95.8343Z" fill="#8A878E"/>
<path d="M1073.15 260.125C1074 262.56 1075.66 264.457 1075.21 265.581C1074.77 266.659 1073.69 267.455 1073.46 268.603C1073.25 269.516 1073.67 270.5 1074.3 271.226C1074.96 271.928 1075.8 272.42 1076.62 272.888C1081.28 275.629 1085.82 278.673 1089.5 282.631C1090.74 283.943 1096.85 287.128 1098.59 286.542C1099.9 286.097 1100.48 284.458 1100.25 283.099C1100.02 281.718 1094.65 278.907 1093.88 277.76C1090.62 273.029 1087.91 267.923 1085.82 262.584C1085.61 262.068 1085.4 261.53 1084.98 261.178C1084.61 260.897 1084.14 260.804 1083.67 260.71C1080.53 260.195 1075.96 258.602 1073.15 260.125Z" fill="#005A87"/>
<path d="M1000.6 264.293C1000.81 263.333 999.1 265.113 996.664 265.628C994.416 266.073 991.277 266.425 989.661 264.809C989.17 264.34 988.678 263.989 988.444 263.708C987.975 263.052 989.263 269.914 989.123 271.858C988.795 276.05 985.961 280.008 986.711 284.13C987.038 285.98 987.811 287.877 989.193 289.142C990.95 290.758 992.847 289.048 993.034 288.837C995.915 285.301 996.032 284.996 997.296 280.617C998.561 276.331 1000.08 266.565 1000.6 264.293Z" fill="#005A87"/>
<path d="M1058.47 164.923C1058.54 163.681 1054.82 164.759 1053.64 165.18C1052.45 165.578 1051.56 166.679 1051.42 167.92C1051.33 168.81 1051.56 169.7 1051.94 170.543C1052.85 172.722 1054.53 174.595 1056.62 175.743C1057.39 176.164 1058.21 176.516 1059.1 176.539C1059.5 176.562 1059.92 176.492 1060.3 176.305C1061.35 175.696 1061.4 174.127 1060.86 173.026C1060.32 171.925 1059.36 171.082 1058.8 170.005C1058.14 168.717 1058.38 166.796 1058.47 164.923Z" fill="#0082C2"/>
<path d="M967.624 168.928C967.975 167.405 966.687 166.047 965.704 164.829C964.228 163.026 963.221 160.824 962.823 158.506L962.917 157.756L963.526 157.545C964.696 157.428 965.844 157.405 967.015 157.499C967.507 157.522 968.069 157.545 968.467 157.264C968.982 156.89 969.029 156.14 968.935 155.531C968.584 152.838 966.43 150.543 963.807 149.887C961.184 149.231 957.343 149.723 953.923 152.182C952.987 152.861 948.045 156.632 948.021 159.044C948.021 159.887 948.326 161.55 948.584 162.347C949.38 164.618 950.621 166.703 951.933 168.74C952.893 170.239 953.9 171.738 955.235 172.932C956.546 174.127 958.256 174.993 960.059 174.97C961.816 174.946 963.502 174.033 964.743 172.792C966.008 171.551 966.898 170.005 967.647 168.412L967.624 168.928Z" fill="#005A87"/>
<path d="M1032.8 399.45C1048.28 386.17 1064.86 376.03 1079.66 362.001C1083.11 358.769 1088.14 354.202 1090.65 350.642C1090.88 350.338 1091.21 350.151 1091.61 350.174C1095.5 350.385 1099.13 350.83 1104.79 350.291C1105.68 350.221 1106.32 351.228 1105.82 351.977C1104.04 354.811 1101.63 356.544 1098.92 359.027C1078.8 377.388 1058.66 395.749 1036.69 411.815C1023.39 421.558 1010.46 431.816 998.234 442.893C992.261 448.303 985.938 453.948 979.919 458.983C972.495 465.189 963.853 470.435 954.274 471.887C950.316 472.473 946.171 472.402 942.471 470.904C938.981 469.522 935.96 466.735 934.766 463.222C934.625 462.777 934.812 462.285 935.164 462.004C938.677 459.381 942.19 456.735 945.679 454.112C946.241 453.713 946.991 453.901 947.319 454.51C948.607 456.969 951.792 458.327 954.673 458.046C957.998 457.718 962.097 455.868 970.528 449.264C970.528 449.264 1018.3 411.885 1032.8 399.45Z" fill="#42C0FF"/>
<path d="M1191.87 104.523C1195.57 98.8318 1203.32 97.5671 1210.11 97.6374C1218.31 97.7077 1226.98 99.1597 1233.18 104.523C1237 107.848 1239.53 112.345 1242.55 116.397C1245.57 120.448 1249.43 124.313 1254.4 125.296C1253.16 118.387 1251.89 111.479 1250.63 104.593C1249.88 100.424 1249.2 95.7404 1252.97 92.649C1256.13 90.0494 1260.7 90.3538 1264.07 92.6958C1270.04 96.8177 1271.26 104.125 1272.2 110.916C1273.74 121.783 1275.29 132.65 1276.84 143.54C1277.45 147.896 1278.03 152.463 1276.11 156.492C1275.15 158.506 1273.44 160.168 1271.38 160.988C1267.16 162.674 1264.8 160.028 1262.01 158.342C1258.38 156.14 1254.03 155.555 1249.93 154.454C1240.82 152.065 1232.46 146.913 1226.2 139.887C1222.62 135.905 1219.43 131.081 1214.38 129.301C1209.76 131.854 1209.71 134.336 1208.43 139.442C1205.92 149.442 1203.56 155.344 1201.45 160.192C1198.59 166.796 1188.26 180.075 1185.08 186.539C1179.97 196.914 1185.24 198.132 1192.06 210.193C1198.82 222.114 1205.87 232.606 1212.83 244.386C1218.22 253.567 1225.22 261.694 1233.06 268.907C1237.51 273.005 1238.57 274.668 1239.62 279.54C1240.18 282.022 1240.09 284.622 1239.43 287.104C1237.84 293.193 1236.34 299.329 1234.24 305.255C1232.67 309.704 1230.75 314.037 1229.55 318.604C1227.63 325.911 1227.58 333.569 1227.56 341.11C1227.51 350.923 1227.82 369.589 1227.79 379.402C1221.17 381.861 1211.42 391.58 1204.45 390.48C1210.65 369.519 1202.6 341.438 1200.25 328.042C1195.38 300.243 1208.15 290.406 1206.46 287.666C1199.5 280.617 1191.96 276.518 1184.98 269.469C1181.35 265.792 1179.88 263.755 1169.62 254.27C1167.11 251.951 1158.31 239.679 1152.17 235.838C1150.46 237.267 1148.82 238.625 1147.37 240.311C1134.09 255.651 1120.81 270.968 1107.53 286.308C1106.06 287.994 1104.56 289.751 1104.02 291.929C1103.48 294.13 1104.02 296.425 1104.26 298.674C1105.47 310.477 1098.47 321.555 1090.69 330.501C1085.64 336.309 1080.11 341.743 1075.99 348.23C1071.87 354.717 1069.2 362.587 1070.72 370.128C1071.02 371.673 1071.49 373.243 1071.23 374.788C1070.83 377.013 1069.01 378.653 1067.32 380.151C1057.23 389.121 1051.23 400.527 1034.14 410.082C1032.64 410.925 1030.95 411.417 1029.24 411.323C1028.52 411.3 1027.81 411.159 1027.27 410.691C1026.17 409.778 1026.31 408.068 1026.66 406.686C1028.52 399.098 1035.52 394.25 1039.52 387.552C1045.68 377.294 1050.53 366.287 1053.97 354.835C1058.82 338.745 1067.81 323.756 1071.87 307.456C1073.86 299.493 1074.02 291.179 1075.82 283.193C1080.93 260.546 1098.42 242.958 1108.12 221.88C1113.67 209.819 1116.62 196.68 1122.05 184.549C1127.93 171.41 1136.86 158.974 1138.17 144.758C1138.26 143.775 1138.07 142.744 1137.51 141.948C1135.61 139.255 1135.68 131.198 1135.97 128.552C1136.79 120.472 1131.96 122.65 1132.43 111.221C1132.66 105.647 1134.54 100.237 1137.79 95.717C1139.08 93.9371 1136.32 93.1174 1138.42 92.4382C1142.97 90.9862 1152.2 93.1642 1156.95 93.5858C1165.08 94.2884 1170.56 85.2951 1178.71 85.623C1182.83 85.787 1186.44 88.7144 1188.54 92.2274C1190.65 95.7638 1191.03 100.495 1191.87 104.523Z" fill="#BA0D07"/>
<path d="M1106.95 166.797C1119.45 162.23 1134.61 147.85 1142.55 128.294C1144.12 124.477 1147.98 121.947 1149.64 118.177C1151.84 113.118 1151.19 107.287 1150.09 101.877C1149.69 99.7922 1149.17 97.6376 1147.89 95.9514C1145.71 93.0707 1141.66 92.1808 1138.1 92.8599C1134.58 93.5625 1131.45 95.5766 1128.57 97.7313C1117.98 105.507 1110.65 119.114 1102.15 129.114C1100.51 131.011 1099.2 133.166 1098.05 135.414C1094.63 142.042 1092.62 149.536 1087.81 155.251C1081.54 162.721 1078.99 173.26 1078 182.98C1077.84 184.479 1077.7 186.071 1078.4 187.406C1079.85 190.146 1083.65 190.146 1086.71 190.287C1096.22 190.732 1104.93 195.978 1114.4 196.891C1123.01 197.711 1132.38 194.994 1140.04 199.069C1141.84 200.053 1143.93 201.411 1145.78 200.545C1147.04 199.982 1147.68 198.601 1148.19 197.336C1150.49 191.832 1152.71 186.329 1154.87 180.778C1139.03 174.572 1123.53 170.497 1106.95 166.797Z" fill="#E6342D"/>
<path d="M1200.98 108.411C1201.89 107.848 1202.48 106.865 1203.04 105.928C1205.57 101.712 1208.08 97.4735 1210.58 93.2579C1212.31 90.3538 1214.09 86.8408 1212.69 83.7728C1212.2 82.6721 1211.33 81.7821 1210.42 81.0093C1204.02 75.529 1194.63 74.7093 1186.48 76.864C1185.97 77.0045 1185.45 77.145 1184.96 77.4026C1184.33 77.7539 1183.81 78.2926 1183.32 78.8547C1180.23 82.4613 1178.71 87.3561 1179.2 92.0869C1179.69 96.8177 1182.2 101.314 1185.97 104.195C1188.89 106.443 1192.43 107.708 1196.01 108.598C1197.65 108.996 1199.53 109.301 1200.98 108.411Z" fill="#FEFEFE"/>
<path d="M1188.08 68.0348C1186.39 69.3463 1185.05 71.1262 1184.33 73.1169C1181.07 81.8525 1179.25 90.5178 1181.33 99.5813C1178.85 100.354 1176.11 98.9022 1174.59 96.8178C1173.09 94.71 1172.52 92.087 1172.03 89.5342C1171.21 85.1781 1170.3 80.8454 1170.02 76.4191C1169.46 67.7303 1174.12 58.9713 1179.13 55.6456C1184.16 52.2966 1190.23 50.8211 1196.25 50.2591C1196.72 50.2122 1197.26 50.1888 1197.68 50.423C1198.24 50.7041 1198.5 51.3598 1198.64 51.9921C1199.53 55.8096 1197.79 59.8612 1195.12 62.7419C1192.48 65.6459 1188.96 67.5664 1185.52 69.4634L1188.08 68.0348Z" fill="#005A87"/>
<path d="M1377.33 407.951C1377.66 408.934 1377.85 409.965 1377.92 410.995C1378.32 418.607 1372.41 425.75 1365.11 427.858C1357.8 429.989 1346.89 429.966 1339.39 428.701C1306.65 423.267 1257.61 414.344 1225.38 406.358C1181.33 395.421 1138.26 391.393 1136.22 389.121C1134.19 386.873 1141.45 383.009 1144.87 382.728C1146.79 382.564 1189.86 389.754 1208.83 393.665C1263.93 405.023 1311.36 419.075 1352.86 422.401C1356.65 422.705 1361.92 421.417 1365.5 420.059C1369.06 418.724 1371.38 416.101 1371.99 412.33C1372.44 409.637 1371.2 409.379 1371.87 408.466C1372.55 407.576 1376.96 406.874 1377.33 407.951Z" fill="#42C0FF"/>
<path d="M1261.64 400.199C1261.4 402.19 1259.53 403.665 1257.56 404.087C1255.59 404.532 1253.56 404.133 1251.59 403.735C1242.57 401.908 1233.53 400.105 1224.52 398.302C1219.86 397.365 1215.22 396.428 1210.58 395.491C1208.03 395 1204.14 394.25 1204.21 391.651C1204.31 387.95 1206.62 383.243 1208.5 381.276C1211.59 377.997 1213.44 377.973 1216.55 374.695C1218.19 372.962 1220.51 371.065 1222.67 372.048C1223.91 372.61 1224.59 373.898 1225.34 374.999C1236.51 391.299 1257.3 394.25 1258.9 395.351C1260.49 396.452 1261.85 398.255 1261.64 400.199Z" fill="#991D1D"/>
<path d="M1187.49 181.855C1163.7 213.964 1135.57 242.607 1107.53 271.109C1080.04 299.072 976.36 417.67 960.387 430.34C959.029 431.418 959.755 432.87 961.465 433.174C963.174 433.455 964.72 432.167 965.961 430.949C975.142 422.05 982.496 413.291 991.536 404.251C1000.79 394.953 1013.18 379.941 1015.45 377.669C1023.13 369.87 1067.06 319.541 1078.7 306.988C1098.24 285.933 1114.23 269.422 1135.94 247.384C1140.04 243.239 1143.46 238.438 1147.72 234.48C1152.29 230.194 1186.01 189.022 1189.86 183.916C1192.24 180.778 1189.46 182.722 1187.49 181.855Z" fill="#12B0FF"/>
<path d="M987.648 415.258C987.507 416.874 987.015 418.631 985.61 419.403C984.556 420.012 983.245 419.848 982.074 419.497C976.453 417.741 973.01 410.879 974.978 405.305C977.366 402.705 981.933 403.08 984.51 405.492C987.109 407.904 987.952 411.745 987.648 415.258ZM990.927 413.947C990.528 409.192 988.585 404.017 984.252 402.049C981.676 400.855 978.655 401.019 975.961 401.838C974.509 402.26 973.057 402.939 972.167 404.134C971.582 404.906 971.277 405.867 971.09 406.803C970.575 409.286 970.832 411.956 971.91 414.228C973.502 417.577 976.64 419.872 979.662 422.026C980.669 422.752 985.798 423.502 987.882 421.956C990.435 420.083 991.184 417.202 990.927 413.947Z" fill="#12B0FF"/>
<path d="M1183.53 179.654C1183.53 178.881 1183.84 178.132 1184.3 177.499C1185.78 175.555 1188.75 175.064 1190.91 176.211C1193.06 177.359 1194.33 179.841 1194.33 182.277C1194.35 184.01 1193.58 185.93 1191.96 186.492C1191.33 186.703 1190.63 186.703 1190 186.446C1189.48 186.235 1189.04 185.884 1188.59 185.532C1187.82 184.9 1187.04 184.268 1186.27 183.659C1184.98 182.605 1183.58 181.317 1183.53 179.654Z" fill="#12B0FF"/>
<path d="M1235.06 35.5982C1234.45 35.1298 1234.07 34.4038 1233.86 33.6543C1233.28 31.2889 1234.8 28.6659 1237.02 27.7291C1239.27 26.7689 1242.01 27.331 1243.91 28.8767C1245.24 29.954 1246.25 31.7573 1245.66 33.3733C1245.45 34.0056 1244.99 34.5443 1244.4 34.8722C1243.91 35.1298 1243.35 35.2703 1242.81 35.3874C1241.82 35.5748 1240.86 35.7855 1239.9 35.9963C1238.26 36.3476 1236.39 36.6287 1235.06 35.5982Z" fill="#12B0FF"/>
<path d="M1265.5 225.252C1257.33 149.676 1252.27 93.375 1244.85 50.6337C1244.05 46.0434 1243.25 41.4531 1242.46 36.8628C1242.27 35.7621 1242.03 34.5911 1241.29 33.748C1240.54 32.9283 1239.08 32.6004 1238.33 33.4201C1238.05 33.7246 1237.73 34.0993 1237.8 34.4974C1239.48 45.5282 1246.44 93.3984 1248.03 109.207C1257.12 199.561 1276.39 348.488 1283.11 398.958C1283.32 400.433 1283.89 402.26 1285.36 402.33C1287.02 402.447 1287.7 400.199 1287.59 398.513C1287.4 395.749 1267.12 240.241 1265.5 225.252Z" fill="#12B0FF"/>
<path d="M1289.01 385.843C1288.36 387.06 1287.26 387.974 1286.09 388.747C1284.54 389.777 1282.81 390.667 1280.96 390.878C1279.08 391.112 1277.05 390.573 1275.81 389.168C1273.65 386.733 1274.8 382.517 1277.54 380.76C1280.28 379.004 1283.91 379.285 1286.91 380.573C1287.66 380.901 1288.41 381.299 1288.9 381.931C1289.74 383.032 1289.65 384.625 1289.01 385.843ZM1292.48 378.559C1289.51 376.264 1285.36 376.521 1281.64 376.873C1278.08 377.201 1274.12 377.763 1271.92 380.573C1270.35 382.564 1270.07 385.351 1270.82 387.763C1271.59 390.152 1273.32 392.166 1275.38 393.618C1277.75 395.257 1280.7 394.157 1283.44 393.267C1286.58 392.283 1289.83 391.229 1292.13 388.864C1294.42 386.522 1295.08 380.55 1292.48 378.559Z" fill="#12B0FF"/>
<path d="M1179.27 59.8144C1176.18 64.92 1176.86 72.7188 1179.78 77.9414C1179.43 80.9157 1180.93 80.986 1183.41 82.6722C1186.88 85.0376 1190.53 87.122 1194.33 88.9488C1198.15 90.7755 1202.17 92.3447 1206.39 92.6491C1210.63 92.9536 1215.1 91.8763 1218.19 88.9956C1221.8 85.6231 1223.04 80.3771 1223.09 75.4589C1223.11 72.4143 1222.76 69.3697 1222.06 66.3954C1221.1 62.4375 1219.43 58.5732 1216.62 55.5989C1213.06 51.8048 1207.82 49.7907 1202.62 49.6736C1197.42 49.5331 1190.82 50.2825 1186.37 52.9758C1182.9 55.0836 1181.35 56.3483 1179.27 59.8144Z" fill="#005A87"/>
<path d="M1267.47 96.5369C1268.17 90.7522 1266.23 83.3983 1263.63 75.7868C1263.11 74.2646 1262.46 72.7188 1261.29 71.6415C1260.21 70.6579 1258.8 70.1192 1257.4 69.7445C1252.03 68.1988 1246.34 68.3159 1240.75 68.4564C1237.84 68.5267 1234.75 68.6438 1232.31 70.2363C1229.88 71.8055 1229.81 74.3348 1231.35 75.5292C1233.6 77.2857 1240.89 78.0586 1245.99 76.7236C1241.85 77.6839 1237.47 80.0961 1233.74 82.1571C1231.73 83.2812 1229.22 85.5764 1230.54 87.4734C1232.97 91.0098 1241.43 85.9745 1246.6 86.2555C1244.26 87.3797 1238.64 88.7849 1234.7 91.4782C1233.09 92.5555 1231.38 94.2183 1231.8 96.1153C1234.38 97.4502 1237.51 96.935 1240.28 95.9748C1243.04 95.038 1245.66 94.9209 1248.57 94.6164C1244.91 95.5767 1241.45 95.8343 1238.24 97.8015C1236.51 98.832 1234.66 100.612 1235.29 102.532C1239.34 104.757 1244.49 101.478 1248.97 102.743C1250.79 103.235 1252.39 104.5 1254.26 104.804C1257.98 105.39 1266.84 101.713 1267.47 96.5369Z" fill="#E6342D"/>
<path d="M1138.31 190.942C1138.64 187.593 1139.76 183.987 1142.64 182.23C1144.96 180.801 1148.26 180.286 1150.98 180.45C1158.31 180.895 1165.55 182.09 1171.99 185.603C1175.55 187.546 1183.95 190.38 1185.24 191.926C1186.76 193.753 1186.32 196.586 1184.19 197.64C1182.03 198.671 1181.82 199.256 1179.48 198.882C1182.2 200.685 1182.5 199.233 1183.3 202.746C1183.63 204.128 1182.76 206.095 1181.49 206.727C1180.21 207.383 1178.71 207.336 1177.28 207.289C1179.15 208.882 1179.83 211.809 1178.64 213.964C1177.44 216.119 1174.37 217.055 1172.29 215.767C1173.37 217.126 1173.25 219.257 1172.15 220.615C1171.05 221.997 1168.12 222.02 1166.41 221.646C1163.93 221.107 1163.2 219.491 1161.07 218.133C1158.26 216.353 1154.77 216.002 1151.63 214.807C1142.48 211.341 1137.37 200.685 1138.31 190.942Z" fill="#E6342D"/>
<path d="M113.102 55.552C106.615 41.4298 86.4036 36.4882 72.5624 34.5444C56.3324 32.2726 42.14 33.8652 26.5189 38.8536C13.0759 43.1863 -4.2548 51.4535 -3.69273 68.0816C-2.84961 93.1409 34.0133 95.4126 51.8592 96.2089C70.7122 97.052 96.6849 96.49 114.437 89.3235C133.243 81.712 139.988 57.3085 120.714 45.4112C107.036 36.9566 88.1835 35.9964 72.5858 35.973C64.3655 35.973 56.3559 37.0971 48.276 38.4789C41.6716 39.6265 35.0906 45.7625 33.8025 46.8632C29.5167 50.587 29.7743 58.1516 33.8025 61.9222C34.1538 62.2501 34.4817 62.578 34.833 62.8824C30.9453 59.3226 39.2359 66.8872 39.1188 66.817C42.6786 68.9248 46.6132 70.1192 50.6414 70.892C61.0398 72.9061 71.4851 73.7727 81.9538 75.0842C86.0523 75.576 90.1507 75.6463 94.2258 76.3254C96.8254 76.7704 103.57 79.9087 98.7927 76.1849C106.498 60.0252 106.451 53.0227 98.6288 55.1773C95.186 56.278 91.4623 56.7698 87.9024 57.3553C82.9843 58.1516 77.949 58.5263 73.0074 59.1821C58.8149 61.0557 38.6738 63.7958 25.3011 57.3319C29.5869 62.8824 30.5003 67.9645 27.9944 72.5314C29.3996 70.9857 31.2029 70.0958 32.936 69.0184C36.8705 66.5593 41.1563 64.5218 45.4422 62.7653C59.7283 56.9104 95.5607 47.3316 106.732 60.4702C109.941 64.2174 114.882 59.4397 113.102 55.552Z" fill="white"/>
<path d="M298.939 54.8727C296.504 54.8727 294.068 54.7322 291.632 54.4745C289.993 54.7322 288.283 54.8493 286.574 54.8493C278.306 54.8493 269.43 52.0857 263.365 49.2519C256.737 46.1371 255.706 37.3546 258.704 31.5231C263.763 21.7804 275.192 19.0168 285.707 19.0168C288.073 19.0168 290.415 19.1574 292.593 19.3916C304.092 20.6094 317.301 22.0146 326.645 29.3919C331.47 33.1859 331.47 42.8349 326.645 46.6289C319.385 52.3668 309.314 54.8727 298.939 54.8727ZM308.987 30.1179C308.869 30.1179 308.565 30.3286 308.12 30.9141C308.893 30.516 309.104 30.1179 308.987 30.1179Z" fill="#DDF2FC"/>
<path d="M391.19 50.9381C390.277 36.7691 371.822 29.7666 360.019 27.6119C345.732 25.0123 329.76 27.2372 316.973 34.1461C302.242 42.062 296.106 59.7674 308.331 72.8826C318.425 83.7025 338.894 83.7494 352.618 84.4051C366.061 85.0375 381.401 84.1241 393.204 77.1216C407.42 68.7372 408.802 50.6337 397.771 39.0642C389.551 30.4457 371.565 28.7361 360.44 29.3918C347.465 30.1647 333.952 32.9048 326.95 43.5843C324.772 46.9099 324.444 52.8117 326.95 56.0905C332.289 63.1165 340.978 66.3016 349.433 67.8707C355.077 68.9012 360.674 69.674 366.389 69.9082C367.255 69.9317 375.124 70.7279 370.206 70.0487C372.22 70.3298 374.188 70.8216 376.131 71.4305C375.288 71.0792 374.445 70.7513 373.602 70.4C380.464 73.5383 379.996 72.9997 372.22 68.7372C369.621 66.6529 364.539 52.1794 371.822 49.369C367.583 51.0084 362.15 50.259 357.606 50.0482C352.758 49.8374 348.355 49.2753 343.812 48.5259C341.657 48.1746 339.55 47.7296 337.418 47.3549C326.528 45.3876 334.983 43.9122 336.458 52.3433C336.458 55.505 336.458 58.6667 336.458 61.8284C336.247 63.2336 334.491 65.154 333.343 65.9737C335.545 64.3811 338.168 63.3038 340.58 62.1094C343.133 60.8447 347.465 60.0016 350.697 59.5801C357.208 58.7369 363.789 57.9173 370.253 56.6526C375.218 55.6924 379.317 57.4489 384.141 57.9875C387.795 58.3857 391.401 54.4745 391.19 50.9381Z" fill="white"/>
<path d="M461.239 21.593C465.665 47.9404 471.028 81.22 473.183 107.848C461.192 105.624 447.374 105.343 435.173 105.225C433.416 98.2931 452.574 39.3921 461.239 21.593Z" fill="#0082C2"/>
<path d="M357.653 471.232C357.957 469.803 358.168 468.351 358.426 466.922C358.683 465.47 359.035 464.206 358.777 462.754C358.707 462.355 358.121 462.098 357.793 462.355C355.381 464.182 355.849 467.929 355.404 470.623C355.17 472.075 357.325 472.73 357.653 471.232Z" fill="#FEFEFE"/>
<path d="M514.004 361.603C513.91 363.078 513.77 364.554 513.723 366.053C513.723 367.2 513.84 368.957 514.8 369.73C515.48 370.268 516.299 369.893 516.393 369.05C516.534 367.973 516.112 366.662 516.018 365.561C515.901 364.249 515.925 362.914 515.854 361.603C515.808 360.385 514.074 360.385 514.004 361.603Z" fill="#FEFEFE"/>
<path d="M508.43 381.323C508.36 382.845 507.868 384.742 508.852 386.03C509.273 386.569 509.929 386.569 510.35 386.03C511.334 384.742 510.842 382.845 510.749 381.323C510.678 379.824 508.524 379.824 508.43 381.323Z" fill="#FEFEFE"/>
<path d="M504.121 363.195C504.027 365.35 503.348 368.16 504.425 370.128C504.8 370.807 505.854 370.807 506.229 370.128C507.306 368.16 506.627 365.35 506.533 363.195C506.463 361.65 504.215 361.65 504.121 363.195Z" fill="#FEFEFE"/>
<path d="M500.444 349.87C500.491 350.947 500.163 351.978 500.28 353.055C500.35 353.757 501.076 354.085 501.615 353.617C502.739 352.657 502.833 351.275 502.762 349.87C502.692 348.371 500.374 348.371 500.444 349.87Z" fill="#FEFEFE"/>
<path d="M489.694 370.666C489.788 371.814 489.764 372.962 489.601 374.109C489.437 375.116 489.179 376.006 489.718 376.92C489.928 377.294 490.42 377.435 490.795 377.201C492.692 376.1 492.387 372.517 492.177 370.666C491.989 369.121 489.554 369.051 489.694 370.666Z" fill="#FEFEFE"/>
<path d="M496.931 391.885C496.556 393.36 495.784 394.906 496.884 396.171H497.774C498.875 394.906 498.102 393.36 497.727 391.885C497.634 391.487 497.025 391.487 496.931 391.885Z" fill="#FEFEFE"/>
<path d="M486.533 395.187C486.58 396.241 486.697 397.061 487.071 398.044C487.329 398.677 488.125 398.677 488.383 398.044C488.781 397.061 488.875 396.241 488.922 395.187C489.015 393.641 486.462 393.641 486.533 395.187Z" fill="#FEFEFE"/>
<path d="M516.955 399.473C516.908 401.042 516.299 403.408 517.283 404.766C517.751 405.375 518.501 405.375 518.969 404.766C519.976 403.408 519.367 401.042 519.297 399.473C519.227 397.974 517.025 397.974 516.955 399.473Z" fill="#FEFEFE"/>
<path d="M523.068 376.521C522.904 378.442 522.271 381.393 523.419 383.032C524.028 383.875 525.035 383.828 525.62 383.032C527.072 381.135 525.62 377.973 524.801 376.053C524.403 375.116 523.114 375.702 523.068 376.521Z" fill="#FEFEFE"/>
<path d="M519.812 346.216C518.969 347.247 518.805 348.066 518.805 349.401C518.805 350.666 519.11 352.165 520.515 352.469C520.866 352.539 521.311 352.493 521.545 352.212C522.271 351.298 522.131 350.596 521.85 349.518C521.545 348.371 521.358 347.387 520.819 346.333C520.632 346.005 520.07 345.888 519.812 346.216Z" fill="#FEFEFE"/>
<path d="M528.431 396.264C528.384 397.857 528.712 399.356 529.648 400.667C529.836 400.948 530.234 400.714 530.093 400.386C529.438 399.028 529.086 397.81 529.18 396.264C529.203 395.773 528.431 395.773 528.431 396.264Z" fill="#FEFEFE"/>
<path d="M518.735 386.545C517.962 388.7 517.306 390.761 519.25 392.47C519.602 392.775 520.281 392.705 520.374 392.166C520.515 391.58 520.796 390.737 520.609 390.128C520.281 389.004 519.836 387.81 519.672 386.662C519.625 386.124 518.922 385.983 518.735 386.545Z" fill="#FEFEFE"/>
<path d="M523.419 360.409C522.224 362.399 521.943 367.411 524.379 368.629C525.058 368.98 525.807 368.793 526.229 368.137C526.885 367.107 526.557 366.053 526.463 364.882C526.346 363.547 526.252 361.978 525.761 360.737C525.363 359.729 524.051 359.402 523.419 360.409Z" fill="#FEFEFE"/>
<path d="M524.098 412.26C524.121 414.134 523.653 416.757 524.519 418.443C524.73 418.864 525.409 418.864 525.62 418.443C526.487 416.757 526.018 414.134 526.042 412.26C526.065 410.995 524.074 410.995 524.098 412.26Z" fill="#FEFEFE"/>
<path d="M511.569 442.472C511.381 443.76 511.451 444.931 512.529 445.774C512.927 446.102 513.372 445.587 513.302 445.189C513.138 444.299 512.857 443.596 512.974 442.659C513.067 441.863 511.709 441.676 511.569 442.472Z" fill="#FEFEFE"/>
<path d="M505.222 422.94C505.245 424.204 505.128 425.539 505.456 426.781C505.573 427.179 506.159 427.179 506.252 426.781C506.58 425.539 506.463 424.204 506.51 422.94C506.51 422.097 505.198 422.097 505.222 422.94Z" fill="#FEFEFE"/>
<path d="M536.417 444.252C536.558 446.266 536.862 448.327 537.565 450.2C537.705 450.575 538.244 450.435 538.15 450.06C537.705 448.116 537.26 446.266 537.166 444.252C537.143 443.783 536.394 443.783 536.417 444.252Z" fill="#FEFEFE"/>
<path d="M452.316 70.7281C451.637 72.4611 451.262 75.0373 452.48 76.6065C452.878 77.0983 453.721 77.0046 453.745 76.2786C453.745 75.5057 453.511 74.8734 453.417 74.1005C453.276 73.0935 453.487 72.0864 453.815 71.1496C454.166 70.166 452.667 69.7913 452.316 70.7281Z" fill="#FEFEFE"/>
<path d="M456.766 61.8753C456.602 63.2337 456.25 64.592 456.812 65.9035C456.976 66.3017 457.679 66.3017 457.843 65.9035C458.428 64.592 458.054 63.2337 457.89 61.8753C457.82 61.1493 456.859 61.1493 456.766 61.8753Z" fill="#FEFEFE"/>
<path d="M457.14 73.9366C456.531 75.3652 456.157 77.0749 456.602 78.5972C456.859 79.4403 458.03 79.2295 458.077 78.4098C458.194 76.9812 458.077 75.7165 458.592 74.3348C458.92 73.398 457.515 73.0701 457.14 73.9366Z" fill="#FEFEFE"/>
<path d="M445.618 82.6722C445.642 84.3818 444.752 86.7238 445.642 88.2929L446.414 88.4803C448.241 87.403 447.89 84.4755 447.726 82.6722C447.585 81.3372 445.595 81.2904 445.618 82.6722Z" fill="#FEFEFE"/>
<path d="M453.159 85.342C452.995 86.794 452.222 88.6442 452.925 90.0026C453.159 90.471 453.792 90.471 454.143 90.1665C455.314 89.0892 455.056 86.8175 455.103 85.342C455.15 84.0539 453.3 84.1242 453.159 85.342Z" fill="#FEFEFE"/>
<path d="M460.091 86.396C460.091 87.122 460.115 87.6841 460.536 88.293C460.817 88.6912 461.309 88.6912 461.59 88.293C461.988 87.6841 462.035 87.122 462.035 86.396C462.035 85.1313 460.091 85.1313 460.091 86.396Z" fill="#FEFEFE"/>
<path d="M461.496 72.2034C461.192 73.5384 460.817 74.8733 461.426 76.1614C461.707 76.7469 462.527 76.6064 462.831 76.1614C463.487 75.1778 463.511 73.9599 463.815 72.8592C464.237 71.3603 461.871 70.7046 461.496 72.2034Z" fill="#FEFEFE"/>
<path d="M453.581 54.2405C453.323 55.3647 453.019 56.5357 453.3 57.6832L453.862 57.7535C454.307 56.7465 454.377 55.6223 454.682 54.545C454.869 53.8424 453.768 53.5379 453.581 54.2405Z" fill="#FEFEFE"/>
<path d="M458.077 42.6711C457.867 44.4042 457.585 47.1911 458.991 48.4792C459.342 48.8071 459.998 48.69 460.115 48.1748C460.302 47.3551 460.138 46.8398 459.951 46.0201C459.693 44.9194 459.717 43.7718 459.787 42.6711C459.857 41.5469 458.194 41.5938 458.077 42.6711Z" fill="#FEFEFE"/>
<path d="M463.277 92.5319C462.762 94.1011 462.082 96.0449 463.441 97.3564C463.909 97.8014 464.635 97.8014 465.08 97.3564C466.438 96.0449 465.783 94.1011 465.244 92.5319C464.916 91.5717 463.605 91.5717 463.277 92.5319Z" fill="#FEFEFE"/>
<path d="M456.345 96.5369C456.415 97.4971 456.321 98.4807 456.672 99.3707C456.93 100.026 457.726 100.026 457.984 99.3707C458.335 98.4807 458.265 97.4971 458.312 96.5369C458.359 95.2722 456.298 95.2722 456.345 96.5369Z" fill="#FEFEFE"/>
<path d="M428.873 217.828C422.596 227.735 419.715 239.234 415.172 249.96C410.863 260.125 403.368 270.874 405.851 282.28C406.67 286.097 410.909 286.94 414.001 285.582C425.523 280.594 430.723 264.855 434.845 253.895C439.248 242.232 440.512 228.672 433.533 217.828C432.409 216.095 429.973 216.095 428.873 217.828Z" fill="#FEFEFE"/>
<path d="M432.807 217.898C433.182 217.898 433.182 217.29 432.807 217.29C432.409 217.29 432.409 217.898 432.807 217.898Z" fill="#D4F9E6"/>
<path d="M411.799 287.104C410.816 290.828 408.825 294.763 409.106 298.674C409.153 299.329 410.183 299.798 410.511 299.048C412.057 295.465 413.275 291.554 414.329 287.807C414.797 286.191 412.221 285.488 411.799 287.104Z" fill="#FEFEFE"/>
<path d="M421.051 290.664C421.191 295.84 419.036 301.836 422.151 306.426C422.526 307.011 423.369 306.637 423.252 305.981C422.268 300.711 423.322 295.91 423.229 290.664C423.182 289.259 421.004 289.259 421.051 290.664Z" fill="#FEFEFE"/>
<path d="M431.191 257.267C426.46 264.223 427.069 277.549 432.526 283.989C433.299 284.903 434.657 283.919 434.423 282.889C432.549 275.043 428.17 265.792 432.292 257.923C432.666 257.174 431.636 256.588 431.191 257.267Z" fill="#FEFEFE"/>
<path d="M443.206 291.718C443.252 296.168 443.533 301.367 445.712 305.302C445.993 305.84 446.672 305.442 446.601 304.927C445.922 300.501 444.845 296.262 444.775 291.718C444.775 290.711 443.206 290.711 443.206 291.718Z" fill="#FEFEFE"/>
<path d="M435.641 302.936C435.571 305.793 434.962 310.454 437.585 312.398C438.241 312.89 439.248 312.234 439.224 311.461C439.154 310.056 438.498 308.768 438.405 307.339C438.287 305.864 438.428 304.388 438.498 302.936C438.569 301.109 435.688 301.086 435.641 302.936Z" fill="#FEFEFE"/>
<path d="M423.931 319.471C424.048 321.18 423.814 322.866 423.767 324.576C423.744 326.192 423.463 327.668 424.329 329.12C424.774 329.869 425.875 329.869 426.343 329.12C428.053 326.286 426.765 321.836 425.547 319.026C425.196 318.229 423.884 318.651 423.931 319.471Z" fill="#FEFEFE"/>
<path d="M410.067 317.339C410.067 322.632 409.949 327.574 408.193 332.632C408.006 333.148 408.661 333.663 409.13 333.359C413.978 330.009 412.854 322.492 412.854 317.339C412.854 315.536 410.09 315.536 410.067 317.339Z" fill="#FEFEFE"/>
<path d="M398.216 323.452C396.951 327.293 395.804 330.9 393.93 334.553C392.244 337.832 390.464 340.712 390.862 344.53C390.956 345.42 391.939 345.654 392.478 344.975C394.961 341.696 396.53 337.879 398.239 334.178C399.762 330.9 401.05 327.082 400.183 323.452C399.926 322.445 398.52 322.562 398.216 323.452Z" fill="#FEFEFE"/>
<path d="M384.211 354.366C383.672 355.842 383.251 357.341 382.899 358.863C382.642 360.104 382.173 361.486 382.946 362.587C383.298 363.079 383.906 363.172 384.375 362.774C385.312 361.931 385.218 360.737 385.405 359.566C385.64 358.02 386.014 356.474 386.459 354.975C386.881 353.523 384.703 352.961 384.211 354.366Z" fill="#FEFEFE"/>
<path d="M391.635 356.474C390.956 358.98 389.317 362.915 390.816 365.327C391.237 366.006 392.221 366.006 392.642 365.327C393.275 364.273 393.275 363.102 393.321 361.884C393.415 360.292 393.696 358.699 393.954 357.106C394.211 355.608 392.057 354.952 391.635 356.474Z" fill="#FEFEFE"/>
<path d="M403.649 341.321C403.181 345.256 401.752 350.057 402.759 353.945C403.111 355.233 404.797 355.069 405.218 353.945C405.944 352.024 405.874 349.94 406.015 347.926C406.155 345.724 406.343 343.523 406.483 341.321C406.6 339.471 403.837 339.541 403.649 341.321Z" fill="#FEFEFE"/>
<path d="M448.287 324.553C448.779 326.426 449.248 328.323 449.716 330.22C450.184 332.188 450.465 334.295 451.566 336.028C452.152 336.989 453.627 336.591 453.651 335.466C453.697 333.663 453.042 332 452.503 330.314C451.824 328.206 451.121 326.075 450.372 323.967C449.927 322.656 447.913 323.194 448.287 324.553Z" fill="#FEFEFE"/>
<path d="M438.896 328.768C439.388 331.227 439.014 334.647 440.63 336.684C441.098 337.27 442.105 336.918 442.269 336.263C442.854 333.827 441.426 330.572 440.559 328.3C440.161 327.269 438.686 327.668 438.896 328.768Z" fill="#FEFEFE"/>
<path d="M448.967 359.565C450.138 363.968 450.278 369.168 452.316 373.243C452.714 373.992 453.955 373.641 453.932 372.798C453.721 368.301 451.355 363.5 449.693 359.355C449.529 358.933 448.85 359.074 448.967 359.565Z" fill="#FEFEFE"/>
<path d="M435.594 367.458C435.665 369.636 435.594 372.798 437.702 374.062C438.288 374.437 438.967 373.969 438.99 373.336C439.084 371.392 438.522 369.425 438.522 367.458C438.522 365.584 435.547 365.584 435.594 367.458Z" fill="#FEFEFE"/>
<path d="M454.963 347.949C455.197 349.378 455.501 350.666 456.485 351.79C456.742 352.071 457.281 351.86 457.258 351.462C457.164 350.127 456.696 348.839 456.485 347.528C456.321 346.521 454.799 346.942 454.963 347.949Z" fill="#FEFEFE"/>
<path d="M427.139 352.001C427.163 353.289 427.069 354.507 427.725 355.678C428.053 356.287 428.989 356.287 429.341 355.678C429.997 354.507 429.903 353.289 429.926 352.001C429.95 350.198 427.116 350.198 427.139 352.001Z" fill="#FEFEFE"/>
<path d="M412.08 380.011C413.181 386.053 413.673 392.564 416.179 398.232C416.53 399.028 417.584 398.396 417.49 397.67C416.624 391.581 415.148 385.515 414.048 379.472C413.813 378.184 411.87 378.723 412.08 380.011Z" fill="#FEFEFE"/>
<path d="M399.879 390.527C399.317 393.267 398.567 396.03 398.895 398.841C398.965 399.45 399.199 400.199 399.832 400.457C404.047 402.283 402.876 393.056 402.829 390.925C402.783 389.285 400.23 388.817 399.879 390.527Z" fill="#FEFEFE"/>
<path d="M387.794 376.639C385.991 379.051 383.93 384.203 385.78 387.014C386.038 387.435 386.764 387.529 387.021 387.014C387.607 385.749 387.466 384.484 387.536 383.103C387.63 381.112 388.216 379.191 389.27 377.505C389.878 376.545 388.426 375.749 387.794 376.639Z" fill="#FEFEFE"/>
<path d="M378.332 405.328C378.309 406.803 378.075 408.232 377.723 409.661C377.442 410.879 376.974 412.05 376.997 413.338C377.021 414.251 378.122 414.438 378.613 413.759C380.229 411.581 380.557 407.974 380.581 405.328C380.604 403.876 378.379 403.876 378.332 405.328Z" fill="#FEFEFE"/>
<path d="M367.231 406.335C366.084 408.49 364.749 411.394 364.702 413.853C364.679 414.836 365.873 414.977 366.365 414.321C366.997 413.478 367.231 412.447 367.559 411.464C368.028 410.106 368.59 408.794 369.292 407.529C370.065 406.194 367.957 404.953 367.231 406.335Z" fill="#FEFEFE"/>
<path d="M361.798 440.481C363.157 439.076 364.374 437.671 365.358 435.961C366.342 434.252 367.724 432.448 367.724 430.387C367.724 429.544 366.834 429.169 366.131 429.497C364.421 430.294 363.672 432.097 362.829 433.689C361.775 435.657 361.213 437.671 360.674 439.825C360.534 440.458 361.33 440.973 361.798 440.481Z" fill="#FEFEFE"/>
<path d="M349.011 451.465C349.245 449.709 349.901 448.116 350.791 446.547C351.587 445.142 352.852 444.018 353.554 442.566C353.929 441.746 353.156 441.02 352.36 441.395C350.72 442.121 349.713 443.947 348.847 445.423C347.84 447.203 347.184 449.17 346.95 451.207C346.809 452.378 348.847 452.636 349.011 451.465Z" fill="#FEFEFE"/>
<path d="M376.154 457.952C375.803 458.842 375.475 459.732 375.288 460.669C375.218 461.161 375.873 461.489 376.131 461.02C376.576 460.201 376.927 459.311 377.372 458.468C377.841 457.601 376.506 457.039 376.154 457.952Z" fill="#FEFEFE"/>
<path d="M384.703 427.952C384.352 429.357 384.188 430.785 384.094 432.237C384.024 433.713 383.883 435.376 384.492 436.757C384.867 437.601 386.014 437.226 386.272 436.523C386.694 435.376 386.459 434.041 386.483 432.823C386.506 431.371 386.67 429.966 387.021 428.584C387.396 427.085 385.078 426.453 384.703 427.952Z" fill="#FEFEFE"/>
<path d="M452.316 388.793C452.011 391.206 451.379 395.257 453.182 397.225C453.721 397.81 454.962 397.74 455.29 396.944C455.876 395.609 455.571 394.11 455.313 392.705C455.009 391.018 454.751 389.777 453.721 388.419C453.253 387.81 452.409 388.021 452.316 388.793Z" fill="#FEFEFE"/>
<path d="M460.958 386.124C461.122 388.231 460.981 392.353 463.183 393.477C463.862 393.805 464.494 393.477 464.775 392.822C465.244 391.721 464.705 390.62 464.401 389.519C464.073 388.278 463.604 387.06 463.253 385.819C462.902 384.578 460.888 384.789 460.958 386.124Z" fill="#FEFEFE"/>
<path d="M436.016 387.435C434.634 391.627 436.18 398.817 439.365 401.955C440.161 402.752 441.543 402.19 441.543 401.066C441.543 398.794 440.395 396.663 439.669 394.555C438.873 392.236 438.662 389.801 438.124 387.435C437.866 386.334 436.344 386.475 436.016 387.435Z" fill="#FEFEFE"/>
<path d="M445.196 379.707C444.47 380.901 444.33 382.447 445.618 383.266C445.922 383.454 446.344 383.454 446.648 383.266C447.913 382.447 447.796 380.901 447.07 379.707C446.648 379.004 445.618 379.004 445.196 379.707Z" fill="#FEFEFE"/>
<path d="M446.602 409.59C446.555 411.534 446.297 413.806 447.07 415.633C447.374 416.359 448.311 416.242 448.405 415.469C448.663 413.548 448.007 411.487 447.796 409.59C447.702 408.841 446.602 408.794 446.602 409.59Z" fill="#FEFEFE"/>
<path d="M428.99 412.729C429.388 414.204 430.091 419.239 432.526 418.584C433.557 418.302 433.767 416.968 433.486 416.101C433.065 414.672 432.667 413.244 432.315 411.815C431.824 409.637 428.428 410.574 428.99 412.729Z" fill="#FEFEFE"/>
<path d="M414.867 421.324C414.867 422.752 414.727 424.134 414.446 425.539L414.891 425.656C415.242 424.228 415.453 422.799 415.523 421.324C415.547 420.902 414.867 420.902 414.867 421.324Z" fill="#FEFEFE"/>
<path d="M450.348 448.842C450.63 450.317 451.028 451.746 451.543 453.151C451.73 453.69 452.222 454.182 452.831 454.135C453.253 454.111 453.463 454.018 453.791 453.737C454.26 453.315 454.236 452.659 453.979 452.121C453.417 450.856 452.972 449.568 452.597 448.21C452.175 446.758 450.044 447.39 450.348 448.842Z" fill="#FEFEFE"/>
<path d="M461.426 437.53C460.981 439.638 460.911 442.823 463.511 443.432C463.956 443.526 464.354 443.292 464.494 442.87C465.033 441.137 464.049 439.615 463.932 437.858C463.839 436.5 461.754 436.055 461.426 437.53Z" fill="#FEFEFE"/>
<path d="M426.132 251.412C423.064 260.453 417.912 272.467 423.111 281.507C426.554 287.549 434.282 286.542 437.936 281.507C443.931 273.24 439.177 260.054 436.25 251.412C434.587 246.377 427.842 246.424 426.132 251.412Z" fill="#FEFEFE"/>
<path d="M429.037 218.601C425.126 229.655 427.397 238.953 429.599 250.124C431.941 261.998 433.135 277.385 441.356 286.636C444.025 289.657 448.803 288.51 450.77 285.418C457.258 275.324 452.55 264.434 449.318 253.848C445.407 241.061 438.006 230.803 433.369 218.601C432.573 216.493 429.81 216.423 429.037 218.601Z" fill="#FEFEFE"/>
<path d="M514.73 303.522C511.288 306.683 508.688 310.501 506.252 314.459C503.676 318.581 500.21 323.288 498.852 327.972C497.54 332.398 502.763 336.59 506.768 334.038C515.105 328.745 515.55 316.051 521.1 308.44C523.934 304.575 517.986 300.571 514.73 303.522Z" fill="#FEFEFE"/>
<path d="M519.297 298.182C514.589 304.786 512.224 310.829 509.952 318.557C508.149 324.74 505.76 334.366 510.069 339.986C511.006 341.181 512.107 341.766 513.629 341.438C528.595 338.253 526.065 310.876 525.995 300.009C525.972 296.191 521.288 295.372 519.297 298.182Z" fill="#FEFEFE"/>
<path d="M516.744 304.482C515.433 310.15 514.262 317.222 515.573 322.984C516.815 328.44 517.798 335.701 522.623 339.12C523.325 339.612 524.66 339.659 525.363 339.12C535.223 331.579 525.995 315.068 524.988 305.606C524.543 301.18 517.892 299.54 516.744 304.482Z" fill="#FEFEFE"/>
<path d="M458.194 22.4831C455.688 29.2046 450.536 35.7153 453.042 43.2097C454.447 47.355 461.051 49.252 463.23 44.5446C466.438 37.6592 464.916 29.673 463.393 22.4831C462.808 19.6493 459.037 20.1879 458.194 22.4831Z" fill="#FEFEFE"/>
<path d="M459.506 31.1953C458.241 37.4016 457.515 48.3621 463.745 52.2029C464.588 52.7416 465.572 52.5074 466.274 51.875C472.036 46.8398 465.736 38.0339 465.408 31.9916C465.22 28.7596 460.209 27.7291 459.506 31.1953Z" fill="#FEFEFE"/>
<path d="M745.439 252.677C747.079 251.576 748.765 250.663 750.615 249.984C752.489 249.305 754.409 248.766 755.861 247.337C756.447 246.728 756.33 245.674 755.58 245.276C751.599 243.051 746.306 246.283 743.097 248.649C740.732 250.405 742.91 254.387 745.439 252.677Z" fill="#FEFEFE"/>
<path d="M733.425 240.475C734.947 239.726 736.423 238.789 737.078 237.173C737.453 236.19 736.305 235.159 735.369 235.464C734.151 235.862 733.237 236.728 732.043 237.197C729.607 238.157 731.106 241.67 733.425 240.475Z" fill="#FEFEFE"/>
<path d="M706.586 258.298C708.506 257.221 710.755 257.619 712.745 256.705C714.432 255.933 713.823 253.427 712.254 252.982C709.303 252.139 706.937 254.317 704.853 256.05C703.565 257.127 705.204 259.071 706.586 258.298Z" fill="#FEFEFE"/>
<path d="M713.05 269.071C714.127 268.251 715.181 267.689 716.516 267.361C717.734 267.08 719.139 266.916 720.193 266.19C721.2 265.488 721.598 263.544 720.193 262.935C716.797 261.483 713.331 264.176 711.176 266.635C710.099 267.877 711.551 270.148 713.05 269.071Z" fill="#FEFEFE"/>
<path d="M749.374 237.29L749.561 236.939C749.14 237.126 748.742 237.29 748.32 237.454C749.397 237.665 750.545 236.892 751.435 236.377C752.114 235.979 754.105 236.236 755.135 235.885C757.266 235.136 757.43 232.677 755.721 231.388C752.395 228.883 746.915 231.552 747.009 235.674C747.032 236.307 747.336 236.986 747.922 237.267L748.062 237.337C747.875 237.033 747.711 236.705 747.524 236.4L747.547 236.798C747.617 237.712 748.859 238.204 749.374 237.29Z" fill="#FEFEFE"/>
<path d="M728.624 254.223C729.607 253.45 730.802 252.982 731.879 252.396C732.465 252.092 732.816 251.436 732.816 250.78C732.816 250.429 732.722 250.148 732.558 249.843C732.277 249.305 731.551 248.86 730.942 248.906C728.858 249.094 727.312 250.007 725.766 251.366C723.776 253.122 726.633 255.815 728.624 254.223Z" fill="#FEFEFE"/>
<path d="M655.203 283.568C656.982 282.655 658.903 281.882 660.8 281.203C662.533 280.594 664.969 280.758 666.186 279.235C666.561 278.767 666.725 277.994 666.186 277.549C664.313 276.003 661.901 277.128 659.91 277.924C657.591 278.861 655.741 280.242 653.914 281.929C653.001 282.772 654.172 284.107 655.203 283.568Z" fill="#FEFEFE"/>
<path d="M672.252 286.706C676.023 285.137 680.075 284.06 683.002 281.132C683.564 280.594 683.143 279.704 682.393 279.657C678.388 279.493 674.875 281.39 671.198 282.889C668.857 283.826 669.91 287.69 672.252 286.706Z" fill="#FEFEFE"/>
<path d="M678.575 271.366C679.325 270.734 680.121 270.312 681.081 270.031C682.182 269.703 683.353 269.914 684.313 269.188C685.18 268.532 685.484 267.385 684.665 266.542C682.205 263.989 677.639 266.518 675.554 268.345C673.47 270.195 676.491 273.146 678.575 271.366Z" fill="#FEFEFE"/>
<path d="M694.126 278.252C694.759 278.205 695.415 278.181 696.047 278.135C696.82 278.111 697.288 277.643 697.92 277.291C698.717 276.893 698.717 275.629 697.92 275.23C697.476 274.996 697.054 274.598 696.539 274.458C695.789 274.247 694.899 274.317 694.126 274.27C691.574 274.13 691.574 278.392 694.126 278.252Z" fill="#FEFEFE"/>
<path d="M692.557 266.565C693.705 266.354 695.321 266.05 695.321 264.528C695.321 263.029 693.705 262.724 692.557 262.514C689.161 261.881 689.161 267.174 692.557 266.565Z" fill="#FEFEFE"/>
<path d="M687.053 254.715C687.896 253.544 690.051 252.607 691.363 252.115C693.049 251.506 695.227 251.225 696.445 249.773C697.171 248.906 697.124 247.642 696.093 247.009C693.869 245.675 691.058 246.775 688.927 247.759C686.444 248.93 685.18 250.593 684.149 253.005C683.283 254.996 685.765 256.518 687.053 254.715Z" fill="#FEFEFE"/>
<path d="M658.177 263.567C659.489 263.169 660.823 262.841 662.182 262.537C663.353 262.279 664.852 261.858 665.859 261.179C666.538 260.71 666.585 259.446 665.601 259.258C662.838 258.743 659.746 260.265 657.264 261.366C655.999 261.905 656.912 263.942 658.177 263.567Z" fill="#FEFEFE"/>
<path d="M707.546 245.393C708.881 245.042 710.263 244.784 711.644 244.691C713.143 244.621 714.619 244.503 715.79 243.543C716.703 242.794 716.422 241.506 715.79 240.733C714.783 239.445 712.628 239.281 711.106 239.445C709.162 239.656 707.476 240.241 705.766 241.225C703.518 242.513 705.04 246.096 707.546 245.393Z" fill="#FEFEFE"/>
<path d="M763.215 239.796C764.105 240.101 765.112 240.78 766.002 240.944C767.196 241.178 768.414 241.389 769.608 241.506C771.974 241.74 774.691 240.92 776.049 238.976C776.728 237.969 776.213 236.564 775.253 235.955C771.576 233.637 766.728 236.869 763.215 238.063C762.372 238.368 762.372 239.515 763.215 239.796Z" fill="#FEFEFE"/>
<path d="M790.312 231.459C791.389 230.92 792.513 230.639 793.731 230.545C794.926 230.475 796.401 230.498 797.385 229.749C798.087 229.234 798.602 228.227 798.017 227.384C795.815 224.269 790.64 225.768 787.806 227.196C784.972 228.648 787.478 232.911 790.312 231.459Z" fill="#FEFEFE"/>
<path d="M771.997 229.866C772.466 229.843 773.004 229.89 773.473 229.749C773.918 229.632 774.199 229.281 774.597 229.07C775.206 228.789 775.206 227.735 774.597 227.454C774.199 227.267 773.918 226.892 773.473 226.775C773.004 226.658 772.466 226.681 771.997 226.658C769.913 226.517 769.913 230.007 771.997 229.866Z" fill="#FEFEFE"/>
<path d="M621.103 298.439C623.398 299.962 626.42 299.821 629.043 299.376C631.267 298.978 635.132 298.416 635.132 295.465C635.132 289.868 622.883 295.044 620.916 296.917C620.424 297.362 620.588 298.112 621.103 298.439Z" fill="#FEFEFE"/>
<path d="M613.07 284.692C616.654 284.669 621.08 284.294 623.633 281.507C624.499 280.57 623.867 279.235 622.673 279.142C619.3 278.884 615.834 280.242 612.532 280.711C610.213 281.039 610.846 284.692 613.07 284.692Z" fill="#FEFEFE"/>
<path d="M641.994 280.43C643.282 279.68 644.851 279.306 645.905 278.181C646.326 277.736 646.42 276.917 645.905 276.495C644.265 275.043 642.087 275.441 640.167 276.12C636.888 277.291 639.066 282.139 641.994 280.43Z" fill="#FEFEFE"/>
<path d="M630.167 272.818C632.064 271.928 634.429 272.233 636.162 271.062C636.888 270.57 637.123 269.539 636.443 268.884C634.172 266.682 630.471 267.947 627.965 269.048C625.413 270.172 627.614 273.966 630.167 272.818Z" fill="#FEFEFE"/>
<path d="M645.108 298.439C646.233 297.877 647.404 297.62 648.645 297.573C650.144 297.503 651.338 297.526 652.556 296.542C653.071 296.121 653.118 295.231 652.79 294.692C650.823 291.484 645.483 293.17 642.884 294.622C640.378 296.027 642.579 299.728 645.108 298.439Z" fill="#FEFEFE"/>
<path d="M591.43 310.665C593.374 309.634 595.435 308.721 597.519 308.042C599.393 307.456 601.454 307.41 603.093 306.262C603.89 305.723 604.1 304.365 603.093 303.873C598.714 301.718 592.789 305.419 589.58 308.253C588.222 309.447 589.955 311.438 591.43 310.665Z" fill="#FEFEFE"/>
<path d="M595.716 319.19C597.215 318.44 598.831 317.878 600.423 317.41C602.039 316.941 603.889 316.965 605.318 316.028C606.231 315.419 606.442 313.85 605.318 313.311C601.735 311.531 596.348 314.061 593.842 316.777C592.624 318.089 594.147 319.962 595.716 319.19Z" fill="#FEFEFE"/>
<path d="M592.812 299.447C594.475 298.463 596.911 298.697 598.105 297.128C598.363 296.777 598.269 296.285 598.105 295.934C596.887 293.217 592.508 294.763 590.658 295.746C588.222 297.034 590.423 300.852 592.812 299.447Z" fill="#FEFEFE"/>
<path d="M603.093 294.622V294.669C602.508 295.653 603.093 296.73 604.077 297.105C604.405 297.222 605.318 297.503 604.358 297.034C605.037 297.386 605.646 297.269 606.349 297.198C607.707 297.058 609.815 296.73 610.705 295.606C611.407 294.692 611.29 293.685 610.353 292.983C609.276 292.163 607.801 292.585 606.559 292.819C605.951 292.913 605.388 293.217 604.826 293.451C604.499 293.545 604.218 293.709 603.96 293.943C603.164 294.763 604.124 293.873 604.522 293.826C605.061 294.388 605.623 294.95 606.185 295.489V295.465C606.302 293.779 603.89 293.287 603.093 294.622Z" fill="#FEFEFE"/>
<path d="M586.114 287.198C588.901 285.301 592.063 284.716 595.177 283.568C596.021 283.264 596.138 282.022 595.177 281.765C591.407 280.734 587.636 282.35 584.545 284.528C582.952 285.676 584.451 288.322 586.114 287.198Z" fill="#FEFEFE"/>
<path d="M566.629 304.693C567.659 304.341 568.69 303.92 569.673 303.404C570.563 302.936 570.868 302.163 571.336 301.344C571.805 300.524 571.032 299.493 570.118 299.751C569.486 299.915 568.947 299.821 568.338 300.079C567.448 300.477 566.582 300.852 565.645 301.156C563.373 301.882 564.381 305.465 566.629 304.693Z" fill="#FEFEFE"/>
<path d="M563.982 321.789C565.996 320.712 568.783 320.595 570.47 319.002C571.266 318.253 570.985 317.035 570.142 316.473C567.659 314.787 563.982 316.66 561.898 318.206C559.79 319.775 561.57 323.054 563.982 321.789Z" fill="#FEFEFE"/>
<path d="M479.038 351.298C481.076 349.589 483.886 349.191 485.807 347.411C486.298 346.942 486.181 346.076 485.596 345.748C482.458 344.015 478.593 346.474 476.158 348.441C474.144 350.057 477.024 352.961 479.038 351.298Z" fill="#FEFEFE"/>
<path d="M481.825 339.869C483.605 338.535 485.713 337.879 487.586 336.684C488.219 336.286 488.031 335.49 487.399 335.232C484.799 334.155 482.176 335.139 479.787 336.38C477.422 337.621 479.764 341.439 481.825 339.869Z" fill="#FEFEFE"/>
<path d="M540.328 331.087C541.546 330.548 542.857 330.22 544.122 329.846C545.457 329.447 546.675 329.307 547.728 328.253C548.267 327.714 548.08 326.918 547.494 326.496C544.942 324.67 540.89 326.684 538.595 328.112C536.651 329.307 538.337 331.953 540.328 331.087Z" fill="#FEFEFE"/>
<path d="M536.229 320.15C536.792 318.932 537.799 318.229 538.946 317.574C540.586 316.613 539.977 313.686 537.939 313.85C535.316 314.061 533.255 315.302 532.037 317.691C530.562 320.525 534.941 322.984 536.229 320.15Z" fill="#FEFEFE"/>
<path d="M537.845 300.665C538.782 299.447 540.281 299.587 541.616 299.33C543.607 298.931 543.185 296.332 541.616 295.723C538.899 294.669 535.925 296.402 534.684 298.814C533.56 300.946 536.44 302.515 537.845 300.665Z" fill="#FEFEFE"/>
<path d="M549.602 315.559C551.851 315.068 554.708 315.161 556.488 313.569C557.05 313.077 557.073 312 556.488 311.484C554.099 309.447 550.563 310.641 548.033 311.859C545.879 312.889 547.471 316.004 549.602 315.559Z" fill="#FEFEFE"/>
<path d="M557.073 297.456C558.432 296.988 559.79 296.566 561.148 296.144C562.46 295.746 563.397 294.973 564.568 294.294C565.575 293.732 565.083 292.233 564.006 292.21C562.6 292.163 561.453 291.999 560.071 292.304C558.689 292.608 557.331 293.076 555.973 293.475C553.443 294.247 554.567 298.299 557.073 297.456Z" fill="#FEFEFE"/>
<path d="M578.034 313.779C578.83 312.89 580.025 313.147 580.797 312.257C581.032 311.976 581.242 311.531 581.078 311.156C580.048 308.674 577.003 309.868 575.551 311.274C573.912 312.89 576.535 315.466 578.034 313.779Z" fill="#FEFEFE"/>
<path d="M541.639 346.708C542.857 345.677 544.192 344.834 545.621 344.132C547.073 343.429 548.712 343.265 549.93 342.211C550.679 341.579 550.211 340.408 549.391 340.127C547.729 339.588 546.019 340.431 544.52 341.087C542.623 341.907 540.937 343.125 539.414 344.483C537.892 345.841 540.117 348.019 541.639 346.708Z" fill="#FEFEFE"/>
<path d="M568.034 334.717C569.135 333.804 570.306 333.078 571.547 332.422C572.835 331.766 574.732 330.9 575.341 329.541C575.786 328.581 575.669 327.34 574.615 326.778C571.219 324.998 566.629 328.745 564.216 330.876C561.593 333.242 565.387 336.872 568.034 334.717Z" fill="#FEFEFE"/>
<path d="M322.289 435.68C324.561 434.813 326.809 433.9 328.964 432.776C330.72 431.886 333.343 431.371 333.835 429.146C333.929 428.701 333.858 428.162 333.484 427.834C331.727 426.359 329.854 427.319 328.027 428.186C325.474 429.403 323.319 431.09 321.048 432.729C319.689 433.736 320.462 436.406 322.289 435.68Z" fill="#0082C2"/>
<path d="M318.167 448.983C319.853 448.467 321.633 448.233 323.343 447.788C325.193 447.32 327.559 446.5 326.973 444.088C326.388 441.629 322.687 441.582 320.79 442.121C318.589 442.753 317.113 444.064 315.755 445.844C314.584 447.39 316.504 449.498 318.167 448.983Z" fill="#0082C2"/>
<path d="M288.049 460.552C289.267 458.959 290.953 457.695 292.592 456.594C294.208 455.517 296.433 454.72 297.37 452.894C297.721 452.215 297.44 451.207 296.597 451.043C294.232 450.528 291.89 452.121 290.04 453.409C287.955 454.838 286.363 456.641 285.262 458.913C284.348 460.81 286.808 462.191 288.049 460.552Z" fill="#0082C2"/>
<path d="M290.063 444.837C291.539 443.807 293.225 443.127 294.888 442.518C296.597 441.91 298.471 441.582 300.017 440.551C301.352 439.638 301.843 437.085 300.017 436.312C295.145 434.251 290.321 437.507 287.019 440.879C285.075 442.87 287.651 446.5 290.063 444.837Z" fill="#0082C2"/>
<path d="M302.663 448.467C303.857 448.467 304.279 448.28 305.263 447.741C305.871 447.413 305.871 446.453 305.263 446.125C304.279 445.587 303.857 445.399 302.663 445.399C300.672 445.399 300.672 448.467 302.663 448.467Z" fill="#0082C2"/>
<path d="M308.073 461.395C308.682 459.521 310.579 459.92 311.984 458.913C312.781 458.35 313.015 457.273 312.289 456.5C310.954 455.119 308.846 455.259 307.207 456.009C305.403 456.828 304.303 458.35 303.67 460.177C302.687 462.964 307.16 464.205 308.073 461.395Z" fill="#0082C2"/>
<path d="M314.583 471.653C316.106 470.248 318.331 470.669 319.759 469.358C320.345 468.819 320.368 467.718 319.759 467.18C317.37 465.072 313.389 467.39 311.82 469.498C310.555 471.184 313.178 472.941 314.583 471.653Z" fill="#0082C2"/>
<path d="M325.544 458.655C326.738 458.959 328.12 459.03 329.08 458.069C329.97 457.203 330.275 455.751 329.596 454.697C329.174 453.994 328.214 453.666 327.488 454.135C327.09 454.393 326.809 454.72 326.434 455.025C326.902 454.837 327.371 454.65 327.839 454.439C327.394 454.463 327.16 454.533 326.715 454.393C323.975 453.596 322.78 457.999 325.544 458.655Z" fill="#0082C2"/>
<path d="M333.086 445.352C333.648 444.603 334.327 444.252 334.608 443.292C334.327 443.666 334.022 444.041 333.741 444.416C334.186 444.111 334.514 443.83 334.819 443.385C335.217 442.847 335.006 442.097 334.608 441.652C333.179 440.13 331.142 440.762 329.854 442.121C327.746 444.275 331.306 447.624 333.086 445.352Z" fill="#0082C2"/>
<path d="M292.991 472.028C293.131 471.068 293.342 470.599 294.255 470.295C295.52 469.85 296.176 468.468 295.473 467.297C294.981 466.454 294.091 466.196 293.178 466.36C290.906 466.758 289.267 468.679 288.869 470.904C288.377 473.62 292.616 474.721 292.991 472.028Z" fill="#0082C2"/>
<path d="M265.917 474.182C268.212 471.957 271.233 471.161 273.622 469.077C274.138 468.632 274.044 467.554 273.388 467.25C269.43 465.47 265.449 468.21 262.615 470.88C260.437 472.941 263.763 476.267 265.917 474.182Z" fill="#0082C2"/>
<path d="M260.461 460.364C263.084 459.404 265.73 458.514 268.306 457.484C270.273 456.664 273.06 456.102 274.067 454.065C274.395 453.409 274.302 452.425 273.529 452.074C271.421 451.09 269.454 452.121 267.416 452.987C264.559 454.182 261.842 455.704 259.102 457.133C257.369 458.069 258.587 461.067 260.461 460.364Z" fill="#0082C2"/>
<path d="M226.947 472.168C230.389 473.878 236.385 473.995 238.048 469.756C238.422 468.819 237.485 467.695 236.525 467.742C235.284 467.812 234.23 468.468 233.012 468.772C231.631 469.124 230.389 469.217 229.031 468.608C226.666 467.531 224.558 470.974 226.947 472.168Z" fill="#0082C2"/>
<path d="M242.708 456.898C244.441 455.774 246.244 454.791 248.165 454.018C249.594 453.432 251.373 452.987 252.287 451.676C252.544 451.278 252.38 450.598 251.936 450.388C250.273 449.591 248.282 450.435 246.666 451.09C244.699 451.887 242.825 452.894 241.022 454.041C239.242 455.189 240.905 458.046 242.708 456.898Z" fill="#0082C2"/>
<path d="M277.393 440.903C278.095 439.942 279.384 439.872 280.414 439.521C282.264 438.889 282.85 436.265 280.976 435.235C277.697 433.385 274.489 435.376 272.475 438.022C271.515 439.263 272.287 441.207 273.505 441.933C274.934 442.776 276.48 442.144 277.393 440.903Z" fill="#0082C2"/>
<path d="M796.003 469.217C797.01 467.25 798.275 465.517 799.774 463.901C801.155 462.426 803.263 461.208 804.13 459.358C804.528 458.514 804.083 457.156 802.935 457.273C800.687 457.531 799.048 459.24 797.525 460.763C795.628 462.683 793.989 464.908 792.771 467.32C791.694 469.475 794.926 471.372 796.003 469.217Z" fill="#F3FFF8"/>
<path d="M809.703 467.554C810.945 466.571 812.467 465.587 813.333 464.182C814.223 462.753 815.23 460.458 813.263 459.334C809.727 457.25 807.151 463.175 806.307 465.587C805.581 467.718 808.275 468.679 809.703 467.554Z" fill="#F3FFF8"/>
<path d="M806.823 448.397C810.125 447.39 814.012 445.516 814.13 441.605C814.176 440.575 813.076 439.732 812.092 440.036C809.703 440.809 807.783 442.448 805.417 443.338C802.302 444.486 803.544 449.381 806.823 448.397Z" fill="#F3FFF8"/>
<path d="M791.366 450.763C791.577 449.381 791.998 448.046 792.865 446.945C793.919 445.61 795.254 444.673 795.909 443.081C796.214 442.331 795.581 441.277 794.809 441.137C790.359 440.364 787.314 445.798 786.752 449.498C786.565 450.786 787.057 452.074 788.415 452.449C789.563 452.753 791.179 452.074 791.366 450.763Z" fill="#F3FFF8"/>
<path d="M803.497 429.24C803.989 427.764 804.902 426.546 806.19 425.656C807.525 424.79 809.329 424.72 810.383 423.455C810.992 422.729 810.968 421.628 810.078 421.09C808.041 419.872 805.511 421.3 803.848 422.612C802.022 424.087 800.781 426.078 800.242 428.35C799.703 430.481 802.795 431.301 803.497 429.24Z" fill="#F3FFF8"/>
<path d="M723.261 461.137C724.525 459.568 725.93 458.28 727.663 457.25C729.303 456.266 731.036 455.657 732.301 454.182C732.91 453.479 732.675 452.472 731.785 452.168C727.265 450.622 722.535 455.446 720.146 458.725C718.811 460.552 721.855 462.871 723.261 461.137Z" fill="#F3FFF8"/>
<path d="M748.718 436.266C750.264 435.188 751.856 434.158 753.472 433.174C754.948 432.261 756.962 431.465 757.711 429.802C758.18 428.771 757.922 427.062 756.517 426.874C754.55 426.617 753.121 427.507 751.482 428.514C749.678 429.614 747.922 430.785 746.212 432.003C743.636 433.807 746.072 438.092 748.718 436.266Z" fill="#F3FFF8"/>
<path d="M701.246 453.315C702.019 451.746 703.049 450.575 704.525 449.638C705.977 448.725 707.663 447.976 708.858 446.734C709.56 446.032 709.162 445.001 708.319 444.673C703.565 442.847 699.092 447.858 697.476 451.723C696.562 453.877 700.192 455.376 701.246 453.315Z" fill="#F3FFF8"/>
<path d="M724.127 435.446C725.486 433.619 728.038 432.495 728.835 430.317C729.162 429.403 728.46 428.537 727.64 428.232C726.469 427.811 724.291 428.35 723.284 429.099C721.832 430.176 720.661 431.347 719.584 432.799C718.741 433.947 719.396 435.727 720.544 436.406C721.879 437.179 723.284 436.593 724.127 435.446Z" fill="#F3FFF8"/>
<path d="M663.985 458.397C664.828 457.531 665.671 456.664 666.514 455.798C666.936 455.376 667.357 454.767 667.521 454.205C667.638 453.76 667.638 453.315 667.521 452.87C667.638 453.315 667.732 453.245 667.802 452.66C668.154 451.606 667.053 450.505 665.999 450.856C664.594 451.325 666.889 451.044 665.109 451.044C664.43 451.044 663.915 451.348 663.376 451.723C662.252 452.566 661.268 453.69 660.261 454.674C657.849 457.039 661.619 460.81 663.985 458.397Z" fill="#F3FFF8"/>
<path d="M678.131 438.233C682.042 438.233 682.042 432.167 678.131 432.167C674.219 432.167 674.219 438.233 678.131 438.233Z" fill="#F3FFF8"/>
<path d="M678.786 458.187C678.646 457.25 678.739 456.383 679.395 455.657C680.051 454.978 680.777 454.51 681.058 453.549C681.175 453.175 680.987 452.823 680.683 452.613C679.254 451.629 677.498 452.636 676.514 453.784C675.367 455.142 675.062 456.922 675.273 458.655C675.578 461.255 679.231 460.763 678.786 458.187Z" fill="#F3FFF8"/>
<path d="M828.791 448.397C828.533 447.226 828.439 445.891 828.931 444.744C829.517 443.385 830.875 442.425 831.156 440.95C831.297 440.106 830.922 439.193 830.032 438.982C827.667 438.397 825.746 440.387 824.763 442.284C823.545 444.603 823.545 447.226 824.013 449.732C824.599 452.847 829.423 451.535 828.791 448.397Z" fill="#F3FFF8"/>
<path d="M830.383 422.143C830.734 420.996 831.695 420.223 832.725 419.637C835.652 417.951 833.568 413.946 830.547 414.462C827.338 415.024 825.207 417.389 824.528 420.527C823.708 424.345 829.259 425.914 830.383 422.143Z" fill="#F3FFF8"/>
<path d="M927.107 426.476C928.161 425.071 929.332 423.806 930.62 422.635C932.026 421.347 933.29 420.153 933.314 418.138C933.314 417.6 932.916 416.944 932.353 416.874C928.138 416.218 925.609 421.558 924.063 424.696C923.056 426.78 925.772 428.279 927.107 426.476Z" fill="#F3FFF8"/>
<path d="M936.733 431.394C938.162 430.223 940.316 430.012 940.972 428.139C941.16 427.647 940.949 426.991 940.574 426.617C938.536 424.649 935.351 426.898 933.665 428.326C931.487 430.129 934.602 433.174 936.733 431.394Z" fill="#F3FFF8"/>
<path d="M945.422 407.459C945.422 406.663 945.375 405.937 945.258 405.141C944.906 402.564 940.41 402.564 940.058 405.141C939.941 405.937 939.895 406.663 939.895 407.459C939.895 411.042 945.422 411.042 945.422 407.459Z" fill="#F3FFF8"/>
<path d="M922.821 450.481C922.564 449.662 922.892 450.107 922.236 450.926C922.493 450.622 922.774 450.388 922.938 450.013C923.266 449.24 923.313 448.373 922.657 447.741C921.533 446.687 920.198 446.828 918.957 447.577C917.411 448.537 917.364 450.317 917.692 451.91C918.395 455.259 923.899 453.784 922.821 450.481Z" fill="#F3FFF8"/>
<path d="M866.988 445.47C867.55 444.181 868.464 443.151 868.979 441.863C869.33 440.973 868.183 440.364 867.48 440.715C866.192 441.371 865.372 442.87 864.717 444.135C863.944 445.657 866.333 446.992 866.988 445.47Z" fill="#F3FFF8"/>
<path d="M863.569 429.333C863.897 428.537 864.717 428.209 865.044 427.436C865.372 426.734 865.326 425.703 864.506 425.328C862.468 424.415 860.712 425.984 859.822 427.764C858.464 430.411 862.515 432.144 863.569 429.333Z" fill="#F3FFF8"/>
<path d="M1017.27 456.149C1019.64 454.744 1022.87 454.72 1024.93 452.917C1026.13 451.863 1025.68 449.919 1024.44 449.147C1022.78 448.093 1020.08 448.467 1018.44 449.451C1016.73 450.458 1015.59 451.723 1014.51 453.386C1013.39 455.095 1015.59 457.156 1017.27 456.149Z" fill="#F3FFF8"/>
<path d="M1036.78 462.519C1036.97 461.325 1037.32 460.271 1038.12 459.357C1039.08 458.233 1040.37 457.601 1041.02 456.219C1041.47 455.306 1041.07 454.369 1040.13 454.018C1036.06 452.519 1032.59 457.859 1032.01 461.208C1031.47 464.346 1036.31 465.634 1036.78 462.519Z" fill="#F3FFF8"/>
<path d="M1040.13 437.694C1039.78 436.64 1039.9 438.092 1040.06 437.343C1040.13 436.992 1040.27 436.64 1040.27 436.266C1040.27 435.165 1039.31 434.533 1038.35 434.345C1035.42 433.736 1034.58 436.851 1035.05 439.099C1035.78 442.402 1041.16 440.95 1040.13 437.694Z" fill="#F3FFF8"/>
<path d="M1069.27 412.447C1066.78 415.515 1064.72 420.785 1067.91 424.064C1068.4 424.579 1069.13 424.275 1069.36 423.689C1070.46 420.785 1069.88 417.811 1072.05 415.258C1073.74 413.314 1070.86 410.48 1069.27 412.447Z" fill="#F3FFF8"/>
<path d="M1076.32 436.828C1075.54 439.076 1074.91 441.254 1075.24 443.643C1075.52 445.68 1078.42 445.282 1078.96 443.643C1079.59 441.769 1079.57 439.755 1079.92 437.835C1080.39 435.469 1077.11 434.532 1076.32 436.828Z" fill="#F3FFF8"/>
<path d="M1089.88 396.639C1088.77 399.215 1087.02 404.368 1089.71 406.546C1090.63 407.295 1091.7 407.155 1092.4 406.194C1093.15 405.211 1093.15 403.782 1093.2 402.588C1093.27 401.393 1093.62 400.175 1094.09 399.098C1094.63 397.88 1094.47 396.475 1093.22 395.749C1092.19 395.14 1090.41 395.421 1089.88 396.639Z" fill="#F3FFF8"/>
<path d="M1101.52 429.872C1101.59 433.104 1101.05 437.179 1102.57 440.153C1103.01 441.02 1104.44 441.02 1104.89 440.153C1106.39 437.179 1105.87 433.104 1105.94 429.872C1106.01 427.015 1101.45 427.015 1101.52 429.872Z" fill="#F3FFF8"/>
<path d="M1087.86 441.465C1090.13 443.549 1088.4 447.273 1089.9 449.662C1090.23 450.2 1090.98 450.458 1091.54 450.107C1093.51 448.842 1093.65 446.383 1093.27 444.275C1092.85 441.91 1091.33 440.622 1089.45 439.404C1088.21 438.584 1086.76 440.458 1087.86 441.465Z" fill="#F3FFF8"/>
<path d="M1073.6 454.393C1073.5 455.657 1073.34 456.969 1073.43 458.233C1073.53 459.685 1074.11 460.646 1075.12 461.676C1075.59 462.145 1076.39 462.145 1076.85 461.676C1077.67 460.856 1078.33 460.037 1078.47 458.866C1078.68 457.367 1078.49 455.891 1078.4 454.393C1078.19 451.301 1073.79 451.301 1073.6 454.393Z" fill="#F3FFF8"/>
<path d="M1058.05 452.191C1056.62 454.041 1055.87 456.032 1055.61 458.351C1055.4 460.412 1056.1 463.362 1058.12 464.323C1058.94 464.721 1060.32 464.463 1060.48 463.362C1060.69 461.957 1060.16 460.88 1060.02 459.498C1059.83 457.812 1060.55 456.196 1061.58 454.931C1063.62 452.379 1060.04 449.615 1058.05 452.191Z" fill="#F3FFF8"/>
<path d="M1103.48 451.606C1102.5 454.299 1102.24 457.601 1103.93 460.084C1104.44 460.856 1105.36 461.582 1106.36 461.489L1106.15 461.442C1107.02 461.606 1108.14 461.372 1108.54 460.458C1108.21 460.833 1108.28 460.716 1108.8 460.084C1109.06 459.639 1109.2 459.17 1109.2 458.655C1109.13 457.976 1109.15 457.18 1108.96 456.524C1108.56 455.142 1108.4 453.69 1108.33 452.261C1108.21 449.404 1104.4 449.006 1103.48 451.606Z" fill="#F3FFF8"/>
<path d="M1112.8 452.261C1112.92 454.065 1113.39 455.681 1114.19 457.297C1114.96 458.795 1116.86 460.903 1118.66 460.692C1119.81 460.552 1120.63 459.873 1120.67 458.655C1120.74 457.32 1119.88 456.571 1119.24 455.493C1118.66 454.486 1118.21 453.409 1118.12 452.261C1117.86 448.865 1112.55 448.842 1112.8 452.261Z" fill="#F3FFF8"/>
<path d="M1113.6 426.921C1112.8 431.488 1113.37 439.451 1119.17 440.411C1120.42 440.622 1121.91 439.872 1121.82 438.397C1121.7 436.43 1120.88 434.814 1120.13 433.01C1119.41 431.324 1119.38 429.521 1119.57 427.741C1119.9 424.321 1114.19 423.549 1113.6 426.921Z" fill="#F3FFF8"/>
<path d="M1110.67 399.075C1109.97 400.457 1110.23 402.33 1110.23 403.852C1110.2 405.867 1109.55 407.623 1110.67 409.45C1111.16 410.27 1112.34 410.668 1113.18 410.129C1115.38 408.7 1115.45 406.265 1115.45 403.852C1115.45 402.096 1115.01 399.239 1113.18 398.419C1112.34 398.021 1111.14 398.115 1110.67 399.075Z" fill="#F3FFF8"/>
<path d="M1126.83 406.007C1124.91 410.012 1124.23 417.296 1129.97 418.584C1130.88 418.794 1132.05 418.139 1131.96 417.061C1131.7 414.11 1130.39 411.815 1131.82 408.911C1133.46 405.586 1128.42 402.658 1126.83 406.007Z" fill="#F3FFF8"/>
<path d="M1142.85 424.532C1142.71 429.146 1143.32 436.148 1147.61 438.889C1148.73 439.591 1150.39 438.678 1150.32 437.319C1150.23 435.376 1149.36 433.642 1148.73 431.792C1147.93 429.45 1147.75 426.991 1147.79 424.532C1147.89 421.324 1142.95 421.347 1142.85 424.532Z" fill="#F3FFF8"/>
<path d="M1135.01 438.42C1133.06 442.753 1134.61 448.655 1139.99 449.24C1141 449.334 1141.42 448.116 1141.07 447.367C1139.81 444.744 1137.56 443.104 1138.78 440.013C1139.64 437.835 1135.97 436.289 1135.01 438.42Z" fill="#F3FFF8"/>
<path d="M1137.65 459.311C1138.38 461.114 1139.36 462.66 1140.98 463.807C1142.48 464.861 1145.26 466.009 1146.72 464.299C1147.14 463.807 1147.47 463.081 1147.21 462.402C1146.65 460.88 1145.47 460.669 1144.14 459.99C1143.09 459.451 1142.55 458.468 1142.1 457.437C1141.02 454.908 1136.6 456.758 1137.65 459.311Z" fill="#F3FFF8"/>
<path d="M1157.65 455.938C1159.34 457.742 1161.59 460.599 1164.14 461.138C1165.15 461.348 1166.32 460.458 1165.94 459.334C1165.08 456.852 1162.41 454.814 1160.72 452.87C1158.92 450.739 1155.71 453.877 1157.65 455.938Z" fill="#F3FFF8"/>
<path d="M1184.75 425.001C1184.09 429.427 1184.98 439.029 1190.77 439.942C1191.89 440.13 1192.67 439.521 1192.81 438.397C1193.04 436.383 1191.82 434.579 1190.96 432.846C1189.81 430.598 1189.27 428.092 1189.18 425.586C1189.08 423.174 1185.15 422.401 1184.75 425.001Z" fill="#F3FFF8"/>
<path d="M1207.58 451.886C1208.94 453.128 1210.09 454.791 1211.78 455.657C1212.83 456.196 1213.91 455.517 1213.98 454.392C1214.16 452.027 1212.55 450.036 1211.07 448.374C1208.94 445.985 1205.22 449.708 1207.58 451.886Z" fill="#F3FFF8"/>
<path d="M1207.89 430.223C1210.84 433.127 1214.49 436.476 1218.57 437.554C1219.53 437.811 1220.56 436.898 1220.23 435.914C1218.76 431.488 1213.91 429.521 1210.35 427.038C1208.43 425.703 1206.3 428.654 1207.89 430.223Z" fill="#F3FFF8"/>
<path d="M1231.75 448.163C1232.5 449.662 1233.77 451.418 1235.57 451.676C1236.51 451.816 1237.7 451.278 1237.61 450.13C1237.49 448.725 1236.72 447.577 1236.2 446.289C1234.92 442.987 1230.16 445.001 1231.75 448.163Z" fill="#F3FFF8"/>
<path d="M1246.41 436.921C1246.98 439.427 1248.55 443.877 1251.54 444.299C1252.64 444.439 1253.63 443.854 1253.67 442.659C1253.72 441.512 1253.09 440.317 1252.53 439.334C1251.85 438.163 1251.43 436.945 1251.17 435.61C1250.58 432.495 1245.71 433.783 1246.41 436.921Z" fill="#F3FFF8"/>
<path d="M1287.94 437.718C1287.38 441.277 1286.84 447.484 1290.49 449.638C1291.52 450.271 1293.02 449.709 1293.3 448.514C1293.65 447.086 1293.3 445.704 1293 444.299C1292.6 442.636 1292.6 440.762 1292.86 439.076C1293.04 437.694 1292.53 436.336 1291.08 435.938C1289.83 435.61 1288.15 436.336 1287.94 437.718Z" fill="#F3FFF8"/>
<path d="M1303.58 399.988C1303.65 402.143 1303.68 404.251 1304.33 406.335C1304.96 408.373 1307.82 408.373 1308.45 406.335C1309.11 404.251 1309.13 402.143 1309.2 399.988C1309.32 396.358 1303.46 396.358 1303.58 399.988Z" fill="#F3FFF8"/>
<path d="M1326.23 366.943C1325.97 369.776 1326.53 372.891 1329.23 374.39C1330.07 374.859 1331.05 374.273 1331.1 373.336C1331.17 371.439 1330.87 369.472 1331.24 367.598C1331.99 363.968 1326.58 363.219 1326.23 366.943Z" fill="#F3FFF8"/>
<path d="M1342.53 364.788C1342.34 368.207 1342.72 373.922 1346.18 375.655C1347.24 376.194 1348.29 375.514 1348.38 374.39C1348.55 372.728 1347.8 371.369 1347.35 369.777C1346.91 368.161 1346.91 366.474 1347.05 364.788C1347.26 361.908 1342.72 361.908 1342.53 364.788Z" fill="#F3FFF8"/>
<path d="M1324.19 329.963C1324.99 331.368 1325.83 332.937 1326.93 334.131C1327.75 335.021 1329.25 336.38 1330.47 336.567C1331.52 336.708 1332.65 336.146 1332.6 334.928C1332.58 333.78 1331.87 332.375 1331.38 331.368C1330.66 329.916 1329.79 328.558 1329.11 327.082C1327.61 323.803 1322.39 326.707 1324.19 329.963Z" fill="#F3FFF8"/>
<path d="M1327.17 446.804C1328.03 448.514 1328.66 451.067 1330.42 452.027C1330.87 452.261 1331.55 452.191 1331.76 451.699C1332.76 449.498 1331.29 446.922 1330.4 444.907C1329.46 442.729 1326.07 444.626 1327.17 446.804Z" fill="#F3FFF8"/>
<path d="M1316.37 452.261C1316.53 455.189 1316.93 459.03 1319.72 460.646C1320.44 461.044 1321.26 460.528 1321.31 459.732C1321.45 457.179 1320.09 454.791 1319.88 452.261C1319.7 450.013 1316.23 449.966 1316.37 452.261Z" fill="#F3FFF8"/>
<path d="M1303.56 461.278C1303.93 462.332 1304.1 463.386 1304.26 464.487C1304.35 465.049 1304.31 465.564 1304.59 466.079C1304.52 465.939 1305.57 467.18 1305.29 466.782C1305.71 467.391 1306.74 467.695 1307.28 467.039L1307.47 466.829C1308.1 466.501 1308.55 465.728 1308.52 465.002C1308.45 463.105 1307.89 461.489 1306.91 459.873C1305.85 458.14 1302.83 459.264 1303.56 461.278Z" fill="#F3FFF8"/>
<path d="M1308.92 438.397C1308.95 440.575 1308.48 443.573 1310.26 445.189C1311.12 445.961 1312.32 445.961 1313.18 445.189C1314.96 443.573 1314.5 440.575 1314.54 438.397C1314.61 434.767 1308.85 434.767 1308.92 438.397Z" fill="#F3FFF8"/>
<path d="M1279.15 463.55C1278.97 464.276 1278.64 464.627 1277.96 464.932C1276.67 465.494 1277.35 467.578 1278.66 467.508C1280.68 467.437 1281.82 466.337 1282.41 464.44C1283.07 462.355 1279.72 461.442 1279.15 463.55Z" fill="#F3FFF8"/>
<path d="M1267.66 450.528C1266.98 453.83 1266.72 458.538 1270.42 460.084C1271.47 460.529 1272.53 459.615 1272.86 458.725C1273.3 457.484 1273.04 456.149 1272.76 454.908C1272.5 453.69 1272.55 452.425 1272.67 451.207C1272.97 448.327 1268.24 447.718 1267.66 450.528Z" fill="#F3FFF8"/>
<path d="M1256.95 461.863C1257 464.416 1256.48 467.765 1258.73 469.498C1259.08 469.756 1259.81 469.756 1260.18 469.498C1262.43 467.765 1261.92 464.416 1261.96 461.863C1262.03 458.631 1256.88 458.631 1256.95 461.863Z" fill="#F3FFF8"/>
<path d="M1240.49 460.786C1240.07 464.299 1241.26 469.92 1245.59 470.131C1246.34 470.178 1247.28 469.545 1247.4 468.772C1247.75 466.243 1245.97 464.112 1246.32 461.582C1246.88 457.32 1241 456.524 1240.49 460.786Z" fill="#F3FFF8"/>
<path d="M1340.84 457.601C1340.96 461.442 1343.42 465.189 1347.56 465.236C1349.74 465.283 1350.82 462.543 1349.32 461.044C1348.34 460.06 1346.79 459.1 1346.6 457.601C1346.42 456.032 1345.43 454.72 1343.72 454.72C1342.18 454.72 1340.8 456.032 1340.84 457.601Z" fill="#F3FFF8"/>
<path d="M1352.32 448.139C1353.91 450.809 1355.48 453.456 1357.68 455.634C1359.67 457.601 1362.72 455.119 1361.45 452.73C1360 449.99 1357.99 447.671 1356.09 445.235C1354.38 443.034 1350.96 445.844 1352.32 448.139Z" fill="#F3FFF8"/>
<path d="M1176.13 464.791C1174.09 468.116 1175.22 471.957 1178.68 473.69C1179.53 474.112 1180.77 474.323 1181.61 473.69C1184.61 471.372 1181.52 468.116 1180.93 465.423C1180.42 463.128 1177.25 462.964 1176.13 464.791Z" fill="#F3FFF8"/>
<path d="M850.22 382.142C852.07 381.697 853.967 381.393 855.864 381.276C857.621 381.135 859.471 381.58 861.017 380.573C861.532 380.222 861.672 379.496 861.227 379.051C859.775 377.599 857.761 377.833 855.864 377.95C853.639 378.09 851.555 378.606 849.494 379.449C847.878 380.128 848.44 382.54 850.22 382.142Z" fill="#F3FFF8"/>
<path d="M747.219 326.145C748.624 324.412 750.381 323.265 752.512 322.632C753.941 322.211 757.032 321.321 755.861 319.236C754.69 317.082 751.107 318.932 749.725 319.845C747.875 321.063 746.399 322.773 745.392 324.74C744.83 325.864 746.329 327.223 747.219 326.145Z" fill="#F3FFF8"/>
<path d="M760.452 332.024C760.897 331.251 761.365 330.548 762.232 330.244C763.496 329.775 764.55 329.401 765.627 328.558C766.096 328.159 766.236 327.199 765.862 326.684C762.887 322.656 757.688 325.888 755.791 329.307C754.105 332.352 758.765 335.068 760.452 332.024Z" fill="#F3FFF8"/>
<path d="M773.004 319.939C773.73 319.26 774.948 319.119 775.815 318.581C776.869 317.972 777.22 316.637 776.611 315.606C774.831 312.562 770.943 314.131 768.859 315.794C765.955 318.112 770.171 322.468 773.004 319.939Z" fill="#F3FFF8"/>
<path d="M846.309 333.827C846.965 332.703 848.159 332.796 848.932 331.86C849.353 331.321 849.658 330.454 849.189 329.822C847.105 327.035 842.936 329.283 842.538 332.258C842.234 334.436 845.021 336.005 846.309 333.827Z" fill="#F3FFF8"/>
</svg>
