<svg width="279" height="153" viewBox="0 0 279 153" fill="none" xmlns="http://www.w3.org/2000/svg">
<path fill-rule="evenodd" clip-rule="evenodd" d="M98.034 54.0711V50.0929C92.4929 48.7939 87.5202 46.0741 83.6028 42.3395C82.3038 41.1217 81.147 39.8024 80.0915 38.3816L77.8994 42.0756C78.7722 43.1514 79.7059 44.1459 80.7004 45.0999C85.3687 49.5246 91.3563 52.7112 98.034 54.0711Z" fill="#FEFEFE"/>
<path fill-rule="evenodd" clip-rule="evenodd" d="M54.0713 43.476V47.5354C58.7599 46.277 62.9613 43.882 66.3103 40.675C68.8474 38.28 70.8974 35.4181 72.3182 32.2721C73.3939 35.0122 74.5712 37.5899 76.0326 39.579H76.0528C77.5345 37.5899 78.7118 35.0122 79.7672 32.2721C81.2083 35.4181 83.2583 38.28 85.7751 40.675C89.1444 43.882 93.3458 46.277 98.0344 47.5354V43.476C94.4622 42.3394 91.2756 40.4112 88.6573 37.935C84.2934 33.7741 81.5939 28.0504 81.5939 21.7583V8.11877C81.5939 5.947 81.1473 3.79553 80.2949 1.78613L79.5439 0L79.3612 0.446535C78.1231 3.3287 77.494 6.43413 77.494 9.58015V21.7583C77.494 24.8231 76.9865 28.4157 76.0528 31.1964C75.1192 28.4157 74.5914 24.8231 74.5914 21.7583V8.24055C74.5914 5.98759 74.1449 3.75493 73.2722 1.68464L72.5618 0L72.4197 0.304453C71.1613 3.2881 70.5118 6.49502 70.5118 9.72223V21.7583C70.5118 28.0504 67.792 33.7741 63.4281 37.935C60.8301 40.4112 57.6233 42.3394 54.0713 43.476Z" fill="#FEFEFE"/>
<path fill-rule="evenodd" clip-rule="evenodd" d="M84.0293 17.4553V21.3929C84.0293 27.0558 86.4649 32.1909 90.3822 35.9255C92.5337 37.9755 95.1317 39.5993 98.0342 40.6344V36.4126C96.2683 35.5805 94.6649 34.4844 93.2847 33.1854C90.0981 30.1612 88.1089 25.98 88.1089 21.3929V17.4553H84.0293Z" fill="#FEFEFE"/>
<path fill-rule="evenodd" clip-rule="evenodd" d="M54.0713 36.4126V40.6344C56.9535 39.5993 59.5515 37.9755 61.703 35.9255C65.6203 32.1909 68.0558 27.0558 68.0558 21.3929V17.4553H63.9762V21.3929C63.9762 25.98 62.0074 30.1612 58.8208 33.1854C57.4406 34.4844 55.8371 35.5805 54.0713 36.4126Z" fill="#FEFEFE"/>
<path fill-rule="evenodd" clip-rule="evenodd" d="M54.0713 50.0929V54.0711C60.749 52.7112 66.7163 49.5246 71.3846 45.0999C72.3791 44.1459 73.3128 43.1514 74.1855 42.0756L71.9934 38.3816C70.9583 39.8024 69.7811 41.1217 68.5024 42.3395C64.5851 46.0741 59.6123 48.7939 54.0713 50.0929Z" fill="#FEFEFE"/>
<path fill-rule="evenodd" clip-rule="evenodd" d="M54.0713 98.0343V102.012C59.6123 103.312 64.5851 106.031 68.5024 109.766C69.7811 110.984 70.9583 112.303 71.9934 113.744L74.1855 110.03C73.3128 108.974 72.3791 107.959 71.3846 107.006C66.7163 102.581 60.749 99.3942 54.0713 98.0343Z" fill="#FEFEFE"/>
<path fill-rule="evenodd" clip-rule="evenodd" d="M63.9762 134.65H68.0558V130.712C68.0558 125.049 65.6203 119.914 61.703 116.18C59.5515 114.13 56.9535 112.506 54.0713 111.471V115.693C55.8371 116.525 57.4406 117.621 58.8208 118.92C62.0074 121.944 63.9762 126.125 63.9762 130.712V134.65Z" fill="#FEFEFE"/>
<path fill-rule="evenodd" clip-rule="evenodd" d="M84.0293 134.65H88.1089V130.712C88.1089 126.125 90.0981 121.944 93.2847 118.92C94.6649 117.621 96.2683 116.525 98.0342 115.693V111.471C95.1317 112.506 92.5337 114.13 90.3822 116.18C86.4649 119.914 84.0293 125.049 84.0293 130.712V134.65Z" fill="#FEFEFE"/>
<path fill-rule="evenodd" clip-rule="evenodd" d="M98.034 102.012V98.0343C91.3563 99.3942 85.3687 102.581 80.7004 107.006C79.7059 107.959 78.7722 108.974 77.8994 110.03L80.0915 113.744C81.147 112.303 82.3038 110.984 83.6028 109.766C87.5202 106.031 92.4929 103.312 98.034 102.012Z" fill="#FEFEFE"/>
<path fill-rule="evenodd" clip-rule="evenodd" d="M43.3746 37.6306C42.3597 37.6509 41.3652 37.59 40.3706 37.4276L40.9795 39.8024C41.7508 39.8633 42.522 39.9039 43.3136 39.8836C46.9468 39.7821 50.6206 38.6658 53.8275 36.5346L52.2443 34.9514C49.5042 36.6564 46.4191 37.5494 43.3746 37.6306Z" fill="#FEFEFE"/>
<path fill-rule="evenodd" clip-rule="evenodd" d="M25.696 24.8435L32.6782 31.8257C33.9163 33.0435 35.1341 34.6875 35.8851 36.1895C34.3831 35.4385 32.739 34.2004 31.5212 32.9826L24.5391 26.0004L22.895 27.6242L29.8772 34.6266C32.4143 37.1435 33.6118 40.5127 33.5306 43.9226C33.4698 45.9726 32.9623 48.0023 31.9881 49.8899L33.6321 51.5137C34.992 49.1389 35.7227 46.5003 35.7836 43.8617C35.8242 41.8929 35.5198 39.9444 34.8094 38.0974C36.3316 38.7672 37.8539 39.3355 39.2341 39.5385C39.0311 38.1583 38.4628 36.636 37.793 35.1138C39.64 35.8039 41.5885 36.1286 43.5776 36.088C46.1959 36.0068 48.8345 35.2964 51.2092 33.9162L49.5855 32.2925C47.6979 33.2667 45.6682 33.7742 43.6182 33.8351C40.2083 33.9162 36.839 32.6984 34.3222 30.1816L27.3401 23.1995L25.696 24.8435Z" fill="#FEFEFE"/>
<path fill-rule="evenodd" clip-rule="evenodd" d="M33.5713 27.482L35.1544 29.0652C37.4074 31.3181 40.4519 32.4142 43.5168 32.333C45.2014 32.2924 46.8861 31.9068 48.449 31.1558L46.7643 29.4711C45.7291 29.8568 44.6534 30.0597 43.5777 30.08C41.0811 30.1409 38.6253 29.2682 36.7782 27.4211L35.2153 25.8583L33.5713 27.482Z" fill="#FEFEFE"/>
<path fill-rule="evenodd" clip-rule="evenodd" d="M25.5537 35.5197L27.1166 37.0825C28.9636 38.9295 29.8364 41.3855 29.7755 43.8617C29.7552 44.9374 29.5523 46.0335 29.1666 47.0686L30.8512 48.7533C31.6022 47.1904 31.9878 45.4855 32.0284 43.8211C32.1096 40.7563 31.0339 37.7117 28.7607 35.4588L27.1775 33.8756L25.5537 35.5197Z" fill="#FEFEFE"/>
<path fill-rule="evenodd" clip-rule="evenodd" d="M37.3262 43.6586C37.245 46.7234 36.3519 49.8085 34.647 52.5486L36.2301 54.1318C38.3613 50.9249 39.4776 47.2511 39.5791 43.618C39.5994 42.8264 39.5589 42.0551 39.498 41.2838L37.1232 40.6749C37.2856 41.6492 37.3465 42.664 37.3262 43.6586Z" fill="#FEFEFE"/>
<path fill-rule="evenodd" clip-rule="evenodd" d="M108.791 112.526C105.138 112.607 101.485 113.744 98.2573 115.855L99.8608 117.458C102.601 115.753 105.666 114.86 108.731 114.779C109.745 114.759 110.74 114.82 111.735 114.962L111.126 112.607C110.496 112.546 109.887 112.526 109.279 112.526C109.116 112.526 108.954 112.526 108.791 112.526Z" fill="#FEFEFE"/>
<path fill-rule="evenodd" clip-rule="evenodd" d="M116.322 108.528C116.261 110.496 116.586 112.465 117.276 114.312C115.754 113.642 114.252 113.074 112.871 112.871H112.851C113.054 114.251 113.622 115.753 114.292 117.276C112.465 116.585 110.497 116.261 108.528 116.322C105.91 116.382 103.271 117.113 100.876 118.473L102.5 120.097C104.387 119.143 106.437 118.635 108.467 118.575C111.877 118.493 115.266 119.691 117.783 122.208L124.765 129.21L126.409 127.566L119.407 120.584C118.189 119.346 116.951 117.702 116.22 116.22C117.702 116.951 119.346 118.189 120.584 119.427L127.566 126.409L129.19 124.765L122.208 117.783C119.691 115.266 118.494 111.877 118.575 108.467C118.615 106.437 119.143 104.387 120.097 102.52L118.473 100.876C117.093 103.271 116.383 105.909 116.322 108.528Z" fill="#FEFEFE"/>
<path fill-rule="evenodd" clip-rule="evenodd" d="M108.589 120.077C106.904 120.117 105.219 120.503 103.636 121.233L105.341 122.938C106.376 122.553 107.452 122.35 108.528 122.33C111.004 122.269 113.48 123.141 115.307 124.988L116.89 126.551L118.514 124.907L116.951 123.344C114.759 121.152 111.857 120.056 108.893 120.056C108.792 120.056 108.69 120.056 108.589 120.077Z" fill="#FEFEFE"/>
<path fill-rule="evenodd" clip-rule="evenodd" d="M120.056 108.589C119.995 111.654 121.071 114.678 123.344 116.951L124.907 118.534L126.551 116.89L124.968 115.307C123.141 113.48 122.248 111.024 122.329 108.528C122.35 107.452 122.553 106.376 122.938 105.341L121.233 103.636C120.503 105.219 120.097 106.904 120.056 108.589Z" fill="#FEFEFE"/>
<path fill-rule="evenodd" clip-rule="evenodd" d="M112.526 108.792C112.506 109.563 112.526 110.355 112.608 111.126L114.962 111.735C114.82 110.74 114.759 109.746 114.779 108.731C114.861 105.686 115.754 102.601 117.459 99.861L115.855 98.2778C113.724 101.485 112.608 105.158 112.526 108.792Z" fill="#FEFEFE"/>
<path fill-rule="evenodd" clip-rule="evenodd" d="M34.7891 100.003C36.494 102.743 37.3871 105.828 37.4683 108.893C37.4886 109.888 37.4277 110.902 37.2856 111.877L39.64 111.268C39.7212 110.496 39.7415 109.725 39.7212 108.934C39.64 105.3 38.5237 101.627 36.3925 98.4198L34.7891 100.003Z" fill="#FEFEFE"/>
<path fill-rule="evenodd" clip-rule="evenodd" d="M32.1501 102.662C33.1041 104.549 33.6318 106.579 33.6724 108.629C33.7536 112.039 32.5561 115.408 30.0393 117.925L23.0571 124.907L24.6809 126.551L31.663 119.569C32.9011 118.331 34.5452 117.113 36.0268 116.362C35.2961 117.864 34.0581 119.508 32.8199 120.726L25.8378 127.708L27.4818 129.352L34.464 122.37C36.9808 119.853 40.3704 118.636 43.7803 118.717C45.81 118.778 47.86 119.285 49.7476 120.259L51.3713 118.636C48.9763 117.255 46.3377 116.525 43.7194 116.464C41.7506 116.423 39.7818 116.748 37.9551 117.438C38.6046 115.916 39.1729 114.393 39.3759 113.013C37.9957 113.216 36.4937 113.785 34.9714 114.454C35.6615 112.607 35.9863 110.659 35.9254 108.67C35.8645 106.051 35.1338 103.413 33.7739 101.038L32.1501 102.662Z" fill="#FEFEFE"/>
<path fill-rule="evenodd" clip-rule="evenodd" d="M29.3087 105.483C29.6943 106.518 29.8973 107.594 29.9176 108.69C29.9785 111.166 29.1057 113.622 27.279 115.469L25.6958 117.032L27.3398 118.676L28.9027 117.093C31.176 114.84 32.2517 111.795 32.1908 108.731C32.13 107.066 31.7443 105.361 31.0136 103.798L29.3087 105.483Z" fill="#FEFEFE"/>
<path fill-rule="evenodd" clip-rule="evenodd" d="M35.2967 123.487L33.7339 125.07L35.3576 126.693L36.9408 125.131C38.7675 123.284 41.2234 122.411 43.7199 122.472C44.7957 122.492 45.8714 122.695 46.9066 123.081L48.6115 121.396C47.0283 120.645 45.3437 120.259 43.659 120.219C43.5576 120.219 43.4561 120.219 43.3546 120.219C40.3913 120.219 37.4888 121.294 35.2967 123.487Z" fill="#FEFEFE"/>
<path fill-rule="evenodd" clip-rule="evenodd" d="M41.1216 112.749L40.5127 115.124C41.5072 114.962 42.5018 114.901 43.5166 114.921C46.5814 115.002 49.6463 115.895 52.3863 117.6L53.9898 116.017C50.7626 113.886 47.1092 112.77 43.4557 112.668C43.2933 112.668 43.131 112.668 42.9686 112.668C42.3597 112.668 41.7305 112.688 41.1216 112.749Z" fill="#FEFEFE"/>
<path fill-rule="evenodd" clip-rule="evenodd" d="M112.445 41.1419C112.384 41.9132 112.343 42.6845 112.364 43.4558C112.465 47.1092 113.581 50.7829 115.713 53.9899L117.316 52.3864C115.611 49.6666 114.698 46.5815 114.637 43.5166C114.596 42.5221 114.657 41.5072 114.82 40.5127L112.445 41.1419Z" fill="#FEFEFE"/>
<path fill-rule="evenodd" clip-rule="evenodd" d="M117.641 30.0394C115.104 32.5562 111.735 33.774 108.325 33.6725C106.295 33.6319 104.245 33.1245 102.358 32.1503L100.734 33.774C103.109 35.1542 105.747 35.8646 108.386 35.9255C110.355 35.9864 112.323 35.6616 114.15 34.9715C113.48 36.4938 112.912 37.9958 112.709 39.376V39.3963H112.729C114.11 39.1933 115.612 38.625 117.134 37.9552C116.444 39.7819 116.119 41.7507 116.16 43.7195C116.241 46.3378 116.951 48.9967 118.331 51.3715L119.955 49.7477C118.981 47.8601 118.473 45.8101 118.433 43.7804C118.331 40.3705 119.549 36.9809 122.066 34.4641L129.048 27.482L127.404 25.8582L120.422 32.8404C119.204 34.0582 117.56 35.2963 116.058 36.027C116.809 34.5453 118.047 32.9013 119.265 31.6631L126.247 24.681L124.623 23.0573L117.641 30.0394Z" fill="#FEFEFE"/>
<path fill-rule="evenodd" clip-rule="evenodd" d="M123.182 35.2964C120.929 37.5696 119.833 40.5939 119.914 43.6587C119.955 45.3434 120.341 47.028 121.092 48.6112L122.776 46.9062C122.411 45.8711 122.208 44.7953 122.167 43.7196C122.107 41.2434 122.979 38.7672 124.826 36.9404L126.409 35.3573L124.765 33.7335L123.182 35.2964Z" fill="#FEFEFE"/>
<path fill-rule="evenodd" clip-rule="evenodd" d="M115.165 27.2791C113.318 29.1058 110.862 29.9989 108.386 29.938C107.31 29.8974 106.214 29.6944 105.179 29.3291L103.494 31.0137C105.077 31.7444 106.762 32.1503 108.447 32.1909C111.491 32.2721 114.536 31.1761 116.809 28.9028L118.372 27.34L116.728 25.6959L115.165 27.2791Z" fill="#FEFEFE"/>
<path fill-rule="evenodd" clip-rule="evenodd" d="M98.1152 36.3923C101.322 38.5235 104.996 39.6398 108.649 39.721C109.421 39.7413 110.192 39.721 110.963 39.6398L111.572 37.2853C110.598 37.4274 109.583 37.5086 108.588 37.468C105.524 37.3868 102.438 36.4938 99.7187 34.7888L98.1152 36.3923Z" fill="#FEFEFE"/>
<path fill-rule="evenodd" clip-rule="evenodd" d="M54.0713 98.0343V102.012C59.6123 103.312 64.5851 106.031 68.5024 109.766C69.7811 110.984 70.9583 112.303 71.9934 113.744L74.1855 110.03C73.3128 108.974 72.3791 107.959 71.3846 107.006C66.7163 102.581 60.749 99.3942 54.0713 98.0343Z" fill="#FEFEFE"/>
<path fill-rule="evenodd" clip-rule="evenodd" d="M63.9762 134.65H68.0558V130.712C68.0558 125.049 65.6203 119.914 61.703 116.18C59.5515 114.13 56.9535 112.506 54.0713 111.471V115.693C55.8371 116.525 57.4406 117.621 58.8208 118.92C62.0074 121.944 63.9762 126.125 63.9762 130.712V134.65Z" fill="#FEFEFE"/>
<path fill-rule="evenodd" clip-rule="evenodd" d="M84.0293 134.65H88.1089V130.712C88.1089 126.125 90.0981 121.944 93.2847 118.92C94.6649 117.621 96.2683 116.525 98.0342 115.693V111.471C95.1317 112.506 92.5337 114.13 90.3822 116.18C86.4649 119.914 84.0293 125.049 84.0293 130.712V134.65Z" fill="#FEFEFE"/>
<path fill-rule="evenodd" clip-rule="evenodd" d="M98.034 102.012V98.0343C91.3563 99.3942 85.3687 102.581 80.7004 107.006C79.7059 107.959 78.7722 108.974 77.8994 110.03L80.0915 113.744C81.147 112.303 82.3038 110.984 83.6028 109.766C87.5202 106.031 92.4929 103.312 98.034 102.012Z" fill="#FEFEFE"/>
<path fill-rule="evenodd" clip-rule="evenodd" d="M107.005 80.7208C102.56 85.3891 99.3738 91.3564 98.0342 98.0341H102.012C103.291 92.493 106.031 87.5203 109.745 83.603C110.984 82.3243 112.303 81.147 113.724 80.0916L110.009 77.8995C108.954 78.7723 107.959 79.7263 107.005 80.7208Z" fill="#FEFEFE"/>
<path fill-rule="evenodd" clip-rule="evenodd" d="M108.63 54.071H104.55C105.829 58.7596 108.224 62.9611 111.41 66.3304C113.826 68.8472 116.667 70.8972 119.833 72.3383C117.093 73.3937 114.495 74.5709 112.526 76.0526H112.506L112.526 76.0729C114.495 77.5343 117.093 78.7115 119.833 79.7669C116.667 81.208 113.826 83.258 111.41 85.7748C108.224 89.1441 105.829 93.3456 104.55 98.0342H108.63C109.766 94.4822 111.694 91.2753 114.171 88.6773C118.311 84.2932 124.055 81.5937 130.347 81.5937H143.966C146.159 81.5937 148.31 81.1471 150.319 80.2947L152.106 79.5437L151.659 79.361C148.777 78.1432 145.651 77.514 142.505 77.514L130.347 77.4937C127.282 77.4937 123.69 76.9863 120.909 76.0526C123.69 75.119 127.282 74.6115 130.347 74.6115H143.865C146.118 74.6115 148.351 74.1447 150.421 73.2719L152.106 72.5615L151.781 72.4195C148.817 71.1611 145.61 70.5116 142.383 70.5116H130.347C124.055 70.5116 118.311 67.8121 114.171 63.4279C111.694 60.8299 109.766 57.6433 108.63 54.071Z" fill="#FEFEFE"/>
<path fill-rule="evenodd" clip-rule="evenodd" d="M134.65 84.0292H130.712C125.049 84.0292 119.914 86.4648 116.18 90.4024C114.13 92.5539 112.506 95.1519 111.471 98.0341H115.692C116.525 96.2682 117.621 94.6648 118.92 93.2846C121.944 90.0979 126.125 88.1292 130.712 88.1292H134.65V84.0292Z" fill="#FEFEFE"/>
<path fill-rule="evenodd" clip-rule="evenodd" d="M115.692 54.071H111.471C112.506 56.9532 114.13 59.5715 116.18 61.7027C119.914 65.6403 125.049 68.0759 130.712 68.0759H134.65V63.9759H130.712C126.125 63.9759 121.944 62.0071 118.92 58.8205C117.621 57.4403 116.525 55.8369 115.692 54.071Z" fill="#FEFEFE"/>
<path fill-rule="evenodd" clip-rule="evenodd" d="M102.012 54.071H98.0342C99.3738 60.7487 102.56 66.7363 107.005 71.3843C107.959 72.3992 108.954 73.3328 110.009 74.2056L113.724 72.0135C112.303 70.9581 110.984 69.7809 109.745 68.5022C106.031 64.5849 103.291 59.6121 102.012 54.071Z" fill="#FEFEFE"/>
<path fill-rule="evenodd" clip-rule="evenodd" d="M54.0711 54.071H50.0929C48.7939 59.6121 46.0741 64.5849 42.3395 68.5022C41.1217 69.7809 39.7821 70.9581 38.3613 72.0135L42.0756 74.2056C43.1311 73.3328 44.1459 72.3992 45.0999 71.3843C49.5246 66.7363 52.7112 60.7487 54.0711 54.071Z" fill="#FEFEFE"/>
<path fill-rule="evenodd" clip-rule="evenodd" d="M47.5354 54.071H43.476C42.3191 57.6433 40.4112 60.8299 37.935 63.4279C33.7741 67.8121 28.0504 70.5116 21.7583 70.5116H8.11877C5.947 70.5116 3.77524 70.9581 1.78614 71.8106L0 72.5615L0.42628 72.7442C3.32874 73.962 6.43413 74.6115 9.58015 74.6115H21.7583C24.8231 74.6115 28.4157 75.119 31.1964 76.0526C28.4157 76.9863 24.8231 77.4937 21.7583 77.4937L8.24055 77.514C5.98759 77.514 3.75495 77.9605 1.66436 78.8333L0 79.5437L0.304503 79.6858C3.28815 80.9442 6.49503 81.5937 9.72224 81.5937H21.7583C28.0504 81.5937 33.7741 84.2932 37.935 88.6773C40.4112 91.2753 42.3191 94.4822 43.476 98.0342H47.5354C46.277 93.3456 43.882 89.1441 40.6751 85.7748C38.28 83.258 35.4182 81.208 32.2518 79.7669C34.9919 78.7115 37.5899 77.5343 39.579 76.0729V76.0526C37.5899 74.5709 34.9919 73.3937 32.2518 72.3383C35.4182 70.8972 38.28 68.8472 40.6751 66.3304C43.882 62.9611 46.277 58.7596 47.5354 54.071Z" fill="#FEFEFE"/>
<path fill-rule="evenodd" clip-rule="evenodd" d="M40.6347 54.071H36.3926C35.5808 55.8369 34.4847 57.4403 33.1857 58.8205C30.1411 62.0071 25.9803 63.9759 21.3932 63.9759H17.4556V68.0759H21.3932C27.056 68.0759 32.1911 65.6403 35.9258 61.7027C37.9758 59.5715 39.5792 56.9532 40.6347 54.071Z" fill="#FEFEFE"/>
<path fill-rule="evenodd" clip-rule="evenodd" d="M21.3932 84.0292H17.4556V88.1292H21.3932C25.9803 88.1292 30.1411 90.0979 33.1857 93.2846C34.4847 94.6648 35.5808 96.2682 36.3926 98.0341H40.6347C39.5792 95.1519 37.9758 92.5539 35.9258 90.4024C32.1911 86.4648 27.056 84.0292 21.3932 84.0292Z" fill="#FEFEFE"/>
<path fill-rule="evenodd" clip-rule="evenodd" d="M38.3613 80.0916C39.7821 81.147 41.1217 82.3243 42.3395 83.603C46.0741 87.5203 48.7939 92.493 50.0929 98.0341H54.0711C52.7112 91.3564 49.5246 85.3891 45.0999 80.7208C44.1459 79.7263 43.1311 78.7723 42.0756 77.8995L38.3613 80.0916Z" fill="#FEFEFE"/>
<path d="M174.127 56.9328H167.551V52.2036H169.439L171.042 23.8082H183.16V56.9328H178.207V28.5374H175.731L174.127 56.9328Z" fill="#FEFEFE"/>
<path d="M201.873 23.8082H206.826V56.9328H201.873V23.8082ZM191.217 52.2036H194.993V40.8373H191.217V52.2036ZM199.965 54.761C199.965 56.0397 199.113 56.9328 197.793 56.9328H186.245V23.8082H191.217V36.1082H197.793C199.113 36.1082 199.965 37.0215 199.965 38.3002V54.761Z" fill="#FEFEFE"/>
<path d="M218.903 56.9328V41.3245H217.908L214.559 56.9328H209.444L213.605 38.9497L209.668 23.8082H214.782L217.908 36.5953H218.903V23.8082H223.875V36.5953H224.87L227.996 23.8082H233.11L229.173 38.9497L233.334 56.9328H228.219L224.87 41.3245H223.875V56.9328H218.903Z" fill="#FEFEFE"/>
<path d="M251.316 23.8082V56.9328H246.364V41.3245H240.904V56.9328H235.952V23.8082H240.904V36.5953H246.364V23.8082H251.316Z" fill="#FEFEFE"/>
<path d="M264.814 28.5374H260.329V36.5953H264.814V28.5374ZM254.158 56.9328L259.05 41.3245H257.528C256.208 41.3245 255.356 40.4111 255.356 39.1324V25.98C255.356 24.7013 256.208 23.8082 257.528 23.8082H269.787V56.9328H264.814V41.3245H264.347L259.415 56.9328H254.158Z" fill="#FEFEFE"/>
<path d="M172.28 83.4002H177.009V70.6131H172.28V83.4002ZM172.28 88.1293V99.0288H167.308V65.8839H179.81C181.13 65.8839 181.982 66.7973 181.982 68.0557V85.9576C181.982 87.2363 181.13 88.1293 179.81 88.1293H172.28Z" fill="#FEFEFE"/>
<path d="M194.525 70.6131H189.553V94.2793H194.525V70.6131ZM186.772 99.0288C185.432 99.0288 184.58 98.1154 184.58 96.8367V68.0557C184.58 66.7973 185.432 65.8839 186.772 65.8839H197.326C198.646 65.8839 199.498 66.7973 199.498 68.0557V96.8367C199.498 98.1154 198.646 99.0288 197.326 99.0288H186.772Z" fill="#FEFEFE"/>
<path d="M204.512 99.0288C203.193 99.0288 202.34 98.1154 202.34 96.8367V68.0557C202.34 66.7973 203.193 65.8839 204.512 65.8839H216.771V75.3626H211.799V70.6131H207.313V94.2793H211.799V88.1293H216.771V99.0288H204.512Z" fill="#FEFEFE"/>
<path d="M221.561 99.0288C220.222 99.0288 219.369 98.1154 219.369 96.8367V68.0557C219.369 66.7973 220.222 65.8839 221.561 65.8839H233.821V75.3626H228.848V70.6131H224.342V94.2793H228.848V88.1293H233.821V99.0288H221.561Z" fill="#FEFEFE"/>
<path d="M246.831 99.0288V80.4571L241.392 91.864V99.0288H236.419V65.8839H241.392V82.7304L246.831 71.3235V65.8839H251.804V99.0288H246.831Z" fill="#FEFEFE"/>
<path d="M265.058 99.0288V80.4571L259.618 91.864V99.0288H254.646V65.8839H259.618V82.7304L265.058 71.3235V65.8839H270.031V99.0288H265.058Z" fill="#FEFEFE"/>
<path fill-rule="evenodd" clip-rule="evenodd" d="M54.0713 104.57V108.629C57.6233 109.786 60.8301 111.694 63.4281 114.17C67.792 118.331 70.5118 124.055 70.5118 130.347V147.274L72.5618 150.786L74.5914 147.274V130.347C74.5914 127.282 75.1192 123.689 76.0528 120.909C76.9865 123.689 77.494 127.282 77.494 130.347V147.274L79.5439 150.786L81.5939 147.274V130.347C81.5939 124.055 84.2934 118.331 88.6573 114.17C91.2756 111.694 94.4622 109.786 98.0344 108.629V104.57C93.3458 105.828 89.1444 108.223 85.7751 111.43C83.2583 113.825 81.2083 116.687 79.7672 119.833C78.7118 117.093 77.5345 114.515 76.0528 112.526H76.0326C74.5712 114.515 73.3939 117.093 72.3182 119.833C70.8974 116.687 68.8474 113.825 66.3103 111.43C62.9613 108.223 58.7599 105.828 54.0713 104.57Z" fill="#FEFEFE"/>
<path fill-rule="evenodd" clip-rule="evenodd" d="M54.0713 104.57V108.629C57.6233 109.786 60.8301 111.694 63.4281 114.17C67.792 118.331 70.5118 124.055 70.5118 130.347V143.986C70.5118 146.158 70.9584 148.31 71.7905 150.319L72.5618 152.105L72.7444 151.679C73.9622 148.776 74.5914 145.671 74.5914 142.525V130.347C74.5914 127.282 75.1192 123.689 76.0528 120.909C76.9865 123.689 77.494 127.282 77.494 130.347V143.865C77.494 146.118 77.9607 148.35 78.8335 150.42L79.5439 152.105L79.6657 151.801C80.9444 148.817 81.5939 145.61 81.5939 142.383V130.347C81.5939 124.055 84.2934 118.331 88.6573 114.17C91.2756 111.694 94.4622 109.786 98.0344 108.629V104.57C93.3458 105.828 89.1444 108.223 85.7751 111.43C83.2583 113.825 81.2083 116.687 79.7672 119.833C78.7118 117.093 77.5345 114.515 76.0528 112.526H76.0326C74.5712 114.515 73.3939 117.093 72.3182 119.833C70.8974 116.687 68.8474 113.825 66.3103 111.43C62.9613 108.223 58.7599 105.828 54.0713 104.57Z" fill="#FEFEFE"/>
<path d="M172.904 121.8L174.968 112.2H178.04V129H175.52V121.8L175.928 117H175.808L174.056 125.64H171.704L169.904 117H169.784L170.24 121.8V129H167.72V112.2H170.792L172.832 121.8H172.904ZM183.206 126.6H185.726V114.6H183.206V126.6ZM187.142 129H181.79C181.118 129 180.686 128.544 180.686 127.896V113.304C180.686 112.656 181.118 112.2 181.79 112.2H187.142C187.814 112.2 188.246 112.656 188.246 113.304V127.896C188.246 128.544 187.814 129 187.142 129ZM198.206 129H191.99C191.318 129 190.886 128.544 190.886 127.896V113.304C190.886 112.656 191.318 112.2 191.99 112.2H198.206V117H195.686V114.6H193.406V126.6H195.686V123.48H198.206V129ZM206.182 119.88L208.774 129H206.11L203.902 121.08H203.254V129H200.734V112.2H203.254V118.68H203.974L206.11 112.2H208.774L206.182 119.88ZM215.617 118.68V114.6H213.337V118.68H215.617ZM215.617 121.08H213.337V126.6H215.617V121.08ZM218.137 113.304V118.008C218.137 118.968 217.633 119.616 216.889 119.88C217.633 120.144 218.137 120.768 218.137 121.752V127.896C218.137 128.544 217.705 129 217.033 129H210.817V112.2H217.033C217.705 112.2 218.137 112.656 218.137 113.304ZM220.783 112.2H228.223V129H225.703V123.48H223.303V129H220.783V112.2ZM225.703 121.08V114.6H223.303V121.08H225.703ZM242.863 113.304V117.336L238.543 125.856V126.6H242.863V129H236.023V125.52L240.343 117V114.6H238.543V117H236.023V113.304C236.023 112.656 236.455 112.2 237.127 112.2H241.759C242.431 112.2 242.863 112.656 242.863 113.304ZM247.902 126.6H249.702V114.6H247.902V126.6ZM251.118 129H246.486C245.814 129 245.382 128.544 245.382 127.896V113.304C245.382 112.656 245.814 112.2 246.486 112.2H251.118C251.79 112.2 252.222 112.656 252.222 113.304V127.896C252.222 128.544 251.79 129 251.118 129ZM261.576 113.304V117.336L257.256 125.856V126.6H261.576V129H254.736V125.52L259.056 117V114.6H257.256V117H254.736V113.304C254.736 112.656 255.168 112.2 255.84 112.2H260.472C261.144 112.2 261.576 112.656 261.576 113.304ZM268.415 120.12H266.615V121.08H264.095V112.2H270.815V114.6H266.615V117.72H269.831C270.503 117.72 270.935 118.176 270.935 118.824V127.896C270.935 128.544 270.503 129 269.831 129H265.199C264.527 129 264.095 128.544 264.095 127.896V123.48H266.615V126.6H268.415V120.12Z" fill="white"/>
</svg>
