<svg width="360" height="453" viewBox="0 0 360 453" fill="none" xmlns="http://www.w3.org/2000/svg">
<path d="M340.393 452.903H-21.4678V450.35H340.393C341.095 450.35 341.658 450.912 341.658 451.615C341.658 452.318 341.095 452.903 340.393 452.903Z" fill="#BA0D07"/>
<path d="M197.017 255.286C198.047 257.277 199.124 259.291 200.272 261.375C202.239 264.982 204.441 266.996 206.642 267.769C208.328 268.355 210.015 268.237 211.631 267.582C213.34 266.903 214.956 265.614 216.361 263.952C219.359 260.322 221.35 254.912 221.162 249.361C220.952 242.874 218.282 236.293 214.699 232.616C213.34 231.257 211.888 230.321 210.413 229.993C209.031 229.688 207.602 229.946 206.174 230.93C203.316 232.944 200.553 237.768 198.445 246.551C197.883 248.916 197.415 251.656 197.063 254.865L197.017 255.286ZM-0.694085 294.468C-1.4201 293.812 -2.16954 293.18 -2.96581 292.594C-5.0736 291.025 -7.41559 289.714 -9.85126 288.636C-7.48585 295.217 -2.14612 302.454 1.60106 306.107C2.28024 306.763 2.86574 307.278 3.35755 307.653C2.8189 305.756 1.13267 302.337 -2.16954 296.88C-2.54425 296.294 -2.35689 295.522 -1.7714 295.147L-0.694085 294.468ZM134.626 209.055C134.626 209.196 134.626 209.313 134.626 209.43L135.914 208.634C135.961 208.165 135.938 207.697 135.844 207.276C135.703 206.643 135.586 206.198 135.469 205.894C135.001 206.643 134.649 207.884 134.626 209.055ZM121.136 228.634C121.441 229.524 121.886 230.063 122.565 230.297C125.726 231.421 127.928 230.976 129.544 229.665C131.277 228.236 132.471 225.754 133.478 223.061C134.907 219.196 134.743 217.791 134.204 216.667C131.183 220.274 126.71 224.302 121.136 228.634ZM120.246 221.468C120.363 221.608 120.457 221.749 120.504 221.913C120.551 222.053 120.574 222.171 120.574 222.311C120.574 223.74 120.597 224.981 120.691 226.011C126.171 221.749 130.434 217.885 133.033 214.536C132.916 214.255 132.799 213.974 132.682 213.669L120.246 221.468ZM118.021 223.787C117.623 223.787 117.272 223.693 116.967 223.552L3.2873 294.983C4.08357 295.896 4.78617 296.857 5.44193 297.91C18.3463 289.62 33.8971 280.416 49.7289 271.048C75.3034 255.919 101.604 240.368 118.326 227.815C118.162 226.691 118.068 225.356 118.021 223.787ZM238.634 12.4221C233.879 18.0429 231.514 26.8019 233.903 37.1769C234.043 36.568 234.184 35.9591 234.324 35.3268C235.238 31.0409 240.648 25.6309 247.369 22.235C250.835 20.4785 254.653 19.2139 258.423 18.886C262.264 18.5581 266.058 19.1905 269.314 21.228C271.703 22.7034 273.787 24.9049 275.403 27.9963C270.93 15.373 264.161 8.69835 257.323 6.54373C253.857 5.46641 250.367 5.51326 247.159 6.56715C243.95 7.59762 240.999 9.61173 238.634 12.4221ZM237.416 43.0787C239.547 40.2215 245.753 36.0294 252.522 33.3361C256.105 31.9075 259.899 30.877 263.365 30.6194C266.972 30.3617 270.274 30.9472 272.733 32.8443C273.927 33.7811 274.911 34.9989 275.59 36.568C275.567 36.4041 275.543 36.2636 275.497 36.0996C274.162 29.4952 271.422 25.5138 267.979 23.3826C265.215 21.673 261.983 21.1343 258.634 21.4388C255.215 21.7432 251.702 22.8908 248.517 24.5068C242.428 27.5748 237.58 32.2588 236.807 35.842C236.362 38.0201 235.847 40.0107 235.285 41.8375C235.331 42.0014 235.402 42.1888 235.472 42.3527C236.151 42.6103 236.784 42.8445 237.416 43.0787ZM245.238 62.7749C246.409 63.1964 247.674 63.5945 249.009 63.9693C246.222 59.4726 246.784 56.5686 247.229 54.2266C247.721 51.6973 248.025 50.0345 238.704 46.3107C235.355 56.0534 238.681 60.2689 245.238 62.7749ZM258.728 66.1239C259.782 66.3113 260.836 66.522 261.913 66.7562C262.452 66.1239 262.99 65.3042 263.482 64.2972C266.831 57.8099 271.656 45.9828 273.436 41.5799C273.67 40.9944 273.857 40.526 274.021 40.1747C273.6 37.6922 272.593 35.9825 271.164 34.8584C269.267 33.3829 266.574 32.9379 263.529 33.1487C260.344 33.3829 256.831 34.3665 253.458 35.7015C247.346 38.1371 241.842 41.6501 239.828 44.0155C250.906 48.5122 250.461 50.9478 249.735 54.695C249.313 56.8496 248.798 59.5663 252.217 64.1332C252.405 64.3908 252.592 64.6485 252.803 64.8827C254.676 65.3042 256.667 65.7024 258.728 66.1239ZM258.353 68.6298L258.236 68.6064L257.206 68.3956C257.58 68.5362 257.979 68.6298 258.353 68.6298ZM316.997 421.263C314.912 419.694 312.641 418.453 310.322 417.492C310.181 418.757 310.041 419.951 309.924 421.029L316.997 421.263ZM303.015 420.584C303.249 419.179 303.483 417.492 303.741 415.549C300.158 414.869 296.762 414.776 294.045 415.057C291.773 415.291 290.04 415.806 289.244 416.438C289.057 416.579 289.104 416.813 289.478 417.094C291.118 418.312 295.286 419.6 303.015 420.584ZM343.039 114.252C339.831 114.978 336.903 117.484 335.498 122.144C334.023 127.086 335.17 130.786 337.419 132.894C337.887 133.339 338.402 133.714 338.941 134.018C340.346 126.43 341.705 119.755 343.039 114.252ZM351.354 113.034C351.752 113.221 352.15 113.455 352.525 113.713C352.876 111.207 353.18 108.795 353.415 106.617C353.836 103.034 353.602 100.832 352.97 99.8017C352.806 99.5675 352.665 99.427 352.525 99.427C352.337 99.3801 352.056 99.4972 351.728 99.708C350.44 100.575 349.012 102.776 347.981 105.985C347.442 107.601 346.904 109.451 346.365 111.512C348.098 111.676 349.784 112.191 351.354 113.034ZM352.126 116.57C351.518 116.079 350.862 115.634 350.183 115.282C348.777 114.533 347.255 114.111 345.733 114.018C344.304 119.709 342.852 126.735 341.377 134.838C342.36 134.955 343.391 134.908 344.374 134.604C347.161 133.784 349.714 131.091 350.581 126.172C351.096 123.268 351.611 119.99 352.103 116.734L352.126 116.57ZM342.173 144.463C341.166 144.908 340.229 145.424 339.409 146.079C330.533 199.289 320.978 285.638 314.046 348.357C310.931 376.601 308.355 400.068 306.575 413.605C307.113 413.722 307.652 413.886 308.167 414.05C310.392 395.782 314.678 363.603 319.479 327.49C328.988 255.825 340.557 168.75 342.173 144.463ZM344.89 140.81C347.044 140.248 349.246 139.897 351.26 139.569L351.962 139.452C357.349 131.301 357.396 124.58 355.007 120.083C354.796 119.709 354.562 119.334 354.328 119.006C353.93 121.676 353.508 124.299 353.087 126.617C352.033 132.636 348.731 135.962 345.077 137.039C344.164 137.32 343.227 137.437 342.29 137.437C343.016 137.836 343.719 138.351 344.421 138.96C344.726 139.194 344.913 139.569 344.913 139.967C344.913 140.224 344.913 140.505 344.89 140.81ZM339.995 142.683C340.744 142.285 341.517 141.934 342.313 141.63C342.337 141.231 342.337 140.88 342.337 140.552C341.775 140.084 341.166 139.709 340.557 139.428C340.37 140.482 340.182 141.583 339.995 142.683ZM156.5 363.884C158.959 367.842 162.074 370.817 165.774 372.034C165.868 371.566 165.938 371.074 166.009 370.606C161.09 368.053 157.788 365.289 155.61 362.385C155.891 362.901 156.196 363.392 156.5 363.884ZM168.725 372.62C168.983 372.643 169.241 372.643 169.522 372.643C169.17 372.409 168.772 372.175 168.374 371.941C168.351 372.151 168.304 372.362 168.28 372.573C168.421 372.596 168.585 372.62 168.725 372.62ZM172.191 374.798C172.004 374.962 171.77 375.056 171.536 375.079C170.529 375.219 169.522 375.243 168.561 375.173C168.304 375.149 168.046 375.126 167.789 375.079C167.437 376.578 167.039 378.077 166.571 379.529C166.477 379.903 166.196 380.231 165.821 380.395C156.828 384.142 142.167 377.257 126.125 369.739C111.885 363.088 96.5453 355.898 83.7346 355.406L191.044 402.878L190.295 396.274C176.641 389.81 175.845 385.29 175.072 380.957C174.721 378.967 174.393 376.999 172.191 374.798ZM172.309 353.837C172.285 351.027 172.145 348.216 171.864 345.57C170.505 347.022 169.592 348.099 169.334 348.778C169.1 349.364 169.147 351.378 169.194 354.165C169.287 358.1 169.405 363.486 168.749 369.201C169.545 369.646 170.271 370.091 170.927 370.536C171.91 365.945 172.379 359.879 172.309 353.837ZM152.285 328.263C152.308 328.918 152.402 329.574 152.519 330.23C152.472 329.48 152.378 328.825 152.285 328.263ZM152.519 336.506C152.214 336.061 151.957 335.616 151.699 335.172C151.184 334.258 150.762 333.298 150.458 332.314C150.294 333.392 150.177 334.586 150.083 335.921C149.872 338.942 149.989 342.174 150.388 345.429C150.715 348.029 151.231 350.652 151.933 353.158C151.418 349.317 151.769 345.312 152.144 341.214C152.285 339.668 152.425 338.099 152.519 336.506ZM163.807 340.839C166.149 341.144 168.632 340.722 170.95 339.34C170.622 337.677 170.224 336.202 169.756 334.914C163.386 317.349 172.168 306.506 180.084 296.739C186.595 288.706 192.473 281.446 187.532 271.704C180.459 293.812 174.042 296.646 169.498 298.636C167.39 299.573 165.774 300.276 164.838 303.508C164.205 305.756 163.877 307.747 163.596 309.527C162.636 315.452 162.004 319.387 153.479 322.244C153.221 322.829 152.987 323.415 152.823 324.024C153.315 324.258 153.737 324.75 154.088 325.452C154.861 327.068 155.353 330.511 155.118 335.71C155.962 336.811 156.992 337.771 158.116 338.567C159.826 339.762 161.77 340.558 163.807 340.839ZM171.419 341.987C168.842 343.322 166.102 343.696 163.479 343.345C161.02 343.041 158.702 342.08 156.664 340.652C156.032 340.207 155.446 339.738 154.884 339.2C154.814 339.949 154.744 340.699 154.673 341.448C153.783 351.308 152.94 360.559 166.337 367.889C166.852 362.713 166.735 357.842 166.664 354.212C166.594 351.12 166.547 348.872 166.945 347.842C167.461 346.53 169.1 344.774 171.465 342.315L171.419 341.987ZM192.801 310.557L183.48 325.429C183.199 325.874 182.684 326.085 182.192 326.014C181.958 325.967 180.763 328.778 179.545 331.659C178.89 333.181 178.21 334.75 177.531 336.061C182.004 331.284 187.414 325.031 192.707 317.044C192.731 314.843 192.778 312.688 192.801 310.557ZM195.635 295.662C196.642 290.346 196.689 284.983 196.033 279.643C195.916 284.303 195.775 289.737 195.635 295.662ZM175.47 208.54C174.533 211.023 174.697 214.044 175.587 217.51C177.063 223.178 180.342 230.04 183.972 237.651C187.414 244.818 191.138 252.64 194.042 260.837C194.136 259.057 194.253 257.371 194.394 255.802C183.55 235.122 177.906 220.508 175.47 208.54ZM227.954 239.033C229.219 243.951 230.249 249.127 231.046 254.49C239.43 241.562 245.894 228.915 252.1 203.318C232.193 211.889 227.135 209.547 216.713 204.699C211.654 202.357 205.26 199.383 195.026 196.877C187.625 195.074 183.316 191.35 181.794 188.001C181.068 186.432 180.927 184.91 181.349 183.621C181.794 182.24 182.824 181.162 184.393 180.647C186.969 179.781 191.162 180.436 196.689 183.809C207.392 190.366 222.31 197.697 234.863 199.383C239.266 199.969 243.341 199.875 246.831 198.774C250.203 197.72 253.013 195.706 254.981 192.498C256.386 190.202 257.37 187.298 257.861 183.668C258.728 177.298 263.88 158.187 269.501 142.965C273.436 132.309 277.675 123.432 281.024 121.77C281.562 121.488 282.195 121.629 282.569 122.074C288.869 129.404 292.546 138.07 295.731 145.611C298.261 151.606 300.486 156.853 303.413 159.897C308.823 165.541 317.324 163.691 336.904 144.885L337.067 144.744C337.419 142.637 337.77 140.576 338.121 138.585C337.348 138.374 336.552 138.257 335.779 138.117C331.353 137.344 327.582 136.688 326.739 128.702C326.552 128.983 326.365 129.217 326.201 129.428C325.521 130.318 325.147 130.786 324.913 131.255C324.655 131.793 324.491 132.449 324.163 133.924C323.999 134.65 323.788 135.494 323.695 135.939C323.531 136.618 322.852 137.039 322.149 136.899C321.774 136.805 321.446 136.524 321.306 136.196C316.364 127.062 314.233 125.47 312.711 124.346C310.205 122.496 309.174 121.723 303.718 102.05C297.183 78.4662 278.705 72.8688 262.733 69.5198C262.592 69.6369 262.452 69.7774 262.288 69.8711C261.164 70.7142 259.993 71.1357 258.775 71.1826C257.58 71.2294 256.409 70.925 255.262 70.3395C253.927 69.6603 252.639 68.5596 251.421 67.2012C248.821 66.5923 246.456 65.96 244.325 65.1403C236.315 62.0957 232.263 57.037 236.315 45.3973C235.683 45.1631 235.027 44.9055 234.324 44.6479C229.219 58.3485 220.881 61.1589 210.085 64.789C190.576 71.3465 162.753 80.7145 131.722 168.703C131.535 169.242 131.23 170.085 130.809 171.256C127.178 181.069 115.609 212.428 117.553 220.18L132.167 210.999C132.097 210.414 132.073 209.758 132.097 209.032C132.12 207.276 132.729 205.308 133.525 204.208C133.9 203.716 134.345 203.341 134.837 203.177C135.516 202.919 136.172 203.013 136.804 203.528C137.436 204.02 137.975 205.027 138.35 206.737C138.49 207.439 138.49 208.165 138.373 208.938C138.42 209.055 138.443 209.149 138.443 209.266L138.607 212.077C138.701 213.903 138.935 214.957 139.263 215.449C139.333 215.402 139.427 215.309 139.544 215.191C140.458 214.278 141.418 212.287 141.956 210.086C143.362 204.606 142.917 200.086 142.472 195.472C141.277 183.176 140.059 170.436 170.365 138.772L186.501 111.231C186.852 110.622 187.625 110.411 188.234 110.786C188.656 111.02 188.866 111.465 188.866 111.91C187.93 136.969 184.065 153.058 180.904 166.291C177.812 179.172 175.377 189.289 177.063 202.451C178.655 201.397 180.669 200.554 183.175 199.898C189.78 198.189 195.635 198.399 200.811 200.132C207.649 202.428 213.223 207.393 217.72 214.208C222.123 220.929 225.495 229.478 227.954 239.033ZM228.961 257.699C228.095 251.422 226.947 245.356 225.495 239.642C223.106 230.368 219.851 222.077 215.589 215.613C211.42 209.243 206.267 204.629 199.991 202.545C195.283 200.952 189.897 200.788 183.808 202.357C180.997 203.083 178.936 204.137 177.508 205.472C179.475 217.065 184.581 231.164 194.956 251.328C195.237 249.361 195.588 247.581 195.963 245.965C198.234 236.504 201.373 231.187 204.722 228.869C206.783 227.417 208.89 227.042 210.951 227.51C212.942 227.932 214.839 229.126 216.525 230.859C220.507 234.934 223.458 242.195 223.715 249.291C223.926 255.474 221.678 261.516 218.305 265.568C216.642 267.582 214.675 269.104 212.591 269.947C210.413 270.837 208.094 270.978 205.799 270.181C203.035 269.198 200.342 266.809 198.047 262.593C197.555 261.727 197.087 260.86 196.642 259.994C196.525 261.61 196.454 263.319 196.431 265.123C196.408 265.989 196.384 266.996 196.361 268.167C199.663 280.252 200.506 292.922 195.424 305.335C195.377 307.817 195.33 310.37 195.283 312.969C196.618 310.768 197.93 308.449 199.218 306.014C209.499 286.364 217.813 274.116 224.863 263.764C226.268 261.68 227.626 259.666 228.961 257.699ZM225.097 342.174C224.441 341.401 223.598 340.792 222.544 340.464C222.029 340.3 221.467 340.183 220.835 340.137C214.043 339.668 211.443 341.987 211.256 344.75C211.162 346.296 211.724 348.006 212.731 349.458C213.715 350.933 215.073 352.104 216.549 352.596C219.031 353.439 221.912 352.128 223.785 346.53C224.254 345.172 224.675 343.72 225.097 342.174ZM358.497 451.873C358.356 452.575 357.677 452.997 356.998 452.856C356.295 452.716 355.85 452.06 355.991 451.358L356.084 451.006C356.787 447.54 356.974 446.65 356.319 443.746C334.187 450.327 285.192 437.704 253.365 429.53C245.824 427.586 239.266 425.9 234.207 424.776C233.528 424.612 233.107 423.956 233.247 423.277C234.207 418.453 233.833 416.368 231.936 415.993C229.477 415.502 224.746 416.837 217.696 418.851C215.893 419.366 213.949 419.905 211.256 420.654C210.577 420.818 209.897 420.42 209.71 419.741C209.663 419.6 209.64 419.436 209.663 419.272V419.249C210.272 414.19 213.949 411.684 218.469 410.56C221.537 409.787 224.98 409.694 228.048 409.858C227.135 408.593 226.479 407.328 225.917 406.181C225.378 405.08 224.886 404.12 224.371 403.698C220.202 400.185 217.509 398.944 216.033 399.014C215.612 399.014 215.401 399.201 215.331 399.459C215.167 399.998 215.331 400.794 215.729 401.707C216.783 404.026 219.453 406.602 223.223 407.141C223.903 407.234 224.394 407.867 224.301 408.569C224.207 409.249 223.598 409.717 222.919 409.67L222.052 409.6C217.415 409.202 212.45 408.78 208.609 407.141C204.792 405.525 202.754 403.206 202.099 400.888C201.747 399.6 201.818 398.358 202.263 397.187C202.661 396.04 203.434 395.009 204.464 394.166C206.759 392.293 210.46 391.332 214.956 392.269C216.127 392.527 217.251 392.902 218.352 393.393C219.453 393.885 220.53 394.494 221.561 395.22C222.896 396.157 224.067 396.672 224.98 396.789C225.495 396.859 225.917 396.789 226.198 396.602C226.502 396.391 226.736 396.04 226.877 395.501C227.135 394.541 227.111 393.136 226.713 391.286C226.455 390.161 225.776 389.248 225.003 388.241C222.076 384.33 218.118 379.084 225.94 355.055C226.479 353.345 226.83 351.589 226.947 349.903C227.041 348.427 226.971 347.022 226.713 345.757C226.549 346.296 226.385 346.811 226.198 347.326C223.739 354.704 219.5 356.273 215.752 355.008C213.715 354.329 211.888 352.783 210.6 350.886C209.312 348.989 208.563 346.717 208.727 344.586C209.008 340.488 212.333 336.998 220.999 337.607C221.842 337.654 222.614 337.818 223.34 338.052C224.277 338.357 225.12 338.802 225.823 339.364C230.507 320.089 232.662 289.245 229.43 261.539C228.633 262.734 227.814 263.952 226.971 265.193C219.968 275.474 211.701 287.653 201.466 307.185C199.452 311.049 197.344 314.609 195.213 317.864C194.487 361.144 194.628 414.659 199.827 419.108L340.674 450.374C341.353 450.538 341.775 451.217 341.634 451.896C341.47 452.575 340.791 453.02 340.112 452.856L198.984 421.521C198.843 421.497 198.679 421.427 198.539 421.333C192.543 417.258 192.052 365.149 192.637 321.658C185.892 331.26 179.171 338.099 174.604 342.76L174.159 343.205C174.58 346.53 174.814 350.184 174.861 353.814C174.932 360.535 174.346 367.304 173.152 372.198C176.665 375.173 177.11 377.819 177.601 380.512C178.257 384.283 178.936 388.218 192.005 394.26C192.426 394.471 192.707 394.869 192.754 395.29L193.831 404.799C193.902 405.501 193.41 406.134 192.707 406.204C192.473 406.227 192.239 406.181 192.052 406.11L77.7157 355.523C77.0833 355.242 76.7789 354.493 77.0599 353.861C77.2707 353.392 77.6923 353.111 78.1607 353.088C92.6341 351.261 110.644 359.692 127.202 367.444C142.355 374.54 156.266 381.051 164.299 378.241C164.697 377.023 165.025 375.805 165.283 374.564C160.856 373.205 157.179 369.786 154.346 365.243C150.926 359.809 148.725 352.713 147.858 345.734C147.437 342.338 147.32 338.942 147.554 335.757C147.928 330.3 148.842 326.787 149.849 325.195C149.872 325.148 149.919 325.101 149.943 325.054C150.224 323.579 150.692 322.103 151.441 320.628C151.605 320.3 151.886 320.066 152.191 319.972C159.732 317.607 160.271 314.234 161.09 309.129C161.395 307.255 161.723 305.147 162.402 302.805C163.643 298.426 165.728 297.512 168.468 296.294C172.754 294.421 178.89 291.728 185.939 268.191C186.126 267.535 186.852 267.137 187.532 267.348C187.813 267.441 188.047 267.629 188.211 267.863C196.595 280.416 189.733 288.87 182.051 298.355C174.58 307.583 166.266 317.841 172.145 334.047C172.543 335.125 172.871 336.342 173.175 337.654C173.503 337.35 173.831 337.022 174.135 336.67C175.072 335.616 176.149 333.111 177.203 330.651C178.562 327.42 179.92 324.281 181.63 323.602L191.443 307.934C191.981 306.88 192.473 305.826 192.918 304.772C193.152 292.196 193.457 281.212 193.668 273.554C193.714 271.657 193.761 269.994 193.808 268.542C190.881 257.98 186.033 247.815 181.7 238.752C177.976 231.023 174.651 224.044 173.128 218.142C171.676 212.498 171.84 207.838 174.744 204.489C172.566 190.156 175.119 179.476 178.421 165.705C181.349 153.527 184.862 138.889 186.079 116.968L172.519 140.131C172.449 140.224 172.379 140.318 172.309 140.412C142.706 171.326 143.877 183.504 145.001 195.238C145.469 200.062 145.938 204.816 144.439 210.695C143.783 213.318 142.565 215.753 141.347 216.995C140.762 217.58 140.13 217.955 139.474 218.049C138.654 218.166 137.905 217.861 137.296 217.088C136.827 216.48 136.453 215.449 136.219 213.95C136.125 214.138 136.008 214.301 135.891 214.465L136.008 214.676C137.155 216.643 138.022 218.119 135.867 223.95C134.743 226.995 133.338 229.829 131.16 231.609C128.865 233.506 125.867 234.185 121.698 232.71C120.457 232.265 119.614 231.468 119.028 230.227C102.026 243.085 76.17 258.378 51.017 273.249C34.7168 282.898 18.6976 292.36 5.69954 300.768C5.11404 301.142 4.31777 300.978 3.94305 300.393L3.89621 300.299C3.09994 298.871 2.16314 297.559 1.10925 296.341L0.640847 296.646C4.13041 302.501 5.72297 306.061 6.05084 307.887C6.49582 310.464 5.48877 311.236 3.49808 310.604C2.56128 310.3 1.27318 309.339 -0.178849 307.934C-4.60521 303.625 -11.1628 294.468 -13.0598 286.833C-13.13 286.575 -13.13 286.271 -13.0364 285.99C-12.7787 285.311 -12.0527 284.983 -11.397 285.24C-7.86057 286.575 -4.44127 288.308 -1.44352 290.557C-0.389627 291.329 0.59401 292.173 1.53081 293.086L115.328 221.562C115.281 221.491 115.258 221.398 115.234 221.304C112.564 213.318 124.649 180.553 128.42 170.366C128.841 169.195 129.169 168.305 129.333 167.86C160.763 78.7004 189.288 69.0982 209.265 62.3767C219.828 58.8169 227.884 56.1002 232.591 41.8375C228.235 28.8629 230.835 17.6916 236.69 10.7827C239.36 7.59761 242.709 5.32589 246.386 4.13148C250.086 2.93707 254.091 2.8668 258.072 4.10806C266.878 6.89502 275.52 16.2161 279.993 34.5539C280.649 37.1769 280.696 39.355 280.415 40.4791C280.227 41.2051 279.853 41.7204 279.337 41.9546C278.611 42.259 277.909 42.0717 277.3 41.2988C277.066 41.0178 276.808 40.5494 276.55 39.9171L276.597 40.1513C276.644 40.5728 276.504 40.9709 276.246 41.2286C276.082 41.3925 276.176 41.6267 275.801 42.5401C273.998 46.9664 269.173 58.8403 265.754 65.4682C265.403 66.1473 265.028 66.7797 264.653 67.3183C280.977 70.8313 299.408 77.0376 306.177 101.371C311.399 120.2 312.219 120.809 314.233 122.308C315.755 123.432 317.84 124.978 321.962 132.145C322.172 131.231 322.36 130.669 322.641 130.084C322.969 129.451 323.39 128.889 324.163 127.882C324.772 127.086 325.615 126.009 326.763 124.393C326.997 124.018 327.395 123.784 327.863 123.784C328.566 123.784 329.128 124.346 329.128 125.048C329.128 134.369 332.337 134.932 336.224 135.611L336.857 135.704C336.435 135.423 336.037 135.119 335.662 134.768C332.805 132.051 331.259 127.414 333.063 121.418C334.913 115.212 339.128 112.121 343.648 111.558H343.719C344.351 109.17 344.96 107.038 345.545 105.188C346.787 101.418 348.59 98.7478 350.3 97.6002C351.166 97.0381 352.033 96.7805 352.876 96.8976C353.789 97.0147 354.562 97.53 355.124 98.4902C356.038 99.9656 356.459 102.706 355.967 106.921C355.663 109.521 355.265 112.542 354.82 115.61C355.757 116.547 356.576 117.648 357.232 118.889C360.089 124.182 360.089 132.004 353.813 141.255C353.625 141.583 353.297 141.817 352.923 141.864L351.658 142.075C349.48 142.426 347.044 142.824 344.773 143.503C343.414 166.455 331.657 255.076 321.985 327.818C317.161 364.236 312.851 396.649 310.65 414.893C314.491 416.392 318.261 418.593 321.4 421.755C321.915 422.27 321.891 423.066 321.4 423.558C321.142 423.839 320.767 423.956 320.416 423.933L308.448 423.535C307.746 423.511 307.207 422.926 307.231 422.223C307.231 422.2 307.231 422.153 307.231 422.13C307.418 420.514 307.629 418.663 307.863 416.602C307.324 416.439 306.786 416.275 306.247 416.134C305.896 418.593 305.591 420.631 305.334 422.223C305.216 422.879 304.607 423.347 303.928 423.277C294.935 422.223 289.993 420.654 287.956 419.108C285.754 417.469 285.895 415.806 287.675 414.424C288.846 413.511 291.024 412.808 293.788 412.527C296.668 412.223 300.275 412.317 304.069 413.043C305.849 399.506 308.425 376.18 311.516 348.099C318.308 286.622 327.606 202.474 336.388 148.89C316.95 166.993 307.863 168.211 301.586 161.677C298.331 158.281 296.012 152.824 293.389 146.595C290.392 139.545 286.972 131.465 281.375 124.603C278.752 126.992 275.286 134.674 271.89 143.831C266.339 158.937 261.234 177.766 260.391 184.02C259.852 188.001 258.728 191.233 257.159 193.832C254.84 197.627 251.538 199.969 247.58 201.21C243.739 202.404 239.289 202.545 234.535 201.912C221.561 200.156 206.267 192.662 195.377 185.987C190.553 183.036 187.157 182.404 185.213 183.059C184.44 183.317 183.972 183.785 183.761 184.394C183.55 185.073 183.667 185.963 184.112 186.947C185.377 189.687 189.101 192.802 195.635 194.418C206.127 196.994 212.614 199.992 217.79 202.404C227.884 207.088 232.568 209.266 253.365 199.992C253.622 199.875 253.927 199.828 254.231 199.898C254.91 200.039 255.332 200.741 255.192 201.421C248.306 230.766 241.186 243.857 231.584 258.307C235.472 287.91 233.06 321.635 227.861 341.682C228.071 342.034 228.235 342.385 228.399 342.736C229.359 344.844 229.687 347.397 229.5 350.067C229.359 351.964 228.961 353.931 228.352 355.828C220.952 378.592 224.465 383.253 227.041 386.695C228.001 387.96 228.844 389.084 229.195 390.747C229.687 392.995 229.711 394.822 229.336 396.18C229.008 397.328 228.423 398.171 227.626 398.71C226.807 399.272 225.8 399.459 224.675 399.319C223.34 399.155 221.771 398.475 220.085 397.304C219.195 396.672 218.258 396.133 217.322 395.712C216.385 395.29 215.425 394.986 214.441 394.775C210.764 393.979 207.813 394.705 206.08 396.133C205.401 396.696 204.909 397.351 204.651 398.054C204.394 398.733 204.347 399.459 204.558 400.209C205.003 401.824 206.595 403.511 209.616 404.799C211.49 405.595 213.738 406.087 216.127 406.415C214.909 405.291 213.996 404.003 213.434 402.761C212.778 401.333 212.567 399.927 212.848 398.827C213.223 397.445 214.23 396.532 215.916 396.461C217.977 396.391 221.28 397.773 226.01 401.754C226.947 402.527 227.533 403.698 228.212 405.056C229.032 406.719 230.062 408.757 231.982 410.373C232.357 410.654 232.568 411.099 232.521 411.567C232.427 412.27 231.795 412.762 231.092 412.691L230.975 412.668C227.533 412.27 222.919 412.082 219.078 413.043C216.197 413.745 213.762 415.127 212.708 417.609C214.113 417.211 215.612 416.79 216.994 416.392C224.394 414.284 229.359 412.879 232.427 413.488C235.87 414.167 236.924 416.79 235.964 422.551C240.788 423.675 246.971 425.268 253.974 427.071C286.153 435.338 336.014 448.172 356.787 440.936C356.834 440.912 356.881 440.889 356.928 440.865C357.63 440.701 358.309 441.123 358.473 441.802C359.644 446.416 359.504 447.095 358.567 451.521L358.497 451.873Z" fill="#0759BA"/>
<path d="M335.686 451.967H-26.1748V449.414H335.686C336.412 449.414 336.974 449.976 336.974 450.678C336.974 451.381 336.412 451.967 335.686 451.967Z" fill="#59C8FF"/>
<path d="M192.309 254.35C193.363 256.317 194.44 258.354 195.588 260.439C197.555 264.045 199.756 266.059 201.958 266.832C203.621 267.418 205.33 267.301 206.946 266.645C208.656 265.966 210.272 264.678 211.654 262.991C214.675 259.385 216.666 253.975 216.478 248.424C216.244 241.937 213.574 235.356 209.991 231.679C208.656 230.321 207.204 229.384 205.729 229.056C204.347 228.752 202.895 229.009 201.49 229.993C198.609 232.007 195.869 236.831 193.738 245.614C193.176 247.979 192.707 250.719 192.356 253.928L192.309 254.35ZM-5.40167 293.531C-6.10427 292.875 -6.87712 292.243 -7.64998 291.657C-9.75777 290.088 -12.0998 288.777 -14.5354 287.699C-12.17 294.28 -6.83028 301.517 -3.0831 305.171C-2.40393 305.826 -1.81843 306.342 -1.32661 306.716C-1.88869 304.819 -3.57492 301.4 -6.87712 295.943C-7.22842 295.358 -7.04106 294.585 -6.45556 294.21L-5.40167 293.531ZM129.942 208.119C129.942 208.259 129.942 208.376 129.942 208.493L131.23 207.697C131.253 207.229 131.253 206.76 131.16 206.339C131.019 205.706 130.879 205.261 130.762 204.957C130.293 205.706 129.965 206.948 129.942 208.119ZM116.452 227.698C116.733 228.588 117.178 229.126 117.857 229.361C121.042 230.485 123.244 230.04 124.86 228.705C126.593 227.276 127.787 224.817 128.794 222.124C130.223 218.259 130.059 216.854 129.497 215.73C126.499 219.337 122.002 223.365 116.452 227.698ZM115.562 220.531C115.679 220.672 115.749 220.812 115.796 220.976C115.843 221.117 115.866 221.234 115.866 221.374C115.866 222.803 115.913 224.044 115.984 225.075C121.464 220.812 125.726 216.948 128.349 213.599C128.232 213.318 128.115 213.037 127.998 212.732L115.562 220.531ZM113.337 222.85C112.939 222.85 112.588 222.756 112.26 222.616L-1.39687 294.046C-0.624012 294.96 0.102003 295.92 0.757761 296.974C13.6387 288.683 29.1895 279.479 45.0448 270.111C70.5958 254.982 96.9198 239.431 113.642 226.878C113.454 225.754 113.361 224.419 113.337 222.85ZM233.95 11.4854C229.195 17.1061 226.806 25.8652 229.219 36.2402C229.359 35.6312 229.5 35.0223 229.64 34.3666C230.554 30.1042 235.94 24.6942 242.685 21.2983C246.128 19.5418 249.969 18.2771 253.716 17.9492C257.58 17.6214 261.351 18.2537 264.63 20.2678C267.018 21.7667 269.103 23.9682 270.719 27.0596C266.246 14.4363 259.477 7.76159 252.639 5.60696C249.172 4.50622 245.683 4.57648 242.474 5.60696C239.242 6.66085 236.315 8.67497 233.95 11.4854ZM232.732 42.142C234.863 39.2847 241.046 35.0926 247.837 32.3993C251.421 30.9707 255.215 29.9168 258.657 29.6826C262.288 29.4016 265.59 30.0105 268.049 31.9075C269.243 32.8443 270.203 34.0621 270.906 35.6312C270.883 35.4673 270.836 35.3268 270.812 35.1629C269.477 28.5584 266.714 24.5771 263.295 22.4459C260.531 20.7362 257.276 20.1975 253.95 20.502C250.531 20.8065 247.018 21.954 243.833 23.57C237.744 26.638 232.896 31.322 232.123 34.9052C231.654 37.0833 231.139 39.074 230.577 40.9007C230.647 41.0647 230.718 41.252 230.764 41.416C231.444 41.6736 232.099 41.9078 232.732 42.142ZM240.554 61.8147C241.702 62.2597 242.966 62.6578 244.325 63.0325C241.538 58.5359 242.1 55.6318 242.545 53.2898C243.013 50.7371 243.341 49.0977 234.02 45.3739C230.671 55.1166 233.996 59.3322 240.554 61.8147ZM254.044 65.1637C255.074 65.3745 256.152 65.5853 257.229 65.8195C257.768 65.1637 258.283 64.3674 258.798 63.3604C262.147 56.8731 266.948 45.046 268.751 40.6431C268.986 40.0576 269.173 39.5892 269.337 39.2379C268.915 36.7554 267.908 35.0458 266.48 33.9216C264.583 32.4461 261.866 32.0012 258.845 32.2119C255.66 32.4461 252.123 33.4298 248.774 34.7647C242.638 37.2004 237.135 40.7134 235.144 43.0788C246.222 47.5754 245.753 49.9876 245.051 53.7582C244.629 55.9129 244.114 58.6296 247.51 63.1965C247.72 63.4541 247.908 63.7117 248.095 63.9459C249.992 64.3674 251.983 64.7656 254.044 65.1637ZM253.669 67.6931L253.552 67.6696L252.498 67.4589C252.896 67.5994 253.294 67.6931 253.669 67.6931ZM312.289 420.326C310.205 418.757 307.956 417.516 305.638 416.556C305.497 417.82 305.357 419.015 305.216 420.092L312.289 420.326ZM298.331 419.647C298.542 418.242 298.799 416.556 299.057 414.612C295.474 413.933 292.078 413.815 289.361 414.12C287.066 414.354 285.356 414.869 284.536 415.502C284.349 415.642 284.396 415.876 284.771 416.157C286.41 417.375 290.579 418.663 298.331 419.647ZM338.355 113.315C335.123 114.041 332.219 116.547 330.814 121.207C329.339 126.149 330.486 129.849 332.711 131.957C333.18 132.402 333.718 132.777 334.257 133.081C335.639 125.493 337.02 118.819 338.355 113.315ZM346.669 112.097C347.068 112.285 347.442 112.519 347.817 112.776C348.168 110.27 348.473 107.858 348.73 105.68C349.152 102.097 348.894 99.8954 348.262 98.8649C348.121 98.6307 347.981 98.4902 347.84 98.4902C347.653 98.4434 347.372 98.5605 347.044 98.7712C345.756 99.6378 344.327 101.839 343.273 105.048C342.758 106.664 342.22 108.514 341.681 110.575C343.391 110.739 345.1 111.254 346.669 112.097ZM347.419 115.634C346.81 115.142 346.154 114.697 345.475 114.345C344.093 113.596 342.547 113.174 341.025 113.081C339.62 118.772 338.168 125.798 336.693 133.878C337.676 134.018 338.683 133.948 339.667 133.667C342.477 132.847 345.007 130.154 345.897 125.236C346.412 122.332 346.927 119.053 347.395 115.798L347.419 115.634ZM337.465 143.503C336.482 143.972 335.545 144.487 334.725 145.143C325.826 198.353 316.294 284.702 309.362 347.42C306.247 375.664 303.647 399.108 301.891 412.668C302.406 412.785 302.944 412.949 303.483 413.113C305.708 394.845 309.994 362.643 314.772 326.553C324.303 254.888 335.873 167.813 337.465 143.503ZM340.206 139.873C342.36 139.311 344.562 138.96 346.576 138.632L347.255 138.515C352.641 130.365 352.712 123.643 350.299 119.147C350.112 118.772 349.878 118.397 349.644 118.069C349.246 120.739 348.824 123.362 348.402 125.681C347.325 131.7 344.046 135.025 340.393 136.103C339.479 136.384 338.543 136.501 337.606 136.501C338.309 136.899 339.035 137.414 339.737 138.023C340.018 138.257 340.206 138.632 340.206 139.03C340.206 139.288 340.206 139.569 340.206 139.873ZM335.311 141.747C336.037 141.349 336.833 140.997 337.629 140.693C337.629 140.295 337.653 139.943 337.653 139.616C337.067 139.147 336.482 138.772 335.873 138.491C335.685 139.545 335.498 140.646 335.311 141.747ZM151.793 362.948C154.275 366.905 157.39 369.88 161.09 371.098C161.161 370.629 161.254 370.137 161.324 369.669C156.406 367.116 153.104 364.353 150.926 361.449C151.207 361.964 151.512 362.456 151.793 362.948ZM164.041 371.683C164.299 371.707 164.556 371.707 164.814 371.707C164.463 371.472 164.088 371.238 163.69 370.98C163.643 371.215 163.62 371.426 163.573 371.636C163.737 371.66 163.877 371.683 164.041 371.683ZM167.484 373.861C167.297 374.025 167.086 374.119 166.852 374.142C165.821 374.259 164.837 374.306 163.877 374.236C163.596 374.212 163.339 374.189 163.081 374.142C162.753 375.641 162.355 377.14 161.863 378.592C161.769 378.967 161.512 379.295 161.114 379.459C152.144 383.206 137.46 376.32 121.417 368.802C107.201 362.151 91.8611 354.961 79.0504 354.47L186.36 401.942L185.611 395.337C171.934 388.873 171.137 384.353 170.388 380.021C170.037 378.03 169.685 376.063 167.484 373.861ZM167.624 352.9C167.601 350.09 167.437 347.28 167.179 344.633C165.798 346.085 164.908 347.163 164.627 347.842C164.416 348.427 164.439 350.441 164.51 353.228C164.603 357.163 164.72 362.549 164.065 368.264C164.861 368.709 165.587 369.154 166.243 369.599C167.226 365.008 167.695 358.943 167.624 352.9ZM147.577 327.326C147.624 327.982 147.694 328.637 147.835 329.27C147.764 328.544 147.694 327.888 147.577 327.326ZM147.835 335.546C147.53 335.125 147.249 334.68 146.992 334.211C146.5 333.321 146.078 332.361 145.75 331.378C145.61 332.455 145.493 333.649 145.399 334.984C145.188 338.005 145.282 341.237 145.703 344.493C146.031 347.092 146.547 349.692 147.249 352.221C146.71 348.38 147.085 344.376 147.46 340.277C147.6 338.708 147.741 337.162 147.835 335.546ZM159.1 339.879C161.465 340.207 163.947 339.785 166.266 338.403C165.915 336.741 165.517 335.265 165.048 333.977C158.701 316.412 167.484 305.569 175.376 295.803C181.911 287.77 187.789 280.51 182.824 270.767C175.775 292.875 169.334 295.709 164.814 297.7C162.683 298.637 161.067 299.339 160.153 302.571C159.521 304.819 159.193 306.81 158.912 308.59C157.952 314.515 157.32 318.45 148.795 321.307C148.514 321.892 148.303 322.478 148.116 323.087C148.631 323.321 149.052 323.813 149.38 324.515C150.153 326.131 150.645 329.574 150.411 334.773C151.277 335.874 152.308 336.834 153.432 337.631C155.142 338.825 157.085 339.621 159.1 339.879ZM166.734 341.05C164.135 342.361 161.395 342.76 158.772 342.408C156.336 342.104 153.994 341.144 151.98 339.715C151.348 339.27 150.739 338.802 150.177 338.263C150.13 339.012 150.06 339.762 149.989 340.511C149.099 350.371 148.256 359.622 161.652 366.952C162.168 361.777 162.05 356.905 161.98 353.275C161.91 350.184 161.84 347.935 162.261 346.905C162.776 345.593 164.392 343.837 166.781 341.378L166.734 341.05ZM188.117 309.62L178.796 324.492C178.515 324.937 177.999 325.148 177.508 325.078C177.273 325.031 176.079 327.818 174.838 330.722C174.182 332.244 173.526 333.813 172.847 335.125C177.32 330.347 182.73 324.094 188 316.108C188.047 313.906 188.07 311.752 188.117 309.62ZM190.951 294.725C191.958 289.409 191.981 284.022 191.349 278.706C191.232 283.367 191.091 288.8 190.951 294.725ZM170.763 207.603C169.849 210.086 170.013 213.107 170.903 216.573C172.355 222.241 175.634 229.103 179.288 236.714C182.707 243.881 186.454 251.703 189.335 259.9C189.428 258.12 189.569 256.434 189.709 254.865C178.866 234.185 173.198 219.548 170.763 207.603ZM223.247 238.096C224.511 242.991 225.542 248.19 226.361 253.553C234.746 240.625 241.21 227.979 247.416 202.381C227.486 210.929 222.45 208.61 212.029 203.763C206.946 201.421 200.576 198.446 190.342 195.94C182.941 194.137 178.632 190.413 177.109 187.064C176.383 185.495 176.243 183.973 176.664 182.685C177.109 181.303 178.117 180.226 179.709 179.71C182.285 178.844 186.477 179.5 192.005 182.872C202.684 189.43 217.626 196.76 230.179 198.446C234.558 199.032 238.657 198.938 242.123 197.837C245.496 196.783 248.329 194.769 250.297 191.561C251.702 189.266 252.685 186.362 253.177 182.732C254.02 176.361 259.196 157.251 264.817 142.028C268.751 131.372 272.99 122.496 276.34 120.809C276.878 120.552 277.51 120.692 277.885 121.137C284.185 128.468 287.839 137.133 291.024 144.674C293.577 150.67 295.801 155.916 298.729 158.96C304.139 164.605 312.64 162.731 332.219 143.948L332.383 143.808C332.735 141.7 333.086 139.639 333.437 137.648C332.641 137.437 331.868 137.297 331.095 137.18C326.669 136.407 322.898 135.751 322.055 127.765C321.844 128.046 321.68 128.28 321.493 128.491C320.837 129.381 320.463 129.849 320.228 130.318C319.947 130.856 319.807 131.512 319.455 132.988C319.292 133.714 319.104 134.557 319.01 135.002C318.847 135.681 318.144 136.103 317.465 135.939C317.067 135.845 316.762 135.587 316.598 135.259C311.68 126.126 309.525 124.533 308.027 123.409C305.521 121.559 304.49 120.786 299.033 101.113C292.476 77.5294 273.998 71.9321 258.049 68.583C257.908 68.7001 257.744 68.8172 257.604 68.9343C256.479 69.7774 255.285 70.199 254.091 70.2458C252.896 70.2927 251.725 69.9882 250.578 69.4027C249.243 68.7235 247.931 67.6228 246.713 66.2645C244.137 65.6555 241.748 65.0232 239.641 64.2035C231.631 61.1589 227.556 56.1002 231.631 44.4605C230.999 44.2029 230.319 43.9687 229.617 43.7111C224.535 57.4117 216.174 60.2221 205.377 63.8522C185.892 70.4098 158.046 79.7777 127.038 167.766C126.85 168.305 126.546 169.148 126.101 170.296C122.494 180.132 110.925 211.491 112.845 219.243L127.459 210.063C127.412 209.477 127.389 208.821 127.389 208.095C127.412 206.339 128.045 204.372 128.841 203.271C129.216 202.779 129.637 202.404 130.129 202.24C130.808 201.983 131.488 202.076 132.12 202.592C132.729 203.083 133.291 204.09 133.642 205.8C133.806 206.503 133.806 207.229 133.689 208.002C133.712 208.119 133.736 208.212 133.759 208.329L133.9 211.14C134.017 212.967 134.251 214.02 134.556 214.512C134.649 214.465 134.743 214.372 134.837 214.255C135.773 213.341 136.71 211.351 137.272 209.149C138.654 203.669 138.232 199.149 137.787 194.535C136.593 182.24 135.375 169.499 165.657 137.836L181.793 110.294C182.145 109.685 182.941 109.474 183.55 109.849C183.948 110.083 184.182 110.528 184.159 110.973C183.245 136.032 179.381 152.122 176.196 165.354C173.128 178.235 170.692 188.352 172.379 201.514C173.948 200.46 175.962 199.617 178.468 198.961C185.096 197.252 190.951 197.463 196.103 199.196C202.965 201.491 208.539 206.456 213.012 213.271C217.438 219.993 220.788 228.541 223.247 238.096ZM224.254 256.762C223.411 250.485 222.263 244.419 220.788 238.705C218.399 229.431 215.143 221.14 210.904 214.676C206.712 208.306 201.56 203.692 195.307 201.608C190.599 200.015 185.213 199.851 179.1 201.421C176.29 202.147 174.252 203.2 172.824 204.535C174.791 216.128 179.896 230.227 190.248 250.392C190.552 248.424 190.88 246.644 191.278 245.028C193.55 235.567 196.688 230.25 200.038 227.908C202.075 226.48 204.206 226.105 206.267 226.574C208.258 226.995 210.132 228.189 211.818 229.923C215.823 233.998 218.773 241.258 219.008 248.354C219.218 254.537 216.994 260.579 213.621 264.631C211.958 266.645 209.991 268.167 207.907 269.01C205.729 269.9 203.41 270.041 201.115 269.245C198.328 268.261 195.635 265.872 193.339 261.657C192.871 260.767 192.403 259.9 191.934 259.057C191.841 260.673 191.77 262.383 191.723 264.186C191.723 265.029 191.677 266.059 191.653 267.23C194.979 279.315 195.822 291.985 190.74 304.398C190.693 306.88 190.646 309.433 190.599 312.033C191.934 309.831 193.246 307.513 194.51 305.077C204.815 285.428 213.129 273.179 220.155 262.828C221.584 260.743 222.942 258.729 224.254 256.762ZM220.413 341.237C219.757 340.464 218.914 339.855 217.86 339.528C217.345 339.364 216.759 339.247 216.15 339.2C209.335 338.731 206.759 341.05 206.572 343.813C206.455 345.359 207.04 347.069 208.024 348.521C209.007 349.996 210.389 351.167 211.865 351.659C214.324 352.479 217.228 351.191 219.101 345.593C219.546 344.235 219.991 342.783 220.413 341.237ZM353.789 450.936C353.649 451.639 352.993 452.06 352.29 451.92C351.611 451.779 351.166 451.123 351.307 450.421L351.377 450.069C352.103 446.603 352.29 445.713 351.634 442.809C329.503 449.39 280.485 436.767 248.657 428.593C241.116 426.65 234.558 424.963 229.523 423.816C228.844 423.675 228.422 423.02 228.54 422.34C229.5 417.516 229.125 415.431 227.251 415.057C224.769 414.565 220.038 415.9 213.012 417.914C211.209 418.429 209.242 418.968 206.572 419.694C205.892 419.881 205.19 419.483 205.003 418.804C204.979 418.663 204.956 418.499 204.979 418.336V418.312C205.588 413.253 209.265 410.747 213.762 409.623C216.83 408.85 220.296 408.757 223.364 408.921C222.427 407.656 221.795 406.391 221.233 405.244C220.67 404.143 220.202 403.183 219.687 402.761C215.495 399.248 212.825 398.007 211.326 398.077C210.928 398.077 210.694 398.265 210.623 398.522C210.483 399.061 210.647 399.857 211.045 400.771C212.099 403.089 214.769 405.665 218.516 406.204C219.218 406.298 219.71 406.93 219.593 407.633C219.499 408.312 218.914 408.78 218.235 408.733L217.368 408.663C212.731 408.265 207.766 407.843 203.925 406.204C200.108 404.565 198.047 402.269 197.415 399.951C197.063 398.663 197.133 397.422 197.555 396.251C197.977 395.103 198.726 394.073 199.78 393.229C202.052 391.356 205.775 390.396 210.272 391.332C211.42 391.59 212.567 391.965 213.668 392.457C214.769 392.948 215.846 393.557 216.876 394.283C218.211 395.22 219.359 395.735 220.296 395.852C220.811 395.923 221.209 395.852 221.514 395.665C221.818 395.454 222.052 395.103 222.193 394.564C222.45 393.604 222.404 392.176 222.005 390.349C221.771 389.225 221.092 388.311 220.319 387.281C217.392 383.393 213.434 378.124 221.233 354.118C221.795 352.409 222.146 350.652 222.263 348.966C222.357 347.49 222.286 346.085 222.029 344.82C221.841 345.359 221.678 345.874 221.514 346.39C219.031 353.767 214.792 355.336 211.045 354.071C209.031 353.392 207.204 351.846 205.916 349.949C204.628 348.052 203.878 345.781 204.019 343.65C204.3 339.551 207.649 336.061 216.314 336.67C217.157 336.717 217.93 336.881 218.633 337.092C219.593 337.42 220.413 337.865 221.139 338.427C225.823 319.152 227.977 288.308 224.745 260.603C223.926 261.797 223.106 263.015 222.263 264.256C215.26 274.537 206.993 286.716 196.782 306.248C194.745 310.112 192.637 313.672 190.506 316.927C189.803 360.207 189.92 413.722 195.143 418.172L335.967 449.437C336.646 449.601 337.091 450.28 336.927 450.959C336.786 451.639 336.107 452.084 335.428 451.92L194.3 420.584C194.136 420.56 193.995 420.49 193.855 420.396C187.836 416.321 187.344 364.212 187.929 320.721C181.185 330.324 174.486 337.162 169.92 341.823L169.475 342.268C169.896 345.593 170.13 349.247 170.154 352.877C170.247 359.598 169.662 366.343 168.468 371.262C171.957 374.236 172.425 376.882 172.894 379.576C173.55 383.346 174.252 387.281 187.321 393.323C187.742 393.534 188 393.932 188.047 394.354L189.124 403.862C189.218 404.565 188.702 405.197 188 405.267C187.766 405.291 187.555 405.244 187.344 405.174L73.0315 354.587C72.3758 354.306 72.0947 353.556 72.3758 352.9C72.5631 352.455 73.0081 352.174 73.4765 352.151C87.95 350.324 105.96 358.755 122.494 366.507C137.67 373.604 151.582 380.114 159.615 377.304C159.99 376.086 160.317 374.868 160.598 373.627C156.149 372.269 152.472 368.849 149.638 364.306C146.242 358.849 144.041 351.776 143.174 344.797C142.729 341.401 142.635 338.005 142.846 334.82C143.221 329.363 144.158 325.85 145.165 324.258C145.188 324.211 145.235 324.164 145.258 324.117C145.516 322.642 146.008 321.166 146.757 319.691C146.898 319.363 147.179 319.129 147.507 319.035C155.025 316.646 155.563 313.297 156.383 308.192C156.687 306.318 157.039 304.21 157.694 301.868C158.959 297.489 161.043 296.576 163.784 295.358C168.046 293.484 174.182 290.791 181.255 267.254C181.442 266.598 182.145 266.2 182.824 266.411C183.128 266.481 183.363 266.668 183.527 266.926C191.887 279.479 185.049 287.934 177.367 297.419C169.896 306.646 161.582 316.904 167.46 333.111C167.835 334.188 168.186 335.406 168.491 336.717C168.819 336.413 169.123 336.085 169.451 335.734C170.388 334.68 171.465 332.174 172.496 329.715C173.878 326.483 175.212 323.344 176.922 322.665L186.758 306.997C187.297 305.944 187.789 304.89 188.21 303.836C188.468 291.259 188.773 280.275 188.96 272.617C189.03 270.72 189.077 269.034 189.1 267.605C186.173 257.043 181.325 246.879 176.992 237.815C173.292 230.087 169.966 223.107 168.444 217.206C166.992 211.561 167.133 206.901 170.037 203.552C167.882 189.219 170.435 178.516 173.737 164.768C176.664 152.59 180.177 137.953 181.395 116.032L167.812 139.194C167.765 139.288 167.695 139.381 167.601 139.475C137.998 170.389 139.193 182.568 140.317 194.301C140.785 199.125 141.23 203.88 139.755 209.758C139.076 212.381 137.881 214.817 136.64 216.058C136.078 216.643 135.445 217.018 134.79 217.112C133.947 217.229 133.221 216.925 132.612 216.152C132.143 215.543 131.745 214.512 131.534 213.013C131.417 213.201 131.3 213.365 131.183 213.529L131.3 213.739C132.448 215.707 133.338 217.182 131.183 223.014C130.059 226.058 128.63 228.892 126.476 230.672C124.181 232.569 121.159 233.248 117.014 231.773C115.773 231.328 114.906 230.531 114.344 229.29C97.3414 242.148 71.4858 257.417 46.3328 272.289C30.0326 281.938 14.0134 291.423 1.01538 299.831C0.429878 300.206 -0.366398 300.042 -0.741116 299.456L-0.787951 299.363C-1.58423 297.934 -2.52102 296.599 -3.57492 295.405L-4.04332 295.709C-0.553755 301.564 1.0388 305.124 1.34326 306.951C1.81166 309.527 0.781179 310.3 -1.18609 309.644C-2.12288 309.363 -3.41098 308.403 -4.86301 306.997C-9.28937 302.688 -15.8704 293.531 -17.7439 285.896C-17.8376 285.638 -17.8376 285.334 -17.7205 285.03C-17.4863 284.374 -16.7369 284.046 -16.0811 284.304C-12.5447 285.638 -9.14885 287.372 -6.12769 289.62C-5.09721 290.393 -4.09016 291.236 -3.15336 292.149L110.62 220.625C110.597 220.555 110.574 220.461 110.527 220.367C107.88 212.381 119.965 179.617 123.712 169.429C124.157 168.258 124.485 167.368 124.649 166.923C156.055 77.7636 184.58 68.1615 204.581 61.44C215.143 57.8801 223.2 55.1634 227.884 40.9007C223.528 27.9261 226.151 16.7548 232.006 9.84597C234.676 6.66086 238.025 4.38913 241.701 3.19471C245.378 2.0003 249.407 1.93003 253.388 3.17129C262.194 5.95825 270.836 15.2794 275.309 33.6171C275.941 36.2402 276.012 38.4182 275.731 39.5424C275.543 40.2684 275.169 40.7836 274.63 41.0178C273.904 41.3223 273.201 41.1349 272.592 40.3621C272.358 40.081 272.124 39.6126 271.866 38.9803L271.913 39.2145C271.96 39.636 271.819 40.0342 271.538 40.2918C271.374 40.4558 271.492 40.6899 271.117 41.6033C269.314 46.0297 264.466 57.9036 261.07 64.5314C260.718 65.2106 260.344 65.8429 259.969 66.3816C276.269 69.8945 294.724 76.1008 301.469 100.434C306.692 119.264 307.535 119.873 309.525 121.371C311.048 122.496 313.156 124.041 317.277 131.208C317.488 130.294 317.652 129.732 317.957 129.147C318.284 128.514 318.706 127.952 319.479 126.945C320.088 126.149 320.908 125.072 322.078 123.456C322.289 123.081 322.687 122.847 323.156 122.847C323.858 122.847 324.444 123.409 324.444 124.112C324.444 133.433 327.652 133.995 331.517 134.674L332.149 134.768C331.751 134.487 331.353 134.182 330.978 133.831C328.097 131.114 326.575 126.477 328.378 120.481C330.229 114.275 334.444 111.184 338.964 110.622H339.035C339.643 108.233 340.252 106.102 340.861 104.252C342.079 100.481 343.906 97.811 345.615 96.6635C346.482 96.078 347.349 95.8438 348.192 95.9609C349.082 96.078 349.854 96.5932 350.44 97.5534C351.353 99.0289 351.751 101.769 351.26 105.985C350.955 108.584 350.58 111.605 350.135 114.673C351.072 115.61 351.892 116.711 352.548 117.952C355.382 123.245 355.382 131.067 349.128 140.318C348.941 140.623 348.613 140.88 348.215 140.927L346.974 141.138C344.772 141.489 342.36 141.887 340.088 142.566C338.73 165.518 326.973 254.139 317.301 326.881C312.453 363.299 308.167 395.712 305.942 413.956C309.806 415.431 313.554 417.656 316.715 420.818C317.207 421.31 317.207 422.13 316.715 422.621C316.434 422.902 316.083 423.02 315.732 422.996L303.764 422.598C303.062 422.575 302.5 421.989 302.523 421.286C302.523 421.263 302.546 421.216 302.546 421.193C302.71 419.577 302.921 417.727 303.179 415.666C302.64 415.478 302.078 415.338 301.539 415.197C301.211 417.656 300.907 419.694 300.649 421.286C300.532 421.942 299.923 422.411 299.244 422.34C290.227 421.286 285.286 419.717 283.248 418.172C281.047 416.532 281.187 414.869 282.991 413.488C284.162 412.574 286.34 411.872 289.08 411.591C291.961 411.286 295.567 411.38 299.385 412.106C301.141 398.569 303.741 375.243 306.832 347.162C313.624 285.685 322.922 201.538 331.681 147.953C312.266 166.057 303.155 167.274 296.879 160.74C293.647 157.344 291.328 151.888 288.682 145.658C285.707 138.608 282.288 130.529 276.691 123.667C274.068 126.055 270.578 133.737 267.206 142.894C261.632 158 256.526 176.83 255.683 183.083C255.168 187.064 254.044 190.296 252.475 192.896C250.156 196.666 246.83 199.032 242.896 200.273C239.032 201.467 234.582 201.608 229.828 200.976C216.876 199.219 201.583 191.725 190.67 185.05C185.868 182.099 182.449 181.467 180.505 182.123C179.756 182.38 179.264 182.849 179.077 183.458C178.866 184.137 178.96 185.027 179.405 186.01C180.669 188.75 184.393 191.865 190.927 193.481C201.419 196.034 207.93 199.055 213.082 201.444C223.176 206.128 227.884 208.306 248.657 199.055C248.915 198.938 249.219 198.891 249.547 198.961C250.226 199.102 250.648 199.805 250.484 200.484C243.622 229.829 236.479 242.921 226.9 257.371C230.764 286.95 228.376 320.698 223.176 340.745C223.364 341.097 223.551 341.448 223.715 341.799C224.652 343.907 224.98 346.46 224.792 349.13C224.675 351.027 224.277 352.994 223.668 354.891C216.268 377.655 219.757 382.316 222.357 385.758C223.293 387.023 224.137 388.124 224.511 389.81C225.003 392.058 225.003 393.862 224.628 395.243C224.324 396.391 223.738 397.234 222.919 397.773C222.122 398.335 221.115 398.522 219.968 398.382C218.633 398.218 217.087 397.539 215.401 396.368C214.511 395.735 213.574 395.197 212.614 394.775C211.701 394.354 210.74 394.049 209.757 393.838C206.08 393.042 203.129 393.768 201.372 395.197C200.693 395.759 200.201 396.414 199.944 397.117C199.71 397.796 199.663 398.522 199.874 399.272C200.319 400.888 201.888 402.574 204.932 403.862C206.782 404.658 209.054 405.15 211.443 405.478C210.225 404.354 209.288 403.042 208.726 401.825C208.071 400.396 207.883 398.991 208.164 397.89C208.539 396.508 209.523 395.595 211.232 395.525C213.27 395.454 216.595 396.836 221.326 400.794C222.263 401.59 222.825 402.738 223.504 404.12C224.347 405.782 225.354 407.82 227.298 409.436C227.65 409.717 227.884 410.162 227.814 410.63C227.743 411.333 227.111 411.825 226.408 411.755L226.291 411.731C222.848 411.333 218.235 411.146 214.37 412.106C211.513 412.808 209.078 414.19 208.024 416.673C209.429 416.275 210.904 415.853 212.31 415.455C219.71 413.347 224.675 411.942 227.743 412.551C231.186 413.23 232.24 415.853 231.28 421.614C236.104 422.738 242.287 424.308 249.29 426.134C281.445 434.402 331.329 447.236 352.079 439.976C352.126 439.976 352.196 439.952 352.243 439.929C352.922 439.765 353.625 440.186 353.789 440.865C354.937 445.479 354.796 446.135 353.883 450.585L353.789 450.936Z" fill="#59C8FF"/>
<path d="M331.353 450.444H-31.0229V447.868H331.353C332.056 447.868 332.641 448.453 332.641 449.156C332.641 449.859 332.056 450.444 331.353 450.444Z" fill="#FEFEFE"/>
<path d="M187.976 252.827C189.03 254.795 190.107 256.832 191.232 258.916C193.199 262.523 195.4 264.537 197.625 265.31C199.288 265.896 200.998 265.778 202.614 265.123C204.3 264.444 205.916 263.155 207.321 261.469C210.319 257.863 212.309 252.453 212.122 246.902C211.911 240.415 209.241 233.834 205.658 230.157C204.323 228.799 202.871 227.838 201.396 227.534C200.014 227.229 198.562 227.487 197.157 228.471C194.276 230.485 191.513 235.309 189.405 244.092C188.843 246.457 188.374 249.197 188.023 252.382L187.976 252.827ZM-9.73443 292.009C-10.4605 291.353 -11.2099 290.721 -12.0062 290.135C-14.114 288.566 -16.4325 287.255 -18.8916 286.177C-16.5262 292.758 -11.163 299.995 -7.43929 303.648C-6.76011 304.304 -6.15119 304.819 -5.65937 305.194C-6.22145 303.297 -7.90768 299.878 -11.2099 294.421C-11.5612 293.836 -11.3738 293.063 -10.7883 292.688L-9.73443 292.009ZM125.586 206.596C125.586 206.737 125.586 206.854 125.586 206.971L126.874 206.175C126.921 205.683 126.897 205.238 126.803 204.817C126.686 204.184 126.546 203.739 126.429 203.435C125.96 204.184 125.609 205.425 125.586 206.596ZM112.096 226.175C112.4 227.065 112.845 227.604 113.524 227.838C116.686 228.962 118.888 228.517 120.504 227.183C122.26 225.754 123.454 223.295 124.438 220.602C125.89 216.714 125.726 215.332 125.164 214.208C122.143 217.815 117.67 221.843 112.096 226.175ZM111.229 219.009C111.323 219.149 111.417 219.29 111.463 219.454C111.51 219.571 111.534 219.712 111.534 219.852C111.534 221.281 111.557 222.499 111.651 223.552C117.131 219.29 121.393 215.426 124.017 212.077C123.876 211.796 123.759 211.515 123.665 211.187L111.229 219.009ZM109.004 221.328C108.606 221.328 108.255 221.234 107.927 221.093L-5.72964 292.501C-4.95678 293.437 -4.25418 294.398 -3.59842 295.451C9.30593 287.137 24.8567 277.957 40.6886 268.589C66.2631 253.46 92.587 237.885 109.309 225.356C109.121 224.232 109.028 222.897 109.004 221.328ZM229.593 9.96313C224.863 15.5839 222.474 24.3429 224.863 34.6945C225.003 34.109 225.144 33.4767 225.284 32.8444C226.197 28.5585 231.607 23.1719 238.329 19.7526C241.795 18.0196 245.636 16.7549 249.383 16.427C253.224 16.0991 257.018 16.7315 260.297 18.7456C262.662 20.221 264.77 22.4459 266.386 25.5374C261.913 12.914 255.144 6.23936 248.282 4.08473C244.816 2.984 241.327 3.05426 238.118 4.08473C234.91 5.13863 231.959 7.15274 229.593 9.96313ZM228.375 40.6198C230.53 37.7625 236.713 33.5704 243.481 30.8771C247.088 29.4485 250.859 28.3946 254.325 28.1604C257.955 27.8793 261.257 28.4883 263.693 30.3853C264.887 31.3221 265.871 32.5399 266.573 34.0856C266.526 33.9451 266.503 33.7811 266.48 33.6406C265.121 27.0362 262.381 23.0314 258.962 20.9236C256.198 19.214 252.943 18.6753 249.594 18.9798C246.175 19.2608 242.662 20.4318 239.477 22.0244C233.387 25.1158 228.539 29.7998 227.79 33.383C227.322 35.5611 226.806 37.5518 226.244 39.3551C226.315 39.5424 226.361 39.7298 226.432 39.8937C227.111 40.1514 227.767 40.3856 228.375 40.6198ZM236.198 60.2924C237.369 60.7374 238.633 61.1356 239.992 61.5103C237.205 57.0137 237.743 54.1096 238.188 51.7676C238.68 49.2148 239.008 47.5755 229.664 43.8517C226.315 53.5944 229.64 57.8099 236.198 60.2924ZM249.688 63.6415C250.741 63.8523 251.795 64.0631 252.873 64.2973C253.411 63.6415 253.95 62.8452 254.465 61.8382C257.814 55.3509 262.615 43.5238 264.419 39.1209C264.653 38.5354 264.84 38.067 264.981 37.7157C264.583 35.2332 263.552 33.5001 262.147 32.3994C260.227 30.9239 257.533 30.4789 254.512 30.6897C251.304 30.9239 247.791 31.9076 244.418 33.2425C238.306 35.6782 232.802 39.1911 230.811 41.5565C241.865 46.0532 241.42 48.4654 240.694 52.236C240.296 54.3906 239.781 57.1074 243.177 61.6742C243.364 61.9318 243.552 62.1895 243.762 62.4237C245.636 62.8452 247.627 63.2434 249.688 63.6415ZM249.336 66.1708L249.219 66.1474L248.165 65.9366C248.563 66.0772 248.938 66.1474 249.336 66.1708ZM307.956 418.804C305.872 417.211 303.6 415.994 301.305 415.033C301.141 416.298 301.001 417.492 300.883 418.57L307.956 418.804ZM293.975 418.125C294.209 416.72 294.443 415.033 294.701 413.09C291.117 412.387 287.721 412.293 285.005 412.598C282.733 412.832 281.023 413.347 280.204 413.979C280.016 414.12 280.063 414.331 280.438 414.612C282.077 415.853 286.246 417.141 293.975 418.125ZM334.023 111.769C330.791 112.519 327.863 115.025 326.481 119.685C324.983 124.627 326.154 128.327 328.378 130.435C328.847 130.88 329.362 131.255 329.924 131.559C331.306 123.948 332.688 117.296 334.023 111.769ZM342.337 110.552C342.735 110.762 343.109 110.996 343.484 111.254C343.835 108.748 344.14 106.336 344.398 104.158C344.819 100.575 344.562 98.3732 343.929 97.3427C343.789 97.1085 343.625 96.968 343.508 96.9446C343.297 96.9211 343.039 97.0383 342.688 97.249C341.423 98.1156 339.995 100.317 338.941 103.526C338.402 105.142 337.863 106.992 337.325 109.053C339.058 109.217 340.768 109.732 342.337 110.552ZM343.086 114.111C342.477 113.596 341.821 113.175 341.142 112.823C339.737 112.074 338.215 111.652 336.692 111.559C335.287 117.25 333.835 124.276 332.36 132.355C333.343 132.496 334.35 132.426 335.334 132.145C338.121 131.325 340.674 128.632 341.54 123.713C342.079 120.809 342.594 117.531 343.063 114.275L343.086 114.111ZM333.133 141.981C332.126 142.426 331.212 142.965 330.392 143.62C321.493 196.83 311.961 283.179 305.029 345.898C301.914 374.142 299.314 397.586 297.534 411.122C298.073 411.263 298.612 411.427 299.15 411.591C301.375 393.323 305.638 361.121 310.439 325.031C319.947 253.366 331.517 166.291 333.133 141.981ZM335.873 138.351C338.004 137.789 340.205 137.438 342.22 137.11L342.922 136.993C348.309 128.842 348.379 122.121 345.967 117.624C345.756 117.25 345.545 116.875 345.288 116.524C344.889 119.217 344.468 121.84 344.07 124.158C342.992 130.177 339.69 133.503 336.037 134.58C335.123 134.861 334.187 134.978 333.25 134.978C333.976 135.377 334.678 135.868 335.381 136.501C335.685 136.735 335.873 137.11 335.873 137.508C335.873 137.765 335.873 138.046 335.873 138.351ZM330.955 140.224C331.704 139.826 332.477 139.475 333.273 139.171C333.297 138.772 333.32 138.421 333.32 138.093C332.734 137.625 332.149 137.25 331.517 136.969C331.329 138.023 331.142 139.124 330.955 140.224ZM147.46 361.425C149.919 365.36 153.057 368.358 156.757 369.575C156.828 369.107 156.898 368.615 156.968 368.147C152.05 365.594 148.748 362.83 146.57 359.926C146.874 360.442 147.155 360.933 147.46 361.425ZM159.685 370.161C159.943 370.184 160.224 370.184 160.481 370.184C160.13 369.95 159.755 369.716 159.357 369.458C159.31 369.692 159.263 369.903 159.24 370.114C159.381 370.137 159.544 370.161 159.685 370.161ZM163.151 372.339C162.964 372.479 162.73 372.597 162.495 372.62C161.488 372.737 160.505 372.76 159.521 372.69C159.263 372.69 159.006 372.667 158.748 372.62C158.42 374.119 158.022 375.594 157.53 377.07C157.437 377.444 157.179 377.772 156.781 377.936C147.811 381.683 133.127 374.798 117.084 367.28C102.868 360.606 87.5283 353.439 74.6942 352.947L182.004 400.419L181.255 393.815C167.601 387.351 166.805 382.831 166.055 378.498C165.704 376.508 165.353 374.54 163.151 372.339ZM163.292 351.378C163.245 348.568 163.104 345.757 162.847 343.111C161.465 344.563 160.552 345.64 160.294 346.319C160.06 346.882 160.107 348.896 160.177 351.706C160.27 355.641 160.388 361.027 159.732 366.742C160.528 367.187 161.231 367.632 161.886 368.077C162.87 363.486 163.338 357.42 163.292 351.378ZM143.244 325.804C143.268 326.459 143.361 327.115 143.502 327.747C143.432 326.998 143.338 326.366 143.244 325.804ZM143.478 334.024C143.197 333.602 142.916 333.157 142.659 332.689C142.143 331.799 141.745 330.839 141.417 329.855C141.277 330.909 141.136 332.127 141.043 333.462C140.832 336.483 140.949 339.715 141.347 342.97C141.675 345.57 142.19 348.17 142.893 350.699C142.378 346.858 142.729 342.853 143.104 338.755C143.244 337.186 143.408 335.617 143.478 334.024ZM154.767 338.357C157.132 338.685 159.591 338.24 161.91 336.881C161.582 335.218 161.184 333.72 160.715 332.455C154.345 314.89 163.151 304.047 171.044 294.28C177.578 286.247 183.456 278.987 178.491 269.221C171.418 291.353 165.001 294.187 160.481 296.178C158.35 297.091 156.734 297.817 155.821 301.049C155.165 303.274 154.86 305.288 154.556 307.068C153.619 312.993 152.963 316.927 144.462 319.761C144.181 320.37 143.947 320.956 143.783 321.541C144.275 321.799 144.72 322.291 145.048 322.993C145.82 324.609 146.312 328.052 146.078 333.251C146.945 334.352 147.952 335.312 149.076 336.108C150.785 337.303 152.729 338.099 154.767 338.357ZM162.402 339.528C159.802 340.839 157.062 341.237 154.439 340.886C152.003 340.558 149.661 339.621 147.624 338.193C147.015 337.748 146.406 337.279 145.844 336.741C145.774 337.49 145.703 338.24 145.656 338.966C144.743 348.849 143.9 358.1 157.296 365.43C157.811 360.254 157.718 355.36 157.624 351.753C157.554 348.638 157.507 346.413 157.928 345.383C158.444 344.071 160.06 342.315 162.449 339.856L162.402 339.528ZM183.761 308.075L174.439 322.97C174.158 323.415 173.643 323.626 173.151 323.555C172.917 323.508 171.746 326.295 170.505 329.199C169.849 330.722 169.193 332.291 168.514 333.602C172.987 328.825 178.397 322.572 183.667 314.586C183.69 312.384 183.737 310.229 183.761 308.075ZM186.618 293.203C187.625 287.863 187.648 282.5 187.016 277.184C186.899 281.845 186.758 287.255 186.618 293.203ZM166.43 206.081C165.493 208.564 165.68 211.585 166.57 215.051C168.022 220.719 171.301 227.581 174.955 235.192C178.374 242.359 182.098 250.181 185.002 258.378C185.096 256.598 185.213 254.912 185.377 253.343C174.51 232.663 168.866 218.025 166.43 206.081ZM218.914 236.55C220.179 241.469 221.209 246.668 222.029 252.031C230.413 239.103 236.877 226.456 243.083 200.859C223.153 209.407 218.094 207.065 207.672 202.24C202.614 199.898 196.22 196.924 185.986 194.418C178.608 192.615 174.299 188.891 172.753 185.542C172.051 183.973 171.91 182.451 172.308 181.162C172.753 179.781 173.784 178.703 175.376 178.188C177.929 177.322 182.121 177.977 187.672 181.35C198.351 187.907 213.27 195.238 225.846 196.924C230.226 197.51 234.324 197.392 237.79 196.315C241.163 195.261 243.973 193.247 245.964 190.039C247.346 187.743 248.353 184.839 248.821 181.209C249.688 174.839 254.863 155.728 260.484 140.506C264.395 129.85 268.634 120.973 272.007 119.287C272.545 119.03 273.154 119.17 273.529 119.615C279.829 126.945 283.506 135.611 286.691 143.152C289.22 149.147 291.445 154.394 294.373 157.438C299.783 163.082 308.308 161.209 327.887 142.426L328.027 142.285C328.378 140.178 328.753 138.117 329.104 136.103C328.308 135.915 327.512 135.775 326.762 135.658C322.313 134.885 318.542 134.229 317.722 126.243C317.512 126.5 317.324 126.758 317.16 126.969C316.481 127.835 316.13 128.327 315.896 128.772C315.615 129.334 315.451 129.99 315.123 131.465C314.959 132.191 314.771 133.035 314.654 133.48C314.49 134.159 313.811 134.58 313.132 134.416C312.734 134.323 312.429 134.065 312.266 133.737C307.347 124.603 305.193 123.011 303.67 121.887C301.188 120.037 300.134 119.264 294.677 99.591C288.143 76.0072 269.665 70.3864 253.716 67.0608C253.552 67.1779 253.411 67.295 253.271 67.4121C252.147 68.2552 250.952 68.6768 249.734 68.7236C248.563 68.7705 247.369 68.466 246.221 67.8805C244.887 67.2013 243.598 66.1006 242.381 64.7188C239.804 64.1333 237.416 63.4776 235.308 62.6813C227.298 59.6367 223.223 54.578 227.298 42.9149C226.666 42.6807 225.987 42.4465 225.284 42.1889C220.202 55.8895 211.841 58.6999 201.044 62.33C181.536 68.8876 153.713 78.2555 122.705 166.244C122.518 166.783 122.19 167.626 121.768 168.773C118.138 178.61 106.569 209.969 108.513 217.721L123.127 208.54C123.08 207.955 123.033 207.299 123.056 206.573C123.08 204.817 123.689 202.849 124.485 201.749C124.86 201.257 125.305 200.882 125.796 200.718C126.476 200.46 127.155 200.554 127.787 201.069C128.396 201.561 128.935 202.568 129.309 204.278C129.45 204.98 129.45 205.706 129.356 206.479C129.38 206.573 129.403 206.69 129.403 206.807L129.567 209.618C129.661 211.421 129.895 212.498 130.223 212.99C130.293 212.943 130.387 212.85 130.504 212.732C131.417 211.796 132.377 209.805 132.939 207.627C134.321 202.147 133.876 197.627 133.431 193.013C132.26 180.717 131.019 167.954 161.324 136.29L177.461 108.772C177.812 108.163 178.585 107.952 179.194 108.303C179.615 108.561 179.849 109.006 179.826 109.451C178.889 134.51 175.048 150.6 171.863 163.832C168.772 176.713 166.36 186.83 168.022 199.992C169.615 198.938 171.629 198.095 174.135 197.439C180.739 195.73 186.594 195.94 191.77 197.673C198.609 199.945 204.206 204.934 208.679 211.749C213.106 218.47 216.455 226.995 218.914 236.55ZM219.921 255.24C219.054 248.963 217.93 242.874 216.455 237.183C214.066 227.885 210.811 219.618 206.548 213.154C202.379 206.784 197.227 202.17 190.974 200.086C186.243 198.493 180.88 198.329 174.767 199.898C171.957 200.624 169.919 201.678 168.491 203.013C170.458 214.606 175.564 228.705 185.915 248.869C186.196 246.902 186.548 245.122 186.946 243.506C189.217 234.045 192.356 228.728 195.705 226.386C197.742 224.958 199.874 224.583 201.934 225.028C203.902 225.473 205.799 226.667 207.485 228.4C211.466 232.475 214.441 239.712 214.675 246.808C214.886 253.015 212.637 259.057 209.288 263.109C207.602 265.099 205.658 266.645 203.55 267.488C201.372 268.378 199.054 268.519 196.782 267.722C193.995 266.739 191.302 264.35 189.007 260.134C188.538 259.244 188.07 258.378 187.601 257.535C187.508 259.151 187.438 260.86 187.391 262.664C187.367 263.507 187.344 264.537 187.32 265.708C190.623 277.793 191.466 290.463 186.407 302.876C186.36 305.358 186.313 307.911 186.243 310.51C187.601 308.309 188.913 305.99 190.178 303.555C200.482 283.905 208.796 271.657 215.822 261.305C217.228 259.221 218.609 257.207 219.921 255.24ZM216.057 339.715C215.401 338.942 214.558 338.333 213.504 338.005C212.989 337.841 212.427 337.724 211.818 337.678C205.002 337.209 202.426 339.528 202.239 342.291C202.122 343.837 202.707 345.547 203.691 346.999C204.675 348.474 206.056 349.645 207.508 350.137C209.991 350.957 212.872 349.668 214.769 344.048C215.214 342.713 215.658 341.261 216.057 339.715ZM349.456 449.414C349.316 450.093 348.637 450.538 347.957 450.397C347.255 450.257 346.833 449.578 346.974 448.899L347.044 448.547C347.77 445.081 347.957 444.191 347.302 441.287C325.17 447.868 276.152 435.245 244.324 427.071C236.783 425.127 230.226 423.441 225.167 422.294C224.511 422.153 224.066 421.474 224.207 420.818C225.167 415.97 224.792 413.909 222.895 413.535C220.436 413.043 215.705 414.378 208.679 416.392C206.876 416.884 204.909 417.446 202.239 418.172C201.56 418.359 200.857 417.961 200.67 417.282C200.623 417.141 200.623 416.977 200.623 416.813V416.79H200.646H200.623C201.232 411.731 204.909 409.225 209.429 408.101C212.497 407.328 215.963 407.235 219.008 407.398C218.094 406.134 217.462 404.846 216.9 403.722C216.338 402.621 215.869 401.661 215.354 401.239C211.162 397.726 208.469 396.485 206.993 396.555C206.595 396.555 206.361 396.742 206.291 397C206.15 397.539 206.291 398.335 206.712 399.225C207.766 401.544 210.412 404.143 214.183 404.682C214.886 404.775 215.354 405.408 215.26 406.11C215.167 406.79 214.558 407.258 213.902 407.211L213.012 407.141C208.398 406.743 203.41 406.321 199.592 404.682C195.752 403.042 193.714 400.747 193.082 398.405C192.73 397.141 192.801 395.876 193.222 394.728C193.644 393.581 194.393 392.55 195.424 391.684C197.719 389.834 201.443 388.85 205.939 389.81C207.087 390.068 208.211 390.443 209.312 390.911C210.436 391.426 211.49 392.035 212.52 392.761C213.879 393.698 215.026 394.213 215.963 394.33C216.478 394.4 216.876 394.33 217.181 394.143C217.462 393.932 217.696 393.581 217.837 393.042C218.118 392.082 218.071 390.653 217.673 388.827C217.438 387.679 216.736 386.789 215.986 385.759C213.059 381.871 209.078 376.601 216.9 352.596C217.438 350.886 217.79 349.13 217.907 347.444C218.024 345.968 217.954 344.563 217.673 343.298C217.509 343.837 217.345 344.352 217.181 344.867C214.698 352.245 210.459 353.814 206.712 352.549C204.698 351.87 202.848 350.324 201.583 348.427C200.295 346.53 199.546 344.259 199.686 342.104C199.967 338.029 203.293 334.539 211.982 335.148C212.825 335.195 213.598 335.336 214.3 335.57C215.26 335.874 216.08 336.343 216.806 336.905C221.49 317.63 223.621 286.786 220.389 259.057C219.593 260.275 218.773 261.469 217.93 262.71C210.928 273.015 202.66 285.194 192.426 304.726C190.412 308.59 188.304 312.126 186.173 315.405C185.47 358.685 185.587 412.2 190.81 416.649L331.634 447.915C332.313 448.079 332.758 448.735 332.594 449.437C332.453 450.116 331.774 450.538 331.072 450.397L189.943 419.062C189.803 419.015 189.662 418.968 189.522 418.874C183.503 414.799 183.011 362.69 183.597 319.199C176.852 328.801 170.13 335.64 165.587 340.277L165.118 340.746C165.563 344.071 165.774 347.725 165.821 351.355C165.891 358.053 165.329 364.821 164.111 369.739C167.624 372.714 168.093 375.36 168.561 378.053C169.217 381.824 169.896 385.759 182.988 391.801C183.409 392.012 183.667 392.386 183.714 392.831L184.791 402.34C184.861 403.042 184.37 403.675 183.667 403.745C183.433 403.768 183.222 403.722 183.011 403.628L68.6753 353.064C68.043 352.783 67.7385 352.034 68.0196 351.378C68.2304 350.933 68.6753 350.652 69.1437 350.629C83.5938 348.802 101.604 357.233 118.162 364.985C133.338 372.081 147.226 378.592 155.282 375.782C155.657 374.564 155.985 373.323 156.266 372.105C151.816 370.746 148.139 367.304 145.305 362.784C141.909 357.327 139.684 350.254 138.818 343.275C138.396 339.879 138.279 336.483 138.513 333.298C138.888 327.841 139.825 324.305 140.809 322.736C140.855 322.689 140.879 322.642 140.926 322.595C141.183 321.12 141.675 319.644 142.401 318.169C142.565 317.841 142.846 317.607 143.151 317.513C150.692 315.124 151.23 311.775 152.05 306.67C152.355 304.773 152.682 302.688 153.362 300.346C154.603 295.967 156.711 295.03 159.451 293.836C163.713 291.962 169.849 289.269 176.899 265.732C177.109 265.052 177.812 264.678 178.491 264.889C178.796 264.959 179.03 265.146 179.194 265.404V265.38C187.555 277.957 180.693 286.411 173.011 295.896C165.54 305.124 157.226 315.382 163.104 331.588C163.502 332.666 163.854 333.86 164.158 335.172C164.486 334.891 164.791 334.563 165.095 334.211C166.055 333.157 167.109 330.652 168.163 328.192C169.545 324.961 170.88 321.822 172.589 321.143L182.402 305.475C182.941 304.421 183.433 303.367 183.878 302.313C184.135 289.737 184.416 278.73 184.627 271.071C184.674 269.198 184.721 267.512 184.768 266.083C181.84 255.497 176.992 245.356 172.66 236.293C168.959 228.564 165.61 221.585 164.111 215.683C162.659 210.039 162.8 205.379 165.704 202.03C163.526 187.697 166.102 176.994 169.404 163.246C172.308 151.068 175.821 136.407 177.039 114.509L163.479 137.672C163.409 137.765 163.338 137.859 163.268 137.953C133.665 168.867 134.836 181.045 135.961 192.779C136.429 197.603 136.897 202.357 135.399 208.236C134.743 210.835 133.525 213.295 132.307 214.536C131.722 215.121 131.089 215.496 130.434 215.59C129.614 215.683 128.864 215.402 128.279 214.629C127.787 213.997 127.412 212.99 127.202 211.491C127.085 211.655 126.967 211.843 126.85 212.006L126.967 212.217C128.115 214.161 128.982 215.66 126.85 221.492C125.703 224.536 124.298 227.37 122.119 229.15C119.824 231.047 116.827 231.726 112.681 230.251C111.417 229.806 110.574 229.009 110.011 227.768C92.9852 240.602 67.1296 255.895 42.0001 270.767C25.6764 280.416 9.65723 289.901 -3.31739 298.309C-3.9263 298.683 -4.69916 298.52 -5.0973 297.934L-5.14414 297.84C-5.94041 296.412 -6.87721 295.077 -7.90768 293.882L-8.3995 294.187C-4.90994 300.042 -3.31739 303.602 -2.98951 305.428C-2.54453 308.005 -3.55159 308.777 -5.54228 308.122C-6.47907 307.817 -7.76717 306.88 -9.19578 305.475C-13.6456 301.143 -20.2031 292.009 -22.0767 284.374C-22.1704 284.116 -22.1704 283.812 -22.0767 283.507C-21.8191 282.852 -21.0697 282.524 -20.4139 282.781C-16.9009 284.116 -13.4816 285.849 -10.4839 288.098C-9.42998 288.87 -8.44634 289.714 -7.50955 290.627L106.288 219.103C106.264 219.009 106.217 218.939 106.194 218.845C103.524 210.859 115.632 178.071 119.379 167.907C119.824 166.712 120.129 165.846 120.293 165.401C151.722 76.2414 180.248 66.6392 200.248 59.9177C210.787 56.3579 218.867 53.6412 223.551 39.3785C219.195 26.3805 221.818 15.2326 227.649 8.30032C230.319 5.13863 233.668 2.8669 237.345 1.67249C241.046 0.478073 245.074 0.407826 249.055 1.64908C257.861 4.43605 266.48 13.7572 270.976 32.0715C271.609 34.7179 271.655 36.896 271.374 37.9967C271.21 38.7462 270.836 39.2614 270.297 39.4956C269.571 39.8001 268.868 39.6127 268.26 38.8398C268.025 38.5588 267.791 38.0904 267.534 37.4581L267.557 37.6923C267.627 38.1138 267.487 38.4885 267.206 38.7696C267.042 38.9335 267.135 39.1443 266.784 40.0811C264.981 44.5075 260.133 56.3813 256.714 63.0092C256.362 63.6883 256.011 64.3207 255.636 64.8593C271.936 68.3723 290.391 74.5786 297.136 98.9118C302.359 117.741 303.202 118.35 305.193 119.826C306.715 120.973 308.799 122.519 312.921 129.686C313.155 128.772 313.319 128.21 313.624 127.625C313.952 126.992 314.373 126.43 315.146 125.423C315.732 124.627 316.575 123.55 317.722 121.934C317.957 121.559 318.355 121.325 318.823 121.325C319.526 121.325 320.088 121.887 320.088 122.589C320.088 131.91 323.32 132.473 327.184 133.128L327.816 133.245C327.395 132.964 326.997 132.636 326.645 132.285C323.765 129.592 322.219 124.955 324.022 118.959C325.896 112.753 330.088 109.662 334.608 109.099H334.702C335.311 106.711 335.92 104.579 336.529 102.729C337.746 98.9587 339.573 96.2888 341.283 95.1412C342.126 94.5557 343.016 94.3215 343.836 94.4386C344.749 94.5557 345.522 95.071 346.107 96.0078C346.997 97.4832 347.419 100.247 346.927 104.462C346.622 107.062 346.224 110.06 345.803 113.151C346.716 114.088 347.536 115.189 348.215 116.43C351.049 121.723 351.049 129.545 344.772 138.796C344.585 139.1 344.28 139.335 343.882 139.405L342.618 139.616C340.44 139.967 338.027 140.365 335.732 141.044C334.397 163.996 322.617 252.616 312.968 325.359C308.12 361.777 303.811 394.19 301.609 412.434C305.45 413.909 309.221 416.134 312.383 419.296C312.874 419.788 312.874 420.607 312.359 421.099C312.102 421.357 311.75 421.497 311.376 421.474L299.431 421.076C298.729 421.052 298.167 420.467 298.19 419.764C298.19 419.717 298.19 419.694 298.19 419.671C298.378 418.055 298.588 416.204 298.846 414.143C298.284 413.956 297.745 413.816 297.207 413.652C296.879 416.134 296.574 418.172 296.293 419.764C296.199 420.42 295.567 420.888 294.911 420.818C285.895 419.741 280.953 418.195 278.916 416.649C276.714 415.01 276.855 413.347 278.658 411.965C279.829 411.052 282.007 410.349 284.747 410.068C287.628 409.74 291.234 409.858 295.052 410.56C296.808 397.047 299.385 373.697 302.499 345.617C309.291 284.14 318.589 200.015 327.348 146.431C307.909 164.534 298.822 165.752 292.546 159.218C289.291 155.822 286.995 150.365 284.349 144.136C281.375 137.086 277.955 129.006 272.335 122.144C269.712 124.51 266.245 132.215 262.873 141.372C257.299 156.478 252.194 175.307 251.35 181.537C250.812 185.542 249.711 188.774 248.118 191.35C245.8 195.144 242.498 197.51 238.54 198.751C234.699 199.945 230.249 200.086 225.495 199.453C212.52 197.697 197.25 190.203 186.337 183.528C181.536 180.577 178.116 179.945 176.173 180.6C175.423 180.858 174.931 181.326 174.744 181.912C174.51 182.614 174.627 183.504 175.072 184.488C176.337 187.228 180.06 190.343 186.594 191.936C197.087 194.512 203.597 197.533 208.75 199.922C218.844 204.606 223.551 206.784 244.324 197.533C244.582 197.392 244.887 197.346 245.191 197.416C245.87 197.58 246.315 198.282 246.151 198.962C239.289 228.307 232.146 241.375 222.567 255.848C226.432 285.428 224.019 319.176 218.82 339.223C219.031 339.574 219.218 339.926 219.382 340.277C220.319 342.385 220.647 344.938 220.46 347.608C220.319 349.505 219.944 351.472 219.312 353.369C211.911 376.133 215.424 380.793 218.024 384.236C218.961 385.501 219.804 386.602 220.179 388.288C220.647 390.536 220.67 392.34 220.296 393.721C219.991 394.869 219.406 395.712 218.586 396.251C217.766 396.789 216.783 397 215.635 396.86C214.3 396.696 212.754 396.016 211.068 394.845C210.155 394.19 209.241 393.674 208.281 393.253C207.344 392.831 206.384 392.527 205.401 392.316C201.724 391.52 198.773 392.246 197.04 393.674C196.361 394.213 195.869 394.869 195.611 395.595C195.353 396.274 195.33 397 195.517 397.75C195.962 399.365 197.555 401.052 200.576 402.34C202.45 403.136 204.721 403.628 207.087 403.956C205.869 402.832 204.956 401.52 204.394 400.279C203.738 398.874 203.527 397.468 203.831 396.344C204.183 394.986 205.19 394.073 206.899 394.002C208.937 393.909 212.239 395.314 216.97 399.272C217.907 400.068 218.492 401.216 219.171 402.597C220.015 404.26 221.022 406.298 222.942 407.914C223.317 408.171 223.528 408.64 223.481 409.108C223.387 409.811 222.755 410.303 222.052 410.232L221.935 410.209C218.516 409.811 213.879 409.6 210.038 410.56C207.157 411.286 204.745 412.668 203.668 415.15C205.073 414.752 206.572 414.331 207.977 413.933C215.377 411.825 220.342 410.42 223.41 411.029C226.83 411.708 227.907 414.331 226.923 420.092C231.748 421.193 237.931 422.785 244.957 424.589C277.112 432.879 326.997 445.713 347.747 438.453C347.793 438.453 347.84 438.43 347.911 438.406C348.59 438.242 349.269 438.664 349.456 439.343C350.604 443.934 350.463 444.613 349.527 449.062L349.456 449.414Z" fill="#FEFEFE"/>
</svg>
