<svg width="1440" height="480" viewBox="0 0 1440 480" fill="none" xmlns="http://www.w3.org/2000/svg">
<path d="M0.00244141 479.991H1440V0H0.00244141V479.991Z" fill="#A3DDFA"/>
<path d="M393.012 123.282C345.61 118.388 324.789 75.2012 253.968 90.0729C221.203 96.9349 204.036 132.486 180.289 156.07C136.892 199.163 79.9111 204.057 19.2067 196.797C14.0778 196.188 7.16893 196.446 0.00244141 197.313V479.991H655.993C746.699 459.803 833.329 424.298 904.431 365.397C978.696 303.896 1032.7 218.39 1056.36 124.922C1062.12 102.158 1063.62 72.8358 1043.57 60.6575C1022.58 47.8937 996.87 64.4749 972.935 69.9318C922.558 81.4544 876.023 41.7342 840.846 3.86428C839.652 2.57619 838.458 1.28809 837.24 0H589.036C543.695 38.3618 499.923 78.8548 447.603 106.49C430.6 115.46 412.122 125.273 393.012 123.282Z" fill="#6BCEFF"/>
<path d="M1047.2 0C1011.62 16.7686 980.663 43.4439 959.796 76.8172C940.03 108.434 929.116 145.063 908.483 176.118C871.316 232.161 807.356 263.755 744.661 288.088C681.989 312.421 615.969 332.914 563.977 375.561C544.444 391.557 527.395 410.316 508.94 427.53C487.839 447.156 464.887 464.744 440.437 479.991H1440V0H1047.2Z" fill="#0082C2"/>
<path d="M1128.98 0C1109.89 33.4436 1108.16 75.6228 1099.24 114.336C1091.46 148.014 1075.35 180.731 1055.75 209.046C1032 243.333 996.401 265.16 963.051 288.978C933.73 309.915 907.57 335.677 881.574 360.526C855.086 385.843 830.776 413.431 810.682 444.111C803.14 455.634 797.52 468.187 790.541 479.991H794.616C798.527 473.854 802.274 467.367 806.045 460.505C824.476 426.991 849.207 397.553 875.766 370.245C904.549 340.642 934.924 311.344 968.415 287.104C996.518 266.776 1026.12 248.813 1048.81 222.091C1068.6 198.765 1083.2 170.989 1094.2 142.58C1111.53 97.8249 1108.56 42.1324 1131.56 0H1128.98V0Z" fill="#F3FFF8"/>
<path d="M1186.38 0C1185.68 9.13375 1184.98 18.2675 1183.03 27.05C1175.73 60.2828 1170.93 92.087 1155 122.72C1142.03 147.686 1124.44 170.122 1107.97 192.839C1090.62 216.821 1076.68 242.958 1059.31 266.893C1024.97 314.225 975.605 351.814 950.03 405.281C939.351 427.624 934.479 452.191 931.552 476.595L931.13 479.991H936.236L936.587 476.595C939.444 447.788 946.821 419.895 960.639 394.344C975.019 367.786 997.643 344.858 1017.2 322.047C1034.53 301.835 1052.75 282.491 1068.07 260.663C1084.16 237.688 1097.6 213.098 1114.09 190.31C1130.62 167.476 1147.39 144.899 1160.41 119.793C1173.57 94.4758 1178.54 66.8638 1183.6 39.0409C1185.73 27.2842 1188.28 15.8787 1189.15 3.93454C1189.24 2.62303 1189.31 1.31151 1189.38 0H1186.38V0Z" fill="#F3FFF8"/>
<path d="M1219.43 0C1219.08 13.1854 1219.55 26.4176 1220.83 39.767C1223.93 71.3838 1231.4 102.345 1234.14 134.009C1239.05 190.638 1233.06 250.312 1262.08 301.671C1276.5 327.199 1295.85 350.877 1318.31 369.683C1340.11 387.974 1368.71 397.084 1395.05 406.569C1410.49 412.143 1425.59 418.256 1440 425.328V420.785C1435.81 418.865 1431.61 416.991 1427.37 415.188C1402.55 404.625 1376.58 397.107 1351.99 385.983C1320.27 371.65 1296.69 346.638 1276.88 318.604C1239.71 266.05 1241.72 205.861 1238.16 144.36C1236.48 114.828 1230.39 85.9978 1225.85 56.8401C1222.92 37.987 1221.49 18.9935 1221.65 0H1219.43V0Z" fill="#F3FFF8"/>
<path d="M1129.73 0C1139.68 20.2348 1145.49 42.835 1152.1 64.1002C1170.29 122.439 1178.3 183.143 1180.95 244.059C1183.34 299.4 1180.76 356.334 1202.57 408.466C1211.75 430.387 1224.18 451.699 1239.48 469.873C1242.38 473.339 1245.4 476.712 1248.49 479.991H1253.36C1251.75 478.351 1250.16 476.688 1248.54 475.002C1226.38 451.793 1210.18 421.886 1199.66 391.698C1179.01 332.422 1186.85 264.762 1181.7 203.074C1176.66 142.885 1163.06 84.8268 1143.88 27.6355C1140.67 18.1036 1136.99 8.85272 1132.63 0H1129.73V0Z" fill="#F3FFF8"/>
<path d="M566.553 479.991C571.33 473.995 576.295 468.281 580.675 462.824C596.718 442.847 614.985 424.649 635.548 409.356C670.748 383.173 716.253 373.571 758.104 363.664C841.924 343.804 924.783 309.939 981.904 242.7C996.167 225.885 1009.56 208.414 1024.2 191.903C1038.67 175.579 1052.66 159.068 1064.18 140.496C1074.48 123.821 1082.31 105.624 1092.52 88.8082C1104.46 69.1355 1118.11 50.8211 1134.56 34.7083C1147.97 21.5697 1162.82 10.094 1178.58 0H1171.7C1164.58 4.7074 1157.62 9.71925 1150.86 15.0356C1118.86 40.1885 1096.03 72.9061 1076.59 108.247C1065.84 127.779 1056.36 146.749 1042.52 164.431C1027.88 183.097 1011.32 200.217 996.448 218.742C982.701 235.862 969.094 252.935 952.911 267.877C934.409 284.95 912.207 298.885 890.497 311.461C850.378 334.694 807.005 348.535 762.179 359.261C722.389 368.769 681.989 377.95 646.227 398.583C612.69 417.928 586.717 449.053 563.977 479.991H566.553Z" fill="#F3FFF8"/>
<path d="M1342.87 0C1339.48 26.0663 1341.77 52.6947 1346.72 79.2295C1354.33 120.191 1367.25 161.386 1384.54 199.303C1398.45 229.866 1417.21 257.502 1440 281.132V275.324C1419.93 254.153 1403.04 229.679 1389.55 201.505C1372.59 166.094 1361.26 127.17 1352.5 88.9955C1345.87 60.0486 1342.29 29.6027 1345.52 0H1342.87V0Z" fill="#F3FFF8"/>
<path d="M615.547 479.991C629.365 460.365 648.218 443.76 667.773 430.879C707.189 404.906 756.02 393.431 801.407 383.032C847.193 372.564 891.995 360.221 937.36 348.301C973.426 338.815 1008.81 333.499 1041.23 314.037C1072.12 295.489 1106.17 280.477 1128.3 250.85C1142.47 231.857 1156.43 212.84 1171.11 194.174C1182.96 179.092 1193.27 163.916 1198.94 145.508C1210.55 107.731 1203.08 65.5757 1201.68 26.9329C1201.35 17.9631 1201.02 8.96982 1200.67 0H1198.37C1199.05 17.1668 1198.87 34.357 1199.9 51.5237C1201.21 73.3042 1202.54 95.0613 1200.97 116.889C1197.39 166.679 1162 198.085 1134.56 236.447C1121.02 255.347 1108.49 269.727 1089 282.819C1071.98 294.271 1053.52 303.475 1035.93 314.061C1001.93 334.53 962.232 337.902 924.83 349.097C878.248 363.055 831.244 373.172 783.983 384.367C721.171 399.239 648.944 423.994 612.62 479.991H615.547Z" fill="#F3FFF8"/>
<path d="M498.893 479.99C497.277 477.531 495.918 474.838 494.818 472.098C488.775 456.992 489.759 439.825 494.349 424.228C498.94 408.63 506.902 394.274 514.818 380.058C524.327 363.008 533.835 345.935 543.344 328.885C549.433 317.972 555.756 306.777 565.593 299.095L600.769 479.99H498.893Z" fill="#12B0FF"/>
<path d="M476.808 216.001C502.429 297.643 523.039 393.079 531.657 479.99H369.475C409.663 388.536 472.756 216.048 476.808 216.001Z" fill="#A3DDFA"/>
<path d="M37.849 326.169C42.6735 360.339 47.5214 394.508 52.3459 428.678C54.0555 440.879 55.7886 453.128 59.0674 465.025C60.4257 470.014 62.0651 474.955 63.1424 479.991H0.00244141V381.018C12.2745 362.493 24.8978 344.202 37.849 326.169Z" fill="#0082C2"/>
<path d="M1011.39 317.62C1012 316.004 1014.32 316.285 1016.03 315.934C1018.98 315.325 1020.66 312.304 1021.93 309.587C1029.54 293.147 1035.49 275.933 1039.66 258.298C1039.89 257.338 1040.1 256.401 1040.57 255.534C1041.04 254.668 1041.74 253.942 1042.21 253.052C1042.89 251.717 1042.98 250.171 1043.66 248.836C1044.32 247.501 1046 246.447 1047.25 247.244C1048.56 248.063 1048.25 250.031 1047.78 251.506C1042.47 268.251 1037.15 285.02 1031.84 301.788C1030.57 305.77 1029.31 309.751 1027.34 313.428C1025.93 316.004 1024.13 318.463 1021.62 320.033C1019.14 321.602 1015.86 322.117 1013.22 320.805C1012.02 320.196 1010.9 318.885 1011.39 317.62Z" fill="#12B0FF"/>
<path d="M1043.78 79.7917L1044.08 79.979C1044.48 81.1969 1044.18 82.2976 1044.01 83.5623C1043.66 86.2321 1043.01 87.45 1042.49 88.5507C1042.3 88.9957 1042.07 89.4407 1042.02 89.9325C1041.93 90.6819 1042.21 91.4314 1042.59 92.1105C1043.24 93.3752 1044.15 94.4759 1045.07 95.5767C1046.26 97.0521 1047.48 98.5042 1048.67 99.9562C1048.96 100.307 1049.26 100.659 1049.66 100.846C1050.34 101.197 1051.2 100.987 1051.81 100.542C1052.44 100.097 1052.89 99.4644 1053.31 98.832C1054.86 96.6306 1059 98.4573 1060.76 96.4198C1061.04 96.0919 1057.39 87.2158 1056.73 85.7403C1055.93 83.9838 1055.86 82.0166 1055.61 80.0961L1055.4 79.5809L1055.11 79.4638C1052.44 78.8549 1049.68 78.6207 1046.96 78.7612C1045.82 78.808 1044.6 78.972 1043.78 79.7917Z" fill="white"/>
<path d="M1075.05 113.774L1074.23 113.306C1075.19 114.945 1076.64 116.256 1078.07 117.568C1081.56 120.776 1084.95 124.149 1088.18 127.639C1090.55 130.168 1092.98 133.072 1093.17 136.538C1093.27 138.646 1092.52 140.707 1091.95 142.768C1090.34 148.74 1090.34 155.133 1091.98 161.106C1092.77 164.01 1096.08 174.057 1100.41 172.253C1101.28 171.879 1102.14 171.527 1103.01 171.176C1104.37 170.614 1105.94 169.701 1105.89 168.249C1105.8 166.258 1105.3 167.218 1104.41 165.462C1103.83 164.361 1101.77 161.55 1102.05 160.356C1103.8 152.651 1102.8 144.571 1104.41 136.866C1104.86 134.735 1106.45 132.721 1106.15 130.566C1105.91 128.786 1104.58 127.568 1102.87 124.289C1101.11 120.94 1100.34 118.434 1098.84 114.968C1095.89 108.083 1090.31 103.212 1086.45 96.7945C1085.3 94.9209 1082.38 91.8763 1078.37 91.5016C1068.93 90.6585 1065.4 91.3377 1058.23 88.9489C1057.81 88.8083 1055.21 92.0871 1049.66 91.2206C1043.31 90.237 1044.01 87.6608 1043.1 87.45C1040.64 86.8645 1034.95 87.6842 1030.15 86.5132C1028.7 86.1385 1027.22 85.7638 1025.72 85.7872C1023.83 85.7872 1022 86.4195 1020.2 87.0518C1015.35 88.7381 1010.45 90.4712 1006.12 93.2347C1003.85 94.6867 1001.76 96.3964 999.774 98.1763C995.066 102.368 990.71 106.935 986.776 111.853C984.925 114.149 983.052 116.631 980.359 117.802C979.539 118.153 978.672 118.388 977.946 118.856C977.22 119.348 976.635 120.191 976.775 121.058C976.939 122.041 977.946 122.627 978.719 123.236C981.623 125.484 981.928 138.833 984.317 144.22C986.869 149.981 988.228 153.775 992.256 158.646C994.598 155.859 995.886 154.806 998.813 152.581C999.399 152.112 1001.98 149.981 1002.68 150.215C1002.09 148.435 1001.16 147.381 1000.29 144.407C999.867 142.955 999.422 141.503 999.235 140.004C999.001 138.06 999.141 136.07 999.048 134.126C998.813 129.817 997.315 125.601 994.762 122.135C994.457 121.737 993.942 121.315 994.059 120.847C994.317 119.863 996.378 120.87 999.867 120.168C1005.49 119.043 1011.04 117.427 1015.91 114.43C1017.46 113.469 1018.95 112.416 1020.59 111.666C1021.13 111.409 1021.79 111.502 1022.21 111.924C1022.87 112.533 1023.38 113.399 1023.52 114.149C1023.71 115.226 1023.62 116.327 1023.62 117.404C1023.62 123.844 1027.29 129.629 1029.59 135.648C1030.85 138.997 1031.72 142.487 1032.89 145.859C1034.55 150.66 1034.81 155.906 1033.29 160.754C1032.37 163.729 1032.05 166 1030.73 168.857C1027.74 175.462 1026.73 181.13 1028.46 195.416C1028.91 199.233 1030.66 205.018 1031.16 206.727C1031.79 208.952 1032.21 211.247 1032.61 213.543C1032.82 214.737 1033.03 215.931 1033.01 217.149C1032.98 218.461 1032.66 219.725 1032.35 221.014C1031.86 223.004 1031.37 224.995 1030.85 227.009C1027.88 238.836 1028.74 244.246 1029.54 249.867C1030.38 255.792 1032.33 261.553 1032.94 267.525C1033.08 268.79 1033.17 270.102 1033.73 271.249C1034.58 272.912 1036.47 273.966 1038.35 273.802C1040.2 273.638 1041.91 272.233 1042.42 270.453C1043.22 267.713 1043.52 265.769 1044.88 263.263C1050.5 252.911 1048.96 239.843 1047.71 228.321C1047.55 226.751 1047.41 225.159 1047.64 223.613C1047.88 221.974 1048.51 220.451 1049.12 218.953C1051.18 213.941 1053.08 208.859 1054.83 203.73C1055.58 201.528 1056.31 199.28 1056.59 196.961C1057.06 193.05 1056.24 189.022 1057.11 185.181C1062.73 188.6 1064.67 190.006 1072.38 198.46C1073.57 199.772 1081.93 210.03 1083.92 211.763C1085.87 213.472 1088.09 214.807 1089.94 216.611C1091.74 218.391 1092.84 220.779 1092.98 223.285C1093.22 227.267 1094.18 231.318 1096.01 234.831C1096.92 236.588 1098.11 238.18 1099.33 239.749C1102.7 244.176 1106.17 248.672 1110.6 252.045C1111.74 252.911 1112.99 253.731 1113.95 254.785C1116.12 257.127 1116.92 260.453 1118.79 263.029C1119.05 263.404 1119.36 263.755 1119.75 263.966C1120.5 264.411 1121.44 264.247 1122.28 264.106C1124.32 263.708 1126.36 263.333 1128.4 262.935L1129.05 262.654C1129.24 262.396 1129.17 262.022 1129.07 261.717C1128.09 258.298 1121.81 242.654 1120.85 238.555C1119.92 234.48 1115.66 223.285 1113.01 220.03C1110.34 216.798 1106.57 214.714 1103.36 212.067C1100.17 209.397 1097.46 204.807 1096.8 200.709C1096.03 195.884 1090.6 179.069 1083.66 169.185C1082.54 167.593 1081.27 166.094 1079.87 164.736C1078.46 163.354 1076.85 162.159 1075.35 160.871C1074.18 159.888 1073.08 158.857 1072 157.803C1070.88 156.749 1069.78 155.649 1069.07 154.243C1068.42 152.909 1068.58 151.386 1068.91 149.934C1070.88 140.566 1071.27 137.475 1073.87 129.863C1074.39 128.388 1074.88 122.978 1075 121.409C1075.07 120.214 1074.88 119.043 1074.72 117.872C1074.48 116.42 1074.27 114.992 1074.06 113.54L1075.05 113.774Z" fill="#005A87"/>
<path d="M1047.43 84.8735C1048.56 85.6464 1050.1 85.7166 1051.27 85.0609C1051.98 84.6862 1052.54 84.0538 1053.19 83.562C1053.99 82.9765 1054.9 82.555 1055.68 81.946C1056.78 81.0092 1057.46 79.6977 1058.11 78.4096C1058.98 76.6766 1059.87 74.9201 1060.31 72.9996C1060.6 71.735 1060.69 70.4234 1060.78 69.1119C1060.83 68.4328 1060.88 67.7067 1060.78 67.0276C1060.52 64.7558 1058.91 62.7886 1056.92 61.6878C1054.93 60.5871 1052.59 60.2358 1050.31 60.189C1048.39 60.1655 1046.45 60.3529 1044.58 60.751C1043.62 60.9384 1042.66 61.2194 1041.81 61.7113C1040.95 62.2031 1040.22 62.9759 1039.96 63.9361C1039.75 64.6856 1039.82 65.4819 1039.92 66.2547C1040.17 68.8075 1040.45 71.3368 1040.74 73.8662C1040.9 75.365 1041.06 76.9108 1041.72 78.2691C1042.3 79.5104 1043.26 80.5408 1044.2 81.5479C1044.88 82.2973 1045.58 83.0468 1046.29 83.7962C1046.64 84.1709 1047.01 84.5691 1047.43 84.8735Z" fill="#FEFEFE"/>
<path d="M1040.95 69.9085C1040.36 70.0958 1039.82 69.5103 1039.52 68.9717C1037.74 65.81 1037.76 61.8989 1038.53 58.3625C1038.91 56.6528 1039.47 54.9666 1040.38 53.4677C1041.27 51.9454 1042.56 50.6573 1044.18 49.9313C1045.61 49.2755 1047.2 49.1116 1048.77 48.9945C1050.57 48.854 1052.42 48.7837 1054.22 49.1116C1057.78 49.7674 1061.09 52.1562 1062.54 55.4818C1064.46 59.9082 1063.62 65.9973 1061.13 70.0256L1060.78 70.3066L1060.55 70.1895C1060.24 69.885 1060.24 69.4166 1060.17 68.9951C1059.96 67.7304 1059.14 66.6063 1058.09 65.8568C1057.01 65.1308 1055.75 64.7327 1054.46 64.5921C1053.48 64.475 1052.49 64.475 1051.51 64.475C1049.99 64.4985 1048.46 64.4985 1046.92 64.5219C1045.68 64.5219 1044.37 64.5453 1043.22 65.0605C1042.05 65.5758 1041.09 66.7234 1041.18 67.9646C1041.23 68.6438 1041.53 69.4401 1041.04 69.9085L1041.39 69.8616L1040.95 69.9085Z" fill="#6BCEFF"/>
<path d="M1106.59 266.916C1100.74 262.279 1095.3 258.696 1089.73 253.754C1086.17 250.593 1083.15 248.227 1077.97 244.152C1077.64 243.871 1077.39 243.497 1077.34 243.075C1077.29 242.489 1077.64 241.951 1078.84 241.295C1079.73 240.803 1081.2 240.78 1082.14 241.201C1085.98 242.934 1100.17 255.16 1103.71 257.642C1120.06 269.212 1133.59 278.697 1149.68 290.617C1151.49 291.976 1155.42 293.428 1157.58 294.083C1159.73 294.739 1162.52 295.161 1164.2 293.638C1164.84 293.053 1165.35 292.28 1166.59 292.514C1168.05 292.749 1169.05 294.06 1168.96 295.512C1168.82 297.433 1167.11 298.885 1165.28 299.493C1161.07 300.922 1156.52 298.978 1152.49 297.081C1148.21 295.044 1143.9 293.006 1139.75 290.688C1136.52 288.861 1133.38 286.87 1130.29 284.786C1122.1 279.235 1114.34 273.076 1106.59 266.916Z" fill="#12B0FF"/>
<path d="M1101.35 180.497C1099.38 180.989 1097.41 181.48 1095.47 181.972C1095.05 182.089 1094.6 182.183 1094.18 182.089C1093.73 181.996 1093.38 181.715 1093.08 181.363C1091.32 179.373 1091.91 176.305 1092.61 173.705C1092.98 172.323 1093.38 170.918 1094.3 169.817C1095.16 168.764 1096.47 168.037 1096.9 166.749C1097.08 166.234 1097.11 165.625 1097.46 165.227C1097.79 164.899 1098.28 164.782 1098.75 164.712C1101.65 164.22 1104.74 163.939 1107.46 165.063C1110.17 166.187 1112.33 169.185 1111.58 172.019C1111.23 173.401 1110.29 174.501 1109.36 175.555C1108.14 176.96 1106.83 178.319 1105.21 179.185C1103.99 179.841 1102.66 180.169 1101.35 180.497Z" fill="#005A87"/>
<path d="M1039.05 68.5733C1038.91 69.1822 1038.79 70.6108 1039.75 71.6179C1040.43 72.3439 1040.59 72.4844 1041.46 72.9528C1042.59 73.6086 1044.01 73.6554 1045.3 73.7725C1046.47 73.8896 1047.9 73.6086 1048.35 72.5078L1048.6 71.6179C1048.81 71.3134 1050.67 71.1495 1051.16 71.6647C1051.7 72.2502 1051.79 72.6249 1052.45 73.0231C1053.12 73.4212 1054.34 73.7257 1055.11 73.7725C1056.94 73.8662 1058.02 73.7257 1059.63 72.8591C1060.41 72.4142 1060.83 71.6179 1061.3 70.845C1061.79 70.0956 1062 69.112 1061.67 68.2688C1061.37 67.4491 1060.57 66.8402 1059.73 66.5826C1058.86 66.3016 1057.95 66.3016 1057.08 66.3484C1056.17 66.4187 1055.26 66.5358 1054.46 66.9339C1053.55 67.3789 1052.45 68.1986 1051.53 69.4164C1050.95 70.2361 1048.77 69.8848 1048.56 69.674C1048.42 69.5335 1047.78 67.8707 1045.23 66.8168C1044.01 66.3016 1042.56 66.2079 1041.3 66.606C1039.92 67.0276 1039.28 67.4492 1039.05 68.5733Z" fill="#E6342D"/>
<path d="M1015.23 122.814C1013.83 144.103 1009.45 165.04 1005.07 185.907C1000.78 206.4 988.415 289.517 984.879 299.798C984.598 300.688 985.324 301.133 986.19 300.758C987.033 300.407 987.361 299.376 987.572 298.463C989.118 291.835 989.914 285.77 991.343 279.118C992.842 272.28 994.059 261.951 994.434 260.289C995.652 254.574 1000.85 219.327 1002.47 210.334C1005.16 195.252 1007.6 183.237 1010.99 167.078C1011.62 164.033 1011.79 160.918 1012.56 157.897C1013.38 154.665 1016.64 126.467 1016.92 123.072C1017.08 120.964 1016.38 122.65 1015.23 122.814Z" fill="#8A878E"/>
<path d="M992.771 285.184C993.169 285.933 993.474 286.87 993.076 287.62C992.771 288.205 992.115 288.51 991.507 288.673C988.462 289.517 984.949 287.432 984.223 284.364C984.551 282.514 986.705 281.343 988.556 281.694C990.429 282.046 991.905 283.521 992.771 285.184ZM993.872 283.638C992.326 281.624 989.961 279.868 987.455 280.219C985.956 280.43 984.645 281.39 983.661 282.514C983.146 283.123 982.677 283.849 982.63 284.645C982.584 285.16 982.724 285.676 982.911 286.168C983.403 287.409 984.27 288.533 985.417 289.259C987.104 290.289 989.165 290.43 991.155 290.524C991.811 290.547 994.317 289.423 994.832 288.111C995.418 286.542 994.926 285.02 993.872 283.638Z" fill="#8A878E"/>
<path d="M1012.84 122.955C1012.61 122.627 1012.54 122.205 1012.56 121.784C1012.65 120.472 1013.85 119.418 1015.16 119.301C1016.45 119.184 1017.74 119.933 1018.44 121.034C1018.95 121.807 1019.17 122.884 1018.58 123.61C1018.37 123.891 1018.04 124.079 1017.69 124.149C1017.41 124.219 1017.1 124.172 1016.8 124.149C1016.26 124.079 1015.75 124.032 1015.23 123.962C1014.34 123.868 1013.33 123.704 1012.84 122.955Z" fill="#8A878E"/>
<path d="M1076.83 225.37C1076.9 226.142 1076.85 227.032 1076.26 227.524C1075.79 227.899 1075.16 227.969 1074.58 227.899C1071.74 227.594 1069.47 224.69 1069.87 221.857C1070.76 220.381 1072.96 220.147 1074.41 221.037C1075.86 221.927 1076.64 223.683 1076.83 225.37ZM1078.23 224.433C1077.6 222.208 1076.19 219.96 1073.97 219.421C1072.63 219.116 1071.2 219.468 1070.01 220.124C1069.38 220.451 1068.75 220.92 1068.42 221.552C1068.23 221.974 1068.16 222.466 1068.16 222.934C1068.16 224.152 1068.53 225.393 1069.26 226.377C1070.34 227.805 1072.05 228.602 1073.69 229.328C1074.23 229.585 1076.73 229.445 1077.57 228.508C1078.6 227.384 1078.68 225.955 1078.23 224.433Z" fill="#8A878E"/>
<path d="M1147.25 95.1783C1147.15 94.8035 1147.23 94.4288 1147.39 94.0775C1147.9 93.0236 1149.26 92.5084 1150.41 92.8363C1151.53 93.1876 1152.38 94.2415 1152.61 95.389C1152.78 96.2087 1152.59 97.1924 1151.89 97.6139C1151.6 97.7779 1151.25 97.8247 1150.95 97.7779L1150.2 97.4734C1149.75 97.2392 1149.33 97.0284 1148.91 96.8177C1148.21 96.4429 1147.41 95.9745 1147.25 95.1783Z" fill="#8A878E"/>
<path d="M1081.65 209.374C1073.97 222.137 1067.62 232.395 1065.35 235.089C1064.79 235.744 1065.28 236.353 1066.12 236.33C1066.97 236.306 1067.55 235.534 1068.04 234.854C1071.53 229.772 1074.2 224.924 1077.62 219.772C1079.35 217.149 1081.35 213.753 1083.01 210.872C1082.61 210.451 1082.16 209.936 1081.65 209.374Z" fill="#8A878E"/>
<path d="M1149.31 95.834C1141.09 113.305 1130.48 129.535 1119.92 145.695C1116.97 150.192 1111.81 158.74 1105.8 168.834C1105.7 169.185 1105.51 169.49 1105.26 169.771C1101.53 175.977 1097.53 182.745 1093.52 189.514C1093.78 190.263 1094.04 190.989 1094.3 191.692C1100.01 181.902 1107.01 169.747 1109.66 165.438C1116.92 153.611 1122.94 144.266 1131.14 131.76C1132.68 129.418 1133.83 126.819 1135.47 124.547C1137.25 122.088 1149.29 99.3704 1150.64 96.6069C1151.46 94.8738 1150.32 96.0682 1149.31 95.834Z" fill="#8A878E"/>
<path d="M1117.15 260.125C1118 262.56 1119.66 264.457 1119.22 265.581C1118.77 266.659 1117.69 267.455 1117.46 268.603C1117.25 269.516 1117.67 270.5 1118.3 271.226C1118.96 271.928 1119.8 272.42 1120.62 272.888C1125.28 275.629 1129.82 278.673 1133.5 282.631C1134.74 283.943 1140.86 287.128 1142.59 286.542C1143.9 286.097 1144.49 284.458 1144.25 283.099C1144.02 281.718 1138.65 278.907 1137.88 277.76C1134.63 273.029 1131.91 267.923 1129.82 262.584C1129.61 262.068 1129.4 261.53 1128.98 261.178C1128.61 260.897 1128.14 260.804 1127.67 260.71C1124.53 260.195 1119.96 258.602 1117.15 260.125Z" fill="#005A87"/>
<path d="M1044.6 264.294C1044.81 263.333 1043.1 265.113 1040.66 265.628C1038.42 266.073 1035.28 266.425 1033.66 264.809C1033.17 264.34 1032.68 263.989 1032.44 263.708C1031.98 263.052 1033.26 269.914 1033.12 271.858C1032.8 276.05 1029.96 280.008 1030.71 284.13C1031.04 285.98 1031.81 287.877 1033.19 289.142C1034.95 290.758 1036.85 289.048 1037.03 288.838C1039.92 285.301 1040.03 284.997 1041.3 280.617C1042.56 276.331 1044.08 266.565 1044.6 264.294Z" fill="#005A87"/>
<path d="M1102.47 164.923C1102.54 163.681 1098.82 164.759 1097.65 165.18C1096.45 165.578 1095.56 166.679 1095.42 167.92C1095.33 168.81 1095.56 169.7 1095.94 170.543C1096.85 172.722 1098.54 174.595 1100.62 175.743C1101.39 176.164 1102.21 176.516 1103.1 176.539C1103.5 176.562 1103.92 176.492 1104.3 176.305C1105.35 175.696 1105.4 174.127 1104.86 173.026C1104.32 171.925 1103.36 171.082 1102.8 170.005C1102.14 168.717 1102.38 166.796 1102.47 164.923Z" fill="#0082C2"/>
<path d="M1011.62 168.928C1011.98 167.405 1010.69 166.047 1009.7 164.829C1008.23 163.026 1007.22 160.824 1006.82 158.506L1006.92 157.756L1007.53 157.546C1008.7 157.429 1009.84 157.405 1011.02 157.499C1011.51 157.522 1012.07 157.546 1012.47 157.265C1012.98 156.89 1013.03 156.141 1012.94 155.532C1012.58 152.838 1010.43 150.543 1007.81 149.887C1005.18 149.232 1001.34 149.723 997.924 152.183C996.987 152.862 992.045 156.632 992.022 159.045C992.022 159.888 992.326 161.551 992.584 162.347C993.38 164.619 994.621 166.703 995.933 168.74C996.893 170.239 997.9 171.738 999.235 172.933C1000.55 174.127 1002.26 174.994 1004.06 174.97C1005.82 174.947 1007.5 174.033 1008.74 172.792C1010.01 171.551 1010.9 170.005 1011.65 168.413L1011.62 168.928Z" fill="#005A87"/>
<path d="M1076.8 399.449C1092.28 386.17 1108.86 376.029 1123.66 362.001C1127.11 358.769 1132.14 354.202 1134.65 350.642C1134.88 350.338 1135.21 350.15 1135.61 350.174C1139.5 350.385 1143.13 350.83 1148.79 350.291C1149.68 350.221 1150.32 351.228 1149.82 351.977C1148.05 354.811 1145.63 356.544 1142.92 359.027C1122.8 377.388 1102.66 395.749 1080.69 411.815C1067.39 421.558 1054.46 431.816 1042.23 442.893C1036.26 448.303 1029.94 453.947 1023.92 458.983C1016.5 465.189 1007.85 470.435 998.275 471.887C994.317 472.472 990.172 472.402 986.471 470.903C982.982 469.522 979.961 466.735 978.766 463.222C978.626 462.777 978.813 462.285 979.164 462.004C982.677 459.381 986.19 456.734 989.68 454.111C990.242 453.713 990.991 453.901 991.319 454.509C992.607 456.969 995.792 458.327 998.673 458.046C1002 457.718 1006.1 455.868 1014.53 449.263C1014.53 449.263 1062.3 411.885 1076.8 399.449Z" fill="#42C0FF"/>
<path d="M1235.87 104.523C1239.57 98.8318 1247.32 97.5671 1254.11 97.6374C1262.31 97.7077 1270.98 99.1597 1277.18 104.523C1281 107.848 1283.53 112.345 1286.55 116.397C1289.57 120.448 1293.44 124.313 1298.4 125.296C1297.16 118.387 1295.89 111.479 1294.63 104.593C1293.88 100.424 1293.2 95.7404 1296.97 92.649C1300.13 90.0494 1304.7 90.3538 1308.07 92.6958C1314.05 96.8177 1315.26 104.125 1316.2 110.916C1317.75 121.783 1319.29 132.65 1320.84 143.54C1321.45 147.896 1322.03 152.463 1320.11 156.492C1319.15 158.506 1317.44 160.168 1315.38 160.988C1311.16 162.674 1308.8 160.028 1306.01 158.342C1302.38 156.14 1298.03 155.555 1293.93 154.454C1284.82 152.065 1276.46 146.913 1270.2 139.887C1266.62 135.905 1263.43 131.081 1258.38 129.301C1253.76 131.854 1253.72 134.336 1252.43 139.442C1249.92 149.442 1247.56 155.344 1245.45 160.192C1242.59 166.796 1232.26 180.075 1229.08 186.539C1223.97 196.914 1229.24 198.132 1236.06 210.193C1242.83 222.114 1249.87 232.606 1256.83 244.386C1262.22 253.567 1269.22 261.694 1277.07 268.907C1281.51 273.005 1282.57 274.668 1283.62 279.54C1284.18 282.022 1284.09 284.622 1283.44 287.104C1281.84 293.193 1280.34 299.329 1278.24 305.255C1276.67 309.704 1274.75 314.037 1273.55 318.604C1271.63 325.911 1271.58 333.569 1271.56 341.11C1271.51 350.923 1271.82 369.589 1271.8 379.402C1265.17 381.861 1255.43 391.58 1248.45 390.48C1254.65 369.519 1246.6 341.438 1244.25 328.042C1239.38 300.243 1252.15 290.406 1250.46 287.666C1243.5 280.617 1235.96 276.518 1228.98 269.469C1225.35 265.792 1223.88 263.755 1213.62 254.27C1211.11 251.951 1202.31 239.679 1196.17 235.838C1194.46 237.267 1192.82 238.625 1191.37 240.311C1178.09 255.651 1164.81 270.968 1151.53 286.308C1150.06 287.994 1148.56 289.751 1148.02 291.929C1147.48 294.13 1148.02 296.425 1148.26 298.674C1149.47 310.477 1142.47 321.555 1134.7 330.501C1129.64 336.309 1124.11 341.743 1119.99 348.23C1115.87 354.717 1113.2 362.587 1114.72 370.128C1115.02 371.673 1115.49 373.243 1115.23 374.788C1114.84 377.013 1113.01 378.653 1111.32 380.151C1101.23 389.121 1095.23 400.527 1078.14 410.082C1076.64 410.925 1074.95 411.417 1073.24 411.323C1072.52 411.3 1071.81 411.159 1071.27 410.691C1070.17 409.778 1070.31 408.068 1070.67 406.686C1072.52 399.098 1079.52 394.25 1083.52 387.552C1089.68 377.294 1094.53 366.287 1097.97 354.835C1102.82 338.745 1111.81 323.756 1115.87 307.456C1117.86 299.493 1118.02 291.179 1119.82 283.193C1124.93 260.546 1142.42 242.958 1152.12 221.88C1157.67 209.819 1160.62 196.68 1166.05 184.549C1171.93 171.41 1180.86 158.974 1182.17 144.758C1182.26 143.775 1182.07 142.744 1181.51 141.948C1179.61 139.255 1179.69 131.198 1179.97 128.552C1180.79 120.472 1175.96 122.65 1176.43 111.221C1176.66 105.647 1178.54 100.237 1181.79 95.717C1183.08 93.9371 1180.32 93.1174 1182.43 92.4382C1186.97 90.9862 1196.2 93.1642 1200.95 93.5858C1209.08 94.2884 1214.56 85.2951 1222.71 85.623C1226.83 85.787 1230.44 88.7144 1232.54 92.2274C1234.65 95.7638 1235.03 100.495 1235.87 104.523Z" fill="#BA0D07"/>
<path d="M1150.95 166.797C1163.46 162.23 1178.61 147.85 1186.55 128.294C1188.12 124.477 1191.98 121.947 1193.64 118.177C1195.85 113.118 1195.19 107.287 1194.09 101.877C1193.69 99.7922 1193.18 97.6376 1191.89 95.9514C1189.71 93.0707 1185.66 92.1808 1182.1 92.8599C1178.58 93.5625 1175.45 95.5766 1172.57 97.7313C1161.98 105.507 1154.65 119.114 1146.15 129.114C1144.51 131.011 1143.2 133.166 1142.05 135.414C1138.63 142.042 1136.62 149.536 1131.82 155.251C1125.54 162.721 1122.99 173.26 1122 182.98C1121.84 184.479 1121.7 186.071 1122.4 187.406C1123.85 190.146 1127.65 190.146 1130.71 190.287C1140.22 190.732 1148.93 195.978 1158.4 196.891C1167.02 197.711 1176.38 194.994 1184.04 199.069C1185.84 200.053 1187.93 201.411 1189.78 200.545C1191.04 199.982 1191.68 198.601 1192.19 197.336C1194.49 191.832 1196.71 186.329 1198.87 180.778C1183.03 174.572 1167.53 170.497 1150.95 166.797Z" fill="#E6342D"/>
<path d="M1244.98 108.411C1245.89 107.848 1246.48 106.865 1247.04 105.928C1249.57 101.712 1252.08 97.4735 1254.58 93.2579C1256.32 90.3538 1258.1 86.8408 1256.69 83.7728C1256.2 82.6721 1255.33 81.7821 1254.42 81.0093C1248.02 75.529 1238.63 74.7093 1230.48 76.864C1229.97 77.0045 1229.45 77.145 1228.96 77.4026C1228.33 77.7539 1227.81 78.2926 1227.32 78.8547C1224.23 82.4613 1222.71 87.3561 1223.2 92.0869C1223.69 96.8177 1226.2 101.314 1229.97 104.195C1232.9 106.443 1236.43 107.708 1240.01 108.598C1241.65 108.996 1243.53 109.301 1244.98 108.411Z" fill="#FEFEFE"/>
<path d="M1232.08 68.0348C1230.39 69.3463 1229.05 71.1262 1228.33 73.1169C1225.07 81.8525 1223.25 90.5178 1225.33 99.5813C1222.85 100.354 1220.11 98.9022 1218.59 96.8178C1217.09 94.71 1216.52 92.087 1216.03 89.5342C1215.21 85.1781 1214.3 80.8454 1214.02 76.4191C1213.46 67.7303 1218.12 58.9713 1223.13 55.6456C1228.16 52.2966 1234.23 50.8211 1240.25 50.2591C1240.72 50.2122 1241.26 50.1888 1241.68 50.423C1242.24 50.7041 1242.5 51.3598 1242.64 51.9921C1243.53 55.8096 1241.79 59.8612 1239.12 62.7419C1236.48 65.6459 1232.97 67.5664 1229.52 69.4634L1232.08 68.0348Z" fill="#005A87"/>
<path d="M1421.33 407.951C1421.66 408.935 1421.85 409.965 1421.92 410.996C1422.32 418.607 1416.41 425.75 1409.11 427.858C1401.8 429.989 1390.89 429.966 1383.39 428.701C1350.65 423.268 1301.61 414.345 1269.38 406.359C1225.33 395.421 1182.26 391.393 1180.22 389.121C1178.19 386.873 1185.45 383.009 1188.87 382.728C1190.79 382.564 1233.86 389.754 1252.83 393.665C1307.93 405.024 1355.36 419.076 1396.86 422.401C1400.65 422.706 1405.92 421.418 1409.5 420.059C1413.06 418.724 1415.38 416.101 1415.99 412.331C1416.44 409.637 1415.2 409.38 1415.87 408.466C1416.55 407.576 1420.96 406.874 1421.33 407.951Z" fill="#42C0FF"/>
<path d="M1305.64 400.199C1305.4 402.19 1303.53 403.665 1301.56 404.087C1299.6 404.532 1297.56 404.134 1295.59 403.735C1286.57 401.909 1277.53 400.105 1268.52 398.302C1263.86 397.365 1259.22 396.428 1254.58 395.492C1252.03 395 1248.14 394.25 1248.21 391.651C1248.31 387.95 1250.62 383.243 1252.5 381.276C1255.59 377.997 1257.44 377.974 1260.55 374.695C1262.19 372.962 1264.51 371.065 1266.67 372.048C1267.91 372.61 1268.59 373.899 1269.34 374.999C1280.51 391.3 1301.3 394.25 1302.9 395.351C1304.49 396.452 1305.85 398.255 1305.64 400.199Z" fill="#991D1D"/>
<path d="M1231.49 181.855C1207.7 213.964 1179.57 242.607 1151.53 271.109C1124.04 299.072 1020.36 417.67 1004.39 430.34C1003.03 431.418 1003.76 432.87 1005.46 433.174C1007.17 433.455 1008.72 432.167 1009.96 430.949C1019.14 422.05 1026.5 413.291 1035.54 404.251C1044.79 394.953 1057.18 379.941 1059.45 377.669C1067.13 369.87 1111.07 319.541 1122.7 306.988C1142.24 285.933 1158.23 269.422 1179.94 247.384C1184.04 243.239 1187.46 238.438 1191.72 234.48C1196.29 230.194 1230.01 189.022 1233.86 183.916C1236.24 180.778 1233.46 182.722 1231.49 181.855Z" fill="#12B0FF"/>
<path d="M1031.65 415.258C1031.51 416.874 1031.02 418.631 1029.61 419.403C1028.56 420.012 1027.25 419.848 1026.07 419.497C1020.45 417.741 1017.01 410.879 1018.98 405.305C1021.37 402.705 1025.93 403.08 1028.51 405.492C1031.11 407.904 1031.95 411.745 1031.65 415.258ZM1034.93 413.947C1034.53 409.192 1032.59 404.017 1028.25 402.049C1025.68 400.855 1022.66 401.019 1019.96 401.838C1018.51 402.26 1017.06 402.939 1016.17 404.134C1015.58 404.906 1015.28 405.867 1015.09 406.803C1014.58 409.286 1014.83 411.956 1015.91 414.228C1017.5 417.577 1020.64 419.872 1023.66 422.026C1024.67 422.752 1029.8 423.502 1031.88 421.956C1034.44 420.083 1035.18 417.202 1034.93 413.947Z" fill="#12B0FF"/>
<path d="M1227.53 179.654C1227.53 178.881 1227.84 178.132 1228.3 177.499C1229.78 175.556 1232.75 175.064 1234.91 176.211C1237.06 177.359 1238.33 179.841 1238.33 182.277C1238.35 184.01 1237.58 185.931 1235.96 186.493C1235.33 186.703 1234.63 186.703 1234 186.446C1233.48 186.235 1233.04 185.884 1232.59 185.532C1231.82 184.9 1231.05 184.268 1230.27 183.659C1228.98 182.605 1227.58 181.317 1227.53 179.654Z" fill="#12B0FF"/>
<path d="M1279.06 35.5982C1278.45 35.1298 1278.07 34.4038 1277.86 33.6543C1277.28 31.2889 1278.8 28.6659 1281.02 27.7291C1283.27 26.7689 1286.01 27.331 1287.91 28.8767C1289.24 29.954 1290.25 31.7573 1289.66 33.3733C1289.45 34.0056 1288.99 34.5443 1288.4 34.8722C1287.91 35.1298 1287.35 35.2703 1286.81 35.3874C1285.82 35.5748 1284.86 35.7855 1283.9 35.9963C1282.26 36.3476 1280.39 36.6287 1279.06 35.5982Z" fill="#12B0FF"/>
<path d="M1309.5 225.252C1301.33 149.676 1296.27 93.375 1288.85 50.6337C1288.05 46.0434 1287.25 41.4531 1286.46 36.8628C1286.27 35.7621 1286.03 34.5911 1285.29 33.748C1284.54 32.9283 1283.08 32.6004 1282.33 33.4201C1282.05 33.7246 1281.73 34.0993 1281.8 34.4974C1283.48 45.5282 1290.44 93.3984 1292.03 109.207C1301.12 199.561 1320.39 348.488 1327.11 398.958C1327.32 400.433 1327.89 402.26 1329.36 402.33C1331.02 402.447 1331.7 400.199 1331.59 398.513C1331.4 395.749 1311.12 240.241 1309.5 225.252Z" fill="#12B0FF"/>
<path d="M1333.02 385.843C1332.36 387.06 1331.26 387.974 1330.09 388.747C1328.54 389.777 1326.81 390.667 1324.96 390.878C1323.09 391.112 1321.05 390.573 1319.81 389.168C1317.65 386.733 1318.8 382.517 1321.54 380.76C1324.28 379.004 1327.91 379.285 1330.91 380.573C1331.66 380.901 1332.41 381.299 1332.9 381.931C1333.74 383.032 1333.65 384.625 1333.02 385.843ZM1336.48 378.559C1333.51 376.264 1329.36 376.521 1325.64 376.873C1322.08 377.201 1318.12 377.763 1315.92 380.573C1314.35 382.564 1314.07 385.351 1314.82 387.763C1315.59 390.152 1317.32 392.166 1319.38 393.618C1321.75 395.257 1324.7 394.157 1327.44 393.267C1330.58 392.283 1333.84 391.229 1336.13 388.864C1338.43 386.522 1339.08 380.55 1336.48 378.559Z" fill="#12B0FF"/>
<path d="M1223.27 59.8142C1220.18 64.9197 1220.86 72.7185 1223.78 77.9412C1223.43 80.9155 1224.93 80.9858 1227.41 82.672C1230.88 85.0374 1234.53 87.1218 1238.33 88.9485C1242.15 90.7753 1246.17 92.3444 1250.39 92.6489C1254.63 92.9533 1259.1 91.876 1262.19 88.9954C1265.8 85.6229 1267.04 80.3769 1267.09 75.4587C1267.11 72.4141 1266.76 69.3695 1266.06 66.3952C1265.1 62.4372 1263.43 58.5729 1260.62 55.5986C1257.06 51.8046 1251.82 49.7905 1246.62 49.6734C1241.42 49.5329 1234.82 50.2823 1230.37 52.9756C1226.9 55.0834 1225.35 56.3481 1223.27 59.8142Z" fill="#005A87"/>
<path d="M1311.47 96.5369C1312.17 90.7522 1310.23 83.3983 1307.63 75.7868C1307.11 74.2646 1306.46 72.7188 1305.29 71.6415C1304.21 70.6579 1302.8 70.1192 1301.4 69.7445C1296.04 68.1988 1290.34 68.3159 1284.75 68.4564C1281.84 68.5267 1278.75 68.6438 1276.32 70.2363C1273.88 71.8055 1273.81 74.3348 1275.36 75.5292C1277.6 77.2857 1284.89 78.0586 1289.99 76.7236C1285.85 77.6839 1281.47 80.0961 1277.74 82.1571C1275.73 83.2812 1273.22 85.5764 1274.54 87.4734C1276.97 91.0098 1285.43 85.9745 1290.6 86.2555C1288.26 87.3797 1282.64 88.7849 1278.7 91.4782C1277.09 92.5555 1275.38 94.2183 1275.8 96.1153C1278.38 97.4502 1281.51 96.935 1284.28 95.9748C1287.04 95.038 1289.66 94.9209 1292.57 94.6164C1288.92 95.5767 1285.45 95.8343 1282.24 97.8015C1280.51 98.832 1278.66 100.612 1279.29 102.532C1283.34 104.757 1288.49 101.478 1292.97 102.743C1294.79 103.235 1296.39 104.5 1298.26 104.804C1301.98 105.39 1310.84 101.713 1311.47 96.5369Z" fill="#E6342D"/>
<path d="M1182.31 190.942C1182.64 187.593 1183.76 183.987 1186.64 182.23C1188.96 180.801 1192.26 180.286 1194.98 180.45C1202.31 180.895 1209.55 182.09 1215.99 185.603C1219.55 187.546 1227.95 190.38 1229.24 191.926C1230.76 193.753 1230.32 196.586 1228.19 197.64C1226.03 198.671 1225.82 199.256 1223.48 198.882C1226.2 200.685 1226.5 199.233 1227.3 202.746C1227.63 204.128 1226.76 206.095 1225.49 206.727C1224.21 207.383 1222.71 207.336 1221.28 207.289C1223.15 208.882 1223.83 211.809 1222.64 213.964C1221.44 216.119 1218.38 217.055 1216.29 215.767C1217.37 217.126 1217.25 219.257 1216.15 220.615C1215.05 221.997 1212.12 222.02 1210.41 221.646C1207.93 221.107 1207.2 219.491 1205.07 218.133C1202.26 216.353 1198.77 216.002 1195.63 214.807C1186.48 211.341 1181.37 200.685 1182.31 190.942Z" fill="#E6342D"/>
<path d="M157.103 55.5518C150.616 41.4296 130.405 36.488 116.563 34.5441C100.333 32.2724 86.141 33.8649 70.5199 38.8534C57.0769 43.1861 39.7462 51.4533 40.3083 68.0814C41.1514 93.1407 78.0143 95.4124 95.8602 96.2087C114.713 97.0518 140.686 96.4897 158.438 89.3232C177.244 81.7118 183.989 57.3082 164.715 45.4109C151.037 36.9564 132.184 35.9962 116.587 35.9727C108.366 35.9727 100.357 37.0969 92.277 38.4787C85.6726 39.6262 79.0916 45.7622 77.8035 46.863C73.5177 50.5867 73.7753 58.1514 77.8035 61.922C78.1548 62.2498 78.4827 62.5777 78.834 62.8822C74.9463 59.3224 83.2369 66.887 83.1198 66.8167C86.6796 68.9245 90.6142 70.1189 94.6424 70.8918C105.041 72.9059 115.486 73.7724 125.955 75.0839C130.053 75.5758 134.152 75.646 138.227 76.3252C140.826 76.7702 147.571 79.9084 142.794 76.1847C150.499 60.025 150.452 53.0224 142.63 55.177C139.187 56.2778 135.463 56.7696 131.903 57.3551C126.985 58.1514 121.95 58.5261 117.008 59.1818C102.816 61.0554 82.6748 63.7956 69.3021 57.3317C73.5879 62.8822 74.5013 67.9643 71.9954 72.5312C73.4005 70.9855 75.2039 70.0955 76.9369 69.0182C80.8715 66.5591 85.1573 64.5216 89.4432 62.7651C103.729 56.9101 139.562 47.3314 150.733 60.4699C153.942 64.2171 158.883 59.4395 157.103 55.5518Z" fill="white"/>
<path d="M342.94 54.8729C340.504 54.8729 338.069 54.7324 335.633 54.4748C333.993 54.7324 332.284 54.8495 330.574 54.8495C322.307 54.8495 313.431 52.086 307.365 49.2522C300.737 46.1373 299.707 37.3549 302.705 31.5233C307.763 21.7806 319.192 19.0171 329.708 19.0171C332.073 19.0171 334.415 19.1576 336.593 19.3918C348.092 20.6096 361.301 22.0148 370.646 29.3921C375.47 33.1861 375.47 42.8351 370.646 46.6291C363.385 52.367 353.315 54.8729 342.94 54.8729ZM352.987 30.1181C352.87 30.1181 352.565 30.3289 352.12 30.9144C352.893 30.5163 353.104 30.1181 352.987 30.1181Z" fill="#DDF2FC"/>
<path d="M435.191 50.9381C434.277 36.7691 415.822 29.7666 404.019 27.6119C389.733 25.0123 373.76 27.2372 360.973 34.1461C346.242 42.062 340.106 59.7674 352.331 72.8826C362.425 83.7025 382.894 83.7494 396.618 84.4051C410.061 85.0375 425.401 84.1241 437.205 77.1216C451.421 68.7372 452.802 50.6337 441.772 39.0642C433.551 30.4457 415.565 28.7361 404.44 29.3918C391.466 30.1647 377.952 32.9048 370.95 43.5843C368.772 46.9099 368.444 52.8117 370.95 56.0905C376.29 63.1165 384.978 66.3016 393.433 67.8707C399.077 68.9012 404.675 69.674 410.389 69.9082C411.256 69.9317 419.125 70.7279 414.206 70.0487C416.221 70.3298 418.188 70.8216 420.132 71.4305C419.289 71.0792 418.445 70.7513 417.602 70.4C424.464 73.5383 423.996 72.9997 416.221 68.7372C413.621 66.6529 408.539 52.1794 415.822 49.369C411.583 51.0084 406.15 50.259 401.607 50.0482C396.759 49.8374 392.356 49.2753 387.812 48.5259C385.658 48.1746 383.55 47.7296 381.419 47.3549C370.528 45.3876 378.983 43.9122 380.458 52.3433C380.458 55.505 380.458 58.6667 380.458 61.8284C380.248 63.2336 378.491 65.154 377.344 65.9737C379.545 64.3811 382.168 63.3038 384.58 62.1094C387.133 60.8447 391.466 60.0016 394.698 59.5801C401.208 58.7369 407.789 57.9173 414.253 56.6526C419.218 55.6924 423.317 57.4489 428.141 57.9875C431.795 58.3857 435.401 54.4745 435.191 50.9381Z" fill="white"/>
<path d="M505.239 21.5933C509.666 47.9406 515.029 81.2203 517.184 107.849C505.193 105.624 491.375 105.343 479.173 105.226C477.417 98.2934 496.574 39.3924 505.239 21.5933Z" fill="#0082C2"/>
<path d="M401.653 471.232C401.958 469.803 402.169 468.351 402.426 466.922C402.684 465.47 403.035 464.206 402.777 462.754C402.707 462.355 402.122 462.098 401.794 462.355C399.382 464.182 399.85 467.929 399.405 470.623C399.171 472.075 401.325 472.73 401.653 471.232Z" fill="#FEFEFE"/>
<path d="M558.004 361.603C557.911 363.078 557.77 364.554 557.723 366.053C557.723 367.2 557.841 368.957 558.801 369.73C559.48 370.268 560.3 369.893 560.393 369.05C560.534 367.973 560.112 366.662 560.019 365.561C559.901 364.249 559.925 362.914 559.855 361.603C559.808 360.385 558.075 360.385 558.004 361.603Z" fill="#FEFEFE"/>
<path d="M552.43 381.322C552.36 382.845 551.868 384.742 552.852 386.03C553.274 386.568 553.929 386.568 554.351 386.03C555.335 384.742 554.843 382.845 554.749 381.322C554.679 379.824 552.524 379.824 552.43 381.322Z" fill="#FEFEFE"/>
<path d="M548.121 363.195C548.028 365.35 547.349 368.16 548.426 370.128C548.801 370.807 549.854 370.807 550.229 370.128C551.306 368.16 550.627 365.35 550.534 363.195C550.463 361.65 548.215 361.65 548.121 363.195Z" fill="#FEFEFE"/>
<path d="M544.444 349.87C544.491 350.947 544.163 351.978 544.28 353.055C544.351 353.757 545.077 354.085 545.615 353.617C546.739 352.657 546.833 351.275 546.763 349.87C546.693 348.371 544.374 348.371 544.444 349.87Z" fill="#FEFEFE"/>
<path d="M533.695 370.666C533.788 371.814 533.765 372.961 533.601 374.109C533.437 375.116 533.179 376.006 533.718 376.919C533.929 377.294 534.421 377.435 534.795 377.2C536.692 376.1 536.388 372.516 536.177 370.666C535.99 369.121 533.554 369.05 533.695 370.666Z" fill="#FEFEFE"/>
<path d="M540.931 391.885C540.557 393.36 539.784 394.906 540.885 396.171H541.774C542.875 394.906 542.102 393.36 541.728 391.885C541.634 391.487 541.025 391.487 540.931 391.885Z" fill="#FEFEFE"/>
<path d="M530.533 395.187C530.58 396.241 530.697 397.061 531.072 398.044C531.329 398.677 532.125 398.677 532.383 398.044C532.781 397.061 532.875 396.241 532.922 395.187C533.015 393.641 530.463 393.641 530.533 395.187Z" fill="#FEFEFE"/>
<path d="M560.955 399.473C560.909 401.042 560.3 403.407 561.283 404.766C561.752 405.375 562.501 405.375 562.97 404.766C563.977 403.407 563.368 401.042 563.297 399.473C563.227 397.974 561.026 397.974 560.955 399.473Z" fill="#FEFEFE"/>
<path d="M567.068 376.522C566.904 378.442 566.272 381.393 567.419 383.032C568.028 383.875 569.035 383.829 569.621 383.032C571.073 381.135 569.621 377.974 568.801 376.053C568.403 375.116 567.115 375.702 567.068 376.522Z" fill="#FEFEFE"/>
<path d="M563.813 346.216C562.97 347.247 562.806 348.066 562.806 349.401C562.806 350.666 563.11 352.165 564.515 352.469C564.867 352.539 565.312 352.493 565.546 352.212C566.272 351.298 566.131 350.596 565.85 349.518C565.546 348.371 565.358 347.387 564.82 346.333C564.632 346.005 564.07 345.888 563.813 346.216Z" fill="#FEFEFE"/>
<path d="M572.431 396.264C572.384 397.857 572.712 399.356 573.649 400.667C573.836 400.948 574.234 400.714 574.094 400.386C573.438 399.028 573.087 397.81 573.181 396.264C573.204 395.773 572.431 395.773 572.431 396.264Z" fill="#FEFEFE"/>
<path d="M562.735 386.545C561.963 388.7 561.307 390.761 563.251 392.471C563.602 392.775 564.281 392.705 564.375 392.166C564.515 391.581 564.796 390.738 564.609 390.129C564.281 389.004 563.836 387.81 563.672 386.662C563.625 386.124 562.923 385.983 562.735 386.545Z" fill="#FEFEFE"/>
<path d="M567.419 360.408C566.225 362.399 565.944 367.411 568.38 368.629C569.059 368.98 569.808 368.793 570.23 368.137C570.886 367.106 570.558 366.053 570.464 364.882C570.347 363.547 570.253 361.978 569.761 360.736C569.363 359.729 568.052 359.401 567.419 360.408Z" fill="#FEFEFE"/>
<path d="M568.099 412.26C568.122 414.134 567.654 416.757 568.52 418.443C568.731 418.864 569.41 418.864 569.621 418.443C570.487 416.757 570.019 414.134 570.042 412.26C570.066 410.995 568.075 410.995 568.099 412.26Z" fill="#FEFEFE"/>
<path d="M555.569 442.472C555.381 443.76 555.452 444.931 556.529 445.774C556.927 446.102 557.372 445.587 557.302 445.188C557.138 444.298 556.857 443.596 556.974 442.659C557.068 441.863 555.709 441.675 555.569 442.472Z" fill="#FEFEFE"/>
<path d="M549.222 422.939C549.245 424.204 549.128 425.539 549.456 426.78C549.573 427.178 550.159 427.178 550.253 426.78C550.58 425.539 550.463 424.204 550.51 422.939C550.51 422.096 549.199 422.096 549.222 422.939Z" fill="#FEFEFE"/>
<path d="M580.417 444.252C580.558 446.266 580.862 448.327 581.565 450.2C581.705 450.575 582.244 450.435 582.15 450.06C581.705 448.116 581.26 446.266 581.167 444.252C581.143 443.783 580.394 443.783 580.417 444.252Z" fill="#FEFEFE"/>
<path d="M496.317 70.7281C495.637 72.4611 495.263 75.0373 496.481 76.6065C496.879 77.0983 497.722 77.0046 497.745 76.2786C497.745 75.5057 497.511 74.8734 497.417 74.1005C497.277 73.0935 497.488 72.0864 497.815 71.1496C498.167 70.166 496.668 69.7913 496.317 70.7281Z" fill="#FEFEFE"/>
<path d="M500.766 61.8756C500.602 63.2339 500.251 64.5923 500.813 65.9038C500.977 66.3019 501.68 66.3019 501.844 65.9038C502.429 64.5923 502.054 63.2339 501.891 61.8756C501.82 61.1496 500.86 61.1496 500.766 61.8756Z" fill="#FEFEFE"/>
<path d="M501.141 73.9366C500.532 75.3652 500.158 77.0749 500.602 78.5972C500.86 79.4403 502.031 79.2295 502.078 78.4098C502.195 76.9812 502.078 75.7165 502.593 74.3348C502.921 73.398 501.516 73.0701 501.141 73.9366Z" fill="#FEFEFE"/>
<path d="M489.619 82.6722C489.642 84.3818 488.752 86.7238 489.642 88.2929L490.415 88.4803C492.242 87.403 491.89 84.4755 491.726 82.6722C491.586 81.3372 489.595 81.2904 489.619 82.6722Z" fill="#FEFEFE"/>
<path d="M497.16 85.3423C496.996 86.7943 496.223 88.6445 496.926 90.0028C497.16 90.4712 497.792 90.4712 498.143 90.1668C499.314 89.0894 499.057 86.8177 499.104 85.3423C499.15 84.0542 497.3 84.1244 497.16 85.3423Z" fill="#FEFEFE"/>
<path d="M504.092 86.3958C504.092 87.1218 504.115 87.6839 504.537 88.2928C504.818 88.6909 505.31 88.6909 505.591 88.2928C505.989 87.6839 506.036 87.1218 506.036 86.3958C506.036 85.1311 504.092 85.1311 504.092 86.3958Z" fill="#FEFEFE"/>
<path d="M505.497 72.2034C505.193 73.5384 504.818 74.8733 505.427 76.1614C505.708 76.7469 506.528 76.6064 506.832 76.1614C507.488 75.1778 507.511 73.9599 507.816 72.8592C508.237 71.3603 505.872 70.7046 505.497 72.2034Z" fill="#FEFEFE"/>
<path d="M497.581 54.2405C497.324 55.3647 497.019 56.5357 497.3 57.6832L497.862 57.7535C498.307 56.7465 498.378 55.6223 498.682 54.545C498.869 53.8424 497.769 53.5379 497.581 54.2405Z" fill="#FEFEFE"/>
<path d="M502.078 42.6709C501.867 44.4039 501.586 47.1909 502.991 48.479C503.342 48.8069 503.998 48.6898 504.115 48.1745C504.303 47.3548 504.139 46.8396 503.951 46.0199C503.694 44.9192 503.717 43.7716 503.787 42.6709C503.858 41.5467 502.195 41.5935 502.078 42.6709Z" fill="#FEFEFE"/>
<path d="M507.277 92.5322C506.762 94.1013 506.083 96.0452 507.441 97.3567C507.909 97.8016 508.635 97.8016 509.08 97.3567C510.439 96.0452 509.783 94.1013 509.244 92.5322C508.916 91.572 507.605 91.572 507.277 92.5322Z" fill="#FEFEFE"/>
<path d="M500.345 96.5369C500.415 97.4971 500.321 98.4807 500.673 99.3707C500.93 100.026 501.727 100.026 501.984 99.3707C502.335 98.4807 502.265 97.4971 502.312 96.5369C502.359 95.2722 500.298 95.2722 500.345 96.5369Z" fill="#FEFEFE"/>
<path d="M472.873 217.828C466.597 227.735 463.716 239.234 459.173 249.96C454.863 260.124 447.369 270.874 449.852 282.28C450.671 286.097 454.91 286.94 458.002 285.582C469.524 280.593 474.723 264.855 478.845 253.895C483.248 242.232 484.513 228.672 477.534 217.828C476.41 216.095 473.974 216.095 472.873 217.828Z" fill="#FEFEFE"/>
<path d="M476.808 217.898C477.183 217.898 477.183 217.29 476.808 217.29C476.41 217.29 476.41 217.898 476.808 217.898Z" fill="#D4F9E6"/>
<path d="M455.8 287.104C454.817 290.828 452.826 294.763 453.107 298.674C453.154 299.329 454.184 299.798 454.512 299.048C456.058 295.465 457.276 291.554 458.33 287.807C458.798 286.191 456.222 285.488 455.8 287.104Z" fill="#FEFEFE"/>
<path d="M465.051 290.664C465.192 295.84 463.037 301.835 466.152 306.425C466.527 307.011 467.37 306.636 467.253 305.98C466.269 300.711 467.323 295.91 467.229 290.664C467.182 289.259 465.004 289.259 465.051 290.664Z" fill="#FEFEFE"/>
<path d="M475.192 257.267C470.461 264.223 471.07 277.549 476.527 283.989C477.3 284.903 478.658 283.919 478.424 282.888C476.55 275.043 472.171 265.792 476.293 257.923C476.667 257.173 475.637 256.588 475.192 257.267Z" fill="#FEFEFE"/>
<path d="M487.206 291.718C487.253 296.167 487.534 301.367 489.712 305.301C489.993 305.84 490.672 305.442 490.602 304.927C489.923 300.5 488.846 296.261 488.775 291.718C488.775 290.711 487.206 290.711 487.206 291.718Z" fill="#FEFEFE"/>
<path d="M479.642 302.936C479.572 305.793 478.963 310.454 481.586 312.398C482.241 312.889 483.248 312.234 483.225 311.461C483.155 310.056 482.499 308.768 482.405 307.339C482.288 305.863 482.429 304.388 482.499 302.936C482.569 301.109 479.689 301.086 479.642 302.936Z" fill="#FEFEFE"/>
<path d="M467.932 319.47C468.049 321.18 467.815 322.866 467.768 324.576C467.744 326.192 467.463 327.667 468.33 329.119C468.775 329.869 469.875 329.869 470.344 329.119C472.054 326.286 470.765 321.836 469.548 319.025C469.196 318.229 467.885 318.651 467.932 319.47Z" fill="#FEFEFE"/>
<path d="M454.067 317.339C454.067 322.632 453.95 327.574 452.193 332.632C452.006 333.148 452.662 333.663 453.13 333.359C457.978 330.009 456.854 322.492 456.854 317.339C456.854 315.536 454.09 315.536 454.067 317.339Z" fill="#FEFEFE"/>
<path d="M442.217 323.452C440.952 327.293 439.804 330.899 437.931 334.553C436.245 337.832 434.465 340.712 434.863 344.53C434.957 345.42 435.94 345.654 436.479 344.975C438.961 341.696 440.53 337.878 442.24 334.178C443.762 330.899 445.051 327.082 444.184 323.452C443.926 322.445 442.521 322.562 442.217 323.452Z" fill="#FEFEFE"/>
<path d="M428.212 354.366C427.673 355.842 427.251 357.34 426.9 358.863C426.642 360.104 426.174 361.486 426.947 362.586C427.298 363.078 427.907 363.172 428.376 362.774C429.312 361.931 429.219 360.736 429.406 359.565C429.64 358.02 430.015 356.474 430.46 354.975C430.881 353.523 428.703 352.961 428.212 354.366Z" fill="#FEFEFE"/>
<path d="M435.636 356.474C434.957 358.98 433.317 362.914 434.816 365.326C435.238 366.006 436.221 366.006 436.643 365.326C437.275 364.273 437.275 363.102 437.322 361.884C437.416 360.291 437.697 358.699 437.954 357.106C438.212 355.607 436.057 354.951 435.636 356.474Z" fill="#FEFEFE"/>
<path d="M447.65 341.321C447.182 345.256 445.753 350.057 446.76 353.945C447.111 355.233 448.798 355.069 449.219 353.945C449.945 352.024 449.875 349.94 450.015 347.926C450.156 345.724 450.343 343.523 450.484 341.321C450.601 339.471 447.837 339.541 447.65 341.321Z" fill="#FEFEFE"/>
<path d="M492.288 324.553C492.78 326.426 493.249 328.323 493.717 330.22C494.185 332.187 494.466 334.295 495.567 336.028C496.153 336.988 497.628 336.59 497.652 335.466C497.698 333.663 497.043 332 496.504 330.314C495.825 328.206 495.122 326.075 494.373 323.967C493.928 322.656 491.914 323.194 492.288 324.553Z" fill="#FEFEFE"/>
<path d="M482.897 328.768C483.389 331.227 483.014 334.647 484.63 336.684C485.098 337.27 486.105 336.918 486.269 336.263C486.855 333.827 485.426 330.572 484.56 328.3C484.162 327.269 482.686 327.668 482.897 328.768Z" fill="#FEFEFE"/>
<path d="M492.968 359.565C494.139 363.968 494.279 369.168 496.317 373.243C496.715 373.992 497.956 373.641 497.933 372.798C497.722 368.301 495.356 363.5 493.694 359.355C493.53 358.933 492.85 359.074 492.968 359.565Z" fill="#FEFEFE"/>
<path d="M479.595 367.458C479.665 369.636 479.595 372.798 481.703 374.062C482.288 374.437 482.967 373.969 482.991 373.336C483.084 371.392 482.522 369.425 482.522 367.458C482.522 365.584 479.548 365.584 479.595 367.458Z" fill="#FEFEFE"/>
<path d="M498.963 347.949C499.197 349.378 499.502 350.666 500.485 351.79C500.743 352.071 501.282 351.86 501.258 351.462C501.164 350.127 500.696 348.839 500.485 347.527C500.321 346.52 498.799 346.942 498.963 347.949Z" fill="#FEFEFE"/>
<path d="M471.14 352C471.164 353.289 471.07 354.506 471.726 355.677C472.054 356.286 472.99 356.286 473.342 355.677C473.998 354.506 473.904 353.289 473.927 352C473.951 350.197 471.117 350.197 471.14 352Z" fill="#FEFEFE"/>
<path d="M456.081 380.011C457.182 386.053 457.674 392.564 460.18 398.232C460.531 399.028 461.585 398.395 461.491 397.669C460.625 391.58 459.149 385.515 458.049 379.472C457.814 378.184 455.871 378.723 456.081 380.011Z" fill="#FEFEFE"/>
<path d="M443.88 390.526C443.318 393.266 442.568 396.03 442.896 398.84C442.966 399.449 443.2 400.199 443.833 400.456C448.048 402.283 446.877 393.056 446.83 390.924C446.784 389.285 444.231 388.817 443.88 390.526Z" fill="#FEFEFE"/>
<path d="M431.795 376.638C429.992 379.051 427.931 384.203 429.781 387.013C430.038 387.435 430.764 387.529 431.022 387.013C431.607 385.749 431.467 384.484 431.537 383.102C431.631 381.112 432.216 379.191 433.27 377.505C433.879 376.545 432.427 375.748 431.795 376.638Z" fill="#FEFEFE"/>
<path d="M422.333 405.328C422.31 406.803 422.076 408.232 421.724 409.66C421.443 410.878 420.975 412.049 420.998 413.337C421.022 414.251 422.122 414.438 422.614 413.759C424.23 411.581 424.558 407.974 424.581 405.328C424.605 403.876 422.38 403.876 422.333 405.328Z" fill="#FEFEFE"/>
<path d="M411.232 406.335C410.085 408.489 408.75 411.393 408.703 413.852C408.679 414.836 409.874 414.977 410.366 414.321C410.998 413.478 411.232 412.447 411.56 411.464C412.028 410.105 412.59 408.794 413.293 407.529C414.066 406.194 411.958 404.953 411.232 406.335Z" fill="#FEFEFE"/>
<path d="M405.799 440.481C407.157 439.076 408.375 437.67 409.359 435.961C410.342 434.251 411.724 432.448 411.724 430.387C411.724 429.544 410.834 429.169 410.131 429.497C408.422 430.293 407.672 432.096 406.829 433.689C405.775 435.656 405.213 437.67 404.675 439.825C404.534 440.457 405.33 440.973 405.799 440.481Z" fill="#FEFEFE"/>
<path d="M393.012 451.465C393.246 449.708 393.901 448.116 394.791 446.547C395.588 445.141 396.852 444.017 397.555 442.565C397.93 441.746 397.157 441.02 396.361 441.394C394.721 442.12 393.714 443.947 392.848 445.423C391.841 447.202 391.185 449.17 390.951 451.207C390.81 452.378 392.848 452.636 393.012 451.465Z" fill="#FEFEFE"/>
<path d="M420.155 457.952C419.804 458.842 419.476 459.732 419.289 460.669C419.218 461.161 419.874 461.489 420.132 461.02C420.577 460.201 420.928 459.311 421.373 458.468C421.841 457.601 420.507 457.039 420.155 457.952Z" fill="#FEFEFE"/>
<path d="M428.703 427.951C428.352 429.357 428.188 430.785 428.094 432.237C428.024 433.713 427.884 435.375 428.493 436.757C428.867 437.6 430.015 437.226 430.273 436.523C430.694 435.375 430.46 434.041 430.483 432.823C430.507 431.371 430.671 429.965 431.022 428.584C431.397 427.085 429.078 426.452 428.703 427.951Z" fill="#FEFEFE"/>
<path d="M496.317 388.793C496.012 391.206 495.38 395.257 497.183 397.225C497.722 397.81 498.963 397.74 499.291 396.944C499.877 395.609 499.572 394.11 499.314 392.705C499.01 391.018 498.752 389.777 497.722 388.419C497.254 387.81 496.41 388.021 496.317 388.793Z" fill="#FEFEFE"/>
<path d="M504.959 386.124C505.123 388.231 504.982 392.353 507.183 393.477C507.863 393.805 508.495 393.477 508.776 392.822C509.244 391.721 508.706 390.62 508.401 389.519C508.073 388.278 507.605 387.06 507.254 385.819C506.902 384.578 504.888 384.789 504.959 386.124Z" fill="#FEFEFE"/>
<path d="M480.016 387.435C478.635 391.627 480.18 398.817 483.365 401.955C484.162 402.752 485.543 402.189 485.543 401.065C485.543 398.794 484.396 396.662 483.67 394.555C482.874 392.236 482.663 389.8 482.124 387.435C481.867 386.334 480.344 386.475 480.016 387.435Z" fill="#FEFEFE"/>
<path d="M489.197 379.706C488.471 380.901 488.33 382.446 489.618 383.266C489.923 383.453 490.344 383.453 490.649 383.266C491.914 382.446 491.796 380.901 491.07 379.706C490.649 379.004 489.618 379.004 489.197 379.706Z" fill="#FEFEFE"/>
<path d="M490.602 409.59C490.555 411.534 490.298 413.806 491.07 415.632C491.375 416.358 492.312 416.241 492.405 415.468C492.663 413.548 492.007 411.487 491.797 409.59C491.703 408.841 490.602 408.794 490.602 409.59Z" fill="#FEFEFE"/>
<path d="M472.99 412.729C473.388 414.204 474.091 419.239 476.527 418.584C477.557 418.302 477.768 416.968 477.487 416.101C477.065 414.672 476.667 413.244 476.316 411.815C475.824 409.637 472.428 410.574 472.99 412.729Z" fill="#FEFEFE"/>
<path d="M458.868 421.323C458.868 422.752 458.728 424.134 458.447 425.539L458.892 425.656C459.243 424.228 459.454 422.799 459.524 421.323C459.548 420.902 458.868 420.902 458.868 421.323Z" fill="#FEFEFE"/>
<path d="M494.349 448.842C494.631 450.317 495.029 451.746 495.544 453.151C495.731 453.69 496.223 454.182 496.832 454.135C497.254 454.111 497.464 454.018 497.792 453.737C498.261 453.315 498.237 452.659 497.98 452.121C497.417 450.856 496.972 449.568 496.598 448.21C496.176 446.758 494.045 447.39 494.349 448.842Z" fill="#FEFEFE"/>
<path d="M505.427 437.53C504.982 439.638 504.912 442.823 507.511 443.432C507.956 443.525 508.354 443.291 508.495 442.87C509.034 441.137 508.05 439.614 507.933 437.858C507.839 436.5 505.755 436.055 505.427 437.53Z" fill="#FEFEFE"/>
<path d="M470.133 251.412C467.065 260.452 461.913 272.467 467.112 281.507C470.555 287.549 478.283 286.542 481.937 281.507C487.932 273.24 483.178 260.054 480.251 251.412C478.588 246.377 471.843 246.424 470.133 251.412Z" fill="#FEFEFE"/>
<path d="M473.037 218.601C469.126 229.655 471.398 238.953 473.599 250.124C475.941 261.998 477.136 277.385 485.356 286.636C488.026 289.657 492.804 288.509 494.771 285.418C501.258 275.324 496.551 264.434 493.319 253.848C489.408 241.061 482.007 230.803 477.37 218.601C476.574 216.493 473.81 216.423 473.037 218.601Z" fill="#FEFEFE"/>
<path d="M558.731 303.522C555.288 306.684 552.688 310.501 550.253 314.459C547.676 318.581 544.21 323.288 542.852 327.972C541.54 332.399 546.763 336.591 550.768 334.038C559.105 328.745 559.55 316.051 565.101 308.44C567.935 304.576 561.986 300.571 558.731 303.522Z" fill="#FEFEFE"/>
<path d="M563.297 298.182C558.59 304.786 556.225 310.828 553.953 318.557C552.149 324.74 549.761 334.365 554.07 339.986C555.007 341.181 556.107 341.766 557.63 341.438C572.595 338.253 570.066 310.875 569.995 300.008C569.972 296.191 565.288 295.371 563.297 298.182Z" fill="#FEFEFE"/>
<path d="M560.745 304.482C559.433 310.15 558.262 317.222 559.574 322.984C560.815 328.44 561.799 335.701 566.623 339.12C567.326 339.612 568.661 339.659 569.363 339.12C579.223 331.579 569.996 315.068 568.989 305.606C568.544 301.18 561.892 299.54 560.745 304.482Z" fill="#FEFEFE"/>
<path d="M502.195 22.4833C499.689 29.2048 494.537 35.7156 497.043 43.2099C498.448 47.3552 505.052 49.2522 507.23 44.5449C510.439 37.6594 508.916 29.6732 507.394 22.4833C506.809 19.6495 503.038 20.1882 502.195 22.4833Z" fill="#FEFEFE"/>
<path d="M503.506 31.1953C502.242 37.4016 501.516 48.3621 507.745 52.2029C508.589 52.7416 509.572 52.5074 510.275 51.875C516.036 46.8398 509.736 38.0339 509.408 31.9916C509.221 28.7596 504.209 27.7291 503.506 31.1953Z" fill="#FEFEFE"/>
<path d="M789.44 252.677C791.079 251.576 792.765 250.663 794.615 249.984C796.489 249.305 798.409 248.766 799.862 247.337C800.447 246.728 800.33 245.674 799.58 245.276C795.599 243.051 790.306 246.283 787.098 248.649C784.732 250.405 786.91 254.387 789.44 252.677Z" fill="#FEFEFE"/>
<path d="M777.425 240.475C778.948 239.726 780.423 238.789 781.079 237.173C781.454 236.19 780.306 235.159 779.369 235.464C778.151 235.862 777.238 236.728 776.043 237.197C773.608 238.157 775.107 241.67 777.425 240.475Z" fill="#FEFEFE"/>
<path d="M750.586 258.298C752.507 257.221 754.755 257.619 756.746 256.705C758.432 255.933 757.823 253.427 756.254 252.982C753.303 252.139 750.937 254.317 748.853 256.05C747.565 257.127 749.204 259.071 750.586 258.298Z" fill="#FEFEFE"/>
<path d="M757.05 269.071C758.128 268.251 759.181 267.689 760.516 267.361C761.734 267.08 763.139 266.916 764.193 266.19C765.2 265.488 765.598 263.544 764.193 262.935C760.797 261.483 757.331 264.176 755.177 266.635C754.099 267.877 755.551 270.148 757.05 269.071Z" fill="#FEFEFE"/>
<path d="M793.374 237.29L793.562 236.939C793.14 237.126 792.742 237.29 792.321 237.454C793.398 237.665 794.545 236.892 795.435 236.377C796.115 235.978 798.105 236.236 799.136 235.885C801.267 235.135 801.431 232.676 799.721 231.388C796.396 228.882 790.915 231.552 791.009 235.674C791.032 236.306 791.337 236.986 791.922 237.267L792.063 237.337C791.876 237.032 791.712 236.705 791.524 236.4L791.548 236.798C791.618 237.712 792.859 238.203 793.374 237.29Z" fill="#FEFEFE"/>
<path d="M772.624 254.223C773.608 253.45 774.802 252.982 775.88 252.396C776.465 252.092 776.817 251.436 776.817 250.78C776.817 250.429 776.723 250.148 776.559 249.844C776.278 249.305 775.552 248.86 774.943 248.907C772.859 249.094 771.313 250.007 769.767 251.366C767.776 253.122 770.634 255.816 772.624 254.223Z" fill="#FEFEFE"/>
<path d="M699.203 283.568C700.983 282.655 702.903 281.882 704.8 281.203C706.533 280.594 708.969 280.758 710.187 279.235C710.562 278.767 710.726 277.994 710.187 277.549C708.313 276.003 705.901 277.128 703.91 277.924C701.592 278.861 699.742 280.242 697.915 281.929C697.002 282.772 698.173 284.107 699.203 283.568Z" fill="#FEFEFE"/>
<path d="M716.253 286.706C720.023 285.137 724.075 284.06 727.002 281.132C727.564 280.594 727.143 279.704 726.393 279.657C722.389 279.493 718.876 281.39 715.199 282.889C712.857 283.826 713.911 287.69 716.253 286.706Z" fill="#FEFEFE"/>
<path d="M722.576 271.366C723.326 270.734 724.122 270.312 725.082 270.031C726.183 269.703 727.354 269.914 728.314 269.188C729.181 268.532 729.485 267.385 728.665 266.542C726.206 263.989 721.639 266.518 719.555 268.345C717.471 270.195 720.492 273.146 722.576 271.366Z" fill="#FEFEFE"/>
<path d="M738.127 278.251C738.759 278.205 739.415 278.181 740.047 278.134C740.82 278.111 741.289 277.642 741.921 277.291C742.717 276.893 742.717 275.628 741.921 275.23C741.476 274.996 741.054 274.598 740.539 274.457C739.79 274.247 738.9 274.317 738.127 274.27C735.574 274.129 735.574 278.392 738.127 278.251Z" fill="#FEFEFE"/>
<path d="M736.558 266.565C737.705 266.354 739.321 266.05 739.321 264.528C739.321 263.029 737.705 262.724 736.558 262.514C733.162 261.881 733.162 267.174 736.558 266.565Z" fill="#FEFEFE"/>
<path d="M731.054 254.715C731.897 253.544 734.052 252.607 735.363 252.115C737.049 251.506 739.227 251.225 740.445 249.773C741.171 248.907 741.124 247.642 740.094 247.01C737.869 245.675 735.059 246.775 732.927 247.759C730.445 248.93 729.18 250.593 728.15 253.005C727.283 254.996 729.766 256.518 731.054 254.715Z" fill="#FEFEFE"/>
<path d="M702.177 263.567C703.489 263.169 704.824 262.841 706.182 262.537C707.353 262.279 708.852 261.858 709.859 261.179C710.538 260.71 710.585 259.446 709.601 259.258C706.838 258.743 703.746 260.265 701.264 261.366C699.999 261.905 700.913 263.942 702.177 263.567Z" fill="#FEFEFE"/>
<path d="M751.546 245.393C752.881 245.042 754.263 244.784 755.645 244.691C757.144 244.621 758.619 244.503 759.79 243.543C760.704 242.794 760.423 241.506 759.79 240.733C758.783 239.445 756.629 239.281 755.106 239.445C753.162 239.656 751.476 240.241 749.767 241.225C747.518 242.513 749.041 246.096 751.546 245.393Z" fill="#FEFEFE"/>
<path d="M807.216 239.796C808.106 240.101 809.113 240.78 810.002 240.944C811.197 241.178 812.415 241.389 813.609 241.506C815.975 241.74 818.691 240.921 820.05 238.977C820.729 237.97 820.214 236.564 819.253 235.956C815.576 233.637 810.729 236.869 807.216 238.063C806.372 238.368 806.372 239.515 807.216 239.796Z" fill="#FEFEFE"/>
<path d="M834.312 231.459C835.39 230.92 836.514 230.639 837.732 230.545C838.926 230.475 840.401 230.498 841.385 229.749C842.088 229.234 842.603 228.227 842.017 227.384C839.816 224.269 834.64 225.768 831.806 227.196C828.973 228.648 831.478 232.911 834.312 231.459Z" fill="#FEFEFE"/>
<path d="M815.998 229.866C816.466 229.843 817.005 229.889 817.473 229.749C817.918 229.632 818.199 229.28 818.597 229.07C819.206 228.789 819.206 227.735 818.597 227.454C818.199 227.266 817.918 226.892 817.473 226.775C817.005 226.657 816.466 226.681 815.998 226.657C813.913 226.517 813.913 230.007 815.998 229.866Z" fill="#FEFEFE"/>
<path d="M665.104 298.439C667.399 299.962 670.42 299.821 673.043 299.376C675.268 298.978 679.132 298.416 679.132 295.465C679.132 289.868 666.884 295.044 664.916 296.917C664.425 297.362 664.588 298.112 665.104 298.439Z" fill="#FEFEFE"/>
<path d="M657.071 284.692C660.654 284.669 665.08 284.294 667.633 281.507C668.5 280.57 667.867 279.235 666.673 279.142C663.3 278.884 659.834 280.242 656.532 280.711C654.213 281.039 654.846 284.692 657.071 284.692Z" fill="#FEFEFE"/>
<path d="M685.994 280.43C687.282 279.68 688.851 279.306 689.905 278.182C690.327 277.737 690.421 276.917 689.905 276.495C688.266 275.043 686.088 275.441 684.167 276.121C680.889 277.292 683.067 282.14 685.994 280.43Z" fill="#FEFEFE"/>
<path d="M674.167 272.818C676.064 271.928 678.43 272.233 680.163 271.062C680.889 270.57 681.123 269.539 680.444 268.884C678.172 266.682 674.472 267.947 671.966 269.048C669.413 270.172 671.614 273.966 674.167 272.818Z" fill="#FEFEFE"/>
<path d="M689.109 298.439C690.233 297.877 691.404 297.62 692.645 297.573C694.144 297.503 695.339 297.526 696.557 296.542C697.072 296.121 697.119 295.231 696.791 294.692C694.823 291.484 689.484 293.17 686.884 294.622C684.378 296.027 686.58 299.728 689.109 298.439Z" fill="#FEFEFE"/>
<path d="M635.431 310.665C637.375 309.634 639.435 308.721 641.52 308.042C643.393 307.456 645.454 307.41 647.094 306.262C647.89 305.723 648.101 304.365 647.094 303.873C642.714 301.718 636.789 305.419 633.58 308.253C632.222 309.447 633.955 311.438 635.431 310.665Z" fill="#FEFEFE"/>
<path d="M639.716 319.19C641.215 318.44 642.831 317.878 644.424 317.41C646.04 316.941 647.89 316.965 649.319 316.028C650.232 315.419 650.443 313.85 649.319 313.311C645.735 311.531 640.349 314.061 637.843 316.777C636.625 318.089 638.147 319.962 639.716 319.19Z" fill="#FEFEFE"/>
<path d="M636.812 299.447C638.475 298.463 640.911 298.697 642.105 297.128C642.363 296.777 642.269 296.285 642.105 295.934C640.888 293.217 636.508 294.763 634.658 295.746C632.222 297.034 634.424 300.852 636.812 299.447Z" fill="#FEFEFE"/>
<path d="M647.094 294.622V294.669C646.508 295.653 647.094 296.73 648.077 297.105C648.405 297.222 649.319 297.503 648.358 297.034C649.038 297.386 649.647 297.269 650.349 297.198C651.708 297.058 653.815 296.73 654.705 295.606C655.408 294.692 655.291 293.685 654.354 292.983C653.277 292.163 651.801 292.585 650.56 292.819C649.951 292.913 649.389 293.217 648.827 293.451C648.499 293.545 648.218 293.709 647.96 293.943C647.164 294.763 648.124 293.873 648.522 293.826C649.061 294.388 649.623 294.95 650.185 295.489V295.465C650.302 293.779 647.89 293.287 647.094 294.622Z" fill="#FEFEFE"/>
<path d="M630.114 287.198C632.901 285.301 636.063 284.716 639.178 283.568C640.021 283.264 640.138 282.022 639.178 281.765C635.407 280.734 631.637 282.35 628.545 284.528C626.953 285.676 628.451 288.322 630.114 287.198Z" fill="#FEFEFE"/>
<path d="M610.629 304.693C611.66 304.342 612.69 303.92 613.674 303.405C614.564 302.936 614.868 302.163 615.336 301.344C615.805 300.524 615.032 299.494 614.119 299.751C613.486 299.915 612.948 299.822 612.339 300.079C611.449 300.477 610.582 300.852 609.645 301.156C607.374 301.882 608.381 305.466 610.629 304.693Z" fill="#FEFEFE"/>
<path d="M607.982 321.789C609.997 320.712 612.784 320.595 614.47 319.002C615.266 318.253 614.985 317.035 614.142 316.473C611.659 314.787 607.982 316.66 605.898 318.206C603.79 319.775 605.57 323.054 607.982 321.789Z" fill="#FEFEFE"/>
<path d="M523.039 351.298C525.076 349.589 527.887 349.191 529.807 347.411C530.299 346.942 530.182 346.076 529.596 345.748C526.458 344.015 522.594 346.474 520.158 348.441C518.144 350.057 521.025 352.961 523.039 351.298Z" fill="#FEFEFE"/>
<path d="M525.826 339.869C527.605 338.535 529.713 337.879 531.587 336.684C532.219 336.286 532.032 335.49 531.399 335.232C528.8 334.155 526.177 335.139 523.788 336.38C521.423 337.621 523.765 341.439 525.826 339.869Z" fill="#FEFEFE"/>
<path d="M584.329 331.087C585.546 330.548 586.858 330.22 588.123 329.846C589.457 329.447 590.675 329.307 591.729 328.253C592.268 327.714 592.081 326.918 591.495 326.496C588.942 324.67 584.891 326.684 582.595 328.112C580.652 329.307 582.338 331.953 584.329 331.087Z" fill="#FEFEFE"/>
<path d="M580.23 320.15C580.792 318.932 581.799 318.229 582.947 317.574C584.586 316.613 583.977 313.686 581.94 313.85C579.317 314.061 577.256 315.302 576.038 317.691C574.562 320.525 578.942 322.984 580.23 320.15Z" fill="#FEFEFE"/>
<path d="M581.846 300.664C582.783 299.446 584.282 299.587 585.617 299.329C587.607 298.931 587.186 296.332 585.617 295.723C582.9 294.669 579.925 296.402 578.684 298.814C577.56 300.945 580.441 302.514 581.846 300.664Z" fill="#FEFEFE"/>
<path d="M593.603 315.559C595.851 315.068 598.708 315.161 600.488 313.569C601.05 313.077 601.074 312 600.488 311.484C598.099 309.447 594.563 310.641 592.034 311.859C589.879 312.889 591.472 316.004 593.603 315.559Z" fill="#FEFEFE"/>
<path d="M601.074 297.456C602.432 296.987 603.79 296.566 605.149 296.144C606.46 295.746 607.397 294.973 608.568 294.294C609.575 293.732 609.083 292.233 608.006 292.21C606.601 292.163 605.453 291.999 604.071 292.303C602.69 292.608 601.331 293.076 599.973 293.474C597.443 294.247 598.568 298.299 601.074 297.456Z" fill="#FEFEFE"/>
<path d="M622.034 313.78C622.831 312.89 624.025 313.147 624.798 312.257C625.032 311.976 625.243 311.531 625.079 311.157C624.048 308.674 621.004 309.869 619.552 311.274C617.912 312.89 620.535 315.466 622.034 313.78Z" fill="#FEFEFE"/>
<path d="M585.64 346.708C586.858 345.677 588.193 344.834 589.621 344.132C591.073 343.429 592.713 343.265 593.93 342.211C594.68 341.579 594.212 340.408 593.392 340.127C591.729 339.588 590.019 340.431 588.52 341.087C586.623 341.907 584.937 343.124 583.415 344.483C581.893 345.841 584.118 348.019 585.64 346.708Z" fill="#FEFEFE"/>
<path d="M612.034 334.717C613.135 333.804 614.306 333.078 615.547 332.422C616.835 331.766 618.732 330.9 619.341 329.541C619.786 328.581 619.669 327.34 618.615 326.778C615.219 324.998 610.629 328.745 608.217 330.876C605.594 333.242 609.388 336.872 612.034 334.717Z" fill="#FEFEFE"/>
<path d="M366.289 435.68C368.561 434.814 370.809 433.9 372.964 432.776C374.721 431.886 377.344 431.371 377.835 429.146C377.929 428.701 377.859 428.162 377.484 427.835C375.728 426.359 373.854 427.319 372.027 428.186C369.475 429.404 367.32 431.09 365.048 432.729C363.69 433.736 364.463 436.406 366.289 435.68Z" fill="#0082C2"/>
<path d="M362.167 448.983C363.854 448.467 365.634 448.233 367.343 447.788C369.193 447.32 371.559 446.5 370.973 444.088C370.388 441.629 366.687 441.582 364.79 442.121C362.589 442.753 361.113 444.064 359.755 445.844C358.584 447.39 360.505 449.498 362.167 448.983Z" fill="#0082C2"/>
<path d="M332.05 460.552C333.267 458.96 334.954 457.695 336.593 456.594C338.209 455.517 340.434 454.721 341.371 452.894C341.722 452.215 341.441 451.208 340.598 451.044C338.232 450.529 335.89 452.121 334.04 453.409C331.956 454.838 330.363 456.641 329.263 458.913C328.349 460.81 330.808 462.192 332.05 460.552Z" fill="#0082C2"/>
<path d="M334.063 444.838C335.539 443.807 337.225 443.128 338.888 442.519C340.598 441.91 342.471 441.582 344.017 440.552C345.352 439.638 345.844 437.086 344.017 436.313C339.146 434.252 334.321 437.507 331.019 440.88C329.075 442.87 331.651 446.5 334.063 444.838Z" fill="#0082C2"/>
<path d="M346.663 448.467C347.858 448.467 348.279 448.28 349.263 447.741C349.872 447.414 349.872 446.453 349.263 446.125C348.279 445.587 347.858 445.399 346.663 445.399C344.673 445.399 344.673 448.467 346.663 448.467Z" fill="#0082C2"/>
<path d="M352.073 461.395C352.682 459.521 354.579 459.92 355.985 458.913C356.781 458.35 357.015 457.273 356.289 456.5C354.954 455.119 352.846 455.259 351.207 456.009C349.404 456.828 348.303 458.35 347.67 460.177C346.687 462.964 351.16 464.205 352.073 461.395Z" fill="#0082C2"/>
<path d="M358.584 471.653C360.107 470.248 362.331 470.669 363.76 469.358C364.346 468.819 364.369 467.719 363.76 467.18C361.371 465.072 357.39 467.391 355.821 469.498C354.556 471.185 357.179 472.941 358.584 471.653Z" fill="#0082C2"/>
<path d="M369.545 458.655C370.739 458.959 372.121 459.03 373.081 458.069C373.971 457.203 374.276 455.751 373.596 454.697C373.175 453.994 372.215 453.666 371.489 454.135C371.09 454.393 370.809 454.72 370.435 455.025C370.903 454.837 371.372 454.65 371.84 454.439C371.395 454.463 371.161 454.533 370.716 454.393C367.976 453.596 366.781 457.999 369.545 458.655Z" fill="#0082C2"/>
<path d="M377.086 445.353C377.648 444.603 378.327 444.252 378.608 443.292C378.327 443.666 378.023 444.041 377.742 444.416C378.187 444.111 378.514 443.83 378.819 443.385C379.217 442.847 379.006 442.097 378.608 441.652C377.18 440.13 375.142 440.762 373.854 442.121C371.746 444.275 375.306 447.624 377.086 445.353Z" fill="#0082C2"/>
<path d="M336.991 472.028C337.132 471.068 337.342 470.599 338.256 470.295C339.52 469.85 340.176 468.468 339.474 467.297C338.982 466.454 338.092 466.196 337.178 466.36C334.907 466.758 333.267 468.679 332.869 470.904C332.377 473.62 336.616 474.721 336.991 472.028Z" fill="#0082C2"/>
<path d="M309.918 474.183C312.213 471.958 315.234 471.162 317.623 469.077C318.138 468.632 318.044 467.555 317.389 467.25C313.431 465.471 309.449 468.211 306.615 470.881C304.437 472.941 307.763 476.267 309.918 474.183Z" fill="#0082C2"/>
<path d="M304.461 460.365C307.084 459.405 309.73 458.515 312.306 457.484C314.274 456.664 317.061 456.102 318.068 454.065C318.396 453.409 318.302 452.425 317.529 452.074C315.421 451.09 313.454 452.121 311.416 452.987C308.559 454.182 305.843 455.704 303.102 457.133C301.369 458.07 302.587 461.067 304.461 460.365Z" fill="#0082C2"/>
<path d="M270.947 472.168C274.39 473.878 280.385 473.995 282.048 469.756C282.423 468.819 281.486 467.695 280.526 467.742C279.285 467.812 278.231 468.468 277.013 468.773C275.631 469.124 274.39 469.218 273.031 468.609C270.666 467.531 268.558 470.974 270.947 472.168Z" fill="#0082C2"/>
<path d="M286.709 456.899C288.442 455.775 290.245 454.791 292.165 454.018C293.594 453.433 295.374 452.988 296.287 451.676C296.545 451.278 296.381 450.599 295.936 450.388C294.273 449.592 292.282 450.435 290.667 451.091C288.699 451.887 286.826 452.894 285.022 454.042C283.242 455.189 284.905 458.046 286.709 456.899Z" fill="#0082C2"/>
<path d="M321.393 440.903C322.096 439.942 323.384 439.872 324.415 439.521C326.265 438.889 326.85 436.265 324.977 435.235C321.698 433.385 318.489 435.376 316.475 438.022C315.515 439.263 316.288 441.207 317.506 441.933C318.934 442.776 320.48 442.144 321.393 440.903Z" fill="#0082C2"/>
<path d="M840.003 469.217C841.011 467.25 842.275 465.517 843.774 463.901C845.156 462.426 847.264 461.208 848.13 459.358C848.528 458.514 848.083 457.156 846.936 457.273C844.687 457.531 843.048 459.24 841.526 460.763C839.629 462.683 837.989 464.908 836.772 467.32C835.694 469.475 838.926 471.372 840.003 469.217Z" fill="#F3FFF8"/>
<path d="M853.704 467.554C854.945 466.571 856.467 465.587 857.334 464.182C858.224 462.753 859.231 460.458 857.264 459.334C853.727 457.25 851.151 463.175 850.308 465.587C849.582 467.718 852.275 468.679 853.704 467.554Z" fill="#F3FFF8"/>
<path d="M850.823 448.397C854.125 447.39 858.013 445.516 858.13 441.605C858.177 440.575 857.076 439.732 856.093 440.036C853.704 440.809 851.783 442.448 849.418 443.338C846.303 444.486 847.544 449.381 850.823 448.397Z" fill="#F3FFF8"/>
<path d="M835.366 450.762C835.577 449.381 835.998 448.046 836.865 446.945C837.919 445.61 839.254 444.673 839.91 443.081C840.214 442.331 839.582 441.277 838.809 441.137C834.359 440.364 831.314 445.797 830.752 449.498C830.565 450.786 831.057 452.074 832.415 452.449C833.563 452.753 835.179 452.074 835.366 450.762Z" fill="#F3FFF8"/>
<path d="M847.498 429.24C847.989 427.764 848.903 426.546 850.191 425.656C851.526 424.79 853.329 424.72 854.383 423.455C854.992 422.729 854.969 421.628 854.079 421.09C852.041 419.872 849.512 421.3 847.849 422.612C846.022 424.087 844.781 426.078 844.242 428.35C843.704 430.481 846.795 431.301 847.498 429.24Z" fill="#F3FFF8"/>
<path d="M767.261 461.137C768.526 459.568 769.931 458.28 771.664 457.25C773.303 456.266 775.036 455.657 776.301 454.182C776.91 453.479 776.676 452.472 775.786 452.167C771.266 450.622 766.535 455.446 764.146 458.725C762.811 460.552 765.856 462.87 767.261 461.137Z" fill="#F3FFF8"/>
<path d="M792.719 436.265C794.264 435.188 795.857 434.158 797.473 433.174C798.948 432.261 800.962 431.464 801.712 429.802C802.18 428.771 801.923 427.061 800.517 426.874C798.55 426.616 797.122 427.506 795.482 428.513C793.679 429.614 791.922 430.785 790.213 432.003C787.636 433.806 790.072 438.092 792.719 436.265Z" fill="#F3FFF8"/>
<path d="M745.247 453.315C746.019 451.746 747.05 450.575 748.525 449.638C749.977 448.725 751.664 447.976 752.858 446.734C753.561 446.032 753.163 445.001 752.319 444.673C747.565 442.847 743.092 447.858 741.476 451.723C740.563 453.877 744.193 455.376 745.247 453.315Z" fill="#F3FFF8"/>
<path d="M768.128 435.446C769.486 433.619 772.039 432.495 772.835 430.317C773.163 429.403 772.46 428.537 771.641 428.232C770.47 427.811 768.292 428.35 767.285 429.099C765.832 430.176 764.662 431.347 763.584 432.799C762.741 433.947 763.397 435.727 764.544 436.406C765.879 437.179 767.285 436.593 768.128 435.446Z" fill="#F3FFF8"/>
<path d="M707.986 458.397C708.829 457.531 709.672 456.664 710.515 455.798C710.936 455.376 711.358 454.767 711.522 454.205C711.639 453.76 711.639 453.315 711.522 452.87C711.639 453.315 711.733 453.245 711.803 452.66C712.154 451.606 711.054 450.505 710 450.856C708.595 451.325 710.89 451.044 709.11 451.044C708.431 451.044 707.915 451.348 707.377 451.723C706.253 452.566 705.269 453.69 704.262 454.674C701.85 457.039 705.62 460.81 707.986 458.397Z" fill="#F3FFF8"/>
<path d="M722.131 438.233C726.042 438.233 726.042 432.167 722.131 432.167C718.22 432.167 718.22 438.233 722.131 438.233Z" fill="#F3FFF8"/>
<path d="M722.787 458.187C722.646 457.25 722.74 456.383 723.396 455.657C724.051 454.978 724.777 454.51 725.058 453.549C725.176 453.175 724.988 452.823 724.684 452.613C723.255 451.629 721.499 452.636 720.515 453.784C719.367 455.142 719.063 456.922 719.274 458.655C719.578 461.255 723.232 460.763 722.787 458.187Z" fill="#F3FFF8"/>
<path d="M872.791 448.397C872.534 447.226 872.44 445.891 872.932 444.743C873.517 443.385 874.876 442.425 875.157 440.949C875.297 440.106 874.922 439.193 874.033 438.982C871.667 438.397 869.747 440.387 868.763 442.284C867.545 444.603 867.545 447.226 868.014 449.732C868.599 452.847 873.424 451.535 872.791 448.397Z" fill="#F3FFF8"/>
<path d="M874.384 422.143C874.735 420.996 875.695 420.223 876.726 419.637C879.653 417.951 877.569 413.946 874.548 414.461C871.339 415.023 869.208 417.389 868.529 420.527C867.709 424.345 873.26 425.914 874.384 422.143Z" fill="#F3FFF8"/>
<path d="M971.108 426.476C972.162 425.071 973.333 423.806 974.621 422.635C976.026 421.347 977.291 420.153 977.314 418.139C977.314 417.6 976.916 416.944 976.354 416.874C972.138 416.218 969.609 421.558 968.063 424.696C967.056 426.781 969.773 428.28 971.108 426.476Z" fill="#F3FFF8"/>
<path d="M980.733 431.394C982.162 430.223 984.317 430.013 984.972 428.139C985.16 427.647 984.949 426.991 984.574 426.617C982.537 424.649 979.352 426.898 977.665 428.326C975.487 430.13 978.602 433.174 980.733 431.394Z" fill="#F3FFF8"/>
<path d="M989.422 407.459C989.422 406.663 989.375 405.937 989.258 405.141C988.907 402.564 984.41 402.564 984.059 405.141C983.942 405.937 983.895 406.663 983.895 407.459C983.895 411.042 989.422 411.042 989.422 407.459Z" fill="#F3FFF8"/>
<path d="M966.822 450.481C966.564 449.662 966.892 450.107 966.236 450.926C966.494 450.622 966.775 450.388 966.939 450.013C967.267 449.24 967.314 448.373 966.658 447.741C965.534 446.687 964.199 446.828 962.958 447.577C961.412 448.537 961.365 450.317 961.693 451.91C962.395 455.259 967.899 453.784 966.822 450.481Z" fill="#F3FFF8"/>
<path d="M910.989 445.47C911.551 444.181 912.464 443.151 912.98 441.863C913.331 440.973 912.183 440.364 911.481 440.715C910.193 441.371 909.373 442.87 908.717 444.135C907.944 445.657 910.333 446.992 910.989 445.47Z" fill="#F3FFF8"/>
<path d="M907.57 429.333C907.898 428.537 908.717 428.209 909.045 427.436C909.373 426.734 909.326 425.703 908.507 425.328C906.469 424.415 904.713 425.984 903.823 427.764C902.464 430.411 906.516 432.144 907.57 429.333Z" fill="#F3FFF8"/>
<path d="M1061.27 456.149C1063.64 454.744 1066.87 454.72 1068.93 452.917C1070.13 451.863 1069.68 449.919 1068.44 449.146C1066.78 448.092 1064.08 448.467 1062.45 449.451C1060.74 450.458 1059.59 451.722 1058.51 453.385C1057.39 455.095 1059.59 457.156 1061.27 456.149Z" fill="#F3FFF8"/>
<path d="M1080.78 462.519C1080.97 461.325 1081.32 460.271 1082.12 459.357C1083.08 458.233 1084.37 457.601 1085.02 456.219C1085.47 455.306 1085.07 454.369 1084.13 454.018C1080.06 452.519 1076.59 457.859 1076.01 461.208C1075.47 464.346 1080.31 465.634 1080.78 462.519Z" fill="#F3FFF8"/>
<path d="M1084.13 437.694C1083.78 436.64 1083.9 438.092 1084.06 437.343C1084.13 436.991 1084.27 436.64 1084.27 436.265C1084.27 435.165 1083.31 434.532 1082.35 434.345C1079.42 433.736 1078.58 436.851 1079.05 439.099C1079.78 442.401 1085.16 440.949 1084.13 437.694Z" fill="#F3FFF8"/>
<path d="M1113.27 412.448C1110.78 415.516 1108.72 420.785 1111.91 424.064C1112.4 424.579 1113.13 424.275 1113.36 423.689C1114.46 420.785 1113.88 417.811 1116.05 415.258C1117.74 413.314 1114.86 410.48 1113.27 412.448Z" fill="#F3FFF8"/>
<path d="M1120.32 436.828C1119.54 439.076 1118.91 441.254 1119.24 443.643C1119.52 445.68 1122.42 445.282 1122.96 443.643C1123.59 441.769 1123.57 439.755 1123.92 437.835C1124.39 435.469 1121.11 434.532 1120.32 436.828Z" fill="#F3FFF8"/>
<path d="M1133.88 396.639C1132.78 399.215 1131.02 404.368 1133.71 406.546C1134.63 407.295 1135.7 407.155 1136.41 406.194C1137.15 405.211 1137.15 403.782 1137.2 402.588C1137.27 401.393 1137.62 400.175 1138.09 399.098C1138.63 397.88 1138.47 396.475 1137.23 395.749C1136.19 395.14 1134.41 395.421 1133.88 396.639Z" fill="#F3FFF8"/>
<path d="M1145.52 429.872C1145.59 433.104 1145.05 437.179 1146.57 440.153C1147.01 441.02 1148.44 441.02 1148.89 440.153C1150.39 437.179 1149.87 433.104 1149.94 429.872C1150.01 427.015 1145.45 427.015 1145.52 429.872Z" fill="#F3FFF8"/>
<path d="M1131.86 441.465C1134.13 443.549 1132.4 447.273 1133.9 449.662C1134.23 450.2 1134.98 450.458 1135.54 450.107C1137.51 448.842 1137.65 446.383 1137.27 444.275C1136.85 441.91 1135.33 440.622 1133.45 439.404C1132.21 438.584 1130.76 440.458 1131.86 441.465Z" fill="#F3FFF8"/>
<path d="M1117.6 454.393C1117.51 455.657 1117.34 456.969 1117.44 458.234C1117.53 459.686 1118.11 460.646 1119.12 461.676C1119.59 462.145 1120.39 462.145 1120.85 461.676C1121.67 460.857 1122.33 460.037 1122.47 458.866C1122.68 457.367 1122.49 455.892 1122.4 454.393C1122.19 451.301 1117.79 451.301 1117.6 454.393Z" fill="#F3FFF8"/>
<path d="M1102.05 452.191C1100.62 454.041 1099.87 456.032 1099.61 458.351C1099.4 460.412 1100.1 463.362 1102.12 464.323C1102.94 464.721 1104.32 464.463 1104.48 463.362C1104.69 461.957 1104.16 460.88 1104.02 459.498C1103.83 457.812 1104.55 456.196 1105.58 454.931C1107.62 452.379 1104.04 449.615 1102.05 452.191Z" fill="#F3FFF8"/>
<path d="M1147.48 451.606C1146.5 454.299 1146.24 457.601 1147.93 460.084C1148.44 460.856 1149.36 461.582 1150.36 461.489L1150.15 461.442C1151.02 461.606 1152.14 461.372 1152.54 460.458C1152.21 460.833 1152.28 460.716 1152.8 460.084C1153.06 459.639 1153.2 459.17 1153.2 458.655C1153.13 457.976 1153.15 457.18 1152.96 456.524C1152.57 455.142 1152.4 453.69 1152.33 452.261C1152.21 449.404 1148.4 449.006 1147.48 451.606Z" fill="#F3FFF8"/>
<path d="M1156.8 452.261C1156.92 454.065 1157.39 455.681 1158.19 457.297C1158.96 458.795 1160.86 460.903 1162.66 460.692C1163.81 460.552 1164.63 459.873 1164.67 458.655C1164.74 457.32 1163.88 456.571 1163.24 455.493C1162.66 454.486 1162.21 453.409 1162.12 452.261C1161.86 448.865 1156.55 448.842 1156.8 452.261Z" fill="#F3FFF8"/>
<path d="M1157.6 426.921C1156.8 431.488 1157.37 439.45 1163.17 440.411C1164.42 440.621 1165.91 439.872 1165.82 438.397C1165.7 436.429 1164.88 434.813 1164.13 433.01C1163.41 431.324 1163.39 429.52 1163.57 427.741C1163.9 424.321 1158.19 423.548 1157.6 426.921Z" fill="#F3FFF8"/>
<path d="M1154.67 399.075C1153.97 400.457 1154.23 402.33 1154.23 403.852C1154.2 405.867 1153.55 407.623 1154.67 409.45C1155.16 410.27 1156.34 410.668 1157.18 410.129C1159.38 408.7 1159.45 406.265 1159.45 403.852C1159.45 402.096 1159.01 399.239 1157.18 398.419C1156.34 398.021 1155.14 398.115 1154.67 399.075Z" fill="#F3FFF8"/>
<path d="M1170.83 406.007C1168.91 410.012 1168.23 417.296 1173.97 418.584C1174.88 418.794 1176.06 418.139 1175.96 417.061C1175.7 414.11 1174.39 411.815 1175.82 408.911C1177.46 405.586 1172.43 402.658 1170.83 406.007Z" fill="#F3FFF8"/>
<path d="M1186.85 424.532C1186.71 429.146 1187.32 436.149 1191.61 438.889C1192.73 439.591 1194.39 438.678 1194.32 437.32C1194.23 435.376 1193.36 433.643 1192.73 431.793C1191.93 429.451 1191.75 426.991 1191.79 424.532C1191.89 421.324 1186.95 421.347 1186.85 424.532Z" fill="#F3FFF8"/>
<path d="M1179.01 438.42C1177.06 442.753 1178.61 448.655 1183.99 449.24C1185 449.334 1185.42 448.116 1185.07 447.367C1183.81 444.744 1181.56 443.104 1182.78 440.013C1183.64 437.835 1179.97 436.289 1179.01 438.42Z" fill="#F3FFF8"/>
<path d="M1181.65 459.311C1182.38 461.114 1183.36 462.66 1184.98 463.807C1186.48 464.861 1189.26 466.009 1190.72 464.299C1191.14 463.807 1191.47 463.081 1191.21 462.402C1190.65 460.88 1189.47 460.669 1188.14 459.99C1187.09 459.451 1186.55 458.468 1186.1 457.437C1185.03 454.908 1180.6 456.758 1181.65 459.311Z" fill="#F3FFF8"/>
<path d="M1201.65 455.938C1203.34 457.741 1205.59 460.599 1208.14 461.137C1209.15 461.348 1210.32 460.458 1209.94 459.334C1209.08 456.851 1206.41 454.814 1204.72 452.87C1202.92 450.739 1199.71 453.877 1201.65 455.938Z" fill="#F3FFF8"/>
<path d="M1228.75 425.001C1228.09 429.427 1228.98 439.029 1234.77 439.942C1235.89 440.13 1236.67 439.521 1236.81 438.397C1237.04 436.383 1235.82 434.579 1234.96 432.846C1233.81 430.598 1233.27 428.092 1233.18 425.586C1233.08 423.174 1229.15 422.401 1228.75 425.001Z" fill="#F3FFF8"/>
<path d="M1251.58 451.886C1252.94 453.128 1254.09 454.791 1255.78 455.657C1256.83 456.196 1257.91 455.517 1257.98 454.392C1258.17 452.027 1256.55 450.036 1255.07 448.374C1252.94 445.985 1249.22 449.708 1251.58 451.886Z" fill="#F3FFF8"/>
<path d="M1251.89 430.223C1254.84 433.127 1258.49 436.476 1262.57 437.554C1263.53 437.811 1264.56 436.898 1264.23 435.914C1262.76 431.488 1257.91 429.521 1254.35 427.038C1252.43 425.703 1250.3 428.654 1251.89 430.223Z" fill="#F3FFF8"/>
<path d="M1275.75 448.163C1276.5 449.662 1277.77 451.418 1279.57 451.676C1280.51 451.816 1281.7 451.278 1281.61 450.13C1281.49 448.725 1280.72 447.577 1280.2 446.289C1278.92 442.987 1274.16 445.001 1275.75 448.163Z" fill="#F3FFF8"/>
<path d="M1290.41 436.921C1290.98 439.427 1292.55 443.877 1295.54 444.298C1296.64 444.439 1297.63 443.853 1297.67 442.659C1297.72 441.511 1297.09 440.317 1296.53 439.333C1295.85 438.162 1295.43 436.944 1295.17 435.61C1294.58 432.495 1289.71 433.783 1290.41 436.921Z" fill="#F3FFF8"/>
<path d="M1331.94 437.717C1331.38 441.277 1330.84 447.483 1334.49 449.638C1335.52 450.27 1337.02 449.708 1337.3 448.514C1337.65 447.085 1337.3 445.704 1337 444.298C1336.6 442.636 1336.6 440.762 1336.86 439.076C1337.04 437.694 1336.53 436.336 1335.08 435.937C1333.84 435.61 1332.15 436.336 1331.94 437.717Z" fill="#F3FFF8"/>
<path d="M1347.58 399.988C1347.65 402.143 1347.68 404.251 1348.33 406.335C1348.96 408.373 1351.82 408.373 1352.45 406.335C1353.11 404.251 1353.13 402.143 1353.2 399.988C1353.32 396.358 1347.47 396.358 1347.58 399.988Z" fill="#F3FFF8"/>
<path d="M1370.23 366.943C1369.97 369.776 1370.53 372.891 1373.23 374.39C1374.07 374.859 1375.05 374.273 1375.1 373.336C1375.17 371.439 1374.87 369.472 1375.24 367.598C1375.99 363.968 1370.58 363.219 1370.23 366.943Z" fill="#F3FFF8"/>
<path d="M1386.53 364.788C1386.34 368.207 1386.72 373.922 1390.18 375.655C1391.24 376.193 1392.29 375.514 1392.38 374.39C1392.55 372.727 1391.8 371.369 1391.35 369.776C1390.91 368.16 1390.91 366.474 1391.05 364.788C1391.26 361.907 1386.72 361.907 1386.53 364.788Z" fill="#F3FFF8"/>
<path d="M1397.65 342.89C1398.71 345.467 1399.62 349.307 1402.08 350.877C1402.64 351.228 1403.67 350.9 1403.79 350.174C1404.19 347.387 1402.27 344.436 1401.26 341.907C1400.37 339.658 1396.72 340.665 1397.65 342.89Z" fill="#F3FFF8"/>
<path d="M1368.19 329.963C1368.99 331.368 1369.83 332.937 1370.93 334.131C1371.75 335.021 1373.25 336.38 1374.47 336.567C1375.52 336.708 1376.65 336.146 1376.6 334.928C1376.58 333.78 1375.87 332.375 1375.38 331.368C1374.66 329.916 1373.79 328.558 1373.11 327.082C1371.61 323.803 1366.39 326.707 1368.19 329.963Z" fill="#F3FFF8"/>
<path d="M1371.17 446.805C1372.03 448.514 1372.67 451.067 1374.42 452.027C1374.87 452.262 1375.55 452.191 1375.76 451.699C1376.76 449.498 1375.29 446.922 1374.4 444.908C1373.46 442.73 1370.07 444.627 1371.17 446.805Z" fill="#F3FFF8"/>
<path d="M1360.37 452.261C1360.53 455.189 1360.93 459.03 1363.72 460.646C1364.44 461.044 1365.26 460.529 1365.31 459.732C1365.45 457.18 1364.09 454.791 1363.88 452.261C1363.7 450.013 1360.23 449.966 1360.37 452.261Z" fill="#F3FFF8"/>
<path d="M1347.56 461.278C1347.93 462.332 1348.1 463.386 1348.26 464.487C1348.36 465.049 1348.31 465.564 1348.59 466.079C1348.52 465.939 1349.57 467.18 1349.29 466.782C1349.71 467.391 1350.74 467.695 1351.28 467.039L1351.47 466.829C1352.1 466.501 1352.55 465.728 1352.52 465.002C1352.45 463.105 1351.89 461.489 1350.91 459.873C1349.85 458.14 1346.83 459.264 1347.56 461.278Z" fill="#F3FFF8"/>
<path d="M1352.92 438.397C1352.95 440.575 1352.48 443.573 1354.26 445.189C1355.12 445.961 1356.32 445.961 1357.18 445.189C1358.96 443.573 1358.5 440.575 1358.54 438.397C1358.61 434.767 1352.85 434.767 1352.92 438.397Z" fill="#F3FFF8"/>
<path d="M1323.16 463.55C1322.97 464.276 1322.64 464.627 1321.96 464.932C1320.67 465.494 1321.35 467.578 1322.66 467.508C1324.68 467.437 1325.83 466.337 1326.41 464.44C1327.07 462.355 1323.72 461.442 1323.16 463.55Z" fill="#F3FFF8"/>
<path d="M1311.66 450.528C1310.98 453.83 1310.72 458.538 1314.42 460.084C1315.47 460.529 1316.53 459.615 1316.86 458.725C1317.3 457.484 1317.04 456.149 1316.76 454.908C1316.5 453.69 1316.55 452.425 1316.67 451.207C1316.97 448.327 1312.24 447.718 1311.66 450.528Z" fill="#F3FFF8"/>
<path d="M1300.95 461.863C1301 464.416 1300.48 467.765 1302.73 469.498C1303.08 469.756 1303.81 469.756 1304.19 469.498C1306.43 467.765 1305.92 464.416 1305.97 461.863C1306.04 458.631 1300.88 458.631 1300.95 461.863Z" fill="#F3FFF8"/>
<path d="M1284.49 460.786C1284.07 464.299 1285.26 469.92 1289.59 470.131C1290.34 470.178 1291.28 469.545 1291.4 468.773C1291.75 466.243 1289.97 464.112 1290.32 461.583C1290.88 457.32 1285 456.524 1284.49 460.786Z" fill="#F3FFF8"/>
<path d="M1384.84 457.601C1384.96 461.442 1387.42 465.189 1391.56 465.236C1393.74 465.283 1394.82 462.542 1393.32 461.044C1392.34 460.06 1390.79 459.1 1390.6 457.601C1390.42 456.032 1389.43 454.72 1387.72 454.72C1386.18 454.72 1384.8 456.032 1384.84 457.601Z" fill="#F3FFF8"/>
<path d="M1396.32 448.14C1397.91 450.81 1399.48 453.456 1401.68 455.634C1403.67 457.601 1406.72 455.119 1405.45 452.73C1404 449.99 1401.99 447.671 1400.09 445.236C1398.38 443.034 1394.96 445.845 1396.32 448.14Z" fill="#F3FFF8"/>
<path d="M1402.62 440.996C1402.46 442.074 1402.48 443.057 1402.53 444.158C1402.71 447.062 1406.88 447.062 1407.05 444.158C1407.12 443.057 1407.14 442.074 1406.95 440.996C1406.6 438.842 1402.97 438.842 1402.62 440.996Z" fill="#F3FFF8"/>
<path d="M1220.13 464.791C1218.09 468.116 1219.22 471.957 1222.68 473.69C1223.53 474.112 1224.77 474.323 1225.61 473.69C1228.61 471.372 1225.52 468.116 1224.93 465.423C1224.42 463.128 1221.26 462.964 1220.13 464.791Z" fill="#F3FFF8"/>
<path d="M894.221 382.142C896.071 381.697 897.968 381.393 899.865 381.276C901.621 381.135 903.471 381.58 905.017 380.573C905.532 380.222 905.673 379.496 905.228 379.051C903.776 377.599 901.762 377.833 899.865 377.95C897.64 378.091 895.555 378.606 893.495 379.449C891.879 380.128 892.441 382.541 894.221 382.142Z" fill="#F3FFF8"/>
<path d="M791.22 326.145C792.625 324.412 794.381 323.265 796.513 322.632C797.941 322.211 801.033 321.321 799.862 319.236C798.691 317.082 795.107 318.932 793.726 319.845C791.875 321.063 790.4 322.773 789.393 324.74C788.831 325.864 790.33 327.223 791.22 326.145Z" fill="#F3FFF8"/>
<path d="M804.452 332.023C804.897 331.251 805.365 330.548 806.232 330.244C807.497 329.775 808.551 329.4 809.628 328.557C810.096 328.159 810.237 327.199 809.862 326.684C806.888 322.655 801.689 325.887 799.792 329.307C798.105 332.351 802.766 335.068 804.452 332.023Z" fill="#F3FFF8"/>
<path d="M817.005 319.939C817.731 319.26 818.949 319.119 819.815 318.581C820.869 317.972 821.221 316.637 820.612 315.606C818.832 312.562 814.944 314.131 812.86 315.794C809.956 318.112 814.171 322.468 817.005 319.939Z" fill="#F3FFF8"/>
<path d="M890.309 333.827C890.965 332.703 892.159 332.796 892.932 331.86C893.354 331.321 893.658 330.454 893.19 329.822C891.106 327.035 886.937 329.283 886.539 332.258C886.234 334.436 889.021 336.005 890.309 333.827Z" fill="#F3FFF8"/>
</svg>
