<svg width="392" height="453" viewBox="0 0 392 453" fill="none" xmlns="http://www.w3.org/2000/svg">
<path d="M372.393 452.903H10.5322V450.35H372.393C373.095 450.35 373.658 450.912 373.658 451.615C373.658 452.317 373.095 452.903 372.393 452.903Z" fill="#BA0D07"/>
<path d="M229.017 255.286C230.047 257.277 231.124 259.291 232.272 261.375C234.239 264.982 236.441 266.996 238.642 267.769C240.328 268.354 242.015 268.237 243.631 267.581C245.34 266.902 246.956 265.614 248.361 263.951C251.359 260.321 253.35 254.911 253.162 249.361C252.952 242.873 250.282 236.293 246.699 232.616C245.34 231.257 243.888 230.32 242.413 229.993C241.031 229.688 239.602 229.946 238.174 230.929C235.316 232.943 232.553 237.768 230.445 246.55C229.883 248.916 229.415 251.656 229.063 254.864L229.017 255.286ZM31.3059 294.467C30.5799 293.812 29.8305 293.179 29.0342 292.594C26.9264 291.025 24.5844 289.713 22.1487 288.636C24.5141 295.217 29.8539 302.454 33.6011 306.107C34.2802 306.763 34.8657 307.278 35.3576 307.653C34.8189 305.756 33.1327 302.337 29.8305 296.88C29.4557 296.294 29.6431 295.521 30.2286 295.147L31.3059 294.467ZM166.626 209.055C166.626 209.196 166.626 209.313 166.626 209.43L167.914 208.634C167.961 208.165 167.938 207.697 167.844 207.275C167.703 206.643 167.586 206.198 167.469 205.894C167.001 206.643 166.649 207.884 166.626 209.055ZM153.136 228.634C153.441 229.524 153.886 230.063 154.565 230.297C157.726 231.421 159.928 230.976 161.544 229.665C163.277 228.236 164.471 225.754 165.478 223.06C166.907 219.196 166.743 217.791 166.204 216.667C163.183 220.273 158.71 224.302 153.136 228.634ZM152.246 221.468C152.363 221.608 152.457 221.749 152.504 221.913C152.551 222.053 152.574 222.17 152.574 222.311C152.574 223.739 152.597 224.981 152.691 226.011C158.171 221.749 162.434 217.884 165.033 214.535C164.916 214.254 164.799 213.973 164.682 213.669L152.246 221.468ZM150.021 223.786C149.623 223.786 149.272 223.693 148.967 223.552L35.2873 294.983C36.0836 295.896 36.7862 296.856 37.4419 297.91C50.3463 289.62 65.8971 280.416 81.7289 271.048C107.303 255.918 133.604 240.368 150.326 227.815C150.162 226.69 150.068 225.355 150.021 223.786ZM270.634 12.4219C265.879 18.0426 263.514 26.8017 265.903 37.1767C266.043 36.5678 266.184 35.9589 266.324 35.3265C267.238 31.0407 272.648 25.6307 279.369 22.2348C282.835 20.4783 286.653 19.2136 290.423 18.8858C294.264 18.5579 298.058 19.1902 301.314 21.2277C303.703 22.7032 305.787 24.9047 307.403 27.9961C302.93 15.3728 296.161 8.69811 289.323 6.54348C285.857 5.46617 282.367 5.51301 279.159 6.56691C275.95 7.59738 272.999 9.61149 270.634 12.4219ZM269.416 43.0785C271.547 40.2213 277.753 36.0291 284.522 33.3358C288.105 31.9072 291.899 30.8767 295.365 30.6191C298.972 30.3615 302.274 30.947 304.733 32.844C305.927 33.7808 306.911 34.9986 307.59 36.5678C307.567 36.4038 307.543 36.2633 307.497 36.0994C306.162 29.495 303.422 25.5136 299.979 23.3824C297.215 21.6727 293.983 21.1341 290.634 21.4385C287.215 21.743 283.702 22.8906 280.517 24.5065C274.428 27.5745 269.58 32.2585 268.807 35.8418C268.362 38.0198 267.847 40.0105 267.285 41.8372C267.331 42.0012 267.402 42.1885 267.472 42.3525C268.151 42.6101 268.784 42.8443 269.416 43.0785ZM277.238 62.7746C278.409 63.1962 279.674 63.5943 281.009 63.969C278.222 59.4724 278.784 56.5683 279.229 54.2264C279.721 51.697 280.025 50.0342 270.704 46.3104C267.355 56.0531 270.681 60.2687 277.238 62.7746ZM290.728 66.1237C291.782 66.311 292.836 66.5218 293.913 66.756C294.452 66.1237 294.99 65.304 295.482 64.2969C298.831 57.8096 303.656 45.9826 305.436 41.5796C305.67 40.9941 305.857 40.5257 306.021 40.1744C305.6 37.6919 304.593 35.9823 303.164 34.8581C301.267 33.3827 298.574 32.9377 295.529 33.1485C292.344 33.3827 288.831 34.3663 285.458 35.7012C279.346 38.1369 273.842 41.6499 271.828 44.0153C282.906 48.5119 282.461 50.9476 281.735 54.6948C281.313 56.8494 280.798 59.5661 284.217 64.133C284.405 64.3906 284.592 64.6482 284.803 64.8824C286.676 65.304 288.667 65.7021 290.728 66.1237ZM290.353 68.6296L290.236 68.6062L289.206 68.3954C289.58 68.5359 289.979 68.6296 290.353 68.6296ZM348.997 421.263C346.912 419.694 344.641 418.452 342.322 417.492C342.181 418.757 342.041 419.951 341.924 421.029L348.997 421.263ZM335.015 420.584C335.249 419.178 335.483 417.492 335.741 415.548C332.158 414.869 328.762 414.775 326.045 415.056C323.773 415.291 322.04 415.806 321.244 416.438C321.057 416.579 321.104 416.813 321.478 417.094C323.118 418.312 327.286 419.6 335.015 420.584ZM375.039 114.252C371.831 114.978 368.903 117.483 367.498 122.144C366.023 127.086 367.17 130.786 369.419 132.894C369.887 133.339 370.402 133.713 370.941 134.018C372.346 126.43 373.705 119.755 375.039 114.252ZM383.354 113.034C383.752 113.221 384.15 113.455 384.525 113.713C384.876 111.207 385.18 108.795 385.415 106.617C385.836 103.033 385.602 100.832 384.97 99.8014C384.806 99.5672 384.665 99.4267 384.525 99.4267C384.337 99.3799 384.056 99.497 383.728 99.7078C382.44 100.574 381.012 102.776 379.981 105.984C379.442 107.6 378.904 109.45 378.365 111.511C380.098 111.675 381.784 112.191 383.354 113.034ZM384.126 116.57C383.518 116.078 382.862 115.633 382.183 115.282C380.777 114.533 379.255 114.111 377.733 114.017C376.304 119.708 374.852 126.734 373.377 134.838C374.36 134.955 375.391 134.908 376.374 134.603C379.161 133.784 381.714 131.09 382.581 126.172C383.096 123.268 383.611 119.989 384.103 116.734L384.126 116.57ZM374.173 144.463C373.166 144.908 372.229 145.423 371.409 146.079C362.533 199.289 352.978 285.638 346.046 348.357C342.931 376.601 340.355 400.068 338.575 413.604C339.113 413.722 339.652 413.885 340.167 414.049C342.392 395.782 346.678 363.603 351.479 327.49C360.988 255.825 372.557 168.75 374.173 144.463ZM376.89 140.81C379.044 140.248 381.246 139.896 383.26 139.568L383.962 139.451C389.349 131.301 389.396 124.58 387.007 120.083C386.796 119.708 386.562 119.334 386.328 119.006C385.93 121.676 385.508 124.299 385.087 126.617C384.033 132.636 380.731 135.962 377.077 137.039C376.164 137.32 375.227 137.437 374.29 137.437C375.016 137.835 375.719 138.351 376.421 138.959C376.726 139.194 376.913 139.568 376.913 139.967C376.913 140.224 376.913 140.505 376.89 140.81ZM371.995 142.683C372.744 142.285 373.517 141.934 374.313 141.629C374.337 141.231 374.337 140.88 374.337 140.552C373.775 140.084 373.166 139.709 372.557 139.428C372.37 140.482 372.182 141.583 371.995 142.683ZM188.5 363.884C190.959 367.842 194.074 370.816 197.774 372.034C197.868 371.566 197.938 371.074 198.009 370.606C193.09 368.053 189.788 365.289 187.61 362.385C187.891 362.9 188.196 363.392 188.5 363.884ZM200.725 372.62C200.983 372.643 201.241 372.643 201.522 372.643C201.17 372.409 200.772 372.175 200.374 371.94C200.351 372.151 200.304 372.362 200.28 372.573C200.421 372.596 200.585 372.62 200.725 372.62ZM204.191 374.798C204.004 374.962 203.77 375.055 203.536 375.079C202.529 375.219 201.522 375.243 200.561 375.172C200.304 375.149 200.046 375.126 199.789 375.079C199.437 376.578 199.039 378.076 198.571 379.529C198.477 379.903 198.196 380.231 197.821 380.395C188.828 384.142 174.167 377.257 158.125 369.739C143.885 363.088 128.545 355.898 115.735 355.406L223.044 402.878L222.295 396.274C208.641 389.81 207.845 385.29 207.072 380.957C206.721 378.966 206.393 376.999 204.191 374.798ZM204.309 353.837C204.285 351.027 204.145 348.216 203.864 345.57C202.505 347.022 201.592 348.099 201.334 348.778C201.1 349.364 201.147 351.378 201.194 354.165C201.287 358.099 201.405 363.486 200.749 369.2C201.545 369.645 202.271 370.09 202.927 370.535C203.91 365.945 204.379 359.879 204.309 353.837ZM184.285 328.262C184.308 328.918 184.402 329.574 184.519 330.23C184.472 329.48 184.378 328.824 184.285 328.262ZM184.519 336.506C184.214 336.061 183.957 335.616 183.699 335.171C183.184 334.258 182.762 333.298 182.458 332.314C182.294 333.391 182.177 334.586 182.083 335.921C181.872 338.942 181.989 342.174 182.388 345.429C182.715 348.029 183.231 350.652 183.933 353.158C183.418 349.317 183.769 345.312 184.144 341.214C184.285 339.668 184.425 338.099 184.519 336.506ZM195.807 340.839C198.149 341.143 200.632 340.722 202.95 339.34C202.622 337.677 202.224 336.202 201.756 334.914C195.386 317.349 204.168 306.505 212.084 296.739C218.595 288.706 224.473 281.446 219.532 271.703C212.459 293.812 206.042 296.646 201.498 298.636C199.39 299.573 197.774 300.276 196.838 303.508C196.205 305.756 195.877 307.747 195.596 309.526C194.636 315.452 194.004 319.386 185.479 322.243C185.221 322.829 184.987 323.414 184.823 324.023C185.315 324.258 185.737 324.749 186.088 325.452C186.861 327.068 187.353 330.511 187.118 335.71C187.962 336.811 188.992 337.771 190.116 338.567C191.826 339.762 193.77 340.558 195.807 340.839ZM203.419 341.986C200.842 343.321 198.102 343.696 195.479 343.345C193.02 343.04 190.702 342.08 188.664 340.651C188.032 340.207 187.446 339.738 186.884 339.199C186.814 339.949 186.744 340.698 186.673 341.448C185.783 351.308 184.94 360.558 198.337 367.889C198.852 362.713 198.735 357.842 198.664 354.212C198.594 351.12 198.547 348.872 198.945 347.841C199.461 346.53 201.1 344.773 203.465 342.314L203.419 341.986ZM224.801 310.557L215.48 325.429C215.199 325.874 214.684 326.084 214.192 326.014C213.958 325.967 212.763 328.778 211.545 331.658C210.89 333.181 210.21 334.75 209.531 336.061C214.004 331.284 219.414 325.03 224.707 317.044C224.731 314.843 224.778 312.688 224.801 310.557ZM227.635 295.662C228.642 290.346 228.689 284.982 228.033 279.643C227.916 284.303 227.775 289.737 227.635 295.662ZM207.47 208.54C206.533 211.022 206.697 214.044 207.587 217.51C209.063 223.177 212.342 230.039 215.972 237.651C219.414 244.817 223.138 252.64 226.042 260.837C226.136 259.057 226.253 257.37 226.394 255.801C215.55 235.122 209.906 220.508 207.47 208.54ZM259.954 239.033C261.219 243.951 262.249 249.127 263.046 254.49C271.43 241.562 277.894 228.915 284.1 203.317C264.193 211.889 259.135 209.547 248.713 204.699C243.654 202.357 237.26 199.383 227.026 196.877C219.625 195.074 215.316 191.35 213.794 188.001C213.068 186.432 212.927 184.909 213.349 183.621C213.794 182.239 214.824 181.162 216.393 180.647C218.969 179.78 223.162 180.436 228.689 183.809C239.392 190.366 254.31 197.697 266.863 199.383C271.266 199.968 275.341 199.875 278.831 198.774C282.203 197.72 285.013 195.706 286.981 192.497C288.386 190.202 289.37 187.298 289.861 183.668C290.728 177.298 295.88 158.187 301.501 142.964C305.436 132.308 309.675 123.432 313.024 121.769C313.562 121.488 314.195 121.629 314.569 122.074C320.869 129.404 324.546 138.07 327.731 145.611C330.261 151.606 332.486 156.852 335.413 159.897C340.823 165.541 349.324 163.691 368.904 144.885L369.067 144.744C369.419 142.636 369.77 140.575 370.121 138.585C369.348 138.374 368.552 138.257 367.779 138.116C363.353 137.344 359.582 136.688 358.739 128.702C358.552 128.983 358.365 129.217 358.201 129.428C357.521 130.318 357.147 130.786 356.913 131.254C356.655 131.793 356.491 132.449 356.163 133.924C355.999 134.65 355.788 135.493 355.695 135.938C355.531 136.618 354.852 137.039 354.149 136.899C353.774 136.805 353.446 136.524 353.306 136.196C348.364 127.062 346.233 125.47 344.711 124.345C342.205 122.495 341.174 121.722 335.718 102.05C329.183 78.4659 310.705 72.8686 294.733 69.5195C294.592 69.6366 294.452 69.7772 294.288 69.8708C293.164 70.714 291.993 71.1355 290.775 71.1824C289.58 71.2292 288.409 70.9247 287.262 70.3392C285.927 69.6601 284.639 68.5593 283.421 67.201C280.821 66.5921 278.456 65.9597 276.325 65.14C268.315 62.0954 264.263 57.0368 268.315 45.3971C267.683 45.1629 267.027 44.9052 266.324 44.6476C261.219 58.3483 252.881 61.1586 242.085 64.7887C222.576 71.3463 194.753 80.7142 163.722 168.703C163.535 169.241 163.23 170.084 162.809 171.255C159.178 181.068 147.609 212.428 149.553 220.18L164.167 210.999C164.097 210.414 164.073 209.758 164.097 209.032C164.12 207.275 164.729 205.308 165.525 204.207C165.9 203.715 166.345 203.341 166.837 203.177C167.516 202.919 168.172 203.013 168.804 203.528C169.436 204.02 169.975 205.027 170.35 206.737C170.49 207.439 170.49 208.165 170.373 208.938C170.42 209.055 170.443 209.149 170.443 209.266L170.607 212.076C170.701 213.903 170.935 214.957 171.263 215.449C171.333 215.402 171.427 215.308 171.544 215.191C172.458 214.278 173.418 212.287 173.956 210.086C175.362 204.605 174.917 200.085 174.472 195.472C173.277 183.176 172.059 170.436 202.365 138.772L218.501 111.23C218.852 110.621 219.625 110.411 220.234 110.785C220.656 111.02 220.866 111.465 220.866 111.91C219.93 136.969 216.065 153.058 212.904 166.29C209.812 179.171 207.377 189.289 209.063 202.451C210.655 201.397 212.669 200.554 215.175 199.898C221.78 198.188 227.635 198.399 232.811 200.132C239.649 202.427 245.223 207.392 249.72 214.208C254.123 220.929 257.495 229.477 259.954 239.033ZM260.961 257.698C260.095 251.422 258.947 245.356 257.495 239.642C255.106 230.367 251.851 222.077 247.589 215.613C243.42 209.243 238.267 204.629 231.991 202.544C227.283 200.952 221.897 200.788 215.808 202.357C212.997 203.083 210.936 204.137 209.508 205.472C211.475 217.065 216.581 231.164 226.956 251.328C227.237 249.361 227.588 247.581 227.963 245.965C230.234 236.503 233.373 231.187 236.722 228.868C238.783 227.416 240.89 227.042 242.951 227.51C244.942 227.932 246.839 229.126 248.525 230.859C252.507 234.934 255.458 242.194 255.715 249.291C255.926 255.473 253.678 261.516 250.305 265.567C248.642 267.581 246.675 269.104 244.591 269.947C242.413 270.837 240.094 270.977 237.799 270.181C235.035 269.197 232.342 266.809 230.047 262.593C229.555 261.726 229.087 260.86 228.642 259.993C228.525 261.609 228.454 263.319 228.431 265.122C228.408 265.989 228.384 266.996 228.361 268.167C231.663 280.252 232.506 292.922 227.424 305.334C227.377 307.817 227.33 310.37 227.283 312.969C228.618 310.768 229.93 308.449 231.218 306.014C241.499 286.364 249.813 274.116 256.863 263.764C258.268 261.68 259.626 259.666 260.961 257.698ZM257.097 342.174C256.441 341.401 255.598 340.792 254.544 340.464C254.029 340.3 253.467 340.183 252.835 340.136C246.043 339.668 243.443 341.986 243.256 344.75C243.162 346.296 243.724 348.005 244.731 349.457C245.715 350.933 247.073 352.104 248.549 352.596C251.031 353.439 253.912 352.127 255.785 346.53C256.254 345.172 256.675 343.72 257.097 342.174ZM390.497 451.873C390.356 452.575 389.677 452.997 388.998 452.856C388.295 452.716 387.85 452.06 387.991 451.357L388.084 451.006C388.787 447.54 388.974 446.65 388.319 443.746C366.187 450.327 317.192 437.703 285.365 429.53C277.824 427.586 271.266 425.9 266.207 424.776C265.528 424.612 265.107 423.956 265.247 423.277C266.207 418.452 265.833 416.368 263.936 415.993C261.477 415.501 256.746 416.836 249.696 418.85C247.893 419.366 245.949 419.904 243.256 420.654C242.577 420.818 241.897 420.42 241.71 419.74C241.663 419.6 241.64 419.436 241.663 419.272V419.249C242.272 414.19 245.949 411.684 250.469 410.56C253.537 409.787 256.98 409.693 260.048 409.857C259.135 408.593 258.479 407.328 257.917 406.18C257.378 405.08 256.886 404.119 256.371 403.698C252.202 400.185 249.509 398.944 248.033 399.014C247.612 399.014 247.401 399.201 247.331 399.459C247.167 399.997 247.331 400.794 247.729 401.707C248.783 404.026 251.453 406.602 255.223 407.141C255.903 407.234 256.394 407.867 256.301 408.569C256.207 409.248 255.598 409.717 254.919 409.67L254.052 409.6C249.415 409.202 244.45 408.78 240.609 407.141C236.792 405.525 234.754 403.206 234.099 400.887C233.747 399.599 233.818 398.358 234.263 397.187C234.661 396.04 235.434 395.009 236.464 394.166C238.759 392.292 242.46 391.332 246.956 392.269C248.127 392.527 249.251 392.901 250.352 393.393C251.453 393.885 252.53 394.494 253.561 395.22C254.896 396.157 256.067 396.672 256.98 396.789C257.495 396.859 257.917 396.789 258.198 396.602C258.502 396.391 258.736 396.04 258.877 395.501C259.135 394.541 259.111 393.135 258.713 391.285C258.455 390.161 257.776 389.248 257.003 388.241C254.076 384.33 250.118 379.084 257.94 355.055C258.479 353.345 258.83 351.589 258.947 349.902C259.041 348.427 258.971 347.022 258.713 345.757C258.549 346.296 258.385 346.811 258.198 347.326C255.739 354.703 251.5 356.273 247.752 355.008C245.715 354.329 243.888 352.783 242.6 350.886C241.312 348.989 240.563 346.717 240.727 344.586C241.008 340.488 244.333 336.998 252.999 337.607C253.842 337.654 254.614 337.818 255.34 338.052C256.277 338.356 257.12 338.801 257.823 339.363C262.507 320.089 264.662 289.245 261.43 261.539C260.633 262.734 259.814 263.951 258.971 265.193C251.968 275.474 243.701 287.652 233.466 307.185C231.452 311.049 229.344 314.609 227.213 317.864C226.487 361.144 226.628 414.658 231.827 419.108L372.674 450.374C373.353 450.538 373.775 451.217 373.634 451.896C373.47 452.575 372.791 453.02 372.112 452.856L230.984 421.52C230.843 421.497 230.679 421.427 230.539 421.333C224.543 417.258 224.052 365.149 224.637 321.658C217.892 331.26 211.171 338.099 206.604 342.759L206.159 343.204C206.58 346.53 206.814 350.183 206.861 353.814C206.932 360.535 206.346 367.303 205.152 372.198C208.665 375.172 209.11 377.819 209.601 380.512C210.257 384.283 210.936 388.217 224.005 394.26C224.426 394.47 224.707 394.869 224.754 395.29L225.831 404.799C225.902 405.501 225.41 406.134 224.707 406.204C224.473 406.227 224.239 406.18 224.052 406.11L109.716 355.523C109.083 355.242 108.779 354.493 109.06 353.86C109.271 353.392 109.692 353.111 110.161 353.087C124.634 351.261 142.644 359.692 159.202 367.444C174.355 374.54 188.266 381.051 196.299 378.24C196.697 377.023 197.025 375.805 197.283 374.564C192.856 373.205 189.179 369.786 186.346 365.242C182.926 359.809 180.725 352.713 179.858 345.734C179.437 342.338 179.32 338.942 179.554 335.757C179.928 330.3 180.842 326.787 181.849 325.194C181.872 325.148 181.919 325.101 181.943 325.054C182.224 323.578 182.692 322.103 183.441 320.628C183.605 320.3 183.886 320.065 184.191 319.972C191.732 317.606 192.271 314.234 193.09 309.128C193.395 307.255 193.723 305.147 194.402 302.805C195.643 298.425 197.728 297.512 200.468 296.294C204.754 294.421 210.89 291.727 217.939 268.19C218.126 267.535 218.852 267.136 219.532 267.347C219.813 267.441 220.047 267.628 220.211 267.862C228.595 280.416 221.733 288.87 214.051 298.355C206.58 307.583 198.266 317.841 204.145 334.047C204.543 335.124 204.871 336.342 205.175 337.654C205.503 337.349 205.831 337.021 206.135 336.67C207.072 335.616 208.149 333.11 209.203 330.651C210.562 327.419 211.92 324.281 213.63 323.602L223.443 307.934C223.981 306.88 224.473 305.826 224.918 304.772C225.152 292.196 225.457 281.212 225.668 273.554C225.714 271.657 225.761 269.994 225.808 268.542C222.881 257.979 218.033 247.815 213.7 238.752C209.976 231.023 206.651 224.044 205.128 218.142C203.676 212.498 203.84 207.837 206.744 204.488C204.566 190.155 207.119 179.476 210.421 165.705C213.349 153.527 216.862 138.889 218.079 116.968L204.519 140.13C204.449 140.224 204.379 140.318 204.309 140.412C174.706 171.326 175.877 183.504 177.001 195.237C177.469 200.062 177.938 204.816 176.439 210.695C175.783 213.318 174.565 215.753 173.347 216.995C172.762 217.58 172.13 217.955 171.474 218.048C170.654 218.166 169.905 217.861 169.296 217.088C168.827 216.479 168.453 215.449 168.219 213.95C168.125 214.137 168.008 214.301 167.891 214.465L168.008 214.676C169.155 216.643 170.022 218.119 167.867 223.95C166.743 226.995 165.338 229.829 163.16 231.609C160.865 233.506 157.867 234.185 153.698 232.709C152.457 232.264 151.614 231.468 151.028 230.227C134.026 243.084 108.17 258.377 83.017 273.249C66.7168 282.898 50.6976 292.36 37.6995 300.767C37.114 301.142 36.3178 300.978 35.9431 300.393L35.8962 300.299C35.0999 298.87 34.1631 297.559 33.1092 296.341L32.6408 296.646C36.1304 302.501 37.723 306.06 38.0508 307.887C38.4958 310.463 37.4888 311.236 35.4981 310.604C34.5613 310.299 33.2732 309.339 31.8212 307.934C27.3948 303.625 20.8372 294.467 18.9402 286.833C18.87 286.575 18.87 286.271 18.9636 285.99C19.2213 285.31 19.9473 284.982 20.603 285.24C24.1394 286.575 27.5587 288.308 30.5565 290.556C31.6104 291.329 32.594 292.172 33.5308 293.086L147.328 221.561C147.281 221.491 147.258 221.397 147.234 221.304C144.564 213.318 156.649 180.553 160.42 170.366C160.841 169.195 161.169 168.305 161.333 167.86C192.763 78.7001 221.288 69.098 241.265 62.3765C251.828 58.8167 259.884 56.0999 264.591 41.8372C260.235 28.8626 262.835 17.6913 268.69 10.7825C271.36 7.59737 274.709 5.32565 278.386 4.13124C282.086 2.93682 286.091 2.86656 290.072 4.10781C298.878 6.89478 307.52 16.2159 311.993 34.5537C312.649 37.1767 312.696 39.3547 312.415 40.4789C312.227 41.2049 311.853 41.7201 311.337 41.9543C310.611 42.2588 309.909 42.0714 309.3 41.2986C309.066 41.0176 308.808 40.5491 308.55 39.9168L308.597 40.151C308.644 40.5726 308.504 40.9707 308.246 41.2283C308.082 41.3923 308.176 41.6265 307.801 42.5398C305.998 46.9662 301.173 58.8401 297.754 65.4679C297.403 66.1471 297.028 66.7794 296.653 67.3181C312.977 70.831 331.408 77.0373 338.177 101.371C343.399 120.2 344.219 120.809 346.233 122.308C347.755 123.432 349.84 124.978 353.962 132.144C354.172 131.231 354.36 130.669 354.641 130.083C354.969 129.451 355.39 128.889 356.163 127.882C356.772 127.086 357.615 126.008 358.763 124.392C358.997 124.018 359.395 123.783 359.863 123.783C360.566 123.783 361.128 124.345 361.128 125.048C361.128 134.369 364.337 134.931 368.224 135.61L368.857 135.704C368.435 135.423 368.037 135.119 367.662 134.767C364.805 132.051 363.259 127.413 365.063 121.418C366.913 115.212 371.128 112.12 375.648 111.558H375.719C376.351 109.169 376.96 107.038 377.545 105.188C378.787 101.417 380.59 98.7475 382.3 97.6C383.166 97.0379 384.033 96.7803 384.876 96.8974C385.789 97.0145 386.562 97.5297 387.124 98.4899C388.038 99.9654 388.459 102.706 387.967 106.921C387.663 109.521 387.265 112.542 386.82 115.61C387.757 116.547 388.576 117.647 389.232 118.889C392.089 124.182 392.089 132.004 385.813 141.255C385.625 141.583 385.297 141.817 384.923 141.864L383.658 142.074C381.48 142.426 379.044 142.824 376.773 143.503C375.414 166.454 363.657 255.075 353.985 327.817C349.161 364.235 344.851 396.648 342.65 414.893C346.491 416.391 350.261 418.593 353.4 421.755C353.915 422.27 353.891 423.066 353.4 423.558C353.142 423.839 352.767 423.956 352.416 423.933L340.448 423.534C339.746 423.511 339.207 422.926 339.231 422.223C339.231 422.2 339.231 422.153 339.231 422.129C339.418 420.513 339.629 418.663 339.863 416.602C339.324 416.438 338.786 416.274 338.247 416.134C337.896 418.593 337.591 420.63 337.334 422.223C337.216 422.879 336.607 423.347 335.928 423.277C326.935 422.223 321.993 420.654 319.956 419.108C317.754 417.469 317.895 415.806 319.675 414.424C320.846 413.511 323.024 412.808 325.788 412.527C328.668 412.223 332.275 412.316 336.069 413.042C337.849 399.506 340.425 376.179 343.516 348.099C350.308 286.622 359.606 202.474 368.388 148.89C348.95 166.993 339.863 168.211 333.586 161.677C330.331 158.281 328.012 152.824 325.389 146.594C322.392 139.545 318.972 131.465 313.375 124.603C310.752 126.992 307.286 134.674 303.89 143.831C298.339 158.937 293.234 177.766 292.391 184.019C291.852 188.001 290.728 191.233 289.159 193.832C286.84 197.626 283.538 199.968 279.58 201.21C275.739 202.404 271.289 202.544 266.535 201.912C253.561 200.156 238.267 192.661 227.377 185.987C222.553 183.036 219.157 182.403 217.213 183.059C216.44 183.317 215.972 183.785 215.761 184.394C215.55 185.073 215.667 185.963 216.112 186.947C217.377 189.687 221.101 192.802 227.635 194.418C238.127 196.994 244.614 199.992 249.79 202.404C259.884 207.088 264.568 209.266 285.365 199.992C285.622 199.875 285.927 199.828 286.231 199.898C286.91 200.039 287.332 200.741 287.192 201.42C280.306 230.765 273.186 243.857 263.584 258.307C267.472 287.91 265.06 321.635 259.861 341.682C260.071 342.033 260.235 342.385 260.399 342.736C261.359 344.844 261.687 347.396 261.5 350.066C261.359 351.963 260.961 353.931 260.352 355.828C252.952 378.592 256.465 383.252 259.041 386.695C260.001 387.96 260.844 389.084 261.195 390.747C261.687 392.995 261.711 394.822 261.336 396.18C261.008 397.328 260.423 398.171 259.626 398.709C258.807 399.271 257.8 399.459 256.675 399.318C255.34 399.154 253.771 398.475 252.085 397.304C251.195 396.672 250.258 396.133 249.322 395.712C248.385 395.29 247.425 394.986 246.441 394.775C242.764 393.979 239.813 394.705 238.08 396.133C237.401 396.695 236.909 397.351 236.651 398.054C236.394 398.733 236.347 399.459 236.558 400.208C237.003 401.824 238.595 403.51 241.616 404.799C243.49 405.595 245.738 406.087 248.127 406.415C246.909 405.29 245.996 404.002 245.434 402.761C244.778 401.332 244.567 399.927 244.848 398.827C245.223 397.445 246.23 396.531 247.916 396.461C249.977 396.391 253.28 397.773 258.01 401.754C258.947 402.527 259.533 403.698 260.212 405.056C261.032 406.719 262.062 408.757 263.982 410.372C264.357 410.654 264.568 411.099 264.521 411.567C264.427 412.27 263.795 412.761 263.092 412.691L262.975 412.668C259.533 412.27 254.919 412.082 251.078 413.042C248.197 413.745 245.762 415.127 244.708 417.609C246.113 417.211 247.612 416.79 248.994 416.391C256.394 414.284 261.359 412.878 264.427 413.487C267.87 414.167 268.924 416.79 267.964 422.551C272.788 423.675 278.971 425.268 285.974 427.071C318.153 435.338 368.014 448.172 388.787 440.935C388.834 440.912 388.881 440.889 388.928 440.865C389.63 440.701 390.309 441.123 390.473 441.802C391.644 446.416 391.504 447.095 390.567 451.521L390.497 451.873Z" fill="#0759BA"/>
<path d="M367.686 451.966H5.8252V449.414H367.686C368.412 449.414 368.974 449.976 368.974 450.678C368.974 451.381 368.412 451.966 367.686 451.966Z" fill="#59C8FF"/>
<path d="M224.309 254.349C225.363 256.317 226.44 258.354 227.588 260.438C229.555 264.045 231.756 266.059 233.958 266.832C235.621 267.418 237.33 267.3 238.946 266.645C240.656 265.966 242.272 264.677 243.654 262.991C246.675 259.385 248.666 253.975 248.478 248.424C248.244 241.937 245.574 235.356 241.991 231.679C240.656 230.32 239.204 229.384 237.729 229.056C236.347 228.751 234.895 229.009 233.49 229.993C230.609 232.007 227.869 236.831 225.738 245.614C225.176 247.979 224.707 250.719 224.356 253.928L224.309 254.349ZM26.5983 293.531C25.8957 292.875 25.1229 292.243 24.35 291.657C22.2422 290.088 19.9002 288.776 17.4646 287.699C19.83 294.28 25.1697 301.517 28.9169 305.17C29.5961 305.826 30.1816 306.341 30.6734 306.716C30.1113 304.819 28.4251 301.4 25.1229 295.943C24.7716 295.357 24.9589 294.585 25.5444 294.21L26.5983 293.531ZM161.942 208.118C161.942 208.259 161.942 208.376 161.942 208.493L163.23 207.697C163.253 207.228 163.253 206.76 163.16 206.339C163.019 205.706 162.879 205.261 162.762 204.957C162.293 205.706 161.965 206.947 161.942 208.118ZM148.452 227.697C148.733 228.587 149.178 229.126 149.857 229.36C153.042 230.484 155.244 230.039 156.86 228.704C158.593 227.276 159.787 224.817 160.794 222.123C162.223 218.259 162.059 216.854 161.497 215.73C158.499 219.337 154.002 223.365 148.452 227.697ZM147.562 220.531C147.679 220.671 147.749 220.812 147.796 220.976C147.843 221.116 147.866 221.234 147.866 221.374C147.866 222.803 147.913 224.044 147.984 225.074C153.464 220.812 157.726 216.948 160.349 213.599C160.232 213.318 160.115 213.037 159.998 212.732L147.562 220.531ZM145.337 222.85C144.939 222.85 144.588 222.756 144.26 222.615L30.6031 294.046C31.376 294.959 32.102 295.92 32.7578 296.973C45.6387 288.683 61.1895 279.479 77.0448 270.111C102.596 254.982 128.92 239.431 145.642 226.878C145.454 225.754 145.361 224.419 145.337 222.85ZM265.95 11.4851C261.195 17.1059 258.806 25.8649 261.219 36.2399C261.359 35.631 261.5 35.0221 261.64 34.3663C262.554 30.1039 267.94 24.6939 274.685 21.298C278.128 19.5416 281.969 18.2769 285.716 17.949C289.58 17.6211 293.351 18.2535 296.63 20.2676C299.018 21.7664 301.103 23.9679 302.719 27.0593C298.246 14.436 291.477 7.76134 284.639 5.60671C281.172 4.50598 277.683 4.57624 274.474 5.60671C271.242 6.66061 268.315 8.67472 265.95 11.4851ZM264.732 42.1417C266.863 39.2845 273.046 35.0924 279.837 32.3991C283.421 30.9704 287.215 29.9165 290.657 29.6823C294.288 29.4013 297.59 30.0102 300.049 31.9072C301.243 32.844 302.203 34.0619 302.906 35.631C302.883 35.4671 302.836 35.3265 302.812 35.1626C301.477 28.5582 298.714 24.5768 295.295 22.4456C292.531 20.736 289.276 20.1973 285.95 20.5018C282.531 20.8062 279.018 21.9538 275.833 23.5698C269.744 26.6378 264.896 31.3217 264.123 34.905C263.654 37.083 263.139 39.0737 262.577 40.9005C262.647 41.0644 262.718 41.2518 262.764 41.4157C263.444 41.6733 264.099 41.9075 264.732 42.1417ZM272.554 61.8144C273.702 62.2594 274.966 62.6576 276.325 63.0323C273.538 58.5357 274.1 55.6316 274.545 53.2896C275.013 50.7368 275.341 49.0974 266.02 45.3737C262.671 55.1163 265.996 59.3319 272.554 61.8144ZM286.044 65.1635C287.074 65.3742 288.152 65.585 289.229 65.8192C289.768 65.1635 290.283 64.3672 290.798 63.3601C294.147 56.8728 298.948 45.0458 300.751 40.6429C300.986 40.0574 301.173 39.589 301.337 39.2377C300.915 36.7552 299.908 35.0455 298.48 33.9214C296.583 32.4459 293.866 32.0009 290.845 32.2117C287.66 32.4459 284.123 33.4295 280.774 34.7645C274.638 37.2001 269.135 40.7131 267.144 43.0785C278.222 47.5751 277.753 49.9874 277.051 53.758C276.629 55.9126 276.114 58.6293 279.51 63.1962C279.72 63.4538 279.908 63.7114 280.095 63.9456C281.992 64.3672 283.983 64.7653 286.044 65.1635ZM285.669 67.6928L285.552 67.6694L284.498 67.4586C284.896 67.5991 285.294 67.6928 285.669 67.6928ZM344.289 420.326C342.205 418.757 339.956 417.516 337.638 416.555C337.497 417.82 337.357 419.014 337.216 420.092L344.289 420.326ZM330.331 419.647C330.542 418.242 330.799 416.555 331.057 414.612C327.474 413.932 324.078 413.815 321.361 414.12C319.066 414.354 317.356 414.869 316.536 415.501C316.349 415.642 316.396 415.876 316.771 416.157C318.41 417.375 322.579 418.663 330.331 419.647ZM370.355 113.315C367.123 114.041 364.219 116.547 362.814 121.207C361.339 126.149 362.486 129.849 364.711 131.957C365.18 132.402 365.718 132.777 366.257 133.081C367.639 125.493 369.02 118.818 370.355 113.315ZM378.669 112.097C379.068 112.284 379.442 112.518 379.817 112.776C380.168 110.27 380.473 107.858 380.73 105.68C381.152 102.097 380.894 99.8952 380.262 98.8647C380.121 98.6305 379.981 98.49 379.84 98.49C379.653 98.4431 379.372 98.5602 379.044 98.771C377.756 99.6375 376.327 101.839 375.273 105.048C374.758 106.663 374.22 108.514 373.681 110.575C375.391 110.739 377.1 111.254 378.669 112.097ZM379.419 115.633C378.81 115.142 378.154 114.697 377.475 114.345C376.093 113.596 374.547 113.174 373.025 113.081C371.62 118.772 370.168 125.798 368.693 133.877C369.676 134.018 370.683 133.948 371.667 133.667C374.477 132.847 377.007 130.154 377.897 125.235C378.412 122.331 378.927 119.053 379.395 115.797L379.419 115.633ZM369.465 143.503C368.482 143.971 367.545 144.487 366.725 145.142C357.826 198.352 348.294 284.701 341.362 347.42C338.247 375.664 335.647 399.108 333.891 412.668C334.406 412.785 334.944 412.949 335.483 413.113C337.708 394.845 341.994 362.643 346.772 326.553C356.303 254.888 367.873 167.813 369.465 143.503ZM372.206 139.873C374.36 139.311 376.562 138.96 378.576 138.632L379.255 138.515C384.641 130.364 384.712 123.643 382.299 119.146C382.112 118.772 381.878 118.397 381.644 118.069C381.246 120.739 380.824 123.362 380.402 125.68C379.325 131.699 376.046 135.025 372.393 136.102C371.479 136.383 370.543 136.5 369.606 136.5C370.309 136.899 371.035 137.414 371.737 138.023C372.018 138.257 372.206 138.632 372.206 139.03C372.206 139.287 372.206 139.568 372.206 139.873ZM367.311 141.746C368.037 141.348 368.833 140.997 369.629 140.693C369.629 140.294 369.653 139.943 369.653 139.615C369.067 139.147 368.482 138.772 367.873 138.491C367.685 139.545 367.498 140.646 367.311 141.746ZM183.793 362.947C186.275 366.905 189.39 369.88 193.09 371.097C193.161 370.629 193.254 370.137 193.324 369.669C188.406 367.116 185.104 364.352 182.926 361.448C183.207 361.964 183.512 362.455 183.793 362.947ZM196.041 371.683C196.299 371.706 196.556 371.706 196.814 371.706C196.463 371.472 196.088 371.238 195.69 370.98C195.643 371.214 195.62 371.425 195.573 371.636C195.737 371.659 195.877 371.683 196.041 371.683ZM199.484 373.861C199.297 374.025 199.086 374.119 198.852 374.142C197.821 374.259 196.837 374.306 195.877 374.236C195.596 374.212 195.339 374.189 195.081 374.142C194.753 375.641 194.355 377.14 193.863 378.592C193.769 378.966 193.512 379.294 193.114 379.458C184.144 383.205 169.46 376.32 153.417 368.802C139.201 362.151 123.861 354.961 111.05 354.469L218.36 401.941L217.611 395.337C203.934 388.873 203.137 384.353 202.388 380.02C202.037 378.03 201.685 376.062 199.484 373.861ZM199.624 352.9C199.601 350.09 199.437 347.279 199.179 344.633C197.798 346.085 196.908 347.162 196.627 347.841C196.416 348.427 196.439 350.441 196.51 353.228C196.603 357.163 196.72 362.549 196.065 368.264C196.861 368.709 197.587 369.154 198.243 369.598C199.226 365.008 199.695 358.942 199.624 352.9ZM179.577 327.326C179.624 327.981 179.694 328.637 179.835 329.269C179.764 328.543 179.694 327.888 179.577 327.326ZM179.835 335.546C179.53 335.124 179.249 334.679 178.992 334.211C178.5 333.321 178.078 332.361 177.75 331.377C177.61 332.455 177.493 333.649 177.399 334.984C177.188 338.005 177.282 341.237 177.703 344.492C178.031 347.092 178.547 349.692 179.249 352.221C178.71 348.38 179.085 344.375 179.46 340.277C179.6 338.708 179.741 337.162 179.835 335.546ZM191.1 339.879C193.465 340.207 195.947 339.785 198.266 338.403C197.915 336.74 197.517 335.265 197.048 333.977C190.701 316.412 199.484 305.569 207.376 295.802C213.911 287.769 219.789 280.509 214.824 270.767C207.775 292.875 201.334 295.709 196.814 297.699C194.683 298.636 193.067 299.339 192.153 302.571C191.521 304.819 191.193 306.81 190.912 308.59C189.952 314.515 189.32 318.449 180.795 321.307C180.514 321.892 180.303 322.478 180.116 323.087C180.631 323.321 181.052 323.813 181.38 324.515C182.153 326.131 182.645 329.574 182.411 334.773C183.277 335.874 184.308 336.834 185.432 337.63C187.142 338.825 189.085 339.621 191.1 339.879ZM198.734 341.05C196.135 342.361 193.395 342.759 190.772 342.408C188.336 342.104 185.994 341.143 183.98 339.715C183.348 339.27 182.739 338.801 182.177 338.263C182.13 339.012 182.06 339.762 181.989 340.511C181.099 350.371 180.256 359.622 193.652 366.952C194.168 361.776 194.05 356.905 193.98 353.275C193.91 350.183 193.84 347.935 194.261 346.905C194.776 345.593 196.392 343.837 198.781 341.378L198.734 341.05ZM220.117 309.62L210.796 324.492C210.515 324.937 209.999 325.148 209.508 325.077C209.273 325.03 208.079 327.817 206.838 330.721C206.182 332.244 205.526 333.813 204.847 335.124C209.32 330.347 214.73 324.094 220 316.107C220.047 313.906 220.07 311.751 220.117 309.62ZM222.951 294.725C223.958 289.409 223.981 284.022 223.349 278.706C223.232 283.366 223.091 288.8 222.951 294.725ZM202.763 207.603C201.849 210.086 202.013 213.107 202.903 216.573C204.355 222.241 207.634 229.103 211.288 236.714C214.707 243.881 218.454 251.703 221.335 259.9C221.428 258.12 221.569 256.434 221.709 254.865C210.866 234.185 205.198 219.547 202.763 207.603ZM255.247 238.096C256.511 242.991 257.542 248.19 258.361 253.553C266.746 240.625 273.21 227.978 279.416 202.381C259.486 210.929 254.45 208.61 244.029 203.762C238.946 201.42 232.576 198.446 222.342 195.94C214.941 194.137 210.632 190.413 209.109 187.064C208.383 185.495 208.243 183.973 208.664 182.684C209.109 181.303 210.117 180.225 211.709 179.71C214.285 178.844 218.477 179.499 224.005 182.872C234.684 189.429 249.626 196.76 262.179 198.446C266.558 199.031 270.657 198.938 274.123 197.837C277.496 196.783 280.329 194.769 282.297 191.561C283.702 189.265 284.685 186.361 285.177 182.731C286.02 176.361 291.196 157.25 296.817 142.028C300.751 131.371 304.99 122.495 308.34 120.809C308.878 120.551 309.51 120.692 309.885 121.137C316.185 128.467 319.839 137.133 323.024 144.674C325.577 150.669 327.801 155.915 330.729 158.96C336.139 164.604 344.64 162.731 364.219 143.948L364.383 143.807C364.735 141.7 365.086 139.639 365.437 137.648C364.641 137.437 363.868 137.297 363.095 137.18C358.669 136.407 354.898 135.751 354.055 127.765C353.844 128.046 353.68 128.28 353.493 128.491C352.837 129.381 352.463 129.849 352.228 130.318C351.947 130.856 351.807 131.512 351.455 132.987C351.292 133.713 351.104 134.557 351.01 135.002C350.847 135.681 350.144 136.102 349.465 135.938C349.067 135.845 348.762 135.587 348.598 135.259C343.68 126.125 341.525 124.533 340.027 123.409C337.521 121.559 336.49 120.786 331.033 101.113C324.476 77.5292 305.998 71.9318 290.049 68.5828C289.908 68.6999 289.744 68.817 289.604 68.9341C288.479 69.7772 287.285 70.1987 286.091 70.2456C284.896 70.2924 283.725 69.988 282.578 69.4025C281.243 68.7233 279.931 67.6226 278.713 66.2642C276.137 65.6553 273.748 65.023 271.641 64.2033C263.631 61.1587 259.556 56.1 263.631 44.4603C262.999 44.2027 262.319 43.9685 261.617 43.7109C256.535 57.4115 248.174 60.2219 237.377 63.852C217.892 70.4095 190.046 79.7775 159.038 167.766C158.85 168.305 158.546 169.148 158.101 170.295C154.494 180.132 142.925 211.491 144.845 219.243L159.459 210.062C159.412 209.477 159.389 208.821 159.389 208.095C159.412 206.339 160.045 204.371 160.841 203.271C161.216 202.779 161.637 202.404 162.129 202.24C162.808 201.982 163.488 202.076 164.12 202.591C164.729 203.083 165.291 204.09 165.642 205.8C165.806 206.502 165.806 207.228 165.689 208.001C165.712 208.118 165.736 208.212 165.759 208.329L165.9 211.14C166.017 212.966 166.251 214.02 166.556 214.512C166.649 214.465 166.743 214.372 166.837 214.254C167.773 213.341 168.71 211.35 169.272 209.149C170.654 203.669 170.232 199.149 169.787 194.535C168.593 182.239 167.375 169.499 197.657 137.835L213.793 110.294C214.145 109.685 214.941 109.474 215.55 109.849C215.948 110.083 216.182 110.528 216.159 110.973C215.245 136.032 211.381 152.121 208.196 165.354C205.128 178.235 202.692 188.352 204.379 201.514C205.948 200.46 207.962 199.617 210.468 198.961C217.096 197.252 222.951 197.462 228.103 199.195C234.965 201.491 240.539 206.456 245.012 213.271C249.438 219.992 252.788 228.541 255.247 238.096ZM256.254 256.762C255.411 250.485 254.263 244.419 252.788 238.705C250.399 229.43 247.143 221.14 242.904 214.676C238.712 208.306 233.56 203.692 227.307 201.608C222.599 200.015 217.213 199.851 211.1 201.42C208.29 202.146 206.252 203.2 204.824 204.535C206.791 216.128 211.896 230.227 222.248 250.391C222.552 248.424 222.88 246.644 223.278 245.028C225.55 235.566 228.688 230.25 232.038 227.908C234.075 226.48 236.206 226.105 238.267 226.573C240.258 226.995 242.132 228.189 243.818 229.922C247.823 233.997 250.773 241.258 251.008 248.354C251.218 254.537 248.994 260.579 245.621 264.631C243.958 266.645 241.991 268.167 239.907 269.01C237.729 269.9 235.41 270.041 233.115 269.244C230.328 268.261 227.635 265.872 225.339 261.656C224.871 260.766 224.403 259.9 223.934 259.057C223.841 260.673 223.77 262.382 223.723 264.186C223.723 265.029 223.677 266.059 223.653 267.23C226.979 279.315 227.822 291.985 222.74 304.398C222.693 306.88 222.646 309.433 222.599 312.032C223.934 309.831 225.246 307.512 226.51 305.077C236.815 285.427 245.129 273.179 252.155 262.827C253.584 260.743 254.942 258.729 256.254 256.762ZM252.413 341.237C251.757 340.464 250.914 339.855 249.86 339.527C249.345 339.363 248.759 339.246 248.15 339.199C241.335 338.731 238.759 341.05 238.572 343.813C238.455 345.359 239.04 347.069 240.024 348.521C241.007 349.996 242.389 351.167 243.865 351.659C246.324 352.479 249.228 351.19 251.101 345.593C251.546 344.235 251.991 342.783 252.413 341.237ZM385.789 450.936C385.649 451.638 384.993 452.06 384.29 451.919C383.611 451.779 383.166 451.123 383.307 450.421L383.377 450.069C384.103 446.603 384.29 445.713 383.634 442.809C361.503 449.39 312.485 436.767 280.657 428.593C273.116 426.649 266.558 424.963 261.523 423.816C260.844 423.675 260.422 423.019 260.54 422.34C261.5 417.516 261.125 415.431 259.251 415.056C256.769 414.565 252.038 415.9 245.012 417.914C243.209 418.429 241.242 418.968 238.572 419.694C237.892 419.881 237.19 419.483 237.003 418.804C236.979 418.663 236.956 418.499 236.979 418.335V418.312C237.588 413.253 241.265 410.747 245.762 409.623C248.83 408.85 252.296 408.757 255.364 408.921C254.427 407.656 253.795 406.391 253.233 405.244C252.67 404.143 252.202 403.183 251.687 402.761C247.495 399.248 244.825 398.007 243.326 398.077C242.928 398.077 242.694 398.264 242.623 398.522C242.483 399.061 242.647 399.857 243.045 400.77C244.099 403.089 246.769 405.665 250.516 406.204C251.218 406.297 251.71 406.93 251.593 407.632C251.499 408.312 250.914 408.78 250.235 408.733L249.368 408.663C244.731 408.265 239.766 407.843 235.925 406.204C232.108 404.564 230.047 402.269 229.415 399.951C229.063 398.663 229.133 397.421 229.555 396.25C229.977 395.103 230.726 394.072 231.78 393.229C234.052 391.356 237.775 390.395 242.272 391.332C243.42 391.59 244.567 391.965 245.668 392.456C246.769 392.948 247.846 393.557 248.876 394.283C250.211 395.22 251.359 395.735 252.296 395.852C252.811 395.922 253.209 395.852 253.514 395.665C253.818 395.454 254.052 395.103 254.193 394.564C254.45 393.604 254.404 392.175 254.005 390.349C253.771 389.224 253.092 388.311 252.319 387.281C249.392 383.393 245.434 378.123 253.233 354.118C253.795 352.408 254.146 350.652 254.263 348.966C254.357 347.49 254.286 346.085 254.029 344.82C253.841 345.359 253.678 345.874 253.514 346.389C251.031 353.767 246.792 355.336 243.045 354.071C241.031 353.392 239.204 351.846 237.916 349.949C236.628 348.052 235.878 345.78 236.019 343.649C236.3 339.551 239.649 336.061 248.314 336.67C249.157 336.717 249.93 336.881 250.633 337.092C251.593 337.42 252.413 337.865 253.139 338.427C257.823 319.152 259.977 288.308 256.745 260.602C255.926 261.797 255.106 263.015 254.263 264.256C247.26 274.537 238.993 286.716 228.782 306.248C226.745 310.112 224.637 313.672 222.506 316.927C221.803 360.207 221.92 413.722 227.143 418.171L367.967 449.437C368.646 449.601 369.091 450.28 368.927 450.959C368.786 451.638 368.107 452.083 367.428 451.919L226.3 420.584C226.136 420.56 225.995 420.49 225.855 420.396C219.836 416.321 219.344 364.212 219.929 320.721C213.185 330.323 206.486 337.162 201.92 341.823L201.475 342.267C201.896 345.593 202.13 349.247 202.154 352.877C202.247 359.598 201.662 366.343 200.468 371.261C203.957 374.236 204.425 376.882 204.894 379.575C205.55 383.346 206.252 387.281 219.321 393.323C219.742 393.534 220 393.932 220.047 394.353L221.124 403.862C221.218 404.564 220.702 405.197 220 405.267C219.766 405.29 219.555 405.244 219.344 405.173L105.032 354.586C104.376 354.305 104.095 353.556 104.376 352.9C104.563 352.455 105.008 352.174 105.476 352.151C119.95 350.324 137.96 358.755 154.494 366.507C169.67 373.603 183.582 380.114 191.615 377.304C191.99 376.086 192.317 374.868 192.598 373.627C188.149 372.268 184.472 368.849 181.638 364.306C178.242 358.849 176.041 351.776 175.174 344.797C174.729 341.401 174.635 338.005 174.846 334.82C175.221 329.363 176.158 325.85 177.165 324.258C177.188 324.211 177.235 324.164 177.258 324.117C177.516 322.642 178.008 321.166 178.757 319.691C178.898 319.363 179.179 319.129 179.507 319.035C187.025 316.646 187.563 313.297 188.383 308.192C188.687 306.318 189.039 304.21 189.694 301.868C190.959 297.489 193.043 296.575 195.784 295.357C200.046 293.484 206.182 290.791 213.255 267.254C213.442 266.598 214.145 266.2 214.824 266.41C215.128 266.481 215.363 266.668 215.527 266.926C223.887 279.479 217.049 287.933 209.367 297.418C201.896 306.646 193.582 316.904 199.46 333.11C199.835 334.188 200.186 335.405 200.491 336.717C200.819 336.413 201.123 336.085 201.451 335.733C202.388 334.679 203.465 332.174 204.496 329.714C205.878 326.482 207.212 323.344 208.922 322.665L218.758 306.997C219.297 305.943 219.789 304.889 220.21 303.835C220.468 291.259 220.773 280.275 220.96 272.617C221.03 270.72 221.077 269.034 221.1 267.605C218.173 257.043 213.325 246.878 208.992 237.815C205.292 230.086 201.966 223.107 200.444 217.205C198.992 211.561 199.133 206.901 202.037 203.552C199.882 189.219 202.435 178.516 205.737 164.768C208.664 152.59 212.177 137.952 213.395 116.031L199.812 139.194C199.765 139.287 199.695 139.381 199.601 139.475C169.998 170.389 171.193 182.567 172.317 194.301C172.785 199.125 173.23 203.879 171.755 209.758C171.076 212.381 169.881 214.816 168.64 216.058C168.078 216.643 167.445 217.018 166.79 217.112C165.947 217.229 165.221 216.924 164.612 216.151C164.143 215.543 163.745 214.512 163.534 213.013C163.417 213.201 163.3 213.364 163.183 213.528L163.3 213.739C164.448 215.706 165.338 217.182 163.183 223.013C162.059 226.058 160.63 228.892 158.476 230.672C156.181 232.569 153.159 233.248 149.014 231.773C147.773 231.328 146.906 230.531 146.344 229.29C129.341 242.147 103.486 257.417 78.3328 272.289C62.0326 281.938 46.0134 291.423 33.0154 299.831C32.4299 300.205 31.6336 300.041 31.2589 299.456L31.212 299.362C30.4158 297.934 29.479 296.599 28.4251 295.404L27.9567 295.709C31.4462 301.564 33.0388 305.124 33.3433 306.95C33.8117 309.526 32.7812 310.299 30.8139 309.644C29.8771 309.363 28.589 308.402 27.137 306.997C22.7106 302.688 16.1296 293.531 14.2561 285.896C14.1624 285.638 14.1624 285.334 14.2795 285.029C14.5137 284.374 15.2631 284.046 15.9189 284.303C19.4553 285.638 22.8511 287.371 25.8723 289.62C26.9028 290.392 27.9098 291.236 28.8466 292.149L142.62 220.625C142.597 220.554 142.574 220.461 142.527 220.367C139.88 212.381 151.965 179.616 155.712 169.429C156.157 168.258 156.485 167.368 156.649 166.923C188.055 77.7634 216.58 68.1612 236.581 61.4397C247.143 57.8799 255.2 55.1632 259.884 40.9005C255.528 27.9259 258.151 16.7546 264.006 9.84572C266.676 6.66062 270.025 4.38888 273.701 3.19447C277.378 2.00005 281.407 1.92979 285.388 3.17104C294.194 5.95801 302.836 15.2791 307.309 33.6169C307.941 36.2399 308.012 38.418 307.731 39.5421C307.543 40.2682 307.169 40.7834 306.63 41.0176C305.904 41.322 305.201 41.1347 304.592 40.3618C304.358 40.0808 304.124 39.6124 303.866 38.98L303.913 39.2142C303.96 39.6358 303.819 40.034 303.538 40.2916C303.374 40.4555 303.492 40.6897 303.117 41.6031C301.314 46.0294 296.466 57.9033 293.07 64.5311C292.718 65.2103 292.344 65.8427 291.969 66.3813C308.269 69.8943 326.724 76.1006 333.469 100.434C338.692 119.263 339.535 119.872 341.525 121.371C343.048 122.495 345.156 124.041 349.277 131.208C349.488 130.294 349.652 129.732 349.957 129.147C350.284 128.514 350.706 127.952 351.479 126.945C352.088 126.149 352.908 125.072 354.078 123.456C354.289 123.081 354.687 122.847 355.156 122.847C355.858 122.847 356.444 123.409 356.444 124.111C356.444 133.432 359.652 133.995 363.517 134.674L364.149 134.767C363.751 134.486 363.353 134.182 362.978 133.831C360.097 131.114 358.575 126.477 360.378 120.481C362.229 114.275 366.444 111.184 370.964 110.621H371.035C371.643 108.233 372.252 106.101 372.861 104.251C374.079 100.481 375.906 97.8108 377.615 96.6632C378.482 96.0777 379.349 95.8435 380.192 95.9606C381.082 96.0777 381.854 96.593 382.44 97.5532C383.353 99.0286 383.751 101.769 383.26 105.984C382.955 108.584 382.58 111.605 382.135 114.673C383.072 115.61 383.892 116.711 384.548 117.952C387.382 123.245 387.382 131.067 381.128 140.318C380.941 140.622 380.613 140.88 380.215 140.927L378.974 141.138C376.772 141.489 374.36 141.887 372.088 142.566C370.73 165.518 358.973 254.139 349.301 326.881C344.453 363.299 340.167 395.712 337.942 413.956C341.806 415.431 345.554 417.656 348.715 420.818C349.207 421.31 349.207 422.129 348.715 422.621C348.434 422.902 348.083 423.019 347.732 422.996L335.764 422.598C335.062 422.574 334.5 421.989 334.523 421.286C334.523 421.263 334.546 421.216 334.546 421.192C334.71 419.577 334.921 417.726 335.179 415.665C334.64 415.478 334.078 415.338 333.539 415.197C333.211 417.656 332.907 419.694 332.649 421.286C332.532 421.942 331.923 422.41 331.244 422.34C322.227 421.286 317.286 419.717 315.248 418.171C313.047 416.532 313.187 414.869 314.991 413.487C316.162 412.574 318.34 411.871 321.08 411.59C323.961 411.286 327.567 411.38 331.385 412.106C333.141 398.569 335.741 375.243 338.832 347.162C345.624 285.685 354.922 201.537 363.681 147.953C344.266 166.056 335.155 167.274 328.879 160.74C325.647 157.344 323.328 151.887 320.682 145.658C317.707 138.608 314.288 130.528 308.691 123.666C306.068 126.055 302.578 133.737 299.206 142.894C293.632 158 288.526 176.829 287.683 183.083C287.168 187.064 286.044 190.296 284.475 192.895C282.156 196.666 278.83 199.031 274.896 200.273C271.032 201.467 266.582 201.608 261.828 200.975C248.876 199.219 233.583 191.724 222.67 185.05C217.868 182.099 214.449 181.467 212.505 182.122C211.756 182.38 211.264 182.848 211.077 183.457C210.866 184.136 210.96 185.026 211.405 186.01C212.669 188.75 216.393 191.865 222.927 193.481C233.419 196.034 239.93 199.055 245.082 201.444C255.176 206.128 259.884 208.306 280.657 199.055C280.915 198.938 281.219 198.891 281.547 198.961C282.226 199.102 282.648 199.804 282.484 200.484C275.622 229.829 268.479 242.92 258.9 257.37C262.764 286.95 260.376 320.698 255.176 340.745C255.364 341.097 255.551 341.448 255.715 341.799C256.652 343.907 256.98 346.46 256.792 349.13C256.675 351.027 256.277 352.994 255.668 354.891C248.268 377.655 251.757 382.315 254.357 385.758C255.293 387.023 256.137 388.124 256.511 389.81C257.003 392.058 257.003 393.861 256.628 395.243C256.324 396.391 255.738 397.234 254.919 397.773C254.122 398.335 253.115 398.522 251.968 398.382C250.633 398.218 249.087 397.538 247.401 396.367C246.511 395.735 245.574 395.196 244.614 394.775C243.701 394.353 242.74 394.049 241.757 393.838C238.08 393.042 235.129 393.768 233.372 395.196C232.693 395.759 232.201 396.414 231.944 397.117C231.71 397.796 231.663 398.522 231.874 399.271C232.319 400.887 233.888 402.574 236.932 403.862C238.782 404.658 241.054 405.15 243.443 405.478C242.225 404.354 241.288 403.042 240.726 401.824C240.071 400.396 239.883 398.99 240.164 397.89C240.539 396.508 241.523 395.595 243.232 395.524C245.27 395.454 248.595 396.836 253.326 400.794C254.263 401.59 254.825 402.738 255.504 404.119C256.347 405.782 257.354 407.82 259.298 409.436C259.65 409.717 259.884 410.162 259.814 410.63C259.743 411.333 259.111 411.825 258.408 411.754L258.291 411.731C254.848 411.333 250.235 411.145 246.37 412.106C243.513 412.808 241.078 414.19 240.024 416.672C241.429 416.274 242.904 415.853 244.31 415.455C251.71 413.347 256.675 411.942 259.743 412.551C263.186 413.23 264.24 415.853 263.28 421.614C268.104 422.738 274.287 424.307 281.29 426.134C313.445 434.401 363.329 447.235 384.079 439.975C384.126 439.975 384.196 439.952 384.243 439.928C384.922 439.764 385.625 440.186 385.789 440.865C386.937 445.479 386.796 446.135 385.883 450.584L385.789 450.936Z" fill="#59C8FF"/>
<path d="M363.353 450.444H0.977051V447.868H363.353C364.056 447.868 364.641 448.453 364.641 449.156C364.641 449.858 364.056 450.444 363.353 450.444Z" fill="#FEFEFE"/>
<path d="M219.976 252.827C221.03 254.794 222.107 256.832 223.232 258.916C225.199 262.523 227.4 264.537 229.625 265.31C231.288 265.895 232.998 265.778 234.614 265.122C236.3 264.443 237.916 263.155 239.321 261.469C242.319 257.862 244.309 252.452 244.122 246.902C243.911 240.415 241.241 233.834 237.658 230.157C236.323 228.798 234.871 227.838 233.396 227.534C232.014 227.229 230.562 227.487 229.157 228.47C226.276 230.484 223.513 235.309 221.405 244.091C220.843 246.457 220.374 249.197 220.023 252.382L219.976 252.827ZM22.2656 292.009C21.5395 291.353 20.7901 290.72 19.9938 290.135C17.886 288.566 15.5675 287.254 13.1084 286.177C15.4738 292.758 20.837 299.995 24.5607 303.648C25.2399 304.304 25.8488 304.819 26.3406 305.194C25.7785 303.297 24.0923 299.878 20.7901 294.421C20.4388 293.835 20.6262 293.062 21.2117 292.688L22.2656 292.009ZM157.586 206.596C157.586 206.737 157.586 206.854 157.586 206.971L158.874 206.175C158.921 205.683 158.897 205.238 158.803 204.816C158.686 204.184 158.546 203.739 158.429 203.435C157.96 204.184 157.609 205.425 157.586 206.596ZM144.096 226.175C144.4 227.065 144.845 227.604 145.524 227.838C148.686 228.962 150.888 228.517 152.504 227.182C154.26 225.754 155.454 223.295 156.438 220.601C157.89 216.714 157.726 215.332 157.164 214.208C154.143 217.814 149.67 221.843 144.096 226.175ZM143.229 219.009C143.323 219.149 143.417 219.29 143.463 219.454C143.51 219.571 143.534 219.711 143.534 219.852C143.534 221.28 143.557 222.498 143.651 223.552C149.131 219.29 153.393 215.426 156.017 212.076C155.876 211.795 155.759 211.514 155.665 211.186L143.229 219.009ZM141.004 221.327C140.606 221.327 140.255 221.234 139.927 221.093L26.2704 292.5C27.0432 293.437 27.7458 294.397 28.4016 295.451C41.3059 287.137 56.8567 277.957 72.6886 268.589C98.2631 253.459 124.587 237.885 141.309 225.356C141.121 224.231 141.028 222.896 141.004 221.327ZM261.593 9.96288C256.863 15.5837 254.474 24.3427 256.863 34.6943C257.003 34.1088 257.144 33.4765 257.284 32.8441C258.197 28.5583 263.607 23.1717 270.329 19.7524C273.795 18.0193 277.636 16.7547 281.383 16.4268C285.224 16.0989 289.018 16.7312 292.297 18.7453C294.662 20.2208 296.77 22.4457 298.386 25.5371C293.913 12.9138 287.144 6.23912 280.282 4.08449C276.816 2.98375 273.327 3.05401 270.118 4.08449C266.91 5.13838 263.959 7.1525 261.593 9.96288ZM260.375 40.6195C262.53 37.7623 268.713 33.5701 275.481 30.8768C279.088 29.4482 282.859 28.3943 286.325 28.1601C289.955 27.8791 293.257 28.488 295.693 30.385C296.887 31.3218 297.871 32.5397 298.573 34.0854C298.526 33.9448 298.503 33.7809 298.48 33.6404C297.121 27.036 294.381 23.0312 290.962 20.9234C288.198 19.2137 284.943 18.6751 281.594 18.9795C278.175 19.2606 274.662 20.4316 271.477 22.0241C265.387 25.1155 260.539 29.7995 259.79 33.3828C259.322 35.5608 258.806 37.5515 258.244 39.3548C258.315 39.5422 258.361 39.7295 258.432 39.8935C259.111 40.1511 259.767 40.3853 260.375 40.6195ZM268.198 60.2922C269.369 60.7372 270.633 61.1353 271.992 61.51C269.205 57.0134 269.743 54.1094 270.188 51.7674C270.68 49.2146 271.008 47.5752 261.664 43.8515C258.315 53.5941 261.64 57.8097 268.198 60.2922ZM281.688 63.6412C282.741 63.852 283.795 64.0628 284.873 64.297C285.411 63.6413 285.95 62.845 286.465 61.8379C289.814 55.3506 294.615 43.5236 296.419 39.1206C296.653 38.5351 296.84 38.0667 296.981 37.7154C296.583 35.2329 295.552 33.4999 294.147 32.3991C292.227 30.9237 289.533 30.4787 286.512 30.6895C283.304 30.9237 279.791 31.9073 276.418 33.2422C270.306 35.6779 264.802 39.1909 262.811 41.5563C273.865 46.0529 273.42 48.4652 272.694 52.2358C272.296 54.3904 271.781 57.1071 275.177 61.674C275.364 61.9316 275.552 62.1892 275.762 62.4234C277.636 62.845 279.627 63.2431 281.688 63.6412ZM281.336 66.1706L281.219 66.1472L280.165 65.9364C280.563 66.0769 280.938 66.1472 281.336 66.1706ZM339.956 418.804C337.872 417.211 335.6 415.993 333.305 415.033C333.141 416.298 333.001 417.492 332.883 418.57L339.956 418.804ZM325.975 418.125C326.209 416.719 326.443 415.033 326.701 413.089C323.117 412.387 319.721 412.293 317.005 412.597C314.733 412.832 313.023 413.347 312.204 413.979C312.016 414.12 312.063 414.331 312.438 414.612C314.077 415.853 318.246 417.141 325.975 418.125ZM366.023 111.769C362.791 112.519 359.863 115.024 358.481 119.685C356.983 124.627 358.154 128.327 360.378 130.435C360.847 130.88 361.362 131.254 361.924 131.559C363.306 123.947 364.688 117.296 366.023 111.769ZM374.337 110.551C374.735 110.762 375.109 110.996 375.484 111.254C375.835 108.748 376.14 106.336 376.398 104.158C376.819 100.574 376.562 98.3729 375.929 97.3425C375.789 97.1083 375.625 96.9677 375.508 96.9443C375.297 96.9209 375.039 97.038 374.688 97.2488C373.423 98.1153 371.995 100.317 370.941 103.525C370.402 105.141 369.863 106.991 369.325 109.052C371.058 109.216 372.768 109.732 374.337 110.551ZM375.086 114.111C374.477 113.596 373.821 113.174 373.142 112.823C371.737 112.074 370.215 111.652 368.692 111.558C367.287 117.249 365.835 124.275 364.36 132.355C365.343 132.496 366.35 132.425 367.334 132.144C370.121 131.325 372.674 128.631 373.54 123.713C374.079 120.809 374.594 117.53 375.063 114.275L375.086 114.111ZM365.133 141.981C364.126 142.426 363.212 142.964 362.392 143.62C353.493 196.83 343.961 283.179 337.029 345.898C333.914 374.142 331.314 397.585 329.534 411.122C330.073 411.263 330.612 411.426 331.15 411.59C333.375 393.323 337.638 361.121 342.439 325.031C351.947 253.366 363.517 166.291 365.133 141.981ZM367.873 138.351C370.004 137.789 372.205 137.437 374.22 137.109L374.922 136.992C380.309 128.842 380.379 122.121 377.967 117.624C377.756 117.249 377.545 116.875 377.288 116.523C376.889 119.217 376.468 121.84 376.07 124.158C374.992 130.177 371.69 133.503 368.037 134.58C367.123 134.861 366.187 134.978 365.25 134.978C365.976 135.376 366.678 135.868 367.381 136.501C367.685 136.735 367.873 137.109 367.873 137.508C367.873 137.765 367.873 138.046 367.873 138.351ZM362.955 140.224C363.704 139.826 364.477 139.475 365.273 139.17C365.297 138.772 365.32 138.421 365.32 138.093C364.734 137.625 364.149 137.25 363.517 136.969C363.329 138.023 363.142 139.124 362.955 140.224ZM179.46 361.425C181.919 365.36 185.057 368.357 188.757 369.575C188.828 369.107 188.898 368.615 188.968 368.147C184.05 365.594 180.748 362.83 178.57 359.926C178.874 360.441 179.155 360.933 179.46 361.425ZM191.685 370.161C191.943 370.184 192.224 370.184 192.481 370.184C192.13 369.95 191.755 369.716 191.357 369.458C191.31 369.692 191.263 369.903 191.24 370.114C191.381 370.137 191.544 370.161 191.685 370.161ZM195.151 372.339C194.964 372.479 194.73 372.596 194.495 372.62C193.488 372.737 192.505 372.76 191.521 372.69C191.263 372.69 191.006 372.667 190.748 372.62C190.42 374.119 190.022 375.594 189.53 377.069C189.437 377.444 189.179 377.772 188.781 377.936C179.811 381.683 165.127 374.798 149.084 367.28C134.868 360.605 119.528 353.439 106.694 352.947L214.004 400.419L213.255 393.815C199.601 387.351 198.805 382.831 198.055 378.498C197.704 376.507 197.353 374.54 195.151 372.339ZM195.292 351.378C195.245 348.568 195.104 345.757 194.847 343.111C193.465 344.563 192.552 345.64 192.294 346.319C192.06 346.881 192.107 348.895 192.177 351.706C192.27 355.64 192.388 361.027 191.732 366.741C192.528 367.186 193.231 367.631 193.886 368.076C194.87 363.486 195.338 357.42 195.292 351.378ZM175.244 325.803C175.268 326.459 175.361 327.115 175.502 327.747C175.432 326.998 175.338 326.365 175.244 325.803ZM175.478 334.024C175.197 333.602 174.916 333.157 174.659 332.689C174.143 331.799 173.745 330.839 173.417 329.855C173.277 330.909 173.136 332.127 173.043 333.462C172.832 336.483 172.949 339.715 173.347 342.97C173.675 345.57 174.19 348.169 174.893 350.699C174.378 346.858 174.729 342.853 175.104 338.755C175.244 337.185 175.408 335.616 175.478 334.024ZM186.767 338.356C189.132 338.684 191.591 338.239 193.91 336.881C193.582 335.218 193.184 333.719 192.715 332.455C186.345 314.89 195.151 304.046 203.044 294.28C209.578 286.247 215.456 278.987 210.491 269.221C203.418 291.353 197.001 294.187 192.481 296.177C190.35 297.091 188.734 297.817 187.821 301.049C187.165 303.273 186.86 305.288 186.556 307.067C185.619 312.993 184.963 316.927 176.462 319.761C176.181 320.37 175.947 320.955 175.783 321.541C176.275 321.799 176.72 322.29 177.048 322.993C177.82 324.609 178.312 328.052 178.078 333.251C178.945 334.352 179.952 335.312 181.076 336.108C182.785 337.303 184.729 338.099 186.767 338.356ZM194.402 339.527C191.802 340.839 189.062 341.237 186.439 340.886C184.003 340.558 181.661 339.621 179.624 338.192C179.015 337.747 178.406 337.279 177.844 336.74C177.774 337.49 177.703 338.239 177.656 338.965C176.743 348.849 175.9 358.099 189.296 365.43C189.811 360.254 189.718 355.359 189.624 351.753C189.554 348.638 189.507 346.413 189.928 345.382C190.444 344.071 192.06 342.314 194.449 339.855L194.402 339.527ZM215.761 308.075L206.439 322.97C206.158 323.415 205.643 323.625 205.151 323.555C204.917 323.508 203.746 326.295 202.505 329.199C201.849 330.722 201.193 332.291 200.514 333.602C204.987 328.825 210.397 322.571 215.667 314.585C215.69 312.384 215.737 310.229 215.761 308.075ZM218.618 293.203C219.625 287.863 219.648 282.5 219.016 277.184C218.899 281.844 218.758 287.254 218.618 293.203ZM198.43 206.081C197.493 208.563 197.68 211.585 198.57 215.051C200.022 220.718 203.301 227.58 206.955 235.192C210.374 242.358 214.098 250.181 217.002 258.378C217.096 256.598 217.213 254.911 217.377 253.342C206.51 232.663 200.866 218.025 198.43 206.081ZM250.914 236.55C252.179 241.468 253.209 246.668 254.029 252.031C262.413 239.103 268.877 226.456 275.083 200.858C255.153 209.407 250.094 207.065 239.672 202.24C234.614 199.898 228.22 196.924 217.986 194.418C210.608 192.615 206.299 188.891 204.753 185.542C204.051 183.973 203.91 182.45 204.308 181.162C204.753 179.78 205.784 178.703 207.376 178.188C209.929 177.321 214.121 177.977 219.672 181.35C230.351 187.907 245.27 195.238 257.846 196.924C262.226 197.509 266.324 197.392 269.79 196.315C273.163 195.261 275.973 193.247 277.964 190.038C279.346 187.743 280.353 184.839 280.821 181.209C281.688 174.839 286.863 155.728 292.484 140.505C296.395 129.849 300.634 120.973 304.007 119.287C304.545 119.029 305.154 119.17 305.529 119.615C311.829 126.945 315.506 135.611 318.691 143.152C321.22 149.147 323.445 154.393 326.373 157.438C331.783 163.082 340.308 161.208 359.887 142.426L360.027 142.285C360.378 140.177 360.753 138.116 361.104 136.102C360.308 135.915 359.512 135.774 358.762 135.657C354.313 134.885 350.542 134.229 349.722 126.243C349.512 126.5 349.324 126.758 349.16 126.969C348.481 127.835 348.13 128.327 347.896 128.772C347.615 129.334 347.451 129.99 347.123 131.465C346.959 132.191 346.771 133.034 346.654 133.479C346.49 134.159 345.811 134.58 345.132 134.416C344.734 134.322 344.429 134.065 344.266 133.737C339.347 124.603 337.193 123.011 335.67 121.886C333.188 120.036 332.134 119.263 326.677 99.5908C320.143 76.007 301.665 70.3862 285.716 67.0606C285.552 67.1777 285.411 67.2947 285.271 67.4118C284.147 68.255 282.952 68.6765 281.734 68.7234C280.563 68.7702 279.369 68.4658 278.221 67.8803C276.887 67.2011 275.598 66.1003 274.381 64.7186C271.804 64.1331 269.416 63.4773 267.308 62.681C259.298 59.6365 255.223 54.5778 259.298 42.9147C258.666 42.6805 257.987 42.4463 257.284 42.1886C252.202 55.8893 243.841 58.6997 233.044 62.3297C213.536 68.8873 185.713 78.2552 154.705 166.244C154.518 166.782 154.19 167.626 153.768 168.773C150.138 178.609 138.569 209.969 140.513 217.721L155.127 208.54C155.08 207.955 155.033 207.299 155.056 206.573C155.08 204.816 155.689 202.849 156.485 201.748C156.86 201.256 157.305 200.882 157.796 200.718C158.476 200.46 159.155 200.554 159.787 201.069C160.396 201.561 160.935 202.568 161.309 204.278C161.45 204.98 161.45 205.706 161.356 206.479C161.38 206.573 161.403 206.69 161.403 206.807L161.567 209.617C161.661 211.421 161.895 212.498 162.223 212.99C162.293 212.943 162.387 212.849 162.504 212.732C163.417 211.795 164.377 209.805 164.939 207.627C166.321 202.146 165.876 197.626 165.431 193.013C164.26 180.717 163.019 167.953 193.324 136.29L209.461 108.771C209.812 108.162 210.585 107.952 211.194 108.303C211.615 108.561 211.849 109.006 211.826 109.451C210.889 134.51 207.048 150.599 203.863 163.831C200.772 176.712 198.36 186.83 200.022 199.992C201.615 198.938 203.629 198.095 206.135 197.439C212.739 195.729 218.594 195.94 223.77 197.673C230.609 199.945 236.206 204.933 240.679 211.749C245.106 218.47 248.455 226.995 250.914 236.55ZM251.921 255.239C251.054 248.963 249.93 242.874 248.455 237.183C246.066 227.885 242.811 219.618 238.548 213.154C234.379 206.784 229.227 202.17 222.974 200.085C218.243 198.493 212.88 198.329 206.767 199.898C203.957 200.624 201.919 201.678 200.491 203.013C202.458 214.606 207.564 228.705 217.915 248.869C218.196 246.902 218.548 245.122 218.946 243.506C221.217 234.044 224.356 228.728 227.705 226.386C229.742 224.957 231.874 224.583 233.934 225.028C235.902 225.473 237.799 226.667 239.485 228.4C243.466 232.475 246.441 239.712 246.675 246.808C246.886 253.014 244.637 259.057 241.288 263.108C239.602 265.099 237.658 266.645 235.55 267.488C233.372 268.378 231.054 268.518 228.782 267.722C225.995 266.738 223.302 264.35 221.007 260.134C220.538 259.244 220.07 258.378 219.601 257.534C219.508 259.15 219.438 260.86 219.391 262.663C219.367 263.507 219.344 264.537 219.32 265.708C222.623 277.793 223.466 290.463 218.407 302.875C218.36 305.358 218.313 307.911 218.243 310.51C219.601 308.309 220.913 305.99 222.178 303.555C232.482 283.905 240.796 271.657 247.822 261.305C249.228 259.221 250.609 257.207 251.921 255.239ZM248.057 339.715C247.401 338.942 246.558 338.333 245.504 338.005C244.989 337.841 244.427 337.724 243.818 337.677C237.002 337.209 234.426 339.527 234.239 342.291C234.122 343.837 234.707 345.546 235.691 346.998C236.675 348.474 238.056 349.645 239.508 350.137C241.991 350.956 244.872 349.668 246.769 344.047C247.214 342.713 247.658 341.26 248.057 339.715ZM381.456 449.414C381.316 450.093 380.637 450.538 379.957 450.397C379.255 450.257 378.833 449.577 378.974 448.898L379.044 448.547C379.77 445.081 379.957 444.191 379.302 441.287C357.17 447.868 308.152 435.245 276.324 427.071C268.783 425.127 262.226 423.441 257.167 422.293C256.511 422.153 256.066 421.474 256.207 420.818C257.167 415.97 256.792 413.909 254.895 413.534C252.436 413.042 247.705 414.377 240.679 416.392C238.876 416.883 236.909 417.445 234.239 418.171C233.56 418.359 232.857 417.961 232.67 417.281C232.623 417.141 232.623 416.977 232.623 416.813V416.79H232.646H232.623C233.232 411.731 236.909 409.225 241.429 408.101C244.497 407.328 247.963 407.234 251.008 407.398C250.094 406.134 249.462 404.845 248.9 403.721C248.338 402.621 247.869 401.66 247.354 401.239C243.162 397.726 240.469 396.485 238.993 396.555C238.595 396.555 238.361 396.742 238.291 397C238.15 397.538 238.291 398.335 238.712 399.225C239.766 401.543 242.412 404.143 246.183 404.682C246.886 404.775 247.354 405.408 247.26 406.11C247.167 406.789 246.558 407.258 245.902 407.211L245.012 407.141C240.398 406.742 235.41 406.321 231.592 404.682C227.752 403.042 225.714 400.747 225.082 398.405C224.73 397.14 224.801 395.876 225.222 394.728C225.644 393.581 226.393 392.55 227.424 391.684C229.719 389.833 233.443 388.85 237.939 389.81C239.087 390.068 240.211 390.442 241.312 390.911C242.436 391.426 243.49 392.035 244.52 392.761C245.879 393.698 247.026 394.213 247.963 394.33C248.478 394.4 248.876 394.33 249.181 394.143C249.462 393.932 249.696 393.581 249.837 393.042C250.118 392.082 250.071 390.653 249.673 388.826C249.438 387.679 248.736 386.789 247.986 385.758C245.059 381.871 241.078 376.601 248.9 352.596C249.438 350.886 249.79 349.13 249.907 347.443C250.024 345.968 249.954 344.563 249.673 343.298C249.509 343.837 249.345 344.352 249.181 344.867C246.698 352.244 242.459 353.814 238.712 352.549C236.698 351.87 234.848 350.324 233.583 348.427C232.295 346.53 231.546 344.258 231.686 342.104C231.967 338.029 235.293 334.539 243.982 335.148C244.825 335.195 245.598 335.335 246.3 335.569C247.26 335.874 248.08 336.342 248.806 336.904C253.49 317.63 255.621 286.786 252.389 259.057C251.593 260.275 250.773 261.469 249.93 262.71C242.928 273.015 234.66 285.193 224.426 304.725C222.412 308.59 220.304 312.126 218.173 315.405C217.47 358.685 217.587 412.199 222.81 416.649L363.634 447.915C364.313 448.079 364.758 448.734 364.594 449.437C364.453 450.116 363.774 450.538 363.072 450.397L221.943 419.061C221.803 419.015 221.662 418.968 221.522 418.874C215.503 414.799 215.011 362.69 215.597 319.199C208.852 328.801 202.13 335.64 197.587 340.277L197.118 340.745C197.563 344.071 197.774 347.724 197.821 351.354C197.891 358.053 197.329 364.821 196.111 369.739C199.624 372.713 200.093 375.36 200.561 378.053C201.217 381.824 201.896 385.758 214.988 391.801C215.409 392.011 215.667 392.386 215.714 392.831L216.791 402.34C216.861 403.042 216.37 403.674 215.667 403.745C215.433 403.768 215.222 403.721 215.011 403.628L100.675 353.064C100.043 352.783 99.7385 352.034 100.02 351.378C100.23 350.933 100.675 350.652 101.144 350.628C115.594 348.802 133.604 357.233 150.162 364.985C165.338 372.081 179.226 378.592 187.282 375.781C187.657 374.564 187.985 373.322 188.266 372.104C183.816 370.746 180.139 367.303 177.305 362.783C173.909 357.327 171.684 350.254 170.818 343.275C170.396 339.879 170.279 336.483 170.513 333.298C170.888 327.841 171.825 324.305 172.809 322.735C172.855 322.689 172.879 322.642 172.926 322.595C173.183 321.119 173.675 319.644 174.401 318.169C174.565 317.841 174.846 317.606 175.151 317.513C182.692 315.124 183.23 311.775 184.05 306.669C184.355 304.772 184.682 302.688 185.362 300.346C186.603 295.966 188.711 295.03 191.451 293.835C195.713 291.962 201.849 289.268 208.899 265.731C209.109 265.052 209.812 264.678 210.491 264.888C210.796 264.959 211.03 265.146 211.194 265.404V265.38C219.555 277.957 212.693 286.411 205.011 295.896C197.54 305.124 189.226 315.382 195.104 331.588C195.502 332.665 195.854 333.86 196.158 335.171C196.486 334.89 196.791 334.562 197.095 334.211C198.055 333.157 199.109 330.651 200.163 328.192C201.545 324.96 202.88 321.822 204.589 321.143L214.402 305.475C214.941 304.421 215.433 303.367 215.878 302.313C216.135 289.737 216.416 278.729 216.627 271.071C216.674 269.198 216.721 267.511 216.768 266.083C213.84 255.497 208.992 245.356 204.66 236.293C200.959 228.564 197.61 221.585 196.111 215.683C194.659 210.039 194.8 205.378 197.704 202.029C195.526 187.696 198.102 176.993 201.404 163.246C204.308 151.068 207.821 136.407 209.039 114.509L195.479 137.671C195.409 137.765 195.338 137.859 195.268 137.953C165.665 168.867 166.836 181.045 167.961 192.778C168.429 197.603 168.897 202.357 167.399 208.236C166.743 210.835 165.525 213.294 164.307 214.536C163.722 215.121 163.089 215.496 162.434 215.589C161.614 215.683 160.864 215.402 160.279 214.629C159.787 213.997 159.412 212.99 159.202 211.491C159.085 211.655 158.967 211.842 158.85 212.006L158.967 212.217C160.115 214.161 160.982 215.66 158.85 221.491C157.703 224.536 156.298 227.37 154.119 229.15C151.824 231.047 148.827 231.726 144.681 230.25C143.417 229.805 142.574 229.009 142.011 227.768C124.985 240.602 99.1296 255.895 74.0001 270.767C57.6764 280.416 41.6572 289.901 28.6826 298.308C28.0737 298.683 27.3008 298.519 26.9027 297.934L26.8559 297.84C26.0596 296.411 25.1228 295.077 24.0923 293.882L23.6005 294.187C27.0901 300.042 28.6826 303.601 29.0105 305.428C29.4555 308.004 28.4484 308.777 26.4577 308.121C25.5209 307.817 24.2328 306.88 22.8042 305.475C18.3544 301.142 11.7969 292.009 9.92329 284.374C9.82961 284.116 9.82961 283.812 9.92329 283.507C10.1809 282.851 10.9303 282.523 11.5861 282.781C15.0991 284.116 18.5184 285.849 21.5161 288.097C22.57 288.87 23.5537 289.713 24.4905 290.627L138.288 219.102C138.264 219.009 138.217 218.938 138.194 218.845C135.524 210.859 147.632 178.071 151.379 167.907C151.824 166.712 152.129 165.846 152.293 165.401C183.722 76.2411 212.248 66.639 232.248 59.9175C242.787 56.3577 250.867 53.641 255.551 39.3782C251.195 26.3802 253.818 15.2324 259.649 8.30007C262.319 5.13839 265.668 2.86666 269.345 1.67224C273.046 0.477829 277.074 0.407582 281.055 1.64884C289.861 4.4358 298.48 13.7569 302.976 32.0713C303.609 34.7177 303.655 36.8957 303.374 37.9965C303.21 38.7459 302.836 39.2612 302.297 39.4954C301.571 39.7998 300.868 39.6125 300.26 38.8396C300.025 38.5586 299.791 38.0902 299.534 37.4578L299.557 37.692C299.627 38.1136 299.487 38.4883 299.206 38.7693C299.042 38.9333 299.135 39.1441 298.784 40.0809C296.981 44.5072 292.133 56.3811 288.714 63.0089C288.362 63.6881 288.011 64.3204 287.636 64.8591C303.936 68.3721 322.391 74.5783 329.136 98.9116C334.359 117.741 335.202 118.35 337.193 119.826C338.715 120.973 340.799 122.519 344.921 129.685C345.155 128.772 345.319 128.21 345.624 127.624C345.952 126.992 346.373 126.43 347.146 125.423C347.732 124.627 348.575 123.549 349.722 121.933C349.957 121.559 350.355 121.324 350.823 121.324C351.526 121.324 352.088 121.887 352.088 122.589C352.088 131.91 355.32 132.472 359.184 133.128L359.816 133.245C359.395 132.964 358.997 132.636 358.645 132.285C355.765 129.592 354.219 124.954 356.022 118.959C357.896 112.753 362.088 109.661 366.608 109.099H366.702C367.311 106.71 367.92 104.579 368.529 102.729C369.746 98.9584 371.573 96.2886 373.283 95.141C374.126 94.5555 375.016 94.3213 375.836 94.4384C376.749 94.5555 377.522 95.0707 378.107 96.0075C378.997 97.483 379.419 100.247 378.927 104.462C378.622 107.062 378.224 110.059 377.803 113.151C378.716 114.088 379.536 115.188 380.215 116.43C383.049 121.723 383.049 129.545 376.772 138.796C376.585 139.1 376.28 139.334 375.882 139.405L374.618 139.615C372.44 139.967 370.027 140.365 367.732 141.044C366.397 163.995 354.617 252.616 344.968 325.358C340.12 361.776 335.811 394.189 333.609 412.434C337.45 413.909 341.221 416.134 344.383 419.296C344.874 419.787 344.874 420.607 344.359 421.099C344.102 421.357 343.75 421.497 343.376 421.474L331.431 421.075C330.729 421.052 330.167 420.467 330.19 419.764C330.19 419.717 330.19 419.694 330.19 419.67C330.378 418.054 330.588 416.204 330.846 414.143C330.284 413.956 329.745 413.815 329.207 413.651C328.879 416.134 328.574 418.171 328.293 419.764C328.199 420.42 327.567 420.888 326.911 420.818C317.895 419.741 312.953 418.195 310.916 416.649C308.714 415.01 308.855 413.347 310.658 411.965C311.829 411.052 314.007 410.349 316.747 410.068C319.628 409.74 323.234 409.857 327.052 410.56C328.808 397.047 331.385 373.697 334.499 345.617C341.291 284.139 350.589 200.015 359.348 146.431C339.909 164.534 330.822 165.752 324.546 159.218C321.291 155.822 318.995 150.365 316.349 144.135C313.375 137.086 309.955 129.006 304.335 122.144C301.712 124.51 298.245 132.215 294.873 141.372C289.299 156.478 284.194 175.307 283.35 181.537C282.812 185.542 281.711 188.774 280.118 191.35C277.8 195.144 274.498 197.509 270.54 198.751C266.699 199.945 262.249 200.085 257.495 199.453C244.52 197.697 229.25 190.202 218.337 183.528C213.536 180.577 210.116 179.944 208.173 180.6C207.423 180.858 206.931 181.326 206.744 181.912C206.51 182.614 206.627 183.504 207.072 184.488C208.337 187.228 212.06 190.343 218.594 191.935C229.087 194.512 235.597 197.533 240.75 199.922C250.844 204.606 255.551 206.784 276.324 197.533C276.582 197.392 276.887 197.345 277.191 197.416C277.87 197.58 278.315 198.282 278.151 198.961C271.289 228.306 264.146 241.375 254.567 255.848C258.432 285.428 256.019 319.176 250.82 339.223C251.031 339.574 251.218 339.926 251.382 340.277C252.319 342.385 252.647 344.937 252.46 347.607C252.319 349.504 251.944 351.472 251.312 353.369C243.911 376.133 247.424 380.793 250.024 384.236C250.961 385.501 251.804 386.601 252.179 388.288C252.647 390.536 252.67 392.339 252.296 393.721C251.991 394.869 251.406 395.712 250.586 396.25C249.766 396.789 248.783 397 247.635 396.859C246.3 396.695 244.754 396.016 243.068 394.845C242.155 394.189 241.241 393.674 240.281 393.253C239.344 392.831 238.384 392.527 237.401 392.316C233.724 391.52 230.773 392.246 229.04 393.674C228.361 394.213 227.869 394.869 227.611 395.595C227.353 396.274 227.33 397 227.517 397.749C227.962 399.365 229.555 401.051 232.576 402.34C234.45 403.136 236.721 403.628 239.087 403.956C237.869 402.831 236.956 401.52 236.394 400.279C235.738 398.873 235.527 397.468 235.831 396.344C236.183 394.986 237.19 394.072 238.899 394.002C240.937 393.908 244.239 395.314 248.97 399.272C249.907 400.068 250.492 401.215 251.171 402.597C252.015 404.26 253.022 406.298 254.942 407.913C255.317 408.171 255.528 408.64 255.481 409.108C255.387 409.811 254.755 410.302 254.052 410.232L253.935 410.209C250.516 409.81 245.879 409.6 242.038 410.56C239.157 411.286 236.745 412.668 235.668 415.15C237.073 414.752 238.572 414.331 239.977 413.932C247.377 411.825 252.342 410.419 255.41 411.028C258.83 411.707 259.907 414.331 258.923 420.092C263.748 421.193 269.931 422.785 276.957 424.588C309.112 432.879 358.997 445.713 379.747 438.453C379.793 438.453 379.84 438.43 379.911 438.406C380.59 438.242 381.269 438.664 381.456 439.343C382.604 443.933 382.463 444.612 381.527 449.062L381.456 449.414Z" fill="#FEFEFE"/>
</svg>
