<svg width="111" height="31" viewBox="0 0 111 31" fill="none" xmlns="http://www.w3.org/2000/svg">
<path d="M110.273 24.5457C110.386 25.6558 110.155 26.7738 109.611 27.7464C109.067 28.7189 108.236 29.4983 107.234 29.9774C106.232 30.4565 105.107 30.6119 104.013 30.4222C102.92 30.2326 101.911 29.7071 101.127 28.9181C100.342 28.1291 99.8193 27.1151 99.6307 26.0155C99.4421 24.9159 99.5966 23.7845 100.073 22.7767C100.55 21.7689 101.325 20.9342 102.292 20.3871C103.259 19.8401 104.371 19.6075 105.475 19.7213C106.704 19.8484 107.853 20.3975 108.726 21.2762C109.6 22.1549 110.146 23.3095 110.273 24.5457Z" fill="#EBEBEB"/>
<path d="M100.36 0.5V18.5366L109.596 12.9411V0.5H100.36Z" fill="#EBEBEB"/>
<path d="M39.9571 0.5L31.3607 14.4505V0.5H22.1311L15.8744 8.81369L9.53558 0.5H0.300049V29.9871H9.53558V14.2677L15.8744 22.5401L22.1311 14.3738V29.9871H31.5895L35.4303 23.7489H45.1818V29.9871H54.4173V8.87855H59.3253V29.9871H68.5609V8.87855H73.2109V23.7842H87.3544V29.9871H96.59V0.5H87.3544V15.4057H82.4464V0.5H39.9571ZM45.1818 7.92336V15.3762H40.5904L45.1818 7.92336Z" fill="#EBEBEB"/>
</svg>
