<svg width="162" height="45" viewBox="0 0 162 45" fill="none" xmlns="http://www.w3.org/2000/svg">
<g clip-path="url(#clip0_202_290)">
<path opacity="0.9" fill-rule="evenodd" clip-rule="evenodd" d="M57.9381 0.0137555L57.9385 0.013748C58.1437 0.00681865 58.3457 0 58.5542 0C66.5156 0 72.9902 6.44827 72.9869 14.3835V30.099C72.9869 38.0272 66.5156 44.4754 58.5542 44.4754C54.7684 44.4754 51.3186 43.0133 48.7428 40.6277L48.7473 40.6216C51.3228 43.0043 54.7705 44.4647 58.5542 44.4647V42.4142H58.5579C65.3727 42.4142 70.9171 36.8961 70.9171 30.1061V14.3871C70.9171 7.60051 65.376 2.07895 58.5579 2.07895C58.3705 2.07895 58.1863 2.086 58.0026 2.09304L58.0022 2.09305C57.9778 2.09481 57.9538 2.09569 57.9298 2.09657V2.09658L57.9219 2.09686L57.9075 2.09743C57.8988 2.09777 57.8901 2.09815 57.8818 2.0986C57.8735 2.09903 57.8657 2.09951 57.8574 2.10009C57.7804 2.1069 57.7026 2.11288 57.6257 2.11884C57.5425 2.12522 57.4601 2.13157 57.3799 2.13886C57.3712 2.14008 57.3621 2.14087 57.353 2.14154L57.3463 2.14202L57.341 2.14237L57.3406 2.14238L57.3298 2.14313L57.3252 2.14347L57.319 2.14397C57.3132 2.14449 57.3075 2.14511 57.3017 2.1459C57.1374 2.16164 56.9789 2.183 56.8155 2.20497V2.20499L56.7571 2.21285C56.7273 2.21825 56.6996 2.22158 56.6706 2.22601C56.6619 2.22736 56.6528 2.22882 56.6437 2.23047C56.5217 2.24631 56.4058 2.26809 56.2899 2.28988L56.2895 2.28992L56.2651 2.29454C56.2515 2.29704 56.2382 2.29953 56.225 2.30201C56.2076 2.3052 56.1906 2.30838 56.1732 2.31151C56.1447 2.31504 56.1166 2.31856 56.0884 2.32561C55.9006 2.36437 55.7201 2.40313 55.5397 2.44894L55.4975 2.45951C55.4582 2.47008 55.4189 2.48046 55.38 2.49082L55.3779 2.49135C55.248 2.52574 55.1185 2.56 54.9915 2.60045C54.9703 2.6075 54.9488 2.61102 54.9277 2.61807C54.5599 2.73083 54.1986 2.8612 53.8486 3.00567C53.8415 3.00567 53.8345 3.00919 53.8274 3.01272C52.3767 3.61174 51.0675 4.47857 49.9564 5.55326V5.54975C49.3692 6.11353 48.8421 6.73723 48.3786 7.4067C48.7606 8.09382 49.0932 8.80912 49.3622 9.55966C51.0675 6.2897 54.5032 4.04515 58.4516 4.04515H58.6713C64.3146 4.04515 68.9073 8.61181 68.9073 14.232V30.2505C68.9073 35.8707 64.3146 40.4445 58.6713 40.4445H58.4516C54.5003 40.4445 51.0687 38.2043 49.363 34.9283C49.3651 34.923 49.3668 34.9177 49.3688 34.9123C51.0741 38.1893 54.5065 40.4303 58.4586 40.4303H58.5683L58.5542 38.369H58.4446C53.9437 38.369 50.2854 34.722 50.2854 30.2435V17.5231H48.127V30.0955C48.127 31.7833 47.7803 33.383 47.1608 34.8454C47.1608 34.8452 47.1608 34.8451 47.1608 34.845C47.7782 33.3847 48.1237 31.784 48.1237 30.099V14.38C48.1237 7.59346 42.5793 2.07191 35.7646 2.07191C28.95 2.07191 23.4056 7.58996 23.4056 14.38V30.099C23.4056 36.882 28.95 42.4071 35.7646 42.4071H35.7679V44.4647C39.5531 44.4647 43.0022 43.003 45.5781 40.6184L45.5797 40.6206C43.0039 43.0063 39.5541 44.4684 35.7682 44.4684C30.383 44.4684 25.6807 41.5121 23.2004 37.1428V44.613H21.1305V0.560258H23.2004V7.32569C25.6807 2.95634 30.3865 0 35.7717 0C40.3997 0 44.5254 2.18466 47.1612 5.5603C48.5872 3.73507 50.4484 2.25866 52.5852 1.28613L52.6068 1.27556C52.9924 1.09585 53.3955 0.93729 53.8026 0.796343L53.8664 0.775203C54.2624 0.63778 54.6658 0.517978 55.0763 0.419316C55.0837 0.417828 55.0916 0.416184 55.099 0.414449C55.1131 0.411276 55.1272 0.4078 55.1412 0.404427L55.1524 0.40169L55.1657 0.398524C55.1715 0.397153 55.1768 0.39585 55.1826 0.394648C55.5823 0.299511 55.9891 0.22199 56.4033 0.158565C56.4261 0.155041 56.4484 0.152398 56.4703 0.149754C56.4923 0.147113 56.5146 0.14447 56.5374 0.140946C56.9479 0.0845683 57.3583 0.0422827 57.7759 0.0211427C57.7999 0.0193216 57.8255 0.0184413 57.852 0.0175308L57.8528 0.0175082C57.8652 0.0170706 57.8785 0.0166254 57.8913 0.0160645C57.9037 0.0155388 57.9157 0.01491 57.9281 0.0140951L57.9381 0.0137555ZM45.5781 40.6184L45.5793 40.6171C45.2396 40.1731 44.7269 39.4684 44.3834 38.9081C42.151 41.0716 39.1115 42.4034 35.7679 42.4034V42.4071C39.1173 42.4063 42.1556 41.0674 44.3801 38.9116C44.7228 39.471 45.2383 40.1743 45.5781 40.6184ZM46.1917 17.5196H46.195V30.0955C46.195 31.7761 46.5418 33.3828 47.1608 34.845C47.16 34.8475 47.1588 34.8499 47.1579 34.8524C46.5385 33.3901 46.1917 31.7833 46.1917 30.099V17.5196ZM44.0371 17.5196H46.1917V14.38C46.1917 14.306 46.1954 14.2355 46.1988 14.1651C46.2025 13.5202 46.1106 11.5118 44.964 9.54911C44.964 9.55084 44.9632 9.55261 44.9623 9.55438L44.9615 9.55562C44.9611 9.55694 44.9607 9.5583 44.9607 9.55966C43.255 6.2862 39.823 4.04515 35.8708 4.04515H35.6549C30.0115 4.04515 25.4224 8.61886 25.4224 14.232V30.247C25.4224 35.8672 30.015 40.4409 35.6549 40.4409H35.8708C39.823 40.4409 43.255 38.1963 44.9607 34.9229C45.2681 35.7827 45.6575 36.6001 46.1177 37.3789C46.4326 37.9356 46.7864 38.4888 47.1579 38.9116L47.1612 38.9081L47.165 38.9116C47.5361 38.4923 47.8937 37.9391 48.2052 37.3789C48.4821 36.9138 48.7324 36.4309 48.9559 35.9323C49.1032 35.6043 49.2389 35.2697 49.363 34.9283C49.3626 34.9277 49.3622 34.927 49.3622 34.9264C49.2385 35.2681 49.1028 35.6036 48.9559 35.9323C48.7341 36.4249 48.4862 36.9024 48.2119 37.3648C47.9003 37.9215 47.5432 38.4747 47.1716 38.8976C47.1683 38.8976 47.1679 38.894 47.1679 38.894C47.1646 38.894 47.1646 38.8976 47.1646 38.8976C46.793 38.4747 46.4392 37.925 46.1243 37.3648C45.6641 36.586 45.2752 35.7686 44.9673 34.9088C43.2617 38.1823 39.8298 40.4268 35.8776 40.4268H35.7679V38.369H35.8778C40.375 38.369 44.0371 34.7256 44.0371 30.2435V17.5196ZM44.0371 17.5196H44.0367V30.24C44.0367 34.722 40.3747 38.3655 35.8776 38.3655H35.7679V38.369H35.6621C31.1614 38.369 27.5029 34.722 27.5029 30.2435V14.225C27.5029 9.74287 31.165 6.09944 35.6621 6.09944H35.8778C40.3785 6.09944 44.0371 9.74642 44.0371 14.225V17.5196ZM58.5542 42.4142V42.4034C55.2033 42.4034 52.1677 41.0716 49.9386 38.9081C49.6022 39.4606 49.0957 40.1418 48.7626 40.59L48.7428 40.6171L48.7473 40.6216C49.0837 40.1738 49.6006 39.4764 49.9423 38.9187C52.1706 41.0814 55.205 42.4133 58.5542 42.4142ZM58.4446 6.09589C53.9475 6.09589 50.2854 9.73937 50.2854 14.2214V30.2364C50.2854 34.715 53.9441 38.362 58.4446 38.362H58.6639C63.161 38.362 66.823 34.7185 66.823 30.2364V14.2214C66.823 9.74287 63.1647 6.09589 58.6639 6.09589H58.4446ZM58.5542 36.4064H58.5575V36.4099C55.7835 36.4099 53.424 34.5991 52.6097 32.1024C53.4269 34.5989 55.781 36.4064 58.5542 36.4064ZM58.5501 34.345C56.2502 34.3409 54.379 32.475 54.379 30.1836V14.2814C54.379 11.9875 56.2544 10.12 58.5579 10.12C60.8611 10.12 62.7364 11.9875 62.7364 14.2814V30.1836C62.7364 32.4775 60.8611 34.3451 58.5579 34.3451L58.5542 34.345L58.5575 36.4064C62.0023 36.4045 64.8062 33.611 64.8062 30.1801V14.2779C64.8062 10.8458 62.0007 8.05158 58.5542 8.05158C55.1081 8.05158 52.3022 10.8458 52.3022 14.2779V30.1801C52.3035 30.8508 52.4115 31.4969 52.6097 32.1024C52.4123 31.4977 52.3055 30.8528 52.3055 30.1836V24.6057H54.3753V30.1836C54.3753 32.4762 56.2486 34.3429 58.5501 34.345ZM29.5124 14.2884C29.5124 10.8563 32.3182 8.06209 35.7645 8.06209C39.2107 8.06209 42.0166 10.8493 42.0166 14.2848V30.187C42.0166 33.6191 39.2107 36.4134 35.7645 36.4134C32.3182 36.4134 29.5124 33.6191 29.5124 30.187V14.2884ZM39.9431 24.6057H42.0166V30.1836C42.0166 33.6157 39.2107 36.4099 35.7644 36.4099V34.3486C37.5072 34.3486 39.0048 33.2774 39.6305 31.7625C39.0044 33.2761 37.5062 34.345 35.7609 34.345C33.4575 34.345 31.5823 32.4774 31.5823 30.1835V14.2848C31.5823 11.9909 33.4575 10.1234 35.7609 10.1234C38.0643 10.1234 39.9431 11.9909 39.9431 14.2848L39.9431 24.6057ZM39.9431 24.6057V30.1836L39.9431 30.1835L39.9431 24.6057ZM12.9428 44.613V23.2702C13.6328 22.8579 14.2874 22.3857 14.8924 21.8678L15.0127 21.7621V44.613H12.9428ZM15.0127 0.560291H12.9428C12.9428 8.09386 7.29935 14.3342 0 15.3209V17.3998C8.44221 16.3991 15.0127 9.23201 15.0127 0.560291ZM0 25.5888V23.5204C5.91592 23.0095 11.2091 20.2751 15.0127 16.1524V19.063C10.9862 22.7416 5.76377 25.1307 0 25.5888ZM17.0366 0.55676V0.567334C17.0366 10.349 9.56032 18.4287 0 19.433V21.5049C7.51875 20.7931 13.9017 16.1419 17.0366 9.64776V44.613H19.1064V0.55676H17.0366Z" fill="white"/>
<path d="M58.4015 40.2654C54.5379 40.244 51.1858 38.0454 49.5157 34.8365L49.3415 34.5017L49.2132 34.8564C48.9054 35.7066 48.5239 36.5147 48.0695 37.2809L48.0683 37.2827L48.067 37.2846C47.7931 37.7746 47.4861 38.2568 47.1683 38.646C46.8509 38.2574 46.5459 37.7778 46.2687 37.2843L46.2679 37.2827L46.267 37.2812C45.8118 36.511 45.4274 35.7029 45.1233 34.8534L44.9954 34.4968L44.8204 34.8329C43.1503 38.0387 39.7975 40.2408 35.9334 40.2618V38.5302C40.4963 38.5002 44.2022 34.7946 44.2022 30.24V17.6844H46.0295V30.0955C46.0295 31.799 46.3808 33.4275 47.0085 34.9094L47.1608 35.2696L47.3135 34.9094C47.9408 33.4276 48.2925 31.8061 48.2925 30.0955V17.688H50.1198V30.2435C50.1198 34.7949 53.8229 38.5043 58.3895 38.5337L58.4015 40.2654ZM35.9334 44.2991V42.5675C39.1836 42.525 42.1407 41.241 44.3507 39.1675C44.6586 39.6498 45.0563 40.1997 45.3567 40.5972C42.8603 42.8613 39.5572 44.2579 35.9334 44.2991ZM49.9713 39.1678C52.1781 41.2414 55.1317 42.525 58.3887 42.5675V44.2991C54.7643 44.2579 51.4605 42.8609 48.9641 40.5961C49.2587 40.1992 49.6618 39.6523 49.9713 39.1678ZM40.1086 30.1836V24.7705H41.851V30.1836C41.851 33.4695 39.2086 36.1551 35.9299 36.2429V34.5103C38.2485 34.4232 40.1086 32.5132 40.1086 30.1836ZM54.2098 30.1836C54.2098 32.5135 56.0702 34.42 58.3891 34.5068L58.392 36.2429C55.1135 36.155 52.471 33.4694 52.471 30.1836V24.7705H54.2098V30.1836Z" stroke="white"/>
<path opacity="0.9" d="M82.6059 13.3929H80.0449V11.5552H80.7831L81.4084 0.535767H86.1277V13.3929H84.192V2.37351H83.2344L82.6059 13.3929Z" fill="white"/>
<path opacity="0.9" d="M87.5347 0.535767H92.3347V2.37351H89.4745V5.49627H92.2424V7.33048H89.4745V11.5552H92.3347V13.3929H87.5347V0.535767Z" fill="white"/>
<path opacity="0.9" d="M93.2449 0.535767H98.8725V2.37351H97.0261V13.3929H95.0875V2.37351H93.2449V0.535767Z" fill="white"/>
<path opacity="0.9" d="M86.079 16.3187H88.4451V29.1759H86.504V23.6646L86.8193 19.9917H86.727L85.3776 26.6051H83.5677L82.179 19.9917H82.0867L82.4409 23.6646V29.1759H80.5002V16.3187H82.8626L84.4354 23.6646H84.4921L86.079 16.3187Z" fill="white"/>
<path opacity="0.9" d="M90.698 29.2135C90.1833 29.2135 89.8518 28.8639 89.8518 28.3659V17.1664C89.8518 16.6684 90.1833 16.3187 90.698 16.3187H94.7987C95.3135 16.3187 95.6449 16.6684 95.6449 17.1664V28.3694C95.6449 28.8674 95.3135 29.2171 94.7987 29.2171H90.698V29.2135ZM93.7125 18.1588H91.7805V27.3699H93.7125V18.1588Z" fill="white"/>
<path opacity="0.9" d="M97.9004 29.1759C97.384 29.1759 97.0518 28.8272 97.0518 28.3307V17.1639C97.0518 16.6674 97.384 16.3187 97.9004 16.3187H102.679V19.9917H100.741V18.1535H98.9862V27.3376H100.741V24.95H102.679V29.1759H97.9004Z" fill="white"/>
<path opacity="0.9" d="M110.169 29.1759H108.112L106.41 23.1153H105.909V29.1759H103.962V16.3187H105.909V21.2771H106.463L108.112 16.3187H110.169L108.169 22.1962L110.169 29.1759Z" fill="white"/>
<path opacity="0.9" d="M111.926 29.2135C111.411 29.2135 111.079 28.8639 111.079 28.3659V17.1664C111.079 16.6684 111.411 16.3187 111.926 16.3187H116.026C116.541 16.3187 116.872 16.6684 116.872 17.1664V28.3694C116.872 28.8674 116.541 29.2171 116.026 29.2171H111.926V29.2135ZM114.94 18.1588H113.008V27.3699H114.94V18.1588Z" fill="white"/>
<path opacity="0.9" d="M123.907 20.7629C123.907 21.4989 123.518 21.9919 122.948 22.1962C123.521 22.3969 123.907 22.8758 123.907 23.6295V28.3307C123.907 28.8272 123.574 29.1759 123.058 29.1759H118.28V16.3187H123.058C123.574 16.3187 123.907 16.6674 123.907 17.1639V20.7629ZM121.972 18.1535H120.221V21.2771H121.972V18.1535ZM120.218 27.3411H121.969V23.1153H120.218V27.3411Z" fill="white"/>
<path opacity="0.9" d="M126.163 29.1759C125.646 29.1759 125.314 28.8272 125.314 28.3307V17.1639C125.314 16.6674 125.646 16.3187 126.163 16.3187H130.942V19.9917H129.003V18.1535H127.248V27.3376H129.003V24.95H130.942V29.1759H126.163Z" fill="white"/>
<path opacity="0.9" d="M138.431 29.1759H136.375L134.671 23.1153H134.17V29.1759H132.224V16.3187H134.17V21.2771H134.724L136.375 16.3187H138.431L136.429 22.1962L138.431 29.1759Z" fill="white"/>
<path opacity="0.9" d="M140.194 29.2135C139.675 29.2135 139.342 28.8639 139.342 28.3659V17.1664C139.342 16.6684 139.675 16.3187 140.194 16.3187H144.324C144.842 16.3187 145.176 16.6684 145.176 17.1664V28.3694C145.176 28.8674 144.842 29.2171 144.324 29.2171H140.194V29.2135ZM143.233 18.1588H141.287V27.3699H143.233V18.1588Z" fill="white"/>
<path opacity="0.9" d="M152.121 16.3187H154.486V29.1759H152.546V23.6646L152.858 19.9917H152.765L151.42 26.6051H149.607L148.223 19.9917H148.131L148.481 23.6646V29.1759H146.542V16.3187H148.906L150.478 23.6646H150.531L152.121 16.3187Z" fill="white"/>
<path opacity="0.9" d="M159.862 29.1759H157.23V27.3411H158.232L158.622 24.9535H157.23L155.397 16.3187H157.379L158.825 23.1153H158.917L160.047 16.3187H161.976L159.862 29.1759Z" fill="white"/>
<path opacity="0.9" d="M81.3489 45C80.8325 45 80.5002 44.6506 80.5002 44.1524V32.9493C80.5002 32.4513 80.8325 32.1017 81.3489 32.1017H86.1278V35.7854H84.1892V33.9418H82.4347V43.1531H84.1892V40.7583H86.1278V44.9963H81.3489V45Z" fill="white"/>
<path opacity="0.9" d="M93.3278 32.1017V45H91.3983V33.9453H89.3777V45H87.4519V32.1017H93.3278Z" fill="white"/>
<path opacity="0.9" d="M95.5808 45C95.0661 45 94.7346 44.6506 94.7346 44.1524V32.9493C94.7346 32.4513 95.0661 32.1017 95.5808 32.1017H99.6815C100.196 32.1017 100.528 32.4513 100.528 32.9493V44.1524C100.528 44.6506 100.196 45 99.6815 45H95.5808ZM98.5953 33.9453H96.6633V43.1564H98.5953V33.9453Z" fill="white"/>
<path opacity="0.9" d="M103.869 40.7618V45H101.935V32.1017H106.797C107.313 32.1017 107.645 32.4513 107.645 32.9493V39.9142C107.645 40.4121 107.313 40.7618 106.797 40.7618H103.869ZM103.869 38.9182H105.713V33.9453H103.869V38.9182Z" fill="white"/>
<path opacity="0.9" d="M108.597 32.1017H114.224V33.9453H112.378V45H110.439V33.9453H108.597V32.1017Z" fill="white"/>
<path opacity="0.9" d="M119.227 45H116.595V43.1564H117.597L117.988 40.7618H116.595L114.762 32.1017H116.744L118.19 38.9182H118.283L119.412 32.1017H121.342L119.227 45Z" fill="white"/>
</g>
<defs>
<clipPath id="clip0_202_290">
<rect width="162" height="45" fill="white"/>
</clipPath>
</defs>
</svg>
