<svg width="40" height="56" viewBox="0 0 40 56" fill="none" xmlns="http://www.w3.org/2000/svg">
<g clip-path="url(#clip0_90_555)">
<path d="M12.0066 10.6732V8.54146H14.7127V11.0992C14.7127 14.7838 13.1004 18.1329 10.5026 20.56C9.03802 21.9208 7.31645 22.9638 5.44287 23.6253V20.8722C6.59539 20.3483 7.65771 19.6393 8.58923 18.7723C10.6977 16.8021 12.0066 14.0858 12.0066 11.0992V10.6732ZM25.269 10.6732V8.54146H27.9748V11.0992C27.9748 14.0858 29.2837 16.8021 31.3925 18.7723C32.3287 19.644 33.3973 20.3558 34.5569 20.8801V23.6317C32.6764 22.9705 30.9485 21.9252 29.4791 20.56C26.8813 18.1329 25.269 14.7838 25.269 11.0992V10.6732ZM5.44287 28.1352C8.55027 27.3114 11.3343 25.7503 13.561 23.6697C15.226 22.1249 16.5778 20.2634 17.5402 18.19C18.1549 19.8818 18.9793 21.4868 19.9933 22.9661C20.9725 21.6785 21.7554 19.9832 22.4647 18.1924C23.427 20.2648 24.7784 22.1255 26.4427 23.6697C28.6687 25.7495 31.4509 27.31 34.5569 28.134V25.4865C32.2537 24.7657 30.136 23.5348 28.3558 21.882C25.4627 19.1788 23.6668 15.4513 23.6668 11.352V0H20.961L20.9604 11.352C20.9604 13.3481 20.6244 15.6787 20.0027 17.4914C19.3814 15.6787 19.0453 13.3507 19.0453 11.352V0H16.3393L16.337 11.352C16.3361 15.4486 14.5411 19.1788 11.6479 21.882C9.86676 23.5358 7.74758 24.7672 5.44287 25.4876L5.44287 28.1352ZM17.3205 22.1505C16.624 23.0819 15.8472 23.9481 14.9994 24.7389C12.4042 27.1639 9.11434 28.939 5.44287 29.7744V32.3677C9.86235 31.488 13.8229 29.4137 16.9128 26.5265C17.5705 25.9123 18.191 25.2581 18.7709 24.5674L18.6789 24.4298L18.6532 24.4683L18.6787 24.4295C18.1891 23.6927 17.7363 22.933 17.3205 22.1505ZM21.3134 24.6607C21.8707 25.317 22.4648 25.94 23.0927 26.5265C26.1815 29.4123 30.1397 31.486 34.5569 32.3665V29.7732C30.8874 28.9373 27.6001 27.1625 25.0061 24.7389C24.1921 23.9793 23.4435 23.1504 22.7684 22.261C22.3696 23.004 21.9364 23.7268 21.4686 24.4295L21.4944 24.4683L21.4686 24.4298C21.4174 24.5071 21.3656 24.584 21.3134 24.6607Z" fill="white"/>
<path d="M2.27413 44.0383C2.55664 42.553 2.92531 40.8949 3.09541 39.3977H4.54813V46.343H3.60501V43.5952L3.71611 41.1127C3.58089 41.9114 3.04967 44.8548 2.37475 46.2651V46.2694H2.17324V46.2651C1.49845 44.8548 0.967231 41.9114 0.832017 41.1127L0.942983 43.5952V46.343H0V39.3977H1.45258C1.6228 40.8949 1.99135 42.553 2.27413 44.0383ZM24.1626 40.6086V41.4602C24.1626 42.0139 23.9301 42.4166 23.5602 42.6762C23.957 42.9848 24.1626 43.4639 24.1626 44.0576V46.3305C23.5058 46.3305 22.8488 46.3283 22.1919 46.3281V46.3305H21.1112V39.3853H22.1919V39.3878C22.8488 39.3876 23.5058 39.3853 24.1626 39.3853V40.6086ZM22.1919 43.2343V45.3384H23.0815C23.0815 44.888 23.082 44.4387 23.082 43.9881C23.082 43.2797 22.5947 43.2125 22.1919 43.2343ZM22.1919 40.3775V42.2398C22.5947 42.2617 23.082 42.2381 23.082 41.5297V40.8979H23.0815V40.3775H22.1919ZM18.2194 46.3305H17.1388V39.3853H20.3461V46.3305H18.2194ZM19.2459 40.3775H18.2392V45.3384H19.2459V40.3775ZM6.39379 46.3305H5.3132V39.3853H8.5205V46.3305H6.39379ZM7.42029 40.3775H6.4134V45.3384H7.42029V40.3775ZM25.958 46.3305H24.8774V39.3853H28.0847V42.1727H26.9844V40.3775H25.958V45.3384H26.9844V43.5431H28.0847V46.3305H25.958ZM10.3663 46.3305H9.28557V39.3853H12.493V42.1727H11.3927V40.3775H10.3663V45.3384H11.3927V43.5431H12.493V46.3305H10.3663ZM29.9304 46.343H28.8498V39.3977H29.9304V42.1196L30.1098 42.1201C30.6957 42.1216 30.8849 41.4957 30.8849 41.0311V39.3977H31.9655V40.9862C31.9655 41.7168 31.6904 42.2642 31.155 42.6229C31.7348 43.0252 31.9655 43.5289 31.9655 44.2596V46.343H30.8849V44.2147C30.8849 43.7649 30.6678 43.2201 30.1185 43.2244L29.9304 43.226V46.343ZM39.55 38.5654H37.1726V37.7517H39.55V38.5654ZM36.7227 46.343V39.3977H37.6853V43.456L38.7954 39.3977H40V46.343H39.0274V41.5106L37.7012 46.3517L36.7227 46.343ZM32.6802 46.343V39.3977H33.6429V43.456L34.7529 39.3977H35.9576V46.343H34.9851V41.5106L33.6587 46.3517L32.6802 46.343ZM14.3387 46.343H13.2581V39.3977H14.3387V42.1196L14.5182 42.1201C15.104 42.1216 15.2932 41.4957 15.2932 41.0311V39.3977H16.3738V40.9862C16.3738 41.7168 16.0987 42.2642 15.5632 42.6229C16.1431 43.0252 16.3738 43.5289 16.3738 44.2596V46.343H15.2932V44.2147C15.2932 43.7649 15.076 43.2201 14.5268 43.2244L14.3387 43.226V46.343Z" fill="white"/>
<path d="M15.7663 55.9999H14.6857V49.0547H17.893V55.9999H16.7928V50.0469H15.7663V55.9999ZM11.798 55.9999H10.7173V49.0547H13.9246V51.8421H12.8244V50.0469H11.798V55.0078H12.8244V53.2125H13.9246V55.9999H11.798ZM19.7327 55.9999H18.6522V49.0547H21.8595V55.9999H19.7327ZM20.7592 50.0469H19.7523V55.0078H20.7592V50.0469ZM25.9426 49.0547H29.2826V50.0469H28.153V55.9999H27.0724V50.0469H25.9426V49.0547ZM25.6454 51.4659V52.3173C25.6454 53.386 25.0829 54.1329 24.0344 54.1329H23.6746V55.9999H22.594V49.0547C23.6108 49.0602 24.6284 49.0547 25.6454 49.0547V51.4659ZM23.6746 50.0469V53.1407C24.0774 53.1626 24.5648 53.0952 24.5648 52.3868V51.7551H24.5643V50.0468L23.6746 50.0469Z" fill="white"/>
</g>
<defs>
<clipPath id="clip0_90_555">
<rect width="40" height="56" fill="white"/>
</clipPath>
</defs>
</svg>
