<svg width="111" height="43" viewBox="0 0 111 43" fill="none" xmlns="http://www.w3.org/2000/svg">
<g clip-path="url(#clip0_304_4212)">
<path d="M49.0568 9.92422C48.9491 10.1089 48.9136 10.3276 48.9574 10.5374C48.9509 13.3459 48.9426 16.1545 48.9596 18.9629C48.9624 19.4249 48.8432 19.5937 48.3637 19.5768C47.3703 19.5419 46.3743 19.5491 45.3805 19.5775C44.9491 19.5898 44.8429 19.4293 44.8449 19.0166C44.8586 16.1892 44.8523 13.3617 44.8455 10.5342C44.845 10.357 44.9215 10.1593 44.7342 9.94494C44.028 11.1779 43.3345 12.3851 42.6445 13.5941C41.6318 15.3684 40.6148 17.1402 39.6148 18.9217C39.5225 19.1444 39.3611 19.3308 39.155 19.4526C38.9489 19.5745 38.7092 19.6253 38.472 19.5974C37.3495 19.5348 36.221 19.5711 35.0951 19.5859C34.6546 19.5918 34.5679 19.4959 34.8071 19.0805C36.5337 16.082 38.229 13.0651 39.968 10.0741C40.1099 9.87257 40.1853 9.6308 40.1832 9.38336C40.1811 9.13591 40.1018 8.89546 39.9565 8.69637C38.4781 6.16509 37.0399 3.60969 35.5885 1.06228C35.2879 0.534659 35.2925 0.524132 35.8968 0.523105C37.0792 0.521079 38.2617 0.538238 39.4436 0.517394C39.6078 0.498528 39.7737 0.532436 39.9177 0.614309C40.0618 0.696183 40.1768 0.821866 40.2462 0.973532C41.6755 3.51187 43.1269 6.03745 44.5716 8.56689C44.6314 8.68845 44.733 8.7838 44.8572 8.83509C44.8572 8.10934 44.8572 7.38359 44.8572 6.65783C44.8567 4.81712 44.8689 2.97625 44.846 1.13581C44.8403 0.680511 44.9466 0.496288 45.4326 0.513289C46.426 0.548028 47.422 0.542817 48.4158 0.514763C48.839 0.502814 48.9609 0.641087 48.9581 1.06454C48.9412 3.64425 48.9497 6.22412 48.9497 8.85639C49.1961 8.74806 49.2489 8.53691 49.342 8.37435C50.7602 5.90159 52.1792 3.42926 53.5791 0.945925C53.6448 0.802201 53.7536 0.683058 53.89 0.605404C54.0264 0.52775 54.1835 0.49553 54.3391 0.513315C55.5585 0.534211 56.7785 0.516315 57.9982 0.524342C58.4521 0.527342 58.5294 0.677116 58.2872 1.06354C56.682 3.62425 55.2862 6.30883 53.7343 8.90055C53.632 9.05502 53.5804 9.23818 53.587 9.42399C53.5935 9.6098 53.6578 9.7888 53.7707 9.93552C55.4685 12.887 57.158 15.8433 58.8394 18.8044C59.2811 19.5792 59.2776 19.5806 58.3661 19.5792C57.2401 19.5775 56.1141 19.5713 54.9882 19.5798C54.85 19.6007 54.7087 19.5772 54.5844 19.5125C54.4601 19.4478 54.359 19.3452 54.2955 19.2192C52.9712 16.6017 51.421 14.1136 49.9969 11.5531C49.6996 11.0183 49.3856 10.4928 49.0568 9.92422Z" fill="#FAFDFB"/>
<path d="M67.2702 31.7812C66.5234 33.0877 65.7766 34.3943 65.0299 35.7009C63.8673 37.7378 62.6981 39.7709 61.5505 41.8165C61.4792 41.9784 61.3589 42.1132 61.2069 42.2014C61.0549 42.2896 60.8791 42.3266 60.705 42.3072C59.7301 42.276 58.7524 42.2646 57.7783 42.3045C57.2455 42.3264 57.1207 42.1343 57.1224 41.6242C57.1397 36.5006 57.1349 31.3771 57.1349 26.2535C57.1349 25.3616 57.1498 24.4688 57.1109 23.5786C57.099 23.306 57.1687 23.2438 57.3976 23.244C58.561 23.2452 59.7245 23.2486 60.888 23.2412C61.1803 23.2393 61.2232 23.403 61.2201 23.6424C61.213 24.1926 61.2164 24.743 61.2167 25.2933C61.2183 28.0448 61.2201 30.7962 61.2221 33.5476C61.2221 33.6597 61.2221 33.7717 61.2221 34.0442C61.8139 33.0388 62.3369 32.173 62.838 31.2945C64.3044 28.7236 65.7641 26.1488 67.217 23.57C67.2759 23.4534 67.3692 23.3581 67.4839 23.2974C67.5986 23.2366 67.7291 23.2132 67.8575 23.2306C68.8707 23.2403 69.8848 23.2553 70.8972 23.2246C71.3577 23.2106 71.5049 23.3451 71.4999 23.8266C71.4752 26.2553 71.4859 28.6844 71.4859 31.1133C71.4859 34.605 71.4718 38.0967 71.5033 41.5881C71.5087 42.1833 71.3349 42.3352 70.7764 42.3096C69.8401 42.2666 68.8998 42.278 67.9624 42.307C67.525 42.3204 67.3824 42.1909 67.3848 41.7332C67.4015 38.5264 67.3911 35.3194 67.3894 32.1125C67.3894 32.0184 67.3894 31.9243 67.3894 31.8302L67.2702 31.7812Z" fill="#FAFDFB"/>
<path d="M84.4506 31.7639C84.2055 32.18 83.9555 32.5932 83.7163 33.0126C82.087 35.87 80.4469 38.7212 78.8444 41.5938C78.7455 41.8341 78.5709 42.0346 78.3478 42.1643C78.1248 42.2939 77.8656 42.3455 77.6106 42.311C76.7111 42.2622 75.8098 42.2602 74.9101 42.3049C74.4169 42.3253 74.2769 42.1764 74.2788 41.6707C74.298 36.7377 74.2908 31.8047 74.291 26.8717C74.291 25.8281 74.3073 24.7842 74.2823 23.7413C74.2725 23.336 74.4095 23.2204 74.7974 23.2291C75.8101 23.252 76.8245 23.2625 77.8364 23.2256C78.3087 23.2083 78.399 23.398 78.3972 23.8192C78.3838 26.9117 78.3877 30.0044 78.3863 33.097C78.3704 33.3735 78.4089 33.6504 78.4997 33.9117C78.9056 33.2059 79.3135 32.5012 79.7169 31.794C81.2631 29.0835 82.8061 26.3712 84.346 23.6569C84.4046 23.5199 84.5041 23.4049 84.6307 23.328C84.7572 23.2512 84.9044 23.2164 85.0515 23.2285C86.0831 23.2475 87.1157 23.2544 88.147 23.2289C88.5612 23.2186 88.6456 23.3874 88.645 23.7631C88.6359 29.7586 88.6354 35.7541 88.6437 41.7496C88.6444 42.1663 88.5251 42.3138 88.1 42.3021C87.1063 42.2747 86.1103 42.2678 85.1174 42.3073C84.6174 42.3272 84.5403 42.1271 84.5424 41.6804C84.5583 38.493 84.5491 35.3055 84.5479 32.118C84.5479 32.0097 84.5479 31.9015 84.5479 31.7932L84.4506 31.7639Z" fill="#FAFDFB"/>
<path d="M34.9001 32.7329C34.9059 34.6612 34.3457 36.548 33.2905 38.154C32.2353 39.76 30.7325 41.013 28.9727 41.7543C27.2129 42.4956 25.2751 42.6918 23.4049 42.3181C21.5347 41.9443 19.8163 41.0175 18.4674 39.6549C17.1184 38.2923 16.1996 36.5554 15.8274 34.6641C15.4552 32.7728 15.6463 30.8124 16.3766 29.0311C17.1068 27.2498 18.3433 25.7278 19.9294 24.6581C21.5155 23.5883 23.3798 23.0189 25.2862 23.0219C27.8318 23.0276 30.2717 24.0521 32.0731 25.8716C33.8744 27.6911 34.8908 30.1578 34.9001 32.7329ZM30.6178 32.7808C30.5854 31.7203 30.2456 30.6927 29.6406 29.8259C29.0356 28.9591 28.1921 28.2913 27.215 27.9055C26.2378 27.5197 25.1701 27.4328 24.1446 27.6558C23.1191 27.8788 22.181 28.4017 21.4469 29.1596C20.7128 29.9175 20.215 30.8769 20.0155 31.9186C19.8161 32.9604 19.9236 34.0384 20.3249 35.0188C20.7261 35.9991 21.4034 36.8386 22.2724 37.4328C23.1414 38.027 24.1639 38.3498 25.2128 38.3609C25.9323 38.3617 26.6446 38.2171 27.308 37.9355C27.9714 37.654 28.5725 37.2411 29.076 36.7213C29.5795 36.2015 29.9753 35.5852 30.2401 34.9085C30.5049 34.2318 30.6333 33.5084 30.6179 32.7808H30.6178Z" fill="#FAFDFB"/>
<path d="M88.6398 10.0408C88.6394 13.0005 88.6292 15.9603 88.6491 18.92C88.6525 19.4301 88.5214 19.6149 87.9902 19.5912C86.9977 19.547 86.0016 19.5636 85.0077 19.5849C84.633 19.5928 84.5264 19.4591 84.5296 19.0921C84.5447 17.4606 84.5432 15.829 84.5251 14.1973C84.5222 13.953 84.716 13.5343 84.3116 13.4875C83.8899 13.4386 83.414 13.2859 83.0972 13.8745C82.2277 15.4897 81.2537 17.0479 80.404 18.673C80.2837 18.9944 80.0567 19.2634 79.7618 19.434C79.4669 19.6046 79.1226 19.6661 78.7878 19.6081C77.8378 19.5253 76.8755 19.5927 75.9188 19.5821C75.2583 19.5747 75.2563 19.5637 75.5769 19.0005C76.6995 17.0283 77.8132 15.0508 78.9567 13.0911C79.1688 12.7279 79.1254 12.5678 78.7856 12.3363C78.0519 11.8282 77.4307 11.1713 76.9614 10.4074C76.4921 9.64349 76.1849 8.78921 76.0594 7.89881C75.9338 7.0084 75.9926 6.10132 76.2321 5.23513C76.4715 4.36895 76.8864 3.56258 77.4503 2.86722C78.0396 2.12591 78.7875 1.52964 79.6378 1.1234C80.488 0.717159 81.4184 0.511558 82.3586 0.522107C84.2905 0.485736 86.2236 0.524502 88.1559 0.501448C88.5886 0.496185 88.6443 0.688304 88.6417 1.04778C88.6309 2.54652 88.6395 4.04536 88.6401 5.54426C88.6407 7.04315 88.6402 8.54194 88.6398 10.0408ZM84.5344 7.06163C84.5344 6.36002 84.5304 5.65837 84.5366 4.95682C84.5387 4.71509 84.4884 4.55063 84.2008 4.55661C83.5262 4.57063 82.8455 4.51937 82.178 4.59345C81.5766 4.67767 81.03 4.99194 80.6508 5.47156C80.2715 5.95118 80.0885 6.55964 80.1394 7.17166C80.1833 7.77253 80.444 8.33612 80.8719 8.75522C81.2999 9.17432 81.8651 9.41971 82.4602 9.44472C83.0225 9.4574 83.5856 9.43569 84.1478 9.4504C84.44 9.45806 84.5452 9.34882 84.5383 9.05272C84.523 8.38935 84.5335 7.72544 84.5344 7.06173V7.06163Z" fill="#FAFDFB"/>
<path d="M60.4107 10.0219C60.4107 7.06153 60.4224 4.10097 60.3995 1.14074C60.3956 0.631857 60.5462 0.491821 61.0369 0.512269C61.9549 0.550535 62.877 0.551535 63.7947 0.508532C64.3238 0.483741 64.5063 0.625304 64.4976 1.19016C64.4657 3.25818 64.4976 5.32714 64.4768 7.39544C64.4723 7.83921 64.5869 7.98496 65.0413 7.97546C66.3919 7.94719 67.743 7.94895 69.0944 7.98072C69.5781 7.99251 69.6869 7.82142 69.6821 7.36292C69.6604 5.27566 69.6838 3.18793 69.6636 1.10068C69.6594 0.66407 69.763 0.496295 70.2233 0.511322C71.2169 0.543745 72.2126 0.536666 73.2067 0.512454C73.6084 0.502663 73.7673 0.604355 73.7664 1.04599C73.7546 7.06177 73.7546 13.0775 73.7664 19.0933C73.767 19.4624 73.6621 19.5923 73.287 19.5845C72.2741 19.5634 71.2599 19.5617 70.2472 19.589C69.8171 19.6006 69.66 19.4869 69.6653 19.0199C69.6891 16.9327 69.6542 14.8447 69.6879 12.7577C69.6967 12.211 69.52 12.0942 69.0211 12.1059C67.6894 12.1373 66.3563 12.1305 65.0242 12.108C64.6103 12.101 64.4736 12.2221 64.4777 12.6532C64.4976 14.7595 64.4756 16.8662 64.4949 18.9725C64.4992 19.4286 64.3873 19.6094 63.9026 19.5904C62.9469 19.553 61.9876 19.5497 61.0321 19.5889C60.5388 19.6092 60.3921 19.4669 60.3958 18.9602C60.4183 15.981 60.4069 13.0014 60.4069 10.022L60.4107 10.0219Z" fill="#FAFDFB"/>
<path d="M10.7468 9.10542C10.0067 10.3919 9.26263 11.6761 8.5274 12.9655C7.33414 15.058 6.14547 17.1532 4.9614 19.251C4.90799 19.3603 4.8228 19.4505 4.71727 19.5094C4.61174 19.5684 4.49092 19.5933 4.37101 19.5808C3.15148 19.5734 1.93153 19.5688 0.712208 19.5902C0.248982 19.5983 0.209462 19.4672 0.429277 19.086C1.71433 16.8577 2.99174 14.6251 4.26153 12.3879C6.41744 8.60948 8.56924 4.82868 10.7169 1.04555C10.7951 0.86728 10.9278 0.719149 11.0956 0.623023C11.2633 0.526897 11.4572 0.487868 11.6485 0.511698C12.5669 0.545016 13.4877 0.542621 14.4063 0.512672C14.8482 0.498276 14.9864 0.636523 14.9838 1.09032C14.9671 4.29697 14.976 7.50375 14.9764 10.7105C14.9766 13.386 14.9762 16.0614 14.9749 18.7369C14.9733 19.6892 15.0471 19.5749 14.1159 19.5774C13.234 19.5798 12.3512 19.5547 11.4705 19.5869C11.0058 19.6039 10.8666 19.4582 10.8693 18.9803C10.8873 15.8117 10.875 12.6428 10.8725 9.47402C10.8725 9.36401 10.8725 9.25401 10.8725 9.144L10.7468 9.10542Z" fill="#FAFDFB"/>
<path d="M3.33932 32.7956C3.33932 29.7993 3.34743 26.8031 3.33037 23.8069C3.32777 23.3667 3.43636 23.2174 3.89334 23.2261C5.4118 23.255 6.93128 23.2234 8.45011 23.2401C9.92989 23.2426 11.363 23.7641 12.5053 24.7158C13.6475 25.6675 14.4282 26.9903 14.7142 28.459C15.0003 29.9277 14.774 31.4513 14.074 32.7701C13.374 34.0889 12.2435 35.1214 10.8752 35.6915C9.95088 36.0738 8.95156 36.2344 7.95558 36.1607C7.53614 36.1367 7.40725 36.2673 7.41313 36.6987C7.43618 38.3861 7.40944 40.0742 7.43023 41.7617C7.43543 42.19 7.30098 42.3182 6.88336 42.3065C5.8902 42.2786 4.89519 42.2761 3.90211 42.305C3.45894 42.3179 3.32823 42.1804 3.33115 41.7274C3.35035 38.7502 3.34106 35.7729 3.34106 32.7956L3.33932 32.7956ZM7.42377 29.6641C7.42377 30.3661 7.42372 31.068 7.42362 31.77C7.42362 31.9411 7.3964 32.1376 7.64377 32.1492C8.02401 32.212 8.41286 32.1963 8.78694 32.1031C9.16102 32.0099 9.5126 31.8411 9.82056 31.6069C10.2415 31.251 10.5319 30.7622 10.6452 30.2192C10.7586 29.6762 10.6882 29.1104 10.4455 28.6127C10.1884 28.1217 9.78305 27.7264 9.28853 27.4845C8.794 27.2425 8.23606 27.1664 7.69586 27.2673C7.42835 27.316 7.42424 27.4746 7.42442 27.672C7.42505 28.336 7.42483 29.0001 7.42377 29.6641Z" fill="#FAFDFB"/>
<path d="M17.7788 10.0261C17.7788 7.06856 17.7935 4.11087 17.7655 1.15361C17.7603 0.610359 17.9324 0.48364 18.4315 0.501615C19.4053 0.536854 20.3816 0.530959 21.3557 0.502641C21.785 0.490114 21.8955 0.642125 21.8906 1.05939C21.8708 2.72748 21.8976 4.39616 21.8766 6.06422C21.8711 6.5011 21.9999 6.61163 22.4366 6.66045C23.9432 6.75362 25.3666 7.39064 26.4482 8.45567C27.5297 9.52069 28.1975 10.943 28.33 12.4639C28.4914 13.9492 28.1342 15.4448 27.3204 16.6917C26.5066 17.9387 25.2873 18.8585 23.8737 19.292C23.1338 19.5084 22.3649 19.6062 21.5951 19.582C20.508 19.5645 19.4196 19.5551 18.3333 19.589C17.8792 19.6032 17.7653 19.4565 17.7679 19.0124C17.7855 16.017 17.777 13.0215 17.777 10.0261H17.7788ZM21.8851 13.0746H21.888C21.888 13.7375 21.9084 14.4013 21.8811 15.0631C21.8619 15.5281 22.0797 15.5597 22.4347 15.4673C22.7976 15.3718 23.1333 15.1917 23.4151 14.9414C23.6968 14.6911 23.9167 14.3776 24.0572 14.026C24.1847 13.6957 24.2411 13.3417 24.2226 12.9876C24.2042 12.6335 24.1113 12.2875 23.9502 11.9725C23.7891 11.6576 23.5635 11.3811 23.2884 11.1613C23.0134 10.9415 22.6951 10.7836 22.3549 10.6981C22.0282 10.6406 21.8657 10.702 21.8788 11.086C21.9015 11.7482 21.8851 12.4117 21.8851 13.0746Z" fill="#FAFDFB"/>
<path d="M45.4508 25.1299C45.4508 25.661 45.4373 26.1927 45.456 26.7231C45.4671 27.0356 45.358 27.1491 45.045 27.176C44.1085 27.2763 43.2125 27.6156 42.4412 28.1622C41.6699 28.7088 41.0485 29.4446 40.6355 30.3007C40.2224 31.1569 40.0312 32.1051 40.0797 33.0565C40.1283 34.0078 40.415 34.9311 40.913 35.7396C41.3205 36.4718 41.9004 37.0909 42.6011 37.542C43.3019 37.9931 44.1019 38.2622 44.9301 38.3255C45.34 38.3661 45.4727 38.4826 45.4609 38.9007C45.432 39.9243 45.4308 40.9485 45.4574 41.9734C45.4693 42.4168 45.3098 42.5103 44.9009 42.4959C42.5484 42.3581 40.3274 41.353 38.658 39.6707C36.9886 37.9883 35.9866 35.7454 35.8415 33.3662C35.6965 30.987 36.4184 28.6365 37.8708 26.7594C39.3232 24.8823 41.4054 23.6088 43.7233 23.1797C44.1457 23.1004 44.5821 23.1 45.0083 23.0374C45.3727 22.9838 45.4634 23.1406 45.4506 23.4797C45.4298 24.029 45.445 24.5798 45.445 25.1298L45.4508 25.1299Z" fill="#FAFDFB"/>
<path d="M55.0743 25.1009C55.0747 25.6132 55.0512 26.127 55.0823 26.6373C55.1064 27.0326 54.9554 27.1394 54.5811 27.1844C53.3836 27.3004 52.2598 27.8217 51.3915 28.664C50.5232 29.5063 49.9613 30.6203 49.7967 31.8258C49.5886 33.0225 49.7682 34.2551 50.3089 35.3401C50.8495 36.425 51.7222 37.3043 52.7969 37.8468C53.3858 38.147 54.031 38.3171 54.6899 38.3456C54.9831 38.3569 55.0796 38.479 55.0773 38.763C55.0687 39.8445 55.0527 40.9266 55.0838 42.0073C55.098 42.5004 54.8487 42.5126 54.4897 42.4862C53.1438 42.4166 51.8285 42.055 50.6328 41.426C49.4371 40.7971 48.3891 39.9155 47.5597 38.8409C46.5161 37.5184 45.8306 35.944 45.5707 34.2723C45.3108 32.6007 45.4853 30.8894 46.0773 29.3067C46.6692 27.7239 47.6581 26.3243 48.9467 25.2452C50.2354 24.1662 51.7794 23.445 53.4271 23.1524C55.073 22.8576 55.073 22.8576 55.0739 24.5316C55.074 24.7214 55.0741 24.9112 55.0743 25.1009Z" fill="#FAFDFB"/>
<path d="M98.9701 26.5341C101.108 26.5341 103.246 26.5335 105.384 26.5322C105.976 26.5309 106.005 26.4878 105.722 25.9796C105.344 25.3032 104.934 24.6459 104.557 23.9693C104.281 23.4743 104.337 23.3812 104.876 23.3754C105.645 23.3672 106.414 23.3813 107.182 23.3661C107.33 23.3501 107.48 23.3803 107.61 23.4525C107.741 23.5248 107.846 23.6357 107.913 23.7704C108.655 25.0843 109.418 26.3867 110.171 27.6946C110.257 27.8306 110.302 27.989 110.3 28.1504C110.298 28.3119 110.25 28.4693 110.161 28.6034C109.45 29.8281 108.75 31.0592 108.06 32.2968C107.989 32.4709 107.864 32.6176 107.705 32.7159C107.546 32.8142 107.36 32.8591 107.175 32.8442C106.444 32.8142 105.712 32.8442 104.981 32.8386C104.419 32.8344 104.378 32.7628 104.657 32.2533C105.011 31.6076 105.379 30.9702 105.736 30.3263C106.022 29.8091 105.975 29.72 105.38 29.7193C101.18 29.7146 96.979 29.7127 92.7783 29.7136C92.0056 29.7132 92.0004 29.7111 91.9909 28.9377C91.9836 28.331 92.0199 27.7224 91.9837 27.1179C91.9536 26.6157 92.1732 26.5251 92.6129 26.5289C94.7319 26.5473 96.851 26.5372 98.9701 26.5372V26.5341Z" fill="#FAFDFB"/>
<path d="M33.4158 10.022C33.4158 13.0011 33.4041 15.9806 33.4271 18.9597C33.4311 19.4689 33.2853 19.6079 32.7902 19.5883C31.7972 19.5491 30.8014 19.5673 29.8072 19.5866C29.4493 19.5936 29.3152 19.4876 29.3158 19.1053C29.3251 13.0709 29.3249 7.03641 29.3149 1.00195C29.3143 0.623366 29.4439 0.511252 29.8049 0.518516C30.7241 0.536938 31.644 0.512647 32.5633 0.524201C33.4703 0.53557 33.4158 0.375427 33.4174 1.36879C33.4218 4.2532 33.4223 7.13762 33.4189 10.022L33.4158 10.022Z" fill="#FAFDFB"/>
<path d="M96.414 39.264C95.1193 39.264 93.8244 39.2519 92.53 39.2714C92.1417 39.2773 91.9807 39.1433 91.987 38.7526C91.9987 38.0318 91.9993 37.3109 91.9888 36.5898C91.9831 36.2274 92.1267 36.1097 92.4888 36.0942C95.0385 35.9853 97.5876 36.0201 100.137 36.0863C100.344 36.0916 100.572 36.1348 100.707 35.9393C100.842 35.7438 100.662 35.5849 100.576 35.4261C100.216 34.7619 99.8681 34.0903 99.4804 33.4429C99.2504 33.0589 99.2848 32.9029 99.7565 32.9088C100.582 32.9193 101.408 32.9153 102.233 32.9048C102.374 32.8968 102.513 32.9318 102.633 33.0051C102.753 33.0784 102.849 33.1867 102.908 33.3158C103.618 34.5864 104.329 35.8568 105.068 37.11C105.185 37.2781 105.246 37.4795 105.242 37.6849C105.238 37.8903 105.17 38.0892 105.047 38.2528C104.305 39.4815 103.603 40.7349 102.904 41.9895C102.847 42.1184 102.753 42.2267 102.633 42.3001C102.514 42.3735 102.376 42.4086 102.236 42.4007C101.376 42.3882 100.517 42.3793 99.6566 42.3741C99.2847 42.3713 99.3161 42.211 99.4661 41.9521C99.8637 41.2655 100.249 40.5713 100.631 39.8755C100.93 39.3304 100.899 39.2731 100.298 39.2708C99.0034 39.2659 97.7087 39.2693 96.414 39.2693L96.414 39.264Z" fill="#FAFDFB"/>
</g>
<defs>
<clipPath id="clip0_304_4212">
<rect width="110" height="42" fill="white" transform="translate(0.300049 0.5)"/>
</clipPath>
</defs>
</svg>
