<?xml version="1.0" encoding="UTF-8"?>
<!DOCTYPE svg PUBLIC "-//W3C//DTD SVG 1.1//EN" "http://www.w3.org/Graphics/SVG/1.1/DTD/svg11.dtd">
<svg xmlns="http://www.w3.org/2000/svg" version="1.1" width="1199px" height="293px" style="shape-rendering:geometricPrecision; text-rendering:geometricPrecision; image-rendering:optimizeQuality; fill-rule:evenodd; clip-rule:evenodd" xmlns:xlink="http://www.w3.org/1999/xlink">
<g><path style="opacity:0.962" fill="#fefffe" d="M 123.5,14.5 C 180.671,13.9812 223.171,38.3146 251,87.5C 272.788,136.449 268.455,182.782 238,226.5C 196.552,275.055 145.052,289.388 83.5,269.5C 23.7096,241.395 -3.45707,194.395 2,128.5C 4.79463,105.119 13.128,84.4525 27,66.5C 51.7838,35.6533 83.9504,18.32 123.5,14.5 Z M 121.5,78.5 C 169.027,77.4895 195.693,100.156 201.5,146.5C 198.693,179.829 181.36,201.995 149.5,213C 114.272,218.988 87.9391,206.655 70.5,176C 58.1049,143.282 64.7716,115.282 90.5,92C 100.273,85.9633 110.607,81.4633 121.5,78.5 Z"/></g>
<g><path style="opacity:0.963" fill="#fefffe" d="M 721.5,14.5 C 776.227,11.9063 825.227,25.9063 868.5,56.5C 890.901,73.9426 906.401,96.276 915,123.5C 921.088,157.151 913.421,187.151 892,213.5C 868.162,240.361 838.662,258.527 803.5,268C 803.833,268.333 804.167,268.667 804.5,269C 754.396,282.235 704.563,281.402 655,266.5C 618.461,254.54 588.794,233.54 566,203.5C 539.947,158.758 543.28,116.425 576,76.5C 604.113,47.1696 638.279,28.3363 678.5,20C 692.839,17.0503 707.172,15.217 721.5,14.5 Z M 714.5,78.5 C 755.06,74.8538 792.393,83.6871 826.5,105C 838.684,113.361 847.351,124.528 852.5,138.5C 853.833,143.833 853.833,149.167 852.5,154.5C 850.809,159.414 848.643,164.08 846,168.5C 836.273,180.631 824.44,190.298 810.5,197.5C 773.55,214.608 734.883,219.108 694.5,211C 666.646,205.662 642.813,193.162 623,173.5C 610.948,158.411 609.614,142.411 619,125.5C 622.488,120.681 626.321,116.181 630.5,112C 648.011,97.8175 668.345,87.9842 691.5,82.5C 699.327,81.2725 706.994,79.9392 714.5,78.5 Z"/></g>
<g><path style="opacity:0.949" fill="#fefffe" d="M 330.5,19.5 C 395.168,19.3333 459.834,19.5 524.5,20C 526.754,21.256 529.088,22.4227 531.5,23.5C 533.39,26.9515 533.89,30.6182 533,34.5C 530.998,36.503 529.498,38.8364 528.5,41.5C 486.033,97.0195 443.699,152.519 401.5,208C 437.171,208.167 472.838,208.667 508.5,209.5C 521.511,212.679 529.678,220.679 533,233.5C 535.304,255.849 525.471,269.016 503.5,273C 432.833,273.667 362.167,273.667 291.5,273C 282.743,269.429 280.743,263.596 285.5,255.5C 328.751,198.481 372.084,141.648 415.5,85C 385.828,84.8332 356.161,84.3332 326.5,83.5C 301.581,74.3746 294.748,57.7079 306,33.5C 311.992,25.8356 319.825,21.6689 329.5,21C 330.056,20.6174 330.389,20.1174 330.5,19.5 Z"/></g>
<g><path style="opacity:0.972" fill="#fefffe" d="M 1198.5,39.5 C 1198.5,116.167 1198.5,192.833 1198.5,269.5C 1195.88,270.546 1193.38,271.879 1191,273.5C 1188.24,272.077 1185.41,270.744 1182.5,269.5C 1129.13,226.621 1075.63,183.954 1022,141.5C 1021.83,177.838 1021.33,214.171 1020.5,250.5C 1015.04,264.732 1004.7,272.398 989.5,273.5C 973.758,271.922 963.592,263.588 959,248.5C 958.333,174.167 958.333,99.8333 959,25.5C 960.936,22.897 963.436,21.0637 966.5,20C 970.207,20.8566 973.874,22.1899 977.5,24C 977.167,24.3333 976.833,24.6667 976.5,25C 1030.05,66.9368 1083.39,109.103 1136.5,151.5C 1137.33,116.171 1137.83,80.838 1138,45.5C 1140.21,35.9463 1145.55,28.613 1154,23.5C 1173.42,16.5512 1188.26,21.8846 1198.5,39.5 Z"/></g>
</svg>
