<svg width="96" height="41" viewBox="0 0 96 41" fill="none" xmlns="http://www.w3.org/2000/svg">
<g clip-path="url(#clip0_90_525)">
<path d="M6.72915 22.3262H3.02612V37.3286H14.7126V34.3478H6.72915V22.3262Z" fill="#F1F0F0"/>
<path d="M27.9718 22.9183C26.7972 22.2866 25.4633 21.9905 23.9303 21.9905C22.4172 21.9905 21.0833 22.3063 19.9286 22.9183C18.754 23.5499 17.8382 24.4382 17.1812 25.6226C16.5242 26.807 16.1858 28.2086 16.1858 29.8273C16.1858 31.4459 16.5242 32.8475 17.1812 34.0319C17.8382 35.2163 18.754 36.1046 19.9286 36.7363C21.1033 37.3679 22.4371 37.664 23.9303 37.664C25.4434 37.664 26.7972 37.3482 27.9718 36.7363C29.1464 36.1046 30.0622 35.2163 30.7192 34.0319C31.3762 32.8475 31.7146 31.4459 31.7146 29.8273C31.7146 28.2086 31.3762 26.807 30.7192 25.6226C30.0622 24.4382 29.1464 23.5499 27.9718 22.9183ZM26.8569 33.5581C26.1203 34.3872 25.1447 34.8017 23.9502 34.8017C22.7557 34.8017 21.8001 34.3872 21.0634 33.5581C20.3268 32.729 19.9485 31.4854 19.9485 29.8273C19.9485 28.1691 20.3268 26.9057 21.0634 26.0964C21.8001 25.2673 22.7557 24.8528 23.9502 24.8528C25.1447 24.8528 26.1203 25.2673 26.8569 26.0964C27.5935 26.9255 27.9718 28.1691 27.9718 29.8273C27.9519 31.4854 27.5935 32.7488 26.8569 33.5581Z" fill="#F1F0F0"/>
<path d="M65.8582 37.3286H77.4052V34.4663H69.5612V30.992H77.027V28.2877H69.5612V25.0898H77.4052V22.3262H65.8582V37.3286Z" fill="#F1F0F0"/>
<path d="M79.4558 25.3069H84.3733V37.3286H88.0564V25.3069H92.9739V22.3262H79.4558V25.3069Z" fill="#F1F0F0"/>
<path d="M6.88842 14.1734H9.83492L13.1 19.8388H17.6192L13.8764 13.7588C14.9515 13.4035 15.7876 12.7916 16.3451 11.9625C16.9224 11.1334 17.2012 10.1069 17.2012 8.92254C17.2012 7.30386 16.6636 6.02076 15.6085 5.09298C14.5533 4.1652 13.0601 3.71118 11.1688 3.71118H3.02612V19.8585H6.90833V14.1734H6.88842ZM6.88842 6.69192H10.5516C11.4276 6.69192 12.1045 6.88932 12.5624 7.28412C13.0203 7.67892 13.2592 8.23164 13.2592 8.94228C13.2592 9.65292 13.0203 10.2056 12.5624 10.6004C12.1045 10.9952 11.4276 11.1926 10.5516 11.1926H6.88842V6.69192Z" fill="#F1F0F0"/>
<path d="M30.4604 13.5417C30.4604 14.7656 30.1816 15.6539 29.6441 16.2461C29.1066 16.8185 28.2903 17.1146 27.1953 17.1146C25.0253 17.1146 23.9303 15.9302 23.9303 13.5417V3.69141H20.0481V13.897C20.0481 15.2788 20.3467 16.4435 20.9639 17.391C21.5811 18.3385 22.4172 19.0294 23.4923 19.5032C24.5674 19.9769 25.7818 20.2138 27.1754 20.2138C28.5491 20.2138 29.7835 19.9769 30.8585 19.5032C31.9336 19.0294 32.7698 18.3385 33.387 17.391C34.0041 16.4435 34.3028 15.2788 34.3028 13.897V3.69141H30.4604V13.5417Z" fill="#F1F0F0"/>
<path d="M73.5031 3.69141H69.6208V19.8387H73.5031V3.69141Z" fill="#F1F0F0"/>
<path d="M81.2674 16.2263H87.6382L88.8527 19.8387H92.9738L87.041 3.69141H81.8647L75.9319 19.8387H80.0331L81.2674 16.2263ZM84.3533 6.90903H84.4528L86.6627 13.4232H82.2031L84.3533 6.90903Z" fill="#F1F0F0"/>
<path d="M46.0289 23.6488C45.0335 22.7802 43.62 22.3262 41.8282 22.3262H41.5694L40.5939 25.0898H41.1712C42.0074 25.0898 42.6445 25.2872 43.1024 25.6622C43.5404 26.0373 43.7793 26.5703 43.7793 27.2612C43.7793 27.9521 43.5603 28.4851 43.1223 28.8601C42.6843 29.2549 42.0273 29.4326 41.1911 29.4326H39.0808L36.3135 37.3088H38.1053V32.1962H41.8282C43.6399 32.1962 45.0335 31.7619 46.0289 30.8736C47.0244 30.005 47.5221 28.7812 47.5221 27.2217C47.542 25.7215 47.0443 24.5173 46.0289 23.6488Z" fill="#F1F0F0"/>
<path d="M34.4221 22.3262V30.005L37.1098 22.3262H34.4221Z" fill="#F1F0F0"/>
<path d="M38.4837 18.3781L39.8375 14.509L36.6919 14.8249C36.8711 16.3054 37.4683 17.4898 38.4837 18.3781Z" fill="#F1F0F0"/>
<path d="M50.4885 8.29102C50.1899 6.69208 49.4732 5.4682 48.2787 4.61938C48.1393 4.52068 47.9999 4.42198 47.8407 4.34302L46.5864 7.9357C46.6462 8.1331 46.7059 8.3305 46.7457 8.54764L50.4885 8.29102Z" fill="#F1F0F0"/>
<path d="M50.2497 12.5349C49.7719 11.8638 49.1946 11.39 48.4978 11.0939C47.8209 10.7978 46.9051 10.5214 45.7703 10.2253L44.6355 13.4824C45.4716 13.6996 46.0689 13.9167 46.4272 14.1733C46.8055 14.43 47.0046 14.8445 47.0046 15.3972C47.0046 16.0092 46.7458 16.4632 46.2082 16.8185C45.6707 17.1541 44.9938 17.3317 44.1377 17.3317C43.8391 17.3317 43.5803 17.312 43.3215 17.2725L42.3459 20.0756C42.9034 20.1546 43.4807 20.2138 44.0979 20.2138C46.1087 20.2138 47.7412 19.7992 49.0353 18.9702C50.3294 18.1411 50.9664 16.9172 50.9664 15.2788C50.9664 14.1141 50.7275 13.2061 50.2497 12.5349Z" fill="#F1F0F0"/>
<path d="M39.5189 11.9626C39.8374 12.1007 40.1958 12.2389 40.5939 12.3771L41.7486 9.10026C41.6889 9.06078 41.6292 9.04104 41.5695 9.00156C41.2111 8.76468 41.0518 8.40936 41.0518 7.95534C41.0518 7.4421 41.2907 7.00782 41.7686 6.67224C42.0473 6.47484 42.3658 6.33666 42.764 6.2577L43.7793 3.33618C42.5251 3.33618 41.4102 3.53358 40.4148 3.90864C39.4193 4.2837 38.6429 4.83642 38.0854 5.5668C37.528 6.29718 37.2493 7.16574 37.2493 8.19222C37.2493 9.2187 37.4683 10.028 37.9063 10.64C38.3243 11.2322 38.8619 11.6665 39.5189 11.9626Z" fill="#F1F0F0"/>
<path d="M53.8134 37.3286V32.2554L52.0415 37.3286H53.8134Z" fill="#F1F0F0"/>
<path d="M61.757 23.6488C60.7616 22.7802 59.3481 22.3262 57.5563 22.3262H57.2975L56.322 25.0898H56.8993C57.7355 25.0898 58.3726 25.2872 58.8305 25.6622C59.2685 26.0373 59.5074 26.5703 59.5074 27.2612C59.5074 27.9521 59.2884 28.4851 58.8504 28.8601C58.4124 29.2549 57.7554 29.4326 56.9192 29.4326H54.8288L53.8533 32.1962H57.5762C59.3879 32.1962 60.7815 31.7619 61.777 30.8736C62.7724 30.005 63.2701 28.7812 63.2701 27.2217C63.2502 25.7215 62.7525 24.5173 61.757 23.6488Z" fill="#F1F0F0"/>
<path d="M50.1301 22.3262V30.0248L52.8377 22.3262H50.1301Z" fill="#F1F0F0"/>
<path d="M66.1567 12.5351C65.6788 11.8639 65.1015 11.3902 64.4047 11.0941C63.7278 10.798 62.812 10.5019 61.6772 10.2255L61.5378 10.186L60.403 13.4431C61.3188 13.6603 61.9559 13.9169 62.3541 14.1735C62.7324 14.4301 62.9314 14.8447 62.9314 15.3974C62.9314 16.0093 62.6726 16.4634 62.1351 16.8187C61.5976 17.1543 60.9207 17.3319 60.0646 17.3319C59.7261 17.3319 59.3877 17.2924 59.0891 17.253L58.1135 20.056C58.7108 20.1547 59.3479 20.214 60.0248 20.214C62.0356 20.214 63.6681 19.7994 64.9621 18.9703C66.2562 18.1413 66.8933 16.9174 66.8933 15.279C66.8734 14.1143 66.6345 13.2063 66.1567 12.5351Z" fill="#F1F0F0"/>
<path d="M55.4061 11.9626C55.6848 12.081 55.9834 12.2192 56.3219 12.3376L57.4766 9.0213C57.4567 9.0213 57.4567 9.00156 57.4368 9.00156C57.0784 8.76468 56.9191 8.40936 56.9191 7.95534C56.9191 7.4421 57.158 7.00782 57.6359 6.67224C57.8748 6.51432 58.1336 6.37614 58.4521 6.29718L59.4874 3.33618C58.2928 3.35592 57.2377 3.53358 56.302 3.8889C55.3065 4.26396 54.5301 4.81668 53.9726 5.54706C53.4152 6.27744 53.1365 7.146 53.1365 8.17248C53.1365 9.19896 53.3555 10.0083 53.7935 10.6202C54.2116 11.2322 54.769 11.6665 55.4061 11.9626Z" fill="#F1F0F0"/>
<path d="M54.2513 18.2794L55.5653 14.5288L52.5989 14.8249C52.7581 16.2462 53.3156 17.3911 54.2513 18.2794Z" fill="#F1F0F0"/>
<path d="M66.3957 8.29088C66.0971 6.69194 65.3804 5.46806 64.1858 4.61924C64.0067 4.48106 63.8076 4.36262 63.6085 4.26392L62.394 7.71842C62.5135 7.97504 62.5931 8.23166 62.633 8.5475L66.3957 8.29088Z" fill="#F1F0F0"/>
<path d="M92.974 5.48775C92.974 6.49449 92.1776 7.28409 91.1623 7.28409C90.1469 7.28409 89.3506 6.49449 89.3506 5.48775C89.3506 4.48101 90.1469 3.69141 91.1623 3.69141C92.1975 3.69141 92.974 4.48101 92.974 5.48775ZM89.6293 5.48775C89.6293 6.35631 90.2863 7.02747 91.1623 7.02747C92.0383 7.02747 92.6953 6.33657 92.6953 5.48775C92.6953 4.63893 92.0383 3.94803 91.1623 3.94803C90.2863 3.94803 89.6293 4.63893 89.6293 5.48775ZM90.7641 6.53397H90.5053V4.46127H91.3016C91.7795 4.46127 91.9785 4.65867 91.9785 5.03373C91.9785 5.40879 91.7396 5.56671 91.4609 5.60619L92.0781 6.53397H91.7795L91.1822 5.60619H90.7442V6.53397H90.7641ZM91.1026 5.40879C91.4211 5.40879 91.7396 5.38905 91.7396 5.05347C91.7396 4.75737 91.5007 4.69815 91.2419 4.69815H90.7641V5.42853H91.1026V5.40879Z" fill="#F1F0F0"/>
</g>
<defs>
<clipPath id="clip0_90_525">
<rect width="96" height="41" fill="white"/>
</clipPath>
</defs>
</svg>
